<?xml version="1.0" encoding="utf-8"?>
<!-- Generator: Adobe Illustrator 21.0.2, SVG Export Plug-In . SVG Version: 6.00 Build 0)  -->
<svg version="1.1" id="Layer_1" xmlns="http://www.w3.org/2000/svg" xmlns:xlink="http://www.w3.org/1999/xlink" x="0px" y="0px"
	 viewBox="0 0 1280 1024" style="enable-background:new 0 0 1280 1024;" xml:space="preserve">
<style type="text/css">
	.st0{fill:#FF3D00;}
	.st1{fill:#FFC400;}
	.st2{fill:#FFFF00;}
	.st3{fill:#FFFFFF;}
	.st4{fill:#DD2C00;}
</style>
<rect x="237.8" class="st0" width="199.5" height="637.2"/>
<circle class="st0" cx="337.1" cy="637.2" r="99.4"/>
<path class="st1" d="M401.5,357.5v30.8c0,4.8-3.9,8.8-8.7,8.8h0c-4.8,0-8.8-3.9-8.8-8.8v-58.8c0-4.8-3.9-8.8-8.7-8.8h-0.7
	c-4.8,0-8.8,3.9-8.8,8.8v53.9c0,4.8-3.9,8.8-8.8,8.8l0,0c-4.8,0-8.8-3.9-8.8-8.8V245.5c0-4.8-3.9-8.7-8.8-8.7h-0.7
	c-4.8,0-8.8,3.9-8.8,8.7v83.3c0,4.8-3.9,8.8-8.8,8.8l0,0c-4.8,0-8.8-3.9-8.8-8.8v-34.3c0-4.8-3.9-8.8-8.8-8.8h-0.7
	c-4.8,0-8.7,3.9-8.7,8.8v107.1c0,4.8-3.9,8.8-8.8,8.8h0c-4.8,0-8.7-3.9-8.7-8.8v-16.1c0-4.8-3.9-8.8-8.8-8.8H264
	c-4.8,0-8.8,3.9-8.8,8.8v245c0,4.8,3.9,8.8,8.8,8.8h146.3c4.8,0,8.7-3.9,8.7-8.8v-273c0-4.8-3.9-8.8-8.7-8.8h0
	C405.5,348.8,401.5,352.7,401.5,357.5z"/>
<circle class="st1" cx="337.1" cy="637.2" r="81.9"/>
<path class="st2" d="M383.8,462.7v49.4c0,4.9-4,8.9-8.9,8.9l0,0c-4.9,0-8.9-4-8.9-8.9v-77.4c0-4.9-4-8.9-8.9-8.9h0
	c-4.9,0-8.9,4-8.9,8.9v98.4c0,4.9-4,8.9-8.9,8.9h0c-4.9,0-8.9-4-8.9-8.9V378.7c0-4.9-4-8.9-8.9-8.9h0c-4.9,0-8.9,4-8.9,8.9v119.4
	c0,4.9-4,8.9-8.9,8.9l0,0c-4.9,0-8.9-4-8.9-8.9v-7.4c0-4.9-4-8.9-8.9-8.9h0c-4.9,0-8.9,4-8.9,8.9v139.7c0,4.9,4,8.9,8.9,8.9h106.8
	c4.9,0,8.9-4,8.9-8.9V462.7c0-4.9-4-8.9-8.9-8.9h0C387.7,453.8,383.8,457.8,383.8,462.7z"/>
<circle class="st3" cx="339.3" cy="639.3" r="62.3"/>
<path class="st2" d="M285.7,460.8L285.7,460.8c-4.8,0-8.8-3.9-8.8-8.7v-7.7c0-4.8,3.9-8.8,8.7-8.8h0c4.8,0,8.8,3.9,8.8,8.8v7.7
	C294.5,456.9,290.5,460.8,285.7,460.8z"/>
<path class="st2" d="M392.8,439.8L392.8,439.8c-4.8,0-8.8-3.9-8.8-8.7v-7.7c0-4.8,3.9-8.8,8.8-8.8h0c4.8,0,8.7,3.9,8.7,8.8v7.7
	C401.5,435.9,397.6,439.8,392.8,439.8z"/>
<path class="st1" d="M375,299.1L375,299.1c-5,0-9.1-4.1-9.1-9.1v-18.2c0-5,4.1-9.1,9.1-9.1h0c5,0,9.1,4.1,9.1,9.1V290
	C384,295,380,299.1,375,299.1z"/>
<path class="st1" d="M266.1,203.9L266.1,203.9c6,0,10.9,4.9,10.9,10.8v121.1c0,6-4.9,10.9-10.9,10.9h0c-6,0-10.8-4.9-10.8-10.9
	V214.7C255.3,208.8,260.1,203.9,266.1,203.9z"/>
<path class="st1" d="M411,312.1L411,312.1c-5,0-9.1-4.1-9.1-9.1V144.8c0-5,4.1-9.1,9.1-9.1h0c5,0,9.1,4.1,9.1,9.1V303
	C420,308,416,312.1,411,312.1z"/>
<path class="st1" d="M304,263.1L304,263.1c-5,0-9.1-4.1-9.1-9.1v-78.2c0-5,4.1-9.1,9.1-9.1h0c5,0,9.1,4.1,9.1,9.1V254
	C313,259,309,263.1,304,263.1z"/>
<path class="st1" d="M338,220.1L338,220.1c-5,0-9.1-4.1-9.1-9.1v-18.2c0-5,4.1-9.1,9.1-9.1h0c5,0,9.1,4.1,9.1,9.1V211
	C347,216,343,220.1,338,220.1z"/>
<path class="st1" d="M338,167L338,167c-5,0-9.1-4.1-9.1-9.1V90.1c0-5,4.1-9.1,9.1-9.1h0c5,0,9.1,4.1,9.1,9.1v67.8
	C347,162.9,343,167,338,167z"/>
<ellipse class="st4" cx="176.5" cy="595" rx="6.5" ry="7"/>
<circle class="st4" cx="205" cy="650" r="13"/>
<circle class="st4" cx="458" cy="641" r="4"/>
<circle class="st4" cx="517" cy="595" r="7"/>
<circle class="st4" cx="472.5" cy="548.5" r="10.5"/>
<circle class="st4" cx="515" cy="490" r="5"/>
<circle class="st4" cx="472.5" cy="465.5" r="10.5"/>
<circle class="st4" cx="196.5" cy="503.5" r="8.5"/>
<circle class="st4" cx="138.5" cy="520.5" r="8.5"/>
<circle class="st4" cx="149.5" cy="463.5" r="2.5"/>
</svg>
