<?xml version="1.0" encoding="utf-8"?>
<!-- Generator: Adobe Illustrator 21.0.2, SVG Export Plug-In . SVG Version: 6.00 Build 0)  -->
<svg version="1.1" id="Layer_1" xmlns="http://www.w3.org/2000/svg" xmlns:xlink="http://www.w3.org/1999/xlink" x="0px" y="0px"
	 viewBox="0 0 415 1024" style="enable-background:new 0 0 415 1024;" xml:space="preserve">
<style type="text/css">
	.st0{fill:#FF3D00;}
	.st1{fill:#FFC400;}
	.st2{fill:#FFFF00;}
	.st3{fill:#FFFFFF;}
	.st4{fill:#DD2C00;}
	.st5{fill:none;}
	.st6{fill:#FFFFFF;stroke:#000000;stroke-width:8;stroke-miterlimit:10;}
	.st7{fill:none;stroke:#000000;stroke-width:5;stroke-miterlimit:10;}
	.st8{font-family:'Dosis';}
	.st9{font-size:69.8415px;}
</style>
<rect x="107.8" class="st0" width="199.3" height="637"/>
<circle class="st0" cx="207.1" cy="637.2" r="99.4"/>
<path class="st1" d="M271.5,357.5v30.8c0,4.8-3.9,8.8-8.7,8.8h0c-4.8,0-8.7-3.9-8.7-8.8v-58.8c0-4.8-3.9-8.8-8.8-8.8h-0.7
	c-4.8,0-8.7,3.9-8.7,8.8v53.9c0,4.8-3.9,8.8-8.8,8.8h0c-4.8,0-8.7-3.9-8.7-8.8V245.5c0-4.8-3.9-8.7-8.8-8.7h-0.7
	c-4.8,0-8.8,3.9-8.8,8.7v83.3c0,4.8-3.9,8.8-8.7,8.8h0c-4.8,0-8.8-3.9-8.8-8.8v-34.3c0-4.8-3.9-8.8-8.7-8.8h-0.7
	c-4.8,0-8.8,3.9-8.8,8.8v107.1c0,4.8-3.9,8.8-8.7,8.8h0c-4.8,0-8.8-3.9-8.8-8.8v-16.1c0-4.8-3.9-8.8-8.7-8.8H134
	c-4.8,0-8.7,3.9-8.7,8.8v245c0,4.8,3.9,8.8,8.7,8.8h146.3c4.8,0,8.7-3.9,8.7-8.8v-273c0-4.8-3.9-8.8-8.7-8.8h0
	C275.5,348.8,271.5,352.7,271.5,357.5z"/>
<circle class="st1" cx="207.1" cy="637.2" r="81.9"/>
<path class="st2" d="M253.7,462.7v49.4c0,4.9-4,8.9-8.9,8.9h0c-4.9,0-8.9-4-8.9-8.9v-77.4c0-4.9-4-8.9-8.9-8.9h0
	c-4.9,0-8.9,4-8.9,8.9v98.4c0,4.9-4,8.9-8.9,8.9h0c-4.9,0-8.9-4-8.9-8.9V378.7c0-4.9-4-8.9-8.9-8.9h0c-4.9,0-8.9,4-8.9,8.9v119.4
	c0,4.9-4,8.9-8.9,8.9h0c-4.9,0-8.9-4-8.9-8.9v-7.4c0-4.9-4-8.9-8.9-8.9h0c-4.9,0-8.9,4-8.9,8.9v139.7c0,4.9,4,8.9,8.9,8.9h106.8
	c4.9,0,8.9-4,8.9-8.9V462.7c0-4.9-4-8.9-8.9-8.9h0C257.7,453.8,253.7,457.8,253.7,462.7z"/>
<circle class="st3" cx="209.3" cy="639.3" r="62.3"/>
<path class="st2" d="M155.7,460.8L155.7,460.8c-4.8,0-8.8-3.9-8.8-8.7v-7.7c0-4.8,3.9-8.8,8.8-8.8h0c4.8,0,8.7,3.9,8.7,8.8v7.7
	C164.4,456.9,160.5,460.8,155.7,460.8z"/>
<path class="st2" d="M262.8,439.8L262.8,439.8c-4.8,0-8.8-3.9-8.8-8.7v-7.7c0-4.8,3.9-8.8,8.7-8.8h0c4.8,0,8.7,3.9,8.7,8.8v7.7
	C271.5,435.9,267.6,439.8,262.8,439.8z"/>
<path class="st1" d="M245,299.1L245,299.1c-5,0-9.1-4.1-9.1-9.1v-18.2c0-5,4.1-9.1,9.1-9.1h0c5,0,9.1,4.1,9.1,9.1V290
	C254.1,295,250,299.1,245,299.1z"/>
<path class="st1" d="M136.1,203.9L136.1,203.9c6,0,10.9,4.9,10.9,10.8v121.1c0,6-4.9,10.9-10.8,10.9h0c-6,0-10.8-4.9-10.8-10.9
	V214.7C125.3,208.8,130.1,203.9,136.1,203.9z"/>
<path class="st1" d="M281,312.1L281,312.1c-5,0-9.1-4.1-9.1-9.1V144.8c0-5,4.1-9.1,9.1-9.1h0c5,0,9.1,4.1,9.1,9.1V303
	C290,308,286,312.1,281,312.1z"/>
<path class="st1" d="M174,263.1L174,263.1c-5,0-9.1-4.1-9.1-9.1v-78.2c0-5,4.1-9.1,9.1-9.1h0c5,0,9.1,4.1,9.1,9.1V254
	C183.1,259,179,263.1,174,263.1z"/>
<path class="st1" d="M208,220.1L208,220.1c-5,0-9.1-4.1-9.1-9.1v-18.2c0-5,4.1-9.1,9.1-9.1h0c5,0,9.1,4.1,9.1,9.1V211
	C217.1,216,213,220.1,208,220.1z"/>
<path class="st1" d="M208,167L208,167c-5,0-9.1-4.1-9.1-9.1V90.1c0-5,4.1-9.1,9.1-9.1h0c5,0,9.1,4.1,9.1,9.1v67.8
	C217.1,162.9,213,167,208,167z"/>
<ellipse class="st4" cx="46.5" cy="595" rx="6.5" ry="7"/>
<circle class="st4" cx="75" cy="650" r="13"/>
<circle class="st4" cx="328" cy="641" r="4"/>
<circle class="st4" cx="387" cy="595" r="7"/>
<circle class="st4" cx="342.5" cy="548.5" r="10.5"/>
<circle class="st4" cx="385" cy="490" r="5"/>
<circle class="st4" cx="342.5" cy="465.5" r="10.5"/>
<circle class="st4" cx="66.5" cy="503.5" r="8.5"/>
<circle class="st4" cx="19.5" cy="520.5" r="8.5"/>
<circle class="st4" cx="19.5" cy="463.5" r="2.5"/>
<g>
	<circle class="st3" cx="209.3" cy="639.3" r="62.3"/>
	<g>
		<path class="st3" d="M270,639.3c-0.3,25.4-16.2,48.7-40.4,57.3c-23.7,8.4-50.8,1.1-67-18.2c-16.6-19.7-18.8-48.6-5.5-70.6
			c13.1-21.7,39.2-33.2,64-28.2C249.5,585.4,269.7,610.6,270,639.3c0,1.9,3,1.9,3,0c-0.3-26.6-16.8-50.7-41.9-60
			c-25.3-9.3-54.4-1.1-71.4,19.7c-16.8,20.6-18.9,50.4-5.1,73.2c13.7,22.7,40.7,34.6,66.8,29.7c29.9-5.7,51.3-32.5,51.7-62.6
			C273.1,637.4,270.1,637.4,270,639.3z"/>
	</g>
</g>
<line class="st5" x1="139" y1="577" x2="280" y2="577"/>
<path class="st6" d="M139,577"/>
<path class="st6" d="M256,681"/>
<line class="st3" x1="160" y1="601.2" x2="160" y2="677.4"/>
<path class="st7" d="M251.5,680.5"/>
<path class="st7" d="M168.5,598.5"/>
<path class="st7" d="M250,598"/>
<path class="st7" d="M167.5,680.5"/>
<text transform="matrix(1.3857 0 0 1 200 678.4482)" class="st8 st9">A</text>
<text transform="matrix(1.3857 0 0 1 160 645.4482)" class="st8 st9">C</text>
</svg>
