<?xml version="1.0" encoding="utf-8"?>
<!-- Generator: Adobe Illustrator 21.1.0, SVG Export Plug-In . SVG Version: 6.00 Build 0)  -->
<svg version="1.1" id="Layer_1" xmlns="http://www.w3.org/2000/svg" xmlns:xlink="http://www.w3.org/1999/xlink" x="0px" y="0px"
	 viewBox="0 0 258 225" style="enable-background:new 0 0 258 225;" xml:space="preserve">
<style type="text/css">
	.st0{fill:none;stroke:#424242;stroke-miterlimit:10;}
	.st1{fill:url(#SVGID_1_);}
	.st2{fill:#424242;}
	.st3{fill:url(#SVGID_2_);}
	.st4{fill:url(#SVGID_3_);}
	.st5{fill:url(#SVGID_4_);}
	.st6{fill:url(#SVGID_5_);}
	.st7{fill:url(#SVGID_6_);}
	.st8{fill:url(#SVGID_7_);}
	.st9{fill:url(#SVGID_8_);}
	.st10{fill:url(#SVGID_9_);}
	.st11{fill:url(#SVGID_10_);}
	.st12{fill:url(#SVGID_11_);}
	.st13{fill:url(#SVGID_12_);}
	.st14{fill:url(#SVGID_13_);}
	.st15{fill:url(#SVGID_14_);}
	.st16{fill:url(#SVGID_15_);}
	.st17{fill:url(#SVGID_16_);}
	.st18{fill:url(#SVGID_17_);}
	.st19{fill:url(#SVGID_18_);}
	.st20{fill:url(#SVGID_19_);}
	.st21{fill:url(#SVGID_20_);}
	.st22{fill:url(#SVGID_21_);}
	.st23{fill:url(#SVGID_22_);}
</style>
<polygon class="st0" points="13.4,193.2 13.4,193.6 18.3,182.6 18.4,182.5 18,182.5 17.8,182.9 "/>
<polygon class="st0" points="6.1,103 66.2,71.1 6.1,102.9 "/>
<g>
	<linearGradient id="SVGID_1_" gradientUnits="userSpaceOnUse" x1="25.4442" y1="149.0964" x2="16.4658" y2="156.911">
		<stop  offset="0" style="stop-color:#C2185B"/>
		<stop  offset="1" style="stop-color:#000000"/>
	</linearGradient>
	<polygon class="st1" points="10.9,163.2 27,161.7 30.8,153 9.8,148.8 	"/>
	<g>
		<path class="st2" d="M10.9,163.7c5.4-0.5,10.7-1,16.1-1.4c0.2,0,0.4-0.1,0.4-0.2c1.3-2.9,2.5-5.8,3.8-8.8c0.1-0.3,0.1-0.7-0.3-0.7
			c-7-1.4-14-2.8-21-4.2c-0.3-0.1-0.7,0.1-0.6,0.5c0.4,4.8,0.8,9.6,1.2,14.4c0.1,0.6,1.1,0.6,1,0c-0.4-4.8-0.8-9.6-1.2-14.4
			c-0.2,0.2-0.4,0.3-0.6,0.5c7,1.4,14,2.8,21,4.2c-0.1-0.2-0.2-0.5-0.3-0.7c-0.9,2.1-1.8,4.2-2.7,6.3c-0.2,0.5-0.6,1.1-0.7,1.7
			c-0.1,0.5-0.6,0.8,0.1,0.4c-0.5,0.2-1.4,0.1-1.9,0.2c-4.7,0.4-9.4,0.8-14.2,1.3C10.3,162.7,10.3,163.7,10.9,163.7z"/>
	</g>
</g>
<g>
	<linearGradient id="SVGID_2_" gradientUnits="userSpaceOnUse" x1="27.0054" y1="157.3365" x2="59.8666" y2="157.3365">
		<stop  offset="0" style="stop-color:#3F51B5"/>
		<stop  offset="1" style="stop-color:#000000"/>
	</linearGradient>
	<polygon class="st3" points="59.9,158.8 30.8,153 27,161.7 	"/>
	<g>
		<path class="st2" d="M60,158.3c-9.7-1.9-19.4-3.9-29.1-5.8c-0.2,0-0.5,0-0.6,0.2c-1.3,2.9-2.5,5.8-3.8,8.8c-0.1,0.3,0,0.8,0.4,0.8
			c11-1,21.9-2,32.9-2.9c0.6-0.1,0.6-1.1,0-1c-11,1-21.9,2-32.9,2.9c0.1,0.3,0.3,0.5,0.4,0.8c0.7-1.5,1.3-3.1,2-4.6
			c0.4-1,0.8-1.9,1.2-2.9c0.1-0.3,0.4-0.7,0.4-1c0.1-0.5-0.1,0-0.4,0c0.8,0,1.7,0.3,2.5,0.5c1.8,0.4,3.6,0.7,5.4,1.1
			c7.1,1.4,14.1,2.8,21.2,4.2C60.4,159.4,60.6,158.4,60,158.3z"/>
	</g>
</g>
<g>
	<linearGradient id="SVGID_3_" gradientUnits="userSpaceOnUse" x1="12.5881" y1="184.1709" x2="17.9836" y2="184.1709">
		<stop  offset="0" style="stop-color:#880E4F"/>
		<stop  offset="1" style="stop-color:#000000"/>
	</linearGradient>
	<polygon class="st4" points="12.8,185.8 17.8,182.9 18,182.5 12.6,183.5 	"/>
	<g>
		<path class="st2" d="M13,186.2c1-0.6,2-1.1,3-1.7c0.8-0.4,2-0.8,2.4-1.7c0.2-0.4-0.1-0.8-0.6-0.7c-1.8,0.3-3.6,0.6-5.4,0.9
			c-0.2,0-0.4,0.3-0.4,0.5c0.1,0.8,0.1,1.5,0.2,2.3c0.1,0.6,1.1,0.6,1,0c-0.1-0.8-0.1-1.5-0.2-2.3c-0.1,0.2-0.2,0.3-0.4,0.5
			c1.8-0.3,3.6-0.6,5.4-0.9c-0.2-0.2-0.4-0.5-0.6-0.7c-0.2,0.4,0.1,0.1-0.1,0.2c-0.1,0.1-0.4,0.2-0.5,0.3c-0.6,0.3-1.1,0.7-1.7,1
			c-0.9,0.5-1.8,1-2.7,1.6C12,185.7,12.5,186.5,13,186.2z"/>
	</g>
</g>
<g>
	<linearGradient id="SVGID_4_" gradientUnits="userSpaceOnUse" x1="10.9424" y1="172.6065" x2="27.0054" y2="172.6065">
		<stop  offset="0" style="stop-color:#673AB7"/>
		<stop  offset="1" style="stop-color:#000000"/>
	</linearGradient>
	<polygon class="st5" points="12.6,183.5 18,182.5 27,161.7 10.9,163.2 	"/>
	<g>
		<path class="st2" d="M12.7,184c1.4-0.3,4.7-0.2,5.7-1.2c0.4-0.4,0.6-1.4,0.8-1.9c0.6-1.4,1.2-2.7,1.8-4.1
			c2.1-4.9,4.3-9.9,6.4-14.8c0.1-0.3,0-0.8-0.4-0.8c-5.4,0.5-10.7,1-16.1,1.4c-0.3,0-0.5,0.2-0.5,0.5c0.5,6.8,1.1,13.6,1.6,20.3
			c0.1,0.6,1.1,0.6,1,0c-0.2-2.9-0.5-5.8-0.7-8.7c-0.2-2.1-0.3-4.1-0.5-6.2c-0.1-1.4,0.1-3.4-0.4-4.7c-0.4-1.1,0.5-0.2-0.5-0.2
			c0.3,0,0.7-0.1,1-0.1c1.8-0.2,3.5-0.3,5.3-0.5c3.2-0.3,6.5-0.6,9.7-0.9c-0.1-0.3-0.3-0.5-0.4-0.8c-2,4.7-4,9.3-6.1,14
			c-0.9,2.1-1.6,4.5-2.8,6.5c-0.2,0.3-0.3,0.4,0.1,0.2c-0.3,0.2-1.1,0.2-1.5,0.3c-1.3,0.2-2.6,0.5-3.9,0.7
			C11.8,183.1,12.1,184.1,12.7,184z"/>
	</g>
</g>
<g>
	<linearGradient id="SVGID_5_" gradientUnits="userSpaceOnUse" x1="287.4748" y1="73.1005" x2="167.8871" y2="84.4407">
		<stop  offset="0" style="stop-color:#303F9F"/>
		<stop  offset="1" style="stop-color:#000000"/>
	</linearGradient>
	<polygon class="st6" points="238.5,85.5 243.3,69.5 225.5,72.5 	"/>
	<g>
		<path class="st2" d="M239,85.6c1.6-5.3,3.2-10.6,4.8-16c0.1-0.4-0.3-0.7-0.6-0.6c-5.9,1-11.9,2-17.8,3c-0.4,0.1-0.5,0.6-0.2,0.8
			c4.3,4.3,8.7,8.7,13,13c0.5,0.5,1.2-0.3,0.7-0.7c-4.3-4.3-8.7-8.7-13-13c-0.1,0.3-0.1,0.6-0.2,0.8c5.9-1,11.9-2,17.8-3
			c-0.2-0.2-0.4-0.4-0.6-0.6c-1.6,5.3-3.2,10.6-4.8,16C237.8,86,238.8,86.2,239,85.6z"/>
	</g>
</g>
<g>
	<linearGradient id="SVGID_6_" gradientUnits="userSpaceOnUse" x1="180.5" y1="151.5" x2="200.5" y2="151.5">
		<stop  offset="0" style="stop-color:#C2185B"/>
		<stop  offset="1" style="stop-color:#000000"/>
	</linearGradient>
	<polygon class="st7" points="197.5,141.5 180.5,153.5 200.5,161.5 	"/>
	<g>
		<path class="st2" d="M197.2,141.1c-5.7,4-11.3,8-17,12c-0.4,0.3-0.3,0.8,0.1,0.9c6.7,2.7,13.3,5.3,20,8c0.4,0.2,0.7-0.3,0.6-0.6
			c-1-6.7-2-13.3-3-20c-0.1-0.6-1.1-0.4-1,0.3c1,6.7,2,13.3,3,20c0.2-0.2,0.4-0.4,0.6-0.6c-6.7-2.7-13.3-5.3-20-8
			c0,0.3,0.1,0.6,0.1,0.9c5.7-4,11.3-8,17-12C198.3,141.6,197.8,140.7,197.2,141.1z"/>
	</g>
</g>
<g>
	<linearGradient id="SVGID_7_" gradientUnits="userSpaceOnUse" x1="181.0258" y1="145" x2="201.3712" y2="145">
		<stop  offset="0" style="stop-color:#303F9F"/>
		<stop  offset="1" style="stop-color:#000000"/>
	</linearGradient>
	<polygon class="st8" points="176.5,136.5 163.5,149.5 180.5,153.5 	"/>
	<g>
		<path class="st2" d="M176.1,136.1c-4.3,4.3-8.7,8.7-13,13c-0.3,0.3-0.1,0.7,0.2,0.8c5.7,1.3,11.3,2.7,17,4
			c0.4,0.1,0.7-0.2,0.6-0.6c-1.3-5.7-2.7-11.3-4-17c-0.1-0.6-1.1-0.4-1,0.3c1.3,5.7,2.7,11.3,4,17c0.2-0.2,0.4-0.4,0.6-0.6
			c-5.7-1.3-11.3-2.7-17-4c0.1,0.3,0.1,0.6,0.2,0.8c4.3-4.3,8.7-8.7,13-13C177.3,136.4,176.6,135.7,176.1,136.1z"/>
	</g>
</g>
<g>
	<linearGradient id="SVGID_8_" gradientUnits="userSpaceOnUse" x1="118.0569" y1="58.3818" x2="253.1085" y2="113.021">
		<stop  offset="0" style="stop-color:#512DA8"/>
		<stop  offset="1" style="stop-color:#000000"/>
	</linearGradient>
	<polygon class="st9" points="183.5,98.5 201.5,78.5 163.5,83.5 	"/>
	<g>
		<path class="st2" d="M183.9,98.9c6-6.7,12-13.3,18-20c0.3-0.3,0.1-0.9-0.4-0.9c-12.7,1.7-25.3,3.3-38,5c-0.5,0.1-0.7,0.6-0.3,0.9
			c6.7,5,13.3,10,20,15c0.5,0.4,1-0.5,0.5-0.9c-6.7-5-13.3-10-20-15c-0.1,0.3-0.2,0.6-0.3,0.9c12.7-1.7,25.3-3.3,38-5
			c-0.1-0.3-0.2-0.6-0.4-0.9c-6,6.7-12,13.3-18,20C182.7,98.6,183.4,99.3,183.9,98.9z"/>
	</g>
</g>
<g>
	<linearGradient id="SVGID_9_" gradientUnits="userSpaceOnUse" x1="226.8531" y1="159.3814" x2="193.8634" y2="174.8453">
		<stop  offset="0" style="stop-color:#512DA8"/>
		<stop  offset="1" style="stop-color:#000000"/>
	</linearGradient>
	<polygon class="st10" points="213.5,151.5 200.5,161.5 220.5,176.5 	"/>
	<g>
		<path class="st2" d="M213.2,151.1c-4.3,3.3-8.7,6.7-13,10c-0.3,0.2-0.3,0.6,0,0.9c6.7,5,13.3,10,20,15c0.4,0.3,0.8-0.2,0.7-0.6
			c-2.3-8.3-4.7-16.7-7-25c-0.2-0.6-1.1-0.4-1,0.3c2.3,8.3,4.7,16.7,7,25c0.2-0.2,0.5-0.4,0.7-0.6c-6.7-5-13.3-10-20-15
			c0,0.3,0,0.6,0,0.9c4.3-3.3,8.7-6.7,13-10C214.3,151.5,213.8,150.7,213.2,151.1z"/>
	</g>
</g>
<g>
	<linearGradient id="SVGID_10_" gradientUnits="userSpaceOnUse" x1="198.2454" y1="107.0093" x2="228.1423" y2="47.2155">
		<stop  offset="0" style="stop-color:#C2185B"/>
		<stop  offset="1" style="stop-color:#000000"/>
	</linearGradient>
	<polygon class="st11" points="217.5,90.5 225.5,72.5 201.5,78.5 	"/>
	<g>
		<path class="st2" d="M217.9,90.8c2.7-6,5.3-12,8-18c0.2-0.4-0.1-0.8-0.6-0.7c-8,2-16,4-24,6c-0.5,0.1-0.4,0.7-0.1,0.9
			c5.3,4,10.7,8,16,12c0.5,0.4,1-0.5,0.5-0.9c-5.3-4-10.7-8-16-12c0,0.3-0.1,0.6-0.1,0.9c8-2,16-4,24-6c-0.2-0.2-0.4-0.5-0.6-0.7
			c-2.7,6-5.3,12-8,18C216.8,90.8,217.7,91.3,217.9,90.8z"/>
	</g>
</g>
<g>
	<linearGradient id="SVGID_11_" gradientUnits="userSpaceOnUse" x1="13.4072" y1="193.792" x2="104.1294" y2="193.792">
		<stop  offset="0" style="stop-color:#D81B60"/>
		<stop  offset="1" style="stop-color:#000000"/>
	</linearGradient>
	<polygon class="st12" points="18.3,182.6 13.4,193.6 15.5,219.4 15.6,219.2 104.1,168.1 34.8,179.6 18.6,182.4 	"/>
	<g>
		<path class="st2" d="M17.9,182.4c-1.4,3.2-2.9,6.5-4.3,9.7c-0.9,2-0.5,3.4-0.3,5.6c0.6,7.3,1.2,14.5,1.8,21.8c0,0.6,0.8,0.7,1,0.1
			c0,0.1-0.1,0.1,0.4-0.2c0.5-0.3,1.1-0.6,1.7-1c2.1-1.2,4.2-2.4,6.3-3.7c7-4,14-8.1,21-12.1c15.9-9.2,31.9-18.4,47.8-27.6
			c3.7-2.1,7.4-4.3,11.1-6.4c0.5-0.3,0.1-1-0.4-0.9c-11.1,1.8-22.3,3.7-33.4,5.5c-11.9,2-23.9,3.9-35.8,5.9c-2.5,0.4-5,0.9-7.5,1.3
			c-2.2,0.4-4.3,0.8-6.5,1.1c-0.9,0.2-2,0.2-2.8,0.6c-0.6,0.3-0.1,1.2,0.5,0.9c0.7-0.4,1.8-0.4,2.6-0.5c1.8-0.3,3.7-0.6,5.5-1
			c2.8-0.5,5.6-1,8.3-1.5c3.4-0.6,6.8-1.1,10.2-1.7c15.5-2.6,31-5.1,46.5-7.7c4.2-0.7,8.4-1.4,12.6-2.1c-0.1-0.3-0.3-0.6-0.4-0.9
			c-10.3,5.9-20.6,11.9-30.8,17.8c-16,9.2-31.9,18.4-47.9,27.6c-2.5,1.4-5,2.9-7.5,4.3c-0.8,0.5-2.3,0.9-2.6,1.9
			c0.3,0,0.7,0.1,1,0.1c-0.6-7.1-1.1-14.1-1.7-21.2c-0.2-2.4-0.6-4,0.1-5.7c1.4-3.2,2.9-6.5,4.3-9.7C19,182.3,18.1,181.8,17.9,182.4
			z"/>
	</g>
</g>
<g>
	<linearGradient id="SVGID_12_" gradientUnits="userSpaceOnUse" x1="18.3132" y1="182.5255" x2="18.6357" y2="182.5255">
		<stop  offset="0" style="stop-color:#D81B60"/>
		<stop  offset="1" style="stop-color:#000000"/>
	</linearGradient>
	<polygon class="st13" points="18.6,182.4 18.4,182.5 18.3,182.6 	"/>
	<g>
		<path class="st2" d="M18.5,182c-0.3,0.1-0.5,0.1-0.6,0.4c-0.2,0.4,0.2,0.9,0.7,0.7c0.1-0.1,0.2-0.1,0.3-0.2
			c0.6-0.3,0.1-1.2-0.5-0.9c-0.1,0.1-0.2,0.1-0.3,0.2c0.2,0.2,0.5,0.5,0.7,0.7c0,0,0-0.1,0.1-0.1c-0.1,0.1-0.2,0.2-0.3,0.2
			c0.1,0,0.2,0,0.3,0C19.4,182.8,19.1,181.8,18.5,182z"/>
	</g>
</g>
<g>
	<linearGradient id="SVGID_13_" gradientUnits="userSpaceOnUse" x1="12.7737" y1="188.0388" x2="17.8411" y2="188.0388">
		<stop  offset="0" style="stop-color:#1A237E"/>
		<stop  offset="1" style="stop-color:#000000"/>
	</linearGradient>
	<polygon class="st14" points="12.8,185.8 13.4,193.2 17.8,182.9 	"/>
	<g>
		<path class="st2" d="M12.3,185.8c0.2,2.5,0.4,4.9,0.6,7.4c0,0.4,0.7,0.8,0.9,0.3c1.5-3.4,3-6.9,4.5-10.3c0.2-0.4-0.2-1-0.7-0.7
			c-1.7,1-3.4,1.9-5.1,2.9c-0.6,0.3-0.1,1.2,0.5,0.9c1.7-1,3.4-1.9,5.1-2.9c-0.2-0.2-0.5-0.5-0.7-0.7c-1.5,3.4-3,6.9-4.5,10.3
			c0.3,0.1,0.6,0.2,0.9,0.3c-0.2-2.5-0.4-4.9-0.6-7.4C13.2,185.2,12.2,185.1,12.3,185.8z"/>
	</g>
</g>
<g>
	<linearGradient id="SVGID_14_" gradientUnits="userSpaceOnUse" x1="26.7805" y1="120.9382" x2="49.6028" y2="101.6818">
		<stop  offset="0" style="stop-color:#512DA8"/>
		<stop  offset="1" style="stop-color:#000000"/>
	</linearGradient>
	<polygon class="st15" points="9.8,148.8 30.8,153 66.2,71.1 6.1,103 	"/>
	<g>
		<path class="st2" d="M9.6,149.2c7,1.4,14,2.8,21,4.2c0.2,0,0.5,0,0.6-0.2c4-9.2,8-18.4,12-27.6c6.4-14.7,12.7-29.4,19.1-44.1
			c1.5-3.4,2.9-6.8,4.4-10.2c0.2-0.4-0.2-0.9-0.7-0.7c-17.6,9.3-35.2,18.6-52.7,28c-2.5,1.3-4.9,2.6-7.4,3.9
			c-0.1,0.1-0.3,0.3-0.2,0.4c1.1,13.3,2.2,26.7,3.2,40c0.2,1.9,0.3,3.8,0.5,5.7c0.1,0.6,1.1,0.6,1,0c-0.6-7.3-1.2-14.6-1.8-21.9
			c-0.4-5.1-0.8-10.3-1.2-15.4c-0.2-2.8-0.7-5.6-0.7-8.4c0-0.4-0.4,0.4-0.2,0.2c0.2-0.1,0.4-0.2,0.6-0.3c1-0.4,1.9-1,2.8-1.5
			c3.4-1.8,6.7-3.6,10.1-5.3c9.4-5,18.9-10,28.3-15c6.1-3.2,12.2-6.5,18.3-9.7c-0.2-0.2-0.5-0.5-0.7-0.7
			c-5.6,13-11.2,25.9-16.8,38.9c-4,9.2-8,18.5-12,27.7c-1.4,3.3-2.9,6.7-4.3,10c-0.6,1.4-2.1,3.5-2.2,5c0,0.5-0.3,0,0.4,0
			c-0.4,0-0.9-0.2-1.3-0.3c-2.3-0.5-4.7-0.9-7-1.4c-4.2-0.8-8.5-1.7-12.7-2.5C9.3,148.1,9,149.1,9.6,149.2z"/>
	</g>
</g>
<g>
	<linearGradient id="SVGID_15_" gradientUnits="userSpaceOnUse" x1="124.983" y1="142.2526" x2="115.4788" y2="79.1561">
		<stop  offset="0" style="stop-color:#E91E63"/>
		<stop  offset="1" style="stop-color:#000000"/>
	</linearGradient>
	<polygon class="st16" points="66.9,70.8 163.5,149.5 150.5,114.5 163.5,83.5 67.2,70.6 	"/>
	<g>
		<path class="st2" d="M66.5,71.1C77.4,80,88.3,88.9,99.2,97.8c17.4,14.1,34.7,28.3,52.1,42.4c4,3.2,7.9,6.5,11.9,9.7
			c0.3,0.3,1,0,0.8-0.5c-3.6-9.6-7.2-19.3-10.7-28.9c-0.7-1.8-1.3-3.6-2-5.5c-0.1-0.3-0.2-0.8-0.2-0.4c0-0.4,0.4-1,0.6-1.4
			c2.2-5.2,4.4-10.5,6.6-15.7c1.9-4.6,3.9-9.3,5.8-13.9c0.1-0.3-0.2-0.6-0.5-0.6c-11.1-1.5-22.2-3-33.3-4.5
			c-17.4-2.3-34.8-4.7-52.2-7c-2.7-0.4-5.5-0.7-8.2-1.1c-1-0.1-2.3-0.6-3.3-0.1c-0.6,0.3-0.1,1.2,0.5,0.9c0.4-0.2,1.8,0.1,2.5,0.2
			c2.3,0.3,4.6,0.6,6.9,0.9c7.7,1,15.4,2.1,23.1,3.1c17.3,2.3,34.6,4.6,51.9,7c4,0.5,8,1.1,12,1.6c-0.2-0.2-0.3-0.4-0.5-0.6
			c-4,9.6-8,19.1-12,28.7c-0.3,0.8-1,1.8-1,2.6c0,1.1,1,2.7,1.4,3.7c2.2,6,4.4,11.9,6.6,17.9c1.7,4.5,3.3,8.9,5,13.4
			c0.3-0.2,0.6-0.3,0.8-0.5c-10.9-8.9-21.8-17.7-32.7-26.6c-17.4-14.1-34.7-28.3-52.1-42.4c-4-3.2-7.9-6.5-11.9-9.7
			C66.7,70,66,70.7,66.5,71.1z"/>
	</g>
</g>
<g>
	<linearGradient id="SVGID_16_" gradientUnits="userSpaceOnUse" x1="230.6889" y1="-23.9882" x2="151.3075" y2="74.9808">
		<stop  offset="0" style="stop-color:#3F51B5"/>
		<stop  offset="1" style="stop-color:#000000"/>
	</linearGradient>
	<polygon class="st17" points="228.5,20.5 165.5,18.5 67.2,70.6 163.5,83.5 201.5,78.5 225.5,72.5 243.3,69.5 247.5,55.5 	"/>
	<g>
		<path class="st2" d="M228.5,20c-11.7-0.4-23.5-0.7-35.2-1.1c-7.3-0.2-14.6-0.5-21.8-0.7c-2-0.1-4.7-0.7-6.6,0.1
			c-3.1,1.3-6.1,3.2-9.1,4.8c-5.9,3.1-11.8,6.3-17.8,9.4c-14.6,7.7-29.2,15.5-43.8,23.2c-5.9,3.1-11.8,6.3-17.7,9.4
			c-2.9,1.5-6.3,2.8-9,4.8c-0.1,0.1-0.3,0.2-0.4,0.2c-0.5,0.3-0.2,0.9,0.3,0.9c9.5,1.3,18.9,2.5,28.4,3.8
			c16.5,2.2,32.9,4.4,49.4,6.6c5.3,0.7,10.5,1.4,15.8,2.1c2.5,0.3,4.2,0.2,6.7-0.2c7.9-1,15.8-2.1,23.7-3.1c4-0.5,8.2-0.8,12.1-1.8
			c7-1.8,14-3.5,21.1-5.3c5.4-1.4,11.1-2,16.6-2.9c0.8-0.1,1.7-0.3,2.5-0.4c0.2,0,0.3-0.2,0.3-0.3c1.2-3.9,2.3-7.8,3.5-11.7
			c0.3-0.8,0.8-1.9,0.6-2.8c-0.1-0.7-0.8-1.5-1.1-2.1c-4.5-8.3-9-16.6-13.5-24.9c-1.4-2.6-2.9-5.3-4.3-7.9c-0.3-0.6-1.2-0.1-0.9,0.5
			c3.8,7,7.6,14,11.4,21c2.2,4,4.3,7.9,6.5,11.9c0.3,0.5,0.5,1,0.8,1.5c0.1,0.2,0.3,0.8,0.3,0.4c0-0.3-0.4,0.9-0.4,1.2
			c-0.4,1.2-0.7,2.3-1.1,3.5c-0.7,2.5-1.5,5-2.2,7.5c-0.1,0.5-0.2,1.2-0.5,1.6c0.4-0.6-0.1-0.2-0.8-0.1c-4.8,0.8-9.5,1.6-14.3,2.4
			c-7.5,1.3-14.9,3.5-22.3,5.4c-6.1,1.5-12.6,2.1-19.2,3c-5.3,0.7-10.6,1.4-15.9,2.1c-2.2,0.3-4.6,0.9-6.8,0.9
			c-1.4,0-2.9-0.4-4.2-0.6c-3.4-0.4-6.7-0.9-10.1-1.3c-10.1-1.4-20.2-2.7-30.4-4.1c-10.6-1.4-21.3-2.8-31.9-4.3
			c-4-0.5-8-1.1-11.9-1.6c-2.2-0.3-4.6-0.9-6.8-0.9c-0.3,0-0.6-0.1-0.9-0.1c0.1,0.3,0.2,0.6,0.3,0.9c7.3-3.9,14.6-7.7,21.9-11.6
			c14.4-7.7,28.9-15.3,43.3-23c10.4-5.5,20.7-11,31.1-16.5c0.6-0.3,1.3-0.8,1.9-1c-0.5,0.1,0.2,0.1,0.4,0.1c0.7,0,1.4,0,2.1,0.1
			c6.3,0.2,12.6,0.4,18.9,0.6c13.5,0.4,27,1.2,40.5,1.3c0.3,0,0.6,0,0.8,0C229.1,21,229.1,20,228.5,20z"/>
	</g>
</g>
<g>
	<linearGradient id="SVGID_17_" gradientUnits="userSpaceOnUse" x1="17.9836" y1="170.6615" x2="103.5" y2="170.6615">
		<stop  offset="0" style="stop-color:#D81B60"/>
		<stop  offset="1" style="stop-color:#000000"/>
	</linearGradient>
	<polygon class="st18" points="27,161.7 18,182.5 18.4,182.5 18.5,182.3 34.8,179.6 103.5,167.5 59.9,158.8 	"/>
	<g>
		<path class="st2" d="M26.6,161.5c-3,6.9-6,13.9-9,20.8c-0.2,0.4,0.1,0.8,0.6,0.7c1.1-0.2,0.2-0.3,1.3-0.4c1.6-0.2,3.3-0.5,4.9-0.8
			c3.4-0.6,6.9-1.1,10.3-1.7c3.1-0.5,6.2-1.1,9.2-1.6c15.6-2.7,31.1-5.5,46.7-8.2c4.3-0.8,8.7-1.5,13-2.3c0.5-0.1,0.5-0.9,0-1
			c-11.1-2.2-22.2-4.4-33.2-6.6c-3.4-0.7-7.1-1.9-10.6-2.1c-1.7-0.1-3.5,0.3-5.2,0.5c-3.4,0.3-6.8,0.6-10.2,0.9
			c-5.8,0.5-11.6,1-17.4,1.6c-0.6,0.1-0.6,1.1,0,1c10.7-1,21.5-2.4,32.3-2.9c2.4-0.1,6.2,1.1,9,1.6c7,1.4,14,2.8,20.9,4.2
			c4.7,0.9,9.4,1.9,14.2,2.8c0-0.3,0-0.6,0-1c-11.2,2-22.4,3.9-33.6,5.9c-11.7,2.1-23.4,4.2-35,6.2c-3,0.5-6,1-9,1.5
			c-2,0.3-4,0.7-6,1c-0.7,0.1-1.6,0.5-1.9,0.5c0.2,0.2,0.4,0.5,0.6,0.7c3-6.9,6-13.9,9-20.8C27.7,161.4,26.8,160.9,26.6,161.5z"/>
	</g>
</g>
<g>
	<linearGradient id="SVGID_18_" gradientUnits="userSpaceOnUse" x1="18.3732" y1="181.0332" x2="34.8287" y2="181.0332">
		<stop  offset="0" style="stop-color:#D81B60"/>
		<stop  offset="1" style="stop-color:#000000"/>
	</linearGradient>
	<polygon class="st19" points="18.4,182.5 18.6,182.4 19,182.2 18.6,182.4 34.8,179.6 18.5,182.3 	"/>
	<g>
		<path class="st2" d="M18.5,183c0.3,0,0.5-0.1,0.7-0.3c0.6-0.3,0.1-1.2-0.5-0.9c-0.1,0.1-0.2,0.1-0.3,0.2c-0.5,0.3-0.1,1,0.4,0.9
			c5.4-0.9,10.8-1.9,16.2-2.8c0.6-0.1,0.4-1.1-0.3-1c-3.1,0.5-6.3,1-9.4,1.6c-1.9,0.3-3.7,0.6-5.6,0.9c-0.6,0.1-1.5,0-1.8,0.7
			c-0.3,0.6,0.6,1.1,0.9,0.5c0,0-0.3,0.1,0.3-0.1c0.6-0.1,1.2-0.2,1.8-0.3c1.9-0.3,3.7-0.6,5.6-0.9c2.8-0.5,5.6-0.9,8.4-1.4
			c-0.1-0.3-0.2-0.6-0.3-1c-5.4,0.9-10.8,1.9-16.2,2.8c0.1,0.3,0.3,0.6,0.4,0.9c0.1-0.1,0.2-0.1,0.3-0.2c0.6-0.3,0.1-1.2-0.5-0.9
			c-0.2,0.1-0.3,0.2-0.5,0.2C17.6,182.1,17.9,183.1,18.5,183z"/>
	</g>
</g>
<g>
	<linearGradient id="SVGID_19_" gradientUnits="userSpaceOnUse" x1="179.5998" y1="127.8133" x2="109.4967" y2="202.0401">
		<stop  offset="0" style="stop-color:#283593"/>
		<stop  offset="1" style="stop-color:#000000"/>
	</linearGradient>
	<polygon class="st20" points="103.5,167.5 193.5,198.5 217.5,183.5 220.5,176.5 200.5,161.5 180.5,153.5 163.5,149.5 59.9,158.8 	
		"/>
	<g>
		<path class="st2" d="M103.4,168c17,5.9,34.1,11.7,51.1,17.6c10.3,3.6,20.7,7.1,31,10.7c2.4,0.8,4.8,1.9,7.3,2.5
			c1.8,0.4,3.7-1.5,5.1-2.4c5.6-3.5,11.2-7,16.8-10.5c1-0.6,2.5-1.2,3.3-2.1c0.7-0.9,1.1-2.6,1.6-3.7c0.5-1.1,0.9-2.2,1.4-3.3
			c0.1-0.3,0.1-0.5-0.2-0.7c-4.9-3.7-9.9-7.4-14.8-11.1c-1.7-1.3-3.4-2.9-5.2-3.9c-1.9-1.1-4.2-1.7-6.3-2.5
			c-4.8-1.9-9.8-4.6-14.9-5.8c-3.5-0.8-7-1.7-10.5-2.5c-1.8-0.4-3.8-1.2-5.6-1.3c-2.5-0.1-5.3,0.5-7.9,0.7
			c-6.1,0.5-12.2,1.1-18.4,1.6c-15.8,1.4-31.7,2.8-47.5,4.3c-10,0.9-19.9,1.8-29.9,2.7c-0.5,0-0.7,0.9-0.1,1
			c12.7,2.5,25.5,5.1,38.2,7.6C99.8,167.3,101.6,167.6,103.4,168c0.6,0.1,0.9-0.8,0.3-1c-12.7-2.5-25.5-5.1-38.2-7.6
			c-1.8-0.4-3.6-0.7-5.4-1.1c0,0.3-0.1,0.7-0.1,1c23.8-2.1,47.7-4.3,71.5-6.4c10.4-0.9,20.8-1.7,31.2-2.8c1-0.1,1-0.1,1.9,0.1
			c3.4,0.8,6.7,1.6,10.1,2.4c2,0.5,4.1,0.8,6.1,1.5c2.6,0.9,5.2,2.1,7.7,3.1c3.7,1.5,7.3,2.9,11,4.4c1.4,0.6,2.7,1.7,4.1,2.8
			c5.6,4.2,11.2,8.4,16.8,12.6c-0.1-0.2-0.1-0.5-0.2-0.7c-0.9,2.1-1.8,4.3-2.8,6.4c-0.4,0.8,0.1,0.2-0.5,0.6c-0.6,0.5-1.3,0.8-2,1.2
			c-4.9,3.1-9.9,6.2-14.8,9.2c-1.9,1.2-3.8,2.4-5.8,3.6c-0.3,0.2-0.7,0.6-1.1,0.7c0.1,0,0.5,0,0.1-0.1c-2.1-0.5-4.2-1.4-6.2-2.1
			c-21.3-7.3-42.7-14.7-64-22c-6.5-2.2-13-4.5-19.5-6.7C103,166.8,102.8,167.8,103.4,168z"/>
	</g>
</g>
<g>
	<linearGradient id="SVGID_20_" gradientUnits="userSpaceOnUse" x1="109.8477" y1="116.2184" x2="63.4559" y2="170.8576">
		<stop  offset="0" style="stop-color:#512DA8"/>
		<stop  offset="1" style="stop-color:#000000"/>
	</linearGradient>
	<polygon class="st21" points="66.2,71.1 30.8,153 59.9,158.8 163.5,149.5 66.9,70.8 	"/>
	<g>
		<path class="st2" d="M65.8,70.9c-4,9.2-8,18.4-12,27.6c-6.4,14.7-12.7,29.4-19.1,44.1c-1.5,3.4-2.9,6.8-4.4,10.2
			c-0.1,0.3-0.1,0.7,0.3,0.7c9.4,1.9,18.7,3.7,28.1,5.6c1.2,0.2,2.2,0.1,3.5,0c3.3-0.3,6.7-0.6,10-0.9c23.7-2.1,47.4-4.2,71.1-6.4
			c6.7-0.6,13.4-1.2,20.2-1.8c0.4,0,0.7-0.6,0.4-0.9c-10.9-8.9-21.8-17.7-32.7-26.6c-17.4-14.1-34.7-28.3-52.1-42.4
			c-4-3.2-7.9-6.5-11.9-9.7c-0.2-0.1-0.4-0.2-0.6-0.1c-0.2,0.1-0.4,0.2-0.6,0.3c-0.6,0.3-0.1,1.2,0.5,0.9c0.8-0.4-0.1-0.4,0.1-0.3
			c0.1,0.1,0.3,0.3,0.4,0.4c0.6,0.5,1.2,1,1.8,1.5c2.3,1.9,4.6,3.7,6.9,5.6c7.7,6.3,15.4,12.5,23.1,18.8
			c17.4,14.2,34.9,28.4,52.3,42.6c4,3.3,8,6.5,12,9.8c0.1-0.3,0.2-0.6,0.4-0.9c-17.4,1.6-34.7,3.1-52.1,4.7
			c-11.8,1.1-23.6,2.1-35.5,3.2c-3.9,0.3-7.8,0.7-11.7,1c-1.2,0.1-3.5,0.5-4.3,0.4c-1.6-0.1-3.3-0.7-4.8-1c-3.3-0.7-6.6-1.3-10-2
			c-4.8-1-9.5-1.9-14.3-2.9c0.1,0.2,0.2,0.5,0.3,0.7c4-9.2,8-18.4,12-27.6c6.4-14.7,12.7-29.4,19.1-44.1c1.5-3.4,2.9-6.8,4.4-10.2
			C66.9,70.8,66.1,70.3,65.8,70.9z"/>
	</g>
</g>
<g>
	<linearGradient id="SVGID_21_" gradientUnits="userSpaceOnUse" x1="9.0262" y1="55.3273" x2="113.2974" y2="111.3731">
		<stop  offset="0" style="stop-color:#283593"/>
		<stop  offset="1" style="stop-color:#000000"/>
	</linearGradient>
	<polygon class="st22" points="66.2,71.1 66.5,70.5 52.5,29.5 4.5,83.5 6.1,102.9 	"/>
	<g>
		<path class="st2" d="M66.7,71.4c0.6-1.3-0.2-2.4-0.6-3.7c-1.1-3.2-2.2-6.3-3.2-9.5c-2.6-7.8-5.3-15.5-7.9-23.3
			c-0.6-1.8-1.3-3.7-1.9-5.5c-0.1-0.3-0.6-0.5-0.8-0.2C44.1,38.2,36,47.3,28,56.3C22.5,62.5,17,68.6,11.6,74.8
			c-1.8,2-3.6,4.1-5.5,6.1c-0.6,0.6-1.7,1.5-2,2.3c-0.3,0.7,0,1.9,0.1,2.7c0.2,2.2,0.4,4.4,0.5,6.6c0.3,3.5,0.6,7,0.8,10.5
			c0,0.4,0.4,0.6,0.8,0.4c17.6-9.3,35.2-18.6,52.7-27.9c2.5-1.3,4.9-2.6,7.4-3.9c0.6-0.3,0.1-1.2-0.5-0.9
			C48.4,80,30.8,89.3,13.2,98.6c-2.5,1.3-4.9,2.6-7.4,3.9c0.3,0.1,0.5,0.3,0.8,0.4C6.1,96.6,5.7,90.3,5,84c-0.1-0.8-0.4,0.2,0.1-0.4
			c0.4-0.5,0.8-0.9,1.2-1.4c1.6-1.8,3.2-3.6,4.8-5.4C22,64.6,32.9,52.3,43.7,40.1c3-3.4,6.1-6.8,9.1-10.3c-0.3-0.1-0.6-0.1-0.8-0.2
			c4.1,12.1,8.3,24.2,12.4,36.3c0.4,1.2,0.8,2.4,1.2,3.6c0.1,0.3,0.3,0.6,0.3,0.9c0,0.4,0.1-0.2-0.1,0.4
			C65.5,71.4,66.4,72,66.7,71.4z"/>
	</g>
</g>
<g>
	<polygon points="66.2,71.1 66.9,70.8 66.5,70.5 	"/>
	<g>
		<path class="st2" d="M66.5,71.5c0.2-0.1,0.4-0.2,0.6-0.3c0.3-0.1,0.3-0.6,0.1-0.8c-0.1-0.1-0.2-0.2-0.4-0.3
			c-0.2-0.2-0.6-0.2-0.8,0.1c-0.1,0.2-0.2,0.4-0.3,0.6c-0.3,0.6,0.6,1.1,0.9,0.5c0.1-0.2,0.2-0.4,0.3-0.6c-0.3,0-0.5,0.1-0.8,0.1
			c0.1,0.1,0.2,0.2,0.4,0.3c0-0.3,0.1-0.5,0.1-0.8c-0.2,0.1-0.4,0.2-0.6,0.3C65.4,71,65.9,71.8,66.5,71.5z"/>
	</g>
</g>
<g>
	<polygon points="66.9,70.8 67.2,70.6 66.5,70.5 	"/>
	<g>
		<path class="st2" d="M67.1,71.2c0.1-0.1,0.2-0.1,0.4-0.2c0.5-0.3,0.2-0.9-0.3-0.9c-0.2,0-0.5-0.1-0.7-0.1
			c-0.4-0.1-0.7,0.6-0.4,0.9c0.1,0.1,0.2,0.2,0.4,0.3c0.5,0.4,1.2-0.3,0.7-0.7c-0.1-0.1-0.2-0.2-0.4-0.3c-0.1,0.3-0.2,0.6-0.4,0.9
			c0.2,0,0.5,0.1,0.7,0.1c-0.1-0.3-0.2-0.6-0.3-0.9c-0.1,0.1-0.2,0.1-0.4,0.2C66,70.7,66.5,71.5,67.1,71.2z"/>
	</g>
</g>
<g>
	<linearGradient id="SVGID_22_" gradientUnits="userSpaceOnUse" x1="139.4774" y1="-13.2061" x2="60.0959" y2="83.7011">
		<stop  offset="0" style="stop-color:#E91E63"/>
		<stop  offset="1" style="stop-color:#000000"/>
	</linearGradient>
	<polygon class="st23" points="67.2,70.6 165.5,18.5 124.5,6.5 103.5,17.5 52.5,29.5 66.5,70.5 	"/>
	<g>
		<path class="st2" d="M67.5,71c11.1-5.9,22.2-11.8,33.3-17.6c17.6-9.3,35.2-18.7,52.8-28c4.1-2.2,8.1-4.3,12.2-6.5
			c0.4-0.2,0.3-0.8-0.1-0.9c-7.8-2.3-15.6-4.6-23.4-6.8c-4.7-1.4-9.5-2.8-14.2-4.2c-1.8-0.5-3.1-1.3-4.7-0.5
			c-4.3,2.3-8.7,4.6-13,6.8c-2.2,1.2-5.2,3.1-7.3,3.7c-3,0.9-6.1,1.4-9.1,2.1c-5.3,1.3-10.7,2.5-16,3.8c-8.5,2-17,4-25.5,6
			c-0.3,0.1-0.4,0.4-0.3,0.6c4.1,11.9,8.1,23.9,12.2,35.8c0.6,1.7,1.2,3.5,1.8,5.2c0.1,0.2,0.2,0.3,0.5,0.4c0.2,0,0.5,0.1,0.7,0.1
			c0.6,0.1,0.6-0.9,0-1c-0.7-0.1-0.2,0.2-0.3,0.2c-0.1-0.2-0.2-0.5-0.2-0.7c-0.3-0.9-0.6-1.8-0.9-2.7c-1.1-3.3-2.2-6.5-3.3-9.8
			c-2.5-7.4-5.1-14.9-7.6-22.3c-0.6-1.8-1.2-3.6-1.8-5.4c-0.1,0.2-0.2,0.4-0.3,0.6c16.4-3.9,32.8-7.7,49.2-11.6c1.8-0.4,3-1,4.6-1.9
			c4.7-2.5,9.4-4.9,14-7.4c1.3-0.7,2.8-1.8,4.2-2.2c0.4-0.1-0.6-0.1,0,0c0.4,0.1,0.9,0.3,1.3,0.4c4.1,1.2,8.1,2.4,12.2,3.6
			c9.1,2.7,18.2,5.3,27.3,8c0-0.3-0.1-0.6-0.1-0.9c-11.1,5.9-22.2,11.8-33.3,17.6c-17.6,9.3-35.2,18.7-52.8,28
			C75.1,65.9,71,68,67,70.2C66.4,70.5,66.9,71.3,67.5,71z"/>
	</g>
</g>
</svg>
