<?xml version="1.0" encoding="utf-8"?>
<!-- Generator: Adobe Illustrator 21.1.0, SVG Export Plug-In . SVG Version: 6.00 Build 0)  -->
<svg version="1.1" id="Layer_1" xmlns="http://www.w3.org/2000/svg" xmlns:xlink="http://www.w3.org/1999/xlink" x="0px" y="0px"
	 viewBox="0 0 770 535" style="enable-background:new 0 0 770 535;" xml:space="preserve">
<style type="text/css">
	.st0{fill:url(#SVGID_1_);stroke:#000000;stroke-miterlimit:10;}
	.st1{fill:url(#SVGID_2_);stroke:#000000;stroke-miterlimit:10;}
	.st2{fill:url(#SVGID_3_);stroke:#000000;stroke-miterlimit:10;}
	.st3{stroke:#000000;stroke-miterlimit:10;}
	.st4{fill:url(#SVGID_4_);stroke:#000000;stroke-miterlimit:10;}
	.st5{fill:url(#SVGID_5_);stroke:#000000;stroke-miterlimit:10;}
	.st6{fill:url(#SVGID_6_);stroke:#000000;stroke-miterlimit:10;}
	.st7{fill:url(#SVGID_7_);stroke:#000000;stroke-miterlimit:10;}
	.st8{fill:url(#SVGID_8_);stroke:#000000;stroke-miterlimit:10;}
	.st9{fill:url(#SVGID_9_);stroke:#000000;stroke-miterlimit:10;}
	.st10{fill:url(#SVGID_10_);stroke:#000000;stroke-miterlimit:10;}
	.st11{fill:url(#SVGID_11_);stroke:#000000;stroke-miterlimit:10;}
	.st12{fill:url(#SVGID_12_);stroke:#000000;stroke-miterlimit:10;}
	.st13{fill:url(#SVGID_13_);stroke:#000000;stroke-miterlimit:10;}
	.st14{fill:url(#SVGID_14_);stroke:#000000;stroke-miterlimit:10;}
	.st15{fill:url(#SVGID_15_);stroke:#000000;stroke-miterlimit:10;}
	.st16{fill:url(#SVGID_16_);stroke:#000000;stroke-miterlimit:10;}
	.st17{fill:url(#SVGID_17_);stroke:#000000;stroke-miterlimit:10;}
	.st18{fill:url(#SVGID_18_);stroke:#000000;stroke-miterlimit:10;}
	.st19{fill:url(#SVGID_19_);stroke:#000000;stroke-miterlimit:10;}
	.st20{fill:url(#SVGID_20_);stroke:#000000;stroke-miterlimit:10;}
	.st21{fill:url(#SVGID_21_);stroke:#000000;stroke-miterlimit:10;}
	.st22{fill:url(#SVGID_22_);stroke:#000000;stroke-miterlimit:10;}
	.st23{fill:url(#SVGID_23_);stroke:#000000;stroke-miterlimit:10;}
	.st24{fill:url(#SVGID_24_);stroke:#000000;stroke-miterlimit:10;}
	.st25{fill:url(#SVGID_25_);stroke:#000000;stroke-miterlimit:10;}
	.st26{fill:url(#SVGID_26_);stroke:#000000;stroke-miterlimit:10;}
	.st27{fill:url(#SVGID_27_);stroke:#000000;stroke-miterlimit:10;}
	.st28{fill:url(#SVGID_28_);stroke:#000000;stroke-miterlimit:10;}
	.st29{fill:url(#SVGID_29_);stroke:#000000;stroke-miterlimit:10;}
	.st30{fill:url(#SVGID_30_);stroke:#000000;stroke-miterlimit:10;}
	.st31{fill:url(#SVGID_31_);stroke:#000000;stroke-miterlimit:10;}
	.st32{fill:url(#SVGID_32_);stroke:#000000;stroke-miterlimit:10;}
	.st33{fill:url(#SVGID_33_);stroke:#000000;stroke-miterlimit:10;}
	.st34{fill:url(#SVGID_34_);stroke:#000000;stroke-miterlimit:10;}
	.st35{fill:url(#SVGID_35_);stroke:#000000;stroke-miterlimit:10;}
	.st36{fill:url(#SVGID_36_);stroke:#000000;stroke-miterlimit:10;}
	.st37{fill:url(#SVGID_37_);stroke:#000000;stroke-miterlimit:10;}
	.st38{fill:url(#SVGID_38_);stroke:#000000;stroke-miterlimit:10;}
	.st39{fill:url(#SVGID_39_);stroke:#000000;stroke-miterlimit:10;}
	.st40{fill:url(#SVGID_40_);stroke:#000000;stroke-miterlimit:10;}
	.st41{fill:url(#SVGID_41_);stroke:#000000;stroke-miterlimit:10;}
	.st42{fill:url(#SVGID_42_);stroke:#000000;stroke-miterlimit:10;}
	.st43{fill:url(#SVGID_43_);stroke:#000000;stroke-miterlimit:10;}
	.st44{fill:url(#SVGID_44_);stroke:#000000;stroke-miterlimit:10;}
	.st45{fill:url(#SVGID_45_);stroke:#000000;stroke-miterlimit:10;}
	.st46{fill:url(#SVGID_46_);stroke:#000000;stroke-miterlimit:10;}
	.st47{fill:url(#SVGID_47_);stroke:#000000;stroke-miterlimit:10;}


		.animatedPoly {
		 -webkit-animation: dash 5s linear forwards;
		 -o-animation: dash 5s linear forwards;
		 -mox-animation: dash 5s linear forwards;
		 animation: faded 5s linear forwards infinite;
		 opacity: 1;
		}

		.poly1{ animation-delay: 0.1s; }
		.poly2{ animation-delay: 0.2s; }
		.poly3{ animation-delay: 0.3s; }
		.poly4{ animation-delay: 0.4s; }
		.poly5{ animation-delay: 0.5s; }
		.poly6{ animation-delay: 0.6s; }
		.poly7{ animation-delay: 0.7s; }
		.poly8{ animation-delay: 0.8s; }
		.poly9{ animation-delay: 0.9s; }
		.poly10{ animation-delay: 1.0s; }
		.poly11{ animation-delay: 1.1s; }
		.poly12{ animation-delay: 1.2s; }
		.poly13{ animation-delay: 1.3s; }
		.poly14{ animation-delay: 1.4s; }
		.poly15{ animation-delay: 1.5s; }
		.poly16{ animation-delay: 1.6s; }
		.poly17{ animation-delay: 1.7s; }
		.poly18{ animation-delay: 1.8s; }
		.poly19{ animation-delay: 1.9s; }
		.poly20{ animation-delay: 2.0s; }
		.poly21{ animation-delay: 2.1s; }
		.poly22{ animation-delay: 2.2s; }
		.poly23{ animation-delay: 2.3s; }
		.poly24{ animation-delay: 2.4s; }
		.poly25{ animation-delay: 2.5s; }
		.poly26{ animation-delay: 2.6s; }
		.poly27{ animation-delay: 2.7s; }
		.poly28{ animation-delay: 2.8s; }
		.poly29{ animation-delay: 2.9s; }
		.poly30{ animation-delay: 3s; }
		.poly31{ animation-delay: 3.1s; }
		.poly32{ animation-delay: 3.2s; }
		.poly33{ animation-delay: 3.3s; }
		.poly34{ animation-delay: 3.4s; }
		.poly35{ animation-delay: 3.5s; }
		.poly36{ animation-delay: 3.6s; }
		.poly37{ animation-delay: 3.7s; }
		.poly38{ animation-delay: 3.8s; }
		.poly39{ animation-delay: 3.9s; }
		.poly40{ animation-delay: 4.0s; }
		.poly41{ animation-delay: 4.1s; }
		.poly42{ animation-delay: 4.2s; }
		.poly43{ animation-delay: 4.3s; }
		.poly44{ animation-delay: 4.4s; }
		.poly45{ animation-delay: 4.5s; }
		.poly46{ animation-delay: 4.6s; }
		.poly47{ animation-delay: 4.7s; }
		.poly48{ animation-delay: 4.8s; }
		.poly49{ animation-delay: 4.9s; }


		@-webkit-keyframes faded{
			0% {
				opacity: 1;
			}
			2.5% {
				opacity: 0;
			}
			5% {
			opacity: 0;
			}
			7.5%{
			opacity: 1;
			}
		}


</style>
<linearGradient id="SVGID_1_" gradientUnits="userSpaceOnUse" x1="102.754" y1="240.0305" x2="122.3417" y2="257.5563">
	<stop  offset="0" style="stop-color:#311B92"/>
	<stop  offset="1" style="stop-color:#000000"/>
</linearGradient>
<polygon class="st0 animatedPoly poly" points="77,262.3 161.5,247.4 105.9,242.2 "/>
<linearGradient id="SVGID_2_" gradientUnits="userSpaceOnUse" x1="508.0757" y1="127.2421" x2="452.4056" y2="175.6957">
	<stop  offset="0" style="stop-color:#C2185B"/>
	<stop  offset="1" style="stop-color:#000000"/>
</linearGradient>
<polygon class="st1 animatedPoly poly1" points="383.4,174.4 383.5,174.5 384.8,175.5 539,161.7 542.8,153 456.4,135.7 "/>
<linearGradient id="SVGID_3_" gradientUnits="userSpaceOnUse" x1="539.0054" y1="157.3365" x2="571.8666" y2="157.3365">
	<stop  offset="0" style="stop-color:#3F51B5"/>
	<stop  offset="1" style="stop-color:#000000"/>
</linearGradient>
<polygon class="st2 animatedPoly poly2" points="571.9,158.8 542.8,153 539,161.7 "/>
<polygon class="st3 animatedPoly poly3" points="383.5,174.5 383.4,174.4 380.5,175.9 384.8,175.5 "/>
<linearGradient id="SVGID_4_" gradientUnits="userSpaceOnUse" x1="203.9193" y1="344.8926" x2="224.5378" y2="385.0988">
	<stop  offset="0" style="stop-color:#E91E63"/>
	<stop  offset="1" style="stop-color:#000000"/>
</linearGradient>
<polygon class="st4 animatedPoly poly4" points="201.5,370.5 166.5,447.5 228.5,398.5 283.5,324.5 "/>
<linearGradient id="SVGID_5_" gradientUnits="userSpaceOnUse" x1="241.2302" y1="332.4698" x2="271.1271" y2="391.2327">
	<stop  offset="0" style="stop-color:#512DA8"/>
	<stop  offset="1" style="stop-color:#000000"/>
</linearGradient>
<polygon class="st5 animatedPoly poly5" points="228.5,398.5 269.5,394.5 292.5,429.5 305.5,393.5 283.5,324.5 "/>
<linearGradient id="SVGID_6_" gradientUnits="userSpaceOnUse" x1="287.4559" y1="200.374" x2="417.7816" y2="200.374">
	<stop  offset="0" style="stop-color:#E91E63"/>
	<stop  offset="1" style="stop-color:#000000"/>
</linearGradient>
<polygon class="st6 animatedPoly poly6" points="417.8,202.3 384.8,175.5 380.5,175.9 287.5,225.2 "/>
<linearGradient id="SVGID_7_" gradientUnits="userSpaceOnUse" x1="417.7816" y1="205.5898" x2="529.9836" y2="205.5898">
	<stop  offset="0" style="stop-color:#880E4F"/>
	<stop  offset="1" style="stop-color:#000000"/>
</linearGradient>
<polygon class="st7 animatedPoly poly7" points="450.3,228.6 529.8,182.9 530,182.5 417.8,202.3 "/>
<linearGradient id="SVGID_8_" gradientUnits="userSpaceOnUse" x1="310.18" y1="177.4296" x2="224.6523" y2="212.4182">
	<stop  offset="0" style="stop-color:#1A237E"/>
	<stop  offset="1" style="stop-color:#000000"/>
</linearGradient>
<polygon class="st8 animatedPoly poly8" points="380.5,175.9 174.8,194.3 105.9,242.2 161.5,247.4 287.5,225.2 "/>
<linearGradient id="SVGID_9_" gradientUnits="userSpaceOnUse" x1="384.7537" y1="182.0048" x2="539.0054" y2="182.0048">
	<stop  offset="0" style="stop-color:#673AB7"/>
	<stop  offset="1" style="stop-color:#000000"/>
</linearGradient>
<polygon class="st9 animatedPoly poly9" points="417.8,202.3 530,182.5 539,161.7 384.8,175.5 "/>
<linearGradient id="SVGID_10_" gradientUnits="userSpaceOnUse" x1="799.4748" y1="73.1005" x2="679.8871" y2="84.4407">
	<stop  offset="0" style="stop-color:#303F9F"/>
	<stop  offset="1" style="stop-color:#000000"/>
</linearGradient>
<polygon class="st10 animatedPoly poly10" points="750.5,85.5 755.3,69.5 737.5,72.5 "/>
<linearGradient id="SVGID_11_" gradientUnits="userSpaceOnUse" x1="161.5461" y1="239.6627" x2="287.4559" y2="239.6627">
	<stop  offset="0" style="stop-color:#5E35B1"/>
	<stop  offset="1" style="stop-color:#000000"/>
</linearGradient>
<polygon class="st11 animatedPoly poly11" points="161.5,247.4 233,254.1 287.5,225.2 "/>
<linearGradient id="SVGID_12_" gradientUnits="userSpaceOnUse" x1="364.0396" y1="199.129" x2="337.2355" y2="249.6444">
	<stop  offset="0" style="stop-color:#283593"/>
	<stop  offset="1" style="stop-color:#000000"/>
</linearGradient>
<polygon class="st12 animatedPoly poly12" points="287.5,225.2 233,254.1 381.7,268 450.3,228.6 417.8,202.3 "/>
<linearGradient id="SVGID_13_" gradientUnits="userSpaceOnUse" x1="692.5" y1="151.5" x2="712.5" y2="151.5">
	<stop  offset="0" style="stop-color:#C2185B"/>
	<stop  offset="1" style="stop-color:#000000"/>
</linearGradient>
<polygon class="st13 animatedPoly poly13" points="709.5,141.5 692.5,153.5 712.5,161.5 "/>
<linearGradient id="SVGID_14_" gradientUnits="userSpaceOnUse" x1="693.0258" y1="145" x2="713.3712" y2="145">
	<stop  offset="0" style="stop-color:#303F9F"/>
	<stop  offset="1" style="stop-color:#000000"/>
</linearGradient>
<polygon class="st14 animatedPoly poly14" points="688.5,136.5 675.5,149.5 692.5,153.5 "/>
<linearGradient id="SVGID_15_" gradientUnits="userSpaceOnUse" x1="630.0569" y1="58.3818" x2="765.1085" y2="113.021">
	<stop  offset="0" style="stop-color:#512DA8"/>
	<stop  offset="1" style="stop-color:#000000"/>
</linearGradient>
<polygon class="st15 animatedPoly poly15" points="695.5,98.5 713.5,78.5 675.5,83.5 "/>
<linearGradient id="SVGID_16_" gradientUnits="userSpaceOnUse" x1="738.8531" y1="159.3814" x2="705.8633" y2="174.8453">
	<stop  offset="0" style="stop-color:#512DA8"/>
	<stop  offset="1" style="stop-color:#000000"/>
</linearGradient>
<polygon class="st16 animatedPoly poly16" points="725.5,151.5 712.5,161.5 732.5,176.5 "/>
<linearGradient id="SVGID_17_" gradientUnits="userSpaceOnUse" x1="181.0219" y1="471.6936" x2="227.4136" y2="410.8688">
	<stop  offset="0" style="stop-color:#283593"/>
	<stop  offset="1" style="stop-color:#000000"/>
</linearGradient>
<polygon class="st17 animatedPoly poly17" points="190.5,502.5 217.5,448.5 228.5,398.5 166.5,447.5 "/>
<linearGradient id="SVGID_18_" gradientUnits="userSpaceOnUse" x1="710.2454" y1="107.0093" x2="740.1423" y2="47.2155">
	<stop  offset="0" style="stop-color:#C2185B"/>
	<stop  offset="1" style="stop-color:#000000"/>
</linearGradient>
<polygon class="st18 animatedPoly poly18" points="729.5,90.5 737.5,72.5 713.5,78.5 "/>
<linearGradient id="SVGID_19_" gradientUnits="userSpaceOnUse" x1="243.7334" y1="458.0892" x2="208.6818" y2="506.5428">
	<stop  offset="0" style="stop-color:#311B92"/>
	<stop  offset="1" style="stop-color:#000000"/>
</linearGradient>
<polygon class="st19 animatedPoly poly19" points="223.5,501.5 245.5,501.5 242.5,492.5 222.5,476.5 217.5,448.5 190.5,502.5 "/>
<linearGradient id="SVGID_20_" gradientUnits="userSpaceOnUse" x1="257.5" y1="455.5" x2="312.5" y2="455.5">
	<stop  offset="0" style="stop-color:#E91E63"/>
	<stop  offset="1" style="stop-color:#000000"/>
</linearGradient>
<polygon class="st20 animatedPoly poly20" points="257.5,418.5 276.5,482.5 269.5,516.5 312.5,480.5 292.5,429.5 269.5,394.5 "/>
<linearGradient id="SVGID_21_" gradientUnits="userSpaceOnUse" x1="510.5" y1="285.5" x2="567.5" y2="285.5">
	<stop  offset="0" style="stop-color:#283593"/>
	<stop  offset="1" style="stop-color:#000000"/>
</linearGradient>
<polygon class="st21 animatedPoly poly21" points="553.5,293.5 553.5,306.5 567.5,300.5 544.5,283.5 510.5,264.5 514.5,287.5 "/>
<linearGradient id="SVGID_22_" gradientUnits="userSpaceOnUse" x1="544.5" y1="292" x2="567.5" y2="292">
	<stop  offset="0" style="stop-color:#E91E63"/>
	<stop  offset="1" style="stop-color:#000000"/>
</linearGradient>
<polygon class="st22 animatedPoly poly22" points="565.5,283.5 544.5,283.5 567.5,300.5 "/>
<linearGradient id="SVGID_23_" gradientUnits="userSpaceOnUse" x1="269.5" y1="504.5" x2="382.5" y2="504.5">
	<stop  offset="0" style="stop-color:#1A237E"/>
	<stop  offset="1" style="stop-color:#000000"/>
</linearGradient>
<polygon class="st23 animatedPoly poly23" points="300.5,528.5 305.5,517.5 349.5,522.5 362.5,528.5 361.5,517.5 382.5,517.5 376.5,506.5 350.5,495.5
	312.5,480.5 269.5,516.5 "/>
<linearGradient id="SVGID_24_" gradientUnits="userSpaceOnUse" x1="168.9006" y1="237.1084" x2="129.7253" y2="289.6858">
	<stop  offset="0" style="stop-color:#AD1457"/>
	<stop  offset="1" style="stop-color:#000000"/>
</linearGradient>
<polygon class="st24 animatedPoly poly24" points="161.5,247.4 77,262.3 69.5,267.5 194.5,274.5 233,254.1 "/>
<linearGradient id="SVGID_25_" gradientUnits="userSpaceOnUse" x1="494.1131" y1="227.6055" x2="616.1295" y2="227.6055">
	<stop  offset="0" style="stop-color:#D81B60"/>
	<stop  offset="1" style="stop-color:#000000"/>
</linearGradient>
<polygon class="st25 animatedPoly poly25" points="530.3,182.6 531,182.2 530.3,182.6 494.1,263.9 513.9,287.1 510.1,264 527.6,219.2 616.1,168.1
	530.5,182.3 "/>
<linearGradient id="SVGID_26_" gradientUnits="userSpaceOnUse" x1="381.6998" y1="251.5649" x2="494.5" y2="251.5649">
	<stop  offset="0" style="stop-color:#E91E63"/>
	<stop  offset="1" style="stop-color:#000000"/>
</linearGradient>
<polygon class="st26 animatedPoly poly26" points="381.7,268 450.5,274.5 451,274.5 474.5,269.5 494.5,264.5 450.3,228.6 "/>
<linearGradient id="SVGID_27_" gradientUnits="userSpaceOnUse" x1="450.2601" y1="223.6894" x2="529.8411" y2="223.6894">
	<stop  offset="0" style="stop-color:#1A237E"/>
	<stop  offset="1" style="stop-color:#000000"/>
</linearGradient>
<polygon class="st27 animatedPoly poly27" points="450.3,228.6 494.5,264.5 529.8,182.9 "/>
<linearGradient id="SVGID_28_" gradientUnits="userSpaceOnUse" x1="512.805" y1="133.1816" x2="545.7947" y2="105.3466">
	<stop  offset="0" style="stop-color:#512DA8"/>
	<stop  offset="1" style="stop-color:#000000"/>
</linearGradient>
<polygon class="st28 animatedPoly poly28" points="542.8,153 578.2,71.1 456.4,135.7 "/>
<linearGradient id="SVGID_29_" gradientUnits="userSpaceOnUse" x1="248.5" y1="309.5" x2="319.786" y2="309.5">
	<stop  offset="0" style="stop-color:#E91E63"/>
	<stop  offset="1" style="stop-color:#000000"/>
</linearGradient>
<polygon class="st29 animatedPoly poly29" points="248.5,294.5 283.5,324.5 319.8,303.6 "/>
<linearGradient id="SVGID_30_" gradientUnits="userSpaceOnUse" x1="355.6487" y1="327.4577" x2="298.9477" y2="355.2928">
	<stop  offset="0" style="stop-color:#283593"/>
	<stop  offset="1" style="stop-color:#000000"/>
</linearGradient>
<polygon class="st30 animatedPoly poly30" points="283.5,324.5 305.5,393.5 338.5,371.5 344.5,342.5 365.5,309.5 319.8,303.6 "/>
<linearGradient id="SVGID_31_" gradientUnits="userSpaceOnUse" x1="636.983" y1="142.2526" x2="627.4788" y2="79.1561">
	<stop  offset="0" style="stop-color:#E91E63"/>
	<stop  offset="1" style="stop-color:#000000"/>
</linearGradient>
<polygon class="st31 animatedPoly poly31" points="578.9,70.8 675.5,149.5 662.5,114.5 675.5,83.5 579.2,70.6 "/>
<linearGradient id="SVGID_32_" gradientUnits="userSpaceOnUse" x1="742.6889" y1="-23.9882" x2="663.3074" y2="74.9808">
	<stop  offset="0" style="stop-color:#3F51B5"/>
	<stop  offset="1" style="stop-color:#000000"/>
</linearGradient>
<polygon class="st32 animatedPoly poly32" points="740.5,20.5 677.5,18.5 579.2,70.6 675.5,83.5 713.5,78.5 737.5,72.5 755.3,69.5 759.5,55.5 "/>
<linearGradient id="SVGID_33_" gradientUnits="userSpaceOnUse" x1="303.154" y1="250.7108" x2="260.8859" y2="308.4428">
	<stop  offset="0" style="stop-color:#311B92"/>
	<stop  offset="1" style="stop-color:#000000"/>
</linearGradient>
<polygon class="st33 animatedPoly poly33" points="381.7,268 233,254.1 194.5,274.5 248.5,294.5 319.8,303.6 "/>
<linearGradient id="SVGID_34_" gradientUnits="userSpaceOnUse" x1="529.9836" y1="170.6615" x2="615.5" y2="170.6615">
	<stop  offset="0" style="stop-color:#D81B60"/>
	<stop  offset="1" style="stop-color:#000000"/>
</linearGradient>
<polygon class="st34 animatedPoly poly34" points="539,161.7 530,182.5 615.5,167.5 571.9,158.8 "/>
<linearGradient id="SVGID_35_" gradientUnits="userSpaceOnUse" x1="691.5998" y1="127.8133" x2="621.4967" y2="202.0401">
	<stop  offset="0" style="stop-color:#283593"/>
	<stop  offset="1" style="stop-color:#000000"/>
</linearGradient>
<polygon class="st35 animatedPoly poly35" points="615.5,167.5 705.5,198.5 729.5,183.5 732.5,176.5 712.5,161.5 692.5,153.5 675.5,149.5 571.9,158.8
	"/>
<linearGradient id="SVGID_36_" gradientUnits="userSpaceOnUse" x1="621.8477" y1="116.2184" x2="575.4559" y2="170.8576">
	<stop  offset="0" style="stop-color:#512DA8"/>
	<stop  offset="1" style="stop-color:#000000"/>
</linearGradient>
<polygon class="st36 animatedPoly poly36" points="578.2,71.1 542.8,153 571.9,158.8 675.5,149.5 578.9,70.8 "/>
<linearGradient id="SVGID_37_" gradientUnits="userSpaceOnUse" x1="319.786" y1="288.7725" x2="450.5" y2="288.7725">
	<stop  offset="0" style="stop-color:#673AB7"/>
	<stop  offset="1" style="stop-color:#000000"/>
</linearGradient>
<polygon class="st37 animatedPoly poly37" points="319.8,303.6 365.5,309.5 450.5,274.5 381.7,268 "/>
<linearGradient id="SVGID_38_" gradientUnits="userSpaceOnUse" x1="413.5" y1="109.5" x2="516.5" y2="109.5">
	<stop  offset="0" style="stop-color:#E91E63"/>
	<stop  offset="1" style="stop-color:#000000"/>
</linearGradient>
<polygon class="st38 animatedPoly poly38" points="516.5,83.5 478.5,97.5 413.5,83.5 456.5,135.5 "/>
<linearGradient id="SVGID_39_" gradientUnits="userSpaceOnUse" x1="340.5" y1="109.5" x2="578.5" y2="109.5">
	<stop  offset="0" style="stop-color:#283593"/>
	<stop  offset="1" style="stop-color:#000000"/>
</linearGradient>
<polygon class="st39 animatedPoly poly39" points="340.5,112.5 456.5,135.5 413.5,83.5 "/>
<linearGradient id="SVGID_40_" gradientUnits="userSpaceOnUse" x1="477.6759" y1="64.8571" x2="642.6244" y2="153.5169">
	<stop  offset="0" style="stop-color:#283593"/>
	<stop  offset="1" style="stop-color:#000000"/>
</linearGradient>
<polygon class="st40 animatedPoly poly40" points="564.5,29.5 516.5,83.5 456.5,135.5 578.2,71.1 578.5,70.5 "/>
<linearGradient id="SVGID_41_" gradientUnits="userSpaceOnUse" x1="38.3433" y1="368.6786" x2="76.4876" y2="275.8951">
	<stop  offset="0" style="stop-color:#283593"/>
	<stop  offset="1" style="stop-color:#000000"/>
</linearGradient>
<polygon class="st41 animatedPoly poly41" points="7.5,274.5 36.5,328.5 112.5,357.5 44.5,319.5 29.5,282.5 69.5,267.5 77,262.3 "/>
<polygon class="st3 animatedPoly poly42" points="578.2,71.1 578.9,70.8 578.5,70.5 "/>
<polygon class="st3 animatedPoly poly43" points="578.9,70.8 579.2,70.6 578.5,70.5 "/>
<linearGradient id="SVGID_42_" gradientUnits="userSpaceOnUse" x1="651.4774" y1="-13.2061" x2="572.0959" y2="83.7011">
	<stop  offset="0" style="stop-color:#E91E63"/>
	<stop  offset="1" style="stop-color:#000000"/>
</linearGradient>
<polygon class="st42 animatedPoly poly44" points="579.2,70.6 677.5,18.5 636.5,6.5 615.5,17.5 564.5,29.5 578.5,70.5 "/>
<linearGradient id="SVGID_43_" gradientUnits="userSpaceOnUse" x1="5.0753" y1="221.7279" x2="86.5186" y2="279.4599">
	<stop  offset="0" style="stop-color:#C2185B"/>
	<stop  offset="1" style="stop-color:#000000"/>
</linearGradient>
<polygon class="st43 animatedPoly poly45" points="105.9,242.2 13.5,233.5 7.5,274.5 77,262.3 "/>
<linearGradient id="SVGID_44_" gradientUnits="userSpaceOnUse" x1="113.972" y1="194.7268" x2="63.4565" y2="233.902">
	<stop  offset="0" style="stop-color:#673AB7"/>
	<stop  offset="0.2986" style="stop-color:#53328A"/>
	<stop  offset="1" style="stop-color:#000000"/>
</linearGradient>
<polygon class="st44 animatedPoly poly46" points="174.8,194.3 38.5,206.5 13.5,233.5 105.9,242.2 "/>
<linearGradient id="SVGID_45_" gradientUnits="userSpaceOnUse" x1="198.3779" y1="122.5123" x2="148.8934" y2="178.1824">
	<stop  offset="0" style="stop-color:#1A237E"/>
	<stop  offset="1" style="stop-color:#000000"/>
</linearGradient>
<polygon class="st45 animatedPoly poly47" points="292.5,112.5 260.5,122.5 198.5,146.5 123.5,173.5 38.5,206.5 174.8,194.3 "/>
<linearGradient id="SVGID_46_" gradientUnits="userSpaceOnUse" x1="292.5" y1="143.4511" x2="456.4104" y2="143.4511">
	<stop  offset="0" style="stop-color:#673AB7"/>
	<stop  offset="1" style="stop-color:#000000"/>
</linearGradient>
<polygon class="st46 animatedPoly poly48" points="456.4,135.7 340.5,112.5 292.5,112.5 383.4,174.4 "/>
<linearGradient id="SVGID_47_" gradientUnits="userSpaceOnUse" x1="174.8096" y1="153.4014" x2="383.3564" y2="153.4014">
	<stop  offset="0" style="stop-color:#E91E63"/>
	<stop  offset="1" style="stop-color:#000000"/>
</linearGradient>
<polygon class="st47 animatedPoly poly49" points="380.5,175.9 383.4,174.4 292.5,112.5 174.8,194.3 "/>
</svg>
