<?xml version="1.0" encoding="utf-8"?>
<!-- Generator: Adobe Illustrator 21.1.0, SVG Export Plug-In . SVG Version: 6.00 Build 0)  -->
<svg version="1.1" id="Layer_1" xmlns="http://www.w3.org/2000/svg" xmlns:xlink="http://www.w3.org/1999/xlink" x="0px" y="0px"
	 viewBox="0 0 258 225" style="enable-background:new 0 0 258 225;" xml:space="preserve">
<style type="text/css">
	.st0{fill:none;}
	.st1{fill:url(#SVGID_1_);}
	.st2{fill:url(#SVGID_2_);}
	.st3{fill:url(#SVGID_3_);}
	.st4{fill:url(#SVGID_4_);}
	.st5{fill:url(#SVGID_5_);}
	.st6{fill:url(#SVGID_6_);}
	.st7{fill:url(#SVGID_7_);}
	.st8{fill:url(#SVGID_8_);}
	.st9{fill:url(#SVGID_9_);}
	.st10{fill:url(#SVGID_10_);}
	.st11{fill:url(#SVGID_11_);}
	.st12{fill:url(#SVGID_12_);}
	.st13{fill:url(#SVGID_13_);}
	.st14{fill:url(#SVGID_14_);}
	.st15{fill:url(#SVGID_15_);}
	.st16{fill:url(#SVGID_16_);}
	.st17{fill:url(#SVGID_17_);}
	.st18{fill:url(#SVGID_18_);}
	.st19{fill:url(#SVGID_19_);}
	.st20{fill:url(#SVGID_20_);}
	.st21{fill:url(#SVGID_21_);}
	.st22{fill:url(#SVGID_22_);}

	.animatedPoly {
	 opacity: 1;
	}

	.poly1{ animation-delay: 1s; }
	.poly2{ animation-delay: 2s; }
	.poly3{ animation-delay: 3s; }
	.poly4{ animation-delay: 4s; }
	.poly5{ animation-delay: 5s; }
	.poly6{ animation-delay: 6s; }
	.poly7{ animation-delay: 7s; }
	.poly8{ animation-delay: 8s; }
	.poly9{ animation-delay: 9s; }
	.poly10{ animation-delay: 10s; }
	.poly11{ animation-delay: 11s; }
	.poly12{ animation-delay: 12s; }
	.poly13{ animation-delay: 13s; }
	.poly14{ animation-delay: 14s; }
	.poly15{ animation-delay: 15s; }
	.poly16{ animation-delay: 16s; }
	.poly17{ animation-delay: 17s; }
	.poly18{ animation-delay: 18s; }
	.poly19{ animation-delay: 19s; }
	.poly20{ animation-delay: 20s; }
	.poly21{ animation-delay: 21s; }
	.poly22{ animation-delay: 22s; }


	@-webkit-keyframes faded{
		0% {
			opacity: 1;
		}
		2.5% {
			opacity: 0;
		}
		7.5% {
		opacity: 0;
		}
		10%{
		opacity: 1;
		}
	}



</style>
<polygon class="st0" points="13.4,193.2 13.4,193.6 18.3,182.6 18.4,182.5 18,182.5 17.8,182.9 "/>
<polygon class="st0" points="5.6,211.1 13.4,193.6 13.4,193.2 "/>
<polygon class="st0" points="6.1,103 66.2,71.1 6.1,102.9 "/>
<g class='animatedPoly poly1'>
	<linearGradient id="SVGID_1_" gradientUnits="userSpaceOnUse" x1="25.4442" y1="149.0964" x2="16.4658" y2="156.911">
		<stop  offset="0" style="stop-color:#C2185B"/>
		<stop  offset="1" style="stop-color:#000000"/>
	</linearGradient>
	<polygon class="st1" points="10.9,163.2 27,161.7 30.8,153 9.8,148.8 	"/>
	<g>
		<path d="M10.9,163.5c5.4-0.5,10.7-1,16.1-1.4c0.1,0,0.3-0.1,0.3-0.2c1.3-2.9,2.5-5.8,3.8-8.8c0.1-0.2,0-0.5-0.2-0.6
			c-7-1.4-14-2.8-21-4.2c-0.2,0-0.5,0.1-0.5,0.4c0.4,4.8,0.8,9.6,1.2,14.4c0,0.5,0.8,0.5,0.8,0c-0.4-4.4-0.7-8.8-1.1-13.1
			c0-0.2,0-0.7-0.1-0.9c-0.4-0.7,0.8,0.3-0.5,0c0.5,0.1,1,0.2,1.6,0.3c2.4,0.5,4.8,1,7.2,1.4c2.8,0.6,5.5,1.1,8.3,1.7
			c0.9,0.2,1.7,0.3,2.6,0.5c0.3,0.1,1.5,0.5,1.2,0c-0.3-0.4-0.2,0.1-0.4,0.4c-0.2,0.4-0.4,0.9-0.6,1.3c-0.6,1.4-1.2,2.8-1.8,4.1
			c-0.3,0.7-0.6,2-1.1,2.5c-0.2,0.2,0.5-0.2,0,0c-0.3,0.1-0.7,0.1-1,0.1c-4.9,0.4-9.9,0.9-14.8,1.3
			C10.5,162.8,10.5,163.6,10.9,163.5z"/>
	</g>
</g>
<g class='animatedPoly poly2'>
	<linearGradient id="SVGID_2_" gradientUnits="userSpaceOnUse" x1="27.0054" y1="157.3365" x2="59.8666" y2="157.3365">
		<stop  offset="0" style="stop-color:#3F51B5"/>
		<stop  offset="1" style="stop-color:#000000"/>
	</linearGradient>
	<polygon class="st2" points="59.9,158.8 30.8,153 27,161.7 	"/>
	<g>
		<path d="M60,158.4c-9.7-1.9-19.4-3.9-29.1-5.8c-0.1,0-0.4,0-0.4,0.2c-1.3,2.9-2.5,5.8-3.8,8.8c-0.1,0.2,0,0.6,0.3,0.6
			c11-1,21.9-2,32.9-2.9C60.3,159.1,60.3,158.4,60,158.4c-11.1,1-22,1.9-33,2.9c0.1,0.2,0.2,0.4,0.3,0.6c0.7-1.5,1.3-3.1,2-4.6
			c0.4-1,0.8-1.9,1.2-2.9c0.2-0.6,0.9-1.3,0.1-1.1c0.6-0.1,1.9,0.4,2.5,0.5c1.8,0.4,3.6,0.7,5.4,1.1c7.1,1.4,14.1,2.8,21.2,4.2
			C60.2,159.2,60.4,158.5,60,158.4z"/>
	</g>
</g>
<g class='animatedPoly poly3'>
	<linearGradient id="SVGID_3_" gradientUnits="userSpaceOnUse" x1="12.5881" y1="184.1709" x2="17.9836" y2="184.1709">
		<stop  offset="0" style="stop-color:#880E4F"/>
		<stop  offset="1" style="stop-color:#000000"/>
	</linearGradient>
	<polygon class="st3" points="12.8,185.8 17.8,182.9 18,182.5 12.6,183.5 	"/>
	<g>
		<path d="M13,186.1c1-0.6,2-1.1,3-1.7c0.7-0.4,2-0.8,2.3-1.7c0.1-0.3-0.1-0.6-0.4-0.6c-1.8,0.3-3.6,0.6-5.4,0.9
			c-0.1,0-0.3,0.2-0.3,0.4c0.1,0.8,0.1,1.5,0.2,2.3c0,0.5,0.8,0.5,0.8,0c-0.1-0.8-0.1-1.5-0.2-2.3c-0.1,0.1-0.2,0.2-0.3,0.4
			c1.8-0.3,3.6-0.6,5.4-0.9c-0.1-0.2-0.3-0.4-0.4-0.6c-0.1,0.3,0,0.1-0.1,0.3c-0.1,0.1-0.4,0.2-0.5,0.3c-0.6,0.3-1.1,0.7-1.7,1
			c-0.9,0.5-1.8,1-2.7,1.6C12.2,185.7,12.5,186.4,13,186.1z"/>
	</g>
</g>
<g class='animatedPoly poly4'>
	<linearGradient id="SVGID_4_" gradientUnits="userSpaceOnUse" x1="10.9424" y1="172.6065" x2="27.0054" y2="172.6065">
		<stop  offset="0" style="stop-color:#673AB7"/>
		<stop  offset="1" style="stop-color:#000000"/>
	</linearGradient>
	<polygon class="st4" points="12.6,183.5 18,182.5 27,161.7 10.9,163.2 	"/>
	<g>
		<path d="M12.7,183.9c1.4-0.2,4.6-0.2,5.6-1.2c0.4-0.4,0.6-1.4,0.8-1.9c0.6-1.4,1.2-2.7,1.8-4.1c2.1-4.9,4.3-9.9,6.4-14.8
			c0.1-0.2,0-0.6-0.3-0.6c-5.4,0.5-10.7,1-16.1,1.4c-0.2,0-0.4,0.2-0.4,0.4c0.5,6.8,1.1,13.6,1.6,20.3c0,0.5,0.8,0.5,0.8,0
			c-0.2-2.9-0.5-5.8-0.7-8.7c-0.2-2.1-0.3-4.1-0.5-6.2c-0.1-1.4,0.1-3.4-0.4-4.7c-0.2-0.7,0.3-0.6-0.4-0.3c0.3-0.1,0.7-0.1,1-0.1
			c1.8-0.2,3.5-0.3,5.3-0.5c3.2-0.3,6.5-0.6,9.7-0.9c-0.1-0.2-0.2-0.4-0.3-0.6c-2,4.7-4,9.3-6.1,14c-0.9,2-1.6,4.6-2.8,6.5
			c-0.1,0.2-0.3,0.4,0,0.2c-0.3,0.2-1.1,0.2-1.5,0.3c-1.3,0.2-2.6,0.5-3.9,0.7C12,183.2,12.2,183.9,12.7,183.9z"/>
	</g>
</g>
<g class='animatedPoly poly5'>
	<linearGradient id="SVGID_5_" gradientUnits="userSpaceOnUse" x1="287.4748" y1="73.1005" x2="167.8871" y2="84.4407">
		<stop  offset="0" style="stop-color:#303F9F"/>
		<stop  offset="1" style="stop-color:#000000"/>
	</linearGradient>
	<polygon class="st5" points="238.5,85.5 243.3,69.5 225.5,72.5 	"/>
	<g>
		<path d="M238.9,85.6c1.6-5.3,3.2-10.6,4.8-16c0.1-0.3-0.2-0.5-0.5-0.5c-5.9,1-11.9,2-17.8,3c-0.3,0-0.3,0.4-0.2,0.6
			c4.3,4.3,8.7,8.7,13,13c0.3,0.3,0.9-0.2,0.5-0.5c-4.3-4.3-8.7-8.7-13-13c-0.1,0.2-0.1,0.4-0.2,0.6c5.9-1,11.9-2,17.8-3
			c-0.2-0.2-0.3-0.3-0.5-0.5c-1.6,5.3-3.2,10.6-4.8,16C238,85.9,238.7,86.1,238.9,85.6z"/>
	</g>
</g>
<g class='animatedPoly poly6'>
	<linearGradient id="SVGID_6_" gradientUnits="userSpaceOnUse" x1="180.5" y1="151.5" x2="200.5" y2="151.5">
		<stop  offset="0" style="stop-color:#C2185B"/>
		<stop  offset="1" style="stop-color:#000000"/>
	</linearGradient>
	<polygon class="st6" points="197.5,141.5 180.5,153.5 200.5,161.5 	"/>
	<g>
		<path d="M197.3,141.2c-5.7,4-11.3,8-17,12c-0.3,0.2-0.2,0.6,0.1,0.7c6.7,2.7,13.3,5.3,20,8c0.3,0.1,0.5-0.2,0.5-0.5
			c-1-6.7-2-13.3-3-20c-0.1-0.5-0.8-0.3-0.7,0.2c1,6.7,2,13.3,3,20c0.2-0.2,0.3-0.3,0.5-0.5c-6.7-2.7-13.3-5.3-20-8
			c0,0.2,0.1,0.5,0.1,0.7c5.7-4,11.3-8,17-12C198.1,141.5,197.7,140.9,197.3,141.2z"/>
	</g>
</g>
<g class='animatedPoly poly7'>
	<linearGradient id="SVGID_7_" gradientUnits="userSpaceOnUse" x1="181.0258" y1="145" x2="201.3712" y2="145">
		<stop  offset="0" style="stop-color:#303F9F"/>
		<stop  offset="1" style="stop-color:#000000"/>
	</linearGradient>
	<polygon class="st7" points="176.5,136.5 163.5,149.5 180.5,153.5 	"/>
	<g>
		<path d="M176.2,136.2c-4.3,4.3-8.7,8.7-13,13c-0.2,0.2-0.1,0.6,0.2,0.6c5.7,1.3,11.3,2.7,17,4c0.3,0.1,0.5-0.2,0.5-0.5
			c-1.3-5.7-2.7-11.3-4-17c-0.1-0.5-0.8-0.3-0.7,0.2c1.3,5.7,2.7,11.3,4,17c0.2-0.2,0.3-0.3,0.5-0.5c-5.7-1.3-11.3-2.7-17-4
			c0.1,0.2,0.1,0.4,0.2,0.6c4.3-4.3,8.7-8.7,13-13C177.1,136.4,176.6,135.9,176.2,136.2z"/>
	</g>
</g>
<g class='animatedPoly poly8'>
	<linearGradient id="SVGID_8_" gradientUnits="userSpaceOnUse" x1="118.0569" y1="58.3818" x2="253.1085" y2="113.021">
		<stop  offset="0" style="stop-color:#512DA8"/>
		<stop  offset="1" style="stop-color:#000000"/>
	</linearGradient>
	<polygon class="st8" points="183.5,98.5 201.5,78.5 163.5,83.5 	"/>
	<g>
		<path d="M183.8,98.8c6-6.7,12-13.3,18-20c0.2-0.2,0.1-0.7-0.3-0.6c-12.7,1.7-25.3,3.3-38,5c-0.4,0-0.5,0.5-0.2,0.7
			c6.7,5,13.3,10,20,15c0.4,0.3,0.8-0.4,0.4-0.6c-6.7-5-13.3-10-20-15c-0.1,0.2-0.1,0.5-0.2,0.7c12.7-1.7,25.3-3.3,38-5
			c-0.1-0.2-0.2-0.4-0.3-0.6c-6,6.7-12,13.3-18,20C182.9,98.6,183.4,99.1,183.8,98.8z"/>
	</g>
</g>
<g class='animatedPoly poly9'>
	<linearGradient id="SVGID_9_" gradientUnits="userSpaceOnUse" x1="226.8531" y1="159.3814" x2="193.8634" y2="174.8453">
		<stop  offset="0" style="stop-color:#512DA8"/>
		<stop  offset="1" style="stop-color:#000000"/>
	</linearGradient>
	<polygon class="st9" points="213.5,151.5 200.5,161.5 220.5,176.5 	"/>
	<g>
		<path d="M213.3,151.2c-4.3,3.3-8.7,6.7-13,10c-0.2,0.2-0.2,0.5,0,0.6c6.7,5,13.3,10,20,15c0.3,0.2,0.6-0.1,0.6-0.4
			c-2.3-8.3-4.7-16.7-7-25c-0.1-0.5-0.9-0.3-0.7,0.2c2.3,8.3,4.7,16.7,7,25c0.2-0.1,0.4-0.3,0.6-0.4c-6.7-5-13.3-10-20-15
			c0,0.2,0,0.4,0,0.6c4.3-3.3,8.7-6.7,13-10C214.1,151.5,213.7,150.9,213.3,151.2z"/>
	</g>
</g>
<g class='animatedPoly poly10'>
	<linearGradient id="SVGID_10_" gradientUnits="userSpaceOnUse" x1="198.2454" y1="107.0093" x2="228.1423" y2="47.2155">
		<stop  offset="0" style="stop-color:#C2185B"/>
		<stop  offset="1" style="stop-color:#000000"/>
	</linearGradient>
	<polygon class="st10" points="217.5,90.5 225.5,72.5 201.5,78.5 	"/>
	<g>
		<path d="M217.8,90.7c2.7-6,5.3-12,8-18c0.1-0.3-0.1-0.6-0.4-0.6c-8,2-16,4-24,6c-0.3,0.1-0.3,0.5-0.1,0.7c5.3,4,10.7,8,16,12
			c0.4,0.3,0.8-0.4,0.4-0.6c-5.3-4-10.7-8-16-12c0,0.2-0.1,0.5-0.1,0.7c8-2,16-4,24-6c-0.1-0.2-0.3-0.4-0.4-0.6c-2.7,6-5.3,12-8,18
			C217,90.7,217.6,91.1,217.8,90.7z"/>
	</g>
</g>
<g class='animatedPoly poly11'>
	<linearGradient id="SVGID_11_" gradientUnits="userSpaceOnUse" x1="13.4072" y1="193.792" x2="104.1294" y2="193.792">
		<stop  offset="0" style="stop-color:#D81B60"/>
		<stop  offset="1" style="stop-color:#000000"/>
	</linearGradient>
	<polygon class="st11" points="18.3,182.6 13.4,193.6 15.5,219.4 15.6,219.2 104.1,168.1 34.8,179.6 18.6,182.4 	"/>
	<g>
		<path d="M18,182.4c-1.4,3.2-2.9,6.5-4.3,9.7c-0.9,1.9-0.5,3.4-0.3,5.5c0.6,7.3,1.2,14.5,1.8,21.8c0,0.4,0.6,0.5,0.7,0.1
			c0,0,0.1-0.1,0.5-0.3c0.5-0.4,1.1-0.7,1.7-1c2.1-1.2,4.2-2.4,6.3-3.7c7-4,14-8.1,21-12.1c15.9-9.2,31.9-18.4,47.8-27.6
			c3.7-2.1,7.4-4.3,11.1-6.4c0.4-0.2,0.1-0.8-0.3-0.7c-11.1,1.8-22.3,3.7-33.4,5.5c-11.9,2-23.9,3.9-35.8,5.9
			c-2.5,0.4-5,0.9-7.5,1.3c-2.2,0.4-4.3,0.8-6.5,1.1c-0.9,0.2-2,0.2-2.8,0.6c-0.4,0.2,0,0.9,0.4,0.6c0.7-0.4,1.8-0.4,2.6-0.6
			c1.8-0.3,3.7-0.6,5.5-1c2.8-0.5,5.6-1,8.3-1.5c3.4-0.6,6.8-1.1,10.2-1.7c15.5-2.6,31-5.1,46.5-7.7c4.2-0.7,8.4-1.4,12.6-2.1
			c-0.1-0.2-0.2-0.5-0.3-0.7c-10.3,5.9-20.6,11.9-30.8,17.8c-16,9.2-31.9,18.4-47.9,27.6c-2.5,1.4-5,2.9-7.5,4.3
			c-0.8,0.4-2.2,0.9-2.6,1.8c0.2,0,0.5,0.1,0.7,0.1c-0.6-7.1-1.1-14.1-1.7-21.2c-0.2-2.3-0.6-4,0.2-5.7c1.4-3.2,2.9-6.5,4.3-9.7
			C18.8,182.4,18.2,182,18,182.4z"/>
	</g>
</g>
<g class='animatedPoly poly12'>
	<linearGradient id="SVGID_12_" gradientUnits="userSpaceOnUse" x1="18.3132" y1="182.5255" x2="18.6357" y2="182.5255">
		<stop  offset="0" style="stop-color:#D81B60"/>
		<stop  offset="1" style="stop-color:#000000"/>
	</linearGradient>
	<polygon class="st12" points="18.6,182.4 18.4,182.5 18.3,182.6 	"/>
	<g>
		<path d="M18.5,182.1c-0.3,0-0.4,0.1-0.5,0.4c-0.1,0.3,0.2,0.7,0.5,0.5c0.1-0.1,0.2-0.1,0.3-0.2C19.2,182.5,18.9,181.9,18.5,182.1
			c-0.2,0.1-0.3,0.2-0.4,0.2c0.2,0.2,0.3,0.3,0.5,0.5c0,0,0-0.1,0.1-0.1c-0.1,0.1-0.1,0.1-0.2,0.2c0.1,0,0.2,0,0.3,0
			C19.2,182.7,19,182,18.5,182.1z"/>
	</g>
</g>
<g class='animatedPoly poly13'>
	<linearGradient id="SVGID_13_" gradientUnits="userSpaceOnUse" x1="12.7737" y1="188.0388" x2="17.8411" y2="188.0388">
		<stop  offset="0" style="stop-color:#1A237E"/>
		<stop  offset="1" style="stop-color:#000000"/>
	</linearGradient>
	<polygon class="st13" points="12.8,185.8 13.4,193.2 17.8,182.9 	"/>
	<g>
		<path d="M12.4,185.8c0.2,2.5,0.4,4.9,0.6,7.4c0,0.3,0.5,0.6,0.7,0.2c1.5-3.4,3-6.9,4.5-10.3c0.1-0.3-0.2-0.7-0.5-0.5
			c-1.7,1-3.4,1.9-5.1,2.9c-0.4,0.2,0,0.9,0.4,0.6c1.7-1,3.4-1.9,5.1-2.9c-0.2-0.2-0.3-0.3-0.5-0.5c-1.5,3.4-3,6.9-4.5,10.3
			c0.2,0.1,0.5,0.1,0.7,0.2c-0.2-2.5-0.4-4.9-0.6-7.4C13.1,185.3,12.4,185.3,12.4,185.8z"/>
	</g>
</g>
<g class='animatedPoly poly14'>
	<linearGradient id="SVGID_14_" gradientUnits="userSpaceOnUse" x1="26.7805" y1="120.9382" x2="49.6028" y2="101.6818">
		<stop  offset="0" style="stop-color:#512DA8"/>
		<stop  offset="1" style="stop-color:#000000"/>
	</linearGradient>
	<polygon class="st14" points="9.8,148.8 30.8,153 66.2,71.1 6.1,103 	"/>
	<g>
		<path d="M9.7,149.1c7,1.4,14,2.8,21,4.2c0.1,0,0.4,0,0.4-0.2c4-9.2,8-18.4,12-27.6c6.4-14.7,12.7-29.4,19.1-44.1
			c1.5-3.4,2.9-6.8,4.4-10.2c0.1-0.3-0.2-0.7-0.5-0.5c-17.6,9.3-35.2,18.6-52.7,28c-2.5,1.3-4.9,2.6-7.4,3.9
			c-0.1,0.1-0.2,0.2-0.2,0.3c1.1,13.3,2.2,26.7,3.2,40c0.2,1.9,0.3,3.8,0.5,5.7c0,0.5,0.8,0.5,0.8,0c-0.6-7.3-1.2-14.6-1.8-21.9
			c-0.4-5.1-0.8-10.3-1.2-15.4c-0.2-1.9-0.3-3.8-0.5-5.6c-0.1-0.8-0.4-1.9-0.2-2.7c0.1-0.4-0.3,0.3-0.1,0.1c0.1-0.1,0.4-0.3,0.6-0.3
			c1-0.4,1.9-1,2.8-1.5c3.4-1.8,6.7-3.6,10.1-5.3c9.4-5,18.9-10,28.3-15c6.1-3.2,12.2-6.5,18.3-9.7c-0.2-0.2-0.3-0.3-0.5-0.5
			c-5.6,13-11.2,25.9-16.8,38.9c-6.2,14.2-12,28.7-18.5,42.7c-0.2,0.4-0.1,0.2,0.3,0.1c-0.3,0.1-1-0.2-1.3-0.3
			c-2.3-0.5-4.7-0.9-7-1.4c-4.2-0.8-8.5-1.7-12.7-2.5C9.4,148.3,9.2,149,9.7,149.1z"/>
	</g>
</g>
<g class='animatedPoly poly15'>
	<linearGradient id="SVGID_15_" gradientUnits="userSpaceOnUse" x1="124.983" y1="142.2526" x2="115.4788" y2="79.1561">
		<stop  offset="0" style="stop-color:#E91E63"/>
		<stop  offset="1" style="stop-color:#000000"/>
	</linearGradient>
	<polygon class="st15" points="66.9,70.8 163.5,149.5 150.5,114.5 163.5,83.5 67.2,70.6 	"/>
	<g>
		<path d="M66.6,71.1c10.9,8.9,21.8,17.7,32.7,26.6c17.4,14.1,34.7,28.3,52.1,42.4c4,3.2,7.9,6.5,11.9,9.7c0.3,0.2,0.8,0,0.6-0.4
			c-3.6-9.6-7.2-19.3-10.7-28.9c-0.7-1.8-1.5-3.6-2-5.5c-0.3-0.8-0.1-0.7,0.4-1.8c2.2-5.2,4.4-10.5,6.6-15.7
			c1.9-4.6,3.9-9.3,5.8-13.9c0.1-0.3-0.2-0.4-0.4-0.5c-11.1-1.5-22.2-3-33.3-4.5c-17.4-2.3-34.8-4.7-52.2-7
			c-2.7-0.4-5.5-0.7-8.2-1.1c-1-0.1-2.3-0.6-3.2-0.1c-0.4,0.2,0,0.9,0.4,0.6c0.5-0.3,1.4,0,2,0.1c1.8,0.2,3.6,0.5,5.4,0.7
			c6.2,0.8,12.3,1.7,18.5,2.5c15.7,2.1,31.4,4.2,47.1,6.3c5.8,0.8,11.6,1.6,17.4,2.3c1.6,0.2,3.2,0.4,4.9,0.7c0.3,0,0.8,0.2,1.1,0.1
			c0.4-0.1,0-0.4-0.3-0.1c-0.4,0.4-0.6,1.5-0.8,2c-0.6,1.4-1.2,2.8-1.8,4.2c-1.5,3.7-3.1,7.3-4.6,11c-1.4,3.3-2.8,6.6-4.2,10
			c-0.4,1-1.5,2.6-1.4,3.7c0,0.5,0.4,1.2,0.6,1.7c0.5,1.3,1,2.7,1.5,4c1.5,4,3,8,4.5,12c2.1,5.8,4.3,11.5,6.4,17.3
			c0.2-0.1,0.4-0.2,0.6-0.4c-10.9-8.9-21.8-17.7-32.7-26.6C113.7,108.5,96.4,94.3,79,80.2c-4-3.2-7.9-6.5-11.9-9.7
			C66.7,70.2,66.2,70.7,66.6,71.1z"/>
	</g>
</g>
<g class='animatedPoly poly16'>
	<linearGradient id="SVGID_16_" gradientUnits="userSpaceOnUse" x1="230.6889" y1="-23.9882" x2="151.3075" y2="74.9808">
		<stop  offset="0" style="stop-color:#3F51B5"/>
		<stop  offset="1" style="stop-color:#000000"/>
	</linearGradient>
	<polygon class="st16" points="228.5,20.5 165.5,18.5 67.2,70.6 163.5,83.5 201.5,78.5 225.5,72.5 243.3,69.5 247.5,55.5 	"/>
	<g>
		<path d="M228.5,20.1c-11.7-0.4-23.5-0.7-35.2-1.1c-7.3-0.2-14.6-0.5-21.8-0.7c-2-0.1-4.7-0.7-6.6,0.1c-3.1,1.3-6.1,3.2-9.1,4.8
			c-5.9,3.1-11.8,6.3-17.8,9.4c-14.6,7.7-29.2,15.5-43.8,23.2c-5.9,3.1-11.8,6.3-17.7,9.4c-1.9,1-3.9,2.1-5.8,3.1
			c-1,0.5-2.3,1-3.2,1.7c-0.1,0.1-0.3,0.2-0.4,0.2c-0.4,0.2-0.1,0.7,0.2,0.7c9.5,1.3,18.9,2.5,28.4,3.8c16.5,2.2,32.9,4.4,49.4,6.6
			c5.3,0.7,10.5,1.4,15.8,2.1c2.5,0.3,4.2,0.2,6.7-0.2c7.9-1,15.8-2.1,23.7-3.1c4-0.5,8.2-0.8,12.1-1.8c7-1.8,14-3.5,21.1-5.3
			c5.4-1.4,11.1-2,16.6-2.9c0.8-0.1,1.7-0.3,2.5-0.4c0.1,0,0.2-0.1,0.3-0.3c1.2-3.9,2.3-7.8,3.5-11.7c0.7-2.5,0.7-2.6-0.5-4.8
			c-4.5-8.3-9-16.6-13.5-24.9c-1.4-2.6-2.9-5.3-4.3-7.9c-0.2-0.4-0.9,0-0.6,0.4c3.8,7,7.6,14,11.4,21c2.2,4,4.3,7.9,6.5,11.9
			c0.2,0.4,1.1,1.9,1.1,2c0-0.2-0.4,1-0.4,1.2c-0.4,1.2-0.7,2.3-1.1,3.5c-0.7,2.5-1.5,5-2.2,7.5c-0.1,0.4-0.2,1.3-0.5,1.6
			c0.4-0.5-0.4-0.1-0.9,0c-4.8,0.8-9.5,1.6-14.3,2.4c-7.5,1.3-14.9,3.5-22.3,5.4c-6.2,1.5-12.7,2.1-19.2,3
			c-5.3,0.7-10.6,1.4-15.9,2.1c-2.2,0.3-4.6,0.9-6.8,0.9c-1.4,0-2.9-0.4-4.2-0.6c-3.4-0.4-6.7-0.9-10.1-1.3
			c-10.1-1.4-20.2-2.7-30.4-4.1c-10.6-1.4-21.3-2.8-31.9-4.3c-4-0.5-8-1.1-11.9-1.6c-2.2-0.3-4.6-0.9-6.8-0.9
			c-0.3,0-0.6-0.1-0.9-0.1c0.1,0.2,0.1,0.5,0.2,0.7C74.7,67,82,63.2,89.3,59.3c14.4-7.7,28.9-15.3,43.3-23
			c10.4-5.5,20.7-11,31.1-16.5c2.1-1.1,2.1-1,4.5-0.9c6.3,0.2,12.6,0.4,18.9,0.6c13.5,0.4,27,1.2,40.5,1.3c0.3,0,0.6,0,0.8,0
			C229,20.9,229,20.1,228.5,20.1z"/>
	</g>
</g>
<g class='animatedPoly poly17'>
	<linearGradient id="SVGID_17_" gradientUnits="userSpaceOnUse" x1="17.9836" y1="170.6615" x2="103.5" y2="170.6615">
		<stop  offset="0" style="stop-color:#D81B60"/>
		<stop  offset="1" style="stop-color:#000000"/>
	</linearGradient>
	<polygon class="st17" points="27,161.7 18,182.5 18.4,182.5 18.5,182.3 34.8,179.6 103.5,167.5 59.9,158.8 	"/>
	<g>
		<path d="M26.7,161.5c-3,6.9-6,13.9-9,20.8c-0.1,0.3,0.1,0.6,0.4,0.6c0.9-0.2,0.3-0.3,1.3-0.4c1.6-0.2,3.3-0.5,4.9-0.8
			c3.4-0.6,6.9-1.1,10.3-1.7c3.1-0.5,6.2-1.1,9.2-1.6c15.6-2.7,31.1-5.5,46.7-8.2c4.3-0.8,8.7-1.5,13-2.3c0.4-0.1,0.4-0.7,0-0.7
			c-11.1-2.2-22.2-4.4-33.2-6.6c-3.4-0.7-7.1-1.9-10.5-2.1c-1.7-0.1-3.5,0.3-5.2,0.5c-3.4,0.3-6.8,0.6-10.2,0.9
			c-5.8,0.5-11.6,1-17.4,1.6c-0.5,0-0.5,0.8,0,0.8c10.7-1,21.5-2.4,32.3-2.9c2.6-0.1,6.2,1.1,9,1.6c7,1.4,14,2.8,20.9,4.2
			c4.7,0.9,9.4,1.9,14.2,2.8c0-0.2,0-0.5,0-0.7c-11.2,2-22.4,3.9-33.6,5.9c-11.7,2.1-23.4,4.2-35,6.2c-5.6,0.9-11.5,2-16.9,3
			c0.1,0.2,0.3,0.4,0.4,0.6c3-6.9,6-13.9,9-20.8C27.5,161.5,26.9,161.1,26.7,161.5z"/>
	</g>
</g>
<g class='animatedPoly poly18'>
	<linearGradient id="SVGID_18_" gradientUnits="userSpaceOnUse" x1="18.3732" y1="181.0332" x2="34.8287" y2="181.0332">
		<stop  offset="0" style="stop-color:#D81B60"/>
		<stop  offset="1" style="stop-color:#000000"/>
	</linearGradient>
	<polygon class="st18" points="18.4,182.5 18.6,182.4 19,182.2 18.6,182.4 34.8,179.6 18.5,182.3 	"/>
	<g>
		<path d="M18.5,182.8c0.3,0,0.4-0.1,0.7-0.3c0.4-0.2,0-0.9-0.4-0.6c-0.1,0.1-0.2,0.1-0.3,0.2c-0.4,0.2-0.1,0.8,0.3,0.7
			c5.4-0.9,10.8-1.9,16.2-2.8c0.5-0.1,0.3-0.8-0.2-0.7c-3.1,0.5-6.3,1-9.4,1.6c-1.9,0.3-3.7,0.6-5.6,0.9c-0.6,0.1-1.4,0-1.7,0.6
			c-0.2,0.4,0.5,0.8,0.6,0.4c0-0.1-0.1,0,0.4-0.1c0.6-0.2,1.2-0.2,1.8-0.3c1.9-0.3,3.7-0.6,5.6-0.9c2.8-0.5,5.6-0.9,8.4-1.4
			c-0.1-0.2-0.1-0.5-0.2-0.7c-5.4,0.9-10.8,1.9-16.2,2.8c0.1,0.2,0.2,0.5,0.3,0.7c0.1-0.1,0.2-0.1,0.3-0.2c0.4-0.2,0-0.9-0.4-0.6
			c-0.2,0.1-0.3,0.2-0.5,0.2C17.8,182.2,18,182.9,18.5,182.8z"/>
	</g>
</g>
<g class='animatedPoly poly19'>
	<linearGradient id="SVGID_19_" gradientUnits="userSpaceOnUse" x1="179.5998" y1="127.8133" x2="109.4967" y2="202.0401">
		<stop  offset="0" style="stop-color:#283593"/>
		<stop  offset="1" style="stop-color:#000000"/>
	</linearGradient>
	<polygon class="st19" points="103.5,167.5 193.5,198.5 217.5,183.5 220.5,176.5 200.5,161.5 180.5,153.5 163.5,149.5 59.9,158.8
		"/>
	<g>
		<path d="M103.4,167.9c17,5.9,34.1,11.7,51.1,17.6c10.3,3.6,20.7,7.1,31,10.7c2.4,0.8,4.8,2,7.3,2.5c1.7,0.4,3.6-1.5,5-2.4
			c5.6-3.5,11.2-7,16.8-10.5c0.9-0.6,2.5-1.2,3.2-2.1c0.7-0.9,1.1-2.6,1.6-3.7c0.5-1.1,0.9-2.2,1.4-3.3c0.1-0.2,0-0.4-0.1-0.5
			c-4.9-3.7-9.9-7.4-14.8-11.1c-1.7-1.3-3.4-2.9-5.2-3.9c-1.9-1.1-4.2-1.7-6.3-2.5c-4.8-1.9-9.8-4.6-14.9-5.8
			c-3.5-0.8-7-1.7-10.5-2.5c-1.8-0.4-3.8-1.2-5.6-1.3c-2.5-0.1-5.3,0.5-7.9,0.7c-6.1,0.5-12.2,1.1-18.4,1.6
			c-15.8,1.4-31.7,2.8-47.5,4.3c-10,0.9-19.9,1.8-29.9,2.7c-0.4,0-0.5,0.6-0.1,0.7c12.7,2.5,25.5,5.1,38.2,7.6
			C99.8,167.1,101.6,167.5,103.4,167.9c0.5,0.1,0.7-0.6,0.2-0.7c-12.7-2.5-25.5-5.1-38.2-7.6c-1.8-0.4-3.6-0.7-5.4-1.1
			c0,0.2-0.1,0.5-0.1,0.7c20.3-1.8,40.6-3.6,61-5.5c11.8-1.1,23.5-2.1,35.3-3.2c2.3-0.2,4.9-0.7,7.2-0.6c0.9,0,2.6,0.6,3.8,0.8
			c3.3,0.8,6.6,1.6,10,2.3c3.9,0.9,7.5,2.4,11.3,4c3.1,1.2,6.2,2.5,9.4,3.7c1.2,0.5,2.3,0.8,3.2,1.5c5,3.6,9.9,7.4,14.9,11.2
			c1.2,0.9,3.6,2.1,4.5,3.3c-0.4-0.6-0.1-0.3-0.5,0.4c-0.4,0.6-0.6,1.3-0.8,2c-0.5,1.2-0.9,2.9-1.7,4c0,0-0.5,0.4-0.8,0.6
			c-0.9,0.6-1.8,1.1-2.8,1.7c-2.8,1.8-5.7,3.6-8.5,5.3c-2.8,1.8-5.6,3.5-8.4,5.3c-0.8,0.5-1.6,1-2.4,1.5c-0.3,0.2-1.2,0.5-0.7,0.5
			c-0.5,0-1.3-0.4-1.8-0.6c-1.5-0.5-3-1-4.4-1.5c-5-1.7-9.9-3.4-14.9-5.1c-22.5-7.7-44.9-15.5-67.4-23.2c-0.5-0.2-1-0.3-1.5-0.5
			C103.1,167,102.9,167.7,103.4,167.9z"/>
	</g>
</g>
<g class='animatedPoly poly20'>
	<linearGradient id="SVGID_20_" gradientUnits="userSpaceOnUse" x1="109.8477" y1="116.2184" x2="63.4559" y2="170.8576">
		<stop  offset="0" style="stop-color:#512DA8"/>
		<stop  offset="1" style="stop-color:#000000"/>
	</linearGradient>
	<polygon class="st20" points="66.2,71.1 30.8,153 59.9,158.8 163.5,149.5 66.9,70.8 	"/>
	<g>
		<path d="M65.9,70.9c-4,9.2-8,18.4-12,27.6c-6.4,14.7-12.7,29.4-19.1,44.1c-1.5,3.4-2.9,6.8-4.4,10.2c-0.1,0.2,0,0.5,0.2,0.6
			c9.4,1.9,18.7,3.7,28.1,5.6c1.2,0.2,2.2,0.1,3.5,0c3.3-0.3,6.7-0.6,10-0.9c23.7-2.1,47.4-4.2,71.1-6.4c6.7-0.6,13.4-1.2,20.2-1.8
			c0.3,0,0.5-0.4,0.3-0.6c-10.9-8.9-21.8-17.7-32.7-26.6C113.7,108.5,96.4,94.3,79,80.2c-4-3.2-7.9-6.5-11.9-9.7
			c-0.1-0.1-0.3-0.1-0.5-0.1c-0.2,0.1-0.4,0.2-0.6,0.3c-0.4,0.2,0,0.9,0.4,0.6c0.5-0.2,0-0.6,0.7,0.1c0.6,0.5,1.2,1,1.8,1.5
			c2.3,1.9,4.6,3.7,6.9,5.6c7.7,6.3,15.4,12.5,23.1,18.8c17.4,14.2,34.9,28.4,52.3,42.6c4,3.3,8,6.5,12,9.8c0.1-0.2,0.2-0.4,0.3-0.6
			c-13,1.2-26,2.3-39,3.5c-19,1.7-38,3.4-57,5.1c-3.3,0.3-6.5,0.9-9.5,0.3c-8.7-1.7-17.4-3.5-26.1-5.2c-0.3-0.1-0.6-0.2-1-0.2
			c0.6,0.1,0,0.8,0.3,0.4c0.3-0.5,0.5-1.1,0.7-1.7c1.1-2.5,2.2-5,3.3-7.5c3.7-8.6,7.5-17.2,11.2-25.8c6.6-15.3,13.2-30.5,19.8-45.8
			c0.1-0.3,0.2-0.6,0.4-0.8C66.7,70.9,66.1,70.5,65.9,70.9z"/>
	</g>
</g>
<g class='animatedPoly poly21'>
	<linearGradient id="SVGID_21_" gradientUnits="userSpaceOnUse" x1="9.0262" y1="55.3273" x2="113.2974" y2="111.3731">
		<stop  offset="0" style="stop-color:#283593"/>
		<stop  offset="1" style="stop-color:#000000"/>
	</linearGradient>
	<polygon class="st21" points="66.2,71.1 66.5,70.5 52.5,29.5 4.5,83.5 6.1,102.9 	"/>
	<g>
		<path d="M66.6,71.3c0.5-1.3-0.2-2.4-0.6-3.6c-1.1-3.2-2.2-6.3-3.2-9.5c-2.6-7.8-5.3-15.5-7.9-23.3c-0.6-1.8-1.3-3.7-1.9-5.5
			c-0.1-0.3-0.4-0.4-0.6-0.2c-8.1,9.1-16.1,18.1-24.2,27.2c-5.5,6.1-10.9,12.3-16.4,18.4C9.9,76.9,8,79,6.2,81
			c-0.5,0.6-1.7,1.5-2,2.3c-0.3,0.7,0.1,1.9,0.1,2.6c0.2,2.2,0.4,4.4,0.5,6.6c0.3,3.5,0.6,7,0.8,10.5c0,0.3,0.3,0.5,0.6,0.3
			C23.8,94,41.4,84.7,59,75.4c2.5-1.3,4.9-2.6,7.4-3.9c0.4-0.2,0-0.9-0.4-0.6c-17.6,9.3-35.2,18.6-52.7,27.9
			c-2.5,1.3-4.9,2.6-7.4,3.9c0.2,0.1,0.4,0.2,0.6,0.3c-0.5-6.3-1.4-12.6-1.5-19c0-0.8-0.3,0.1,0.1-0.5c0.3-0.5,0.8-0.9,1.2-1.4
			c1.6-1.8,3.2-3.6,4.8-5.4C21.9,64.5,32.8,52.3,43.7,40c3-3.4,6.1-6.8,9.1-10.3c-0.2-0.1-0.4-0.1-0.6-0.2
			c4.1,12.1,8.3,24.2,12.4,36.3c0.5,1.4,1.8,4.1,1.4,5.1C65.7,71.4,66.4,71.7,66.6,71.3z"/>
	</g>
</g>
<g class='animatedPoly'>
	<polygon points="66.2,71.1 66.9,70.8 66.5,70.5 	"/>
	<g>
		<path d="M66.4,71.4c0.2-0.1,0.4-0.2,0.6-0.3c0.2-0.1,0.3-0.4,0.1-0.6c-0.1-0.1-0.2-0.2-0.4-0.3c-0.2-0.1-0.5-0.2-0.6,0.1
			c-0.1,0.2-0.2,0.4-0.3,0.6c-0.2,0.4,0.5,0.8,0.6,0.4c0.1-0.2,0.2-0.4,0.3-0.6c-0.2,0-0.4,0.1-0.6,0.1c0.1,0.1,0.2,0.2,0.4,0.3
			c0-0.2,0.1-0.4,0.1-0.6c-0.2,0.1-0.4,0.2-0.6,0.3C65.6,71,66,71.7,66.4,71.4z"/>
	</g>
</g>
<g>
	<polygon points="66.9,70.8 67.2,70.6 66.5,70.5 	"/>
	<g>
		<path d="M67,71.1c0.1-0.1,0.2-0.1,0.4-0.2c0.4-0.2,0.1-0.7-0.2-0.7c-0.2,0-0.5-0.1-0.7-0.1c-0.3,0-0.5,0.4-0.3,0.6
			c0.1,0.1,0.2,0.2,0.4,0.3c0.4,0.3,0.9-0.2,0.5-0.5c-0.1-0.1-0.2-0.2-0.4-0.3c-0.1,0.2-0.2,0.4-0.3,0.6c0.2,0,0.5,0.1,0.7,0.1
			c-0.1-0.2-0.1-0.5-0.2-0.7c-0.1,0.1-0.2,0.1-0.4,0.2C66.2,70.7,66.6,71.3,67,71.1z"/>
	</g>
</g>
<g class='animatedPoly poly22'>
	<linearGradient id="SVGID_22_" gradientUnits="userSpaceOnUse" x1="139.4774" y1="-13.2061" x2="60.0959" y2="83.7011">
		<stop  offset="0" style="stop-color:#E91E63"/>
		<stop  offset="1" style="stop-color:#000000"/>
	</linearGradient>
	<polygon class="st22" points="67.2,70.6 165.5,18.5 124.5,6.5 103.5,17.5 52.5,29.5 66.5,70.5 	"/>
	<g>
		<path d="M67.4,70.9c11.1-5.9,22.2-11.8,33.3-17.6c17.6-9.3,35.2-18.7,52.8-28c4.1-2.2,8.1-4.3,12.2-6.5c0.3-0.2,0.2-0.6-0.1-0.7
			c-7.8-2.3-15.6-4.6-23.4-6.8c-4.7-1.4-9.5-2.8-14.2-4.2c-1.7-0.5-3-1.3-4.6-0.5c-4.3,2.3-8.7,4.6-13,6.8c-2.3,1.2-5.1,3.1-7.3,3.7
			c-3,0.9-6.1,1.4-9.1,2.1c-5.3,1.3-10.7,2.5-16,3.8c-8.5,2-17,4-25.5,6c-0.2,0-0.3,0.3-0.3,0.5c4.1,11.9,8.1,23.9,12.2,35.8
			c0.6,1.7,1.2,3.5,1.8,5.2c0.1,0.2,0.2,0.3,0.4,0.3c0.2,0,0.5,0.1,0.7,0.1c0.5,0.1,0.5-0.7,0-0.8c-0.6-0.1-0.3,0.4-0.6-0.5
			c-0.2-0.8-0.6-1.6-0.8-2.4c-1-2.9-2-5.8-3-8.6c-2.5-7.2-4.9-14.4-7.4-21.5c-0.8-2.2-1.5-4.5-2.3-6.7c-0.1-0.3-0.3-0.7-0.3-1
			c0.1,0.5-0.5,0.5,0,0.4c0.3-0.1,0.5-0.1,0.8-0.2c5.2-0.7,10.6-2.5,15.7-3.7c7.4-1.7,14.8-3.5,22.2-5.2c3.9-0.9,8.3-1.5,12.1-2.8
			c1.5-0.6,3-1.6,4.4-2.3c3.3-1.8,6.7-3.5,10-5.3c1.3-0.7,2.7-1.4,4-2.1c0.7-0.4,1.7-1.2,2.5-1.3c-0.1,0-0.1,0,0.4,0.1
			c0.8,0.2,1.6,0.5,2.5,0.7c12.7,3.7,25.3,7.4,38,11.1c0-0.2-0.1-0.5-0.1-0.7c-11.1,5.9-22.2,11.8-33.3,17.6
			c-17.6,9.3-35.2,18.7-52.8,28c-4.1,2.2-8.1,4.3-12.2,6.5C66.6,70.5,67,71.1,67.4,70.9z"/>
	</g>
</g>
</svg>
