<?xml version="1.0" encoding="utf-8"?>
<!-- Generator: Adobe Illustrator 21.1.0, SVG Export Plug-In . SVG Version: 6.00 Build 0)  -->
<svg version="1.1" id="Layer_1" xmlns="http://www.w3.org/2000/svg" xmlns:xlink="http://www.w3.org/1999/xlink" x="0px" y="0px"
	 viewBox="0 0 770 535" style="enable-background:new 0 0 770 535;" xml:space="preserve">
<style type="text/css">
	.st0{fill:#66BB6A;}
	.st1{fill:#2E7D32;}
	.st2{fill:none;}
	.st3{fill:#C8E6C9;}
	.st4{fill:#FFFDE7;}
	.st5{fill:#E5E3CF;}
	.st6{fill:#E3C22F;}
	.st7{fill:#FFF59D;}
	.st8{fill:#FFF176;}
	.st9{fill:#EAE4CC;}
	.st10{fill:#FDD835;}
	.st11{fill:#FFEB3B;}
	.st12{fill:#F9A825;}



 .coin1{
	 	animation:  2s ease-out forwards;
		animation-delay: 1s;
		opacity: 0;
		opacity: 0;
	}

	.thing1{
		animation: fallingdown1 2s ease-out forwards;
		animation-delay: 0s;
		opacity: 0;
	}

	.thing2Rotate{
		animation: rotate2 2s ease-out forwards;
		animation-delay: .3s;
		opacity: 0;
	}
	.thing2{
		animation: fallingdown2 2s ease-out forwards;
		animation-delay: .3s;
		opacity: 0;
	}

	.thing3Rotate{
		animation: rotate3 2s ease-out forwards;
		animation-delay: .5s;
		opacity: 0;
	}
	.thing3{
		animation: fallingdown3 2s ease-out forwards;
		animation-delay: .5s;
		opacity: 0;
	}

	.thing4{
		animation: fallingdown4 2s ease-out forwards;
		animation-delay: .8s;
		opacity: 0;
	}
	.thing5Rotate{
		animation: rotate5 2s ease-out forwards;
		animation-delay: .5s;
		opacity: 0;
	}
	.thing5{
		animation: fallingdown5 2s ease-out forwards;
		animation-delay: 1.2s;
		opacity: 0;
	}



	.smaller{
	transform: scale(0.4);
	}





		@-webkit-keyframes stackDown1{
			0% {
				opacity: 1;
				transform: translate(560px, 0px);
			}
			100% {
			opacity: 1;
			transform: translate(560px, 415px);
			}
		}









	@-webkit-keyframes fallingdown1{
		0% {
			opacity: 1;
			transform: translate(335px, 0px);
		}
		100% {
			opacity: 1;
			transform: translate(335px, 485px);
		}
	}
	@-webkit-keyframes fallingdown2{
		0% {
			opacity: 1;
			transform: translate(235px, 0px);
		}
		100% {
			opacity: 1;
			transform: translate(235px, 485px);
		}
	}

	@-webkit-keyframes rotate2{
		50% {
			opacity: 1;
			transform: rotate(0deg);
		}
		100% {
			opacity: 1;
			transform: rotate(-25deg);
			transform-origin:20% 40%;
		}
	}


	@-webkit-keyframes fallingdown3{
		0% {
			opacity: 1;
			transform: translate(435px, 0px);
		}
		100% {
			opacity: 1;
			transform: translate(435px, 420px);
		}
	}
	@-webkit-keyframes rotate3{
		50% {
		opacity: 1;
		transform: rotate(0deg);
		}
		100% {
		opacity: 1;
		transform: rotate(25deg);
		transform-origin:20% 40%;
		}
	}


	@-webkit-keyframes fallingdown4{
		0% {
			opacity: 1;
			transform: translate(535px, 0px);
		}
		100% {
 		opacity: 1;
		transform: translate(535px, 485px);
		}
	}

	@-webkit-keyframes fallingdown5{
		0% {
		 opacity: 1;
		 transform: translate(300px, 0px);
		}
		100% {
			opacity: 1;
			transform: translate(300px, 400px);
		}
	}
	@-webkit-keyframes rotate5{
			0%{
				opacity: 1;
			}
		90% {
			transform: rotate(0deg);
		}
		100% {
			transform: rotate(-15deg);
			transform-origin:50% 50%;
			opacity: 1;
		}
	}

	</style>













		<g class='thing3Rotate'>
			<g class='thing3'>
				<g class='smaller'>
					<polygon class="st0" points="1,0 91,63 466,63 378,0 	"/>
					<polygon class="st1" points="91,70 1,9 1,0 91,63 466,63 466,70 	"/>
					<polygon class="st1" points="91,82 1,21 1,12 91,75 466,75 466,82 	"/>
					<polygon class="st1" points="91,95 1,34 1,25 91,88 466,88 466,95 	"/>
					<polygon class="st1" points="91,107 1,46 1,37 91,100 466,100 466,107 	"/>
					<polygon class="st1" points="90.2,119 1,59 1,49 90.2,112 466,112 466,119 	"/>
					<polygon class="st1" points="90.2,130 1,71 1,61 90.2,123.1 466,123.1 466,130 	"/>
					<polygon class="st2" points="271,70 328.4,70 328,63 271,63 	"/>
					<path class="st3" d="M66,5c0,0,0,12-19,17l23,17c0,0,53,7,71,19h260c0,0,9-18,22-17l-27-20c0,0-55-11-59-16H66z"/>
					<polygon class="st4" points="164,0 271,63 328,63 229.3,0 	"/>
					<rect x="271" y="63" class="st5" width="57" height="68"/>
					<line class="st0" x1="1" y1="9" x2="0" y2="62"/>
					<rect x="328" y="70" class="st0" width="138" height="5"/>
					<rect x="91" y="70" class="st0" width="180" height="5"/>
					<rect x="91" y="82" class="st0" width="180" height="6"/>
					<rect x="91" y="94" class="st0" width="180" height="6"/>
					<polygon class="st0" points="271,112 90,112 91,106 271,106 	"/>
					<polygon class="st0" points="271,124 90,124 90,117 271,118 	"/>
					<rect x="328" y="82" class="st0" width="138" height="6"/>
					<rect x="328" y="94" class="st0" width="138" height="6"/>
					<rect x="328" y="106" class="st0" width="138" height="6"/>
					<rect x="328" y="118" class="st0" width="138" height="6"/>
					<polygon class="st0" points="91,75 1,12 1,7.8 91,70 	"/>
					<polygon class="st0" points="91,88 1,25 1,20.8 91,82 	"/>
					<polygon class="st0" points="91,100 1,37 1,32.8 91,94 	"/>
					<polygon class="st0" points="90,112 1,49 1,44.8 91,106 	"/>
					<polygon class="st0" points="90,124 1,61 1,56.8 90,117 	"/>
				</g>
			</g>
		</g>

	<g class='thing1'>
		<g class='smaller'>
			<polygon class="st0" points="1,0 91,63 466,63 378,0 	"/>
			<polygon class="st1" points="91,70 1,9 1,0 91,63 466,63 466,70 	"/>
			<polygon class="st1" points="91,82 1,21 1,12 91,75 466,75 466,82 	"/>
			<polygon class="st1" points="91,95 1,34 1,25 91,88 466,88 466,95 	"/>
			<polygon class="st1" points="91,107 1,46 1,37 91,100 466,100 466,107 	"/>
			<polygon class="st1" points="90.2,119 1,59 1,49 90.2,112 466,112 466,119 	"/>
			<polygon class="st1" points="90.2,130 1,71 1,61 90.2,123.1 466,123.1 466,130 	"/>
			<polygon class="st2" points="271,70 328.4,70 328,63 271,63 	"/>
			<path class="st3" d="M66,5c0,0,0,12-19,17l23,17c0,0,53,7,71,19h260c0,0,9-18,22-17l-27-20c0,0-55-11-59-16H66z"/>
			<polygon class="st4" points="164,0 271,63 328,63 229.3,0 	"/>
			<rect x="271" y="63" class="st5" width="57" height="68"/>
			<line class="st0" x1="1" y1="9" x2="0" y2="62"/>
			<rect x="328" y="70" class="st0" width="138" height="5"/>
			<rect x="91" y="70" class="st0" width="180" height="5"/>
			<rect x="91" y="82" class="st0" width="180" height="6"/>
			<rect x="91" y="94" class="st0" width="180" height="6"/>
			<polygon class="st0" points="271,112 90,112 91,106 271,106 	"/>
			<polygon class="st0" points="271,124 90,124 90,117 271,118 	"/>
			<rect x="328" y="82" class="st0" width="138" height="6"/>
			<rect x="328" y="94" class="st0" width="138" height="6"/>
			<rect x="328" y="106" class="st0" width="138" height="6"/>
			<rect x="328" y="118" class="st0" width="138" height="6"/>
			<polygon class="st0" points="91,75 1,12 1,7.8 91,70 	"/>
			<polygon class="st0" points="91,88 1,25 1,20.8 91,82 	"/>
			<polygon class="st0" points="91,100 1,37 1,32.8 91,94 	"/>
			<polygon class="st0" points="90,112 1,49 1,44.8 91,106 	"/>
			<polygon class="st0" points="90,124 1,61 1,56.8 90,117 	"/>
		</g>
	</g>
	<g class='thing2Rotate'>
		<g class='thing2'>
			<g class='smaller'>
				<polygon class="st0" points="1,0 91,63 466,63 378,0 	"/>
				<polygon class="st1" points="91,70 1,9 1,0 91,63 466,63 466,70 	"/>
				<polygon class="st1" points="91,82 1,21 1,12 91,75 466,75 466,82 	"/>
				<polygon class="st1" points="91,95 1,34 1,25 91,88 466,88 466,95 	"/>
				<polygon class="st1" points="91,107 1,46 1,37 91,100 466,100 466,107 	"/>
				<polygon class="st1" points="90.2,119 1,59 1,49 90.2,112 466,112 466,119 	"/>
				<polygon class="st1" points="90.2,130 1,71 1,61 90.2,123.1 466,123.1 466,130 	"/>
				<polygon class="st2" points="271,70 328.4,70 328,63 271,63 	"/>
				<path class="st3" d="M66,5c0,0,0,12-19,17l23,17c0,0,53,7,71,19h260c0,0,9-18,22-17l-27-20c0,0-55-11-59-16H66z"/>
				<polygon class="st4" points="164,0 271,63 328,63 229.3,0 	"/>
				<rect x="271" y="63" class="st5" width="57" height="68"/>
				<line class="st0" x1="1" y1="9" x2="0" y2="62"/>
				<rect x="328" y="70" class="st0" width="138" height="5"/>
				<rect x="91" y="70" class="st0" width="180" height="5"/>
				<rect x="91" y="82" class="st0" width="180" height="6"/>
				<rect x="91" y="94" class="st0" width="180" height="6"/>
				<polygon class="st0" points="271,112 90,112 91,106 271,106 	"/>
				<polygon class="st0" points="271,124 90,124 90,117 271,118 	"/>
				<rect x="328" y="82" class="st0" width="138" height="6"/>
				<rect x="328" y="94" class="st0" width="138" height="6"/>
				<rect x="328" y="106" class="st0" width="138" height="6"/>
				<rect x="328" y="118" class="st0" width="138" height="6"/>
				<polygon class="st0" points="91,75 1,12 1,7.8 91,70 	"/>
				<polygon class="st0" points="91,88 1,25 1,20.8 91,82 	"/>
				<polygon class="st0" points="91,100 1,37 1,32.8 91,94 	"/>
				<polygon class="st0" points="90,112 1,49 1,44.8 91,106 	"/>
				<polygon class="st0" points="90,124 1,61 1,56.8 90,117 	"/>
			</g>
		</g>
	</g>

	<g class='thing4'>
		<g class='smaller'>
			<polygon class="st0" points="1,0 91,63 466,63 378,0 	"/>
			<polygon class="st1" points="91,70 1,9 1,0 91,63 466,63 466,70 	"/>
			<polygon class="st1" points="91,82 1,21 1,12 91,75 466,75 466,82 	"/>
			<polygon class="st1" points="91,95 1,34 1,25 91,88 466,88 466,95 	"/>
			<polygon class="st1" points="91,107 1,46 1,37 91,100 466,100 466,107 	"/>
			<polygon class="st1" points="90.2,119 1,59 1,49 90.2,112 466,112 466,119 	"/>
			<polygon class="st1" points="90.2,130 1,71 1,61 90.2,123.1 466,123.1 466,130 	"/>
			<polygon class="st2" points="271,70 328.4,70 328,63 271,63 	"/>
			<path class="st3" d="M66,5c0,0,0,12-19,17l23,17c0,0,53,7,71,19h260c0,0,9-18,22-17l-27-20c0,0-55-11-59-16H66z"/>
			<polygon class="st4" points="164,0 271,63 328,63 229.3,0 	"/>
			<rect x="271" y="63" class="st5" width="57" height="68"/>
			<line class="st0" x1="1" y1="9" x2="0" y2="62"/>
			<rect x="328" y="70" class="st0" width="138" height="5"/>
			<rect x="91" y="70" class="st0" width="180" height="5"/>
			<rect x="91" y="82" class="st0" width="180" height="6"/>
			<rect x="91" y="94" class="st0" width="180" height="6"/>
			<polygon class="st0" points="271,112 90,112 91,106 271,106 	"/>
			<polygon class="st0" points="271,124 90,124 90,117 271,118 	"/>
			<rect x="328" y="82" class="st0" width="138" height="6"/>
			<rect x="328" y="94" class="st0" width="138" height="6"/>
			<rect x="328" y="106" class="st0" width="138" height="6"/>
			<rect x="328" y="118" class="st0" width="138" height="6"/>
			<polygon class="st0" points="91,75 1,12 1,7.8 91,70 	"/>
			<polygon class="st0" points="91,88 1,25 1,20.8 91,82 	"/>
			<polygon class="st0" points="91,100 1,37 1,32.8 91,94 	"/>
			<polygon class="st0" points="90,112 1,49 1,44.8 91,106 	"/>
			<polygon class="st0" points="90,124 1,61 1,56.8 90,117 	"/>
		</g>
	</g>

	<g class='thing5Rotate'>
		<g class='thing5'>
			<g class='smaller'>
				<polygon class="st0" points="1,0 91,63 466,63 378,0 	"/>
				<polygon class="st1" points="91,70 1,9 1,0 91,63 466,63 466,70 	"/>
				<polygon class="st1" points="91,82 1,21 1,12 91,75 466,75 466,82 	"/>
				<polygon class="st1" points="91,95 1,34 1,25 91,88 466,88 466,95 	"/>
				<polygon class="st1" points="91,107 1,46 1,37 91,100 466,100 466,107 	"/>
				<polygon class="st1" points="90.2,119 1,59 1,49 90.2,112 466,112 466,119 	"/>
				<polygon class="st1" points="90.2,130 1,71 1,61 90.2,123.1 466,123.1 466,130 	"/>
				<polygon class="st2" points="271,70 328.4,70 328,63 271,63 	"/>
				<path class="st3" d="M66,5c0,0,0,12-19,17l23,17c0,0,53,7,71,19h260c0,0,9-18,22-17l-27-20c0,0-55-11-59-16H66z"/>
				<polygon class="st4" points="164,0 271,63 328,63 229.3,0 	"/>
				<rect x="271" y="63" class="st5" width="57" height="68"/>
				<line class="st0" x1="1" y1="9" x2="0" y2="62"/>
				<rect x="328" y="70" class="st0" width="138" height="5"/>
				<rect x="91" y="70" class="st0" width="180" height="5"/>
				<rect x="91" y="82" class="st0" width="180" height="6"/>
				<rect x="91" y="94" class="st0" width="180" height="6"/>
				<polygon class="st0" points="271,112 90,112 91,106 271,106 	"/>
				<polygon class="st0" points="271,124 90,124 90,117 271,118 	"/>
				<rect x="328" y="82" class="st0" width="138" height="6"/>
				<rect x="328" y="94" class="st0" width="138" height="6"/>
				<rect x="328" y="106" class="st0" width="138" height="6"/>
				<rect x="328" y="118" class="st0" width="138" height="6"/>
				<polygon class="st0" points="91,75 1,12 1,7.8 91,70 	"/>
				<polygon class="st0" points="91,88 1,25 1,20.8 91,82 	"/>
				<polygon class="st0" points="91,100 1,37 1,32.8 91,94 	"/>
				<polygon class="st0" points="90,112 1,49 1,44.8 91,106 	"/>
				<polygon class="st0" points="90,124 1,61 1,56.8 90,117 	"/>
			</g>
		</g>
	</g>



	<g class='coin1'>
		<g class='smaller'>
			<path class="st6" d="M187.2,143.8l-82.7,36.5c-5.4,2.4-11.5,2.4-16.9,0L3.8,142.8C3,142.4,3,142.1,3,143l0,48.4
				c0,0.4,0.2,0.8,0.5,1c105.4,79.1,179.5,5.9,185.1,0c0.2-0.2,0.4-0.6,0.4-0.9V145C189,144,188.1,143.4,187.2,143.8z M6,192
				c83.2,54.2,143.7,26.8,167.7,10.8c3.8-2.7,7.6-5.6,11.3-8.8c0,0-3.9,3.9-11.3,8.8C89.4,262.5,6,192,6,192z M185,181.8
				c0,0.1-0.1,0.2-0.1,0.3c0,0,0.1,0,0.1,0c0,0,0,0,0,0c-85,78.1-174.9,3.4-178.8,0.1c0,0,0-0.1,0,0C6.1,182,6,181.9,6,181.8v-18
				c0-0.3,0.4-0.5,0.6-0.3c8,5.2,90.5,56.4,177.7,0c0.3-0.2,0.6,0,0.6,0.3V181.8z"/>
			<path class="st7" d="M184.4,163.4c-87.2,56.4-169.8,5.2-177.7,0c-0.3-0.2-0.6,0-0.6,0.3v18c0,0.1,0.1,0.2,0.2,0.3c0,0,0,0,0,0
				c105.3,45.7,175.4,2.2,178.7,0c0.1-0.1,0.1-0.2,0.1-0.3v-18C185,163.4,184.6,163.2,184.4,163.4z"/>
			<path class="st8" d="M6.2,182.1C6.2,182.1,6.2,182.1,6.2,182.1C6.1,182.1,6.1,182.1,6.2,182.1c3.9,3.4,93.7,78.1,178.8,0
				c0,0,0,0,0,0c0,0,0,0-0.1,0C181.5,184.2,111.5,227.8,6.2,182.1z"/>
			<path class="st4" d="M6,192c0,0,83.4,70.5,167.7,10.8C149.7,218.8,89.2,246.2,6,192z"/>
			<path class="st9" d="M173.7,202.8c7.4-4.9,11.3-8.8,11.3-8.8C181.2,197.2,177.5,200.1,173.7,202.8z"/>
			<path class="st6" d="M187.2,96.8l-82.7,36.5c-5.4,2.4-11.5,2.4-16.9,0L3.8,95.8C3,95.4,2,96.1,2,97L3,144.4c0,0.4,0.2,0.8,0.5,1
				c105.4,79.1,179.5,5.9,185.1,0c0.2-0.2,0.4-0.6,0.4-0.9L188,97C188,96.1,188.1,96.4,187.2,96.8z M6,145
				c83.2,54.2,143.7,26.8,167.7,10.8c3.8-2.7,7.6-5.6,11.3-8.8c0,0-3.9,3.9-11.3,8.8C89.4,215.5,6,145,6,145z M185,134.8
				c0,0.1-0.1,0.2-0.1,0.3c0,0,0.1,0,0.1,0c0,0,0,0,0,0c-85,78.1-174.9,3.4-178.8,0.1c0,0,0-0.1,0,0C6.1,135,6,134.9,6,134.8v-18
				c0-0.3,0.4-0.5,0.6-0.3c8,5.2,90.5,56.4,177.7,0c0.3-0.2,0.6,0,0.6,0.3V134.8z"/>
			<path class="st7" d="M184.4,116.4c-87.2,56.4-169.8,5.2-177.7,0c-0.3-0.2-0.6,0-0.6,0.3v18c0,0.1,0.1,0.2,0.2,0.3c0,0,0,0,0,0
				c105.3,45.7,175.4,2.2,178.7,0c0.1-0.1,0.1-0.2,0.1-0.3v-18C185,116.4,184.6,116.2,184.4,116.4z"/>
			<path class="st8" d="M6.2,135.1C6.2,135.1,6.2,135.1,6.2,135.1C6.1,135.1,6.1,135.1,6.2,135.1c3.9,3.4,93.7,78.1,178.8,0
				c0,0,0,0,0,0c0,0,0,0-0.1,0C181.5,137.2,111.5,180.8,6.2,135.1z"/>
			<path class="st4" d="M6,145c0,0,83.4,70.5,167.7,10.8C149.7,171.8,89.2,199.2,6,145z"/>
			<path class="st9" d="M173.7,155.8c7.4-4.9,11.3-8.8,11.3-8.8C181.2,150.2,177.5,153.1,173.7,155.8z"/>
			<path class="st6" d="M186.2,51.8l-82.7,36.5c-5.4,2.4-11.5,2.4-16.9,0L2.8,50.8C2,50.4,1,51.1,1,52L2,99.4c0,0.4,0.2,0.8,0.5,1
				c105.4,79.1,179.5,5.9,185.1,0c0.2-0.2,0.4-0.6,0.4-0.9V53C188,52,187.1,51.4,186.2,51.8z M5,100c83.2,54.2,143.7,26.8,167.7,10.8
				c3.8-2.7,7.6-5.6,11.3-8.8c0,0-3.9,3.9-11.3,8.8C88.4,170.5,5,100,5,100z M184,89.8c0,0.1-0.1,0.2-0.1,0.3c0,0,0.1,0,0.1,0
				c0,0,0,0,0,0c-85,78.1-174.9,3.4-178.8,0.1c0,0,0-0.1,0,0C5.1,90,5,89.9,5,89.8v-18c0-0.3,0.4-0.5,0.6-0.3c8,5.2,90.5,56.4,177.7,0
				c0.3-0.2,0.6,0,0.6,0.3V89.8z"/>
			<path class="st7" d="M183.4,71.4c-87.2,56.4-169.8,5.2-177.7,0c-0.3-0.2-0.6,0-0.6,0.3v18c0,0.1,0.1,0.2,0.2,0.3c0,0,0,0,0,0
				c105.3,45.7,175.4,2.2,178.7,0c0.1-0.1,0.1-0.2,0.1-0.3v-18C184,71.4,183.6,71.2,183.4,71.4z"/>
			<path class="st8" d="M5.2,90.1C5.2,90.1,5.2,90.1,5.2,90.1C5.1,90.1,5.1,90.1,5.2,90.1c3.9,3.4,93.7,78.1,178.8,0c0,0,0,0,0,0
				c0,0,0,0-0.1,0C180.5,92.2,110.5,135.8,5.2,90.1z"/>
			<path class="st4" d="M5,100c0,0,83.4,70.5,167.7,10.8C148.7,126.8,88.2,154.2,5,100z"/>
			<path class="st9" d="M172.7,110.8c7.4-4.9,11.3-8.8,11.3-8.8C180.2,105.2,176.5,108.1,172.7,110.8z"/>
			<ellipse class="st10" cx="94.5" cy="47.5" rx="93.5" ry="42.5"/>
			<ellipse class="st11" cx="97" cy="45" rx="73" ry="32"/>
			<path class="st12" d="M111.4,26.4c0,0-3-7.4-13.9-3.6c-1,0.3-2.1-0.1-2.5-1.1l-2-4.4c-0.5-1-1.7-1.5-2.7-1l-1.8,0.9
				c-1,0.5-1.4,1.7-1,2.7l1.7,3.6c0.5,1,0.1,2.1-0.8,2.6l0,0c-1,0.6-2.3,0.1-2.8-1l-1.4-3.4c-0.5-1.1-1.7-1.5-2.8-1l-1.3,0.7
				c-1,0.5-1.3,1.7-0.9,2.6l1.8,3.7c0.5,1,0.1,2.2-0.9,2.7l-6.2,3.2c-1,0.5-1.4,1.7-0.9,2.7l0.8,1.5c0.5,0.9,1.6,1.3,2.6,0.9
				c1.8-0.8,4.6-1.6,5.5,0.2l10,21.8c0,0,1,2.1-2.6,3.5c-1,0.4-1.5,1.4-1.3,2.4l0.6,2.5c0.3,1.2,1.7,1.9,2.8,1.3l5.7-2.6
				c1-0.5,2.2-0.1,2.6,0.9l2.2,4.3c0.5,0.9,1.6,1.4,2.6,0.9l1.3-0.6c1-0.4,1.5-1.7,1-2.7l-1.9-4.3c-0.5-1,0-2.2,1-2.7l0.2-0.1
				c1-0.4,2.1,0,2.6,0.9l2.1,4.2c0.5,1,1.7,1.4,2.7,0.9l1.2-0.6c1-0.5,1.4-1.6,0.9-2.6l-2-4.5c-0.4-1-0.1-2.1,0.8-2.6
				c3.7-2.1,12.1-8,7.9-17.3c0,0-2.1-6.1-8-6.5c-1.3-0.1-2.1-1.3-1.8-2.6C113,31.3,113.1,28.8,111.4,26.4z M112.3,46.9
				c2.1,4.9-5.6,9-9.3,10.6c-1,0.5-2.2,0-2.6-1l-3.3-7.2c-0.5-1,0-2.2,1-2.7C101.9,45.1,110.2,42.1,112.3,46.9z M103.3,32.9
				c1.5,4.4-4.4,7.8-7.5,9.2c-1,0.5-2.2,0-2.7-1l-2.7-6.3c-0.4-1,0-2.2,1-2.6C94.8,30.7,101.8,28.4,103.3,32.9z"/>
		</g>
	</g>


	</svg>
