<?xml version="1.0" encoding="utf-8"?>
<!-- Generator: Adobe Illustrator 21.0.2, SVG Export Plug-In . SVG Version: 6.00 Build 0)  -->
<svg version="1.1" id="Layer_1" xmlns="http://www.w3.org/2000/svg" xmlns:xlink="http://www.w3.org/1999/xlink" x="0px" y="0px"
	 viewBox="0 0 746 640" style="enable-background:new 0 0 746 640;" xml:space="preserve">
<style type="text/css">
	.st0{fill:#A6DDDA;}
	.st1{fill:#D9D9D9;}
	.st2{fill:#0C2043;}
	.st3{fill:#414040;}
	.st4{fill:#2E2D2D;}
	.st5{fill:#7FFF57;}
	.st6{fill:#FEF300;stroke:#FFFFFF;stroke-miterlimit:10;}
	.st7{fill:#AB292F;}
	.st8{fill:#002D4B;}
	.st9{font-family:'Dosis-Regular';}
	.st10{font-size:5.25px;}
	.st11{fill:#00FDFD;}
	.st12{fill:url(#SVGID_1_);}
	.st13{fill:url(#SVGID_2_);}
	.st14{fill:#005B97;}
	.st15{fill:#18FFFF;}
	.st16{fill:#13CCCC;}
	.st17{fill:url(#SVGID_3_);stroke:#18FFFF;stroke-width:9;stroke-miterlimit:10;}
	.st18{fill:#4C8CB6;}
</style>
<g>
	<path d="M575.2,236.3c0,0,6.9-2.4,21,0c0,0-0.3-2.3-2.3-2.6h-16.8c0,0-2,0.2-2.3,2.6H575.2z"/>
	<path d="M575,283.2c0,0,10,1.3,21.2,0c0,0-0.2,1.7-2.2,2.3h-16.4C577.6,285.5,575,285.4,575,283.2z"/>
	<path class="st0" d="M591.6,235.7l-5.9,24.4H575l-0.1-23.7C574.9,236.3,583.1,234.1,591.6,235.7z"/>
	<path class="st1" d="M591.4,235.7l-5.9,24.3h10.7l0.1-23.7C596.3,236.3,591.4,235.4,591.4,235.7z"/>
	<path class="st0" d="M585.4,260l-6.1,23.6c0,0,8.2,1,16.9-0.2V260H585.4z"/>
	<path class="st1" d="M574.9,260v23.1c0,0,0.9,0.3,4.5,0.6l6-23.7H574.9z"/>
</g>
<g>
	<path d="M509.2,178.3c0,0,6.9-2.4,21,0c0,0-0.3-2.3-2.3-2.6h-16.8c0,0-2,0.2-2.3,2.6H509.2z"/>
	<path d="M509,225.2c0,0,10,1.3,21.2,0c0,0-0.2,1.7-2.2,2.3h-16.4C511.6,227.5,509,227.4,509,225.2z"/>
	<path class="st2" d="M525.6,177.7l-5.9,24.4H509l-0.1-23.7C508.9,178.3,517.1,176.1,525.6,177.7z"/>
	<path class="st1" d="M525.4,177.7l-5.9,24.3h10.7l0.1-23.7C530.3,178.3,525.4,177.4,525.4,177.7z"/>
	<path class="st2" d="M519.4,202l-6.1,23.6c0,0,8.2,1,16.9-0.2V202H519.4z"/>
	<path class="st1" d="M508.9,202v23.1c0,0,0.9,0.3,4.5,0.6l6-23.7H508.9z"/>
</g>
<g>
	<path class="st3" d="M536.9,224.3v56.4c0,0-1.1,1.8,12.7,0.9l0.5-58.5C550.1,223.1,538.1,223.1,536.9,224.3z"/>
	<path class="st4" d="M550.1,223.1l-1.2,58.8c0,0,13.4,0.1,13.3-0.5c-0.1-0.7-0.1-57.1-0.1-57.1S551.3,220.7,550.1,223.1z"/>
	<path d="M537.1,224.7c0,0,8.3-2.9,25.2,0c0,0-0.4-2.7-2.7-3.2h-20.1c0,0-2.4,0.3-2.7,3.2H537.1z"/>
	<path d="M536.8,280.9c0,0,12.1,1.5,25.4,0c0,0-0.2,2.1-2.6,2.8H540C540,283.7,536.9,283.5,536.8,280.9z"/>
	<path class="st5" d="M543.7,241.1l4-1.2l2.6,1.2c0,0,5.3,2.6,0,25.1c0,0,3.4-21.5-2.6-23.9C547.7,242.3,546.5,241.1,543.7,241.1z"
		/>
	<path class="st5" d="M543.7,241.1l5.2-2.4l1.4,2.4c0,0,5.3,2.6,0,25.1c0,0,3.4-21.5-2.6-23.9C547.7,242.3,546.5,241.1,543.7,241.1z
		"/>
	<path class="st5" d="M539.5,240.5l3.4-1l2.2,1c0,0,4.5,2.2,0,21.4c0,0,2.9-18.3-2.2-20.3C543,241.5,541.9,240.5,539.5,240.5z"/>
	<path class="st5" d="M549.1,240.5l3.4-1l2.2,1c0,0,4.5,2.2,0,21.4c0,0,2.9-18.3-2.2-20.3C552.6,241.5,551.5,240.5,549.1,240.5z"/>
</g>
<g>
	<path class="st3" d="M557.9,150.3v56.4c0,0-1.1,1.8,12.7,0.9l0.5-58.5C571.1,149.1,559.1,149.1,557.9,150.3z"/>
	<path class="st4" d="M571.1,149.1l-1.2,58.8c0,0,13.4,0.1,13.3-0.5c-0.1-0.7-0.1-57.1-0.1-57.1S572.3,146.7,571.1,149.1z"/>
	<path d="M558.1,150.7c0,0,8.3-2.9,25.2,0c0,0-0.4-2.7-2.7-3.2h-20.1c0,0-2.4,0.3-2.7,3.2H558.1z"/>
	<path d="M557.8,206.9c0,0,12.1,1.5,25.4,0c0,0-0.2,2.1-2.6,2.8H561C561,209.7,557.9,209.5,557.8,206.9z"/>
	<polygon class="st6" points="559.1,162.3 560.3,174.3 557.9,175.5 557.9,181.5 560.3,182.7 562.7,200.7 568.7,182.7 578.3,188.7 
		570.5,175.6 575.9,162.3 566.3,169.5 	"/>
</g>
<g>
	<polygon class="st7" points="468.7,215.2 475.4,262.7 498,262.7 504.7,215.2 	"/>
	<path class="st4" d="M504.5,216.6h-35.6c-0.8,0-1.5-0.7-1.5-1.5v-1.3c0-0.8,0.7-1.5,1.5-1.5h35.6c0.8,0,1.5,0.7,1.5,1.5v1.3
		C506,215.9,505.3,216.6,504.5,216.6z"/>
</g>
<g>
	<g>
		<path class="st8" d="M217,255.8c2.3,0,4.2,1.9,4.2,4.2V284c0,2.3-1.9,4.2-4.2,4.2H193c-2.3,0-4.2-1.9-4.2-4.2V260
			c0-2.3,1.9-4.2,4.2-4.2H217 M217,254.8H193c-2.9,0-5.2,2.3-5.2,5.2V284c0,2.9,2.3,5.2,5.2,5.2H217c2.9,0,5.2-2.3,5.2-5.2V260
			C222.3,257.1,219.9,254.8,217,254.8L217,254.8z"/>
	</g>
	<text transform="matrix(1 0 0 1 197.25 262.4004)" class="st9 st10">Deadline</text>
	<g>
		<path class="st8" d="M205.4,282.5L205.4,282.5c-4.7,0-8.6-3.9-8.6-8.6l0,0c0-4.7,3.9-8.6,8.6-8.6h0c4.7,0,8.6,3.9,8.6,8.6l0,0
			C214,278.6,210.1,282.5,205.4,282.5z"/>
	</g>
	<g>
		<polygon class="st11" points="200.5,272.8 205,277.3 211.8,266 205,275 		"/>
	</g>
</g>
<g>
	<g>
		<path class="st8" d="M201,178.8c2.3,0,4.2,1.9,4.2,4.2v24.1c0,2.3-1.9,4.2-4.2,4.2H177c-2.3,0-4.2-1.9-4.2-4.2v-24.1
			c0-2.3,1.9-4.2,4.2-4.2H201 M201,177.8H177c-2.9,0-5.2,2.3-5.2,5.2v24.1c0,2.9,2.3,5.2,5.2,5.2H201c2.9,0,5.2-2.3,5.2-5.2v-24.1
			C206.3,180.1,203.9,177.8,201,177.8L201,177.8z"/>
	</g>
	<text transform="matrix(1 0 0 1 177.25 185.4004)" class="st9 st10">New Feature</text>
	<g>
		<path class="st8" d="M189.4,205.5L189.4,205.5c-4.7,0-8.6-3.9-8.6-8.6v0c0-4.7,3.9-8.6,8.6-8.6h0c4.7,0,8.6,3.9,8.6,8.6v0
			C198,201.6,194.1,205.5,189.4,205.5z"/>
	</g>
	<g>
		<polygon class="st11" points="184.5,195.8 189,200.3 195.8,189 189,198 		"/>
	</g>
</g>
<g>
	<g>
		<path class="st8" d="M258,234.8c2.3,0,4.2,1.9,4.2,4.2V263c0,2.3-1.9,4.2-4.2,4.2H234c-2.3,0-4.2-1.9-4.2-4.2v-24.1
			c0-2.3,1.9-4.2,4.2-4.2H258 M258,233.8H234c-2.9,0-5.2,2.3-5.2,5.2V263c0,2.9,2.3,5.2,5.2,5.2H258c2.9,0,5.2-2.3,5.2-5.2v-24.1
			C263.3,236.1,260.9,233.8,258,233.8L258,233.8z"/>
	</g>
	<text transform="matrix(1 0 0 1 238.25 241.4004)" class="st9 st10">Bug Fix</text>
	<g>
		<path class="st8" d="M246.4,261.5L246.4,261.5c-4.7,0-8.6-3.9-8.6-8.6v0c0-4.7,3.9-8.6,8.6-8.6h0c4.7,0,8.6,3.9,8.6,8.6v0
			C255,257.6,251.1,261.5,246.4,261.5z"/>
	</g>
	<g>
		<polygon class="st11" points="241.5,251.8 246,256.3 252.8,245 246,254 		"/>
	</g>
</g>
<g>
	<g>
		<path class="st8" d="M176,268.8c2.3,0,4.2,1.9,4.2,4.2V297c0,2.3-1.9,4.2-4.2,4.2H152c-2.3,0-4.2-1.9-4.2-4.2V273
			c0-2.3,1.9-4.2,4.2-4.2H176 M176,267.8H152c-2.9,0-5.2,2.3-5.2,5.2V297c0,2.9,2.3,5.2,5.2,5.2H176c2.9,0,5.2-2.3,5.2-5.2V273
			C181.3,270.1,178.9,267.8,176,267.8L176,267.8z"/>
	</g>
	<text transform="matrix(1 0 0 1 150.25 275.4004)" class="st9 st10">Client Request</text>
	<g>
		<path class="st8" d="M164.4,295.5L164.4,295.5c-4.7,0-8.6-3.9-8.6-8.6l0,0c0-4.7,3.9-8.6,8.6-8.6h0c4.7,0,8.6,3.9,8.6,8.6l0,0
			C173,291.6,169.1,295.5,164.4,295.5z"/>
	</g>
	<g>
		<polygon class="st11" points="159.5,285.8 164,290.3 170.8,279 164,288 		"/>
	</g>
</g>
<g>
	<g>
		<path class="st8" d="M242,193.8c2.3,0,4.2,1.9,4.2,4.2v24.1c0,2.3-1.9,4.2-4.2,4.2H218c-2.3,0-4.2-1.9-4.2-4.2v-24.1
			c0-2.3,1.9-4.2,4.2-4.2H242 M242,192.8H218c-2.9,0-5.2,2.3-5.2,5.2v24.1c0,2.9,2.3,5.2,5.2,5.2H242c2.9,0,5.2-2.3,5.2-5.2v-24.1
			C247.3,195.1,244.9,192.8,242,192.8L242,192.8z"/>
	</g>
	<text transform="matrix(1 0 0 1 220.25 200.4004)" class="st9 st10">Illustration</text>
	<g>
		<path class="st8" d="M230.4,220.5L230.4,220.5c-4.7,0-8.6-3.9-8.6-8.6v0c0-4.7,3.9-8.6,8.6-8.6h0c4.7,0,8.6,3.9,8.6,8.6v0
			C239,216.6,235.1,220.5,230.4,220.5z"/>
	</g>
	<g>
		<polygon class="st11" points="225.5,210.8 230,215.3 236.8,204 230,213 		"/>
	</g>
</g>
<g>
	<linearGradient id="SVGID_1_" gradientUnits="userSpaceOnUse" x1="165.5" y1="626" x2="165.5" y2="350">
		<stop  offset="0" style="stop-color:#FFFFFF"/>
		<stop  offset="7.823644e-02" style="stop-color:#FBFCFD"/>
		<stop  offset="0.1593" style="stop-color:#EEF4F8"/>
		<stop  offset="0.2416" style="stop-color:#DAE7F0"/>
		<stop  offset="0.3248" style="stop-color:#BDD4E4"/>
		<stop  offset="0.4087" style="stop-color:#97BCD5"/>
		<stop  offset="0.4933" style="stop-color:#699FC2"/>
		<stop  offset="0.5766" style="stop-color:#347CAC"/>
		<stop  offset="0.6484" style="stop-color:#005B97"/>
	</linearGradient>
	<rect x="150" y="350" class="st12" width="31" height="276"/>
</g>
<g>
	<linearGradient id="SVGID_2_" gradientUnits="userSpaceOnUse" x1="555.5" y1="626" x2="555.5" y2="350">
		<stop  offset="0" style="stop-color:#FFFFFF"/>
		<stop  offset="7.888862e-02" style="stop-color:#FBFCFD"/>
		<stop  offset="0.1606" style="stop-color:#EEF4F8"/>
		<stop  offset="0.2436" style="stop-color:#DAE7F0"/>
		<stop  offset="0.3275" style="stop-color:#BDD4E4"/>
		<stop  offset="0.4121" style="stop-color:#97BCD5"/>
		<stop  offset="0.4974" style="stop-color:#699FC2"/>
		<stop  offset="0.5814" style="stop-color:#347CAC"/>
		<stop  offset="0.6538" style="stop-color:#005B97"/>
	</linearGradient>
	<rect x="540" y="350" class="st13" width="31" height="276"/>
</g>
<g>
	<path class="st8" d="M119.5,325h482c1.9,0,3.5,1.6,3.5,3.5v19c0,1.9-1.6,3.5-3.5,3.5h-482c-1.9,0-3.5-1.6-3.5-3.5v-19
		C116,326.6,117.6,325,119.5,325z"/>
</g>
<g>
	<rect x="181" y="351" class="st14" width="359" height="42"/>
</g>
<path class="st15" d="M390.5,325h-61c-3.6,0-6.5-2.9-6.5-6.5l0,0c0-3.6,2.9-6.5,6.5-6.5h61c3.6,0,6.5,2.9,6.5,6.5l0,0
	C397,322.1,394.1,325,390.5,325z"/>
<path class="st15" d="M331,312"/>
<path class="st15" d="M349,312"/>
<rect x="352" y="285" class="st16" width="16" height="27"/>
<linearGradient id="SVGID_3_" gradientUnits="userSpaceOnUse" x1="401.013" y1="308.8046" x2="320.987" y2="170.1954">
	<stop  offset="0" style="stop-color:#BBDEFB"/>
	<stop  offset="0.24" style="stop-color:#A2D2FA"/>
	<stop  offset="0.7459" style="stop-color:#64B5F7"/>
	<stop  offset="1" style="stop-color:#42A5F5"/>
</linearGradient>
<path class="st17" d="M440.5,285h-159c-3.6,0-6.5-2.9-6.5-6.5v-78c0-3.6,2.9-6.5,6.5-6.5h159c3.6,0,6.5,2.9,6.5,6.5v78
	C447,282.1,444.1,285,440.5,285z"/>
<g>
	<path class="st8" d="M344,380H203c-4.4,0-8-3.6-8-8l0,0c0-4.4,3.6-8,8-8h141c4.4,0,8,3.6,8,8l0,0C352,376.4,348.4,380,344,380z"/>
</g>
<g>
	<path class="st8" d="M520,380H379c-4.4,0-8-3.6-8-8l0,0c0-4.4,3.6-8,8-8h141c4.4,0,8,3.6,8,8l0,0C528,376.4,524.4,380,520,380z"/>
</g>
<circle class="st18" cx="275" cy="372" r="5"/>
<circle class="st18" cx="450" cy="372" r="5"/>
</svg>
