<?xml version="1.0" encoding="utf-8"?>
<!-- Generator: Adobe Illustrator 21.0.2, SVG Export Plug-In . SVG Version: 6.00 Build 0)  -->
<svg version="1.1" id="Layer_1" xmlns="http://www.w3.org/2000/svg" xmlns:xlink="http://www.w3.org/1999/xlink" x="0px" y="0px"
	 viewBox="0 0 415 1024" style="enable-background:new 0 0 415 1024;" xml:space="preserve">
<style type="text/css">
	.st0{fill:#FFFF00;}
	.st1{fill:#FFC400;}
	.st2{fill:#212121;}
	.st3{fill:#FF3D00;}
	.st4{fill:#FFFFFF;}
	.st5{fill:none;}
	.st6{fill:#FFFFFF;stroke:#000000;stroke-width:8;stroke-miterlimit:10;}
	.st7{fill:none;stroke:#000000;stroke-width:5;stroke-miterlimit:10;}
	.st8{fill:#FFFFFF;stroke:#FFFFFF;stroke-miterlimit:10;}
	.st9{fill:#FFCD94;}
	.st10{fill:#3F2104;}
	.st11{fill:#4F2A06;}
	.st12{fill:#69BBED;}
	.st13{fill:#2D2D2D;}
	.st14{opacity:0.2;}
	.st15{fill:#2F1903;}
	.st16{fill:#FFFFFF;stroke:#000000;stroke-miterlimit:10;}
	.st17{opacity:0.26;}

	.st2 {
	 -webkit-animation: faded 30s linear forwards;
	 -o-animation: faded 30s linear forwards;
	 -mox-animation: faded 30s linear forwards;
	 animation: faded 30s linear forwards infinite;
	}

	.dust1 { animation-delay: 3s}
	.dust2 { animation-delay: 6s}
	.dust3 { animation-delay: 9s}
	.dust4 { animation-delay: 12s}
	.dust5 { animation-delay: 15s}
	.dust6 { animation-delay: 18s}
	.dust7 { animation-delay: 21s}
	.dust8 { animation-delay: 24s}
	.dust9 { animation-delay: 27s}
	.dust10 { animation-delay: 30s}


	@-webkit-keyframes faded{
		0% {
			opacity: 1;
		}
		10% {
			opacity: 1;
		}
		15% {
			opacity: 0;
		}
		25% {
			opacity: 0;
		}
		35% {
		opacity: 1;
		}
		42%{
		opacity: 1;
		}
		57%{
		opacity: 0;
		}
		65%{
		opacity: 0;
		}
		74%{
		opacity: 1;
		}
		80%{
		opacity: 1;
		}
		100%{
		opacity: 0;
		}
	}


</style>
<path class="st0" d="M155.7,690.8L155.7,690.8c-4.8,0-8.8-3.9-8.8-8.8v-7.7c0-4.8,3.9-8.8,8.8-8.8h0c4.8,0,8.7,3.9,8.7,8.8v7.7
	C164.4,686.9,160.5,690.8,155.7,690.8z"/>
<path class="st0" d="M262.8,669.8L262.8,669.8c-4.8,0-8.8-3.9-8.8-8.8v-7.7c0-4.8,3.9-8.8,8.7-8.8h0c4.8,0,8.7,3.9,8.7,8.8v7.7
	C271.5,665.9,267.6,669.8,262.8,669.8z"/>
<path class="st1" d="M245,529.1L245,529.1c-5,0-9.1-4.1-9.1-9.1v-18.2c0-5,4.1-9.1,9.1-9.1h0c5,0,9.1,4.1,9.1,9.1V520
	C254.1,525,250,529.1,245,529.1z"/>
<path class="st1" d="M136.1,433.9L136.1,433.9c6,0,10.9,4.9,10.9,10.9v121.1c0,6-4.9,10.8-10.8,10.8h0c-6,0-10.8-4.9-10.8-10.8
	V444.8C125.3,438.8,130.1,433.9,136.1,433.9z"/>
<path class="st1" d="M281,542.1L281,542.1c-5,0-9.1-4.1-9.1-9.1V374.8c0-5,4.1-9.1,9.1-9.1h0c5,0,9.1,4.1,9.1,9.1V533
	C290,538,286,542.1,281,542.1z"/>
<path class="st1" d="M174,493.1L174,493.1c-5,0-9.1-4.1-9.1-9.1v-78.2c0-5,4.1-9.1,9.1-9.1h0c5,0,9.1,4.1,9.1,9.1V484
	C183.1,489,179,493.1,174,493.1z"/>
<path class="st1" d="M208,450.1L208,450.1c-5,0-9.1-4.1-9.1-9.1v-18.2c0-5,4.1-9.1,9.1-9.1h0c5,0,9.1,4.1,9.1,9.1V441
	C217.1,446,213,450.1,208,450.1z"/>
<path class="st1" d="M208,397L208,397c-5,0-9.1-4.1-9.1-9.1v-67.8c0-5,4.1-9.1,9.1-9.1h0c5,0,9.1,4.1,9.1,9.1v67.8
	C217.1,392.9,213,397,208,397z"/>
<ellipse class="st2 dust1" cx="46.5" cy="825" rx="6.5" ry="7"/>
<circle class="st2 dust2" cx="75" cy="880" r="13"/>
<circle class="st2 dust3" cx="328" cy="871" r="4"/>
<circle class="st2 dust4" cx="387" cy="825" r="7"/>
<circle class="st2 dust5" cx="342.5" cy="778.5" r="10.5"/>
<circle class="st2 dust6" cx="385" cy="720" r="5"/>
<circle class="st2 dust7" cx="342.5" cy="695.5" r="10.5"/>
<circle class="st2 dust8" cx="66.5" cy="733.5" r="8.5"/>
<circle class="st2 dust9" cx="19.5" cy="750.5" r="8.5"/>
<circle class="st2 dust10" cx="19.5" cy="693.5" r="2.5"/>
<rect x="107.8" class="st3" width="198.3" height="867"/>
<circle class="st3" cx="207.1" cy="867.2" r="99.4"/>
<path class="st1" d="M271.5,587.5v30.8c0,4.8-3.9,8.7-8.7,8.7h0c-4.8,0-8.7-3.9-8.7-8.7v-58.8c0-4.8-3.9-8.8-8.8-8.8h-0.7
	c-4.8,0-8.7,3.9-8.7,8.8v53.9c0,4.8-3.9,8.8-8.8,8.8h0c-4.8,0-8.7-3.9-8.7-8.8V475.5c0-4.8-3.9-8.8-8.8-8.8h-0.7
	c-4.8,0-8.8,3.9-8.8,8.8v83.3c0,4.8-3.9,8.7-8.7,8.7h0c-4.8,0-8.8-3.9-8.8-8.7v-34.3c0-4.8-3.9-8.8-8.7-8.8h-0.7
	c-4.8,0-8.8,3.9-8.8,8.8v107.1c0,4.8-3.9,8.8-8.7,8.8h0c-4.8,0-8.8-3.9-8.8-8.8v-16.1c0-4.8-3.9-8.8-8.7-8.8H134
	c-4.8,0-8.7,3.9-8.7,8.8v245c0,4.8,3.9,8.8,8.7,8.8h146.3c4.8,0,8.7-3.9,8.7-8.8v-273c0-4.8-3.9-8.8-8.7-8.8h0
	C275.5,578.8,271.5,582.7,271.5,587.5z"/>
<circle class="st1" cx="207.1" cy="867.2" r="81.9"/>
<path class="st0" d="M253.7,692.7v49.4c0,4.9-4,8.9-8.9,8.9h0c-4.9,0-8.9-4-8.9-8.9v-77.4c0-4.9-4-8.9-8.9-8.9h0
	c-4.9,0-8.9,4-8.9,8.9v98.4c0,4.9-4,8.9-8.9,8.9h0c-4.9,0-8.9-4-8.9-8.9V608.7c0-4.9-4-8.9-8.9-8.9h0c-4.9,0-8.9,4-8.9,8.9v119.4
	c0,4.9-4,8.9-8.9,8.9h0c-4.9,0-8.9-4-8.9-8.9v-7.4c0-4.9-4-8.9-8.9-8.9h0c-4.9,0-8.9,4-8.9,8.9v139.7c0,4.9,4,8.9,8.9,8.9h106.8
	c4.9,0,8.9-4,8.9-8.9V692.7c0-4.9-4-8.9-8.9-8.9h0C257.7,683.8,253.7,687.8,253.7,692.7z"/>
<circle class="st4" cx="209.3" cy="869.3" r="62.3"/>
<line class="st5" x1="139" y1="807" x2="280" y2="807"/>
<path class="st6" d="M139,807"/>
<path class="st6" d="M256,911"/>
<line class="st4" x1="160" y1="831.2" x2="160" y2="907.4"/>
<path class="st7" d="M251.5,910.5"/>
<path class="st7" d="M168.5,828.5"/>
<path class="st7" d="M250,828"/>
<path class="st7" d="M167.5,910.5"/>
<path class="st8" d="M209.5,801.5"/>
<g>
	<path class="st0" d="M209.3,807c-0.1,0-0.2,0-0.3,0v124.6c0.1,0,0.2,0,0.3,0c34.4,0,62.3-27.9,62.3-62.3S243.7,807,209.3,807z"/>
</g>
<path class="st8" d="M209.5,809"/>
<g>
	<path class="st0" d="M147,869.3c0,34.3,27.8,62.2,62,62.3V807C174.7,807.1,147,835,147,869.3z"/>
</g>
<g>
	<path class="st1" d="M153.2,870c0,30.9,25,55.9,55.8,56.1V814C178.2,814.1,153.2,839.1,153.2,870z"/>
</g>
<g>
	<path class="st3" d="M209.3,814c-0.1,0-0.1,0-0.2,0v112.1c0.1,0,0.1,0,0.2,0c31,0,56.1-25.1,56.1-56.1S240.2,814,209.3,814z"/>
</g>
<g>
	<g>
		<circle class="st9" cx="209.1" cy="860.7" r="27.5"/>
		<path class="st9" d="M181.5,861c0,0,11.6,38.1,24.7,37.9s3.7,0,3.7,0l-1.2-38.2L181.5,861z"/>
		<path class="st10" d="M181.5,862.6c0,0,13.3-30.4,26.6-21.8c0,0,15-13.8,28.4,22.1c0,0,3.9-30.6-8.5-37.3c0,0-6.6,1-0.9-2.9
			c0,0-0.9-0.9-3.8,1c0,0-2.8,0-1.9-1.9c0,0-4.8,1.9-2.9,2.8l-17.1-5.7c0,0,5.7,7.6,0.9,5.7l-12.4-6.7l6.7,10.5l-6.7-6.6l1,10.4
			l-3.8-3.8C187.2,828.4,177.7,852.1,181.5,862.6z"/>
		<path class="st11" d="M191,853.1c0,0,0.9-2.8,4.8-3.8c3.8-1,8.5,1.9,8.5,1.9s1.9,3.8-1.9,1.9s-6.6-1-6.6-1S190.1,855,191,853.1z"
			/>
		<path class="st11" d="M225.6,853.1c0,0-0.9-2.9-4.7-3.8s-8.6,1.8-8.6,1.8s-1.9,3.8,1.9,1.9c3.8-1.9,6.7-0.9,6.7-0.9
			S226.5,855.1,225.6,853.1z"/>
		<g>
			<path class="st4" d="M192.3,863c0.1,0,0.2-0.1,0.3-0.1c0,0,0.1,0,0.1,0c0.1,0,0.2-0.1,0.3-0.1c0.1,0,0.1,0,0.2,0
				c0.4-0.1,0.9-0.2,1.4-0.3c0,0,0.1,0,0.1,0c0.2,0,0.4-0.1,0.6-0.1c0,0,0.1,0,0.1,0c2.3-0.4,5.5-0.4,8.8,0.7
				c0.2-0.8,0.3-1.6,0.3-2.4c0-4.2-2.8-7.6-6.3-7.6s-6.3,3.4-6.3,7.6C192,861.4,192.1,862.2,192.3,863
				C192.3,863,192.3,863,192.3,863z"/>
			<path class="st12" d="M202.3,862.4c0.2-0.6,0.3-1.2,0.3-1.8c0-2.9-1.9-5.2-4.3-5.2s-4.3,2.3-4.3,5.2c0,0.7,0.1,1.3,0.3,1.9
				C196.2,862.1,199.2,861.7,202.3,862.4z"/>
			<path class="st13" d="M200.5,862.1c0.2-0.5,0.4-1,0.4-1.6c0-1.7-1.2-3.1-2.6-3.1s-2.6,1.4-2.6,3.1c0,0.6,0.1,1.1,0.4,1.6
				C197.4,862,198.9,862,200.5,862.1z"/>
			<ellipse class="st4" cx="199.3" cy="858" rx="0.9" ry="1"/>
		</g>
		<g>
			<path class="st4" d="M212.8,863c0.1,0,0.2-0.1,0.3-0.1c0,0,0.1,0,0.1,0c0.1,0,0.2-0.1,0.3-0.1c0.1,0,0.1,0,0.2,0
				c0.4-0.1,0.9-0.2,1.4-0.3c0,0,0.1,0,0.1,0c0.2,0,0.4-0.1,0.6-0.1c0,0,0.1,0,0.1,0c2.3-0.4,5.5-0.4,8.8,0.7
				c0.2-0.8,0.3-1.6,0.3-2.4c0-4.2-2.8-7.6-6.3-7.6s-6.3,3.4-6.3,7.6C212.5,861.4,212.6,862.2,212.8,863
				C212.8,863,212.8,863,212.8,863z"/>
			<path class="st12" d="M222.7,862.4c0.2-0.6,0.3-1.2,0.3-1.8c0-2.9-1.9-5.2-4.3-5.2s-4.3,2.3-4.3,5.2c0,0.7,0.1,1.3,0.3,1.9
				C216.7,862.1,219.6,861.7,222.7,862.4z"/>
			<path class="st13" d="M220.9,862.1c0.2-0.5,0.4-1,0.4-1.6c0-1.7-1.2-3.1-2.6-3.1s-2.6,1.4-2.6,3.1c0,0.6,0.1,1.1,0.4,1.6
				C217.8,862,219.3,862,220.9,862.1z"/>
			<ellipse class="st4" cx="219.8" cy="858" rx="0.9" ry="1"/>
		</g>
		<path class="st9" d="M200.4,890.7v10.5c0,0-0.6,2.9-2.4,2.9l-12,1.9v8.6H210v-23.8H200.4z"/>
		<path class="st9" d="M218.3,890.4l0.1,10.5c0,0,0.6,2.8,2.4,2.8l12,1.8l0,8.5l-23.9,0.2l-0.1-23.8L218.3,890.4z"/>
		<path class="st4" d="M208.2,913c0,0-12-6.1-11.1-10.9c0,0-17.6,0-16.7,6.7l0.4,6.2l28.3,7.1l0-9.1H208.2z"/>
		<path class="st4" d="M209.8,913.1c0,0,13.1-5.8,12.2-10.6c0,0,18.8,0.6,17.6,7.3l-0.5,4.3l-30.3,8.1l-0.1-9.1L209.8,913.1z"/>
		<path class="st14" d="M200.4,898c0,0,3.7,1.8,8.6,1.4L209,898c0,0-7.1,0.3-8.6-1.3V898z"/>
		<path class="st14" d="M218.3,896.7c0,0-2.3,1.3-9.3,1.3v1.3c0,0,7.7-0.2,9.3-1.3V896.7z"/>
		<g>
			<g>
				<path class="st11" d="M198.6,881.6c6.5,2.8,14.1,2.3,20.6,0.1c0.9-0.3,0.5-1.8-0.4-1.4c-6.1,2-13.4,2.7-19.4,0.1
					C198.5,880,197.7,881.3,198.6,881.6L198.6,881.6z"/>
			</g>
		</g>
		<path class="st15" d="M205,822c0,0,9,1,13,4c0,0-6.9,0.6-8.9-0.7C207,824,205,822,205,822"/>
		<path class="st15" d="M194,822c0,0,5,8,7,7s0,0,0,0l2-2C203,827,204,825,194,822"/>
		<path class="st15" d="M192,827c0,0,0,5,1,5s3-2,3-2S197,829,192,827"/>
	</g>
	<path class="st9" d="M236.5,860.6c0,0-10.9,38.4-23.8,38.4c-13,0.1-3.7,0-3.7,0l0.7-38.4L236.5,860.6z"/>
	<g>
		<circle class="st9" cx="209.1" cy="860.7" r="27.5"/>
		<path class="st9" d="M181.5,861c0,0,11.6,38.1,24.7,37.9s3.7,0,3.7,0l-1.2-38.2L181.5,861z"/>
		<path class="st11" d="M191,853.1c0,0,0.9-2.8,4.8-3.8c3.8-1,8.5,1.9,8.5,1.9s1.9,3.8-1.9,1.9s-6.6-1-6.6-1S190.1,855,191,853.1z"
			/>
		<path class="st11" d="M225.6,853.1c0,0-0.9-2.9-4.7-3.8s-8.6,1.8-8.6,1.8s-1.9,3.8,1.9,1.9c3.8-1.9,6.7-0.9,6.7-0.9
			S226.5,855.1,225.6,853.1z"/>
		<g>
			<path class="st4" d="M192.3,863c0.1,0,0.2-0.1,0.3-0.1c0,0,0.1,0,0.1,0c0.1,0,0.2-0.1,0.3-0.1c0.1,0,0.1,0,0.2,0
				c0.4-0.1,0.9-0.2,1.4-0.3c0,0,0.1,0,0.1,0c0.2,0,0.4-0.1,0.6-0.1c0,0,0.1,0,0.1,0c2.3-0.4,5.5-0.4,8.8,0.7
				c0.2-0.8,0.3-1.6,0.3-2.4c0-4.2-2.8-7.6-6.3-7.6s-6.3,3.4-6.3,7.6C192,861.4,192.1,862.2,192.3,863
				C192.3,863,192.3,863,192.3,863z"/>
			<path class="st12" d="M202.3,862.4c0.2-0.6,0.3-1.2,0.3-1.8c0-2.9-1.9-5.2-4.3-5.2s-4.3,2.3-4.3,5.2c0,0.7,0.1,1.3,0.3,1.9
				C196.2,862.1,199.2,861.7,202.3,862.4z"/>
			<path class="st13" d="M200.5,862.1c0.2-0.5,0.4-1,0.4-1.6c0-1.7-1.2-3.1-2.6-3.1s-2.6,1.4-2.6,3.1c0,0.6,0.1,1.1,0.4,1.6
				C197.4,862,198.9,862,200.5,862.1z"/>
			<ellipse class="st4" cx="199.3" cy="858" rx="0.9" ry="1"/>
		</g>
		<g>
			<path class="st4" d="M212.8,863c0.1,0,0.2-0.1,0.3-0.1c0,0,0.1,0,0.1,0c0.1,0,0.2-0.1,0.3-0.1c0.1,0,0.1,0,0.2,0
				c0.4-0.1,0.9-0.2,1.4-0.3c0,0,0.1,0,0.1,0c0.2,0,0.4-0.1,0.6-0.1c0,0,0.1,0,0.1,0c2.3-0.4,5.5-0.4,8.8,0.7
				c0.2-0.8,0.3-1.6,0.3-2.4c0-4.2-2.8-7.6-6.3-7.6s-6.3,3.4-6.3,7.6C212.5,861.4,212.6,862.2,212.8,863
				C212.8,863,212.8,863,212.8,863z"/>
			<path class="st12" d="M222.7,862.4c0.2-0.6,0.3-1.2,0.3-1.8c0-2.9-1.9-5.2-4.3-5.2s-4.3,2.3-4.3,5.2c0,0.7,0.1,1.3,0.3,1.9
				C216.7,862.1,219.6,861.7,222.7,862.4z"/>
			<path class="st13" d="M220.9,862.1c0.2-0.5,0.4-1,0.4-1.6c0-1.7-1.2-3.1-2.6-3.1s-2.6,1.4-2.6,3.1c0,0.6,0.1,1.1,0.4,1.6
				C217.8,862,219.3,862,220.9,862.1z"/>
			<ellipse class="st4" cx="219.8" cy="858" rx="0.9" ry="1"/>
		</g>
		<path class="st9" d="M200.4,890.7v10.5c0,0-0.6,2.9-2.4,2.9l-12,1.9v8.6H210v-23.8H200.4z"/>
		<path class="st9" d="M218.3,890.4l0.1,10.5c0,0,0.6,2.8,2.4,2.8l12,1.8l0,8.5l-23.9,0.2l-0.1-23.8L218.3,890.4z"/>
		<path class="st4" d="M208.2,913c0,0-12-6.1-11.1-10.9c0,0-17.6,0-16.7,6.7l0.4,6.2l28.3,7.1l0-9.1H208.2z"/>
		<path class="st4" d="M209.8,913.1c0,0,13.1-5.8,12.2-10.6c0,0,18.8,0.6,17.6,7.3l-0.5,4.3l-30.3,8.1l-0.1-9.1L209.8,913.1z"/>
		<path class="st14" d="M200.4,898c0,0,3.7,1.8,8.6,1.4L209,898c0,0-7.1,0.3-8.6-1.3V898z"/>
		<path class="st14" d="M218.3,896.7c0,0-2.3,1.3-9.3,1.3v1.3c0,0,7.7-0.2,9.3-1.3V896.7z"/>
		<g>
			<g>
				<path class="st11" d="M198.6,881.6c6.5,2.8,14.1,2.3,20.6,0.1c0.9-0.3,0.5-1.8-0.4-1.4c-6.1,2-13.4,2.7-19.4,0.1
					C198.5,880,197.7,881.3,198.6,881.6L198.6,881.6z"/>
			</g>
		</g>
		<path class="st15" d="M205,822c0,0,9,1,13,4c0,0-6.9,0.6-8.9-0.7C207,824,205,822,205,822"/>
		<path class="st15" d="M194,822c0,0,5,8,7,7s0,0,0,0l2-2C203,827,204,825,194,822"/>
		<path class="st15" d="M192,827c0,0,0,5,1,5s3-2,3-2S197,829,192,827"/>
	</g>
	<path class="st16" d="M208.7,822.3"/>
	<g>
		<path class="st10" d="M225.3,822.6c0.5,0.1,1,0.2,1.4,0.3"/>
		<path class="st10" d="M201.5,818.9c0,0,5.7,7.6,1,5.7l-12.3-6.7l6.6,10.5l-6.6-6.7l1,10.5l-3.8-3.8c0,0-9.5,23.8-5.7,34.2
			c0,0,13.3-30.4,26.6-21.9c0,0,0.1-0.1,0.3-0.2l-0.5-19.5L201.5,818.9z"/>
		<path class="st10" d="M237.1,850l0,5.7C237.1,854,237.1,852.1,237.1,850z"/>
		<path class="st10" d="M221.4,821.7c0,0-0.2,0.1-0.4,0.2c0.1,0,0.2,0,0.3,0C221.3,821.9,221.4,821.8,221.4,821.7z"/>
		<path class="st17" d="M222,902l-0.1,1.9c0,0-0.5,0-1.1-0.2c-1.1-0.4-2.4-1.4-2.2-4.2c0-0.7,0.5-2.5,0.5-2.5s0-0.5,0.5-1.2
			c0.3-0.4,0.7-0.8,1.2-1.3c0.2-0.2,0.3-0.5,0.5-0.7c1.9-2.6,4.9-7.4,8.7-14.8c0.6-1.2,2-2,2.8-4.2c0.9-2.5,2.2-5,3.2-7.8l1-11.3
			c-0.2,4.2-0.5,7.1-0.5,7.1c-12.3-33-26-24-28.1-22.3l1.5,57.6l1.1,0.9v6l-1,3.6l-0.9,13.5L239,914C239,914,246,903,222,902z"/>
		<path class="st10" d="M236.5,862.8c0,0,0.4-2.9,0.5-7.1l0-5.7c-0.2-9.2-2-20.7-9-24.5c0,0-6.3,0.9-1.3-2.6
			c-0.5-0.1-0.9-0.2-1.4-0.3c-0.5,0.2-1.2,0.5-2,1c0,0-2.6,0-2-1.7c-0.1,0-0.2,0-0.3,0c-1.1,0.5-4,1.9-2.5,2.7l-10.7-3.6l0.5,19.5
			C210.6,838.8,224.2,829.8,236.5,862.8z"/>
		<path class="st17" d="M236.5,862.8c0,0,0.4-2.9,0.5-7.1l0-5.7c-0.2-9.2-2-20.7-9-24.5c0,0-6.3,0.9-1.3-2.6
			c-0.5-0.1-0.9-0.2-1.4-0.3c-0.5,0.2-1.2,0.5-2,1c0,0-2.6,0-2-1.7c-0.1,0-0.2,0-0.3,0c-1.1,0.5-4,1.9-2.5,2.7l-10.7-3.6l0.5,19.5
			C210.6,838.8,224.2,829.8,236.5,862.8z"/>
	</g>
	<path d="M229.5,824.4"/>
	<path d="M148,829"/>
</g>
</svg>
