<?xml version="1.0" encoding="utf-8"?>
<!-- Generator: Adobe Illustrator 21.0.2, SVG Export Plug-In . SVG Version: 6.00 Build 0)  -->
<?xml version="1.0" encoding="utf-8"?>
<!-- Generator: Adobe Illustrator 21.0.2, SVG Export Plug-In . SVG Version: 6.00 Build 0)  -->
<svg version="1.1" id="Layer_1" xmlns="http://www.w3.org/2000/svg" xmlns:xlink="http://www.w3.org/1999/xlink" x="0px" y="0px"
	 viewBox="0 0 1366 768" style="enable-background:new 0 0 1366 768;" xml:space="preserve">
<style type="text/css">
	.st0{fill:#FFFFFF;}
	.st1{fill:#7B13D6;}
	.st2{fill:#004D40;}
	.st3{fill:#E0E0E0;}
	.st4{fill:#2196F3;stroke:#000000;stroke-miterlimit:10;}
</style>
<g>
	<path d="M872.6,168c-1.2-1.6-2.5-2.1-4.4-0.8c-1,0.7-2.3,1.1-3.5,1.6c-1.9-3.3-3.5-6.2-3.2-9.9c0.1-1-0.8-2.1-1.6-3
		c-1.1-1.2-2.4-2.3-3.7-3.5c0.3-2-0.4-4.1,1.1-6.2c0.8-1.1,0.1-3.3,0.1-5.4c1.5,3.8,2.9,7.3,4.3,10.9c3.1,0.2,6,0.4,9.5,0.7
		c-2.7-3.2-8.6-0.9-9.1-6.6c0.8,0,1.5,0,2.3,0c1.1,0,2.8,0.5,3.1,0c1.1-1.4-0.5-1.9-1.5-2.5c-0.3-0.2-0.3-1.1-0.4-1.6
		c0.2-0.2,0.4-0.4,0.5-0.6c2.9-0.7,5.6,0.4,7.5,2c2.6,2.2,5.1,2.5,8.1,1.5c0.4,3.2,0.7,6.1,1,8.6c1.9-0.4,3.4-0.7,5-1
		c-1.5,1.4-2.5,2.9-1.4,5.1c2.6-1.4,1.4-3.4,1.4-5.1c-1.7-1.8-3.5-3.5-3.6-6.3c0-0.5-0.4-1.5-0.7-1.5c-3.3-0.6-4.8-4.4-8.3-4.4
		c-0.7,0-1.8-0.2-2-0.6c-1.6-2.8-3-5.6-4.5-8.6c5-2,9.5-3.8,14.2-5.7c0.3,0.4,0.7,0.9,1.3,1.7c0.6-0.7,1.1-1.3,1.9-2.3
		c-2.4-1.4-4.5-2.6-6.6-3.8c0.5-0.3,0.9-0.5,1.5-0.8c-1.3-0.7-2.5-1.3-4.5-2.4c1.7-0.2,2.4-0.3,3.1-0.4c0.8-0.8-0.3-1.5,0.3-2.7
		c1.9-4.1,4.3-7.3,8.4-9.2c1.2-0.5,2.2-1.4,3.5-2.2c-0.9-0.4-1.5-0.7-2.3-1.1c1.6-3,4.8-2,7.2-3.4c0.1,1.1,0.2,1.8,0.4,3.2
		c2.2-1.8,4.2-3.4,6.7-5.3c0.8,0.6,1.9,1.5,3.2,2.4c0-2.9-2.5-3.1-4.3-4.2c2.1-2.1,4.9-0.7,7-1.9c-6.6-2.7-7.5-10.5-3.5-16
		c0.7,0.1,1.4,0.1,2.1,0.2c4.7,1,4.8,1.2,2.7,6.1c2.5-0.6,4.8-1.2,7.1-1.7c3.2,1.7-0.3,5.2,2.2,7.1c2.2-0.6,3.5-1.8,1.8-4.4
		c2.2-1.1,4.3-2.1,7-3.4c2.6,1.5,5.6,3.2,8.7,5c0,0,0.3-0.4,0.6-0.8c1.3,1.2,2.6,2.4,4,3.7c-1,0.3-1.7,0.6-2.5,0.9
		c0.2,0.2,0.2,0.4,0.3,0.4c4.6,2.5,4.5,2.4,3.3,8.1c-1,4.4-3.2,8.6-3.2,13.3c0,1.4-1.5,2.7-1.8,4.1c-0.5,1.9-0.6,3.9-1,6.3
		c2.9-1.1,0.7-2.5,1.3-3.8c4.4-0.5,5.3-4.8,7.7-8c-0.9,0.2-1.7,0.4-3,0.7c0.1-0.9,0-2.3,0.2-2.3c1.2-0.3,3.1-0.8,3.6-0.2
		c2.3,2.3,4.2,1.5,6.1-0.3c0.7,0.9,1.3,1.5,1.9,2.2c2.6-5.6,8.2-3.3,12.3-5.3c0.6,1.4,0.8,3,1.7,3.5c1,0.6,2.7-0.2,3.8,0.2
		c4,1.5,7-0.9,10.6-2.1c-0.9-1.7-1.8-3.4-2.6-4.9c0.2-0.3,0.3-0.5,0.4-0.6c1.5-1.6,3.7-2.1,5.3-1.1c2.2,1.3,3.7-0.5,5.4-0.4
		c1.8,0.1,3.7,1,5.3,2.1c1.7,1.1,3.1,2.8,3,5.1c2.2,0,3.5,1.2,4.4,3.6c-1.3,0.2-2.3,0.3-4.5,0.6c6.2,2.7,10.5,6.8,17.1,8.4
		c-1-3.5-1.9-6.4-2.8-9.4c2.6,0.3,5,0.7,7.1,1c1.2-1.4,2-3,3.1-3.3c1.2-0.3,2.8,0.4,4.2,0.9c1.3,0.5,2.4,2,4.4,0.7
		c-0.7-0.9-1.4-1.6-2.5-2.9c1.9-0.4,3.5-0.7,5.5-1c-1.5-2.3-4.5-3.5-3.3-6.9c-1,0.4-1.8,0.7-2.6,1.1c-2.7-3.3,2.3-2.8,2.4-5.1
		c-0.8-0.4-1.7-0.9-2.6-1.4c0.2-0.3,0.4-0.7,0.5-0.7c3.4-0.1,6.8-0.3,10.2-0.3c1.8,0,3.7,0.4,5.5,0.7c-3.1,0.3-3.1,0.3-2.1,3.1
		c0.8-1.3,1.4-2.3,2-3.3c0.9,0.2,1.7,0.3,2.7,0.5c-2.1,1.6,0.1,3.9-0.8,6c0.5-0.5,1.2-0.8,1.6-1.4c0.3-0.5,0.3-1.1,0.3-1.7
		c0-2-1.1-4.5,1.6-5.5c2.8-1.1,5.8-1.5,8.4,1.3c-0.6,0.9-1.1,1.7-1.7,2.6c2.4,1.2,5,1.2,7.3,3.3c0.3-0.4,0.8-1.3,1.4-2.3
		c1.8,1.3,4,1.2,5,3.6c0.7,1.6,2.6,0.3,3.9-0.5c3.1-1.7,6.2-3.5,9.5-5c4.8-2.1,10.4,0.5,12.4,5.4c0.4,1.1,0.7,2.3,1.1,3.6
		c1.9-0.1,3.8-0.2,5.8-0.3c0.6,0.8,1.2,1.7,2,2.8c0.6-0.3,1.2-0.5,1.2-0.7c0.2-1.4,0.3-2.9,0.5-4.4c4-2.7,8.7-2.3,13.4-3.4
		c0.1-1.9,0.2-3.8,0.3-5.6c1.4-0.8,2.8-0.9,3.4,0.7c0.3,0.8-0.3,1.9-0.5,3.3c0.6,1.4,2,2.6,4.4,2.8c1.2,0.1,2.3,1.6,3.4,2.5
		c4-1.3,4.3-1.8,1.8-4.8c-0.8-0.9-1.5-2.1-2.5-2.5c-2.6-1.1-2.9-3.4-3.7-5.2c4.2-1.1,8.2-2.5,12.2-3.1c3.3-0.5,6.8-0.5,10.1,0
		c2.9,0.4,6.1,0.2,8.4,2.5c0.2,0.2,0.6,0.3,0.8,0.2c6.3-1.5,12.3,1.4,18.6,1.3c1,0,2.2,0.9,3,1.7c1.2,1.1,2.4,2.3,3.1,3.8
		c1.1,2.3,2.6,2.4,4.8,1.7c-1.6-1.8-3.1-3.5-4.9-5.4c1.7-1.3,3.3-2.6,5.1-4c2.6,0.8,5.4,1.6,8.3,2.5c0.2,0.9,0.3,2,0.7,2.9
		c1.5,4.1,1.5,4.1-1.6,7c1.9,1.9,4.5,3.1,4.2,6.7c-0.1,1.2,2,2.5,3.6,4.4c-3.5,0.5-6.5,1-9.8,1.5c-0.8-0.8-2-1.8-3.1-2.8
		c-3.4-0.3-3.8,2.4-4.6,5.3c-2.2-1.9-3.8-3.3-5.5-4.7c-2.2,2.5-2.1,4,1,5.7c2.8,1.5,4.3,3.5,3.7,6.8c-0.2,0.9,0,1.8,0,2.7
		c-0.1,3-1.5,4.1-4.7,3.7c-1.5-0.2-3,0-4.9,0c1.6,2.2,1.6,2.2,4.1,1c1.6,0.8,2.4,3,5.1,2.6c1-0.2,2.2,2.8,4.3,3.2
		c-0.3,2.9,2.5,2.9,4,4c2.8,1.9,5,4.1,4.4,7.8c-0.4,0.2-0.7,0.5-0.9,0.4c-4.2-1.1-6.5,1.1-8.6,4.4c-3.7,5.8-4.7,12.3-5.6,18.8
		c-0.1,0.8,0.3,1.7,0.6,3.2c-1.5-0.9-2.5-1.4-3.4-2c-4.3-2.8-7.6-1.5-8.8,3.6c-0.1,0.5-0.2,1.1-0.5,2.2c-0.9-1.4-1.5-2.3-2.3-3.4
		c-1.9,1.4-2.1,4.5-5,4.5c-0.2,0-0.9,2.3-0.5,3.1c1.4,3.1,1.5,6.3,1.6,9.5c0.1,2.3,0.7,4.4,3.2,5.5c0.2-0.7,0.3-1.3,0.5-1.9
		c2.1,0,3.1,1,2.7,3.1c-0.6,2.6-0.1,4.3,2.9,4.8c0.1,0,0.1,0.8,0.2,1.3l0.1-0.1c-2,2.8-1.8,7.8,0.4,10.7c0.9,1.2,1.9,2.3,2.9,3.4
		c-1.1,2.1-4.8,1.6-4.5,4.6c0.2,2.3,0.6,4.6,0.9,7.6c-0.3,0.2-1.3,1-2.5,2c1.1,4.1,3.1,8.3-1,12.5c-0.7-0.7-2.2-1.5-2.5-2.6
		c-1.3-4.9-5-8.2-7.6-12.2c-3.6-5.9-7.3-11.6-9-18.5c-0.4-1.7-1-3.4,0.2-5.2c0.5-0.7,0.9-1.8,0.6-2.6c-0.9-2.7,0-4.8,1.7-6.8
		c0.5-0.7,0.9-1.6,1-2.5c0.4-4.7,0.8-9.4,0.8-14.2c0-3.1,0.8-5.5,3.4-7.5c-1.4-3.7-3-7.2-4.1-10.9c-0.3-0.9,0.6-2.2,1-3.5
		c-1.6-0.9-3.5-1.5-5.5,1c0.8,1.9,1.6,4.1,2.3,5.7c-0.9,3.6-1.6,6.8-2.4,10.2c-1.4-0.7-2.5-1.3-3.9-2c-0.2-1.6-0.5-3.4-0.8-5.5
		c-2.9,0.9-5.5,1.6-8.1,2.5c-2,0.6-2.9,2.1-2.5,4.2c0.5,3.1,0.1,6.2-0.8,9.2c-0.4,1.5-0.1,3.2-0.1,5c1.4,0.3,2.4,0.5,3.7,0.7
		c-0.2,0.6-0.2,1.1-0.5,1.3c-2.3,1.5-4.9,2.4-7,4.2c-0.4,0.4-1.5,0-2.3,0c0.3-0.7,0.6-1.5,1.1-2.5c-2.4-2-5.6-1.3-8.6-1.4
		c-1,0-2,2-3.5,3.6c-0.9,0.1-2.6,0.5-4.4,0.6c-2,0.1-3.2,1.9-5.5,1.8c-2.1-0.1-4.3,1.1-6.3,2c-1,0.5-2.4,2.1-2.2,2.6
		c1.2,3-1.8,5.3-1.2,8.1c0.2,0.8-0.2,1.8-0.5,2.6c-2.8,6.1-3,13.1-6.9,18.8c-0.3,0.5-0.4,1.1-0.7,1.7c1.6,2.2,3.5,0.8,5.5,0.5
		c0.7,1.6,1.4,3.2,2.1,4.8c0.9,0.7,2.5-2.3,3,0.6c0,0.1,1.8,0.2,2-0.1c0.6-1,0.8-2.2,1.2-3.3c2.3-0.8,4.4-0.2,6.4,1.5
		c1.8,1.4,3.4,2.3,4.4,5c1.5,3.7,2.7,7.3,2.9,11.2c0.1,3,1,5.7,2.3,8.5c1.4,3,2.3,6.3,1,9.9c-0.8,2-1,4.3-1.2,6.6
		c-0.7,7.1-4.1,13.3-6.8,19.7c-0.1,0.1-0.1,0.3-0.1,0.4c-2.5,4.9-4.4,5.4-9,2.5c-1.7,2-3.6,3.8-5,6c-0.7,1-1.2,2.7-0.8,3.7
		c1.4,3.1-0.4,5.1-2,7.3c-0.3,0.5-0.9,0.7-1.4,1.2c-2.3,2.3-2.2,3.3,0.3,5.3c4.6,3.8,8.1,8.2,9.4,14.2c0.8,3.6,0,4.9-3.6,5.7
		c-1.5,0.4-3,1.1-5.1,1.9c-0.3-1.2-1.2-2.6-1-3.7c0.6-2.8-0.2-4.9-2.3-6.7c0.7-0.4,1.1-0.8,1.8-1.2c-1.3-2.1-2.2-4.5-5.6-3.5
		c-1.5,0.5-2-1-2.1-2.1c-0.2-1.9,0-3.8,0-5.8c-5-2.7-6.5-2.4-11.9,2.2c-2-3.1-2-3.1-0.2-7.1c-3.2-3.1-4-3-5.9,0.4
		c-0.4,0.6-0.6,1.6-1.1,1.9c-2.2,1.1-2.8,2.9-2.6,5.2c-1.6,0.2-2.7,0.4-3.9,0.5c-0.2,0.5-0.4,0.9-0.5,1.3c-0.6,2.1,1,3.4,2.3,3.9
		c2,0.9,3.1,2.4,4.5,4.7c1.2-1,2.2-1.8,3-2.7c1.1-1.3,2.1-1.7,3.8-0.9c1.4,0.7,3.2,0.5,5.1,0.8c0.1,0.7,0.1,1.5,0.2,2.4
		c-4,0.5-6.4,2.7-8.2,6c-1.7,3.2-1.5,4.6,1.5,6.5c1.1,0.7,2.1,1.6,2.8,2.7c1.8,2.6,3.5,5.4,5.3,8.3c-0.3,0.1-1,0.5-1.8,0.9
		c1.1,1,2.3,2,3.6,3.2c-1.3,1.2-2.4,2.2-3.5,3.3c1.4,0.5,2.8,1,4,1.4c0.2,4.4-0.9,8.1-2.6,11.6c-0.4,0.9-1.3,1.6-1.8,2.4
		c-0.4,0.5-0.9,1.1-0.8,1.7c0.2,5.2-3.5,8.1-6.4,11.7c-2.5,3.1-5.7,4.3-9.4,4.9c-0.9,0.1-1.9-0.1-3-0.1c-2.1,4.2-7,3.9-10.7,6
		c0.1,0.9,0.2,1.8,0.3,3c-2.2-1.4-2.2-1.4-2.5-3.7c-3.5-1.9-6.5-0.5-9.4,1.6c-2,1.5-2.9,3.9-3.8,6.1c-0.4,0.8-0.3,2.5,0.2,3
		c2.6,2.2,3.5,5.7,6.8,7.5c6,3.2,7.2,9.3,7.8,15.3c0.3,3.6-1.7,6.9-5.2,8.2c-2.8,1-4.4,3.1-6.5,4.8c-0.8,0.7-1.5,1.4-2.3,2.1
		c-1-2.2-1.1-2.2-0.5-4.8c-1.3-0.6-2.9-1.1-4.2-2c-1.3-0.9-2.4-2.2-3.6-3.3c-1.3-1.2-2.3-2.7-3.8-3.6c-1.8-1-4.4-0.8-4.9-3.6
		c0-0.1-1.3,0-1.7,0c-0.9,3.6-1.7,6.9-2.6,10.2c-0.6,2.2-0.6,3.9,1.5,5.8c1.4,1.2,3.8,3,2.9,6c-0.2,0.5,1.8,1.8,2.8,2.6
		c2.2,1.7,4.5,3.3,6.6,5.1c0.9,0.8,1.7,2.3,1.6,3.5c-0.2,3.3,0.6,6.2,2.5,8.8c0.4,0.6,0.5,1.3,0.9,2.3c-3.4,0.5-5.7-1.2-7.7-3
		c-3.4-3.1-5.7-6.9-6.4-11.6c-0.7-5-4.4-8.1-8.1-12c3.4-11.2-1.4-21.5-6.1-32.1c-2.8,2.9-5.3,5.4-9.8,4.3c-0.2-4.2,1.9-9.4-3.9-11.6
		c0.3-0.8,0.5-1.5,0.8-2.3c-0.5-0.4-0.9-0.8-1.4-1c-3.5-1.5-5.7-4.1-6.5-8c-0.4-2.3-1.1-2.5-4.1-3.1c-1.1,3.8-4.1,4.9-9,3.4
		c-1.6,1.7-4.5,2.4-4.2,5.7c0.1,0.9-1.6,2.6-2.6,2.8c-2.3,0.3-3,2.2-4.2,3.5c-1.6,1.8-3.1,3.7-4.8,5.2c-2.8,2.5-5,5.8-8.8,7.1
		c-0.5,0.2-1,1.5-0.9,2.3c0.1,2.4,0.5,4.7,0.7,7c0.1,0.7,0.2,1.6-0.1,2.2c-1.4,2.5-1.4,5.1-0.6,7.5c-2.3,2.7-4.4,5-6.4,7.4
		c-1.6,2-2.7,2.1-4.2,0.4c-0.3-0.3-0.7-0.7-0.8-1.1c-1.3-5.4-4.3-10.1-7-14.8c-1.9-3.4-3.4-7-4.9-10.6c-2.3-5.6-4.1-11.4-4.8-17.5
		c-0.3-2.6-0.9-5.1-1.4-8.4c-0.9,2.2-1.3,4.1-2.3,5.2c-1.9,2.1-3.7,2-5.9,0.2c-1.3-1.1-2.3-2.3-3.7-3.7c1.3-0.9,2.5-1.7,3.8-2.6
		c-3.1,0.1-5.6-0.6-7.3-3.4c-0.5-0.8-2.1-0.8-3.5-1.3c-0.2-0.6-0.3-1.3-0.7-2c-1.5-2.5-3.3-4.3-6.7-3.8c-3.6,0.6-7.3,0.8-11,1
		c-2.2,0.1-4.4-0.1-6.6-0.4c-3.7-0.5-7.4-1.1-11.1-1.7c-0.2-0.4-0.4-0.8-0.6-1.2c-2.2-4.9-2.2-4.9-6.8-2.6c-3.3,1.6-6-0.1-8.7-1.6
		c-1.9-1-3.7-2.2-6.3-3.9c-1.1-1.8-2.8-4.4-4.6-7.4c-1.8,0-3.7,0-5.5,0c-3,3.7-0.1,6.3,1.7,8.3c2.6,2.9,4.9,5.9,6.3,9.5
		c0.2,0.5,0.7,0.9,1.3,1.7c0.5-1.2,0.9-2.3,1.3-3.4c0.3,0,0.6,0,0.8,0c0.2,1.6,0.4,3.3,0.7,4.9c0.4,2.5,1.2,3,3.9,2.6
		c0.9-0.1,1.8-0.3,2.6-0.2c2.4,0.4,3.8-0.5,5.1-2.5c1.2-1.8,2.9-3.3,4.6-5.2c0.4,1.2,0.8,2,1,2.8c1.3,5,1.9,5.7,6.6,6.2
		c1.5,0.2,2.4,0.7,3.2,2c0.7,1.1,1.7,2,2.8,3.2c0,2.6-1.7,4.9-3.6,6.2c-2.5,1.7-2.7,3.6-2.5,5.4c-1.9,1.8-3.1,3.7-4.9,4.6
		c-1.8,1-4,1.1-4,3.6c-2.7,0.8-5.2,1.4-7.6,2.2c-0.9,0.3-1.5,1.3-2.2,2c-0.9,0.9-1.6,2.1-2.7,2.6c-5.1,2.3-10.2,4.4-15.4,6.5
		c-0.7,0.3-1.5,0.6-2.2,0.5c-1.9-0.4-3.3,0.1-4.8,1.5c-1.1,1-3,1-4.6,1.6c-2.6-3.4-3.5-7.3-3.8-10.9c-0.2-3.1-1.4-5.3-3.1-7.6
		c-1.4-1.9-2.5-4-3.9-5.9c-1-1.4-2.2-2.9-3.6-3.8c-2.7-1.7-3.7-3.9-4-7c-0.3-3.4-1.2-6.8-5-8.3c-0.6-0.2-1.3-0.9-1.5-1.5
		c-2.1-5-5-9.4-8.9-13.2c-0.5-0.6-0.6-1.6-1-2.9c-0.4,1.6-0.8,2.8-1.4,4.9c-2.2-2.4-4-4.3-5.9-6.4c-0.1,0.5-0.3,0.9-0.2,1
		c4.6,5,6.3,11.7,9.8,17.5c2,3.4,3.4,6.9,6.4,9.9c1.6,1.6,1.5,5,1.9,7.7c0.3,1.9,0.6,3.5,2.3,4.5c3.1,1.8,4.6,4.7,5.2,8
		c0.6,2.9,2.2,4.5,5,5.7c2.3,1.1,4.2,3.2,6.1,5.1c1.4,1.3,2.5,2.9,4,4.6c-0.4,0.8-0.8,1.6-1.3,2.5c1.9,1.6,3.7,4,5.9,4.6
		c2,0.5,4.5-0.9,6.8-1.4c5.4-1.3,10.8-2.5,16.5-3.8c0.7,3.1,0.3,6.4-1.1,9.3c-2.7,5.5-5.7,10.8-8.9,16c-2.6,4.3-6.5,7.2-10.5,10.2
		c-4.4,3.3-8,7.6-12,11.4c-1.5,1.4-2.9,3-4.5,4.3c-1.4,1.2-6.5,10.2-6.6,11.9c0,0.4-0.1,1.1,0.2,1.3c2.9,1.8,1.3,4.6,1.5,6.8
		c0.3,3.5,0.7,6.8,3.7,8.7c0,4.9,0,9.5,0,14.1c0,3.4-1.9,5.8-4.3,7.9c-0.7,0.6-1.4,1.2-2.3,1.4c-5.1,1.5-8.3,5.8-12.4,8.6
		c-2.6,1.7-3.5,3.6-2.3,6.7c1.2,3,1.4,6.2,0.9,9.6c-0.4,2.3-1.4,3.5-3.3,4.2c-1.3,0.5-2.7,0.6-3.8,1.3c-1.6,1-3.3,1.5-2.6,4.7
		c0.6,3-0.7,6.7-3.4,9.3c-1.7,1.7-3.3,3.5-4.8,5.2c-2.4,2.8-4.7,5.8-7.3,8.5c-4.9,5-10.9,6.9-17.9,6.9c-4.5,0-9,1.4-14.3,2.3
		c-2.2-0.8-4.2-2.9-4.9-6.1c-0.1-0.4-0.5-1-0.3-1.2c2.8-3-0.3-5.2-0.9-7.7c-1.1-4.6-3.2-8.5-6-12.3c-1.6-2.1-1.9-5.3-2.6-8
		c-0.4-1.6-0.8-3.2-0.8-4.8c0.1-6.1-2.9-11.1-5.2-16.4c-0.6-1.4-1.1-3-2.1-3.9c-2.3-2.3-2.8-5-2.1-7.9c1.2-5.3,1.4-10.9,6-14.9
		c2.2-1.9,2.3-4.6,1.2-7c-1-2.5-2.2-4.9-1.3-7.7c0.2-0.8-0.4-2-0.8-3c-2.2-5.6-3.4-11.7-8.8-15.5c-1.2-0.8-2.2-2.1-3-3.3
		c-1-1.6-1.8-3.4-1.9-5.1c0.4-2.4,0.9-4.8,1.3-7.1c0.1-0.6,0.1-1.2,0.4-1.7c2.4-4,1.7-7.5-1.9-10.4c-0.3-0.3-0.6-0.6-1-0.9
		c-2.2,0.4-4.3,1-6.5,1.3c-3.3,0.5-4.3-0.1-5.6-3.1c-2-4.4-3.8-5.6-8.4-4.6c-3.6,0.8-7,2.4-10.5,3.5c-3,1-5.7,2.2-9.4,1.1
		c-4-1.1-8.7-1-12.6,1.2c-2.7,1.5-5.1,1.2-7.4-0.5c-2.5-1.9-5-3.7-7.5-5.6c-0.6-0.4-1.1-1.2-1.7-1.4c-4-0.9-5.2-4.1-6.5-7.3
		c-0.6-1.4-1.4-3-2.5-4c-1.3-1.1-2.5-2.2-3.5-3.6c-1-1.4-1.9-3.4-4.4-3.8c-1-0.2-2.1-2.6-2.4-4.1c-0.6-3.9-0.4-3.9-1.7-6
		c2.7-5.2,5.3-10.3,3.5-16.4c-0.4-1.3,0.6-3.6-0.1-4.2c-4-3.3-1.3-6,0.4-8.8c2.4-4.1,4.1-8.8,7.4-12.1c2.7-2.8,4.3-7,9-8
		c2.7-0.6,5.1-3,6.5-5.8c0.3-0.6,1-1.5,0.8-2c-1.5-3.4,1.1-5.9,1.8-8.8c0.2-0.9,1.2-1.7,2-2.3c1.2-0.9,2.4-1.9,3.8-2.4
		c2.9-1.1,4.2-3.2,4.9-6c0.2-0.8,0.6-1.6,1.2-2.9c2.1,2.6,4.5,2.9,7.3,2.5c1-0.1,2,0.4,3,0.4c1.4,0,3.2,0.2,4.2-0.6
		c5.2-3.9,11.2-5.5,17.3-6c3.3-0.3,6.7-0.2,10-0.3c2.6-0.1,5.4,0.5,7.8-1.1c1.1-0.7,2.2-0.4,3.1,0.9c0.3,0.4,1.2,0.5,2.2,0.8
		c-0.4,1.4-1.7,3.1,0.3,4.8c1.2,1,0.6,2.5-0.6,3.5c-0.8,0.6-1.8,1.1-3.4,2.1c4.5,2.5,7.2,5.3,11.4,5.2c1.9-0.1,3.8,0.7,5.7,0.9
		c1.5,0.2,2.4,0.9,2.8,2.5c0.5,2,1.8,2.6,3.9,3c2.3,0.4,4.4,1.6,6.5,2.7c1.3,0.6,2.3,2.2,4,1.1c1.6-1.1,2.4-2.3,1.8-4.6
		c-0.8-3,0.3-4.6,3.1-5.3c2.6-0.6,5-0.6,7.6,1c2.6,1.7,6,2.3,9.1,3.2c2.7,0.8,5.5,1.2,8.3,1.8c2.3,0.5,4.4,1,6.8-0.5
		c1.8-1.1,4.1-1.4,6.4-0.2c0.9,0.5,2.3,0.4,3.5,0.4c3.9,0,5-0.8,6.2-4.3c0.7-2,1.6-3.9,2.1-5.9c0.6-2.4,1.8-4.7,0.8-7.4
		c-0.5-1.3-0.1-2.9-0.1-4.6c-2.2,0.4-4.7-0.6-7.1,1.9c-1.3,1.3-3.7,1.6-5.7-0.2c-1.9-1.7-4.1-3-6.4,0c-0.5,0.7-2.6,0.7-3.7,0.4
		c-1.7-0.5-3.4-1.6-4.9-2.6c-1.1-0.7-2-1.7-2.9-2.6c-0.7-0.8-1.3-1.8-2.1-3c0.8-1.8,2.7-4.1-1-5.7c-0.3-0.1-0.6-1.1-0.4-1.6
		c0.6-2,0.3-3.5-1.9-4.3c-2.2-0.7-5,0.1-6.3,1.8c-0.3,0.4-0.6,0.9-1,1.6c-0.7-0.3-1.2-0.5-1.7-0.8c-0.4-0.2-0.7-0.4-1.4-0.9
		c-0.1,0.9-0.4,1.6-0.2,2.2c0.6,1.7,1.4,3.4,2.4,5.7c0.5,0.1,1.7,0.4,3.4,0.7c-0.4,1.2-0.5,2.8-0.9,2.8c-2.9,0.4-3.2,2.4-2.7,4.6
		c-4.3,1-4.4-2.6-6.7-5.1c2.1-0.2,3.5-0.4,4.8-0.6c-3.2,0.2-5.1-1.5-6.8-4c-2.2-3.2-5.5-5.9-4.4-10.5c-1.5-1.8-2.8-3.9-4.6-5.2
		c-2.1-1.5-4.8-2.3-7-3.6c-1.1-0.7-2-2-2.8-3.1c-1-1.3-1.7-2.8-2.8-4.4c-0.9,0.7-1.6,1.3-2.6,2.1c-0.4-1.3-0.7-2.5-1.1-4
		c-1.3,0.5-2.5,0.9-3.6,1.4c-1,3.5,0,5.9,3,7.5c0.9,0.5,1.7,1.4,2.1,2.3c1.5,2.9,3.1,5.5,6.9,5.6c2.1,3.5,7.1,3.5,9.8,8.1
		c-2.2-1-3.5-1.5-4.7-2.1c-2.4,1.9-2,3.7,0.2,5.3c-1.3,2.2-2.5,4.2-3.6,6.1c-0.3-0.1-0.7-0.3-1-0.4c0.2-0.8,0.4-1.7,0.7-2.5
		c0.7-2.5-0.2-4.9-2-6.6c-2.7-2.5-6-4-9.1-6c-3.3-2.1-5.9-5.4-8.4-8.5c-1.2-1.5-1.9-3.3-4-4c-2.1-0.7-3.3,0.6-4.7,1.8
		c-1.6,1.3-3.5,2.2-5.5,3.5c-1.6-0.4-3.5-1-5.5-1.3c-3.1-0.5-4.5,0.4-4.6,3.1c0,3.8-1.2,5.9-5,7.3c-2.2,0.8-3.7,3.7-5.1,5.9
		c-0.5,0.8,0.3,2.4,0.6,4.1c-1.7,1.8-2.4,4.9-5.4,6.6c-1.2,0.6-2.2,1.4-3.5,1.3c-3.7-0.2-7.1,0.4-10,3.4c-1.6-1.9-2.7-3.9-4.3-4.7
		c-1.6-0.8-3.9-0.2-5.3-0.2c-0.9-2.7-1.7-4.7-2.1-6.8c-0.2-1-0.2-2.4,0.3-3.3c2.4-5.1,2-10.3,0.6-15.5c4.1-2.9,8.6-2.3,13.1-1.6
		c3.2,0.5,6.4,0.7,9.6,0.7c1,0,2.5-1.3,2.8-2.2c0.7-2.5,0.8-5.1,1.1-7.7c0.1-0.6,0.1-1.5-0.3-1.7c-3.1-2.3-3.5-7.4-8.3-7.8
		c-0.6-0.1-1.2-0.3-2-0.5c-0.2-0.8-0.5-1.8-0.8-3c1.7-0.3,3.3-0.8,4.9-0.9c1.4,0,2.8,0.5,4.7,0.8c-0.1-1.7-0.2-3-0.3-4.2
		c0.2-0.1,0.6-0.4,0.7-0.3c2.1,1.2,4.3,2.6,5.8-0.8c2.7-0.3,3.7-2,4.8-4.4c0.8-1.8,4.1-2.3,5.5-4c1.3-1.6,0.9-4.9,2.4-5.9
		c2.6-1.9,6-2.9,9.2-3.8c2.1-0.5,2.2-0.1,3.9-1.7c-0.9-3.9-1.9-7.8-2.6-11c2.3-3,3.9-5.2,5.6-7.4c0.3,0.2,0.7,0.3,1,0.5
		c-0.2,1.1-0.8,2.4-0.6,3.4c0.2,1,1.1,1.9,1.7,2.8c-0.7,0.9-1.5,1.9-2.3,2.8c-2.1,2.6-1.2,5.5,1.9,6.8c0.8,0.4,1.5,1.1,2.3,1.8
		c2.1-0.8,4.3-1.7,6.3-2.5c1,1.2,2.1,2.6,3.2,4c4.2-2.8,7.8-5.6,12.3-6.4c3,3.3,3.4,3.2,6.3,0.2c0.6-0.6,1.8-0.7,3.2-1.2
		c-0.2-1.5-0.2-3.3-0.7-5c-0.9-2.8,0.7-4.9,1.7-7.2c0.3-0.6,1.5-0.7,2.4-1.1c1.1,1.2,2.1,2.3,3.2,3.6c3.6-1.4,1.4-4.4,2.3-6.6
		c-3.4-0.3-2.7-3.1-3.8-4.8c4.1-3.7,8.4-3.4,12.7-2c2.1-1.5,3.9-2.9,5.8-4.3c-1.2-0.9-2.5-1.9-4.2-3.1c-4.7,1.2-9.9,2.5-15,3.7
		c-2.1-1.2-4.4-2.5-6.4-3.7c-0.6-3.4-1.4-6.9-1.9-10.4c-0.1-1,0-2.4,0.6-3c3.4-2.8,5.1-6.8,7.7-10.1c0.5-0.7,1.4-1.1,2.1-1.6
		c-0.3-4.7-1.3-5.2-9.1-4.6c-2.1,1.6-3.1,4.1-2.6,6.2c0.8,3.3-0.9,5-2.7,6.9c-0.9,1-1.9,1.8-3,2.5c-4.8,3.2-4.5,8.2-4.5,13.1
		c0,0.7,0.8,1.8,1.4,2.1c3.4,1.3,4,3.9,3.7,7.1c-1.5-0.4-3-0.7-4.5-1.1c1.2,2.2,3,1,4.5,1c-0.3,0.5-0.6,1.1-1.1,1.4
		c-2,1.5-4.7,2.4-4.1,6c0.4,2.6,0.1,5.2,0.1,8c-1.3,0.8-2.5,2.6-4.8,2.2c-0.6-0.1-1.9,0.8-2,1.4c-0.5,2.2-2.2,1.5-3.9,2.2
		c-0.3-4.2-2.2-7.5-4.1-10.8c-1.8-3.3-1.5-7.7-4.7-11.1c0.1,0.9,0.2,1.5,0.1,1.7c-2.2,2.1-4.2,4.4-6.8,6c-3.5,2.1-6-0.3-8.5-2.4
		c0.7-1,1.6-1.8,1.8-2.6c0.4-2-1.7-0.8-2.6-1.6c0.5-1.7,3.9-1.9,2.4-4.4c-0.8-1.4-1.9-2.7-3-4.2c1.4-0.3,2.4-0.4,4.2-0.8
		c-1.7-0.2-2.6-0.3-4-0.4c0.2-1.1,0.1-2.4,0.5-3.4c0.4-1.1,2.2-2.4,2.9-2.8c1.1-0.5,2.2-1.1,3.5-1.8c-0.6-0.7-0.9-1.1-1.6-1.9
		c2.6,0.6,4.3-0.2,5.5-2.2c0.3-0.5,1.3-0.6,2-0.9c1.9,0.6,3.7,1.2,4-1.6c-1.3,0.5-2.7,1.1-4.1,1.6c1.3-2.6,2.2-5.2,4.8-7.1
		c3.5-2.5,3.9-7,5-10.9c0.4-1.5,1-3.3,2.1-4.1c1.2-0.9,1.5-2.1,2-3.2c1.3-2.9,2.5-5.7,7.2-5.8c-1.7-0.8-2.4-1.1-3.7-1.8
		c1.3-0.7,2.3-1.3,3.7-2.1c-1.2-1-2-1.5-2.3-2.1c-0.2-0.5,0.1-1.3,0.3-2.4c1.4,0.7,2.4,1.1,3.4,1.6c1.8-1.2,2.4-4.8,5.8-2.6
		c0.3,0.2,1.8-1.4,2.9-2.3c-0.2-0.4-0.5-1.1-1.3-2.9c2.4,0.9,3.9,1.5,5.4,2c0.9-2.6,2.2-5.1,5.8-6.6c-0.3,2.4-0.6,4-0.8,5.7
		c0.2,0.1,0.4,0.1,0.6,0.2c0.8-1.6,1.6-3.3,2.5-5.1c0.3,1,0.6,1.6,1.1,3.2c0.7-1.7,1-2.9,1.6-3.9c0.4-0.6,1.4-1.4,1.9-1.2
		c1.1,0.3,0.9,1,0.2,2c-0.3,0.4,0.5,1.6,1,3.3c0.8-1.9,1.1-2.7,1.6-3.8c2.3,0.9,4.4,1.7,7.2,2.8c-2,1.3-3.5,2.1-5.1,3.1
		c0.4,3,3.3,0.7,4.7,1.7c1.8,1.3,3.1-3.6,4.7,0c-0.4,0.2-0.9,0.6-2.4,1.4c2.7,0.3,4.5,0.5,6.3,0.6c3.2,0.1,6.2,0.2,9,2.1
		c3.7,2.4,7.6,4.6,11.4,7c2,1.2,3.6,2.9,3,5.4c-0.5,2.4-1.7,4.7-4.3,5.2c-2.1,0.5-4.5,0.8-6.5,0.3c-4.7-1.1-9.3-2.7-14-4.1
		c0.9,2.3,2.7,3.9,5.2,4.8c1.7,0.6,2.9,1.7,2.4,3.2c-0.8,2.9,1.1,5.2,2.2,7c1.4,2.2,4.4,3.6,7.4,3.8c0.5,0,1.6-0.8,1.6-1.2
		c0-0.7-0.6-1.5-1.2-2c-0.4-0.3-1.2-0.1-1.7-0.3c-1.9-0.9-2.2-1.9-1.1-4.8c2.8,1.3,5.6,2.6,8.4,3.8c2-2.2,2-2.2-0.6-6.3
		c1.8-2.1,3.7-4.2,5.9-6.7c1.9,0.4,3.9,0.9,6,1.3c0.1-2.5,1.1-4.9-1.7-6.5c-0.5-0.3-0.3-1.6-0.4-2.5c-0.3-2.1-0.5-4.2-0.8-6.4
		c3.2-1.3,5.6,0.2,7.4,3.5c-1.1,0.9-2.3,1.8-3.6,2.9c0.8,0.9,1.3,1.6,1.9,2.2c3.1,3,5.4,2.4,6.6-1.7c0.2-0.6,0.5-1.3,0.9-1.8
		c1-1,2.5-1.8,3.2-2.9c2.1-3.7,7.2-3,9.2-6.6c0.7,0.4,1.8,0.7,1.9,1.2c0.2,0.7-0.4,1.6-0.7,2.4c3.6,1.7,4.6-3,7.1-2.9
		c3.1,0.2,4.7-2.3,7.5-3.1c0.6,1.4,1.2,2.6,1.9,4.2c1.4-1.8,2.5-3.2,3.7-4.7c-1-1.4-1.9-3.2-3.3-4.4c-1.3-1.1-3.1-1.6-4.6-2.4
		c-1.9-1-1.9-1-1.5-4.2c0.6,0.4,1.1,0.6,1.5,1c2.9,2.9,6.4,3.9,10.6,3.5c2.1-0.2,4.3,0.9,6.4,1.5c1.2,0.4,2.4,0.9,3.5,1.5
		c3.3,1.6,6.5,3.3,10,5.1c0.1-1.1,0.2-2.5,0.4-3.9c-1.1-0.7-2.2-1.2-3.1-1.9c-1.8-1.5-5.2-6.7-6.5-9.5c-0.2-0.5-0.6-1.1-1-1.4
		c-2.5-1.7-2.2-3.8-0.7-5.7c1.3-1.6,1.4-3.2,1.2-5c-0.2-2.5-0.4-5-0.6-7.7c3.3-1,6.4-1.4,10,0.6c0.3,2.4,0.9,5.2,1,7.9
		c0.1,1.6,0.3,3,1.7,3.8c2.1,1.3,2.8,3.3,3.4,5.5c0.8,2.9,1.9,5.7,2.9,8.5c0.2,0.7,0.5,1.7,1,1.9c3.4,1.5,4.1,4.9,4.1,7.7
		c0.1,3.2-1.3,6.5-2.2,10c-2.8-0.5-5-3.1-7.7,0c3.8,0.8,7.4,1.5,10.8,2.1c0.8-1.9,1.6-3.1,2-4.5c0.8-2.6,1.6-5.3,2-8
		c0.1-0.9-1-2.1-1.7-3c-1.5-2.1-1.4-2.8,0.6-4.4C870.3,169.2,871.5,168.6,872.6,168c1.8,2.8,3.3,5.8,5.2,8.5c0.6,0.8,2.2,1,3.4,1.4
		c-2.6-1.7-3.2-2.3-3.3-3.9C877.6,169.2,877.1,168.7,872.6,168z M924.8,102.3c0.1-1.6-0.4-2.3-2.1-1.9c0.1,1.7,0.7,2.3,2.2,1.8
		c-1,1.1-1.8,2.4-3,3.3c-1,0.9-2.1,1.8-3.4,2c-1,0.2-2.2-0.6-3.4-1c0.4,1.6,0.8,3.1,1.2,4.6c3,0.6,3.8,0.1,5.1-2.7
		c0.4-0.9,1.3-1.6,2-2.3c1.3-1.1,2.7-2.1,4.5-3.5C926.5,102.5,925.7,102.4,924.8,102.3z M763.3,301.9c-2.2,1.7-3.5,2.4-4.3,3.5
		c-1.2,1.8-1.6,4.7-3.2,5.6c-2.6,1.4-2.3,3.3-2.7,5.4c-0.1,0.7-0.5,1.4-0.9,1.9c-2,2.1-1.6,4.1-0.3,6.4c1.3,2.2,3,3.5,5.7,3.3
		c1.8-0.1,3.5,0,5.5,0c1.6-2.8,4.7-3.6,7.6-3.8c2.8-0.2,6.2-0.2,8.3,1.2c4.4,3,9,2.5,13.7,2.7c2.2,0.1,4.2-1,4.7-2.8
		c0.4-1.4-0.4-3.4-1.1-5c-0.5-0.9-1.8-1.5-2.8-2.1c-3.9-2.4-7.8-4.8-11.6-7.3c-0.6-0.4-0.9-1.1-1.1-1.3c0.8-1.2,1.2-2.4,2.1-3.1
		c1.6-1.2,0.5-2.2,0.3-2.7c1-1.2,1.8-2.2,3.2-3.9c-6.3,0.7-10.8,3.7-15.7,5.9c1.3,1.2,2.4,2.2,3.4,3c1.6,0.6,3.3-1.3,5.2,0.3
		c-3.5,1.4-6.5,2.6-9.2,3.7c-1.2-1.6-2.2-3-3.8-5.2c0.8-0.2,1.8-0.5,2.6-0.7C767.1,304.6,763.1,307.5,763.3,301.9z M843.1,345
		c-0.4-2.6-0.6-5-1.3-7.3c-0.6-2-1.3-5-2.8-5.6c-2.6-1-2.6-2.3-2.4-4.4c0.1-0.8-0.5-1.7-0.7-2.5c-0.6-1.9-1.2-3.8-2-6.2
		c-1-0.6-2.9-1.3-4.2-2.6c-1.4-1.4-2.4-3.4-3.5-5.1c0.7-0.2,1.4-0.4,2.1-0.5c-0.2-4.2,0.1-4.4,5.3-3.8c-0.7-2.4,1.3-5.3-1.4-7.4
		c-3.7,0-7.6-0.5-10.7,2.3c-1.2,1.1-2.3,2.5-3.7,3.1c-3.2,1.2-3.9,3.7-4.2,5.6c1.5,2.8,2.4,4.8,3.6,6.8c1.1,1.8,2.3,3.4,3.5,5.1
		c0.8,1.1,1.8,2,2.7,3c1.3,1.5,2.6,2.9,3.8,4.3c-2.1,2.4-2.9,5.5-2.9,8.7c0,2.2,0.6,4.5,3.8,4.5c0.8,0,1.4,1.1,2.3,1.3
		c2.2,0.6,4.5,1.4,6.8,1.6C839.1,346,841.1,345.3,843.1,345z M996.8,265c2.3,0,4.8-0.3,5.5-2.2c1.1-2.8,3.4-4.4,5-6.6
		c1.6-2.2,3.2-4.7,2.7-7.7c-0.4-2.2-1-4.3-1.6-6.4c-0.3-1-0.8-2-1.2-3c-0.3,0-0.6,0.1-1,0.1c-0.2,3.9,0.5,8-1,11.8
		c-1.6,3.8-3.2,7.6-4.9,11.5c-1.1-0.3-1.9-0.5-2.5-0.7C997.5,262.8,997.2,263.8,996.8,265z M777.4,493.7c1.6-3,2.9-5.3,4.3-7.8
		c-2.4-3.2-5.5-1.8-8.9-1.1c0,3.1,0,6,0,8.9C774.6,493.7,776.3,493.7,777.4,493.7z M749.2,230.6c1.6,2.3,3.1,4.4,4.6,6.6
		c5.1-2.6,5.3-4.1,1.1-7.5c-1-0.8-2.1-1.6-3.3-2.5C750.8,228.4,750,229.5,749.2,230.6z M853.9,310.1c2.2,0.9,4.5,2.2,6.2-0.1
		c1.6-2.1,1.5-4.6-0.4-6.8C853.9,304.3,853.7,304.6,853.9,310.1z M768.3,515.3c0.3-0.1,0.6-0.2,0.9-0.2c-0.1-0.7-0.2-1.3-0.5-2
		c-0.8-2.2-1.9-4.2-3.2-6.2c-1.2-1.7-0.6-4.6-1-6.9c-0.1-0.6-0.9-1.1-1.7-1.8C761.8,505.2,765.3,510.2,768.3,515.3z M783,536
		c-0.2-2.6-1-4.9-0.5-6.8c1-3.3-1-5.9-1.4-8.9c0-0.2-0.7-0.4-0.8-0.4c-0.2,3.2-0.7,6.4-0.5,9.5C780,531.5,780.3,534.1,783,536z
		 M765.5,223.6c-1.6,0.5-2.7,0.8-4.3,1.3c1.8,2.4,3.4,4.5,5.1,6.9c0.4-0.3,1.5-0.9,1.4-1.2C767.1,228.3,766.3,226,765.5,223.6z
		 M908.3,297c-2.6,0-4.5,1.1-4.9,3.2c-0.3,1.3-0.8,3.2,1.6,3.3C906.1,301.3,907.2,299.1,908.3,297z M932.7,287.9
		c4.8,2.6,4.8,2.6,7,1.4c-2.1-1.4-4.2-2.7-6.3-4.1C933.2,286,933,286.8,932.7,287.9z M744.2,226.9c-1.1,1.2-2,2.2-3,3.4
		c1,0.4,1.5,0.7,2,0.9c0.4,0.1,0.8,0.2,1.2,0.3c0.9-5.2,0.8-5.4-1.8-6.6C743,225.6,743.5,226.1,744.2,226.9z M749.5,331.8
		c2.5-0.7,5.6,1.6,6.8-2.7C753.8,329.2,751,327.7,749.5,331.8z M696,248.4c2.2-0.8,3.5-1.2,4.8-1.7c-0.1-1.9,0.8-3.8-2-4.2
		C698,244.3,697.2,246,696,248.4z M778.3,247.2c0.6-3.1-2-3.3-3.2-4.8C774.1,245.3,775.5,246.3,778.3,247.2z M1104.1,292.7
		c0.5-1.4,1.4-2.8-0.2-4.1c-0.2-0.2-1-0.1-1.1,0.2c-1.1,1.5-0.4,2.7,0.6,3.8C1103.5,292.6,1103.6,292.6,1104.1,292.7z M981.3,239.7
		c1.1-0.7,1.6-1,2.2-1.3c-0.2-0.3-0.4-0.6-0.6-0.8c-0.8,0.6-2.1,1.1-2.4,1.9c-0.6,1.6,0.6,2.8,1.9,3.5c0.2,0.1,0.5-0.1,1-0.3
		C982.8,241.8,982.2,240.9,981.3,239.7z M961.6,273.2c-0.6,0.8-1.3,1.3-1.3,1.7c0,0.6,0.7,1.1,1.1,1.6c0.5-0.4,1.3-0.8,1.3-1.3
		C962.7,274.7,962.1,274.1,961.6,273.2z M799.8,292.9c-0.6,1.4-1.2,2.9-2,4.6C800.7,296.8,798.8,294.2,799.8,292.9z M658.5,455.4
		c0.2-0.2,0.5-0.4,0.7-0.7c-0.8-0.8-1.7-1.5-2.5-2.3c-0.2,0.2-0.3,0.3-0.5,0.5C657,453.8,657.8,454.6,658.5,455.4z M775.6,478.9
		c0,0.3-0.1,0.6-0.1,0.9c1,0.2,2.1,0.3,3.1,0.5c0-0.3,0.1-0.6,0.1-0.9C777.7,479.2,776.6,479.1,775.6,478.9z M737.8,211.2
		c-0.2,0.3-0.4,0.6-0.6,0.9c0.5,1.2,1,2.1,3.1,0.7C739.3,212.1,738.5,211.6,737.8,211.2z M737,181.3c-1.6,0.5-2.6,1.3-1.2,3.5
		C736.3,183.2,736.6,182.2,737,181.3z M1053.7,371.3c-1.3,0.3-2.2,0.5-4,1c1.7,0.7,2.6,1,3.7,1.4
		C1053.5,372.9,1053.6,372.3,1053.7,371.3z M742.2,247.4c1.9-1.4,2-2.4,0.8-3.3c-0.2-0.1-0.8,0-0.8,0
		C742.2,245,742.2,245.9,742.2,247.4z M774.4,299.1c-0.1-0.3-0.1-0.7-0.2-1c-1.2,0.3-2.4,0.6-3.5,0.8c0,0.1,0.1,0.3,0.1,0.4
		C771.9,299.3,773.1,299.2,774.4,299.1z M1066.6,373.3c0.5-2.1,0-2.9-2.2-2.7C1065.1,371.6,1065.7,372.3,1066.6,373.3z M702.6,249.3
		c0.2,0,0.5,0.1,0.7,0.1c0.3-0.9,0.5-1.7,0.8-2.6c-0.3-0.1-0.6-0.1-0.9-0.2C702.9,247.5,702.7,248.4,702.6,249.3z M791.1,250.4
		c0-0.1,0-0.2,0-0.3c-1.1,0-2.2,0-3.4,0c0,0.1,0,0.2,0,0.3C788.9,250.4,790,250.4,791.1,250.4z M761.3,217.2
		c0.3-0.2,0.6-0.5,0.9-0.7c-0.6-0.8-1.2-1.5-1.8-2.3c-0.2,0.2-0.5,0.3-0.7,0.5C760.3,215.5,760.8,216.3,761.3,217.2z M890.1,158.8
		c0,0.2-0.1,0.5-0.1,0.7c0.9,0.1,1.9,0.3,2.8,0.4c0-0.2,0.1-0.4,0.1-0.5C892,159.3,891,159.1,890.1,158.8z M768.4,479.9
		c0.3,0.2,0.5,0.3,0.8,0.5c0.5-0.8,1.1-1.6,1.6-2.4c-0.2-0.1-0.4-0.2-0.6-0.4C769.6,478.4,769,479.1,768.4,479.9z M906.5,255
		c-0.7,0.1-1.5,0.2-2.2,0.3c0.1,0.3,0.2,0.6,0.3,0.9 M745.1,217.8c-0.1,0.3-0.2,0.5-0.3,0.8c0.8,0.3,1.6,0.7,2.4,1
		c0.1-0.3,0.2-0.5,0.3-0.8C746.7,218.5,745.9,218.1,745.1,217.8z"/>
	<path d="M239.4,212.5c-0.5-1.8-1.1-3.7-1.6-5.7c-0.4,0.9-0.8,1.9-1.2,2.9c-3.3-0.1-1.2-4.2-4.2-4.8c0.2,1.2,0.4,2.3,0.7,3.6
		c-0.6,0-1.4,0.2-1.7,0c-0.8-0.9-2-1.9-1.9-2.9c0.1-2.9-1.8-4.4-3.4-6.1c0.5-0.8,0.9-1.6,1.5-2.7c-2.3-0.1-4,0.1-5.6-2.1
		c-1.2-1.7-4.6-1.9-7.1-2.8c-0.6-0.9-1.2-2.7-2.2-3c-2.6-0.9-3.3-2.7-3.5-4.8c-1.7-0.9-3.1-1.6-4.7-2.4c-1.2,0.5-2.1,1.2-2,3.1
		c0.2,3.1-1.2,3.8-4.2,4.4c-2.7,0.5-5.1,2-7.7,3c-1,0.4-2.1,0.7-3.2,1.1c-0.2-0.3-0.3-0.6-0.5-0.9c1.1-0.6,2.3-1.3,3.5-2
		c-0.4-0.5-0.8-1-1.1-1.5c1.3-2,2.6-4,4-5.9c1.6-2.2,3.8-1.9,6.8-0.7c-0.3-1.6-0.1-3.1-0.8-3.6c-0.6-0.5-2.2-0.1-3.1,0.4
		c-2.5,1.4-4.8,2.9-7.1,4.6c-1.3,1-2,2.6-3.3,3.5c-1.3,0.8-3,0.9-4.5,1.5c-0.5,0.2-0.9,0.8-1.6,1.3c0.6,1,1.1,1.9,1.7,3
		c-0.3,0.4-0.5,0.8-0.9,1c-3.7,2-7.5,4.2-10.8,6.5c-4.5,3.2-9.5,5.6-14.1,8.7c-3.1,2.1-7,3.6-11.3,2.4c-2.3,2.5-2.3,2.5-6,2.3
		c3.1-2.3,5-6.2,9.9-3.7c0.9-4,4.8-4.5,7.7-6c4.4-2.3,8-5.2,10.3-9.8c0.7-1.5,2.3-2.6,3.7-4.2c-2.4,0-4.5,0.1-6.6-0.1
		c-0.7-0.1-1.4-0.7-2-1.2c-1.3-1.1-2.6-2.3-4.4-1.2c-2-3.6,2.1-6.3,0.9-9.6c-1.9-0.4-4.5,2-5.5-0.8c-1-2.6-3.2-5.8,1-7.5
		c-0.6-2.3-1-4.2-1.5-6.2c4-2.4,6-7.7,11.6-7.4c0,0-0.1,0-0.1,0c1-1.3,2.1-2.4,4-2.4c1.2,0,2.6-0.6,3.7-1.3c1.2-0.9,2.2-1,3.6-0.6
		c2.3,0.6,4.1-0.8,5-3.1c0.9-2.5,2-4.9,3.2-7.6c-1.2-0.6-2.7,0.2-4,0.8c-1.8,0.9-3.4,1.5-5.3,0.2c-0.8-0.5-2-0.5-3-0.5
		c-2.8-0.1-4.6-1.1-4.8-2.8c-0.2-1.6,1.8-4.2,3.9-5.1c-1.2-1.3-2.3-2.6-3.6-4.2c2.7-2,5.3-3.2,8.5-3.5c2.8-0.2,5.3-2.8,8.8-1.2
		c-0.7,1.2-1.2,2.1-1.8,3.2c0.2,0.3,0.4,0.8,0.7,1c2.2,1.5,4.4,3.1,7.1,0.9c2.3,0.9,1.5-0.9,1.6-1.9c1.3,0.6,2.7,1.2,5,2.2
		c-0.7-1.7-0.8-2.9-1.2-3c-1.2-0.3-2.5-0.1-3.7-0.2c0-1.4,0-2.9,0-4.6c-0.9-0.5-2-1.2-2.9-1.8c0.3-2.6,0.9-4.9,0.6-7.2
		c-0.2-2.2-1.2-4.3-1.9-6.5c1.5-1.8,2.9-3.5,4.5-5.3c5.3,3.3,9.3,1,13.4-2.4c3.3-2.7,6.8-5.4,11.6-4.9c1.5,0.2,3.7,0.4,4-2.3
		c0-0.4,1.6-1.1,2.2-0.9c3.9,1.3,7.6,0.8,10.9-1.7c0.7,1,1.2,1.7,2,2.8c-1.6,0.4-2.8,0.8-4,1.1c-0.4,1.9,0.9,2.6,2.6,1.4
		c0.6-0.4,1.1-0.9,2.1-1.6c0.1,1.2,0.1,1.9,0.1,2.6c1.6,0.4,3.1,0.7,4.2,1c0.5,2.7,0.9,5.1,1.3,7.4c1.9-0.3,3.4-0.5,4.7-0.7
		c3.8,5.2,8.5,8.7,15.2,9.6c0.9,3.1,3.5,5,6.3,6.7c1.7,0.9,2.6,2.2,3,4.1c0.8,3.6,3.2,5.9,7,7.1c0.2,1,0.4,2.2,0.8,4.2
		c1.7-2.7,0.6-5.8,3.3-7c0,0-0.1,0.1-0.1,0.1c4.6-1.1,9.1-2.3,13.7-3.4c1.2-0.3,2.5-0.4,3.8-0.3c-1.7,2.2-4,2.7-6.5,3.2
		c-2.2,0.4-4.3,1.3-6.5,1.9c0.1,0.3,0.2,0.6,0.2,0.9c2.1-0.5,4.1-0.9,6.2-1.4c3-0.8,5.8-2,9.2-2c1.8,0,4.2-1.3,4.1-5.1
		c2.4,4.6-1.5,8.5,1.2,12.2c1.6-1.3,3.1-2.5,4.6-3.7c0.2,0.1,0.5,0.2,0.7,0.3c-0.4,1.4-0.8,2.8-1.3,4.4c2.5,2.1,3.5-1.2,5.2-2
		c2,0.3,3.8,0.9,4.6,3.1c1.6,4.7,6,6.4,9.7,8.8c0.7,0.5,2,0.1,3.5,0.1c0.6,1.7,1.2,3.5,1.8,5.1c-2.2,1.7-5.6-0.3-6.3,3.2
		c4.1,4,7.5,4.7,14.5,3.1c2.6,2.8,2.1,6.5,2.6,10c1.8,0,2.8-0.7,2.9-2.4c0.1-1.2,0.5-2.3,0.5-3.5c0.1-1.8,1.2-2.5,2.8-3
		c2.3-0.8,4.6-1.8,7.3-2.9c-1.8-1.6-3.1-0.4-4.3-0.2c-1.3,0.3-2.6,0.4-4.4,0.7c0.3-1.1,0.5-2.7,0.9-2.7c2.7-0.3,5.4-1.5,8.1-0.4
		c0.3,2.4,0.5,4.6,0.7,6.2c1.9,1.6,3.4,2.9,4.9,4.3c1.5,1.3,2.8,2.2,5.1,1.6c2-0.5,4.3,0.3,6.7,0.6c1.2-1.8,1.5-4.8,4.8-4.4
		c1,1.1,1.9,2.3,3.1,3.7c-0.7,0.9-1.7,2.2-2.8,3.7c0.5,1.2,1,2.5,1.6,4c-0.9,0.2-1.4,0.3-2,0.4c0.2,0.1,0.3,0.3,0.5,0.3
		c2.1,0.3,3-0.7,3-2.8c0-2.8,0.7-4.5,4-5.3c2.2-0.5,5.1-2.1,5-5.5c-0.7,0-1.3,0-2.9,0c2-1.5,3.4-2.4,5-3.6c-1.1-0.9-2.5-1.9-3.8-3
		c-2.7-2.4-2.7-4.4-0.4-7.2c0.4-0.5,0.5-1.4,0.6-2.1c0.4-2.6,1.8-4.1,4.6-4.6c0.4-0.1,1.2-0.8,1.1-0.9c-1.1-2.8,1.8-2.3,2.5-3.7
		c3.3,1.9,2.9,5,3,7.6c0.1,2.7-0.4,5.5-0.6,8.6c-1.1,1-2.5,2.4-4.3,4.2c1.5,0.8,2.7,1.4,4,2.1c-0.2,2.5-0.5,5.2-0.7,8.1
		c3.1-0.5,2.6-4.2,5-5.3c1.4,2.4,2.5,4.5,0.1,7.4c-1.9,2.2-0.9,5.1,0.5,7.8c0.8-0.3,1.8-0.5,2.3-1c1.8-2.3,3-5.4,5.3-7.1
		c2.9-2,3.9-4.4,4.3-7.6c0.2-1.7,2-2.4,3.5-1.2c1.6,1.3,4.2,1.4,4.5,4.2c0.1,0.8,0.9,1.5,1.7,2.6c-0.3,0.7-0.6,2.4-1.5,3.7
		c-0.4,0.5-1.9,0.2-3.1,0.3c-0.4,2-0.9,4.3,0.4,6.6c0.3,0.6-0.2,2.2-0.8,2.7c-2.4,1.9-5.1,3.4-8,5.3c-0.7-2.3-1.2-3.9-1.8-5.6
		c-0.2,0.1-0.5,0.1-0.7,0.2c0.4,1.6,0.8,3.1,1.4,5.5c-3-1.3-5.2-2.3-8.2-3.7c0.5,1.9,0.7,2.8,1.1,3.9c-2.6,1.6-4.1,5.1-8,5
		c-0.7-2.2-1.9-4.1-4-5.4c0.2,4.1,0.7,4.7,4.1,5.3c0.6,0.4,1.2,0.8,2.1,1.4c-1.5,1.5-2.8,3-4.3,4.4c-3,3-3.1,3-6.7,0.9
		c-2.5,3.6-2.6,3.6-6.1,2.7c-0.2,1.5,2.6,3.1,0.4,4.3c-1.3,0.7-3.3,0.1-4.9,0.1c0.6,2.4-1.5,3.6-3,4.4c-2.2,1.1-3.5,2.7-4.7,4.5
		c-2.1,3.1-5.4,5.1-6.4,9c-0.7,2.8-2.4,5.4-1.2,8.4c1-0.2,1.9-0.4,2.5-0.6c1.4,0.7,1.4,7.5,0.3,10.7c0.3,0.1,0.6,0.2,0.8,0.2
		c5-2.1,8.6,0.8,11.3,4c4.5,5.5,9.6,9.5,17.2,9.6c-1.1,4.2-2.2,8.1-3.3,12.4c1.3,2.5,2.7,5.5,4.3,8.2c0.3,0.5,2,0.7,2.5,0.3
		c1.3-1.1,1.8-0.5,2.3,0.8c2.5-6,1.8-12.3,2.2-18.2c4.2-2.4,8.4-4.8,12.6-7.2c-0.5-5.3,1.5-10.8-3.6-15c2.3-2.4,4.5-4.8,6.8-7.2
		c-0.2-2-0.4-4.2-0.7-6.6c1.3-1.6,2.9-3.1,1.7-6.3c-0.9-2.4,2.4-4.2,5.3-2.7c2.7,1.4,5.4,2.3,8.7,1.3c0.7,0.8,1.9,1.6,2.1,2.6
		c1.1,4.3,3.6,7,7.5,7.9c-0.7,3.1-1.2,6.2-2.1,9.1c-1.3,4,3.9,4.1,3.5,7.4c7.3-1.2,9.8-6.8,13.2-12.5c0.7,3.3,0.9,5.9,1.8,8.2
		c0.8,2.1-0.8,4.5,0.5,5.9c1.9,2,1.4,4.9,3.3,7.1c-0.9,0.8-1.8,1.7-2.8,2.6c1.6,2.4,3.3,4.7,5.1,7.4c1.9,0.9,4.4,2.2,6.8,3.4
		c-0.1,1.9-4.4,0.5-2.4,3.6c-3.3-1.2-4.4-0.8-7.2,3.3c2-1.1,3.1-1.8,4.4-2.4c0.9-0.4,1.9-0.6,2.8-0.9c0.5-0.3,0.9-0.9,1.4-1
		c2.4-0.2,5.7,4,5.2,6.4c-0.1,0.4-0.4,0.8-0.4,1.3c-0.1,1.2,0.2,3.1-0.4,3.5c-1.6,1.2-3.6,1.9-5.6,2.5c-1.5,0.4-3.3,0-4.4,1.7
		c-2.5,3.9-6.6,3.6-10.4,3.5c-3.9-0.2-7.7-0.6-11.6-1.2c-2.7-0.4-4.8,0.5-6.2,2.5c-1,1.5-2.3,2-3.8,2.8c-2.5,1.4-4.8,3.3-7.1,5
		c0.2,0.3,0.4,0.6,0.6,0.9c0.9-0.5,1.8-1.1,2.7-1.5c3.3-1.3,6.6-2.7,10-3.6c2.1-0.6,4.2-0.1,5,2.7c-0.9,2.4-3.2,2.3-5.3,3.3
		c1,0.2,2,0.4,3,0.7c-1.8,5.6,0.4,9.1,6.3,9.9c1.4,0.2,2.8,0.5,4.3,0.8l-0.1-0.1c-2.1,2.8-5.4,3-8.4,3.7c-1.4,0.3-2.3,0.6-3.2,1.6
		c-1.2,1.3-2.7,2.2-4.1,3.3c-2.6-3.6-2.6-3.6,4.1-8.5c-3,0.4-5.2,0.7-7.4,1c-2.1,4.8-7.5,2.5-10.8,5.1c-3.6,2.8-5.4,6.3-3.5,10.5
		c-3.1,0.5-6.2,0.9-9.2,1.7c-2.5,0.6-4.5,1.7-4.8,5c-0.2,2.8-2,3.9-4.3,4.2c-0.6,2.1-1.1,4.1-1.7,6c-0.4,0-0.8,0.1-1.2,0.1
		c-0.6-1.7-1.3-3.5-2.2-5.9c-0.1,4-1.1,7.2,0.3,10.5c0.7,1.7,0,2.9-2.1,3.2c0.7,0.6,1.3,1.1,1.9,1.6c-0.1,0.4-0.1,0.8-0.3,1
		c-3.8,3.6-8.9,5.6-12.3,9.8c-0.6,0.8-1.7,1.2-2.6,1.6c-5.5,2.5-7.3,5.7-6.4,11.8c0.5,3.4,1.1,6.8,2.1,10c1.1,3.4,0,6-2,8.9
		c-0.9-0.7-1.7-1-2-1.5c-1.8-4-4.9-7.5-4-12.5c0.3-1.4-1.6-3.3-2.6-4.9c-1.5-2.3-3.1-0.2-4.6,0.1c-4.5-3.8-9.7-3.3-14.8-2.4
		c-0.7,0.1-1.4,1-1.7,1.7c-1.7,3.7-3,4-6.1,1.8c-0.7-0.5-1.8-0.5-2.7-0.7c-1.4-0.2-2.9-0.6-4.3-0.5c-2.2,0.2-4.7,0-6.3,2.4
		c-0.5,0.8-1.7,1.5-2.7,1.5c-4.3,0.1-5.6,3-6.2,6.4c-1.1,5.6-2,11.3-2.8,16.9c-0.6,4.1-0.1,7.8,2.5,11.4c1.7,2.3,2.9,4.5,5.6,6
		c2.1,1.1,3.5,1.6,5.7,0.7c2.2-0.9,4.5-1.6,7,0.6c1.6-3.5,2.9-6.5,4.4-9.5c0.4-0.8,0.9-1.9,1.6-2c3.6-0.8,7.2-1.3,10.8-1.9
		c1.4,3.4-1.7,4.3-2.3,6.3c-0.5,2-0.7,4-1,6.1c-0.8,0.1-1.5,0.1-1.9,0.1c-0.7,3.2-1.4,6.2-2.2,9.8c5.8,1,12.8-2,19.1,3.1
		c-0.6,2.6-1.2,6.1-2.2,9.4c-1.5,5.2,2,11.6,7.3,12.5c1.1,0.2,2.4,0,3.4-0.4c6-2.5,7.7-2.2,12,2.7c0.3,0.3,0.6,0.7,1.1,1.2
		c0.2-1.1,0.1-2.2,0.6-2.6c2.3-2,3.6-4.7,5.2-7.2c0.8-1.2,3.1-2,4.7-2.2c2.7-0.3,4.7-1.6,6.7-3.2c0.7-0.5,1.8-0.5,2.6-0.7
		c1.1,2.4-4.1,2.8-1,5.4c1.9-0.6,3.8-1.4,5.8-1.8c3.6-0.8,5.4,0.1,7.2,3.5c1.2-0.1,2.5-0.3,3.9-0.5c0.7-0.1,1.8-0.5,2.2-0.2
		c2.9,2.6,5.5,0.9,8.2-0.2c1.2-0.5,2.6-0.4,4.2-0.7c-0.9,2.3,0.2,2.9,2,3.5c1.7,0.7,4.4,0.9,3.4,4.3c4.8-0.6,6.7,2.7,9.4,5.6
		c1.9,2.1,4.5,4.3,8,4.1c3.1-0.2,6.1,0,9.2,1.2c4.4,1.8,7.6,4.4,9.2,9c0.7,2.2,2.3,4.1,3.7,6.4c0.2,3.6-5,4.2-5.5,7.9
		c2.6,1.6,3.2-1.6,4.8-1.8c1.8-0.3,3.7-0.1,6.3-0.1c-0.7,1.9-1.2,3.1-1.6,4.3c-1.4,0.5-2.9,1-4.5,1.5c1,0.5,1.7,0.8,2.8,1.3
		c0.5-1,1.1-1.9,1.6-2.9c0.6-0.1,1.4,0.1,1.6-0.2c1.9-2.8,4.2-2,6.7-1.2c1.9,0.7,3.3,2.2,5.6,2.3c0.8,0,1.4,2.5,2.3,4.1
		c2-1.4,4.6-1.4,7.4-0.5c1.5,0.5,3.3,0.5,4.9,0.4c3.4-0.2,6.2,1.2,8.5,3.4c2.6,2.6,5,5,9,5.1c0.7,0,1.7,0.8,2,1.5
		c3.2,5.5,2.6,11-1.9,15.6c-2.5,2.6-5.1,5-6.3,8.5c-0.2,0.6-0.9,1.5-1.4,1.6c-3.5,0.2-2.8,2.8-2.6,4.7c0.4,5.5,1,11-1.8,16.2
		c1.3,5-4,8.1-3.8,12.8c0,1.4-5.1,4.1-6.8,4c-1.6-0.1-3.2-0.3-3.9-0.4c-2.8,1.9-5,3.2-7.1,4.7c-2.5,1.8-5.2,3.6-7.2,5.9
		c-1.5,1.6-1.9,4.2-0.9,6.3c0.9,2.1,0.4,3.8-0.5,5.5c-1.5,2.7-3.1,5.4-4.7,8.2c-0.4-0.3-0.9-0.7-1.8-1.4c-1,3.3-4.5,5-4.2,8.9
		c0,0.5-1.4,1.2-2.1,1.8c0.5,0.5,0.8,0.9,1.2,1.4c0.1,0.1,0,0.3,0.1,0.6c-0.8,0.9-1.7,1.9-2.4,3c-2.7,4.3-4.6,5.2-9.1,3.9
		c-2.6-0.7-5.2-1.7-8.2-2c1.8,1.4,3.6,2.7,5.6,4.3c-0.9,2.4-1,4.7,2.5,5.3c-1.7,3.6-1.8,7.4-6.4,8.7c-3.7,1.1-7.2,1.7-11.2,0.6
		c0,2.5-0.1,4.9,0,7.3c0.2,3-1.6,4.5-4.4,3.6c-1.3-0.4-2.5-1-3.7-1.4c-0.2-0.1-0.6,0.1-0.8,0.2c0.3,6.3,1.1,7.3,5.4,5.6
		c0.1,1.2,0.2,2.2,0.4,3.6c-1.4-0.6-2.4-1-4.5-1.8c2.2,2.9-0.4,4.1-0.5,5.9c-0.1,2,0.1,4,0.3,6.1c-3,0.7-6.1,1.8-5.9,4.8
		c0.1,3.8,3.7,4.9,6.7,5.7c1.2,2.9,0.3,4.9-1.6,6.7c-1.3,1.2-2.6,2.4-2,4.6c0.2,0.6-0.5,1.8-1.1,2.2c-2.8,1.8-3.1,4.1-1.6,6.9
		c0.7,1.3,1.1,2.7,1.6,4c-0.7,0.7-1.5,1.6-2.4,2.5c0,0,0.1-0.1,0.1-0.1c-1.9,0.3-2.8,1.4-2.9,3.4c0,1.3-0.2,2.6-0.3,4.5
		c-1.4-0.4-2.5-0.8-3.9-1.2c1-1.5,1.8-2.6,2.6-3.8c-0.2-0.2-0.4-0.4-0.6-0.6c-1.2,1.1-2.4,2.1-3.7,3.4c-1.2-1.2-2.2-2.5-3.5-3.5
		c-1.7-1.3-1.6-2.1,0.3-3c0.8-0.4,1.5-1.1,1.9-2.5c-1.2,0.5-2.5,0.9-4.1,1.5c-1.1-4.6-2.9-8.9-7.4-11.1c0-1.5,0-2.9,0-4.3
		c0.8-0.4,1.6-0.7,2.4-1.1c-0.6-2.7-1.3-5.3-2-8.5c-0.7-0.3-2-0.9-3.6-1.6c0.2-1.1,0.4-2.2,0.7-3.6c1.2,0.5,2.1,0.9,2.9,1.2
		c0.2-0.2,0.6-0.3,0.6-0.5c0.7-3,2.8-5.8,0.9-9.3c-0.9-1.7,0-4.4,0-6.6c0-1.4,0-2.9,0-4.4c-1.5,0.2-2.7,0.7-3.3,0.3
		c-0.9-0.6-1.6-1.8-1.9-2.9c-0.3-1.1-0.5-2.5,0-3.5c2-4.4-0.2-8.1-1.7-11.4c0.8-2.4,1.6-4.4,2.1-6.5c0.9-3.3,1.9-6.6,2.4-10
		c0.3-2.3,0-4.7-0.5-7c-1.3-6.5-0.8-12.8,0.1-19.3c0.6-3.9,0.1-7.9,0.1-11.9c0-2.3,0.3-4.7,0.2-7c-0.2-5-0.7-10-1-15.1
		c0-0.4-0.2-1-0.5-1.2c-3-2.4-6-4.8-9.2-7c-3.4-2.4-6.9-4.5-10.3-6.9c-0.8-0.6-1.4-1.5-1.9-2.4c-1.2-2.3-2.2-4.8-3.4-7.1
		c-1.9-3.5-3.8-7-5.8-10.5c-1.4-2.4-2.5-5.1-4.2-7.2c-1.2-1.5-3.3-2.5-5-3.7c-0.1-0.2-0.2-0.5-0.3-0.8l4.1-9.8
		c0.1-0.4,0.3-0.8,0.4-1.3c0-0.4-0.1-0.9-0.1-1.3c-3.5,0.1-4.7-2.3-3-5.7c1-2,1.9-4.1,3.2-6.9c1.3-0.5,3.3-1.6,4-4.3
		c0.2-0.9,1.7-1.5,2.6-2.2c1.9-1.6,4.2-3.1,2.3-6.2c-0.1-0.2,0-0.6,0-0.9c0.4-4.2-0.3-8-2.7-11.7c-1.1-1.7-1.1-4.2-4-5
		c-1.1,1.8-4,2.6-3.2,5.7c-0.7,0.2-1.5,0.7-2.1,0.5c-1-0.4-1.8-1.2-2.7-1.8c-0.6-0.4-1.3-1.3-1.7-1.2c-4.5,1.4-5.8-2.5-8.4-4.6
		c-1.2-1-3.1-1.1-4.8-1.6c1.7-5.6-5.3-6.9-5.4-11.2c-2.3-0.4-4.6-0.8-6.8-1.3c-2-0.4-4.1-0.9-6.1-1.5c-1.1-0.3-2.3-0.8-3.1-1.6
		c-2.2-1.8-4.2-3.8-6.2-5.8c-1.3-1.2-2.8-2.3-4.4-1.2c-4,2.7-7.9,1.4-11.5-0.3c-4-1.9-8.6-2.7-11.9-5.9c-0.5-0.5-1.4-0.5-2.1-0.7
		c-1.9-0.5-3.6-1.2-4.8-2.9c-0.6-0.8-1.7-1.2-2.6-1.7c-2.9-1.7-3.7-3.4-2.4-6.4c1.4-3.1-0.5-5.5-1.3-8c-0.4-1.2-1.2-2.4-2.1-3.4
		c-2.9-3.1-4.5-7.3-8.9-9.2c0.5-1,0.9-1.9,1.3-2.9c-5.8-5.8-10.6-12.2-11.4-20.9c-1.4-0.7-2.9-1.4-4.7-2.2c-0.8,3.6-1.1,6.5,0.9,9.6
		c2.7,4.2,4.9,8.7,7.3,13.1c0.3,0.6,0,1.5,0.3,2.2c1.1,3,0.5,6.8,4.1,8.8c1.1,0.6,0.9,1.4,0,3.5c-2.5-2.6-4.9-5.1-7.6-7.9
		c3-7-4.9-7.5-7.7-11.2c1-1,2.2-1.7,2.4-2.7c0.3-1-0.1-2.5-0.8-3.2c-4.6-5.1-5.7-11.6-7-18c-0.3-1.4-1.4-3-2.6-3.9
		c-2.2-1.7-4.8-2.9-7.4-4.4c-0.4-1.2-0.9-2.7-1.3-4.2c-0.9-2.9-1.9-5.8-2.4-8.8c-0.2-1.1,0.8-2.4,1.3-3.7c-0.9-0.2-1.9-0.1-2.1-0.5
		c-0.7-1.6-1.5-3.2-1.8-4.9c-0.4-2.3-0.5-4.6-0.7-7c0-0.3-0.1-0.7,0-0.9c2.5-3.3,1.7-7.1,2-10.8c0-0.4,0-1,0.2-1.3
		c3.9-5,3.6-11.9,7.6-16.9c0.5-0.6,0-2,0-3c0-3,0-6.1,0-9.8c2.7,1.4,4.8,2.6,7.3,3.9c0.2-0.8,0.7-1.7,0.7-2.6
		c0.1-3.3-0.7-6.8-3.3-8.6c-2.1-1.4-0.5-2.5-0.5-2.6c-2.4-2.4-4.4-4.1-6.1-6c-1.4-1.7-1.9-3.7-0.7-5.8c0.3-0.6,0.1-1.5-0.2-2.2
		c-0.4-1.2-0.5-1.1,0.5-3.1c-1-0.4-2-0.8-2.7-1.1c1-1.6,1.9-3.1,3.3-5.3c-2.1,0.6-3.2,0.9-4.4,1.3c0-5.9,0-5.9,2.6-9
		c-3.3-1.3-4.2-4-3.4-7c0.8-3.3,0.5-6.2-1.4-8.9c0.7-2,1.2-3.8,1.9-5.8c-1-0.1-1.5-0.1-2.1-0.1L239.4,212.5z M339.5,270.1
		c-2.2,1.5-0.5,2.7,0.1,4.6c2-2.2,0.2-3.3-0.3-4.7c0.9-1.4,0.7-2.6-1.3-3.9C338.7,267.8,339.1,269,339.5,270.1z M337.7,236.9
		c1.3-2.4,2.6-4.8,4.2-7.7C336.1,231.2,335.6,232.2,337.7,236.9c-1.7-0.8-2.9-0.1-3.6,1.7C335.3,238,336.5,237.5,337.7,236.9z
		 M345.2,255.3c-1.1,0.1-2.3-0.8-2.9,1c-0.1,0.4-1.5,0.8-2.1,0.6c-1.2-0.3-1.1-1.2-0.4-2c1.3-1.7-0.3-2.6-1.3-2.9
		c-1.5-0.6-2.1,0.8-2.2,2c-0.1,0.8,0.2,1.7,0.3,2.6c0.5,2.3,0.9,4.6-0.4,6.9c-0.3,0.5,0,1.2,0,1.9c0.2,0.1,0.5,0.1,0.7,0.2
		c0.9-2.2,1.8-4.4,2.7-6.7c0.6,0,1.3,0,2.1,0c0.5,2.9,0.6,5.8,3.3,7.8c0.5,0.4,0.6,1.8,0.5,2.7c-0.2,1.5-0.6,2.9-1,4.3
		c1.2-0.5,2.1-1.2,2.1-1.9c0.3-5.6,0.4-11.1-1.6-16.4c1.4-1.8,1.4-1.8,0.6-3.9C345.5,253,345.3,254.1,345.2,255.3z M366.7,319.2
		c3-1.8,4.6-3.9,4.7-7.3c0-3.1,0.5-6.3,3.3-8.4c1.2-1,2.6-1.7,4-2.6c5,2.4,5.2,3.4,2.1,7.9c-0.2,0.3-0.1,0.7-0.2,1.3
		c1.3-0.5,2.3-0.9,3.5-1.4c0.2,1.6,0.3,2.9,0.4,4.2c2.7,0.2,2.5-1.8,3.1-3.3c0.6-1.6,1.5-3.1,2.2-4.6c1.2,0.6,2.4,1.2,3.6,1.9
		c2.2-3.2-1.1-4.7-1.3-7c-2.8-0.7-5.4-1.4-8-2c-0.7-0.2-1.9-0.4-2.1-0.1c-1.4,2-2.9,1.1-4.7,0.8c-3.7-0.7-9.3,2.1-9,4.9
		c0.3,3.3-1.5,5.6-2.2,8.4C365.4,314.2,364.5,316.6,366.7,319.2z M380.1,290.1c-1.2-0.7-2.7-1.1-2.8-1.7c-0.6-3.6-3.6-3.4-6.1-4.4
		c-4.2,4.5-11,4.7-15.5,10c1.6-0.3,3.1-0.7,3.2-0.5c1.6,2.8,3.6,0.9,5.3,0.4c1.5-0.5,2.9-1.5,4.4-2.2c0.3-0.2,0.8,0,1.3,0
		c-0.4,0.7-0.8,1.3-1.2,2c2.1,0.5,2.7,3.1,5.2,2.5c2-0.5,4.2-0.1,6.7-0.1C380.4,294.2,380.3,292.2,380.1,290.1z M301.3,172.4
		c1.8-1.8,5.5-0.4,6.3-4.3c0.2-1.3,2.1-1.4,3.5-0.5c0.7,0.4,1.4,0.8,1.9,1.1c1.7-2.3,3.2-4.3,5.1-6.9c-5.8,2-6.2,1.9-8.4-1.3
		c1.6-0.6,3.2-1.2,4.8-1.8c-1-1-2-1.7-2.8-1.4c-5.2,1.5-10.5,2.1-15.9,2.1c-0.5,0-1,1-1.7,1.6c0.7,0.3,1,0.4,1.2,0.4
		c2.8,0.2,5.5,0.3,8.3,0.6c0.4,0,0.8,1,1.7,2.2c-1.8-0.4-2.8-0.5-3.2-0.6c-2.3,2-4.4,3.9-6.5,5.7c1.7,1.9,3.5,2,5.3,0.1
		c1.1-1.2,2.3-2.2,4.4-1.5C304.6,170.5,302.3,170.7,301.3,172.4z M325.7,192.3c-2,1.5-3.7,2.9-5.6,4.1c-2.8,1.9-4.7,1.4-6.7-1.2
		c-0.8-1.1-1.9-2-3.5-3.7c0.5,2.8,0.8,4.7,1.1,6.6c-1.4,0.1-3.2-0.2-3.5,0.4c-1.4,2.7-3.6,3-6.4,2.1c1.9,3.5,4.4,4.6,7.6,3.4
		c2-0.7,3.9-1.7,5.8-2.5c2.1-0.9,4.4-1.5,6.5-2.6c2.9-1.5,5.7-3.3,8.7-5.1C328.5,193.3,327.3,192.9,325.7,192.3z M395.2,316.3
		c-0.1-0.5-0.3-1-0.4-1.5c-3,0.7-6,1.2-9,2c-1.3,0.3-2.5,0.9-3.7,1.4c-0.7,0.3-1.2,1-1.8,1.5c0.8,0.6,1.5,1.2,2.3,1.6
		c0.4,0.2,1.2-0.1,1.7-0.3C388,319.4,391.6,317.8,395.2,316.3z M405.3,308.6c-3.5,2.7-8.4,0.1-11.2,3.8c0.3,0.5,0.5,0.9,0.7,0.9
		c2.5,0.2,5,0.4,7.5,0.4C404.6,313.7,405.6,312.1,405.3,308.6z M313.3,220.6c2.6,2.2,3.5-1.2,5.4-1.4c2.1-0.2,4.4,1,6.5-1
		c-1.7-0.9-3.2-1.7-4.5-2.4C318.2,217.5,315.9,219,313.3,220.6z M358.1,194.4c-2.1-0.4-4,0-4.9,1.9c-0.9,2,1.1,2.5,2.2,3.7
		C356.4,197.9,357.2,196.3,358.1,194.4z M458.6,262.9c-2.6-1.1-2.6-1.1-8.2-0.4c0.8,0.7,1.8,1.8,1.9,1.7
		C454.1,262.7,457,265.9,458.6,262.9z M408.3,446.3c-1.1,1.4-2,2-2,2.7c0,0.8,0.7,1.6,1.1,2.4c0.5-0.7,1.2-1.3,1.4-2.1
		C409.1,448.7,408.7,448,408.3,446.3z M372.2,277.7c-3,1.9-3,1.9-0.6,4.1C371.8,280.2,372,278.9,372.2,277.7z M439,262.4
		c-0.3-1.7-0.6-3-0.8-4.4C436.1,261,436.1,261,439,262.4z M378.9,193.7c0.1-0.3,0.3-0.5,0.4-0.8c-1.5-0.8-3-1.6-5.3-2.8
		C375,193.7,377.5,192.6,378.9,193.7z M415.5,540.6c0.2,3.2,0.2,3.2,4.6,4.4C418.2,543.1,417,542,415.5,540.6z M335.3,229.2
		c0.3,0.2,0.6,0.3,0.9,0.5c0.9-1.2,1.9-2.4,3.1-4.1C335.6,225.3,336.1,227.7,335.3,229.2z M350.1,278.6c-0.5,1.1-0.9,2.3-1.6,3.8
		C351.4,281.9,352,280.8,350.1,278.6z M327.5,244.3c-1.8-0.8-2.8-0.6-3.3,0.8c-0.1,0.2,0.7,0.9,0.7,0.9
		C325.7,245.5,326.5,245,327.5,244.3z M306.1,186.8c0.2-0.2,0.5-0.4,0.7-0.6c-0.5-1.2,0.1-3.3-3.5-2.7
		C304.5,184.9,305.3,185.9,306.1,186.8z M368.6,178.3c-1.9-1.6-1.9-1.6-4.5-0.6C365.8,178,367.1,178.1,368.6,178.3z M373.4,200.3
		c-0.1-0.1-0.2-0.3-0.4-0.4c-0.9,0.3-1.7,0.6-2.6,0.9c0.1,0.2,0.2,0.4,0.3,0.7C371.6,201.1,372.5,200.7,373.4,200.3z M365.6,203.8
		c0-3.2,0-3.2-2.5-2.9C363.8,201.7,364.5,202.4,365.6,203.8z M322.8,231.4c2.3,0.5,3.5,0.4,3.9-2
		C325.3,230.1,324.4,230.6,322.8,231.4z M334.4,171.5c-0.2,0.1-0.5,0.1-0.7,0.2c0.4,1.4,0.8,2.9,1.2,4.3c0.2,0,0.4-0.1,0.6-0.1
		C335.1,174.4,334.8,173,334.4,171.5z M360.3,444.7c0.4-0.4,0.7-0.9,1.1-1.3c-1-0.6-2-1.3-2.9-1.9c-0.3,0.4-0.5,0.7-0.8,1.1
		C358.5,443.2,359.4,443.9,360.3,444.7z M358.2,275.3c2.4,1.5,2.4,1.5,2.9-0.7C360.3,274.9,359.5,275.1,358.2,275.3z M423.6,276.6
		c-0.1-0.3-0.2-0.6-0.4-0.9c-1.3,0-2.5,0.2-3,2.4C421.6,277.5,422.6,277,423.6,276.6z M340.9,209.5c-0.3,0.5-0.6,0.8-0.6,1.1
		c0,0.3,0.4,0.6,0.7,0.9c0.3-0.3,0.7-0.6,0.8-0.9C341.7,210.3,341.3,210,340.9,209.5z M346.1,236.9c0.1,0.4,0.2,0.7,0.3,1.1
		c0.8-0.3,1.5-0.6,2.3-0.9c-0.1-0.2-0.1-0.5-0.2-0.7C347.7,236.6,346.9,236.7,346.1,236.9z M356.2,255.3c-0.2,0.3-0.3,0.7-0.5,1
		c0.8,0.2,1.5,0.4,2.3,0.7c0.1-0.2,0.1-0.4,0.2-0.6C357.5,256,356.8,255.6,356.2,255.3z M308.9,174c0.2,0.1,0.5,0.2,0.7,0.3
		c0.4-0.8,0.8-1.7,1.2-2.5c-0.3-0.1-0.5-0.2-0.8-0.4C309.6,172.3,309.2,173.2,308.9,174z M352.6,203c0.3-0.6,0.7-1,0.6-1.2
		c-0.1-0.3-0.6-0.6-1-0.7c-0.2,0-0.6,0.5-0.6,0.7C351.7,202.1,352.1,202.3,352.6,203z M327.5,167.5c2.4,1.3,2.4,1.3,2.8-0.9
		C329.5,166.9,328.7,167.1,327.5,167.5z M426.5,701c1.3,1.1,1.3,1.1,2.7,0C428.4,701,427.6,701,426.5,701z M358.8,251
		c0,0.3,0,0.7,0.1,1c0.6-0.2,1.3-0.3,1.9-0.5c0-0.2-0.1-0.3-0.1-0.5C360,251,359.4,251,358.8,251z"/>
	<path d="M513,183.5c2.7-0.3-0.6-2,0.7-2.7c-1.1-0.1-2.4,1.6-3.4-0.8c0.8-0.2,1.5-0.6,2.1-0.5c1.4,0.1,2.6,0,2.7-1.6
		c0.1-2.2,2-0.6,2.7-1.4c-0.5-1.4-0.1-3.1,1.2-5.9c-2.7-1.2-5.5-2.5-8.2-3.7l0.1,0.1c-0.7-1.2-1.4-2.5-2.2-4
		c4.3-0.7,6.7,1.8,9.5,3.6c-0.6-2.3,0.4-4.5-0.9-6.6c-0.3-0.5-2.3-1.6-0.1-2.5c-0.5-0.5-0.9-1.5-1.4-1.5c-1,0-2.3,0.3-3,0.9
		c-2.1,1.7-2,1.8-4.5-0.7c2.6-1.9,2.7-5.3,4.6-7.7c1.3-1.7-0.1-3.3-0.1-5c0-3.6,0.2-7.3,0.2-10.9c0-1.1-0.8-2.2-1.2-3.3
		c-0.8-2.1-2.2-4.1-0.7-6.5c0.3-0.6-0.2-2.2-0.9-2.6c-2.6-2-5.3-3.7-8-5.5c-0.5-0.3-1.1-0.6-1.6-0.6c-3-0.2-5.9-0.3-9.1-0.5
		c-0.1,0.3-0.4,0.9-1,2.2c-1.7-2-3.2-3.7-5-5.6c1.5-0.8,2.5-1.3,3.4-1.8c-0.8-0.9-1.5-1.9-2.4-2.6c-0.9-0.7-2.3-1.4-1.5-2.6
		c0.6-0.8,2.3-1.6,3.3-1.3c2.8,0.7,5.5-1.9,8.2,0c0,0,0.9-0.8,0.9-1.2c0-0.4-0.6-1.2-1-1.2c-2.1-0.1-4.2-0.1-5.9-0.1
		c-1.8-2.7-3.4-5.2-5-7.7c0.5-3.1,2.4-4.3,5.5-4.5c2.1-0.1,4.3-0.4,6.1-1.4c3.1-1.7,5.9-1.3,8.9-0.1c4.5-4.2,6.3-6.8,6.3-9.2
		c-1.5-0.4-3-0.7-5-1.2c0.5-1.1,0.7-2.2,1.4-2.7c2.8-2.4,5.5-4.9,8.7-6.7c1.4-0.8,3.7,0.1,6.1,0.2c1.3-1.3,3.2-2.9,3-5.8
		c-0.1-1.9,1.4-2.4,3.3-2.7c0.6,2,1.2,4,1.8,6c0.2,0,0.4-0.1,0.6-0.1c-0.2-2.3-0.3-4.5-0.5-7c4.7-0.9,9.6,0.3,13.7-2.8
		c1.6,3.4-1.3,5.8-1,9c0.9-0.6,1.5-1,2.3-1.6c0.6,1.1,1.2,2.2,1.9,3.4c1.3-0.2,2.7-0.4,4.3-0.6c0.2-2.8,0.4-5.7,0.6-9.6
		c1.4,0.9,2.7,1.3,3.1,2.1c0.9,2,1.3,4.2,1.9,6.3c0.4,1.4,0.5,2.9,1.1,4.2c0.8,1.6,2.3,0.6,3.5,0.5c0.7,0,1.4,0.7,1.7,0.8
		c-1.1-4.6-2.3-9.3-3.6-14.8c2.1,0.8,3.3,1.2,4.6,1.7c2.3-1.4,3.5-3.4,2.8-6.2c1.5-0.7,2.6-1.3,4-1.9c1.1,0.6,2.2,1.3,3.4,1.9
		c0.9,0.4,1.9,0.7,2.8,1.1c-0.4-2.7,3-1,3.3-3c0.6-3.8,3.9-3.4,6.5-3.5c1.9-0.1,3.8,0.7,5.6,1.2c2.3,0.6,4.6,1.2,6.8,2.1
		c1.7,0.7,3.2,1.7,5.5,3c-1.5,0.7-2.2,1.3-2.8,1.2c-3.8-0.3-7.6-1-11.5-0.2c-0.2,0.1-0.7-0.8-0.8-0.9c-2.6,1.1-5.1,2.1-7.6,3.2
		c0.3,0.4,0.5,0.8,0.6,0.8c3.5-0.6,7-1.2,10.6-1.7c1.3-0.2,2.8-0.5,4,0c2.9,1.2,5.7,1.4,8.5,0.1c3,3.7-1.7,2.9-2.7,4.8
		c2.4,0,4.6-0.5,6.5,0.1c2,0.6,3.7,2.2,6.2,3.9c-2.1,1.5-3.4,3.1-4.9,3.3c-3.8,0.6-7.7,1-11.5,0.6c-3.4-0.4-6.4-0.7-9.5,1
		c-1.5,0.9-3.4,1.2-5,1.9c-0.4,0.2-0.4,1.3-0.7,2.6c6.4-3.3,12.3-5.3,19.3-2c-1.2,0.9-2,1.4-2.8,1.9c-0.7,0.4-1.5,0.7-2.2,1
		c0,0.3,0.1,0.6,0.1,0.9c2.2,0,4.6,0.4,6.6-0.2c1.2-0.3,1.9-2.3,3-3.8c0.7,0,1.7,0.1,2.9,0.2c0.2,3.4-0.6,6.2-3.7,7.5
		c-2,0.9-3.2,2.4-4.3,4.1c3.9-1.3,8.2-1.8,11-5.7c1.7,0.7,3.3,1.5,4.8-1.2c1.4-2.5,6.5-2.2,9.3,0.2c1.2,1,2,2.5,3.2,4
		c-2.2,1.3-2.9,3.9-5.7,3.6c-0.4,0-1.2,0.6-1.2,0.9c0.2,3.8-2.2,3-4.5,2.8c-1.2-0.1-2.4,0.2-3.6,1.1c1.5,0.3,2.9,0.6,4.5,0.9
		c-1.7,3.1-2.4,3.5-5.1,2.8c-1.1-0.3-2.1-1.4-3,0.2c-2.6-0.2-1.9,1.3-1.6,3.3c1.2-1,1.9-1.6,2.7-2.2c0.9,0,1.8-0.1,2.7,0
		c0.2,0,0.5,0.3,1,0.7c-1.8,3-4,5.8-5.2,9c-1.3,3.2-1.7,6.8-2.6,10.7c-1.1-0.6-1.8-0.9-2.6-1.4c-1.3,2.3,1.4,3,1.8,4.5
		c-2.1,2.7-1.7,3.4,3.3,4.5c-0.2,1.5-0.4,3-0.6,5c-1.2-0.5-1.9-0.7-2.4-1c-2.6-1.7-4.7-1.3-6.5,1.1c-1,1.3-0.5,2.9,1.2,3.5
		c0.9,0.3,2,0.4,3.5,0.7c-0.8,0.7-1.2,1.1-1.8,1.6c1.8,1.7,2.3,3.9,1.3,6.6c-1.1,0-2.2,0-3.3,0c-0.5,3.1,0.9,4.8,3.3,5.3
		c0.9,3.5-2.3,1.2-3.2,2.6c-1.4,2.2-2.6-0.6-4.1-0.9c-0.2,0.7-0.4,1.4-0.7,2.3c1.6,0.5,3,0.9,4.5,1.4c0.7,4.3-4.1,2.6-5.6,5.6
		c-1.6-2-2.8-3.6-4.2-5.3c-0.6,0.5-1.4,1.2-2.5,2.1c1,0.7,2,1.4,3.1,2.2c-0.4,0.5-0.6,1.1-0.9,1.2c-1.4,0.4-2.9,0.7-4.3,1
		c0.3,1.6,3.4,1.9,0.9,3.9c2.7,1.4,5.5,2.7,6.5,5.9c1,3.1,1.9,6.1,1,9.9c-0.9-0.7-1.5-1.1-2.2-1.7c-0.4,1.1-1.3,2.6-2.6,0.8
		c-1.1-1.4-1.7-3.1-2.5-4.7c-0.3-0.6-0.6-1.1-1.2-2.4c-1.3,1.6-2.3,2.8-3.3,3.9c-1.4-0.2-2.9-0.4-4.3-0.6c-0.9,1.2-1.7,2.4-2.6,3.6
		c0.2,0.3,0.3,0.6,0.5,0.9c1.9-1.7,3.4-4.3,6.3-3.9c1.1-0.9,2-0.8,2.3,0.6c0.1,0.6-0.5,1.6-1.1,2c-0.8,0.5-1.9,0.4-3.6,0.8
		c1.1,0.9,1.9,1.9,2.2,1.8c3.3-1.5,5.8,1.6,9.5,0.8c-7.7,8.5-22.5,14.1-28.2,11.3c-0.5,0.9-0.7,1.9-1.4,2.6
		c-1.4,1.5-3.2,2.8-4.4,4.4c-1.8,2.4-3.6,4.2-6.3,5.7c-2.2,1.2-4,1.2-6.2,1c0.1-1,0.1-1.6,0.2-2.3c-0.2-0.1-0.4-0.2-0.5-0.3
		c-0.8,1.4-1.5,2.8-2.5,4.5c-1.1,0-2.6,0-4.4,0c-0.3,2-1,3.6-3.2,2.4c-1.7,1.3,1.4,3.9-1.7,4.5c-0.1,0-0.3,0.8-0.1,1
		c2,2.5,0,3.5-1.5,5c-0.8,0.8-3.5,0.6-2.1,3c-0.8,0.2-1.6,0.3-2.5,0.5c1.4,6.1-3.9,9.9-4.8,15.3c-1.5-0.5-2.6-0.7-3.7-1.3
		c-0.9-0.5-1.6-1.3-2.6-2.1c0.4-0.8,0.9-1.6,1.4-2.6c-0.3-0.1-0.7-0.5-1-0.4c-1,0.1-2,0.2-2.9,0.5c-3.6,1-6.8-1.5-6.7-5.3
		c0-0.4,0.2-1,0.1-1.3c-2.2-3.1-2.2-7-3.9-10.3c-0.6-1.2-0.8-2.2,0.8-2.6c1.6-0.5,3.1-1,3.1-3.6c-1.7,0.5-3.2,0.9-5,1.4
		c-0.3-3.5-0.5-7-0.8-10.7c-0.3-0.2-0.9-0.5-1.9-1c1.4-1.2,2.7-2.3,4.1-3.4c-1-0.5-1.8-0.9-2.6-1.3c0-0.2,0-0.5,0.1-0.7
		c1.2-0.2,2.4-0.4,4.3-0.8c-1.6-0.2-2.6-0.3-3.6-0.5C508.2,182.1,508.2,182.1,513,183.5c-0.2,0.9-0.6,1.8-1.1,3
		C513.8,185.5,513.8,185.5,513,183.5z M589.9,151.5c-0.1-0.3-0.2-0.7-0.3-1c-0.9,0.3-1.9,0.5-3.8,1
		C587.8,151.5,588.8,151.5,589.9,151.5z M572,55.9c1.1-2-0.1-2.7-1.2-3.3c-0.1-0.1-0.5,0.2-0.8,0.4C570.6,54,571.2,54.8,572,55.9z
		 M584.8,164.2c0.1-0.1,0.3-0.2,0.4-0.3c-0.1-0.4-0.2-0.8-0.4-1.1c-0.2-0.4-0.6-0.6-0.9-0.9c-0.1,0.1-0.3,0.3-0.4,0.4
		C583.9,162.9,584.4,163.5,584.8,164.2z"/>
	<path d="M1094.4,547.4c1.1,1.5,1.9,2.5,3.1,4.3c0.2-2.1,0.3-3.3,0.4-4.7c0.8,0.1,1.6,0.2,2.4,0.3c1-5.8,5.4-8.1,10.4-10.4
		c1.2,1.6,2.2,3,3.3,4.4c1.8,0.1,3.6,0.2,5.4,0.2c-0.8-4.7,3.6-10.3,8.1-10.6c1.9-0.1,3.7-0.1,3.8-2.9c4.9,1.1,9.2,4.1,14.9,2.3
		c-0.6,1.4-0.7,2.6-1.3,3.1c-2.5,2-3.1,4.9-4.1,7.6c1.9,4,6.3,5.2,9.3,8c1.2,1.1,2.6,1.9,3.8,2.9c2.3,1.8,4.8,1.5,5.8-1.3
		c1.3-3.6,2.3-7.4,2.8-11.1c0.6-4.5,2.1-8.7,3.6-13.9c2.9,4.7,3.5,9.1,4.2,13.4c3.9,0.4,4.5,1.1,4.8,4.8c0.2,2.3-0.1,4.8,1.6,6.8
		c0.4,0.5,0.7,1.5,0.6,2.1c-1,4,0.9,6.7,4.3,8.3c4.2,2,4.9,5.8,5.8,9.6c0.1,0.4,0.2,0.9,0.3,1.4c1.8,0.7,4.1,0.7,3.6,3.9
		c-0.2,1.2,0.9,2.9,1.9,3.9c3.7,3.8,5.4,8.1,3.8,13.4c-0.2,0.6-0.4,1.3-0.2,1.7c2,4.3-0.4,7.8-1.8,11.5c-0.8,2.1-1.1,4.4-2.1,6.3
		c-1.3,2.6-3.1,4.9-4.7,7.2c-0.4,0.6-1.3,0.9-1.6,1.5c-4,6.9-9.6,13-11.3,21.1c-0.5,2.6-1.8,3.5-4.2,3.5c-2.8,0-5.2,1-7.3,2.8
		c-1.3,1.1-3,1.6-4.7,2.5c-0.9-2.1-1.6-3.9-2.3-5.8c-2.1,1.6-4.1,3.1-5.6,4.1c-2.7-1.4-4.8-2.5-6.9-3.5c-3.1-1.5-4.5-4.6-4.1-8.1
		c0.2-2.3-0.2-4.6-0.3-6.9c-0.9,0-1.5,0-2.2,0c0-1.9,0-3.8,0-6.8c-1.7,2.5-1.7,5.3-4.7,4.7c1.8-3.4,3.6-6.8,5.4-10.3
		c-0.2-0.2-0.5-0.4-0.7-0.6c-3.1,2.9-6.3,5.7-9.3,8.6c-1-3.4-2-6.6-3-9.8c-0.2-0.7-0.4-1.6-0.9-1.9c-5.7-2.5-11.2-6.2-17.9-3.5
		c-3,1.2-5.9,1.7-9.1,1.9c-3.2,0.3-6.6,1.7-8.8,4.4c-1.8,2.1-3.7,3.3-6.2,2.5c-5.4-1.7-9.8,0.7-14.3,3.1c-4.4,2.3-7.4,1.7-10.6-2
		c-1.1-1.3-1.2-2.3,0.1-3.4c3.1-2.8,3.4-6.4,2.8-10.2c-0.2-0.9-0.2-1.8-0.3-2.7c-0.7-5.6-1.4-11.2-2.1-17.2c1.7-1.4,2.1-3.3,0.8-5.9
		c-1-2-1-4.3,0.3-6.5c0.4-0.6,0.7-1.3,0.9-2c0.8-3.8,0.9-3.6,1.9-4.2c1.4-0.8,2.6-1.9,4-2.7c5.4-3.5,11.8-4.4,17.9-6
		c4.3-1.1,7.7-4.5,8.5-8.9C1092.1,550.3,1093.4,549.1,1094.4,547.4z"/>
	<path d="M453.5,91c0.9-2,1.9-3.9,2.7-5.7c-1.6-0.3-3.4-0.6-5.7-0.9c2.2-5.1,5.7-7.4,10.9-7.3c1.3,1.2,2.5,2.4,4.3,4.2
		c-0.4-3.7-2.5-3.8-4.4-4.1c1.9-3.2,3-6.4,2.1-10.4c-0.4-1.7,0.4-4.8,3.3-5.7c4.6,2.4,4.6,2.4,6.6,8.4c0.2-2,0.5-4.1,0.8-6.5
		c3.7,1.1,7.3,1,10.9-0.5c1.6-0.7,3.7-0.1,6.4-0.1c-1.8-0.8-3-1.3-4.3-1.9c0.3-0.6,0.6-1.3,1.1-2.5c-0.9,0.3-1.7,0.3-1.9,0.7
		c-1.2,2.3-3.3,2.9-5.6,3.3c-3,0.5-4-0.2-5-3.3c-3.4,2.2-4.1,2.1-7.7-0.8c0.5-0.8,1.1-1.6,2.1-3.2c-1.7,0.9-2.7,1.4-4.3,2.2
		c-0.9-1.3-1.8-2.7-3.3-5.1c3.7,0.4,6.2,0.7,8.7,1c0-0.1,0-0.2,0.1-0.3c-2.3-0.7-4.6-1.3-7.6-2.1c2.3-1.8,1.4-4.6,3.9-6.7
		c-1.7,0.1-2.8,0.2-4,0.3c2.5-3.7,4.8-4.3,7.9-2.2c0.6-0.8,1.2-1.6,1.9-2.4c1.7,2.5,4.5,2.6,6.4,4.6c0.2-0.3,0.4-0.5,0.6-0.8
		c-0.6-1.3-1.2-2.6-1.6-3.5c1.3-1.3,2.3-2.4,3.4-3.6c2,0.7,1.8,3.3,3.2,4.9c3.5-0.2,2.8-3.6,4.4-5.9c0.7,1.2,1.3,2.2,2,3.5
		c0.1-1.5,0.2-2.9,0.3-4.2c2.8-0.5,0.8,4.1,3.9,3.1c0-1.4,0-2.7,0-4.6c2.8,1.1,4.9,2.4,6.6,4.9c0.2-1.4,0.5-2.7,0.7-4.1
		c4.4-0.5,5.4-0.1,7.1,3.1c3.4-1.7,5.3-1.2,9.1,1.5c1.6,1.1,3.7,1.5,6.1,2.5c-1.5,1.2-2.5,2.1-4.3,3.5c3.4-0.8,6.2-2.4,8.8,0.5
		c-0.1,0.8-0.3,2.1-0.4,2.9c1,1,2.3,1.8,2.5,2.8c0.4,1.7-0.6,3.1-2.1,4.1c-5.6,3.5-8.7,4.1-16.6,2.8c0.6,0.5,0.8,0.7,1.1,0.8
		c0.4,0.2,0.8,0.2,1.7,0.4c-2.5,2.7-5.7,2.5-8.6,3.4c3.7-0.5,7.4-1.1,11.4-1.7c-1.2,3.1-4.1,3.6-6.3,4.8c-3.8,2.2-7.9,3.7-11.9,5.6
		c-1.3,0.6-2.7,1.1-3.9,1.7c0.2,0.2,0.7,0.5,1.1,0.8c-3.4,4.1-3.4,4.1-7.2,1.7c-0.2,0.7-0.5,1.3-0.7,1.9c-3.3,0-6.5,0-10,0
		c0.5,0.7,1.1,1.4,1.8,2.5c-0.8,0.3-1.6,0.6-2,0.8c1.2,1.1,2.5,2.3,3.8,3.4c-2.4,5.2-3.4,6-7.5,5.6c0.6,0.7,1.1,1.3,1.9,2.3
		c-2.3,0-4.3,0-6.6,0c-0.2,4.1-3.1,5.2-6.3,6c-0.3,1-0.6,2.1-1,3.4c0.9,0.2,1.7,0.4,2.8,0.6c-0.9,5.4-6.3,3.3-8.7,5.9
		c-1-1.8-1.7-3.2-2.7-4.9c-1.6,3-3.5,1.1-4.7,0.2c-2-1.3-2.8-0.8-3.7,1.3c-3.2-1.7-6.5-3.3-9.8-5c1.6-4.6,3.3-5.5,10.4-5.3
		c-0.2-2.1-0.5-4.2-0.7-6.2c3.6-1.2,4.1-1,4.7,1.8c0.2,1-0.5,2.6,1.4,2.8c1.1,2,2.6,1.6,5.1,0.5C456.1,91.6,454.8,91.3,453.5,91z"/>
	<path d="M413.9,145.6c2,0.7,3.5,1.3,5.5,2c-0.7-3.9-4.4-3-6.2-5.6c1.7-2.9,3.2-6.3,5.4-9.2c2.1-2.7,4.7-5,7.3-7.1
		c3-2.5,6.4-2.6,10.6-0.5c-1.3,0.8-2.1,1.3-3,1.8c-5,2.7-6.5,7.7-8.2,12.5c-0.2,0.6,0,1.5,0.1,2.2c0.3,1.8,0.6,3.6,0.9,5.6
		c2.9-2,2-4.6,0.7-7.6c1.4-0.7,2.6-1.4,4.2-2.2c-2.1-2.9-1-4.5,1.8-6.4c3.2-2.2,8.1-4,11.9-3.2c0,4.9-1.2,9.4-4.9,14.3
		c3.1-1.2,5-3.1,7.5-1.8c0.2,0.1,0.7-0.2,1.1-0.4c1.1-0.5,2.4-1.7,3.4-1.5c1.6,0.4,3.1,1.6,4.5,2.7c0.4,0.3,0.6,1.7,0.3,2
		c-2.2,2.1,1.7,1,1.3,2.5c-0.8,0.8-1.6,1.5-2.4,2.3c1.8,0.6,3.6,1.1,5.5,1.7c-0.6,0.8-1.2,1.6-1.7,2.4c1-0.9,2-1.8,3.4-3.1
		c0.8,1.6,1.4,2.8,1.9,3.9c-1.3,1.6-3.8,0.1-4.2,2.6c1.7,1.5,3,0.4,4.6-0.7c0.2,0.9,0.3,1.7,0.6,2.8c1.7-0.1,3.9-0.8,4.5,2.4
		c-1.4,0.8-3.1,1.7-4.9,2.6c1.8-1.8,3.6,3.3,5.3-1.1c0.6,1.6,1,2.7,1.4,3.8c-1.5,0.4-2.7,0.8-4.5,1.3c1.9,1.1,3.2,1.8,4.5,2.5
		c-0.1,0.3-0.2,0.6-0.2,0.9c-1.3-0.2-2.6-0.4-4-0.6c0.6,2.3,0,3.9-3.3,3.9c4.5,2.3,5.6,7.1,9.8,8.4c0.2,0.1,0.3,0.7,0.4,1.2
		c0.6,2.2,2.3,3.6,4.9,4.5c0.8,0.3,1.5,1.3,2.2,2c-2.9,2.5-5.5,4.8-8.8,7.6c0,0.2-0.3,1.5-0.6,3.2c-1.2-1-2.8-1.7-2.9-2.6
		c-0.3-3.7-2.9-6.1-4.8-9.7c-0.8,1.5-1.4,2.8-2.2,4.3c-0.5-0.2-1.3-0.6-2.1-0.9c-0.1,0.1-0.2,0.3-0.1,0.4c1.1,2.5,1.6,5.5,3.3,7.4
		c2.2,2.5,2.5,5.5,3.2,8.4c0.3,1.4-1.4,3.3-2.5,5.5c-3.6-2.7-6.7-4.9-10.5-7.7c0.9,5.1,6.2,7.2,5.6,12.6c-2.4-1.2-4.7-1.9-6.6-3.2
		c-2.4-1.6-4.6-3.6-6.9-5.5c-0.4-0.4-1.1-1.2-0.9-1.4c2-3.6-2.5-4.8-2.8-7.6c-0.1-0.5-1.6-1.5-2-1.4c-2.2,0.9-4.5-1-6.6,0.4
		c-0.5,0.3-1.3,0.5-1.7,0.3c-1.1-0.5-2.5-1.1-3.1-2.1c-0.4-0.6,0.4-2.1,1-3c0.7-0.9,1.8-1.5,2.9-2.4c3.4,3.5,7.2,0.9,11.1,0.9
		c-0.3-1.5-0.6-2.8-1-4.3c2.7-2.2,5.6-4.5,8.7-7.1c0.1-0.9,0.3-2.2,0.4-3.6c0.2-3.2-0.4-3.6-3-6.8c-2.6-3.1-4.4-6.9-5.9-10.7
		c-0.3-0.8,0.4-2,0.4-2.4c-1.3-1.7-2.3-3.1-3.3-4.5c-0.1,0.1-0.6,0.5-1.4,1c0.4,0.7,0.9,1.4,1,2.1c0.1,0.8,0.2,1.9-0.3,2.4
		c-0.5,0.5-2.1,0.6-2.3,0.3c-1.8-2.2-4.4-0.9-6.5-1.5c-3.6-1.1-7.6-1.3-10.6-3.1c-1.7-1.1-3.4-2.1-5.3-3
		C413,150.8,412.9,148.2,413.9,145.6z M450.1,195.1c-0.8,1.3-1.5,2.5-2.3,3.9C452.1,198.9,452.2,198.7,450.1,195.1z"/>
	<path d="M356,109.5c0.7,3-1.9,4-3,5.7c2.5,1.8,3.1-1.5,5.3-1.8c1.1,0.9,2.4,2,4.1,3.3c-1.7,1.3-2.7,2-4.1,3c2.1,0.3,4,0.5,6,0.7
		c0.4-1.5,0.8-2.9,1.3-4.7c3.8,5-1.5,9.3-0.5,13.8c2.2,0,2.4-1.4,2.9-2.9c1.3-4.1,2.9-8.1,4.5-12.4c1.6,0.6,2.8,1,3.8,1.3
		c1.8,2.7,1.5,5.1,0.4,7.8c-1,2.4-1.2,5.1-2.1,7.6c-0.4,1.4-1.4,2.5-2.6,4.4c1.5,2.8,3.1,6.2,5.1,9.1c1.2,1.8,1.2,2.9-0.4,4.5
		c-2.3-1.8-4.9-1.8-7.4-0.2c0,0.3-0.1,0.7,0,0.8c1.2,0.6,3.3,0.5,2.5,2.5c-0.3,0.9-1.9,1.8-3,1.9c-4.3,0.5-8.4-2.5-9.4-6.6
		c-6.7,3.5-13.6,5.2-21.1,3.3c-2.2-2.2-0.3-4.1,0.6-6c-2-2.3-6.3-0.9-6.8-4.6c-0.2-1.7,0.1-3.4,0.1-5.3c4.1-0.6,7.5-0.7,10.9,1.1
		c1.8,0.9,3.9,1.2,6.6,1.9c-1.6-4-3.5-6-7.3-6.3c-2.6-0.2-5.2-1-8-1.6c-0.1-1.5-0.1-2.8-0.2-4.4c3.2-0.4,6.1-0.8,9.7-1.2
		c-0.9-0.5-1.2-0.9-1.6-1c-3.2-0.7-3.2-0.6-6.9-3.7C341.1,113.7,347.8,110.2,356,109.5z M364.6,149.4c0.1-0.3,0.1-0.5,0.2-0.8
		c-0.8-0.1-1.6-0.2-2.4-0.2c0,0.2,0,0.3-0.1,0.5C363.1,149,363.9,149.2,364.6,149.4z"/>
	<path d="M1187,508.5c-1.2,1.1-2.1,1.8-3.3,2.9c3.7,4.1,7.4,8.2,11.3,12.5c-2.8-0.4-5.4-0.7-7.9-1.3c-1.2-0.3-2.2-1.3-3.2-2.1
		c-2.3-2-3.4-5-6.6-6.4c-2.4-1.1-4.1-1.2-5.9,0.7c-0.6,0.6-1.3,1.2-2,1.8c0.5,1.8-0.3,3.5-1.6,3.1c-3.3-1.1-8,0.7-9.4-4.5
		c-2.5,0.2-4.7,0.4-7.2,0.7c-0.2-2.6,1.5-3.1,3.4-3.4c-1.5-5.5-4.3-9.2-10.2-10.3c-2.8-0.5-5.4-2.3-8.7-3.9
		c-0.2,0.5-0.7,1.6-1.3,3.3c-1.3-2.6-2-4-2.8-5.6c1.8-0.5,3.7-1,5.6-1.5c-3.6-0.8-7.7-0.1-8.7-5.2c3-2.8,3-2.8,9.4-0.7
		c0.3,3.4-0.2,7.6,4.5,9.1c2.6-2.2,5.2-4.5,8.1-7c7.9,2.9,15.9,5.6,23.8,8.7c2.2,0.9,5.2,1.9,5.4,5.3c0,0.4,1.1,0.8,1.8,1.1
		C1183.1,506.8,1184.8,507.5,1187,508.5z"/>
	<path d="M1050.8,478.8c1.5,0.5,3.1,1,4.8,1.5c1.5-2.6,2.6-5.6,6.1-5.9c2.8-4.5,7.7-6.9,11.2-10.5c1.2-1.2,1.4-3.3,3.9-3.8
		c1.7,2.4,3.7,4.9,7.1,6.1c-3.2-0.6-2.6,2.8-4.6,3.8c-2.3,1.2-1.4,4.1,0.3,6.2c-1.4,3.1,2,3.8,3.5,6.2c-3.8-0.7-4.8,1.4-5.4,4
		c-0.3,1.2-1.3,2.3-1.9,3.5c-0.6,1.3-1.1,2.6-1.4,4c-0.8,2.9-1.5,5.9-5.5,6.3c-2.2-2-4.7-3.8-8.1-2.3c-0.4,0.2-1.2,0.3-1.3,0.2
		c-1.6-2.5-4.4-1-6.6-2.2c-0.3-1.2-0.9-2.5-0.8-3.7c0.2-1.4-0.2-2-1.2-3C1047.8,486,1047.8,482.3,1050.8,478.8z"/>
	<path d="M833.9,528.6c0.7,2,1.5,4,2,6c0.4,1.6,0.4,3.2,0.6,4.8c0.2,1.7-0.7,2.1-1.7,1.9c-1.4,4.6-2.5,9.2-4.1,13.7
		c-2,5.9-4.2,11.8-6.5,17.6c-1.9,4.7-8.2,6.3-11.7,3.1c-0.3-0.3-0.6-0.6-0.9-1c-1.6-2.1-1.7-10.9-0.2-13.1c0.8-1.2,1.6-2.5,2.4-3.7
		c1.2-1.7,1.3-3.4,0.6-5.5c-0.6-1.7-0.8-3.8-0.4-5.6c0.6-3.1,3.1-4.5,6-5c4.2-0.8,7.1-2.7,9.1-6.7c1-2.1,3.1-3.9,3.8-6.5
		C833.3,528.6,833.6,528.6,833.9,528.6z"/>
	<path d="M814.9,163.5c-1.9,2.2-4.6,1.7-6.8,1.2c-1.6-0.4-4.2-0.1-4.3-3.4c0-1.2-1.8-3.3-4.1-1.9c-1.8,1.1-2.6-0.4-3.1-1.5
		c-0.6-1.2-1.4-2.8,0.9-3.6c1.7-0.6,2-2.4,1.1-3.3c-2.6-2.5-0.6-4.6,0.4-6.4c1.2-2.1,0.5-3-1.1-4c0.9-2.2,1.9-4.3,2.6-6.5
		c0.4-1.1-0.6-4.1-1.4-5.4c1.1-0.8,2.3-1.6,3.4-2.4c0.3-0.2,0.8-0.7,0.7-0.9c-0.7-3,1.7-4.3,3.3-6c0.8-0.8,1.4-1.7,2.2-2.5
		c0.7-0.7,1.4-1.6,2.2-1.7c3.9-0.5,7-1.6,8.4-5.9c0.6-1.9,2.4-3.2,4.6-2.7c2.3,0.4,3,2.4,3.2,4.3c0.1,0.8-0.5,2-1.1,2.7
		c-0.9,1-2.1,1.7-3.2,2.4c-4.6,3-7.8,7.1-10.1,12c-0.3,0.5-0.3,1.4-0.7,1.6c-4.5,2.4-3.5,6.8-4.1,10.6c-0.3,1.7-1.6,3.2-1.8,4.8
		c-0.6,7.4,1,13.9,8.4,17.6C814.6,162.7,814.7,163.1,814.9,163.5z"/>
	<path d="M449.2,59c-1.3-1.4-2.6-2.8-4.6-4.9c2.8-0.5,4.8-0.9,6.9-1.2c-0.2-1.2-0.4-2.5-0.5-3.7c2.1-0.5,4-0.9,6.6-1.6
		c-1.6-1.2-2.5-2-3.7-2.9c1.7-0.7,3-0.9,3.9,0.4c0.7,1,1.2,2.3,1.2,3.5c0,2.4-0.4,4.7-0.7,6.9c1.7,1.2,3.1,2.2,4.7,3.3
		c-1.2,2.6-0.4,6.1-3.5,7.6c0.8,1.2,1.8,2.3,2.3,3.6c0.6,1.8,0,3.4-2.1,3.6c-3,0.3-5.2,1.7-6.9,4.4c-0.5-0.7-0.8-1.1-1.3-1.8
		c0.6,3.8-3,3.7-4.2,6c-0.6-1.3-0.5-2.3-2.2-1.5c-2.4,1.2-5.2-0.7-5.2-3.4c0-1.4,0.6-2.8,1-4.2c0.8-3.1,1-3.1,4-2.3
		c0.9,0.3,1.9,0.3,3.5,0.5c-1.2-2.2-2.7-2.9-4.3-3.6c-3.1-1.2-3-1.2-1.5-4.4c0.8-1.7,0.9-3.7,1.4-5.5c1.9,0.7,3.4,1.2,5,1.7
		C449.1,59.4,449.2,59.2,449.2,59z"/>
	<path d="M336.2,94.4c3.1,0,5.9,0,9,0c2,1.8,3.4,4.8,7.3,4.4c0.7-0.1,1.9,1.8,2.2,2.9c0.4,1.8,0.1,3.8,0.1,6
		c-3.9,1.1-7.9,2.2-11.9,3.4c-1.2,0.4-2.3,1.1-3.4,1.7c-0.9,0.5-1.6,1.6-2.5,1.7c-2.2,0.3-3.3,1.8-4.4,3.4c-1.2,1.7-2.2,3.7-4.7,1.5
		c-0.2-0.2-1,0.3-1.5,0.5c-1.2,0.4-2.4,0.8-3.4,1.1c-0.4-3.2-0.8-6-1.2-9.3c0,0,0.5-0.6,1.1-1c4.5-2.8,7.2-7.6,11.4-10.7
		c0.6-0.4,0.9-1.4,1.1-2.2C335.8,96.9,336,95.7,336.2,94.4z"/>
	<path d="M1135.4,309.2c4.9-1.1,6,2.4,7.3,5.1c1.3,2.7,1.5,5.6,0,8.4c-0.3,0.6-0.9,1.4-0.7,1.9c0.7,3.7,1.6,7.5,2.3,11.2
		c0.3,1.7,0,3.3-2.3,3.8c-0.2-0.9-0.4-1.7-0.7-2.9c-2.6,3.3-5.3,6.2-9.4,4.7c-0.8,2.2-1.5,4.2-2.2,6.3c-3.8-0.4-3.1-3.3-3.7-5.9
		c-4.5,1.8-8.8,3.5-13.4,5.3c4.3,2.6,4.9,6.1,2.6,11.8c-1,0-1.9,0-3.5,0c0-1.5,0.1-3.1,0-4.6c0-0.9-0.1-1.8-0.5-2.5
		c-0.2-0.3-1.1-0.2-2-0.3c0-0.1-0.3-0.8,0-1.2c2.5-3.5,4.8-7.5,7.9-10.4c1.8-1.6,5.2-1.5,8-2.2c0.5-0.1,1.1,0,1.9,0
		c0.6-2.7,1.1-5.2,1.6-7.6c0.8,0.2,2,1,2.9,0.7c1.2-0.4,2.5-1.4,2.9-2.5c1.6-4.5,4-9,1.3-14.1C1135,312.9,1135.5,310.9,1135.4,309.2
		z"/>
	<path d="M1038,495.7c-0.4,3.2-0.7,6.5-1.1,9.7c-5.1,2.5-8-1.6-11-4.3c-3.7-3.3-6.4-7.4-8.7-12.1c-3.6-7.1-7.6-14.3-14.6-19.1
		c-1.6-1.1-3.4-2.4-3-5c2.6,0.4,4.9,0.7,7.1,1.1c0.4,0.1,0.9,0.4,1.1,0.7c3.5,4.7,8.5,7.6,13,11.1c1.7,1.3,2.9,3.1,4.4,4.7
		c0.3-0.3,0.8-0.7,1.8-1.5c-0.1,2.2,0.7,3.5,2.6,3.6c-0.2,1.6-0.4,2.8-0.6,4.3c2,0.7,3.6,1.3,4.2,3.6c0.6,2.2,3.1,2.4,5,3.3
		C1038.1,495.8,1038,495.7,1038,495.7z"/>
	<path d="M643.2,248.1c1.7-0.1,3.1-0.2,5.1-0.4c-1.1,1.6-1.8,2.8-2.9,4.3c2.4,0.2,4.2,0.3,6.7,0.5c-1.3,2.7-2.3,5.1-3.6,7.8
		c4.5,0.1,3.8,5,6.3,6.8c3,2.2,3.1,5.5,4.7,7.9c1.4,0.4,3.4,0.4,4,1.4c1.7,2.5-1.6,3.8-2.1,6c0.5,0.4,1.1,0.8,1.6,1.2
		c-0.1,0.2-0.1,0.7-0.3,0.7c-1.5,0.6-3,1.3-4.5,1.6c-2.9,0.5-6.2,0-8.8,1.1c-2.4,1-4.7,1.8-7.3,2.1c1.8-2.4,2.9-5.6,6.8-5.5
		c-2.1-0.8-4.3-1.6-6.8-2.5c2.2-1.4,5.1-2.5,2.6-6c1.4-0.5,2.5-1,3.6-1.4c2.6-2.9-1.3-4.8-1.3-7.4c-1.3-0.1-2.6-0.1-4.2-0.2
		c1-2.6,0.6-4.4-1.3-6.4c-2.1-2.2-0.9-5.3-0.2-8C641.7,250.5,642.5,249.5,643.2,248.1z"/>
	<path d="M427.5,97.7c-1.6-0.7-3.2-1.4-4.8-2.1c-0.2-1.1-0.3-2.2-0.5-3.3c-0.2-1-0.4-2-0.7-2.9c4.1-1.7,6.3-0.2,8.1,5.3
		c1.2,0.1,2.5,0.2,3.8,0.3c0.7,1.8,1.5,3.5,2.3,5.6c-1.4-0.3-2.7-0.6-4.1-0.8c-0.2,0.5-0.5,1.1-0.8,2c0.5,0.4,1.8,0.9,1.9,1.7
		c0.7,3.5,4.7,3.2,6.3,5.5c0.1,0.2,0.8,0,1.2-0.1c3.9-1.3,7.8-0.5,11.7-0.1c1.2,0.1,2.6,1.6,3.4,2.8c0.8,1.3,1.6,3.1-0.8,4.1
		c-0.2,0.1,0.4,1.5,0.1,1.9c-0.5,0.6-1.6,0.8-2.1,1.4c-1.8,2.1-4.1,1.1-6.2,1c-0.7,0-1.3-1.7-1.8-2.6c-0.7,0.3-2,1.5-3.1,1.3
		c-3.6-0.6-7.2-1.6-10.8-2.5c0-0.8-0.1-1.6-0.2-2.5c-1.3,0.3-2.4,0.9-3.5,0.7c-1.3-0.2-1.4-2.6-3.3-2.3c0.4-2.1,0.2-4.5,1.3-6.3
		C427.1,102.3,427.4,102.4,427.5,97.7z"/>
	<path d="M368.3,84.5c-0.3-0.4-0.7-0.9-1.4-1.8c2.8-0.9,4.6-3.8,8-2.8c0.8,1-0.5,3.4,2.1,3.4c0.3,0,0.8,2.6,0.9,4
		c0.2,1.4,0,2.8,0,4.5c1.5,0.3,3.1,0.7,4.6,1c2.6-0.8-1-3.4,1.6-4.4c2.4-0.8-0.2-3,1-4.8c1.2-0.8,2.8-1.9,4.4-3.1
		c0.2,0.2,0.4,0.3,0.6,0.5c-0.6,2.2-1.6,4.3-1.7,6.5c-0.1,1.5,1,3.1,1.8,5.4c1-1.6,1.5-2.4,1.9-3.1c2.3,1.1,2.7,2.4,1.6,3.8
		c-1.6,2-3.2,4-5.3,5.3c-1.2,0.7-3,1.6-5.2,0.2c-2.5-1.6-6-1.1-8.7,0.5c-2.5,1.4-4.9,1.1-7.4,0.8c-1.9-0.2-2.9-1.4-2.2-4
		c3-0.3,6.2-0.5,9.4-0.8c-2.8-0.4-5.3-2.3-8.5-1.6c-2.2,0.5-4-1.4-5.5-3c-0.9-1,0.2-2.6,1.8-2.7c1.4,0,2.8,0.1,4.5-0.6
		c-0.9-0.5-1.8-0.9-3.6-1.9C365.5,85.3,366.9,84.9,368.3,84.5z"/>
	<path d="M1242.9,688.5c-3.5,0.4-6,2-7.8,5.5c-2,3.7-4.7,7.1-8.4,9.5c-2.5,1.6-3.1,1.5-5.4-0.5c-1.2-1-2.5-1.8-4.1-2.9
		c2.7-5.3,6.6-9,12-12.2c4.3-2.6,9.8-4.3,12.1-10c1.1-2.8,4.1-4.9,6.5-7.6c0.4,0.8,0.6,1.9,1.3,2.4c0.6,0.6,1.6,0.7,2.6,1.1
		c0.5,2.3-0.1,4.3-2.1,6c-1.9,1.6-3.7,3.4-5.3,5.3C1243.4,686,1243.3,687.3,1242.9,688.5z"/>
	<path d="M693.6,107.7c-0.2-1.2-0.3-1.9-0.4-2.6c-3.5,0.1-0.5,4.9-4,5.2c-2.9-2.5-4.9-5.6-4.8-10c-0.7,0-1.9,0-1.9,0
		c-0.1-1.6-0.1-3.3-0.1-4.5c2.3-0.7,3.9-1.2,6.4-2.1c-1.1,1.3-1.6,2-2.3,2.8c0.6,0.4,1.2,0.8,1.8,1.2c0.7-0.9,1.4-1.8,2.5-3.2
		c1,2.8,1.9,5.1,2.7,7.4c0.1-0.1,0.2-0.1,0.3-0.2c-0.3-3.2-0.6-6.3-0.9-9.9c3.8,1.3,5.4,3.6,7.2,6.1c1.6,2.3,4,4,6.3,6.3
		c-3.1,0.5-3.9,2.5-4.2,5.5c-0.4,4.2-1.9,8.2-2.8,12.3c-0.3,1.2-0.3,2.5-0.4,3.6c-3.3,0.1-2-3.4-4.3-4.3c-1.9-0.7-3.9-2.3-3.8-5.3
		c1,0.1,1.9,0.2,3.2,0.3c0.2-0.6,0.2-1.4,0.5-2c0.3-0.5,1-0.8,1.3-1.6c-1.8,0.4-3.7,0.9-5.5,1.3c-1.7-2.8,1.3-2.5,2.2-3.4
		c1.1-1.1,2.4-2,3.7-3.1c-0.1-0.5-0.2-1-0.4-1.9C695.2,106.5,694.6,107,693.6,107.7z"/>
	<path d="M591.5,215.4c1.1-0.8,1.8-1.4,2.5-1.9c-0.1-3.1-2.5-3.3-4.4-4.6c1.5-0.2,3-0.5,4.6-0.7c0.2-0.7,0.4-1.4,0.7-2.6
		c-2-0.1-3.9-0.2-5.9-0.3c0.5-3.1,3.4-4,5.5-4.1c3,0,2,3.3,2.3,5.2c2.9,0.1,3.5-1.5,3.2-4.3c0.9,0.9,1.3,1.4,2,2.2
		c0.5-0.7,0.7-1.7,1.3-1.9c1.1-0.3,2.4-0.2,3.6-0.1c2.8,0.1,2.8,0.1,4.9-1.7c3.4,0.3,4,3.7,5.9,5.7c0.6,0.6,0.3,2.5-0.1,3.6
		c-0.5,1.2-1.5,2.3-2.6,3c-3.3,1.9-6.8,3.6-10.3,5.1c-1,0.4-2.3,0.5-3.4,0.2C598.1,217.4,595.1,216.5,591.5,215.4z"/>
	<path d="M1258.3,660.5c0.2-1,0.2-1.7,0.5-2.1c3.1-5.1,1.8-10.4,0.6-15.7c-0.2-1-0.8-2-0.8-3c0-0.7,0.7-1.4,1.2-2.1
		c0.5,0.4,1.1,0.7,1.6,1.1c2.7,2.4,1.1,5.4,0.9,8.1c-0.1,1.6-0.4,2.9,1.3,3.9c0.4-0.5,0.7-1.1,1.1-1.7c2.7,8.6,3.1,7.3,7.6,5.6
		c0.4,3.8-1.1,6.1-4.8,8c-1,0.5-2.1,1.3-2.4,2.2c-1.7,4.4-5,8.5-9.5,11c-0.4-0.5-0.8-1.1-1.3-1.7c0-0.2,0-0.5,0.2-0.7
		c0.7-0.8,1.4-1.5,2.1-2.4c1.8-2.4,1.7-3.3-0.3-5.4c-0.3-0.3-0.7-0.6-1-0.9c-1.7-1.9-1.4-2.8,1.1-3.8
		C1256.9,660.8,1257.5,660.7,1258.3,660.5z"/>
	<path d="M397.4,122.9c4.3,2,4.8,4.5,2.9,7.5c-1.7,2.6-2.9,5.3-6.7,5.4c-0.7,0-1.4,1.7-2.4,2.9c-3.2-3.8-1.3-9.3-5.8-11.7
		c1.1-2-1.4-5.7,3.3-6c0.9,1.4,1.7,2.7,2.8,4.5c0.9-1.8,1.7-3.2,2.4-4.6c-0.6-0.7-1.2-1.5-1.7-2c-0.2-1.9,2.7-0.7,2.1-2.9
		c0-0.2,1.9-1.5,2.7-1.3c2.6,0.6,5,1.7,7.5,2.6C403.5,120.4,401,121.7,397.4,122.9z"/>
	<path d="M1116.2,237.1c3-1.4,1-3.2,0.4-5.4c1.1,1.4,2.4,2.6,3.3,4.1c1.2,2,2.8,4,3.1,6.2c0.3,2.6,1.6,4.3,2.9,6.3
		c2.7,4.1,5.2,8.3,7.9,12.7c-1.3,0.4-2.2,0.7-3.1,1c-0.6,6.4,1.4,11.6,6.3,15.9c-1.1-0.1-2.2-0.2-3.5-0.3c-0.1,1-0.1,2-0.2,3.1
		c-0.4-0.3-1-0.4-1.1-0.7c-0.6-2.1-1.2-4.2-1.8-6.2c-1.3-4.7-2.5-9.4-4.1-14c-1.5-4.1-2.5-8.5-5.7-11.9c-1.1-1.1-1.6-2.8-2.1-4.3
		C1117.6,241.7,1117.1,239.7,1116.2,237.1z"/>
	<path d="M1013.8,66.2c0.8,2.8,3.5,2.3,5.8,3.3c-2,0.9-3.9,1.4-5.4,2.4c-1.3,0.9-2.3,2.5-3.8,4.2c-3.3,0.6-7.1-1.4-9-4
		c-2.1-2.9-5.9-6.5-2-11.4c2.5,1.4,5.2,2.8,8.1,4.5c-0.5-1.5-1-2.7-1.6-4.3c1.6-0.3,3.1-0.6,3.8-0.8c1.7,2.5,2.9,4.4,4.1,6.2
		C1013.9,66.3,1013.8,66.2,1013.8,66.2z"/>
	<path d="M1105.3,479.9c-0.9,3.6-2.7,4.8-5.8,4.5c-2.8-0.3-5.6-0.3-8.4-0.3c-1,0-2.5,0.4-3,1.2c-0.9,1.3-0.6,2.8,0.5,4.1
		c0.5,0.5,0.8,1.3,0.8,1.2c3.9-1.2,6.9-2.1,10-3c0.1,0.3,0.2,0.5,0.3,0.8c-2.2,1.6-4.5,3.2-6.6,4.7c1.4,2.7,2.7,5.2,4.2,8
		c-1.1,0.6-2.4,1.4-3.9,2.2c-0.7-1.4-1.5-2.6-2-3.9c-0.4-1.1-0.4-2.4-0.6-3.7c-1.9,1.3-1.9,1.3-2.6,9.8c-0.8,0.2-1.6,0.3-2.4,0.5
		c-1.9-2.7,3.1-7.2-3.1-8.2c1.4-3.8,2.6-6.9,3.8-10c0.2-0.4,0.2-0.9,0.3-1.3c0.7-3.7,3.2-5.4,6.9-4.7c1.2,0.2,2.4,0.3,3.6,0.5
		C1100.1,482.7,1103,482.7,1105.3,479.9z"/>
	<path d="M887.5,67.8c-3.2,4.2-6.8,1.1-9.7,1.7c-4.1,0.9-5.3-3.4-8.6-3.5c-0.1-2-0.8-4.3-0.1-5.8c0.8-1.7,2.9-2.8,4.1-3.8
		c2-0.5,3.2,2.4,5,0.1c0.1-0.2,2.3,1,3.3,1.7c0.7,0.5,1.2,1.4,1.4,2.2C883.8,63.2,884.5,66.1,887.5,67.8z"/>
	<path d="M423.2,120.6c-3.1,2.9-5.8,5.4-8.5,8c-2,2-3.8-0.1-5.5-0.6c-1.8,4.5-3.2,5.6-6.8,5.4c1.3-3.5,2.3-7,3.8-10.3
		c1-2.2,2.4-4.5,4.2-5.9c1.2-1,3.7-1,5.4-0.5C418.1,117.4,420.1,119,423.2,120.6z"/>
	<path d="M465.4,295.4c5.4-5.5,6.4-14,13.6-17.9c0.3,3.8-3.6,4.8-3.9,8c0.9-0.3,1.7-0.6,2.9-1c-0.2,1.1-0.3,1.8-0.4,2.4
		c2,2.5,4.7,0.5,7.1,0.9c-0.3,1.7-1,3.3-0.8,4.7c0.3,2.3-2,2.2-2.6,3.5c-1.1,2.1-2.1,0.1-3.1,0c-3.6-0.3-7.3-0.4-10.9-0.6
		C466.5,295.5,465.9,295.5,465.4,295.4z"/>
	<path d="M1150.1,295.1c-3,1.9-6.8,2.3-5.9,7.3c-3.6-1.4-6.8-4.3-10.6-1.1c1.2,0.9,2.4,1.8,3.6,2.8c-1,0.8-1.8,1.4-2.9,2.2
		c-0.5-1.1-0.7-2.4-1.4-3.1c-2.6-2.3,0.1-4,0.3-6c3.4-0.1,1.8-2.7,1.8-4.1c-0.1-2.7-0.9-5.4-1.4-8.3c1.7-0.2,2.6,1,3.6,1.9
		c2.6,2.4,4.9,5,9.2,4.7C1147.4,291.4,1148.7,293.7,1150.1,295.1z"/>
	<path d="M626.3,280c0.8-1.4,1.7-2.8,2.4-4.3c0.4-1,1.1-1.9-0.3-3.1c-0.8-0.7-0.4-2.6-0.5-4.1c1.5-0.1,3.1,0.1,3.9-0.5
		c0.8-0.6,0.9-2.2,1.5-3.6c1.8,0,3.7,0,5.8,0c1.4,1.7,2.7,3.4,0.4,5.7c-0.6,0.6-0.3,2.2-0.2,3.3c0.2,3.6-0.4,4.6-3.9,5.9
		c-1.1,0.4-2.2,0.9-3.3,1.5C629.2,282.3,629.2,282.3,626.3,280z"/>
	<path d="M368.8,72.8c-3.6,2.7-6.2,6.5-11,8c0-1,0-2,0-2.4c-1.7-0.4-3.3-0.7-4.8-1.1c-0.1-0.3-0.2-0.7-0.3-1
		c1.2-0.9,2.2-2.3,3.6-2.7c4.4-1.2,8.4-2.9,12.1-5.5c2.7-1.8,5.2-1.7,7.8,0.6c0.4-0.8,0.8-1.6,1.2-2.3c0.3,0.2,0.6,0.3,1,0.5
		c0,1.1,0.3,2.9,0,3c-3,1-3.5,3.9-5.1,6c-0.3,0.4-0.9,0.7-1.4,0.9c-1.4,0.8-2.9,1.6-4.4,2.4C367.5,79.5,368.7,74.1,368.8,72.8z"/>
	<path d="M701.2,87.1c2.1,1.2,4.1,2.4,6.4,3.8c0-1.5,0-2.8,0-4.1c0.2-0.1,0.5-0.1,0.7-0.2c0.4,0.8,0.8,1.6,1.1,2.3
		c1-0.3,2.1-1.1,3.1-0.9c1.9,0.3,3.7,1,5.5,1.7c0.4,0.2,0.9,1.4,0.7,1.9c-0.8,2-1.8,4-2.8,6c-0.1,0.3-0.8,0.2-1.2,0.4
		c-1.1,0.5-2.2,1-3.7,1.7c-1.7-2.8-6.1-0.1-8.2-3.2c1.1-0.5,2.2-1.1,3.3-1.6c-0.1-0.2-0.1-0.5-0.2-0.7c-1.2,0.2-2.5,0.6-3.7,0.5
		c-1.2-0.1-2.7-0.5-3.3-1.4c-0.4-0.6-1.5-2.8,1.2-3.2C700.6,89.9,700.8,88.1,701.2,87.1z"/>
	<path d="M409.6,185.6c-0.6,3.2,2,3.9,3.4,5.6c1.9,2.3,5,4,3.9,7.9c0.8,0.3,1.8,0.7,3.4,1.2c-1.1,1-2,2.4-2.6,2.3
		c-1.3-0.2-3-0.1-3.5-2.1c-0.3-1.1-1.3-2-2-3c-2.2,1.9-4.1,3.7-6.1,5.4c-0.4,0.4-1.1,0.4-2.1,0.7c-0.2-2-0.4-4.1-3.7-4.4
		c3.7-2.4,4.1-5.8,5.5-8.6C406.6,188.9,406.8,186.6,409.6,185.6z"/>
	<path d="M411.7,69.3c0.7-1.3,1-2.1,1.5-2.9c1,0.5,1.7,0.9,2.7,1.4c0.4-0.5,1-1,1.2-1.6c0.7-2.1,0.9-4.2-1.2-5.7
		c1.6-2.4,1.6-2.4,6.1-1.8c0.3,1.1,0.6,2.4,0.9,3.7c0.7,0.2,1.6,0.3,2.2,0.5c0.9,1.5-0.8,3.4,1.2,4.7c0.4,0.2,0.2,2.5-0.5,3.1
		c-1.6,1.5-2.2,3.5-2.8,5.4c-0.9,2.5-1.4,2.7-4.4,1.9c-0.1-2,1.8-3.9-0.4-6.1C416.4,70.1,414.4,69.8,411.7,69.3z"/>
	<path d="M1150.8,660.6c6.3,2.9,6.3,2.9,12.4,2.2c-0.3,6.7-4.2,10.9-9.6,14.2c-2.1-0.2-2.7-2-2.8-3.8
		C1150.7,669.2,1150.8,665.3,1150.8,660.6z"/>
	<path d="M1067.2,515.1c-0.4,0.6-0.8,1.2-1.1,1.8c-3.3-0.4-6.4-0.7-9.6-1.1c-1.7-0.3-3.4-0.9-5.1-1.2c-1.9-0.3-3.8-0.2-5.7-0.7
		c-3.1-0.8-6.2-2-9.5-3.1c0.7-1.4,1.1-2.3,1.6-3.3c3.3,0.2,6.6-0.2,9.4,2.7c1.1,1.1,4.7,1.3,5.8,0.3c3.1-2.6,5.7-0.3,7.1,1
		c1.8,1.7,3.3,2.6,5.6,2.7c0.5,0,0.9,0.7,1.3,1.1L1067.2,515.1z"/>
	<path d="M401.3,94.2c0.7,0.5,1.5,0.9,2.4,1.5c0.7-1.7,1.4-3.2,2.5-5.6c0.8,2.2,1.4,3.9,2,5.5c0.2,0,0.5,0,0.7,0
		c0.1-1.2,0.4-2.5,0.3-3.7c-0.1-1.4,0.1-2.6,1.5-2.8c0.8-0.1,1.8,0.5,2.7,0.9c0.4,0.2,0.6,1,1,1c2.9,0.6,3,0.7,1.8,2.8
		c-1.6,2.9-3.2,5.9-5.9,8.1c-1,0.8-1.5,2.1-2.3,3.3c-1.6-0.4-3.2-0.8-5-1.2c0.2-1.1,0.3-2.1,0.5-3.1c1.4-0.6,2.8-1.2,5-2.2
		c-2.9-0.5-5-0.9-7-1.3C401.3,96.6,401.3,95.6,401.3,94.2z"/>
	<path d="M893.4,77.7c-2.2-5.3-2.8-10.9-3.5-16.5c0.6-0.1,1-0.3,1.1-0.2c1.9,2.4,5.1,2,7.4,3.4c2.8,1.7,2.9,1.4,4.8,4.8
		c-1,1-1.9,2.3-3.1,3.3C898.2,74.2,896.1,75.7,893.4,77.7z"/>
	<path d="M389.9,409.3c-1.8-1.1-4.5-1.1-5.1-3.8c-0.1-0.4-1.3-0.4-1.9-0.7c-3-1.6-6.8-0.9-9.6-3.5c-0.6-0.5-2.3-0.2-3.4,0.1
		c-1.6,0.5-3.2,1.3-5.6,2.3c0.8-1.5,1-2.5,1.5-2.8c3.1-1.6,6.1-2.4,9.8-1.6c8.2,1.7,14.9,6.8,22.7,9.5c0.6,0.2,0.9,1,1.9,2.3
		c-4.2,0.3-7.6,0.6-11.7,0.9C389.1,410.7,389.5,410.1,389.9,409.3z"/>
	<path d="M865,60.4c-3.5-0.4-4.7-2.5-5.8-5.8c-1.2-3.7,1.6-5.9,2.1-9.2c2.6,1.7,4.9,3.3,7.2,4.8c1,1.7,2.1,3.4,3.3,5.4
		c-2.7,0.9-2.9,5.2-6.8,4.7L865,60.4z"/>
	<path d="M442.4,713.4c-1.9-1.1-3.7-2-5.6,0.3c-0.8-0.8-1.5-1.7-2.4-2.7c1.7-0.5,3.3-1,5.2-1.6c-0.7-0.5-1.4-1-2.4-1.8
		c0.6-0.9,1.2-1.7,2.2-3.1c-1.5,0.3-2.3,0.5-3.2,0.6c-0.9-1.3-0.9-2.3,0.4-3.5c0.4-0.4,0.3-1.2,0.5-1.9c0,0-0.1,0.1-0.1,0.1
		c2.4,0,4.5-0.2,5,3.4c0.2,1.7,2.8,3.3,4.6,4.5c1.7,1.1,3.8,1.7,5.9,2.5c-1.8,4.4-5.3-0.4-7.4,1.8c0.8,0.2,1.8,0.4,2.8,0.6
		c0,0.2-0.1,0.4-0.1,0.6c-1.8,0-3.6,0-5.3,0L442.4,713.4z"/>
	<path d="M1091.9,432.1c-1.2,1.8-2.6,1.9-3.5,0.7c-2.2-3.1-5-6-3.1-10.5c0.9-2.2,0.9-4.8,1.4-7.4c2,0.3,3.4,0.6,4.9,0.8
		c0.4,1.1,1,2.3,1.1,3.5c0.2,1.4,0.5,3.4-0.2,4.2C1089.6,426.3,1090.7,429.1,1091.9,432.1z"/>
	<path d="M1107.2,450c2.2,1.8,2.6,2.6,3.5,9.2c-1.1-0.2-2.1-0.3-3.6-0.5c0.2,1.6,0.4,3.1,0.5,4.6c-4.9,0.3-5,0.3-5.7-4.3
		c-0.2-1.5-0.9-2.1-2.4-1.9c-1.5,0.1-3,0.3-4.9-0.2c1.5-1.2,3-2.4,4.6-3.7c0.7,0.6,1.3,1.1,2.1,1.8
		C1103.3,453.3,1105.3,451.6,1107.2,450z"/>
	<path d="M420.6,416.9c-9.3,0.8-9.3,0.8-11.6,2.9c-2.4-3.1-6.3-0.9-9.2-2.9c2.1,0,4.1,0,6.6,0c-0.7-1.8-1.3-3.3-1.8-4.7
		C410.4,410.9,415.7,412,420.6,416.9z"/>
	<path d="M456.4,137.9c-3.1-0.2-5.4-2.2-8-0.8c-0.3,0.2-2.3-1.3-2.3-2.1c0-2.3,0.5-4.6,0.9-7.5c3,1.4,6,2.1,7.8,3.9
		C456.1,132.8,455.8,135.5,456.4,137.9z"/>
	<path d="M251.8,275.9c-1-0.5-2.1-0.8-2.7-1.5c-2.8-3.3-5.6-6.7-8.1-10.2c-0.6-0.9-0.3-2.4-0.4-3.7
		C248.7,263.5,252.6,270.2,251.8,275.9z"/>
	<path d="M945.5,463c-2.4-4.5-2.5-7.8-0.4-12.1c3,1.3,6,5.8,5.8,8.5C950.6,462,949.1,463,945.5,463z"/>
	<path d="M390.1,159.4c-4.6,2.4-4.8,2.4-7.4-0.2c-0.6-0.6-1.1-1.4-1.8-2c-0.5-0.5-1.2-0.8-1.7-1.1c2.5-1.9,4.9-3.8,7.9-6.1
		C388.1,153.2,389.1,156.2,390.1,159.4z"/>
	<path d="M431,68.6c1.4,2.5,2.5,4.6,3.8,6.9c-0.6,1.3-1.2,2.9-2,4.6c-0.8,0-1.7,0.2-2.6,0.1c-3-0.1-2.4-0.2-2.5-3.7
		C427.7,73.4,428.4,71.2,431,68.6z"/>
	<path d="M385.8,70.9c2.4-5.1,5.6-5.7,11.6-2.4c-2.1,0.7-3.5,1.7-4.1,3.9c-0.6,2.1-3.5,2.4-5.3,1C387.1,72.8,386.6,71.9,385.8,70.9z
		"/>
	<path d="M1085.3,400.1c-4.7-3.4-4.1-9.7,1.7-13.3C1087.8,391.6,1087.1,395.8,1085.3,400.1z"/>
	<path d="M1013.9,66.3c-0.3-2-0.5-4-0.8-6.3c1.9,0.3,4.2,0.6,6.7,1c0.3,0.9,0.9,1.9,1.1,3c0.2,1,0.5,2.7,0,3.1
		c-0.9,0.7-2.5,0.9-3.6,0.8c-1.2-0.2-2.3-1.1-3.5-1.7C1013.8,66.2,1013.9,66.3,1013.9,66.3z"/>
	<path d="M1025.4,61.2c3.5-0.4,6.4-1,9.3-1.1c1.1,0,2.3,0.9,3.3,1.4c-0.3,2.5-1.5,3.5-3.3,3.4C1031.6,64.7,1028.2,64.9,1025.4,61.2z
		"/>
	<path d="M707.4,109.8c1.4-0.3,2.8-0.7,4.6-1.1c-0.2,2.4,0.1,4.4,4.2,3.2c-1.6,2.6-2.6,4.4-4,6.7c-0.3-1.5-0.5-2.2-0.7-3.1
		c-1.1,0.6-2.2,1.1-4.2,2.1c1.3-3.1,0.8-5.4,0.2-7.7C707.5,109.8,707.4,109.8,707.4,109.8z"/>
	<path d="M418,112.5c-2.5-2.1-4.2-3.5-6.2-5.1c1.5-1.4,2.4-2.5,3.6-3.3c0.9-0.6,2.4-1.2,3.1-0.8c0.8,0.5,1.4,2,1.3,3
		C419.7,108,418.9,109.6,418,112.5z"/>
	<path d="M1032.2,85.6c-3,0.3-5.7,0.5-8.8,0.8c-0.1-2.1-1-4.2,1.5-5.4C1026.7,80.2,1030.5,82.5,1032.2,85.6z"/>
	<path d="M1203.7,501.5c-1.7,3.1-3.4,5.7-6.5,6.5c-2.9,0.7-5.9,0.2-9-2.6c3,0,5.2-0.1,7.3,0c2.6,0.2,4.3-0.9,5-3.3
		C1201.1,500.3,1202,501,1203.7,501.5z"/>
	<path d="M762,79c3.2-0.7,3.2-0.7,4.2-4.8c1.3,0.6,2.5,1.2,4,2c-1.8,2.3-3.6,4.2-4.2,7c-0.4,2.1-2.6,0.2-4.1,1
		C762,82.2,762,80.7,762,79z"/>
	<path d="M510.6,166.9c1.1,1.7,2.2,3.4,3.4,5.2c-0.8,2.2-3.1,1.2-4.4,2c-2.9-2-3.4-4.4-2.2-7.7c1.1,0.2,2.2,0.4,3.3,0.6
		C510.8,167.1,510.6,166.9,510.6,166.9z"/>
	<path d="M377.4,113c2-2.9,4.2-0.9,6.2-0.7c1,3.6,0.6,4.2-4.7,6.8C378.4,117.1,377.9,115.1,377.4,113z"/>
	<path d="M1051.9,410.5c-1.2,1.8-2.1,3.6-3.5,4.9c-1.3,1.3-3.4,0.8-4.3-0.7c-0.8-1.5-0.7-2.8,0.8-3.9
		C1047,409.3,1049,408.5,1051.9,410.5z"/>
	<path d="M391.7,61.1c3.7-0.4,6.7-0.6,10-1c0,1.3,0.2,2.5,0,3.6c-0.5,2.3-2.1,2.9-4,1.6C395.9,64.2,394.3,62.9,391.7,61.1z"/>
	<path d="M687,338.8c-0.4-3.4-0.7-5.8-1.1-8.5c0.7-0.5,1.7-1.1,2.7-1.8c3.1,1.8,1.8,4.8,1.7,7.2C690.3,336.5,688.5,337.4,687,338.8z
		"/>
	<path d="M445.5,173.4c-1.7,5.3-2.1,5.7-6.7,5.7c-1.4-2.7,0.9-4,2.2-5.6C442.1,172,443.7,171.9,445.5,173.4z"/>
	<path d="M710.2,341.8c-0.3,2.1-0.5,3.9-0.8,6.2c-3.1-1.6-5.9-3-8.8-4.5c0.1-0.3,0.2-0.6,0.2-0.8C704,342.4,707.1,342.1,710.2,341.8
		z"/>
	<path d="M180.9,200.2c-1.8,3.9-5,4.3-7.6,5.4c-0.3,0.1-1.7-1.1-1.6-1.6c0.1-0.9,0.7-2.1,1.4-2.3C175.4,201,177.8,200.7,180.9,200.2
		z"/>
	<path d="M1100.2,523.9c0.5-4.8,4-6.6,10.9-6c-1.9,0.8-3.8,1.4-5.5,2.3C1103.6,521.3,1102,522.7,1100.2,523.9z"/>
	<path d="M598.7,160.3c-2.1-1.9-3.6-3.3-5-4.6c3-3.3,3-3.3,6.2-1.2C598.8,155.8,598.6,156.4,598.7,160.3z"/>
	<path d="M232.7,249.1c-1-3.9-1.6-7.3-0.6-10.8c3.3,1.2,3.4,1.4,2.6,3.9C234,244.3,233.4,246.4,232.7,249.1z"/>
	<path d="M426.1,83.2c3.8-2,5.9,0.1,8.1,2C431.7,87.3,429.4,86.8,426.1,83.2z"/>
	<path d="M151.4,147.9c-1.1,0.2-2,0.4-2.8,0.6c-1.9-1.3-0.6-5.9-5.1-4.7c0.3-0.6,0.6-1.2,0.9-1.8
		C148.5,141.7,149.7,144.7,151.4,147.9z"/>
	<path d="M789.5,70.2c1.1-0.2,2.1-0.5,3.5-0.8c-1.3,2.7-1.3,2.7,0,5.4c-1.2,0.4-2.4,0.9-3.5,1.3c-2.1-3.5-2.1-3.8,0.1-6
		C789.6,70.1,789.5,70.2,789.5,70.2z"/>
	<path d="M1119.2,352.2c-0.6-2.1-1.2-3.3-1.1-4.4c0.1-1.7,1.8-0.9,2.8-1.3c0.8-0.3,1.4-1.3,2.2-1.3c0.7-0.1,1.9,0.6,2.1,1.2
		c0.2,0.6-0.6,1.5-0.9,2.2C1121.2,346.9,1120.8,349.9,1119.2,352.2z"/>
	<path d="M794.8,68.8c-2.9-2.6-2.9-3.5,0.1-7c0.8,1.3,1.6,2.4,2.4,3.7C796.5,66.5,795.8,67.5,794.8,68.8z"/>
	<path d="M797.3,176.1c-0.3,2.5-1.3,3.9-4.1,4.2c-0.2-1.6-0.5-3.2-0.9-5.6C794.6,175.3,796,175.7,797.3,176.1z"/>
	<path d="M758.3,80.6c-0.6-0.1-1.2-0.1-1.7-0.3c-0.4-0.1-0.7-0.4-1.1-0.7c0.1-0.5,0.1-1.1,0.3-1.3c1.6-1.2,2.5-4,5.3-2.7
		C760.3,77.2,759.4,78.7,758.3,80.6z"/>
	<path d="M788.1,77.5c-1.9,1.7-3.3,2.9-5.5,4.8c-0.4-1.8-1.2-3.1-0.8-3.7c0.7-1,2.1-1.7,3.3-2.3C785.6,76.1,786.5,76.8,788.1,77.5z"
		/>
	<path d="M457.2,305.1c-1.5-3,1.5-4,2.4-6.1c1.6,1.2-0.9,4.2,2.3,4.5c-1.6,0.5-3.3,0.9-4.9,1.4C457.1,305,457.2,305.1,457.2,305.1z"
		/>
	<path d="M780.5,75.4c-0.2-3.6-3.2-3.6-5.6-4.8c3.4-1.3,5.4,0.2,7.8,1.7C781.9,73.3,781.2,74.3,780.5,75.4z"/>
	<path d="M1114.7,484.7c0-1.9,0-3.7,0-5.8c1.6,0.6,2.8,1.1,4.4,1.8c-1.2,1.5-2.4,3-3.6,4.4C1115.2,484.9,1114.9,484.8,1114.7,484.7z
		"/>
	<path d="M1093.3,432.8c2.2-2.2,2.2-2.2,7.7,5C1098,435.8,1095.8,434.4,1093.3,432.8z"/>
	<path d="M1247.4,573.3c-3-2.2-5.4-4.3-6.8-7.9C1243.8,567.2,1246.4,570.2,1247.4,573.3z"/>
	<path d="M413.2,207.1c-2.1,1.6-3.4,4.1-6.5,2.6C408.6,206.3,408.6,206.3,413.2,207.1z"/>
	<path d="M1116.9,497.4c5.3-1.8,6.3-1.6,9.1,1.6c-1.8-0.3-3.3-0.6-4.8-0.9C1119.8,497.8,1118.3,497.6,1116.9,497.4z"/>
	<path d="M451.7,283.7c2.2,1.3,4.3,2.6,6.5,3.9c-3.3,0.6-5.7-0.4-7.2-3.1C451.2,284.2,451.4,284,451.7,283.7z"/>
	<path d="M130,217c1.5-2.8,3.5-3.1,5.8-3C135.6,216.1,135.6,216.1,130,217z"/>
	<path d="M1082.7,517.7c-2.4,0.4-4.9,0.7-7.3,1.1c-0.6-2.2,0.8-2.7,1.8-2.1c1.6,0.9,1.8-0.7,2.7-0.9c0.9-0.2,2,0.6,3.1,1
		C1082.9,517.1,1082.8,517.4,1082.7,517.7z"/>
	<path d="M864.9,60.4c0.6,1.4,3.9,1.9,1.6,4c-1.4,1.3-3.2,0.2-4.6-1.1c-0.3-0.3-0.5-0.7-0.7-1.1c1.3-0.6,2.5-1.2,3.8-1.8
		C865,60.4,864.9,60.4,864.9,60.4z"/>
	<path d="M945.8,100.9c0.8-0.4,1.7-0.8,3-1.4c0.5,1.5,1,2.7,1.5,4.3C947.5,104.3,945.8,104.1,945.8,100.9z"/>
	<path d="M774.8,352.3c-2.5,3.8-2.5,3.8-6.1,1.7C771.1,353.4,773,352.9,774.8,352.3z"/>
	<path d="M412.2,655.5c0-2,0-4,0-6.1c0.5-0.3,0.9-0.6,1.4-1c0.2,0.7,0.6,1.4,0.6,2.1c-0.1,1.7-0.3,3.4-0.5,5.2
		C413.2,655.6,412.7,655.5,412.2,655.5z"/>
	<path d="M231.6,215.2c0.4-1.7,0.7-3.3,1.1-4.8c0.4,0,0.7-0.1,1.1-0.1c0.5,0.9,1.5,1.8,1.3,2.6C234.9,214.1,234.4,215.8,231.6,215.2
		z"/>
	<path d="M486.6,296.6c-0.5,1.8-0.8,2.9-1.3,4.4c-1.1-0.7-2.2-1.1-2.7-1.8c-0.3-0.5-0.1-2.1,0.2-2.2
		C483.8,296.6,485.1,296.7,486.6,296.6z"/>
	<path d="M1085.4,517.6c3.2-2.7,5.6-0.9,8.8-0.7C1091.2,518.7,1088.7,518.2,1085.4,517.6z"/>
	<path d="M1288.4,556.3c2.3-4.2,2.5-4.2,4.7-0.5C1291.4,556,1289.9,556.2,1288.4,556.3z"/>
	<path d="M147.9,173c-1.6,3.7-2.3,3.8-5.3,0.6C144.4,173.4,145.9,173.3,147.9,173z"/>
	<path d="M234.4,224.3c0.1-1.5,0.2-2.6,0.3-3.6c0.8-1,2.4,1.4,2.6-0.9c0.5,0.1,1.2,0.1,1.4,0.4c0.2,0.3,0.3,1.3,0,1.5
		C237.5,222.5,236.2,223.2,234.4,224.3z"/>
	<path d="M236.7,234.3c-0.7-3-1.8-5.3,0.5-7.8C238.2,229.1,238.4,231.4,236.7,234.3z"/>
	<path d="M1105.3,443.7c-1.3-1.9-2.2-3.3-3.8-5.5c1.7,0.3,2.9,0.1,3.4,0.6C1106.2,440,1106.4,441.6,1105.3,443.7z"/>
	<path d="M688,327.2c-0.5-1.1-1.2-2.2-1.3-3.4c-0.1-0.6,0.9-1.2,1.4-1.9c0.5,0.5,1.5,1.1,1.5,1.6c0,1.2-0.5,2.4-0.8,3.6
		C688.5,327.2,688.3,327.2,688,327.2z"/>
	<path d="M363.7,81.8c-1.7,1.3-2.5,4.2-5.9,3.3C359.2,82.6,361.5,82.3,363.7,81.8z"/>
	<path d="M1095.5,449.3c0.9-1.8,1.6-3.1,2.8-5.4c0,2.8,0,4.7,0,6.9C1097.2,450.2,1096.5,449.8,1095.5,449.3z"/>
	<path d="M845.6,137.7c-1.1,1.6-2.2,2.7-3.6,1.1c-0.4-0.5-0.4-2.2,0-2.5C844.1,134.6,844.4,136.9,845.6,137.7z"/>
	<path d="M391.8,418.6c-2.5,1.4-4.4,1.8-6-1.2C388,417.1,390,416.3,391.8,418.6z"/>
	<path d="M239.3,212.4c-1,1.9-1.9,3.8-2.9,5.7c-0.3-0.1-0.6-0.2-0.9-0.3c0.5-2.1,1.1-4.2,1.6-6.5c0.9,0.5,1.6,0.9,2.2,1.2
		C239.4,212.5,239.3,212.4,239.3,212.4z"/>
	<path d="M707.5,109.8c-0.6-1-1.1-1.9-2-3.4c1.5-0.3,2.6-0.6,3.8-0.8c0.2,0.3,0.4,0.5,0.6,0.8c-0.8,1.2-1.7,2.3-2.6,3.5
		C707.4,109.8,707.5,109.8,707.5,109.8z"/>
	<path d="M1090.1,440.1c-1-2.2-1.6-3.6-2.4-5.3C1091.4,436,1091.4,436,1090.1,440.1z"/>
	<path d="M1083.3,520.9c2.3-1,4.4-1,5.8,2.8C1086.6,522.5,1084.9,521.7,1083.3,520.9z"/>
	<path d="M696.5,260.3c-0.3,1.8-0.5,2.9-0.8,4.9c-1.4-1-2.2-1.7-3.6-2.7C693.9,261.6,694.9,261.1,696.5,260.3z"/>
	<path d="M1098.1,442.6c-1.5,1.3-2.4,2.1-4,3.5c0-2,0-3.2,0-4.7C1095.3,441.8,1096.2,442.1,1098.1,442.6z"/>
	<path d="M420,210.9c-0.8,1.2-1.6,2.5-2.4,3.9c-1.6-1.3-1-2.4-0.4-3.3c0.4-0.6,1.4-0.9,2.1-1.4C419.5,210.3,419.8,210.6,420,210.9z"
		/>
	<path d="M281.5,128.7c0,0,0.1-0.1,0.1-0.1c-0.7,0.1-1.4,0.1-2.2,0.2c0.2-0.6,0.2-1.6,0.6-1.8c1.1-0.6,2.3-0.9,4-0.6
		C283.3,127.1,282.4,127.9,281.5,128.7z"/>
	<path d="M471,691.7c1,0.4,1.8,0.7,3.1,1.1c-1.6,1.1-2.9,1.9-4.9,3.3C470,694.1,470.5,692.9,471,691.7z"/>
	<path d="M1038,495.7c0,0,0.1,0.2,0.1,0.2c-0.7-1-1.4-2.1-2.3-3.3c3.3-1,2.2,2.7,3.8,3.6C1039.1,495.9,1038.5,495.8,1038,495.7z"/>
	<path d="M233.2,216.9c1.6,2,0.5,3.4-0.9,4.8C232.6,220.1,232.9,218.5,233.2,216.9z"/>
	<path d="M403.4,80.3c0.6-1.7,1.1-3.4,1.7-5.1c0.3,0.1,0.7,0.2,1,0.3c-0.4,1.7-0.7,3.5-1.1,5.2C404.5,80.5,404,80.4,403.4,80.3z"/>
	<path d="M1212,505.6c1.5,1.2,2.6,2.2,3.9,3.3C1212.9,510,1212.9,510,1212,505.6z"/>
	<path d="M430.3,708.8c-2.5,0.3-3.8-0.6-5.2-2.8C427.5,706.1,429,706.7,430.3,708.8z"/>
	<path d="M429.9,417.6c-1.7,2.3-3.4,1.6-5.6,1.2C425.9,416.3,427.7,417.4,429.9,417.6z"/>
	<path d="M119.7,222.4c1-1.3,1.8-2.3,2.6-3.4C123.4,221.3,123.4,221.3,119.7,222.4z"/>
	<path d="M742.1,354c2-2.4,3.4-1.5,5.7,0C745.5,354,744.1,354,742.1,354z"/>
	<path d="M485.5,81.9c-1-0.8-1.8-1.4-2.8-2.2C485.9,79,485.9,79,485.5,81.9z"/>
	<path d="M1169.8,186.9c-1.4-1.4-1.1-2.6,0.2-3.5c0.3-0.2,1.3,0.2,1.4,0.5C1172.2,185.6,1170.8,186.1,1169.8,186.9z"/>
	<path d="M1112.7,499.2c-1.3-0.1-2.6-0.3-3.9-0.4c1.4-1.8,2.6-2.1,3.9-0.9C1112.7,498.3,1112.7,498.8,1112.7,499.2z"/>
	<path d="M1019.6,82c-0.5-1-1-2-1.8-3.5C1020.5,79.6,1020.5,79.6,1019.6,82z"/>
	<path d="M416.3,78.8c-1.5-1.1-2.3-1.7-3.1-2.2c0.3-0.4,0.6-1.1,1-1.2C415.7,75.1,416.2,76.1,416.3,78.8z"/>
	<path d="M386.2,64.4c0.7,1.1,0.9,2.1-0.4,2.8c-0.2,0.1-1-0.2-1-0.5C384.3,65.6,384.4,64.5,386.2,64.4z"/>
	<path d="M1297.6,548.6c-1.2,3-3,1.8-4.5,1.4C1294.4,549.7,1295.7,549.3,1297.6,548.6z"/>
	<path d="M403.9,114c-1.2,1.1-2.4,2.5-4,0.3C401.5,114.2,402.7,114.1,403.9,114z"/>
	<path d="M611.6,134.2c0.8,1.6,1.2,2.5,1.6,3.5C610.4,138,610.4,138,611.6,134.2z"/>
	<path d="M399.1,90.3c1.7,0.1,2.8,0.2,4.2,0.3C401.6,92.8,401.6,92.8,399.1,90.3z"/>
	<path d="M392.1,100.1c0.7-1,1.2-1.7,1.9-2.6C394.5,99.8,394.5,99.8,392.1,100.1z"/>
	<path d="M442.3,713.3c0.4,0.4,0.9,0.8,1.8,1.6c-1.6,0.2-2.8,0.3-4.3,0.5c0.5-1.9,1.2-2.6,2.6-2
		C442.4,713.4,442.3,713.3,442.3,713.3z"/>
	<path d="M868.5,137.6c-3-0.1-3.3-1-2.2-3.2C867.1,135.5,867.6,136.2,868.5,137.6z"/>
	<path d="M882.9,682.3c0.9,0.3,1.9,0.6,3.4,1c-1.9,1.4-2.8,0.9-3.7,0.1C882.7,683,882.8,682.7,882.9,682.3z"/>
	<path d="M866.3,141.1c-0.2,0.2-0.3,0.4-0.5,0.6c-0.5,0.2-1.1,0.4-2.4,0.9c0.7-1.2,1.1-1.9,1.5-2.7
		C865.3,140.4,865.8,140.7,866.3,141.1z"/>
	<path d="M436.7,58.2c-0.6-1-1.1-1.7-1.7-2.8c1-0.3,1.8-0.6,3.4-1.1C437.6,56.1,437.2,57,436.7,58.2z"/>
	<path d="M789.6,70.1c-0.7-0.5-1.3-1.1-2.3-1.9c1-0.4,1.9-1.1,2.3-0.9c1.7,0.8,0,1.9-0.1,2.9C789.5,70.2,789.6,70.1,789.6,70.1z"/>
	<path d="M437.8,91.5c0.2-1.8,0.3-2.7,0.4-3.8C440.3,89.3,440.3,89.3,437.8,91.5z"/>
	<path d="M469.2,693.1c-0.7,0.5-1.4,0.9-2.1,1.4c-0.2-0.4-0.5-0.9-0.7-1.3c0.8-0.3,1.6-0.6,2.4-0.9
		C468.9,692.5,469.1,692.8,469.2,693.1z"/>
	<path d="M714.1,254.1c0.3-0.9,0.5-1.8,0.8-2.7c0.3,0.1,0.7,0.1,1,0.2c-0.1,0.9-0.3,1.9-0.4,2.8
		C715.1,254.3,714.6,254.2,714.1,254.1z"/>
	<path d="M1175.2,202.9c0.8,0.8,1.6,1.7,2.9,3.2c-3.1-0.5-3.1-0.5-2.8-3.3C1175.3,202.8,1175.2,202.9,1175.2,202.9z"/>
	<path d="M180.2,198c0.7-0.3,1.4-0.6,2.1-1c0.1,0.4,0.4,1,0.4,1c-0.7,0.3-1.4,0.6-2.1,0.9C180.4,198.6,180.3,198.3,180.2,198z"/>
	<path d="M163.1,156.4c0,0,0.1,0,0.1,0c-0.7-0.5-1.4-0.9-2.3-1.5c0.7-0.6,1.2-1.2,2.6-2.5C163.3,154.4,163.2,155.4,163.1,156.4z"/>
	<path d="M1127.1,527.3c-1.2,2.5-2.2,2.2-3.6,0.9C1124.6,527.9,1125.5,527.7,1127.1,527.3z"/>
	<path d="M396.6,264.9c1.4-1.8,2.4-1.5,3.9,0.6C398.8,265.2,397.8,265,396.6,264.9z"/>
	<path d="M278.6,127.1c0.1,1,0.1,1.7,0.2,2.7C276.8,128.7,276.8,128.7,278.6,127.1z"/>
	<path d="M401.8,85.9c0.4,0.9,0.8,1.9,1.1,2.8c-0.6,0.2-0.9,0.4-1.1,0.4C399.1,88.5,401.1,87.2,401.8,85.9z"/>
	<path d="M996.7,72.3c-0.6-0.9-1.1-1.8-1.9-3c0.7,0.1,1.3,0,1.4,0.2c0.4,0.8,0.8,1.7,1.1,2.5C997.1,72.1,996.9,72.2,996.7,72.3z"/>
	<path d="M777.9,67.7c0.3-0.8,0.5-1.6,0.9-2.3c0-0.1,0.5,0.1,0.8,0.1c-0.2,0.8-0.3,1.6-0.5,2.5C778.8,67.8,778.3,67.7,777.9,67.7z"
		/>
	<path d="M548.2,56.7c-0.2,0.8-0.4,1.6-0.6,2.5c-0.2,0-0.4-0.1-0.7-0.1c0.1-0.8,0.2-1.7,0.2-2.5C547.5,56.6,547.9,56.6,548.2,56.7z"
		/>
	<path d="M725.5,247.2c0.8-0.3,1.7-0.6,3-1C727.9,248.2,727.2,248.8,725.5,247.2z"/>
	<path d="M1170.6,247.9c-0.4,1.1-0.9,2.1-1.3,3.2c-0.3-0.1-0.7-0.3-1-0.4c0.5-1,1.1-2,1.6-3C1170.2,247.7,1170.4,247.8,1170.6,247.9
		z"/>
	<path d="M1130.4,633c1.5-0.9,2.4-2,3.9,0C1132.9,633,1131.9,633,1130.4,633z"/>
	<path d="M445.4,446.9c-0.5,0.5-0.8,0.7-1,1c-0.3-0.4-0.7-0.7-0.9-1.1c-0.1-0.2,0.4-0.6,0.6-0.9
		C444.5,446.1,444.9,446.4,445.4,446.9z"/>
	<path d="M690.5,265.2c-0.6-0.4-1.2-0.8-1.9-1.3c0.2-0.3,0.4-0.7,0.7-1c0.6,0.4,1.2,0.8,1.9,1.3C691,264.6,690.7,264.9,690.5,265.2z
		"/>
	<path d="M426.4,206.7c-0.5-0.7-1.1-1.4-1.6-2c0.2-0.2,0.4-0.4,0.5-0.6c0.7,0.5,1.4,1.1,2,1.6C427,206,426.7,206.4,426.4,206.7z"/>
	<path d="M435.8,166.4c0.7-0.3,1.5-0.7,2.2-1c0.1,0.2,0.2,0.4,0.3,0.6c-0.7,0.3-1.4,0.7-2.2,1C436,166.8,435.9,166.6,435.8,166.4z"
		/>
	<path d="M449,176.9c-0.8-0.3-1.5-0.6-2.3-0.8c0.1-0.3,0.2-0.6,0.3-0.9c0.8,0.2,1.6,0.5,2.4,0.7C449.3,176.2,449.1,176.6,449,176.9z
		"/>
	<path d="M1044.8,495.1c0.3,0.6,0.6,1,0.6,1.4c0,0.2-0.8,0.6-0.9,0.5c-0.4-0.3-0.6-0.7-0.8-1.2
		C1043.7,495.7,1044.3,495.4,1044.8,495.1z"/>
	<path d="M1229.5,519.9c0.8,0.4,1.5,0.8,2.3,1.2c-0.1,0.2-0.2,0.4-0.3,0.6c-0.8-0.3-1.7-0.6-2.5-0.8
		C1229.2,520.5,1229.3,520.2,1229.5,519.9z"/>
	<path d="M410.6,247c-0.7,0.6-1.3,1.2-2,1.8c-0.2-0.2-0.4-0.4-0.5-0.6c0.7-0.6,1.4-1.2,2-1.8C410.3,246.6,410.4,246.8,410.6,247z"/>
	<path d="M1067.1,515.2c1.1,0.1,2.2,0.2,3.5,0.3c-1.5,1.5-1.5,1.5-3.3-0.5C1067.2,515.1,1067.1,515.2,1067.1,515.2z"/>
	<path d="M453.6,303c-1.8-0.9-2.8-1.4-3.9-1.9C451.3,300.5,452.6,300.4,453.6,303z"/>
	<path d="M113.3,223.8c0.9-0.7,1.8-1.3,2.6-2c0.2,0.2,0.3,0.4,0.5,0.6c-0.8,0.7-1.7,1.4-2.5,2.1
		C113.7,224.3,113.5,224.1,113.3,223.8z"/>
	<path class="st0" d="M996.8,265c0.4-1.2,0.7-2.2,1-3.3"/>
	<path class="st0" d="M1007.2,256.3"/>
	<path class="st0" d="M1006.2,239.1c0.3,0,0.6-0.1,1-0.1c0.4,1,0.9,2,1.2,3"/>
	<path class="st0" d="M853.9,310.1"/>
	<path class="st0" d="M903.4,300.2c0.4-2.1,2.4-3.2,4.9-3.2"/>
	<path class="st0" d="M933.3,285.2c2.2,1.4,4.3,2.8,6.3,4.2"/>
	<path class="st0" d="M1104.1,292.7c-0.5-0.1-0.6-0.1-0.7-0.1"/>
	<path class="st0" d="M1046.1,92.1c-0.6,1-1.2,2-2,3.3c-0.9-2.8-0.9-2.8,2.1-3.1C1046.3,92.3,1046.1,92.1,1046.1,92.1z"/>
	<path class="st0" d="M1053.4,373.7c-1.1-0.4-2-0.8-3.7-1.4"/>
	<path class="st0" d="M1064.4,370.6"/>
	<path class="st0" d="M791.1,250.4c-1.1,0-2.2,0-3.4,0c0-0.1,0-0.2,0-0.3c1.1,0,2.2,0,3.4,0C791.1,250.3,791.1,250.4,791.1,250.4z"
		/>
	<path class="st0" d="M906.5,255"/>
	<path class="st0" d="M904.6,256.2"/>
	<path class="st0" d="M372.2,277.7c-0.2,1.2-0.4,2.5-0.6,4.1"/>
	<path class="st0" d="M322.8,231.4c1.5-0.8,2.5-1.3,3.9-2"/>
	<path class="st0" d="M337.7,237C337.8,237,337.7,236.9,337.7,237c-1.2,0.5-2.4,1.1-3.6,1.7"/>
	<path class="st0" d="M327.5,167.5"/>
	<path class="st0" d="M339.4,270.1c0,0,0.1,0.1,0.1,0.1c-0.4-1.2-0.8-2.3-1.4-4"/>
	<path class="st0" d="M426.5,701c1.1,0,1.9,0,2.7,0C427.8,702.1,427.8,702.1,426.5,701z"/>
	<path class="st0" d="M511.9,186.5c0.5-1.2,0.8-2,1.1-2.9c0,0-0.1-0.1-0.1-0.1"/>
	<path class="st0" d="M465.7,81.2c-1.8-1.8-3.1-3-4.3-4.2c0,0-0.1,0.1-0.1,0.1"/>
	<path class="st0" d="M447.9,199c0.8-1.4,1.5-2.6,2.3-3.9"/>
</g>
<g>
	<g>
		<g id="XMLID_1_">
			<polygon class="st1" points="697.2,299.5 714,307.5 714,309.1 695.5,309 			"/>
			<polygon class="st2" points="697.2,299.5 714,307.5 714,309.1 695.5,309 			"/>
		</g>
		<path class="st3" d="M694,236.3c0,0,7.2,0.8,8.8,6.4c1.6,5.6-2.4,65.6-8.8,68V236.3z"/>
		<path class="st2" d="M712.4,261.9L712.4,261.9c-1.3,0-2.4-1.1-2.4-2.4v-3.2c0-1.3,1.1-2.4,2.4-2.4l0,0c1.3,0,2.4,1.1,2.4,2.4v3.2
			C714.8,260.8,713.7,261.9,712.4,261.9z"/>
		<path class="st2" d="M718.8,265.9L718.8,265.9c-1.3,0-2.4-1.1-2.4-2.4v-3.2c0-1.3,1.1-2.4,2.4-2.4l0,0c1.3,0,2.4,1.1,2.4,2.4v3.2
			C721.2,264.8,720.1,265.9,718.8,265.9z"/>
		<path class="st2" d="M725.2,269.1L725.2,269.1c-1.3,0-2.4-1.1-2.4-2.4v-3.2c0-1.3,1.1-2.4,2.4-2.4l0,0c1.3,0,2.4,1.1,2.4,2.4v3.2
			C727.6,268,726.5,269.1,725.2,269.1z"/>
		<polygon class="st3" points="702,253.1 736.4,271.5 736.4,277.1 711.9,271.5 701.8,271.9 		"/>
	</g>
	<g>
		<g id="XMLID_2_">
			<polygon class="st1" points="690.8,299.5 674,307.5 674,309.1 692.5,309 			"/>
			<polygon class="st2" points="690.8,299.5 674,307.5 674,309.1 692.5,309 			"/>
		</g>
		<path class="st3" d="M694,236.3c0,0-7.2,0.8-8.8,6.4c-1.6,5.6,2.4,65.6,8.8,68V236.3z"/>
		<path class="st2" d="M675.6,261.9L675.6,261.9c1.3,0,2.4-1.1,2.4-2.4v-3.2c0-1.3-1.1-2.4-2.4-2.4l0,0c-1.3,0-2.4,1.1-2.4,2.4v3.2
			C673.2,260.8,674.3,261.9,675.6,261.9z"/>
		<path class="st2" d="M669.2,265.9L669.2,265.9c1.3,0,2.4-1.1,2.4-2.4v-3.2c0-1.3-1.1-2.4-2.4-2.4l0,0c-1.3,0-2.4,1.1-2.4,2.4v3.2
			C666.8,264.8,667.9,265.9,669.2,265.9z"/>
		<path class="st2" d="M662.8,269.1L662.8,269.1c1.3,0,2.4-1.1,2.4-2.4v-3.2c0-1.3-1.1-2.4-2.4-2.4l0,0c-1.3,0-2.4,1.1-2.4,2.4v3.2
			C660.4,268,661.5,269.1,662.8,269.1z"/>
		<polygon class="st3" points="686,253.1 651.6,271.5 651.6,277.1 676.1,271.5 686.2,271.9 		"/>
	</g>
	<path class="st4" d="M689.6,243.1c0,0,4-3.2,8.8,0l1.6-2.4c0,0-6.4-3.2-12,0L689.6,243.1z"/>
</g>
<g>
	<g>
		<g id="XMLID_7_">
			<polygon class="st1" points="614.1,539.9 613.2,528.7 614,528.3 619.5,537.9 			"/>
			<polygon class="st2" points="614.1,539.9 613.2,528.7 614,528.3 619.5,537.9 			"/>
		</g>
		<path class="st3" d="M582.2,560.5c0,0-1.7-4,0.7-6.5s34.8-18.4,38-15.8L582.2,560.5z"/>
		<path class="st2" d="M590,543.3L590,543.3c0.4,0.7,0.2,1.6-0.5,2l-1.7,1c-0.7,0.4-1.6,0.2-2-0.5l0,0c-0.4-0.7-0.2-1.6,0.5-2l1.7-1
			C588.7,542.3,589.6,542.6,590,543.3z"/>
		<path class="st2" d="M590.1,538.7L590.1,538.7c0.4,0.7,0.2,1.6-0.5,2l-1.7,1c-0.7,0.4-1.6,0.2-2-0.5l0,0c-0.4-0.7-0.2-1.6,0.5-2
			l1.7-1C588.9,537.8,589.7,538,590.1,538.7z"/>
		<path class="st2" d="M589.9,534.4L589.9,534.4c0.4,0.7,0.2,1.6-0.5,2l-1.7,1c-0.7,0.4-1.6,0.2-2-0.5l0,0c-0.4-0.7-0.2-1.6,0.5-2
			l1.7-1C588.6,533.5,589.5,533.8,589.9,534.4z"/>
		<polygon class="st3" points="588.5,551.3 587.8,527.9 590.7,526.2 595.1,540.6 598.3,545.8 		"/>
	</g>
	<g>
		<g id="XMLID_3_">
			<polygon class="st1" points="616,543.2 625.2,549.5 626,549.1 620.4,539.5 			"/>
			<polygon class="st2" points="616,543.2 625.2,549.5 626,549.1 620.4,539.5 			"/>
		</g>
		<path class="st3" d="M582.2,560.5c0,0,2.6,3.5,6,2.7c3.4-0.8,33.4-20.9,32.7-25L582.2,560.5z"/>
		<path class="st2" d="M601,562.4L601,562.4c-0.4-0.7-1.3-0.9-2-0.5l-1.7,1c-0.7,0.4-0.9,1.3-0.5,2l0,0c0.4,0.7,1.3,0.9,2,0.5l1.7-1
			C601.2,564,601.4,563.1,601,562.4z"/>
		<path class="st2" d="M605,564.5L605,564.5c-0.4-0.7-1.3-0.9-2-0.5l-1.7,1c-0.7,0.4-0.9,1.3-0.5,2l0,0c0.4,0.7,1.3,0.9,2,0.5l1.7-1
			C605.2,566.1,605.4,565.2,605,564.5z"/>
		<path class="st2" d="M608.6,566.9L608.6,566.9c-0.4-0.7-1.3-0.9-2-0.5l-1.7,1c-0.7,0.4-0.9,1.3-0.5,2l0,0c0.4,0.7,1.3,0.9,2,0.5
			l1.7-1C608.8,568.4,609,567.6,608.6,566.9z"/>
		<polygon class="st3" points="593.3,559.6 613.2,572 616.1,570.3 605.9,559.2 603,553.9 		"/>
	</g>
	<path class="st4" d="M587,560.7c0,0-2.9-1.1-2.6-4.6l-1.7-0.1c0,0,0.3,4.3,3.6,6.2L587,560.7z"/>
</g>
</svg>
