<?xml version="1.0" encoding="utf-8"?>
<!-- Generator: Adobe Illustrator 21.0.2, SVG Export Plug-In . SVG Version: 6.00 Build 0)  -->
<svg version="1.1" id="Layer_1" xmlns="http://www.w3.org/2000/svg" xmlns:xlink="http://www.w3.org/1999/xlink" x="0px" y="0px"
	viewBox="0 0 1164 695" style="enable-background:new 0 0 1164 695;" xml:space="preserve">
	 <style type="text/css">
		 .st0{fill:#7B13D6;}
		 	.st1{fill:#004D40;}
		 	.st2{fill:#E0E0E0;}
		 	.st3{fill:#2196F3;stroke:#000000;stroke-miterlimit:10;}
		 	.st4{fill:#FFFFFF;}
		 	.st5{fill:#EFEBE9;}
		 	.st6{fill:#795548;}
		 	.st7{fill:#D32F2F;}
		 	.st8{fill:#BCAAA4;}
		 	.st9{fill:#75BBEA;}
		 	.st10{fill:#327066;}
		 	.st11{fill:#727272;}
		 	.st12{fill:#989898;}
		 	.st13{fill:#BFBFBF;}
		 	.st14{fill:#3E2723;}
		 	.st15{fill:#5D4037;}
		 	.st16{fill:#DFDFDF;}
		 	.st17{fill:#F8F8F8;}
		 	.st18{fill:#B71C1C;}
		 	.st19{fill:#D32F2F;}
		 	.st20{fill:#D80F1E;}
		 	.st21{fill:#161E23;}


		.plane1{
			animation: plane1Animation 10s linear infinite
		}
		.planeFade{
			animation: fadeAnimation 10s linear infinite;
		}
		.planeSpin{
			animation: plane1Angle 10s linear infinite;
		}
		.kelownaPin{
			transform: translate(266px, 240px);
		}
		.ukPin{
			transform: translate(640px, 262px);
		}

		@keyframes plane1Animation{
			0% {
					transform: translate(0px, 0px);
			}
			50% {
				transform: translate(1164px, 695px);
			}
			100% {
				transform: translate(1164px, 695px);
			}
		}
		@keyframes plane1Angle{
			0% {
				transform: rotate(70deg);
			}
			25%{
				transform: rotate(85deg);
			}
			50%{
				transform: rotate(105deg);
			}
		}

		@keyframes fadeAnimation{
			0% {
					opacity: 1;
					transform: scale(0.4);
			}
			25% {
				opacity: 1;
				transform: scale(1.0);
			}
			50% {
				opacity: 1;
				transform: scale(0.4);
			}
			51%{
			opacity: 0;

			}
			100% {
				transform: scale(0.4);
				opacity: 0;
			}
		}

	 </style>




 <path d="M759.6,140c-1.2-1.6-2.5-2.1-4.4-0.8c-1,0.7-2.3,1.1-3.5,1.6c-1.9-3.3-3.5-6.2-3.2-9.9c0.1-1-0.8-2.1-1.6-3
 	c-1.1-1.2-2.4-2.3-3.7-3.5c0.3-2-0.4-4.1,1.1-6.2c0.8-1.1,0.1-3.3,0.1-5.4c1.5,3.8,2.9,7.3,4.3,10.9c3.1,0.2,6,0.4,9.5,0.7
 	c-2.7-3.2-8.6-0.9-9.1-6.6c0.8,0,1.5,0,2.3,0c1.1,0,2.8,0.5,3.1,0c1.1-1.4-0.5-1.9-1.5-2.5c-0.3-0.2-0.3-1.1-0.4-1.6
 	c0.2-0.2,0.4-0.4,0.5-0.6c2.9-0.7,5.6,0.4,7.5,2c2.6,2.2,5.1,2.5,8.1,1.5c0.4,3.2,0.7,6.1,1,8.6c1.9-0.4,3.4-0.7,5-1
 	c-1.5,1.4-2.5,2.9-1.4,5.1c2.6-1.4,1.4-3.4,1.4-5.1c-1.7-1.8-3.5-3.5-3.6-6.3c0-0.5-0.4-1.5-0.7-1.5c-3.3-0.6-4.8-4.4-8.3-4.4
 	c-0.7,0-1.8-0.2-2-0.6c-1.6-2.8-3-5.6-4.5-8.6c5-2,9.5-3.8,14.2-5.7c0.3,0.4,0.7,0.9,1.3,1.7c0.6-0.7,1.1-1.3,1.9-2.3
 	c-2.4-1.4-4.5-2.6-6.6-3.8c0.5-0.3,0.9-0.5,1.5-0.8c-1.3-0.7-2.5-1.3-4.5-2.4c1.7-0.2,2.4-0.3,3.1-0.4c0.8-0.8-0.3-1.5,0.3-2.7
 	c1.9-4.1,4.3-7.3,8.4-9.2c1.2-0.5,2.2-1.4,3.5-2.2c-0.9-0.4-1.5-0.7-2.3-1.1c1.6-3,4.8-2,7.2-3.4c0.1,1.1,0.2,1.8,0.4,3.2
 	c2.2-1.8,4.2-3.4,6.7-5.3c0.8,0.6,1.9,1.5,3.2,2.4c0-2.9-2.5-3.1-4.3-4.2c2.1-2.1,4.9-0.7,7-1.9c-6.6-2.7-7.5-10.5-3.5-16
 	c0.7,0.1,1.4,0.1,2.1,0.2c4.7,1,4.8,1.2,2.7,6.1c2.5-0.6,4.8-1.2,7.1-1.7c3.2,1.7-0.3,5.2,2.2,7.1c2.2-0.6,3.5-1.8,1.8-4.4
 	c2.2-1.1,4.3-2.1,7-3.4c2.6,1.5,5.6,3.2,8.7,5c0,0,0.3-0.4,0.6-0.8c1.3,1.2,2.6,2.4,4,3.7c-1,0.3-1.7,0.6-2.5,0.9
 	c0.2,0.2,0.2,0.4,0.3,0.4c4.6,2.5,4.5,2.4,3.3,8.1c-1,4.4-3.2,8.6-3.2,13.3c0,1.4-1.5,2.7-1.8,4.1c-0.5,1.9-0.6,3.9-1,6.3
 	c2.9-1.1,0.7-2.5,1.3-3.8c4.4-0.5,5.3-4.8,7.7-8c-0.9,0.2-1.7,0.4-3,0.7c0.1-0.9,0-2.3,0.2-2.3c1.2-0.3,3.1-0.8,3.6-0.2
 	c2.3,2.3,4.2,1.5,6.1-0.3c0.7,0.9,1.3,1.5,1.9,2.2c2.6-5.6,8.2-3.3,12.3-5.3c0.6,1.4,0.8,3,1.7,3.5c1,0.6,2.7-0.2,3.8,0.2
 	c4,1.5,7-0.9,10.6-2.1c-0.9-1.7-1.8-3.4-2.6-4.9c0.2-0.3,0.3-0.5,0.4-0.6c1.5-1.6,3.7-2.1,5.3-1.1c2.2,1.3,3.7-0.5,5.4-0.4
 	c1.8,0.1,3.7,1,5.3,2.1c1.7,1.1,3.1,2.8,3,5.1c2.2,0,3.5,1.2,4.4,3.6c-1.3,0.2-2.3,0.3-4.5,0.6c6.2,2.7,10.5,6.8,17.1,8.4
 	c-1-3.5-1.9-6.4-2.8-9.4c2.6,0.3,5,0.7,7.1,1c1.2-1.4,2-3,3.1-3.3c1.2-0.3,2.8,0.4,4.2,0.9c1.3,0.5,2.4,2,4.4,0.7
 	c-0.7-0.9-1.4-1.6-2.5-2.9c1.9-0.4,3.5-0.7,5.5-1c-1.5-2.3-4.5-3.5-3.3-6.9c-1,0.4-1.8,0.7-2.6,1.1c-2.7-3.3,2.3-2.8,2.4-5.1
 	c-0.8-0.4-1.7-0.9-2.6-1.4c0.2-0.3,0.4-0.7,0.5-0.7c3.4-0.1,6.8-0.3,10.2-0.3c1.8,0,3.7,0.4,5.5,0.7c-3.1,0.3-3.1,0.3-2.1,3.1
 	c0.8-1.3,1.4-2.3,2-3.3c0.9,0.2,1.7,0.3,2.7,0.5c-2.1,1.6,0.1,3.9-0.8,6c0.5-0.5,1.2-0.8,1.6-1.4c0.3-0.5,0.3-1.1,0.3-1.7
 	c0-2-1.1-4.5,1.6-5.5c2.8-1.1,5.8-1.5,8.4,1.3c-0.6,0.9-1.1,1.7-1.7,2.6c2.4,1.2,5,1.2,7.3,3.3c0.3-0.4,0.8-1.3,1.4-2.3
 	c1.8,1.3,4,1.2,5,3.6c0.7,1.6,2.6,0.3,3.9-0.5c3.1-1.7,6.2-3.5,9.5-5c4.8-2.1,10.4,0.5,12.4,5.4c0.4,1.1,0.7,2.3,1.1,3.6
 	c1.9-0.1,3.8-0.2,5.8-0.3c0.6,0.8,1.2,1.7,2,2.8c0.6-0.3,1.2-0.5,1.2-0.7c0.2-1.4,0.3-2.9,0.5-4.4c4-2.7,8.7-2.3,13.4-3.4
 	c0.1-1.9,0.2-3.8,0.3-5.6c1.4-0.8,2.8-0.9,3.4,0.7c0.3,0.8-0.3,1.9-0.5,3.3c0.6,1.4,2,2.6,4.4,2.8c1.2,0.1,2.3,1.6,3.4,2.5
 	c4-1.3,4.3-1.8,1.8-4.8c-0.8-0.9-1.5-2.1-2.5-2.5c-2.6-1.1-2.9-3.4-3.7-5.2c4.2-1.1,8.2-2.5,12.2-3.1c3.3-0.5,6.8-0.5,10.1,0
 	c2.9,0.4,6.1,0.2,8.4,2.5c0.2,0.2,0.6,0.3,0.8,0.2c6.3-1.5,12.3,1.4,18.6,1.3c1,0,2.2,0.9,3,1.7c1.2,1.1,2.4,2.3,3.1,3.8
 	c1.1,2.3,2.6,2.4,4.8,1.7c-1.6-1.8-3.1-3.5-4.9-5.4c1.7-1.3,3.3-2.6,5.1-4c2.6,0.8,5.4,1.6,8.3,2.5c0.2,0.9,0.3,2,0.7,2.9
 	c1.5,4.1,1.5,4.1-1.6,7c1.9,1.9,4.5,3.1,4.2,6.7c-0.1,1.2,2,2.5,3.6,4.4c-3.5,0.5-6.5,1-9.8,1.5c-0.8-0.8-2-1.8-3.1-2.8
 	c-3.4-0.3-3.8,2.4-4.6,5.3c-2.2-1.9-3.8-3.3-5.5-4.7c-2.2,2.5-2.1,4,1,5.7c2.8,1.5,4.3,3.5,3.7,6.8c-0.2,0.9,0,1.8,0,2.7
 	c-0.1,3-1.5,4.1-4.7,3.7c-1.5-0.2-3,0-4.9,0c1.6,2.2,1.6,2.2,4.1,1c1.6,0.8,2.4,3,5.1,2.6c1-0.2,2.2,2.8,4.3,3.2
 	c-0.3,2.9,2.5,2.9,4,4c2.8,1.9,5,4.1,4.4,7.8c-0.4,0.2-0.7,0.5-0.9,0.4c-4.2-1.1-6.5,1.1-8.6,4.4c-3.7,5.8-4.7,12.3-5.6,18.8
 	c-0.1,0.8,0.3,1.7,0.6,3.2c-1.5-0.9-2.5-1.4-3.4-2c-4.3-2.8-7.6-1.5-8.8,3.6c-0.1,0.5-0.2,1.1-0.5,2.2c-0.9-1.4-1.5-2.3-2.3-3.4
 	c-1.9,1.4-2.1,4.5-5,4.5c-0.2,0-0.9,2.3-0.5,3.1c1.4,3.1,1.5,6.3,1.6,9.5c0.1,2.3,0.7,4.4,3.2,5.5c0.2-0.7,0.3-1.3,0.5-1.9
 	c2.1,0,3.1,1,2.7,3.1c-0.6,2.6-0.1,4.3,2.9,4.8c0.1,0,0.1,0.8,0.2,1.3l0.1-0.1c-2,2.8-1.8,7.8,0.4,10.7c0.9,1.2,1.9,2.3,2.9,3.4
 	c-1.1,2.1-4.8,1.6-4.5,4.6c0.2,2.3,0.6,4.6,0.9,7.6c-0.3,0.2-1.3,1-2.5,2c1.1,4.1,3.1,8.3-1,12.5c-0.7-0.7-2.2-1.5-2.5-2.6
 	c-1.3-4.9-5-8.2-7.6-12.2c-3.6-5.9-7.3-11.6-9-18.5c-0.4-1.7-1-3.4,0.2-5.2c0.5-0.7,0.9-1.8,0.6-2.6c-0.9-2.7,0-4.8,1.7-6.8
 	c0.5-0.7,0.9-1.6,1-2.5c0.4-4.7,0.8-9.4,0.8-14.2c0-3.1,0.8-5.5,3.4-7.5c-1.4-3.7-3-7.2-4.1-10.9c-0.3-0.9,0.6-2.2,1-3.5
 	c-1.6-0.9-3.5-1.5-5.5,1c0.8,1.9,1.6,4.1,2.3,5.7c-0.9,3.6-1.6,6.8-2.4,10.2c-1.4-0.7-2.5-1.3-3.9-2c-0.2-1.6-0.5-3.4-0.8-5.5
 	c-2.9,0.9-5.5,1.6-8.1,2.5c-2,0.6-2.9,2.1-2.5,4.2c0.5,3.1,0.1,6.2-0.8,9.2c-0.4,1.5-0.1,3.2-0.1,5c1.4,0.3,2.4,0.5,3.7,0.7
 	c-0.2,0.6-0.2,1.1-0.5,1.3c-2.3,1.5-4.9,2.4-7,4.2c-0.4,0.4-1.5,0-2.3,0c0.3-0.7,0.6-1.5,1.1-2.5c-2.4-2-5.6-1.3-8.6-1.4
 	c-1,0-2,2-3.5,3.6c-0.9,0.1-2.6,0.5-4.4,0.6c-2,0.1-3.2,1.9-5.5,1.8c-2.1-0.1-4.3,1.1-6.3,2c-1,0.5-2.4,2.1-2.2,2.6
 	c1.2,3-1.8,5.3-1.2,8.1c0.2,0.8-0.2,1.8-0.5,2.6c-2.8,6.1-3,13.1-6.9,18.8c-0.3,0.5-0.4,1.1-0.7,1.7c1.6,2.2,3.5,0.8,5.5,0.5
 	c0.7,1.6,1.4,3.2,2.1,4.8c0.9,0.7,2.5-2.3,3,0.6c0,0.1,1.8,0.2,2-0.1c0.6-1,0.8-2.2,1.2-3.3c2.3-0.8,4.4-0.2,6.4,1.5
 	c1.8,1.4,3.4,2.3,4.4,5c1.5,3.7,2.7,7.3,2.9,11.2c0.1,3,1,5.7,2.3,8.5c1.4,3,2.3,6.3,1,9.9c-0.8,2-1,4.3-1.2,6.6
 	c-0.7,7.1-4.1,13.3-6.8,19.7c-0.1,0.1-0.1,0.3-0.1,0.4c-2.5,4.9-4.4,5.4-9,2.5c-1.7,2-3.6,3.8-5,6c-0.7,1-1.2,2.7-0.8,3.7
 	c1.4,3.1-0.4,5.1-2,7.3c-0.3,0.5-0.9,0.7-1.4,1.2c-2.3,2.3-2.2,3.3,0.3,5.3c4.6,3.8,8.1,8.2,9.4,14.2c0.8,3.6,0,4.9-3.6,5.7
 	c-1.5,0.4-3,1.1-5.1,1.9c-0.3-1.2-1.2-2.6-1-3.7c0.6-2.8-0.2-4.9-2.3-6.7c0.7-0.4,1.1-0.8,1.8-1.2c-1.3-2.1-2.2-4.5-5.6-3.5
 	c-1.5,0.5-2-1-2.1-2.1c-0.2-1.9,0-3.8,0-5.8c-5-2.7-6.5-2.4-11.9,2.2c-2-3.1-2-3.1-0.2-7.1c-3.2-3.1-4-3-5.9,0.4
 	c-0.4,0.6-0.6,1.6-1.1,1.9c-2.2,1.1-2.8,2.9-2.6,5.2c-1.6,0.2-2.7,0.4-3.9,0.5c-0.2,0.5-0.4,0.9-0.5,1.3c-0.6,2.1,1,3.4,2.3,3.9
 	c2,0.9,3.1,2.4,4.5,4.7c1.2-1,2.2-1.8,3-2.7c1.1-1.3,2.1-1.7,3.8-0.9c1.4,0.7,3.2,0.5,5.1,0.8c0.1,0.7,0.1,1.5,0.2,2.4
 	c-4,0.5-6.4,2.7-8.2,6c-1.7,3.2-1.5,4.6,1.5,6.5c1.1,0.7,2.1,1.6,2.8,2.7c1.8,2.6,3.5,5.4,5.3,8.3c-0.3,0.1-1,0.5-1.8,0.9
 	c1.1,1,2.3,2,3.6,3.2c-1.3,1.2-2.4,2.2-3.5,3.3c1.4,0.5,2.8,1,4,1.4c0.2,4.4-0.9,8.1-2.6,11.6c-0.4,0.9-1.3,1.6-1.8,2.4
 	c-0.4,0.5-0.9,1.1-0.8,1.7c0.2,5.2-3.5,8.1-6.4,11.7c-2.5,3.1-5.7,4.3-9.4,4.9c-0.9,0.1-1.9-0.1-3-0.1c-2.1,4.2-7,3.9-10.7,6
 	c0.1,0.9,0.2,1.8,0.3,3c-2.2-1.4-2.2-1.4-2.5-3.7c-3.5-1.9-6.5-0.5-9.4,1.6c-2,1.5-2.9,3.9-3.8,6.1c-0.4,0.8-0.3,2.5,0.2,3
 	c2.6,2.2,3.5,5.7,6.8,7.5c6,3.2,7.2,9.3,7.8,15.3c0.3,3.6-1.7,6.9-5.2,8.2c-2.8,1-4.4,3.1-6.5,4.8c-0.8,0.7-1.5,1.4-2.3,2.1
 	c-1-2.2-1.1-2.2-0.5-4.8c-1.3-0.6-2.9-1.1-4.2-2c-1.3-0.9-2.4-2.2-3.6-3.3c-1.3-1.2-2.3-2.7-3.8-3.6c-1.8-1-4.4-0.8-4.9-3.6
 	c0-0.1-1.3,0-1.7,0c-0.9,3.6-1.7,6.9-2.6,10.2c-0.6,2.2-0.6,3.9,1.5,5.8c1.4,1.2,3.8,3,2.9,6c-0.2,0.5,1.8,1.8,2.8,2.6
 	c2.2,1.7,4.5,3.3,6.6,5.1c0.9,0.8,1.7,2.3,1.6,3.5c-0.2,3.3,0.6,6.2,2.5,8.8c0.4,0.6,0.5,1.3,0.9,2.3c-3.4,0.5-5.7-1.2-7.7-3
 	c-3.4-3.1-5.7-6.9-6.4-11.6c-0.7-5-4.4-8.1-8.1-12c3.4-11.2-1.4-21.5-6.1-32.1c-2.8,2.9-5.3,5.4-9.8,4.3c-0.2-4.2,1.9-9.4-3.9-11.6
 	c0.3-0.8,0.5-1.5,0.8-2.3c-0.5-0.4-0.9-0.8-1.4-1c-3.5-1.5-5.7-4.1-6.5-8c-0.4-2.3-1.1-2.5-4.1-3.1c-1.1,3.8-4.1,4.9-9,3.4
 	c-1.6,1.7-4.5,2.4-4.2,5.7c0.1,0.9-1.6,2.6-2.6,2.8c-2.3,0.3-3,2.2-4.2,3.5c-1.6,1.8-3.1,3.7-4.8,5.2c-2.8,2.5-5,5.8-8.8,7.1
 	c-0.5,0.2-1,1.5-0.9,2.3c0.1,2.4,0.5,4.7,0.7,7c0.1,0.7,0.2,1.6-0.1,2.2c-1.4,2.5-1.4,5.1-0.6,7.5c-2.3,2.7-4.4,5-6.4,7.4
 	c-1.6,2-2.7,2.1-4.2,0.4c-0.3-0.3-0.7-0.7-0.8-1.1c-1.3-5.4-4.3-10.1-7-14.8c-1.9-3.4-3.4-7-4.9-10.6c-2.3-5.6-4.1-11.4-4.8-17.5
 	c-0.3-2.6-0.9-5.1-1.4-8.4c-0.9,2.2-1.3,4.1-2.3,5.2c-1.9,2.1-3.7,2-5.9,0.2c-1.3-1.1-2.3-2.3-3.7-3.7c1.3-0.9,2.5-1.7,3.8-2.6
 	c-3.1,0.1-5.6-0.6-7.3-3.4c-0.5-0.8-2.1-0.8-3.5-1.3c-0.2-0.6-0.3-1.3-0.7-2c-1.5-2.5-3.3-4.3-6.7-3.8c-3.6,0.6-7.3,0.8-11,1
 	c-2.2,0.1-4.4-0.1-6.6-0.4c-3.7-0.5-7.4-1.1-11.1-1.7c-0.2-0.4-0.4-0.8-0.6-1.2c-2.2-4.9-2.2-4.9-6.8-2.6c-3.3,1.6-6-0.1-8.7-1.6
 	c-1.9-1-3.7-2.2-6.3-3.9c-1.1-1.8-2.8-4.4-4.6-7.4c-1.8,0-3.7,0-5.5,0c-3,3.7-0.1,6.3,1.7,8.3c2.6,2.9,4.9,5.9,6.3,9.5
 	c0.2,0.5,0.7,0.9,1.3,1.7c0.5-1.2,0.9-2.3,1.3-3.4c0.3,0,0.6,0,0.8,0c0.2,1.6,0.4,3.3,0.7,4.9c0.4,2.5,1.2,3,3.9,2.6
 	c0.9-0.1,1.8-0.3,2.6-0.2c2.4,0.4,3.8-0.5,5.1-2.5c1.2-1.8,2.9-3.3,4.6-5.2c0.4,1.2,0.8,2,1,2.8c1.3,5,1.9,5.7,6.6,6.2
 	c1.5,0.2,2.4,0.7,3.2,2c0.7,1.1,1.7,2,2.8,3.2c0,2.6-1.7,4.9-3.6,6.2c-2.5,1.7-2.7,3.6-2.5,5.4c-1.9,1.8-3.1,3.7-4.9,4.6
 	c-1.8,1-4,1.1-4,3.6c-2.7,0.8-5.2,1.4-7.6,2.2c-0.9,0.3-1.5,1.3-2.2,2c-0.9,0.9-1.6,2.1-2.7,2.6c-5.1,2.3-10.2,4.4-15.4,6.5
 	c-0.7,0.3-1.5,0.6-2.2,0.5c-1.9-0.4-3.3,0.1-4.8,1.5c-1.1,1-3,1-4.6,1.6c-2.6-3.4-3.5-7.3-3.8-10.9c-0.2-3.1-1.4-5.3-3.1-7.6
 	c-1.4-1.9-2.5-4-3.9-5.9c-1-1.4-2.2-2.9-3.6-3.8c-2.7-1.7-3.7-3.9-4-7c-0.3-3.4-1.2-6.8-5-8.3c-0.6-0.2-1.3-0.9-1.5-1.5
 	c-2.1-5-5-9.4-8.9-13.2c-0.5-0.6-0.6-1.6-1-2.9c-0.4,1.6-0.8,2.8-1.4,4.9c-2.2-2.4-4-4.3-5.9-6.4c-0.1,0.5-0.3,0.9-0.2,1
 	c4.6,5,6.3,11.7,9.8,17.5c2,3.4,3.4,6.9,6.4,9.9c1.6,1.6,1.5,5,1.9,7.7c0.3,1.9,0.6,3.5,2.3,4.5c3.1,1.8,4.6,4.7,5.2,8
 	c0.6,2.9,2.2,4.5,5,5.7c2.3,1.1,4.2,3.2,6.1,5.1c1.4,1.3,2.5,2.9,4,4.6c-0.4,0.8-0.8,1.6-1.3,2.5c1.9,1.6,3.7,4,5.9,4.6
 	c2,0.5,4.5-0.9,6.8-1.4c5.4-1.3,10.8-2.5,16.5-3.8c0.7,3.1,0.3,6.4-1.1,9.3c-2.7,5.5-5.7,10.8-8.9,16c-2.6,4.3-6.5,7.2-10.5,10.2
 	c-4.4,3.3-8,7.6-12,11.4c-1.5,1.4-2.9,3-4.5,4.3c-1.4,1.2-6.5,10.2-6.6,11.9c0,0.4-0.1,1.1,0.2,1.3c2.9,1.8,1.3,4.6,1.5,6.8
 	c0.3,3.5,0.7,6.8,3.7,8.7c0,4.9,0,9.5,0,14.1c0,3.4-1.9,5.8-4.3,7.9c-0.7,0.6-1.4,1.2-2.3,1.4c-5.1,1.5-8.3,5.8-12.4,8.6
 	c-2.6,1.7-3.5,3.6-2.3,6.7c1.2,3,1.4,6.2,0.9,9.6c-0.4,2.3-1.4,3.5-3.3,4.2c-1.3,0.5-2.7,0.6-3.8,1.3c-1.6,1-3.3,1.5-2.6,4.7
 	c0.6,3-0.7,6.7-3.4,9.3c-1.7,1.7-3.3,3.5-4.8,5.2c-2.4,2.8-4.7,5.8-7.3,8.5c-4.9,5-10.9,6.9-17.9,6.9c-4.5,0-9,1.4-14.3,2.3
 	c-2.2-0.8-4.2-2.9-4.9-6.1c-0.1-0.4-0.5-1-0.3-1.2c2.8-3-0.3-5.2-0.9-7.7c-1.1-4.6-3.2-8.5-6-12.3c-1.6-2.1-1.9-5.3-2.6-8
 	c-0.4-1.6-0.8-3.2-0.8-4.8c0.1-6.1-2.9-11.1-5.2-16.4c-0.6-1.4-1.1-3-2.1-3.9c-2.3-2.3-2.8-5-2.1-7.9c1.2-5.3,1.4-10.9,6-14.9
 	c2.2-1.9,2.3-4.6,1.2-7c-1-2.5-2.2-4.9-1.3-7.7c0.2-0.8-0.4-2-0.8-3c-2.2-5.6-3.4-11.7-8.8-15.5c-1.2-0.8-2.2-2.1-3-3.3
 	c-1-1.6-1.8-3.4-1.9-5.1c0.4-2.4,0.9-4.8,1.3-7.1c0.1-0.6,0.1-1.2,0.4-1.7c2.4-4,1.7-7.5-1.9-10.4c-0.3-0.3-0.6-0.6-1-0.9
 	c-2.2,0.4-4.3,1-6.5,1.3c-3.3,0.5-4.3-0.1-5.6-3.1c-2-4.4-3.8-5.6-8.4-4.6c-3.6,0.8-7,2.4-10.5,3.5c-3,1-5.7,2.2-9.4,1.1
 	c-4-1.1-8.7-1-12.6,1.2c-2.7,1.5-5.1,1.2-7.4-0.5c-2.5-1.9-5-3.7-7.5-5.6c-0.6-0.4-1.1-1.2-1.7-1.4c-4-0.9-5.2-4.1-6.5-7.3
 	c-0.6-1.4-1.4-3-2.5-4c-1.3-1.1-2.5-2.2-3.5-3.6c-1-1.4-1.9-3.4-4.4-3.8c-1-0.2-2.1-2.6-2.4-4.1c-0.6-3.9-0.4-3.9-1.7-6
 	c2.7-5.2,5.3-10.3,3.5-16.4c-0.4-1.3,0.6-3.6-0.1-4.2c-4-3.3-1.3-6,0.4-8.8c2.4-4.1,4.1-8.8,7.4-12.1c2.7-2.8,4.3-7,9-8
 	c2.7-0.6,5.1-3,6.5-5.8c0.3-0.6,1-1.5,0.8-2c-1.5-3.4,1.1-5.9,1.8-8.8c0.2-0.9,1.2-1.7,2-2.3c1.2-0.9,2.4-1.9,3.8-2.4
 	c2.9-1.1,4.2-3.2,4.9-6c0.2-0.8,0.6-1.6,1.2-2.9c2.1,2.6,4.5,2.9,7.3,2.5c1-0.1,2,0.4,3,0.4c1.4,0,3.2,0.2,4.2-0.6
 	c5.2-3.9,11.2-5.5,17.3-6c3.3-0.3,6.7-0.2,10-0.3c2.6-0.1,5.4,0.5,7.8-1.1c1.1-0.7,2.2-0.4,3.1,0.9c0.3,0.4,1.2,0.5,2.2,0.8
 	c-0.4,1.4-1.7,3.1,0.3,4.8c1.2,1,0.6,2.5-0.6,3.5c-0.8,0.6-1.8,1.1-3.4,2.1c4.5,2.5,7.2,5.3,11.4,5.2c1.9-0.1,3.8,0.7,5.7,0.9
 	c1.5,0.2,2.4,0.9,2.8,2.5c0.5,2,1.8,2.6,3.9,3c2.3,0.4,4.4,1.6,6.5,2.7c1.3,0.6,2.3,2.2,4,1.1c1.6-1.1,2.4-2.3,1.8-4.6
 	c-0.8-3,0.3-4.6,3.1-5.3c2.6-0.6,5-0.6,7.6,1c2.6,1.7,6,2.3,9.1,3.2c2.7,0.8,5.5,1.2,8.3,1.8c2.3,0.5,4.4,1,6.8-0.5
 	c1.8-1.1,4.1-1.4,6.4-0.2c0.9,0.5,2.3,0.4,3.5,0.4c3.9,0,5-0.8,6.2-4.3c0.7-2,1.6-3.9,2.1-5.9c0.6-2.4,1.8-4.7,0.8-7.4
 	c-0.5-1.3-0.1-2.9-0.1-4.6c-2.2,0.4-4.7-0.6-7.1,1.9c-1.3,1.3-3.7,1.6-5.7-0.2c-1.9-1.7-4.1-3-6.4,0c-0.5,0.7-2.6,0.7-3.7,0.4
 	c-1.7-0.5-3.4-1.6-4.9-2.6c-1.1-0.7-2-1.7-2.9-2.6c-0.7-0.8-1.3-1.8-2.1-3c0.8-1.8,2.7-4.1-1-5.7c-0.3-0.1-0.6-1.1-0.4-1.6
 	c0.6-2,0.3-3.5-1.9-4.3c-2.2-0.7-5,0.1-6.3,1.8c-0.3,0.4-0.6,0.9-1,1.6c-0.7-0.3-1.2-0.5-1.7-0.8c-0.4-0.2-0.7-0.4-1.4-0.9
 	c-0.1,0.9-0.4,1.6-0.2,2.2c0.6,1.7,1.4,3.4,2.4,5.7c0.5,0.1,1.7,0.4,3.4,0.7c-0.4,1.2-0.5,2.8-0.9,2.8c-2.9,0.4-3.2,2.4-2.7,4.6
 	c-4.3,1-4.4-2.6-6.7-5.1c2.1-0.2,3.5-0.4,4.8-0.6c-3.2,0.2-5.1-1.5-6.8-4c-2.2-3.2-5.5-5.9-4.4-10.5c-1.5-1.8-2.8-3.9-4.6-5.2
 	c-2.1-1.5-4.8-2.3-7-3.6c-1.1-0.7-2-2-2.8-3.1c-1-1.3-1.7-2.8-2.8-4.4c-0.9,0.7-1.6,1.3-2.6,2.1c-0.4-1.3-0.7-2.5-1.1-4
 	c-1.3,0.5-2.5,0.9-3.6,1.4c-1,3.5,0,5.9,3,7.5c0.9,0.5,1.7,1.4,2.1,2.3c1.5,2.9,3.1,5.5,6.9,5.6c2.1,3.5,7.1,3.5,9.8,8.1
 	c-2.2-1-3.5-1.5-4.7-2.1c-2.4,1.9-2,3.7,0.2,5.3c-1.3,2.2-2.5,4.2-3.6,6.1c-0.3-0.1-0.7-0.3-1-0.4c0.2-0.8,0.4-1.7,0.7-2.5
 	c0.7-2.5-0.2-4.9-2-6.6c-2.7-2.5-6-4-9.1-6c-3.3-2.1-5.9-5.4-8.4-8.5c-1.2-1.5-1.9-3.3-4-4c-2.1-0.7-3.3,0.6-4.7,1.8
 	c-1.6,1.3-3.5,2.2-5.5,3.5c-1.6-0.4-3.5-1-5.5-1.3c-3.1-0.5-4.5,0.4-4.6,3.1c0,3.8-1.2,5.9-5,7.3c-2.2,0.8-3.7,3.7-5.1,5.9
 	c-0.5,0.8,0.3,2.4,0.6,4.1c-1.7,1.8-2.4,4.9-5.4,6.6c-1.2,0.6-2.2,1.4-3.5,1.3c-3.7-0.2-7.1,0.4-10,3.4c-1.6-1.9-2.7-3.9-4.3-4.7
 	c-1.6-0.8-3.9-0.2-5.3-0.2c-0.9-2.7-1.7-4.7-2.1-6.8c-0.2-1-0.2-2.4,0.3-3.3c2.4-5.1,2-10.3,0.6-15.5c4.1-2.9,8.6-2.3,13.1-1.6
 	c3.2,0.5,6.4,0.7,9.6,0.7c1,0,2.5-1.3,2.8-2.2c0.7-2.5,0.8-5.1,1.1-7.7c0.1-0.6,0.1-1.5-0.3-1.7c-3.1-2.3-3.5-7.4-8.3-7.8
 	c-0.6-0.1-1.2-0.3-2-0.5c-0.2-0.8-0.5-1.8-0.8-3c1.7-0.3,3.3-0.8,4.9-0.9c1.4,0,2.8,0.5,4.7,0.8c-0.1-1.7-0.2-3-0.3-4.2
 	c0.2-0.1,0.6-0.4,0.7-0.3c2.1,1.2,4.3,2.6,5.8-0.8c2.7-0.3,3.7-2,4.8-4.4c0.8-1.8,4.1-2.3,5.5-4c1.3-1.6,0.9-4.9,2.4-5.9
 	c2.6-1.9,6-2.9,9.2-3.8c2.1-0.5,2.2-0.1,3.9-1.7c-0.9-3.9-1.9-7.8-2.6-11c2.3-3,3.9-5.2,5.6-7.4c0.3,0.2,0.7,0.3,1,0.5
 	c-0.2,1.1-0.8,2.4-0.6,3.4c0.2,1,1.1,1.9,1.7,2.8c-0.7,0.9-1.5,1.9-2.3,2.8c-2.1,2.6-1.2,5.5,1.9,6.8c0.8,0.4,1.5,1.1,2.3,1.8
 	c2.1-0.8,4.3-1.7,6.3-2.5c1,1.2,2.1,2.6,3.2,4c4.2-2.8,7.8-5.6,12.3-6.4c3,3.3,3.4,3.2,6.3,0.2c0.6-0.6,1.8-0.7,3.2-1.2
 	c-0.2-1.5-0.2-3.3-0.7-5c-0.9-2.8,0.7-4.9,1.7-7.2c0.3-0.6,1.5-0.7,2.4-1.1c1.1,1.2,2.1,2.3,3.2,3.6c3.6-1.4,1.4-4.4,2.3-6.6
 	c-3.4-0.3-2.7-3.1-3.8-4.8c4.1-3.7,8.4-3.4,12.7-2c2.1-1.5,3.9-2.9,5.8-4.3c-1.2-0.9-2.5-1.9-4.2-3.1c-4.7,1.2-9.9,2.5-15,3.7
 	c-2.1-1.2-4.4-2.5-6.4-3.7c-0.6-3.4-1.4-6.9-1.9-10.4c-0.1-1,0-2.4,0.6-3c3.4-2.8,5.1-6.8,7.7-10.1c0.5-0.7,1.4-1.1,2.1-1.6
 	c-0.3-4.7-1.3-5.2-9.1-4.6c-2.1,1.6-3.1,4.1-2.6,6.2c0.8,3.3-0.9,5-2.7,6.9c-0.9,1-1.9,1.8-3,2.5c-4.8,3.2-4.5,8.2-4.5,13.1
 	c0,0.7,0.8,1.8,1.4,2.1c3.4,1.3,4,3.9,3.7,7.1c-1.5-0.4-3-0.7-4.5-1.1c1.2,2.2,3,1,4.5,1c-0.3,0.5-0.6,1.1-1.1,1.4
 	c-2,1.5-4.7,2.4-4.1,6c0.4,2.6,0.1,5.2,0.1,8c-1.3,0.8-2.5,2.6-4.8,2.2c-0.6-0.1-1.9,0.8-2,1.4c-0.5,2.2-2.2,1.5-3.9,2.2
 	c-0.3-4.2-2.2-7.5-4.1-10.8c-1.8-3.3-1.5-7.7-4.7-11.1c0.1,0.9,0.2,1.5,0.1,1.7c-2.2,2.1-4.2,4.4-6.8,6c-3.5,2.1-6-0.3-8.5-2.4
 	c0.7-1,1.6-1.8,1.8-2.6c0.4-2-1.7-0.8-2.6-1.6c0.5-1.7,3.9-1.9,2.4-4.4c-0.8-1.4-1.9-2.7-3-4.2c1.4-0.3,2.4-0.4,4.2-0.8
 	c-1.7-0.2-2.6-0.3-4-0.4c0.2-1.1,0.1-2.4,0.5-3.4c0.4-1.1,2.2-2.4,2.9-2.8c1.1-0.5,2.2-1.1,3.5-1.8c-0.6-0.7-0.9-1.1-1.6-1.9
 	c2.6,0.6,4.3-0.2,5.5-2.2c0.3-0.5,1.3-0.6,2-0.9c1.9,0.6,3.7,1.2,4-1.6c-1.3,0.5-2.7,1.1-4.1,1.6c1.3-2.6,2.2-5.2,4.8-7.1
 	c3.5-2.5,3.9-7,5-10.9c0.4-1.5,1-3.3,2.1-4.1c1.2-0.9,1.5-2.1,2-3.2c1.3-2.9,2.5-5.7,7.2-5.8c-1.7-0.8-2.4-1.1-3.7-1.8
 	c1.3-0.7,2.3-1.3,3.7-2.1c-1.2-1-2-1.5-2.3-2.1c-0.2-0.5,0.1-1.3,0.3-2.4c1.4,0.7,2.4,1.1,3.4,1.6c1.8-1.2,2.4-4.8,5.8-2.6
 	c0.3,0.2,1.8-1.4,2.9-2.3c-0.2-0.4-0.5-1.1-1.3-2.9c2.4,0.9,3.9,1.5,5.4,2c0.9-2.6,2.2-5.1,5.8-6.6c-0.3,2.4-0.6,4-0.8,5.7
 	c0.2,0.1,0.4,0.1,0.6,0.2c0.8-1.6,1.6-3.3,2.5-5.1c0.3,1,0.6,1.6,1.1,3.2c0.7-1.7,1-2.9,1.6-3.9c0.4-0.6,1.4-1.4,1.9-1.2
 	c1.1,0.3,0.9,1,0.2,2c-0.3,0.4,0.5,1.6,1,3.3c0.8-1.9,1.1-2.7,1.6-3.8c2.3,0.9,4.4,1.7,7.2,2.8c-2,1.3-3.5,2.1-5.1,3.1
 	c0.4,3,3.3,0.7,4.7,1.7c1.8,1.3,3.1-3.6,4.7,0c-0.4,0.2-0.9,0.6-2.4,1.4c2.7,0.3,4.5,0.5,6.3,0.6c3.2,0.1,6.2,0.2,9,2.1
 	c3.7,2.4,7.6,4.6,11.4,7c2,1.2,3.6,2.9,3,5.4c-0.5,2.4-1.7,4.7-4.3,5.2c-2.1,0.5-4.5,0.8-6.5,0.3c-4.7-1.1-9.3-2.7-14-4.1
 	c0.9,2.3,2.7,3.9,5.2,4.8c1.7,0.6,2.9,1.7,2.4,3.2c-0.8,2.9,1.1,5.2,2.2,7c1.4,2.2,4.4,3.6,7.4,3.8c0.5,0,1.6-0.8,1.6-1.2
 	c0-0.7-0.6-1.5-1.2-2c-0.4-0.3-1.2-0.1-1.7-0.3c-1.9-0.9-2.2-1.9-1.1-4.8c2.8,1.3,5.6,2.6,8.4,3.8c2-2.2,2-2.2-0.6-6.3
 	c1.8-2.1,3.7-4.2,5.9-6.7c1.9,0.4,3.9,0.9,6,1.3c0.1-2.5,1.1-4.9-1.7-6.5c-0.5-0.3-0.3-1.6-0.4-2.5c-0.3-2.1-0.5-4.2-0.8-6.4
 	c3.2-1.3,5.6,0.2,7.4,3.5c-1.1,0.9-2.3,1.8-3.6,2.9c0.8,0.9,1.3,1.6,1.9,2.2c3.1,3,5.4,2.4,6.6-1.7c0.2-0.6,0.5-1.3,0.9-1.8
 	c1-1,2.5-1.8,3.2-2.9c2.1-3.7,7.2-3,9.2-6.6c0.7,0.4,1.8,0.7,1.9,1.2c0.2,0.7-0.4,1.6-0.7,2.4c3.6,1.7,4.6-3,7.1-2.9
 	c3.1,0.2,4.7-2.3,7.5-3.1c0.6,1.4,1.2,2.6,1.9,4.2c1.4-1.8,2.5-3.2,3.7-4.7c-1-1.4-1.9-3.2-3.3-4.4c-1.3-1.1-3.1-1.6-4.6-2.4
 	c-1.9-1-1.9-1-1.5-4.2c0.6,0.4,1.1,0.6,1.5,1c2.9,2.9,6.4,3.9,10.6,3.5c2.1-0.2,4.3,0.9,6.4,1.5c1.2,0.4,2.4,0.9,3.5,1.5
 	c3.3,1.6,6.5,3.3,10,5.1c0.1-1.1,0.2-2.5,0.4-3.9c-1.1-0.7-2.2-1.2-3.1-1.9c-1.8-1.5-5.2-6.7-6.5-9.5c-0.2-0.5-0.6-1.1-1-1.4
 	c-2.5-1.7-2.2-3.8-0.7-5.7c1.3-1.6,1.4-3.2,1.2-5c-0.2-2.5-0.4-5-0.6-7.7c3.3-1,6.4-1.4,10,0.6c0.3,2.4,0.9,5.2,1,7.9
 	c0.1,1.6,0.3,3,1.7,3.8c2.1,1.3,2.8,3.3,3.4,5.5c0.8,2.9,1.9,5.7,2.9,8.5c0.2,0.7,0.5,1.7,1,1.9c3.4,1.5,4.1,4.9,4.1,7.7
 	c0.1,3.2-1.3,6.5-2.2,10c-2.8-0.5-5-3.1-7.7,0c3.8,0.8,7.4,1.5,10.8,2.1c0.8-1.9,1.6-3.1,2-4.5c0.8-2.6,1.6-5.3,2-8
 	c0.1-0.9-1-2.1-1.7-3c-1.5-2.1-1.4-2.8,0.6-4.4C757.3,141.2,758.5,140.6,759.6,140c1.8,2.8,3.3,5.8,5.2,8.5c0.6,0.8,2.2,1,3.4,1.4
 	c-2.6-1.7-3.2-2.3-3.3-3.9C764.6,141.2,764.1,140.7,759.6,140z M811.8,74.3c0.1-1.6-0.4-2.3-2.1-1.9c0.1,1.7,0.7,2.3,2.2,1.8
 	c-1,1.1-1.8,2.4-3,3.3c-1,0.9-2.1,1.8-3.4,2c-1,0.2-2.2-0.6-3.4-1c0.4,1.6,0.8,3.1,1.2,4.6c3,0.6,3.8,0.1,5.1-2.7
 	c0.4-0.9,1.3-1.6,2-2.3c1.3-1.1,2.7-2.1,4.5-3.5C813.5,74.5,812.7,74.4,811.8,74.3z M650.3,273.9c-2.2,1.7-3.5,2.4-4.3,3.5
 	c-1.2,1.8-1.6,4.7-3.2,5.6c-2.6,1.4-2.3,3.3-2.7,5.4c-0.1,0.7-0.5,1.4-0.9,1.9c-2,2.1-1.6,4.1-0.3,6.4c1.3,2.2,3,3.5,5.7,3.3
 	c1.8-0.1,3.5,0,5.5,0c1.6-2.8,4.7-3.6,7.6-3.8c2.8-0.2,6.2-0.2,8.3,1.2c4.4,3,9,2.5,13.7,2.7c2.2,0.1,4.2-1,4.7-2.8
 	c0.4-1.4-0.4-3.4-1.1-5c-0.5-0.9-1.8-1.5-2.8-2.1c-3.9-2.4-7.8-4.8-11.6-7.3c-0.6-0.4-0.9-1.1-1.1-1.3c0.8-1.2,1.2-2.4,2.1-3.1
 	c1.6-1.2,0.5-2.2,0.3-2.7c1-1.2,1.8-2.2,3.2-3.9c-6.3,0.7-10.8,3.7-15.7,5.9c1.3,1.2,2.4,2.2,3.4,3c1.6,0.6,3.3-1.3,5.2,0.3
 	c-3.5,1.4-6.5,2.6-9.2,3.7c-1.2-1.6-2.2-3-3.8-5.2c0.8-0.2,1.8-0.5,2.6-0.7C654.1,276.6,650.1,279.5,650.3,273.9z M730.1,317
 	c-0.4-2.6-0.6-5-1.3-7.3c-0.6-2-1.3-5-2.8-5.6c-2.6-1-2.6-2.3-2.4-4.4c0.1-0.8-0.5-1.7-0.7-2.5c-0.6-1.9-1.2-3.8-2-6.2
 	c-1-0.6-2.9-1.3-4.2-2.6c-1.4-1.4-2.4-3.4-3.5-5.1c0.7-0.2,1.4-0.4,2.1-0.5c-0.2-4.2,0.1-4.4,5.3-3.8c-0.7-2.4,1.3-5.3-1.4-7.4
 	c-3.7,0-7.6-0.5-10.7,2.3c-1.2,1.1-2.3,2.5-3.7,3.1c-3.2,1.2-3.9,3.7-4.2,5.6c1.5,2.8,2.4,4.8,3.6,6.8c1.1,1.8,2.3,3.4,3.5,5.1
 	c0.8,1.1,1.8,2,2.7,3c1.3,1.5,2.6,2.9,3.8,4.3c-2.1,2.4-2.9,5.5-2.9,8.7c0,2.2,0.6,4.5,3.8,4.5c0.8,0,1.4,1.1,2.3,1.3
 	c2.2,0.6,4.5,1.4,6.8,1.6C726.1,318,728.1,317.3,730.1,317z M883.8,237c2.3,0,4.8-0.3,5.5-2.2c1.1-2.8,3.4-4.4,5-6.6
 	c1.6-2.2,3.2-4.7,2.7-7.7c-0.4-2.2-1-4.3-1.6-6.4c-0.3-1-0.8-2-1.2-3c-0.3,0-0.6,0.1-1,0.1c-0.2,3.9,0.5,8-1,11.8
 	c-1.6,3.8-3.2,7.6-4.9,11.5c-1.1-0.3-1.9-0.5-2.5-0.7C884.5,234.8,884.2,235.8,883.8,237z M664.4,465.7c1.6-3,2.9-5.3,4.3-7.8
 	c-2.4-3.2-5.5-1.8-8.9-1.1c0,3.1,0,6,0,8.9C661.6,465.7,663.3,465.7,664.4,465.7z M636.2,202.6c1.6,2.3,3.1,4.4,4.6,6.6
 	c5.1-2.6,5.3-4.1,1.1-7.5c-1-0.8-2.1-1.6-3.3-2.5C637.8,200.4,637,201.5,636.2,202.6z M740.9,282.1c2.2,0.9,4.5,2.2,6.2-0.1
 	c1.6-2.1,1.5-4.6-0.4-6.8C740.9,276.3,740.7,276.6,740.9,282.1z M655.3,487.3c0.3-0.1,0.6-0.2,0.9-0.2c-0.1-0.7-0.2-1.3-0.5-2
 	c-0.8-2.2-1.9-4.2-3.2-6.2c-1.2-1.7-0.6-4.6-1-6.9c-0.1-0.6-0.9-1.1-1.7-1.8C648.8,477.2,652.3,482.2,655.3,487.3z M670,508
 	c-0.2-2.6-1-4.9-0.5-6.8c1-3.3-1-5.9-1.4-8.9c0-0.2-0.7-0.4-0.8-0.4c-0.2,3.2-0.7,6.4-0.5,9.5C667,503.5,667.3,506.1,670,508z
 	 M652.5,195.6c-1.6,0.5-2.7,0.8-4.3,1.3c1.8,2.4,3.4,4.5,5.1,6.9c0.4-0.3,1.5-0.9,1.4-1.2C654.1,200.3,653.3,198,652.5,195.6z
 	 M795.3,269c-2.6,0-4.5,1.1-4.9,3.2c-0.3,1.3-0.8,3.2,1.6,3.3C793.1,273.3,794.2,271.1,795.3,269z M819.7,259.9
 	c4.8,2.6,4.8,2.6,7,1.4c-2.1-1.4-4.2-2.7-6.3-4.1C820.2,258,820,258.8,819.7,259.9z M631.2,198.9c-1.1,1.2-2,2.2-3,3.4
 	c1,0.4,1.5,0.7,2,0.9c0.4,0.1,0.8,0.2,1.2,0.3c0.9-5.2,0.8-5.4-1.8-6.6C630,197.6,630.5,198.1,631.2,198.9z M636.5,303.8
 	c2.5-0.7,5.6,1.6,6.8-2.7C640.8,301.2,638,299.7,636.5,303.8z M583,220.4c2.2-0.8,3.5-1.2,4.8-1.7c-0.1-1.9,0.8-3.8-2-4.2
 	C585,216.3,584.2,218,583,220.4z M665.3,219.2c0.6-3.1-2-3.3-3.2-4.8C661.1,217.3,662.5,218.3,665.3,219.2z M991.1,264.7
 	c0.5-1.4,1.4-2.8-0.2-4.1c-0.2-0.2-1-0.1-1.1,0.2c-1.1,1.5-0.4,2.7,0.6,3.8C990.5,264.6,990.6,264.6,991.1,264.7z M868.3,211.7
 	c1.1-0.7,1.6-1,2.2-1.3c-0.2-0.3-0.4-0.6-0.6-0.8c-0.8,0.6-2.1,1.1-2.4,1.9c-0.6,1.6,0.6,2.8,1.9,3.5c0.2,0.1,0.5-0.1,1-0.3
 	C869.8,213.8,869.2,212.9,868.3,211.7z M848.6,245.2c-0.6,0.8-1.3,1.3-1.3,1.7c0,0.6,0.7,1.1,1.1,1.6c0.5-0.4,1.3-0.8,1.3-1.3
 	C849.7,246.7,849.1,246.1,848.6,245.2z M686.8,264.9c-0.6,1.4-1.2,2.9-2,4.6C687.7,268.8,685.8,266.2,686.8,264.9z M545.5,427.4
 	c0.2-0.2,0.5-0.4,0.7-0.7c-0.8-0.8-1.7-1.5-2.5-2.3c-0.2,0.2-0.3,0.3-0.5,0.5C544,425.8,544.8,426.6,545.5,427.4z M662.6,450.9
 	c0,0.3-0.1,0.6-0.1,0.9c1,0.2,2.1,0.3,3.1,0.5c0-0.3,0.1-0.6,0.1-0.9C664.7,451.2,663.6,451.1,662.6,450.9z M624.8,183.2
 	c-0.2,0.3-0.4,0.6-0.6,0.9c0.5,1.2,1,2.1,3.1,0.7C626.3,184.1,625.5,183.6,624.8,183.2z M624,153.3c-1.6,0.5-2.6,1.3-1.2,3.5
 	C623.3,155.2,623.6,154.2,624,153.3z M940.7,343.3c-1.3,0.3-2.2,0.5-4,1c1.7,0.7,2.6,1,3.7,1.4C940.5,344.9,940.6,344.3,940.7,343.3
 	z M629.2,219.4c1.9-1.4,2-2.4,0.8-3.3c-0.2-0.1-0.8,0-0.8,0C629.2,217,629.2,217.9,629.2,219.4z M661.4,271.1
 	c-0.1-0.3-0.1-0.7-0.2-1c-1.2,0.3-2.4,0.6-3.5,0.8c0,0.1,0.1,0.3,0.1,0.4C658.9,271.3,660.1,271.2,661.4,271.1z M953.6,345.3
 	c0.5-2.1,0-2.9-2.2-2.7C952.1,343.6,952.7,344.3,953.6,345.3z M589.6,221.3c0.2,0,0.5,0.1,0.7,0.1c0.3-0.9,0.5-1.7,0.8-2.6
 	c-0.3-0.1-0.6-0.1-0.9-0.2C589.9,219.5,589.7,220.4,589.6,221.3z M678.1,222.4c0-0.1,0-0.2,0-0.3c-1.1,0-2.2,0-3.4,0
 	c0,0.1,0,0.2,0,0.3C675.9,222.4,677,222.4,678.1,222.4z M648.3,189.2c0.3-0.2,0.6-0.5,0.9-0.7c-0.6-0.8-1.2-1.5-1.8-2.3
 	c-0.2,0.2-0.5,0.3-0.7,0.5C647.3,187.5,647.8,188.3,648.3,189.2z M777.1,130.8c0,0.2-0.1,0.5-0.1,0.7c0.9,0.1,1.9,0.3,2.8,0.4
 	c0-0.2,0.1-0.4,0.1-0.5C779,131.3,778,131.1,777.1,130.8z M655.4,451.9c0.3,0.2,0.5,0.3,0.8,0.5c0.5-0.8,1.1-1.6,1.6-2.4
 	c-0.2-0.1-0.4-0.2-0.6-0.4C656.6,450.4,656,451.1,655.4,451.9z M793.5,227c-0.7,0.1-1.5,0.2-2.2,0.3c0.1,0.3,0.2,0.6,0.3,0.9
 	 M632.1,189.8c-0.1,0.3-0.2,0.5-0.3,0.8c0.8,0.3,1.6,0.7,2.4,1c0.1-0.3,0.2-0.5,0.3-0.8C633.7,190.5,632.9,190.1,632.1,189.8z"/>
 <path d="M126.4,184.5c-0.5-1.8-1.1-3.7-1.6-5.7c-0.4,0.9-0.8,1.9-1.2,2.9c-3.3-0.1-1.2-4.2-4.2-4.8c0.2,1.2,0.4,2.3,0.7,3.6
 	c-0.6,0-1.4,0.2-1.7,0c-0.8-0.9-2-1.9-1.9-2.9c0.1-2.9-1.8-4.4-3.4-6.1c0.5-0.8,0.9-1.6,1.5-2.7c-2.3-0.1-4,0.1-5.6-2.1
 	c-1.2-1.7-4.6-1.9-7.1-2.8c-0.6-0.9-1.2-2.7-2.2-3c-2.6-0.9-3.3-2.7-3.5-4.8c-1.7-0.9-3.1-1.6-4.7-2.4c-1.2,0.5-2.1,1.2-2,3.1
 	c0.2,3.1-1.2,3.8-4.2,4.4c-2.7,0.5-5.1,2-7.7,3c-1,0.4-2.1,0.7-3.2,1.1c-0.2-0.3-0.3-0.6-0.5-0.9c1.1-0.6,2.3-1.3,3.5-2
 	c-0.4-0.5-0.8-1-1.1-1.5c1.3-2,2.6-4,4-5.9c1.6-2.2,3.8-1.9,6.8-0.7c-0.3-1.6-0.1-3.1-0.8-3.6c-0.6-0.5-2.2-0.1-3.1,0.4
 	c-2.5,1.4-4.8,2.9-7.1,4.6c-1.3,1-2,2.6-3.3,3.5c-1.3,0.8-3,0.9-4.5,1.5c-0.5,0.2-0.9,0.8-1.6,1.3c0.6,1,1.1,1.9,1.7,3
 	c-0.3,0.4-0.5,0.8-0.9,1c-3.7,2-7.5,4.2-10.8,6.5c-4.5,3.2-9.5,5.6-14.1,8.7c-3.1,2.1-7,3.6-11.3,2.4c-2.3,2.5-2.3,2.5-6,2.3
 	c3.1-2.3,5-6.2,9.9-3.7c0.9-4,4.8-4.5,7.7-6c4.4-2.3,8-5.2,10.3-9.8c0.7-1.5,2.3-2.6,3.7-4.2c-2.4,0-4.5,0.1-6.6-0.1
 	c-0.7-0.1-1.4-0.7-2-1.2c-1.3-1.1-2.6-2.3-4.4-1.2c-2-3.6,2.1-6.3,0.9-9.6c-1.9-0.4-4.5,2-5.5-0.8c-1-2.6-3.2-5.8,1-7.5
 	c-0.6-2.3-1-4.2-1.5-6.2c4-2.4,6-7.7,11.6-7.4c0,0-0.1,0-0.1,0c1-1.3,2.1-2.4,4-2.4c1.2,0,2.6-0.6,3.7-1.3c1.2-0.9,2.2-1,3.6-0.6
 	c2.3,0.6,4.1-0.8,5-3.1c0.9-2.5,2-4.9,3.2-7.6c-1.2-0.6-2.7,0.2-4,0.8c-1.8,0.9-3.4,1.5-5.3,0.2c-0.8-0.5-2-0.5-3-0.5
 	c-2.8-0.1-4.6-1.1-4.8-2.8c-0.2-1.6,1.8-4.2,3.9-5.1c-1.2-1.3-2.3-2.6-3.6-4.2c2.7-2,5.3-3.2,8.5-3.5c2.8-0.2,5.3-2.8,8.8-1.2
 	c-0.7,1.2-1.2,2.1-1.8,3.2c0.2,0.3,0.4,0.8,0.7,1c2.2,1.5,4.4,3.1,7.1,0.9c2.3,0.9,1.5-0.9,1.6-1.9c1.3,0.6,2.7,1.2,5,2.2
 	c-0.7-1.7-0.8-2.9-1.2-3c-1.2-0.3-2.5-0.1-3.7-0.2c0-1.4,0-2.9,0-4.6c-0.9-0.5-2-1.2-2.9-1.8c0.3-2.6,0.9-4.9,0.6-7.2
 	c-0.2-2.2-1.2-4.3-1.9-6.5c1.5-1.8,2.9-3.5,4.5-5.3c5.3,3.3,9.3,1,13.4-2.4c3.3-2.7,6.8-5.4,11.6-4.9c1.5,0.2,3.7,0.4,4-2.3
 	c0-0.4,1.6-1.1,2.2-0.9c3.9,1.3,7.6,0.8,10.9-1.7c0.7,1,1.2,1.7,2,2.8c-1.6,0.4-2.8,0.8-4,1.1c-0.4,1.9,0.9,2.6,2.6,1.4
 	c0.6-0.4,1.1-0.9,2.1-1.6c0.1,1.2,0.1,1.9,0.1,2.6c1.6,0.4,3.1,0.7,4.2,1c0.5,2.7,0.9,5.1,1.3,7.4c1.9-0.3,3.4-0.5,4.7-0.7
 	c3.8,5.2,8.5,8.7,15.2,9.6c0.9,3.1,3.5,5,6.3,6.7c1.7,0.9,2.6,2.2,3,4.1c0.8,3.6,3.2,5.9,7,7.1c0.2,1,0.4,2.2,0.8,4.2
 	c1.7-2.7,0.6-5.8,3.3-7c0,0-0.1,0.1-0.1,0.1c4.6-1.1,9.1-2.3,13.7-3.4c1.2-0.3,2.5-0.4,3.8-0.3c-1.7,2.2-4,2.7-6.5,3.2
 	c-2.2,0.4-4.3,1.3-6.5,1.9c0.1,0.3,0.2,0.6,0.2,0.9c2.1-0.5,4.1-0.9,6.2-1.4c3-0.8,5.8-2,9.2-2c1.8,0,4.2-1.3,4.1-5.1
 	c2.4,4.6-1.5,8.5,1.2,12.2c1.6-1.3,3.1-2.5,4.6-3.7c0.2,0.1,0.5,0.2,0.7,0.3c-0.4,1.4-0.8,2.8-1.3,4.4c2.5,2.1,3.5-1.2,5.2-2
 	c2,0.3,3.8,0.9,4.6,3.1c1.6,4.7,6,6.4,9.7,8.8c0.7,0.5,2,0.1,3.5,0.1c0.6,1.7,1.2,3.5,1.8,5.1c-2.2,1.7-5.6-0.3-6.3,3.2
 	c4.1,4,7.5,4.7,14.5,3.1c2.6,2.8,2.1,6.5,2.6,10c1.8,0,2.8-0.7,2.9-2.4c0.1-1.2,0.5-2.3,0.5-3.5c0.1-1.8,1.2-2.5,2.8-3
 	c2.3-0.8,4.6-1.8,7.3-2.9c-1.8-1.6-3.1-0.4-4.3-0.2c-1.3,0.3-2.6,0.4-4.4,0.7c0.3-1.1,0.5-2.7,0.9-2.7c2.7-0.3,5.4-1.5,8.1-0.4
 	c0.3,2.4,0.5,4.6,0.7,6.2c1.9,1.6,3.4,2.9,4.9,4.3c1.5,1.3,2.8,2.2,5.1,1.6c2-0.5,4.3,0.3,6.7,0.6c1.2-1.8,1.5-4.8,4.8-4.4
 	c1,1.1,1.9,2.3,3.1,3.7c-0.7,0.9-1.7,2.2-2.8,3.7c0.5,1.2,1,2.5,1.6,4c-0.9,0.2-1.4,0.3-2,0.4c0.2,0.1,0.3,0.3,0.5,0.3
 	c2.1,0.3,3-0.7,3-2.8c0-2.8,0.7-4.5,4-5.3c2.2-0.5,5.1-2.1,5-5.5c-0.7,0-1.3,0-2.9,0c2-1.5,3.4-2.4,5-3.6c-1.1-0.9-2.5-1.9-3.8-3
 	c-2.7-2.4-2.7-4.4-0.4-7.2c0.4-0.5,0.5-1.4,0.6-2.1c0.4-2.6,1.8-4.1,4.6-4.6c0.4-0.1,1.2-0.8,1.1-0.9c-1.1-2.8,1.8-2.3,2.5-3.7
 	c3.3,1.9,2.9,5,3,7.6c0.1,2.7-0.4,5.5-0.6,8.6c-1.1,1-2.5,2.4-4.3,4.2c1.5,0.8,2.7,1.4,4,2.1c-0.2,2.5-0.5,5.2-0.7,8.1
 	c3.1-0.5,2.6-4.2,5-5.3c1.4,2.4,2.5,4.5,0.1,7.4c-1.9,2.2-0.9,5.1,0.5,7.8c0.8-0.3,1.8-0.5,2.3-1c1.8-2.3,3-5.4,5.3-7.1
 	c2.9-2,3.9-4.4,4.3-7.6c0.2-1.7,2-2.4,3.5-1.2c1.6,1.3,4.2,1.4,4.5,4.2c0.1,0.8,0.9,1.5,1.7,2.6c-0.3,0.7-0.6,2.4-1.5,3.7
 	c-0.4,0.5-1.9,0.2-3.1,0.3c-0.4,2-0.9,4.3,0.4,6.6c0.3,0.6-0.2,2.2-0.8,2.7c-2.4,1.9-5.1,3.4-8,5.3c-0.7-2.3-1.2-3.9-1.8-5.6
 	c-0.2,0.1-0.5,0.1-0.7,0.2c0.4,1.6,0.8,3.1,1.4,5.5c-3-1.3-5.2-2.3-8.2-3.7c0.5,1.9,0.7,2.8,1.1,3.9c-2.6,1.6-4.1,5.1-8,5
 	c-0.7-2.2-1.9-4.1-4-5.4c0.2,4.1,0.7,4.7,4.1,5.3c0.6,0.4,1.2,0.8,2.1,1.4c-1.5,1.5-2.8,3-4.3,4.4c-3,3-3.1,3-6.7,0.9
 	c-2.5,3.6-2.6,3.6-6.1,2.7c-0.2,1.5,2.6,3.1,0.4,4.3c-1.3,0.7-3.3,0.1-4.9,0.1c0.6,2.4-1.5,3.6-3,4.4c-2.2,1.1-3.5,2.7-4.7,4.5
 	c-2.1,3.1-5.4,5.1-6.4,9c-0.7,2.8-2.4,5.4-1.2,8.4c1-0.2,1.9-0.4,2.5-0.6c1.4,0.7,1.4,7.5,0.3,10.7c0.3,0.1,0.6,0.2,0.8,0.2
 	c5-2.1,8.6,0.8,11.3,4c4.5,5.5,9.6,9.5,17.2,9.6c-1.1,4.2-2.2,8.1-3.3,12.4c1.3,2.5,2.7,5.5,4.3,8.2c0.3,0.5,2,0.7,2.5,0.3
 	c1.3-1.1,1.8-0.5,2.3,0.8c2.5-6,1.8-12.3,2.2-18.2c4.2-2.4,8.4-4.8,12.6-7.2c-0.5-5.3,1.5-10.8-3.6-15c2.3-2.4,4.5-4.8,6.8-7.2
 	c-0.2-2-0.4-4.2-0.7-6.6c1.3-1.6,2.9-3.1,1.7-6.3c-0.9-2.4,2.4-4.2,5.3-2.7c2.7,1.4,5.4,2.3,8.7,1.3c0.7,0.8,1.9,1.6,2.1,2.6
 	c1.1,4.3,3.6,7,7.5,7.9c-0.7,3.1-1.2,6.2-2.1,9.1c-1.3,4,3.9,4.1,3.5,7.4c7.3-1.2,9.8-6.8,13.2-12.5c0.7,3.3,0.9,5.9,1.8,8.2
 	c0.8,2.1-0.8,4.5,0.5,5.9c1.9,2,1.4,4.9,3.3,7.1c-0.9,0.8-1.8,1.7-2.8,2.6c1.6,2.4,3.3,4.7,5.1,7.4c1.9,0.9,4.4,2.2,6.8,3.4
 	c-0.1,1.9-4.4,0.5-2.4,3.6c-3.3-1.2-4.4-0.8-7.2,3.3c2-1.1,3.1-1.8,4.4-2.4c0.9-0.4,1.9-0.6,2.8-0.9c0.5-0.3,0.9-0.9,1.4-1
 	c2.4-0.2,5.7,4,5.2,6.4c-0.1,0.4-0.4,0.8-0.4,1.3c-0.1,1.2,0.2,3.1-0.4,3.5c-1.6,1.2-3.6,1.9-5.6,2.5c-1.5,0.4-3.3,0-4.4,1.7
 	c-2.5,3.9-6.6,3.6-10.4,3.5c-3.9-0.2-7.7-0.6-11.6-1.2c-2.7-0.4-4.8,0.5-6.2,2.5c-1,1.5-2.3,2-3.8,2.8c-2.5,1.4-4.8,3.3-7.1,5
 	c0.2,0.3,0.4,0.6,0.6,0.9c0.9-0.5,1.8-1.1,2.7-1.5c3.3-1.3,6.6-2.7,10-3.6c2.1-0.6,4.2-0.1,5,2.7c-0.9,2.4-3.2,2.3-5.3,3.3
 	c1,0.2,2,0.4,3,0.7c-1.8,5.6,0.4,9.1,6.3,9.9c1.4,0.2,2.8,0.5,4.3,0.8l-0.1-0.1c-2.1,2.8-5.4,3-8.4,3.7c-1.4,0.3-2.3,0.6-3.2,1.6
 	c-1.2,1.3-2.7,2.2-4.1,3.3c-2.6-3.6-2.6-3.6,4.1-8.5c-3,0.4-5.2,0.7-7.4,1c-2.1,4.8-7.5,2.5-10.8,5.1c-3.6,2.8-5.4,6.3-3.5,10.5
 	c-3.1,0.5-6.2,0.9-9.2,1.7c-2.5,0.6-4.5,1.7-4.8,5c-0.2,2.8-2,3.9-4.3,4.2c-0.6,2.1-1.1,4.1-1.7,6c-0.4,0-0.8,0.1-1.2,0.1
 	c-0.6-1.7-1.3-3.5-2.2-5.9c-0.1,4-1.1,7.2,0.3,10.5c0.7,1.7,0,2.9-2.1,3.2c0.7,0.6,1.3,1.1,1.9,1.6c-0.1,0.4-0.1,0.8-0.3,1
 	c-3.8,3.6-8.9,5.6-12.3,9.8c-0.6,0.8-1.7,1.2-2.6,1.6c-5.5,2.5-7.3,5.7-6.4,11.8c0.5,3.4,1.1,6.8,2.1,10c1.1,3.4,0,6-2,8.9
 	c-0.9-0.7-1.7-1-2-1.5c-1.8-4-4.9-7.5-4-12.5c0.3-1.4-1.6-3.3-2.6-4.9c-1.5-2.3-3.1-0.2-4.6,0.1c-4.5-3.8-9.7-3.3-14.8-2.4
 	c-0.7,0.1-1.4,1-1.7,1.7c-1.7,3.7-3,4-6.1,1.8c-0.7-0.5-1.8-0.5-2.7-0.7c-1.4-0.2-2.9-0.6-4.3-0.5c-2.2,0.2-4.7,0-6.3,2.4
 	c-0.5,0.8-1.7,1.5-2.7,1.5c-4.3,0.1-5.6,3-6.2,6.4c-1.1,5.6-2,11.3-2.8,16.9c-0.6,4.1-0.1,7.8,2.5,11.4c1.7,2.3,2.9,4.5,5.6,6
 	c2.1,1.1,3.5,1.6,5.7,0.7c2.2-0.9,4.5-1.6,7,0.6c1.6-3.5,2.9-6.5,4.4-9.5c0.4-0.8,0.9-1.9,1.6-2c3.6-0.8,7.2-1.3,10.8-1.9
 	c1.4,3.4-1.7,4.3-2.3,6.3c-0.5,2-0.7,4-1,6.1c-0.8,0.1-1.5,0.1-1.9,0.1c-0.7,3.2-1.4,6.2-2.2,9.8c5.8,1,12.8-2,19.1,3.1
 	c-0.6,2.6-1.2,6.1-2.2,9.4c-1.5,5.2,2,11.6,7.3,12.5c1.1,0.2,2.4,0,3.4-0.4c6-2.5,7.7-2.2,12,2.7c0.3,0.3,0.6,0.7,1.1,1.2
 	c0.2-1.1,0.1-2.2,0.6-2.6c2.3-2,3.6-4.7,5.2-7.2c0.8-1.2,3.1-2,4.7-2.2c2.7-0.3,4.7-1.6,6.7-3.2c0.7-0.5,1.8-0.5,2.6-0.7
 	c1.1,2.4-4.1,2.8-1,5.4c1.9-0.6,3.8-1.4,5.8-1.8c3.6-0.8,5.4,0.1,7.2,3.5c1.2-0.1,2.5-0.3,3.9-0.5c0.7-0.1,1.8-0.5,2.2-0.2
 	c2.9,2.6,5.5,0.9,8.2-0.2c1.2-0.5,2.6-0.4,4.2-0.7c-0.9,2.3,0.2,2.9,2,3.5c1.7,0.7,4.4,0.9,3.4,4.3c4.8-0.6,6.7,2.7,9.4,5.6
 	c1.9,2.1,4.5,4.3,8,4.1c3.1-0.2,6.1,0,9.2,1.2c4.4,1.8,7.6,4.4,9.2,9c0.7,2.2,2.3,4.1,3.7,6.4c0.2,3.6-5,4.2-5.5,7.9
 	c2.6,1.6,3.2-1.6,4.8-1.8c1.8-0.3,3.7-0.1,6.3-0.1c-0.7,1.9-1.2,3.1-1.6,4.3c-1.4,0.5-2.9,1-4.5,1.5c1,0.5,1.7,0.8,2.8,1.3
 	c0.5-1,1.1-1.9,1.6-2.9c0.6-0.1,1.4,0.1,1.6-0.2c1.9-2.8,4.2-2,6.7-1.2c1.9,0.7,3.3,2.2,5.6,2.3c0.8,0,1.4,2.5,2.3,4.1
 	c2-1.4,4.6-1.4,7.4-0.5c1.5,0.5,3.3,0.5,4.9,0.4c3.4-0.2,6.2,1.2,8.5,3.4c2.6,2.6,5,5,9,5.1c0.7,0,1.7,0.8,2,1.5
 	c3.2,5.5,2.6,11-1.9,15.6c-2.5,2.6-5.1,5-6.3,8.5c-0.2,0.6-0.9,1.5-1.4,1.6c-3.5,0.2-2.8,2.8-2.6,4.7c0.4,5.5,1,11-1.8,16.2
 	c1.3,5-4,8.1-3.8,12.8c0,1.4-5.1,4.1-6.8,4c-1.6-0.1-3.2-0.3-3.9-0.4c-2.8,1.9-5,3.2-7.1,4.7c-2.5,1.8-5.2,3.6-7.2,5.9
 	c-1.5,1.6-1.9,4.2-0.9,6.3c0.9,2.1,0.4,3.8-0.5,5.5c-1.5,2.7-3.1,5.4-4.7,8.2c-0.4-0.3-0.9-0.7-1.8-1.4c-1,3.3-4.5,5-4.2,8.9
 	c0,0.5-1.4,1.2-2.1,1.8c0.5,0.5,0.8,0.9,1.2,1.4c0.1,0.1,0,0.3,0.1,0.6c-0.8,0.9-1.7,1.9-2.4,3c-2.7,4.3-4.6,5.2-9.1,3.9
 	c-2.6-0.7-5.2-1.7-8.2-2c1.8,1.4,3.6,2.7,5.6,4.3c-0.9,2.4-1,4.7,2.5,5.3c-1.7,3.6-1.8,7.4-6.4,8.7c-3.7,1.1-7.2,1.7-11.2,0.6
 	c0,2.5-0.1,4.9,0,7.3c0.2,3-1.6,4.5-4.4,3.6c-1.3-0.4-2.5-1-3.7-1.4c-0.2-0.1-0.6,0.1-0.8,0.2c0.3,6.3,1.1,7.3,5.4,5.6
 	c0.1,1.2,0.2,2.2,0.4,3.6c-1.4-0.6-2.4-1-4.5-1.8c2.2,2.9-0.4,4.1-0.5,5.9c-0.1,2,0.1,4,0.3,6.1c-3,0.7-6.1,1.8-5.9,4.8
 	c0.1,3.8,3.7,4.9,6.7,5.7c1.2,2.9,0.3,4.9-1.6,6.7c-1.3,1.2-2.6,2.4-2,4.6c0.2,0.6-0.5,1.8-1.1,2.2c-2.8,1.8-3.1,4.1-1.6,6.9
 	c0.7,1.3,1.1,2.7,1.6,4c-0.7,0.7-1.5,1.6-2.4,2.5c0,0,0.1-0.1,0.1-0.1c-1.9,0.3-2.8,1.4-2.9,3.4c0,1.3-0.2,2.6-0.3,4.5
 	c-1.4-0.4-2.5-0.8-3.9-1.2c1-1.5,1.8-2.6,2.6-3.8c-0.2-0.2-0.4-0.4-0.6-0.6c-1.2,1.1-2.4,2.1-3.7,3.4c-1.2-1.2-2.2-2.5-3.5-3.5
 	c-1.7-1.3-1.6-2.1,0.3-3c0.8-0.4,1.5-1.1,1.9-2.5c-1.2,0.5-2.5,0.9-4.1,1.5c-1.1-4.6-2.9-8.9-7.4-11.1c0-1.5,0-2.9,0-4.3
 	c0.8-0.4,1.6-0.7,2.4-1.1c-0.6-2.7-1.3-5.3-2-8.5c-0.7-0.3-2-0.9-3.6-1.6c0.2-1.1,0.4-2.2,0.7-3.6c1.2,0.5,2.1,0.9,2.9,1.2
 	c0.2-0.2,0.6-0.3,0.6-0.5c0.7-3,2.8-5.8,0.9-9.3c-0.9-1.7,0-4.4,0-6.6c0-1.4,0-2.9,0-4.4c-1.5,0.2-2.7,0.7-3.3,0.3
 	c-0.9-0.6-1.6-1.8-1.9-2.9c-0.3-1.1-0.5-2.5,0-3.5c2-4.4-0.2-8.1-1.7-11.4c0.8-2.4,1.6-4.4,2.1-6.5c0.9-3.3,1.9-6.6,2.4-10
 	c0.3-2.3,0-4.7-0.5-7c-1.3-6.5-0.8-12.8,0.1-19.3c0.6-3.9,0.1-7.9,0.1-11.9c0-2.3,0.3-4.7,0.2-7c-0.2-5-0.7-10-1-15.1
 	c0-0.4-0.2-1-0.5-1.2c-3-2.4-6-4.8-9.2-7c-3.4-2.4-6.9-4.5-10.3-6.9c-0.8-0.6-1.4-1.5-1.9-2.4c-1.2-2.3-2.2-4.8-3.4-7.1
 	c-1.9-3.5-3.8-7-5.8-10.5c-1.4-2.4-2.5-5.1-4.2-7.2c-1.2-1.5-3.3-2.5-5-3.7c-0.1-0.2-0.2-0.5-0.3-0.8l4.1-9.8
 	c0.1-0.4,0.3-0.8,0.4-1.3c0-0.4-0.1-0.9-0.1-1.3c-3.5,0.1-4.7-2.3-3-5.7c1-2,1.9-4.1,3.2-6.9c1.3-0.5,3.3-1.6,4-4.3
 	c0.2-0.9,1.7-1.5,2.6-2.2c1.9-1.6,4.2-3.1,2.3-6.2c-0.1-0.2,0-0.6,0-0.9c0.4-4.2-0.3-8-2.7-11.7c-1.1-1.7-1.1-4.2-4-5
 	c-1.1,1.8-4,2.6-3.2,5.7c-0.7,0.2-1.5,0.7-2.1,0.5c-1-0.4-1.8-1.2-2.7-1.8c-0.6-0.4-1.3-1.3-1.7-1.2c-4.5,1.4-5.8-2.5-8.4-4.6
 	c-1.2-1-3.1-1.1-4.8-1.6c1.7-5.6-5.3-6.9-5.4-11.2c-2.3-0.4-4.6-0.8-6.8-1.3c-2-0.4-4.1-0.9-6.1-1.5c-1.1-0.3-2.3-0.8-3.1-1.6
 	c-2.2-1.8-4.2-3.8-6.2-5.8c-1.3-1.2-2.8-2.3-4.4-1.2c-4,2.7-7.9,1.4-11.5-0.3c-4-1.9-8.6-2.7-11.9-5.9c-0.5-0.5-1.4-0.5-2.1-0.7
 	c-1.9-0.5-3.6-1.2-4.8-2.9c-0.6-0.8-1.7-1.2-2.6-1.7c-2.9-1.7-3.7-3.4-2.4-6.4c1.4-3.1-0.5-5.5-1.3-8c-0.4-1.2-1.2-2.4-2.1-3.4
 	c-2.9-3.1-4.5-7.3-8.9-9.2c0.5-1,0.9-1.9,1.3-2.9c-5.8-5.8-10.6-12.2-11.4-20.9c-1.4-0.7-2.9-1.4-4.7-2.2c-0.8,3.6-1.1,6.5,0.9,9.6
 	c2.7,4.2,4.9,8.7,7.3,13.1c0.3,0.6,0,1.5,0.3,2.2c1.1,3,0.5,6.8,4.1,8.8c1.1,0.6,0.9,1.4,0,3.5c-2.5-2.6-4.9-5.1-7.6-7.9
 	c3-7-4.9-7.5-7.7-11.2c1-1,2.2-1.7,2.4-2.7c0.3-1-0.1-2.5-0.8-3.2c-4.6-5.1-5.7-11.6-7-18c-0.3-1.4-1.4-3-2.6-3.9
 	c-2.2-1.7-4.8-2.9-7.4-4.4c-0.4-1.2-0.9-2.7-1.3-4.2c-0.9-2.9-1.9-5.8-2.4-8.8c-0.2-1.1,0.8-2.4,1.3-3.7c-0.9-0.2-1.9-0.1-2.1-0.5
 	c-0.7-1.6-1.5-3.2-1.8-4.9c-0.4-2.3-0.5-4.6-0.7-7c0-0.3-0.1-0.7,0-0.9c2.5-3.3,1.7-7.1,2-10.8c0-0.4,0-1,0.2-1.3
 	c3.9-5,3.6-11.9,7.6-16.9c0.5-0.6,0-2,0-3c0-3,0-6.1,0-9.8c2.7,1.4,4.8,2.6,7.3,3.9c0.2-0.8,0.7-1.7,0.7-2.6
 	c0.1-3.3-0.7-6.8-3.3-8.6c-2.1-1.4-0.5-2.5-0.5-2.6c-2.4-2.4-4.4-4.1-6.1-6c-1.4-1.7-1.9-3.7-0.7-5.8c0.3-0.6,0.1-1.5-0.2-2.2
 	c-0.4-1.2-0.5-1.1,0.5-3.1c-1-0.4-2-0.8-2.7-1.1c1-1.6,1.9-3.1,3.3-5.3c-2.1,0.6-3.2,0.9-4.4,1.3c0-5.9,0-5.9,2.6-9
 	c-3.3-1.3-4.2-4-3.4-7c0.8-3.3,0.5-6.2-1.4-8.9c0.7-2,1.2-3.8,1.9-5.8c-1-0.1-1.5-0.1-2.1-0.1L126.4,184.5z M226.5,242.1
 	c-2.2,1.5-0.5,2.7,0.1,4.6c2-2.2,0.2-3.3-0.3-4.7c0.9-1.4,0.7-2.6-1.3-3.9C225.7,239.8,226.1,241,226.5,242.1z M224.7,208.9
 	c1.3-2.4,2.6-4.8,4.2-7.7C223.1,203.2,222.6,204.2,224.7,208.9c-1.7-0.8-2.9-0.1-3.6,1.7C222.3,210,223.5,209.5,224.7,208.9z
 	 M232.2,227.3c-1.1,0.1-2.3-0.8-2.9,1c-0.1,0.4-1.5,0.8-2.1,0.6c-1.2-0.3-1.1-1.2-0.4-2c1.3-1.7-0.3-2.6-1.3-2.9
 	c-1.5-0.6-2.1,0.8-2.2,2c-0.1,0.8,0.2,1.7,0.3,2.6c0.5,2.3,0.9,4.6-0.4,6.9c-0.3,0.5,0,1.2,0,1.9c0.2,0.1,0.5,0.1,0.7,0.2
 	c0.9-2.2,1.8-4.4,2.7-6.7c0.6,0,1.3,0,2.1,0c0.5,2.9,0.6,5.8,3.3,7.8c0.5,0.4,0.6,1.8,0.5,2.7c-0.2,1.5-0.6,2.9-1,4.3
 	c1.2-0.5,2.1-1.2,2.1-1.9c0.3-5.6,0.4-11.1-1.6-16.4c1.4-1.8,1.4-1.8,0.6-3.9C232.5,225,232.3,226.1,232.2,227.3z M253.7,291.2
 	c3-1.8,4.6-3.9,4.7-7.3c0-3.1,0.5-6.3,3.3-8.4c1.2-1,2.6-1.7,4-2.6c5,2.4,5.2,3.4,2.1,7.9c-0.2,0.3-0.1,0.7-0.2,1.3
 	c1.3-0.5,2.3-0.9,3.5-1.4c0.2,1.6,0.3,2.9,0.4,4.2c2.7,0.2,2.5-1.8,3.1-3.3c0.6-1.6,1.5-3.1,2.2-4.6c1.2,0.6,2.4,1.2,3.6,1.9
 	c2.2-3.2-1.1-4.7-1.3-7c-2.8-0.7-5.4-1.4-8-2c-0.7-0.2-1.9-0.4-2.1-0.1c-1.4,2-2.9,1.1-4.7,0.8c-3.7-0.7-9.3,2.1-9,4.9
 	c0.3,3.3-1.5,5.6-2.2,8.4C252.4,286.2,251.5,288.6,253.7,291.2z M267.1,262.1c-1.2-0.7-2.7-1.1-2.8-1.7c-0.6-3.6-3.6-3.4-6.1-4.4
 	c-4.2,4.5-11,4.7-15.5,10c1.6-0.3,3.1-0.7,3.2-0.5c1.6,2.8,3.6,0.9,5.3,0.4c1.5-0.5,2.9-1.5,4.4-2.2c0.3-0.2,0.8,0,1.3,0
 	c-0.4,0.7-0.8,1.3-1.2,2c2.1,0.5,2.7,3.1,5.2,2.5c2-0.5,4.2-0.1,6.7-0.1C267.4,266.2,267.3,264.2,267.1,262.1z M188.3,144.4
 	c1.8-1.8,5.5-0.4,6.3-4.3c0.2-1.3,2.1-1.4,3.5-0.5c0.7,0.4,1.4,0.8,1.9,1.1c1.7-2.3,3.2-4.3,5.1-6.9c-5.8,2-6.2,1.9-8.4-1.3
 	c1.6-0.6,3.2-1.2,4.8-1.8c-1-1-2-1.7-2.8-1.4c-5.2,1.5-10.5,2.1-15.9,2.1c-0.5,0-1,1-1.7,1.6c0.7,0.3,1,0.4,1.2,0.4
 	c2.8,0.2,5.5,0.3,8.3,0.6c0.4,0,0.8,1,1.7,2.2c-1.8-0.4-2.8-0.5-3.2-0.6c-2.3,2-4.4,3.9-6.5,5.7c1.7,1.9,3.5,2,5.3,0.1
 	c1.1-1.2,2.3-2.2,4.4-1.5C191.6,142.5,189.3,142.7,188.3,144.4z M212.7,164.3c-2,1.5-3.7,2.9-5.6,4.1c-2.8,1.9-4.7,1.4-6.7-1.2
 	c-0.8-1.1-1.9-2-3.5-3.7c0.5,2.8,0.8,4.7,1.1,6.6c-1.4,0.1-3.2-0.2-3.5,0.4c-1.4,2.7-3.6,3-6.4,2.1c1.9,3.5,4.4,4.6,7.6,3.4
 	c2-0.7,3.9-1.7,5.8-2.5c2.1-0.9,4.4-1.5,6.5-2.6c2.9-1.5,5.7-3.3,8.7-5.1C215.5,165.3,214.3,164.9,212.7,164.3z M282.2,288.3
 	c-0.1-0.5-0.3-1-0.4-1.5c-3,0.7-6,1.2-9,2c-1.3,0.3-2.5,0.9-3.7,1.4c-0.7,0.3-1.2,1-1.8,1.5c0.8,0.6,1.5,1.2,2.3,1.6
 	c0.4,0.2,1.2-0.1,1.7-0.3C275,291.4,278.6,289.8,282.2,288.3z M292.3,280.6c-3.5,2.7-8.4,0.1-11.2,3.8c0.3,0.5,0.5,0.9,0.7,0.9
 	c2.5,0.2,5,0.4,7.5,0.4C291.6,285.7,292.6,284.1,292.3,280.6z M200.3,192.6c2.6,2.2,3.5-1.2,5.4-1.4c2.1-0.2,4.4,1,6.5-1
 	c-1.7-0.9-3.2-1.7-4.5-2.4C205.2,189.5,202.9,191,200.3,192.6z M245.1,166.4c-2.1-0.4-4,0-4.9,1.9c-0.9,2,1.1,2.5,2.2,3.7
 	C243.4,169.9,244.2,168.3,245.1,166.4z M345.6,234.9c-2.6-1.1-2.6-1.1-8.2-0.4c0.8,0.7,1.8,1.8,1.9,1.7
 	C341.1,234.7,344,237.9,345.6,234.9z M295.3,418.3c-1.1,1.4-2,2-2,2.7c0,0.8,0.7,1.6,1.1,2.4c0.5-0.7,1.2-1.3,1.4-2.1
 	C296.1,420.7,295.7,420,295.3,418.3z M259.2,249.7c-3,1.9-3,1.9-0.6,4.1C258.8,252.2,259,250.9,259.2,249.7z M326,234.4
 	c-0.3-1.7-0.6-3-0.8-4.4C323.1,233,323.1,233,326,234.4z M265.9,165.7c0.1-0.3,0.3-0.5,0.4-0.8c-1.5-0.8-3-1.6-5.3-2.8
 	C262,165.7,264.5,164.6,265.9,165.7z M302.5,512.6c0.2,3.2,0.2,3.2,4.6,4.4C305.2,515.1,304,514,302.5,512.6z M222.3,201.2
 	c0.3,0.2,0.6,0.3,0.9,0.5c0.9-1.2,1.9-2.4,3.1-4.1C222.6,197.3,223.1,199.7,222.3,201.2z M237.1,250.6c-0.5,1.1-0.9,2.3-1.6,3.8
 	C238.4,253.9,239,252.8,237.1,250.6z M214.5,216.3c-1.8-0.8-2.8-0.6-3.3,0.8c-0.1,0.2,0.7,0.9,0.7,0.9
 	C212.7,217.5,213.5,217,214.5,216.3z M193.1,158.8c0.2-0.2,0.5-0.4,0.7-0.6c-0.5-1.2,0.1-3.3-3.5-2.7
 	C191.5,156.9,192.3,157.9,193.1,158.8z M255.6,150.3c-1.9-1.6-1.9-1.6-4.5-0.6C252.8,150,254.1,150.1,255.6,150.3z M260.4,172.3
 	c-0.1-0.1-0.2-0.3-0.4-0.4c-0.9,0.3-1.7,0.6-2.6,0.9c0.1,0.2,0.2,0.4,0.3,0.7C258.6,173.1,259.5,172.7,260.4,172.3z M252.6,175.8
 	c0-3.2,0-3.2-2.5-2.9C250.8,173.7,251.5,174.4,252.6,175.8z M209.8,203.4c2.3,0.5,3.5,0.4,3.9-2
 	C212.3,202.1,211.4,202.6,209.8,203.4z M221.4,143.5c-0.2,0.1-0.5,0.1-0.7,0.2c0.4,1.4,0.8,2.9,1.2,4.3c0.2,0,0.4-0.1,0.6-0.1
 	C222.1,146.4,221.8,145,221.4,143.5z M247.3,416.7c0.4-0.4,0.7-0.9,1.1-1.3c-1-0.6-2-1.3-2.9-1.9c-0.3,0.4-0.5,0.7-0.8,1.1
 	C245.5,415.2,246.4,415.9,247.3,416.7z M245.2,247.3c2.4,1.5,2.4,1.5,2.9-0.7C247.3,246.9,246.5,247.1,245.2,247.3z M310.6,248.6
 	c-0.1-0.3-0.2-0.6-0.4-0.9c-1.3,0-2.5,0.2-3,2.4C308.6,249.5,309.6,249,310.6,248.6z M227.9,181.5c-0.3,0.5-0.6,0.8-0.6,1.1
 	c0,0.3,0.4,0.6,0.7,0.9c0.3-0.3,0.7-0.6,0.8-0.9C228.7,182.3,228.3,182,227.9,181.5z M233.1,208.9c0.1,0.4,0.2,0.7,0.3,1.1
 	c0.8-0.3,1.5-0.6,2.3-0.9c-0.1-0.2-0.1-0.5-0.2-0.7C234.7,208.6,233.9,208.7,233.1,208.9z M243.2,227.3c-0.2,0.3-0.3,0.7-0.5,1
 	c0.8,0.2,1.5,0.4,2.3,0.7c0.1-0.2,0.1-0.4,0.2-0.6C244.5,228,243.8,227.6,243.2,227.3z M195.9,146c0.2,0.1,0.5,0.2,0.7,0.3
 	c0.4-0.8,0.8-1.7,1.2-2.5c-0.3-0.1-0.5-0.2-0.8-0.4C196.6,144.3,196.2,145.2,195.9,146z M239.6,175c0.3-0.6,0.7-1,0.6-1.2
 	c-0.1-0.3-0.6-0.6-1-0.7c-0.2,0-0.6,0.5-0.6,0.7C238.7,174.1,239.1,174.3,239.6,175z M214.5,139.5c2.4,1.3,2.4,1.3,2.8-0.9
 	C216.5,138.9,215.7,139.1,214.5,139.5z M313.5,673c1.3,1.1,1.3,1.1,2.7,0C315.4,673,314.6,673,313.5,673z M245.8,223
 	c0,0.3,0,0.7,0.1,1c0.6-0.2,1.3-0.3,1.9-0.5c0-0.2-0.1-0.3-0.1-0.5C247,223,246.4,223,245.8,223z"/>
 <path d="M400,155.5c2.7-0.3-0.6-2,0.7-2.7c-1.1-0.1-2.4,1.6-3.4-0.8c0.8-0.2,1.5-0.6,2.1-0.5c1.4,0.1,2.6,0,2.7-1.6
 	c0.1-2.2,2-0.6,2.7-1.4c-0.5-1.4-0.1-3.1,1.2-5.9c-2.7-1.2-5.5-2.5-8.2-3.7l0.1,0.1c-0.7-1.2-1.4-2.5-2.2-4c4.3-0.7,6.7,1.8,9.5,3.6
 	c-0.6-2.3,0.4-4.5-0.9-6.6c-0.3-0.5-2.3-1.6-0.1-2.5c-0.5-0.5-0.9-1.5-1.4-1.5c-1,0-2.3,0.3-3,0.9c-2.1,1.7-2,1.8-4.5-0.7
 	c2.6-1.9,2.7-5.3,4.6-7.7c1.3-1.7-0.1-3.3-0.1-5c0-3.6,0.2-7.3,0.2-10.9c0-1.1-0.8-2.2-1.2-3.3c-0.8-2.1-2.2-4.1-0.7-6.5
 	c0.3-0.6-0.2-2.2-0.9-2.6c-2.6-2-5.3-3.7-8-5.5c-0.5-0.3-1.1-0.6-1.6-0.6c-3-0.2-5.9-0.3-9.1-0.5c-0.1,0.3-0.4,0.9-1,2.2
 	c-1.7-2-3.2-3.7-5-5.6c1.5-0.8,2.5-1.3,3.4-1.8c-0.8-0.9-1.5-1.9-2.4-2.6c-0.9-0.7-2.3-1.4-1.5-2.6c0.6-0.8,2.3-1.6,3.3-1.3
 	c2.8,0.7,5.5-1.9,8.2,0c0,0,0.9-0.8,0.9-1.2c0-0.4-0.6-1.2-1-1.2c-2.1-0.1-4.2-0.1-5.9-0.1c-1.8-2.7-3.4-5.2-5-7.7
 	c0.5-3.1,2.4-4.3,5.5-4.5c2.1-0.1,4.3-0.4,6.1-1.4c3.1-1.7,5.9-1.3,8.9-0.1c4.5-4.2,6.3-6.8,6.3-9.2c-1.5-0.4-3-0.7-5-1.2
 	c0.5-1.1,0.7-2.2,1.4-2.7c2.8-2.4,5.5-4.9,8.7-6.7c1.4-0.8,3.7,0.1,6.1,0.2c1.3-1.3,3.2-2.9,3-5.8c-0.1-1.9,1.4-2.4,3.3-2.7
 	c0.6,2,1.2,4,1.8,6c0.2,0,0.4-0.1,0.6-0.1c-0.2-2.3-0.3-4.5-0.5-7c4.7-0.9,9.6,0.3,13.7-2.8c1.6,3.4-1.3,5.8-1,9
 	c0.9-0.6,1.5-1,2.3-1.6c0.6,1.1,1.2,2.2,1.9,3.4c1.3-0.2,2.7-0.4,4.3-0.6c0.2-2.8,0.4-5.7,0.6-9.6c1.4,0.9,2.7,1.3,3.1,2.1
 	c0.9,2,1.3,4.2,1.9,6.3c0.4,1.4,0.5,2.9,1.1,4.2c0.8,1.6,2.3,0.6,3.5,0.5c0.7,0,1.4,0.7,1.7,0.8c-1.1-4.6-2.3-9.3-3.6-14.8
 	c2.1,0.8,3.3,1.2,4.6,1.7c2.3-1.4,3.5-3.4,2.8-6.2c1.5-0.7,2.6-1.3,4-1.9c1.1,0.6,2.2,1.3,3.4,1.9c0.9,0.4,1.9,0.7,2.8,1.1
 	c-0.4-2.7,3-1,3.3-3c0.6-3.8,3.9-3.4,6.5-3.5c1.9-0.1,3.8,0.7,5.6,1.2c2.3,0.6,4.6,1.2,6.8,2.1c1.7,0.7,3.2,1.7,5.5,3
 	c-1.5,0.7-2.2,1.3-2.8,1.2c-3.8-0.3-7.6-1-11.5-0.2c-0.2,0.1-0.7-0.8-0.8-0.9c-2.6,1.1-5.1,2.1-7.6,3.2c0.3,0.4,0.5,0.8,0.6,0.8
 	c3.5-0.6,7-1.2,10.6-1.7c1.3-0.2,2.8-0.5,4,0c2.9,1.2,5.7,1.4,8.5,0.1c3,3.7-1.7,2.9-2.7,4.8c2.4,0,4.6-0.5,6.5,0.1
 	c2,0.6,3.7,2.2,6.2,3.9c-2.1,1.5-3.4,3.1-4.9,3.3c-3.8,0.6-7.7,1-11.5,0.6c-3.4-0.4-6.4-0.7-9.5,1c-1.5,0.9-3.4,1.2-5,1.9
 	c-0.4,0.2-0.4,1.3-0.7,2.6c6.4-3.3,12.3-5.3,19.3-2c-1.2,0.9-2,1.4-2.8,1.9c-0.7,0.4-1.5,0.7-2.2,1c0,0.3,0.1,0.6,0.1,0.9
 	c2.2,0,4.6,0.4,6.6-0.2c1.2-0.3,1.9-2.3,3-3.8c0.7,0,1.7,0.1,2.9,0.2c0.2,3.4-0.6,6.2-3.7,7.5c-2,0.9-3.2,2.4-4.3,4.1
 	c3.9-1.3,8.2-1.8,11-5.7c1.7,0.7,3.3,1.5,4.8-1.2c1.4-2.5,6.5-2.2,9.3,0.2c1.2,1,2,2.5,3.2,4c-2.2,1.3-2.9,3.9-5.7,3.6
 	c-0.4,0-1.2,0.6-1.2,0.9c0.2,3.8-2.2,3-4.5,2.8c-1.2-0.1-2.4,0.2-3.6,1.1c1.5,0.3,2.9,0.6,4.4,0.9c-1.7,3.1-2.4,3.5-5.1,2.8
 	c-1.1-0.3-2.1-1.4-3,0.2c-2.6-0.2-1.9,1.3-1.6,3.3c1.2-1,1.9-1.6,2.7-2.2c0.9,0,1.8-0.1,2.7,0c0.2,0,0.5,0.3,1,0.7
 	c-1.8,3-4,5.8-5.2,9c-1.3,3.2-1.7,6.8-2.6,10.7c-1.1-0.6-1.8-0.9-2.6-1.4c-1.3,2.3,1.4,3,1.8,4.5c-2.1,2.7-1.7,3.4,3.3,4.5
 	c-0.2,1.5-0.4,3-0.6,5c-1.2-0.5-1.9-0.7-2.4-1c-2.6-1.7-4.7-1.3-6.5,1.1c-1,1.3-0.5,2.9,1.2,3.5c0.9,0.3,2,0.4,3.5,0.7
 	c-0.8,0.7-1.2,1.1-1.8,1.6c1.8,1.7,2.3,3.9,1.3,6.6c-1.1,0-2.2,0-3.3,0c-0.5,3.1,0.9,4.8,3.3,5.3c0.9,3.5-2.3,1.2-3.2,2.6
 	c-1.4,2.2-2.6-0.6-4.1-0.9c-0.2,0.7-0.4,1.4-0.7,2.3c1.6,0.5,3,0.9,4.5,1.4c0.7,4.3-4.1,2.6-5.6,5.6c-1.6-2-2.8-3.6-4.2-5.3
 	c-0.6,0.5-1.4,1.2-2.5,2.1c1,0.7,2,1.4,3.1,2.2c-0.4,0.5-0.6,1.1-0.9,1.2c-1.4,0.4-2.9,0.7-4.3,1c0.3,1.6,3.4,1.9,0.9,3.9
 	c2.7,1.4,5.5,2.7,6.5,5.9c1,3.1,1.9,6.1,1,9.9c-0.9-0.7-1.5-1.1-2.2-1.7c-0.4,1.1-1.3,2.6-2.6,0.8c-1.1-1.4-1.7-3.1-2.5-4.7
 	c-0.3-0.6-0.6-1.1-1.2-2.4c-1.3,1.6-2.3,2.8-3.3,3.9c-1.4-0.2-2.9-0.4-4.3-0.6c-0.9,1.2-1.7,2.4-2.6,3.6c0.2,0.3,0.3,0.6,0.5,0.9
 	c1.9-1.7,3.4-4.3,6.3-3.9c1.1-0.9,2-0.8,2.3,0.6c0.1,0.6-0.5,1.6-1.1,2c-0.8,0.5-1.9,0.4-3.6,0.8c1.1,0.9,1.9,1.9,2.2,1.8
 	c3.3-1.5,5.8,1.6,9.5,0.8c-7.7,8.5-22.5,14.1-28.2,11.3c-0.5,0.9-0.7,1.9-1.4,2.6c-1.4,1.5-3.2,2.8-4.4,4.4
 	c-1.8,2.4-3.6,4.2-6.3,5.7c-2.2,1.2-4,1.2-6.2,1c0.1-1,0.1-1.6,0.2-2.3c-0.2-0.1-0.4-0.2-0.5-0.3c-0.8,1.4-1.5,2.8-2.5,4.5
 	c-1.1,0-2.6,0-4.4,0c-0.3,2-1,3.6-3.2,2.4c-1.7,1.3,1.4,3.9-1.7,4.5c-0.1,0-0.3,0.8-0.1,1c2,2.5,0,3.5-1.5,5c-0.8,0.8-3.5,0.6-2.1,3
 	c-0.8,0.2-1.6,0.3-2.5,0.5c1.4,6.1-3.9,9.9-4.8,15.3c-1.5-0.5-2.6-0.7-3.7-1.3c-0.9-0.5-1.6-1.3-2.6-2.1c0.4-0.8,0.9-1.6,1.4-2.6
 	c-0.3-0.1-0.7-0.5-1-0.4c-1,0.1-2,0.2-2.9,0.5c-3.6,1-6.8-1.5-6.7-5.3c0-0.4,0.2-1,0.1-1.3c-2.2-3.1-2.2-7-3.9-10.3
 	c-0.6-1.2-0.8-2.2,0.8-2.6c1.6-0.5,3.1-1,3.1-3.6c-1.7,0.5-3.2,0.9-5,1.4c-0.3-3.5-0.5-7-0.8-10.7c-0.3-0.2-0.9-0.5-1.9-1
 	c1.4-1.2,2.7-2.3,4.1-3.4c-1-0.5-1.8-0.9-2.6-1.3c0-0.2,0-0.5,0.1-0.7c1.2-0.2,2.4-0.4,4.3-0.8c-1.6-0.2-2.6-0.3-3.6-0.5
 	C395.2,154.1,395.2,154.1,400,155.5c-0.2,0.9-0.6,1.8-1.1,3C400.8,157.5,400.8,157.5,400,155.5z M476.9,123.5
 	c-0.1-0.3-0.2-0.7-0.3-1c-0.9,0.3-1.9,0.5-3.8,1C474.8,123.5,475.8,123.5,476.9,123.5z M459,27.9c1.1-2-0.1-2.7-1.2-3.3
 	c-0.1-0.1-0.5,0.2-0.8,0.4C457.6,26,458.2,26.8,459,27.9z M471.8,136.2c0.1-0.1,0.3-0.2,0.4-0.3c-0.1-0.4-0.2-0.8-0.4-1.1
 	c-0.2-0.4-0.6-0.6-0.9-0.9c-0.1,0.1-0.3,0.3-0.4,0.4C470.9,134.9,471.4,135.5,471.8,136.2z"/>
 <path d="M981.4,519.4c1.1,1.5,1.9,2.5,3.1,4.3c0.2-2.1,0.3-3.3,0.4-4.7c0.8,0.1,1.6,0.2,2.4,0.3c1-5.8,5.4-8.1,10.4-10.4
 	c1.2,1.6,2.2,3,3.3,4.4c1.8,0.1,3.6,0.2,5.4,0.2c-0.8-4.7,3.6-10.3,8.1-10.6c1.9-0.1,3.7-0.1,3.8-2.9c4.9,1.1,9.2,4.1,14.9,2.3
 	c-0.6,1.4-0.7,2.6-1.3,3.1c-2.5,2-3.1,4.9-4.1,7.6c1.9,4,6.3,5.2,9.3,8c1.2,1.1,2.6,1.9,3.8,2.9c2.3,1.8,4.8,1.5,5.8-1.3
 	c1.3-3.6,2.3-7.4,2.8-11.1c0.6-4.5,2.1-8.7,3.6-13.9c2.9,4.7,3.5,9.1,4.2,13.4c3.9,0.4,4.5,1.1,4.8,4.8c0.2,2.3-0.1,4.8,1.6,6.8
 	c0.4,0.5,0.7,1.5,0.6,2.1c-1,4,0.9,6.7,4.3,8.3c4.2,2,4.9,5.8,5.8,9.6c0.1,0.4,0.2,0.9,0.3,1.4c1.8,0.7,4.1,0.7,3.6,3.9
 	c-0.2,1.2,0.9,2.9,1.9,3.9c3.7,3.8,5.4,8.1,3.8,13.4c-0.2,0.6-0.4,1.3-0.2,1.7c2,4.3-0.4,7.8-1.8,11.5c-0.8,2.1-1.1,4.4-2.1,6.3
 	c-1.3,2.6-3.1,4.9-4.7,7.2c-0.4,0.6-1.3,0.9-1.6,1.5c-4,6.9-9.6,13-11.3,21.1c-0.5,2.6-1.8,3.5-4.2,3.5c-2.8,0-5.2,1-7.3,2.8
 	c-1.3,1.1-3,1.6-4.7,2.5c-0.9-2.1-1.6-3.9-2.3-5.8c-2.1,1.6-4.1,3.1-5.6,4.1c-2.7-1.4-4.8-2.5-6.9-3.5c-3.1-1.5-4.5-4.6-4.1-8.1
 	c0.2-2.3-0.2-4.6-0.3-6.9c-0.9,0-1.5,0-2.2,0c0-1.9,0-3.8,0-6.8c-1.7,2.5-1.7,5.3-4.7,4.7c1.8-3.4,3.6-6.8,5.4-10.3
 	c-0.2-0.2-0.5-0.4-0.7-0.6c-3.1,2.9-6.3,5.7-9.3,8.6c-1-3.4-2-6.6-3-9.8c-0.2-0.7-0.4-1.6-0.9-1.9c-5.7-2.5-11.2-6.2-17.9-3.5
 	c-3,1.2-5.9,1.7-9.1,1.9c-3.2,0.3-6.6,1.7-8.8,4.4c-1.8,2.1-3.7,3.3-6.2,2.5c-5.4-1.7-9.8,0.7-14.3,3.1c-4.4,2.3-7.4,1.7-10.6-2
 	c-1.1-1.3-1.2-2.3,0.1-3.4c3.1-2.8,3.4-6.4,2.8-10.2c-0.2-0.9-0.2-1.8-0.3-2.7c-0.7-5.6-1.4-11.2-2.1-17.2c1.7-1.4,2.1-3.3,0.8-5.9
 	c-1-2-1-4.3,0.3-6.5c0.4-0.6,0.7-1.3,0.9-2c0.8-3.8,0.9-3.6,1.9-4.2c1.4-0.8,2.6-1.9,4-2.7c5.4-3.5,11.8-4.4,17.9-6
 	c4.3-1.1,7.7-4.5,8.5-8.9C979.1,522.3,980.4,521.1,981.4,519.4z"/>
 <path d="M340.5,63c0.9-2,1.9-3.9,2.7-5.7c-1.6-0.3-3.4-0.6-5.7-0.9c2.2-5.1,5.7-7.4,10.9-7.3c1.3,1.2,2.5,2.4,4.3,4.2
 	c-0.4-3.7-2.5-3.8-4.4-4.1c1.9-3.2,3-6.4,2.1-10.4c-0.4-1.7,0.4-4.8,3.3-5.7c4.6,2.4,4.6,2.4,6.6,8.4c0.2-2,0.5-4.1,0.8-6.5
 	c3.7,1.1,7.3,1,10.9-0.5c1.6-0.7,3.7-0.1,6.4-0.1c-1.8-0.8-3-1.3-4.3-1.9c0.3-0.6,0.6-1.3,1.1-2.5c-0.9,0.3-1.7,0.3-1.9,0.7
 	c-1.2,2.3-3.3,2.9-5.6,3.3c-3,0.5-4-0.2-5-3.3c-3.4,2.2-4.1,2.1-7.7-0.8c0.5-0.8,1.1-1.6,2.1-3.2c-1.7,0.9-2.7,1.4-4.3,2.2
 	c-0.9-1.3-1.8-2.7-3.3-5.1c3.7,0.4,6.2,0.7,8.7,1c0-0.1,0-0.2,0.1-0.3c-2.3-0.7-4.6-1.3-7.6-2.1c2.3-1.8,1.4-4.6,3.9-6.7
 	c-1.7,0.1-2.8,0.2-4,0.3c2.5-3.7,4.8-4.3,7.9-2.2c0.6-0.8,1.2-1.6,1.9-2.4c1.7,2.5,4.5,2.6,6.4,4.6c0.2-0.3,0.4-0.5,0.6-0.8
 	c-0.6-1.3-1.2-2.6-1.6-3.5c1.3-1.3,2.3-2.4,3.4-3.6c2,0.7,1.8,3.3,3.2,4.9c3.5-0.2,2.8-3.6,4.4-5.9c0.7,1.2,1.3,2.2,2,3.5
 	c0.1-1.5,0.2-2.9,0.3-4.2c2.8-0.5,0.8,4.1,3.9,3.1c0-1.4,0-2.7,0-4.6c2.8,1.1,4.9,2.4,6.6,4.9c0.2-1.4,0.5-2.7,0.7-4.1
 	c4.4-0.5,5.4-0.1,7.1,3.1c3.4-1.7,5.3-1.2,9.1,1.5c1.6,1.1,3.7,1.5,6.1,2.5c-1.5,1.2-2.5,2.1-4.3,3.5c3.4-0.8,6.2-2.4,8.8,0.5
 	c-0.1,0.8-0.3,2.1-0.4,2.9c1,1,2.3,1.8,2.5,2.8c0.4,1.7-0.6,3.1-2.1,4.1c-5.6,3.5-8.7,4.1-16.6,2.8c0.6,0.5,0.8,0.7,1.1,0.8
 	c0.4,0.2,0.8,0.2,1.7,0.4c-2.5,2.7-5.7,2.5-8.6,3.4c3.7-0.5,7.4-1.1,11.4-1.7c-1.2,3.1-4.1,3.6-6.3,4.8c-3.8,2.2-7.9,3.7-11.9,5.6
 	c-1.3,0.6-2.7,1.1-3.9,1.7c0.2,0.2,0.7,0.5,1.1,0.8c-3.4,4.1-3.4,4.1-7.2,1.7c-0.2,0.7-0.5,1.3-0.7,1.9c-3.3,0-6.5,0-10,0
 	c0.5,0.7,1.1,1.4,1.8,2.5c-0.8,0.3-1.6,0.6-2,0.8c1.2,1.1,2.5,2.3,3.8,3.4c-2.4,5.2-3.4,6-7.5,5.6c0.6,0.7,1.1,1.3,1.9,2.3
 	c-2.3,0-4.3,0-6.6,0c-0.2,4.1-3.1,5.2-6.3,6c-0.3,1-0.6,2.1-1,3.4c0.9,0.2,1.7,0.4,2.8,0.6c-0.9,5.4-6.3,3.3-8.7,5.9
 	c-1-1.8-1.7-3.2-2.7-4.9c-1.6,3-3.5,1.1-4.7,0.2c-2-1.3-2.8-0.8-3.7,1.3c-3.2-1.7-6.5-3.3-9.8-5c1.6-4.6,3.3-5.5,10.4-5.3
 	c-0.2-2.1-0.5-4.2-0.7-6.2c3.6-1.2,4.1-1,4.7,1.8c0.2,1-0.5,2.6,1.4,2.8c1.1,2,2.6,1.6,5.1,0.5C343.1,63.6,341.8,63.3,340.5,63z"/>
 <path d="M300.9,117.6c2,0.7,3.5,1.3,5.5,2c-0.7-3.9-4.4-3-6.2-5.6c1.7-2.9,3.2-6.3,5.4-9.2c2.1-2.7,4.7-5,7.3-7.1
 	c3-2.5,6.4-2.6,10.6-0.5c-1.3,0.8-2.1,1.3-3,1.8c-5,2.7-6.5,7.7-8.2,12.5c-0.2,0.6,0,1.5,0.1,2.2c0.3,1.8,0.6,3.6,0.9,5.6
 	c2.9-2,2-4.6,0.7-7.6c1.4-0.7,2.6-1.4,4.2-2.2c-2.1-2.9-1-4.5,1.8-6.4c3.2-2.2,8.1-4,11.9-3.2c0,4.9-1.2,9.4-4.9,14.3
 	c3.1-1.2,5-3.1,7.5-1.8c0.2,0.1,0.7-0.2,1.1-0.4c1.1-0.5,2.4-1.7,3.4-1.5c1.6,0.4,3.1,1.6,4.5,2.7c0.4,0.3,0.6,1.7,0.3,2
 	c-2.2,2.1,1.7,1,1.3,2.5c-0.8,0.8-1.6,1.5-2.4,2.3c1.8,0.6,3.6,1.1,5.5,1.7c-0.6,0.8-1.2,1.6-1.7,2.4c1-0.9,2-1.8,3.4-3.1
 	c0.8,1.6,1.4,2.8,1.9,3.9c-1.3,1.6-3.8,0.1-4.2,2.6c1.7,1.5,3,0.4,4.6-0.7c0.2,0.9,0.3,1.7,0.6,2.8c1.7-0.1,3.9-0.8,4.5,2.4
 	c-1.4,0.8-3.1,1.7-4.9,2.6c1.8-1.8,3.6,3.3,5.3-1.1c0.6,1.6,1,2.7,1.4,3.8c-1.5,0.4-2.7,0.8-4.5,1.3c1.9,1.1,3.2,1.8,4.5,2.5
 	c-0.1,0.3-0.2,0.6-0.2,0.9c-1.3-0.2-2.6-0.4-4-0.6c0.6,2.3,0,3.9-3.3,3.9c4.5,2.3,5.6,7.1,9.8,8.4c0.2,0.1,0.3,0.7,0.4,1.2
 	c0.6,2.2,2.3,3.6,4.9,4.5c0.8,0.3,1.5,1.3,2.2,2c-2.9,2.5-5.5,4.8-8.8,7.6c0,0.2-0.3,1.5-0.6,3.2c-1.2-1-2.8-1.7-2.9-2.6
 	c-0.3-3.7-2.9-6.1-4.8-9.7c-0.8,1.5-1.4,2.8-2.2,4.3c-0.5-0.2-1.3-0.6-2.1-0.9c-0.1,0.1-0.2,0.3-0.1,0.4c1.1,2.5,1.6,5.5,3.3,7.4
 	c2.2,2.5,2.5,5.5,3.2,8.4c0.3,1.4-1.4,3.3-2.5,5.5c-3.6-2.7-6.7-4.9-10.5-7.7c0.9,5.1,6.2,7.2,5.6,12.6c-2.4-1.2-4.7-1.9-6.6-3.2
 	c-2.4-1.6-4.6-3.6-6.9-5.5c-0.4-0.4-1.1-1.2-0.9-1.4c2-3.6-2.5-4.8-2.8-7.6c-0.1-0.5-1.6-1.5-2-1.4c-2.2,0.9-4.5-1-6.6,0.4
 	c-0.5,0.3-1.3,0.5-1.7,0.3c-1.1-0.5-2.5-1.1-3.1-2.1c-0.4-0.6,0.4-2.1,1-3c0.7-0.9,1.8-1.5,2.9-2.4c3.4,3.5,7.2,0.9,11.1,0.9
 	c-0.3-1.5-0.6-2.8-1-4.3c2.7-2.2,5.6-4.5,8.7-7.1c0.1-0.9,0.3-2.2,0.4-3.6c0.2-3.2-0.4-3.6-3-6.8c-2.6-3.1-4.4-6.9-5.9-10.7
 	c-0.3-0.8,0.4-2,0.4-2.4c-1.3-1.7-2.3-3.1-3.3-4.5c-0.1,0.1-0.6,0.5-1.4,1c0.4,0.7,0.9,1.4,1,2.1c0.1,0.8,0.2,1.9-0.3,2.4
 	c-0.5,0.5-2.1,0.6-2.3,0.3c-1.8-2.2-4.4-0.9-6.5-1.5c-3.6-1.1-7.6-1.3-10.6-3.1c-1.7-1.1-3.4-2.1-5.3-3
 	C300,122.8,299.9,120.2,300.9,117.6z M337.1,167.1c-0.8,1.3-1.5,2.5-2.3,3.9C339.1,170.9,339.2,170.7,337.1,167.1z"/>
 <path d="M243,81.5c0.7,3-1.9,4-3,5.7c2.5,1.8,3.1-1.5,5.3-1.8c1.1,0.9,2.4,2,4.1,3.3c-1.7,1.3-2.7,2-4.1,3c2.1,0.3,4,0.5,6,0.7
 	c0.4-1.5,0.8-2.9,1.3-4.7c3.8,5-1.5,9.3-0.5,13.8c2.2,0,2.4-1.4,2.9-2.9c1.3-4.1,2.9-8.1,4.5-12.4c1.6,0.6,2.8,1,3.8,1.3
 	c1.8,2.7,1.5,5.1,0.4,7.8c-1,2.4-1.2,5.1-2.1,7.6c-0.4,1.4-1.4,2.5-2.6,4.4c1.5,2.8,3.1,6.2,5.1,9.1c1.2,1.8,1.2,2.9-0.4,4.5
 	c-2.3-1.8-4.9-1.8-7.4-0.2c0,0.3-0.1,0.7,0,0.8c1.2,0.6,3.3,0.5,2.5,2.5c-0.3,0.9-1.9,1.8-3,1.9c-4.3,0.5-8.4-2.5-9.4-6.6
 	c-6.7,3.5-13.6,5.2-21.1,3.3c-2.2-2.2-0.3-4.1,0.6-6c-2-2.3-6.3-0.9-6.8-4.6c-0.2-1.7,0.1-3.4,0.1-5.3c4.1-0.6,7.5-0.7,10.9,1.1
 	c1.8,0.9,3.9,1.2,6.6,1.9c-1.6-4-3.5-6-7.3-6.3c-2.6-0.2-5.2-1-8-1.6c-0.1-1.5-0.1-2.8-0.2-4.4c3.2-0.4,6.1-0.8,9.7-1.2
 	c-0.9-0.5-1.2-0.9-1.6-1c-3.2-0.7-3.2-0.6-6.9-3.7C228.1,85.7,234.8,82.2,243,81.5z M251.6,121.4c0.1-0.3,0.1-0.5,0.2-0.8
 	c-0.8-0.1-1.6-0.2-2.4-0.2c0,0.2,0,0.3-0.1,0.5C250.1,121,250.9,121.2,251.6,121.4z"/>
 <path d="M1074,480.5c-1.2,1.1-2.1,1.8-3.3,2.9c3.7,4.1,7.4,8.2,11.3,12.5c-2.8-0.4-5.4-0.7-7.9-1.3c-1.2-0.3-2.2-1.3-3.2-2.1
 	c-2.3-2-3.4-5-6.6-6.4c-2.4-1.1-4.1-1.2-5.9,0.7c-0.6,0.6-1.3,1.2-2,1.8c0.5,1.8-0.3,3.5-1.6,3.1c-3.3-1.1-8,0.7-9.4-4.5
 	c-2.5,0.2-4.7,0.4-7.2,0.7c-0.2-2.6,1.5-3.1,3.4-3.4c-1.5-5.5-4.3-9.2-10.2-10.3c-2.8-0.5-5.4-2.3-8.7-3.9c-0.2,0.5-0.7,1.6-1.3,3.3
 	c-1.3-2.6-2-4-2.8-5.6c1.8-0.5,3.7-1,5.6-1.5c-3.6-0.8-7.7-0.1-8.7-5.2c3-2.8,3-2.8,9.4-0.7c0.3,3.4-0.2,7.6,4.5,9.1
 	c2.6-2.2,5.2-4.5,8.1-7c7.9,2.9,15.9,5.6,23.8,8.7c2.2,0.9,5.2,1.9,5.4,5.3c0,0.4,1.1,0.8,1.8,1.1
 	C1070.1,478.8,1071.8,479.5,1074,480.5z"/>
 <path d="M937.8,450.8c1.5,0.5,3.1,1,4.8,1.5c1.5-2.6,2.6-5.6,6.1-5.9c2.8-4.5,7.7-6.9,11.2-10.5c1.2-1.2,1.4-3.3,3.9-3.8
 	c1.7,2.4,3.7,4.9,7.1,6.1c-3.2-0.6-2.6,2.8-4.6,3.8c-2.3,1.2-1.4,4.1,0.3,6.2c-1.4,3.1,2,3.8,3.5,6.2c-3.8-0.7-4.8,1.4-5.4,4
 	c-0.3,1.2-1.3,2.3-1.9,3.5c-0.6,1.3-1.1,2.6-1.4,4c-0.8,2.9-1.5,5.9-5.5,6.3c-2.2-2-4.7-3.8-8.1-2.3c-0.4,0.2-1.2,0.3-1.3,0.2
 	c-1.6-2.5-4.4-1-6.6-2.2c-0.3-1.2-0.9-2.5-0.8-3.7c0.2-1.4-0.2-2-1.2-3C934.8,458,934.8,454.3,937.8,450.8z"/>
 <path d="M720.9,500.6c0.7,2,1.5,4,2,6c0.4,1.6,0.4,3.2,0.6,4.8c0.2,1.7-0.7,2.1-1.7,1.9c-1.4,4.6-2.5,9.2-4.1,13.7
 	c-2,5.9-4.2,11.8-6.5,17.6c-1.9,4.7-8.2,6.3-11.7,3.1c-0.3-0.3-0.6-0.6-0.9-1c-1.6-2.1-1.7-10.9-0.2-13.1c0.8-1.2,1.6-2.5,2.4-3.7
 	c1.2-1.7,1.3-3.4,0.6-5.5c-0.6-1.7-0.8-3.8-0.4-5.6c0.6-3.1,3.1-4.5,6-5c4.2-0.8,7.1-2.7,9.1-6.7c1-2.1,3.1-3.9,3.8-6.5
 	C720.3,500.6,720.6,500.6,720.9,500.6z"/>
 <path d="M701.9,135.5c-1.9,2.2-4.6,1.7-6.8,1.2c-1.6-0.4-4.2-0.1-4.3-3.4c0-1.2-1.8-3.3-4.1-1.9c-1.8,1.1-2.6-0.4-3.1-1.5
 	c-0.6-1.2-1.4-2.8,0.9-3.6c1.7-0.6,2-2.4,1.1-3.3c-2.6-2.5-0.6-4.6,0.4-6.4c1.2-2.1,0.5-3-1.1-4c0.9-2.2,1.9-4.3,2.6-6.5
 	c0.4-1.1-0.6-4.1-1.4-5.4c1.1-0.8,2.3-1.6,3.4-2.4c0.3-0.2,0.8-0.7,0.7-0.9c-0.7-3,1.7-4.3,3.3-6c0.8-0.8,1.4-1.7,2.2-2.5
 	c0.7-0.7,1.4-1.6,2.2-1.7c3.9-0.5,7-1.6,8.4-5.9c0.6-1.9,2.4-3.2,4.6-2.7c2.3,0.4,3,2.4,3.2,4.3c0.1,0.8-0.5,2-1.1,2.7
 	c-0.9,1-2.1,1.7-3.2,2.4c-4.6,3-7.8,7.1-10.1,12c-0.3,0.5-0.3,1.4-0.7,1.6c-4.5,2.4-3.5,6.8-4.1,10.6c-0.3,1.7-1.6,3.2-1.8,4.8
 	c-0.6,7.4,1,13.9,8.4,17.6C701.6,134.7,701.7,135.1,701.9,135.5z"/>
 <path d="M336.2,31c-1.3-1.4-2.6-2.8-4.6-4.9c2.8-0.5,4.8-0.9,6.9-1.2c-0.2-1.2-0.4-2.5-0.5-3.7c2.1-0.5,4-0.9,6.6-1.6
 	c-1.6-1.2-2.5-2-3.7-2.9c1.7-0.7,3-0.9,3.9,0.4c0.7,1,1.2,2.3,1.2,3.5c0,2.4-0.4,4.7-0.7,6.9c1.7,1.2,3.1,2.2,4.7,3.3
 	c-1.2,2.6-0.4,6.1-3.5,7.6c0.8,1.2,1.8,2.3,2.3,3.6c0.6,1.8,0,3.4-2.1,3.6c-3,0.3-5.2,1.7-6.9,4.4c-0.5-0.7-0.8-1.1-1.3-1.8
 	c0.6,3.8-3,3.7-4.2,6c-0.6-1.3-0.5-2.3-2.2-1.5c-2.4,1.2-5.2-0.7-5.2-3.4c0-1.4,0.6-2.8,1-4.2c0.8-3.1,1-3.1,4-2.3
 	c0.9,0.3,1.9,0.3,3.5,0.5c-1.2-2.2-2.7-2.9-4.3-3.6c-3.1-1.2-3-1.2-1.5-4.4c0.8-1.7,0.9-3.7,1.4-5.5c1.9,0.7,3.4,1.2,5,1.7
 	C336.1,31.4,336.2,31.2,336.2,31z"/>
 <path d="M223.2,66.4c3.1,0,5.9,0,9,0c2,1.8,3.4,4.8,7.3,4.4c0.7-0.1,1.9,1.8,2.2,2.9c0.4,1.8,0.1,3.8,0.1,6
 	c-3.9,1.1-7.9,2.2-11.9,3.4c-1.2,0.4-2.3,1.1-3.4,1.7c-0.9,0.5-1.6,1.6-2.5,1.7c-2.2,0.3-3.3,1.8-4.4,3.4c-1.2,1.7-2.2,3.7-4.7,1.5
 	c-0.2-0.2-1,0.3-1.5,0.5c-1.2,0.4-2.4,0.8-3.4,1.1c-0.4-3.2-0.8-6-1.2-9.3c0,0,0.5-0.6,1.1-1c4.5-2.8,7.2-7.6,11.4-10.7
 	c0.6-0.4,0.9-1.4,1.1-2.2C222.8,68.9,223,67.7,223.2,66.4z"/>
 <path d="M1022.4,281.2c4.9-1.1,6,2.4,7.3,5.1c1.3,2.7,1.5,5.6,0,8.4c-0.3,0.6-0.9,1.4-0.7,1.9c0.7,3.7,1.6,7.5,2.3,11.2
 	c0.3,1.7,0,3.3-2.3,3.8c-0.2-0.9-0.4-1.7-0.7-2.9c-2.6,3.3-5.3,6.2-9.4,4.7c-0.8,2.2-1.5,4.2-2.2,6.3c-3.8-0.4-3.1-3.3-3.7-5.9
 	c-4.5,1.8-8.8,3.5-13.4,5.3c4.3,2.6,4.9,6.1,2.6,11.8c-1,0-1.9,0-3.5,0c0-1.5,0.1-3.1,0-4.6c0-0.9-0.1-1.8-0.5-2.5
 	c-0.1-0.3-1.1-0.2-2-0.3c0-0.1-0.3-0.8,0-1.2c2.5-3.5,4.8-7.5,7.9-10.4c1.8-1.6,5.2-1.5,8-2.2c0.5-0.1,1.1,0,1.9,0
 	c0.6-2.7,1.1-5.2,1.6-7.6c0.8,0.2,2,1,2.9,0.7c1.2-0.4,2.5-1.4,2.9-2.5c1.6-4.5,4-9,1.3-14.1C1022,284.9,1022.5,282.9,1022.4,281.2z
 	"/>
 <path d="M925,467.7c-0.4,3.2-0.7,6.5-1.1,9.7c-5.1,2.5-8-1.6-11-4.3c-3.7-3.3-6.4-7.4-8.7-12.1c-3.6-7.1-7.6-14.3-14.6-19.1
 	c-1.6-1.1-3.4-2.4-3-5c2.6,0.4,4.9,0.7,7.1,1.1c0.4,0.1,0.9,0.4,1.1,0.7c3.5,4.7,8.5,7.6,13,11.1c1.7,1.3,2.9,3.1,4.4,4.7
 	c0.3-0.3,0.8-0.7,1.8-1.5c-0.1,2.2,0.7,3.5,2.6,3.6c-0.2,1.6-0.4,2.8-0.6,4.3c2,0.7,3.6,1.3,4.2,3.6c0.6,2.2,3.1,2.4,5,3.3
 	L925,467.7z"/>
 <path d="M530.2,220.1c1.7-0.1,3.1-0.2,5.1-0.4c-1.1,1.6-1.8,2.8-2.9,4.3c2.4,0.2,4.2,0.3,6.7,0.5c-1.3,2.7-2.3,5.1-3.6,7.8
 	c4.5,0.1,3.8,5,6.3,6.8c3,2.2,3.1,5.5,4.7,7.9c1.4,0.4,3.4,0.4,4,1.4c1.7,2.5-1.6,3.8-2.1,6c0.5,0.4,1.1,0.8,1.6,1.2
 	c-0.1,0.2-0.1,0.7-0.3,0.7c-1.5,0.6-3,1.3-4.5,1.6c-2.9,0.5-6.2,0-8.8,1.1c-2.4,1-4.7,1.8-7.3,2.1c1.8-2.4,2.9-5.6,6.8-5.5
 	c-2.1-0.8-4.3-1.6-6.8-2.5c2.2-1.4,5.1-2.5,2.6-6c1.4-0.5,2.5-1,3.6-1.4c2.6-2.9-1.3-4.8-1.3-7.4c-1.3-0.1-2.6-0.1-4.2-0.2
 	c1-2.6,0.6-4.4-1.3-6.4c-2.1-2.2-0.9-5.3-0.2-8C528.7,222.5,529.5,221.5,530.2,220.1z"/>
 <path d="M314.5,69.7c-1.6-0.7-3.2-1.4-4.8-2.1c-0.2-1.1-0.3-2.2-0.5-3.3c-0.2-1-0.4-2-0.7-2.9c4.1-1.7,6.3-0.2,8.1,5.3
 	c1.2,0.1,2.5,0.2,3.8,0.3c0.7,1.8,1.5,3.5,2.3,5.6c-1.4-0.3-2.7-0.6-4.1-0.8c-0.2,0.5-0.5,1.1-0.8,2c0.5,0.4,1.8,0.9,1.9,1.7
 	c0.7,3.5,4.7,3.2,6.3,5.5c0.1,0.2,0.8,0,1.2-0.1c3.9-1.3,7.8-0.5,11.7-0.1c1.2,0.1,2.6,1.6,3.4,2.8c0.8,1.3,1.6,3.1-0.8,4.1
 	c-0.2,0.1,0.4,1.5,0.1,1.9c-0.5,0.6-1.6,0.8-2.1,1.4c-1.8,2.1-4.1,1.1-6.2,1c-0.7,0-1.3-1.7-1.8-2.6c-0.7,0.3-2,1.5-3.1,1.3
 	c-3.6-0.6-7.2-1.6-10.8-2.5c0-0.8-0.1-1.6-0.2-2.5c-1.3,0.3-2.4,0.9-3.5,0.7c-1.3-0.2-1.4-2.6-3.3-2.3c0.4-2.1,0.2-4.5,1.3-6.3
 	C314.1,74.3,314.4,74.4,314.5,69.7z"/>
 <path d="M255.3,56.5c-0.3-0.4-0.7-0.9-1.4-1.8c2.8-0.9,4.6-3.8,8-2.8c0.8,1-0.5,3.4,2.1,3.4c0.3,0,0.8,2.6,0.9,4
 	c0.2,1.4,0,2.8,0,4.5c1.5,0.3,3.1,0.7,4.6,1c2.6-0.8-1-3.4,1.6-4.4c2.4-0.8-0.2-3,1-4.8c1.2-0.8,2.8-1.9,4.4-3.1
 	c0.2,0.2,0.4,0.3,0.6,0.5c-0.6,2.2-1.6,4.3-1.7,6.5c-0.1,1.5,1,3.1,1.8,5.4c1-1.6,1.5-2.4,1.9-3.1c2.3,1.1,2.7,2.4,1.6,3.8
 	c-1.6,2-3.2,4-5.3,5.3c-1.2,0.7-3,1.6-5.2,0.2c-2.5-1.6-6-1.1-8.7,0.5c-2.5,1.4-4.9,1.1-7.4,0.8c-1.9-0.2-2.9-1.4-2.2-4
 	c3-0.3,6.2-0.5,9.4-0.8c-2.8-0.4-5.3-2.3-8.5-1.6c-2.2,0.5-4-1.4-5.5-3c-0.9-1,0.2-2.6,1.8-2.7c1.4,0,2.8,0.1,4.5-0.6
 	c-0.9-0.5-1.8-0.9-3.6-1.9C252.5,57.3,253.9,56.9,255.3,56.5z"/>
 <path d="M1129.9,660.5c-3.5,0.4-6,2-7.8,5.5c-2,3.7-4.7,7.1-8.4,9.5c-2.5,1.6-3.1,1.5-5.4-0.5c-1.2-1-2.5-1.8-4.1-2.9
 	c2.7-5.3,6.6-9,12-12.2c4.3-2.6,9.8-4.3,12.1-10c1.1-2.8,4.1-4.9,6.5-7.6c0.4,0.8,0.6,1.9,1.3,2.4c0.6,0.6,1.6,0.7,2.6,1.1
 	c0.5,2.3-0.1,4.3-2.1,6c-1.9,1.6-3.7,3.4-5.3,5.3C1130.4,658,1130.3,659.3,1129.9,660.5z"/>
 <path d="M580.6,79.7c-0.2-1.2-0.3-1.9-0.4-2.6c-3.5,0.1-0.5,4.9-4,5.2c-2.9-2.5-4.9-5.6-4.8-10c-0.7,0-1.9,0-1.9,0
 	c-0.1-1.6-0.1-3.3-0.1-4.5c2.3-0.7,3.9-1.2,6.4-2.1c-1.1,1.3-1.6,2-2.3,2.8c0.6,0.4,1.2,0.8,1.8,1.2c0.7-0.9,1.4-1.8,2.5-3.2
 	c1,2.8,1.9,5.1,2.7,7.4c0.1-0.1,0.2-0.1,0.3-0.2c-0.3-3.2-0.6-6.3-0.9-9.9c3.8,1.3,5.4,3.6,7.2,6.1c1.6,2.3,4,4,6.3,6.3
 	c-3.1,0.5-3.9,2.5-4.2,5.5c-0.4,4.2-1.9,8.2-2.8,12.3c-0.3,1.2-0.3,2.5-0.4,3.6c-3.3,0.1-2-3.4-4.3-4.3c-1.9-0.7-3.9-2.3-3.8-5.3
 	c1,0.1,1.9,0.2,3.2,0.3c0.2-0.6,0.2-1.4,0.5-2c0.3-0.5,1-0.8,1.3-1.6c-1.8,0.4-3.7,0.9-5.5,1.3c-1.7-2.8,1.3-2.5,2.2-3.4
 	c1.1-1.1,2.4-2,3.7-3.1c-0.1-0.5-0.2-1-0.4-1.9C582.2,78.5,581.6,79,580.6,79.7z"/>
 <path d="M478.5,187.4c1.1-0.8,1.8-1.4,2.5-1.9c-0.1-3.1-2.5-3.3-4.4-4.6c1.5-0.2,3-0.5,4.6-0.7c0.2-0.7,0.4-1.4,0.7-2.6
 	c-2-0.1-3.9-0.2-5.9-0.3c0.5-3.1,3.4-4,5.5-4.1c3,0,2,3.3,2.3,5.2c2.9,0.1,3.5-1.5,3.2-4.3c0.9,0.9,1.3,1.4,2,2.2
 	c0.5-0.7,0.7-1.7,1.3-1.9c1.1-0.3,2.4-0.2,3.6-0.1c2.8,0.1,2.8,0.1,4.9-1.7c3.4,0.3,4,3.7,5.9,5.7c0.6,0.6,0.3,2.5-0.1,3.6
 	c-0.5,1.2-1.5,2.3-2.6,3c-3.3,1.9-6.8,3.6-10.3,5.1c-1,0.4-2.3,0.5-3.4,0.2C485.1,189.4,482.1,188.5,478.5,187.4z"/>
 <path d="M1145.3,632.5c0.2-1,0.2-1.7,0.5-2.1c3.1-5.1,1.8-10.4,0.6-15.7c-0.2-1-0.8-2-0.8-3c0-0.7,0.7-1.4,1.2-2.1
 	c0.5,0.4,1.1,0.7,1.6,1.1c2.7,2.4,1.1,5.4,0.9,8.1c-0.1,1.6-0.4,2.9,1.3,3.9c0.4-0.5,0.7-1.1,1.1-1.7c2.7,8.6,3.1,7.3,7.6,5.6
 	c0.4,3.8-1.1,6.1-4.8,8c-1,0.5-2.1,1.3-2.4,2.2c-1.7,4.4-5,8.5-9.5,11c-0.4-0.5-0.8-1.1-1.3-1.7c0-0.2,0-0.5,0.2-0.7
 	c0.7-0.8,1.4-1.5,2.1-2.4c1.8-2.4,1.7-3.3-0.3-5.4c-0.3-0.3-0.7-0.6-1-0.9c-1.7-1.9-1.4-2.8,1.1-3.8
 	C1143.9,632.8,1144.5,632.7,1145.3,632.5z"/>
 <path d="M284.4,94.9c4.3,2,4.8,4.5,2.9,7.5c-1.7,2.6-2.9,5.3-6.7,5.4c-0.7,0-1.4,1.7-2.4,2.9c-3.2-3.8-1.3-9.3-5.8-11.7
 	c1.1-2-1.4-5.7,3.3-6c0.9,1.4,1.7,2.7,2.8,4.5c0.9-1.8,1.7-3.2,2.4-4.6c-0.6-0.7-1.2-1.5-1.7-2c-0.2-1.9,2.7-0.7,2.1-2.9
 	c0-0.2,1.9-1.5,2.7-1.3c2.6,0.6,5,1.7,7.5,2.6C290.5,92.4,288,93.7,284.4,94.9z"/>
 <path d="M1003.2,209.1c3-1.4,1-3.2,0.4-5.4c1.1,1.4,2.4,2.6,3.3,4.1c1.2,2,2.8,4,3.1,6.2c0.3,2.6,1.6,4.3,2.9,6.3
 	c2.7,4.1,5.2,8.3,7.9,12.7c-1.3,0.4-2.2,0.7-3.1,1c-0.6,6.4,1.4,11.6,6.3,15.9c-1.1-0.1-2.2-0.2-3.5-0.3c-0.1,1-0.1,2-0.2,3.1
 	c-0.4-0.3-1-0.4-1.1-0.7c-0.6-2.1-1.2-4.2-1.8-6.2c-1.3-4.7-2.5-9.4-4.1-14c-1.5-4.1-2.5-8.5-5.7-11.9c-1.1-1.1-1.6-2.8-2.1-4.3
 	C1004.6,213.7,1004.1,211.7,1003.2,209.1z"/>
 <path d="M900.8,38.2c0.8,2.8,3.5,2.3,5.8,3.3c-2,0.9-3.9,1.4-5.4,2.4c-1.3,0.9-2.3,2.5-3.8,4.2c-3.3,0.6-7.1-1.4-9-4
 	c-2.1-2.9-5.9-6.5-2-11.4c2.5,1.4,5.2,2.8,8.1,4.5c-0.5-1.5-1-2.7-1.6-4.3c1.6-0.3,3.1-0.6,3.8-0.8c1.7,2.5,2.9,4.4,4.1,6.2
 	L900.8,38.2z"/>
 <path d="M992.3,451.9c-0.9,3.6-2.7,4.8-5.8,4.5c-2.8-0.3-5.6-0.3-8.4-0.3c-1,0-2.5,0.4-3,1.2c-0.9,1.3-0.6,2.8,0.5,4.1
 	c0.5,0.5,0.8,1.3,0.8,1.2c3.9-1.2,6.9-2.1,10-3c0.1,0.3,0.2,0.5,0.3,0.8c-2.2,1.6-4.5,3.2-6.6,4.7c1.4,2.7,2.7,5.2,4.2,8
 	c-1.1,0.6-2.4,1.4-3.9,2.2c-0.7-1.4-1.5-2.6-2-3.9c-0.4-1.1-0.4-2.4-0.6-3.7c-1.9,1.3-1.9,1.3-2.6,9.8c-0.8,0.2-1.6,0.3-2.4,0.5
 	c-1.9-2.7,3.1-7.2-3.1-8.2c1.4-3.8,2.6-6.9,3.8-10c0.2-0.4,0.2-0.9,0.3-1.3c0.7-3.7,3.2-5.4,6.9-4.7c1.2,0.2,2.4,0.3,3.6,0.5
 	C987.1,454.7,990,454.7,992.3,451.9z"/>
 <path d="M774.5,39.8c-3.2,4.2-6.8,1.1-9.7,1.7c-4.1,0.9-5.3-3.4-8.6-3.5c-0.1-2-0.8-4.3-0.1-5.8c0.8-1.7,2.9-2.8,4.1-3.8
 	c2-0.5,3.2,2.4,5,0.1c0.1-0.2,2.3,1,3.3,1.7c0.7,0.5,1.2,1.4,1.4,2.2C770.8,35.2,771.5,38.1,774.5,39.8z"/>
 <path d="M310.2,92.6c-3.1,2.9-5.8,5.4-8.5,8c-2,2-3.8-0.1-5.5-0.6c-1.8,4.5-3.2,5.6-6.8,5.4c1.3-3.5,2.3-7,3.8-10.3
 	c1-2.2,2.4-4.5,4.2-5.9c1.2-1,3.7-1,5.4-0.5C305.1,89.4,307.1,91,310.2,92.6z"/>
 <path d="M352.4,267.4c5.4-5.5,6.4-14,13.6-17.9c0.3,3.8-3.6,4.8-3.9,8c0.9-0.3,1.7-0.6,2.9-1c-0.2,1.1-0.3,1.8-0.4,2.4
 	c2,2.5,4.7,0.5,7.1,0.9c-0.3,1.7-1,3.3-0.8,4.7c0.3,2.3-2,2.2-2.6,3.5c-1.1,2.1-2.1,0.1-3.1,0c-3.6-0.3-7.3-0.4-10.9-0.6
 	C353.5,267.5,352.9,267.5,352.4,267.4z"/>
 <path d="M1037.1,267.1c-3,1.9-6.8,2.3-5.9,7.3c-3.6-1.4-6.8-4.3-10.6-1.1c1.2,0.9,2.4,1.8,3.6,2.8c-1,0.8-1.8,1.4-2.9,2.2
 	c-0.5-1.1-0.7-2.4-1.4-3.1c-2.6-2.3,0.1-4,0.3-6c3.4-0.1,1.8-2.7,1.8-4.1c-0.1-2.7-0.9-5.4-1.4-8.3c1.7-0.2,2.6,1,3.6,1.9
 	c2.6,2.4,4.9,5,9.2,4.7C1034.4,263.4,1035.7,265.7,1037.1,267.1z"/>
 <path d="M513.3,252c0.8-1.4,1.7-2.8,2.4-4.3c0.4-1,1.1-1.9-0.3-3.1c-0.8-0.7-0.4-2.6-0.5-4.1c1.5-0.1,3.1,0.1,3.9-0.5
 	c0.8-0.6,0.9-2.2,1.5-3.6c1.8,0,3.7,0,5.8,0c1.4,1.7,2.7,3.4,0.4,5.7c-0.6,0.6-0.3,2.2-0.2,3.3c0.2,3.6-0.4,4.6-3.9,5.9
 	c-1.1,0.4-2.2,0.9-3.3,1.5C516.2,254.3,516.2,254.3,513.3,252z"/>
 <path d="M255.8,44.8c-3.6,2.7-6.2,6.5-11,8c0-1,0-2,0-2.4c-1.7-0.4-3.3-0.7-4.8-1.1c-0.1-0.3-0.2-0.7-0.3-1c1.2-0.9,2.2-2.3,3.6-2.7
 	c4.4-1.2,8.4-2.9,12.1-5.5c2.7-1.8,5.2-1.7,7.8,0.6c0.4-0.8,0.8-1.6,1.2-2.3c0.3,0.2,0.6,0.3,1,0.5c0,1.1,0.3,2.9,0,3
 	c-3,1-3.5,3.9-5.1,6c-0.3,0.4-0.9,0.7-1.4,0.9c-1.4,0.8-2.9,1.6-4.4,2.4C254.5,51.5,255.7,46.1,255.8,44.8z"/>
 <path d="M588.2,59.1c2.1,1.2,4.1,2.4,6.4,3.8c0-1.5,0-2.8,0-4.1c0.2-0.1,0.5-0.1,0.7-0.2c0.4,0.8,0.8,1.6,1.1,2.3
 	c1-0.3,2.1-1.1,3.1-0.9c1.9,0.3,3.7,1,5.5,1.7c0.4,0.2,0.9,1.4,0.7,1.9c-0.8,2-1.8,4-2.8,6c-0.1,0.3-0.8,0.2-1.2,0.4
 	c-1.1,0.5-2.2,1-3.7,1.7c-1.7-2.8-6.1-0.1-8.2-3.2c1.1-0.5,2.2-1.1,3.3-1.6c-0.1-0.2-0.1-0.5-0.2-0.7c-1.2,0.2-2.5,0.6-3.7,0.5
 	c-1.2-0.1-2.7-0.5-3.3-1.4c-0.4-0.6-1.5-2.8,1.2-3.2C587.6,61.9,587.8,60.1,588.2,59.1z"/>
 <path d="M296.6,157.6c-0.6,3.2,2,3.9,3.4,5.6c1.9,2.3,5,4,3.9,7.9c0.8,0.3,1.8,0.7,3.4,1.2c-1.1,1-2,2.4-2.6,2.3
 	c-1.3-0.2-3-0.1-3.5-2.1c-0.3-1.1-1.3-2-2-3c-2.2,1.9-4.1,3.7-6.1,5.4c-0.4,0.4-1.1,0.4-2.1,0.7c-0.2-2-0.4-4.1-3.7-4.4
 	c3.7-2.4,4.1-5.8,5.5-8.6C293.6,160.9,293.8,158.6,296.6,157.6z"/>
 <path d="M298.7,41.3c0.7-1.3,1-2.1,1.5-2.9c1,0.5,1.7,0.9,2.7,1.4c0.4-0.5,1-1,1.2-1.6c0.7-2.1,0.9-4.2-1.2-5.7
 	c1.6-2.4,1.6-2.4,6.1-1.8c0.3,1.1,0.6,2.4,0.9,3.7c0.7,0.2,1.6,0.3,2.2,0.5c0.9,1.5-0.8,3.4,1.2,4.7c0.4,0.2,0.2,2.5-0.5,3.1
 	c-1.6,1.5-2.2,3.5-2.8,5.4c-0.9,2.5-1.4,2.7-4.4,1.9c-0.1-2,1.8-3.9-0.4-6.1C303.4,42.1,301.4,41.8,298.7,41.3z"/>
 <path d="M1037.8,632.6c6.3,2.9,6.3,2.9,12.4,2.2c-0.3,6.7-4.2,10.9-9.6,14.2c-2.1-0.2-2.7-2-2.8-3.8
 	C1037.7,641.2,1037.8,637.3,1037.8,632.6z"/>
 <path d="M954.2,487.1c-0.4,0.6-0.8,1.2-1.1,1.8c-3.3-0.4-6.4-0.7-9.6-1.1c-1.7-0.3-3.4-0.9-5.1-1.2c-1.9-0.3-3.8-0.2-5.7-0.7
 	c-3.1-0.8-6.2-2-9.5-3.1c0.7-1.4,1.1-2.3,1.6-3.3c3.3,0.2,6.6-0.2,9.4,2.7c1.1,1.1,4.7,1.3,5.8,0.3c3.1-2.6,5.7-0.3,7.1,1
 	c1.8,1.7,3.3,2.6,5.6,2.7c0.5,0,0.9,0.7,1.3,1.1L954.2,487.1z"/>
 <path d="M288.3,66.2c0.7,0.5,1.5,0.9,2.4,1.5c0.7-1.7,1.4-3.2,2.5-5.6c0.8,2.2,1.4,3.9,2,5.5c0.2,0,0.5,0,0.7,0
 	c0.1-1.2,0.4-2.5,0.3-3.7c-0.1-1.4,0.1-2.6,1.5-2.8c0.8-0.1,1.8,0.5,2.7,0.9c0.4,0.2,0.6,1,1,1c2.9,0.6,3,0.7,1.8,2.8
 	c-1.6,2.9-3.2,5.9-5.9,8.1c-1,0.8-1.5,2.1-2.3,3.3c-1.6-0.4-3.2-0.8-5-1.2c0.2-1.1,0.3-2.1,0.5-3.1c1.4-0.6,2.8-1.2,5-2.2
 	c-2.9-0.5-5-0.9-7-1.3C288.3,68.6,288.3,67.6,288.3,66.2z"/>
 <path d="M780.4,49.7c-2.2-5.3-2.8-10.9-3.5-16.5c0.6-0.1,1-0.3,1.1-0.2c1.9,2.4,5.1,2,7.4,3.4c2.8,1.7,2.9,1.4,4.8,4.8
 	c-1,1-1.9,2.3-3.1,3.3C785.2,46.2,783.1,47.7,780.4,49.7z"/>
 <path d="M276.9,381.3c-1.8-1.1-4.5-1.1-5.1-3.8c-0.1-0.4-1.3-0.4-1.9-0.7c-3-1.6-6.8-0.9-9.6-3.5c-0.6-0.5-2.3-0.2-3.4,0.1
 	c-1.6,0.5-3.2,1.3-5.6,2.3c0.8-1.5,1-2.5,1.5-2.8c3.1-1.6,6.1-2.4,9.8-1.6c8.2,1.7,14.9,6.8,22.7,9.5c0.6,0.2,0.9,1,1.9,2.3
 	c-4.2,0.3-7.6,0.6-11.7,0.9C276.1,382.7,276.5,382.1,276.9,381.3z"/>
 <path d="M752,32.4c-3.5-0.4-4.7-2.5-5.8-5.8c-1.2-3.7,1.6-5.9,2.1-9.2c2.6,1.7,4.9,3.3,7.2,4.8c1,1.7,2.1,3.4,3.3,5.4
 	c-2.7,0.9-2.9,5.2-6.8,4.7L752,32.4z"/>
 <path d="M329.4,685.4c-1.9-1.1-3.7-2-5.6,0.3c-0.8-0.8-1.5-1.7-2.4-2.7c1.7-0.5,3.3-1,5.2-1.6c-0.7-0.5-1.4-1-2.4-1.8
 	c0.6-0.9,1.2-1.7,2.2-3.1c-1.5,0.3-2.3,0.5-3.2,0.6c-0.9-1.3-0.9-2.3,0.4-3.5c0.4-0.4,0.3-1.2,0.5-1.9c0,0-0.1,0.1-0.1,0.1
 	c2.4,0,4.5-0.2,5,3.4c0.2,1.7,2.8,3.3,4.6,4.5c1.7,1.1,3.8,1.7,5.9,2.5c-1.8,4.4-5.3-0.4-7.4,1.8c0.8,0.2,1.8,0.4,2.8,0.6
 	c0,0.2-0.1,0.4-0.1,0.6c-1.8,0-3.6,0-5.3,0L329.4,685.4z"/>
 <path d="M978.9,404.1c-1.2,1.8-2.6,1.9-3.5,0.7c-2.2-3.1-5-6-3.1-10.5c0.9-2.2,0.9-4.8,1.4-7.4c2,0.3,3.4,0.6,4.9,0.8
 	c0.4,1.1,1,2.3,1.1,3.5c0.2,1.4,0.5,3.4-0.2,4.2C976.6,398.3,977.7,401.1,978.9,404.1z"/>
 <path d="M994.2,422c2.2,1.8,2.6,2.6,3.5,9.2c-1.1-0.2-2.1-0.3-3.6-0.5c0.2,1.6,0.4,3.1,0.5,4.6c-4.9,0.3-5,0.3-5.7-4.3
 	c-0.2-1.5-0.9-2.1-2.4-1.9c-1.5,0.1-3,0.3-4.9-0.2c1.5-1.2,3-2.4,4.6-3.7c0.7,0.6,1.3,1.1,2.1,1.8
 	C990.3,425.3,992.3,423.6,994.2,422z"/>
 <path d="M307.6,388.9c-9.3,0.8-9.3,0.8-11.6,2.9c-2.4-3.1-6.3-0.9-9.2-2.9c2.1,0,4.1,0,6.6,0c-0.7-1.8-1.3-3.3-1.8-4.7
 	C297.4,382.9,302.7,384,307.6,388.9z"/>
 <path d="M343.4,109.9c-3.1-0.2-5.4-2.2-8-0.8c-0.3,0.2-2.3-1.3-2.3-2.1c0-2.3,0.5-4.6,0.9-7.5c3,1.4,6,2.1,7.8,3.9
 	C343.1,104.8,342.8,107.5,343.4,109.9z"/>
 <path d="M138.8,247.9c-1-0.5-2.1-0.8-2.7-1.5c-2.8-3.3-5.6-6.7-8.1-10.2c-0.6-0.9-0.3-2.4-0.4-3.7
 	C135.7,235.5,139.6,242.2,138.8,247.9z"/>
 <path d="M832.5,435c-2.4-4.5-2.5-7.8-0.4-12.1c3,1.3,6,5.8,5.8,8.5C837.6,434,836.1,435,832.5,435z"/>
 <path d="M277.1,131.4c-4.6,2.4-4.8,2.4-7.4-0.2c-0.6-0.6-1.1-1.4-1.8-2c-0.5-0.5-1.2-0.8-1.7-1.1c2.5-1.9,4.9-3.8,7.9-6.1
 	C275.1,125.2,276.1,128.2,277.1,131.4z"/>
 <path d="M318,40.6c1.4,2.5,2.5,4.6,3.8,6.9c-0.6,1.3-1.2,2.9-2,4.6c-0.8,0-1.7,0.2-2.6,0.1c-3-0.1-2.4-0.2-2.5-3.7
 	C314.7,45.4,315.4,43.2,318,40.6z"/>
 <path d="M272.8,42.9c2.4-5.1,5.6-5.7,11.6-2.4c-2.1,0.7-3.5,1.7-4.1,3.9c-0.6,2.1-3.5,2.4-5.3,1C274.1,44.8,273.6,43.9,272.8,42.9z"
 	/>
 <path d="M972.3,372.1c-4.7-3.4-4.1-9.7,1.7-13.3C974.8,363.6,974.1,367.8,972.3,372.1z"/>
 <path d="M900.9,38.3c-0.3-2-0.5-4-0.8-6.3c1.9,0.3,4.2,0.6,6.7,1c0.3,0.9,0.9,1.9,1.1,3c0.2,1,0.5,2.7,0,3.1
 	c-0.9,0.7-2.5,0.9-3.6,0.8c-1.2-0.2-2.3-1.1-3.5-1.7C900.8,38.2,900.9,38.3,900.9,38.3z"/>
 <path d="M912.4,33.2c3.5-0.4,6.4-1,9.3-1.1c1.1,0,2.3,0.9,3.3,1.4c-0.3,2.5-1.5,3.5-3.3,3.4C918.6,36.7,915.2,36.9,912.4,33.2z"/>
 <path d="M594.4,81.8c1.4-0.3,2.8-0.7,4.6-1.1c-0.2,2.4,0.1,4.4,4.2,3.2c-1.6,2.6-2.6,4.4-4,6.7c-0.3-1.5-0.5-2.2-0.7-3.1
 	c-1.1,0.6-2.2,1.1-4.2,2.1c1.3-3.1,0.8-5.4,0.2-7.7L594.4,81.8z"/>
 <path d="M305,84.5c-2.5-2.1-4.2-3.5-6.2-5.1c1.5-1.4,2.4-2.5,3.6-3.3c0.9-0.6,2.4-1.2,3.1-0.8c0.8,0.5,1.4,2,1.3,3
 	C306.7,80,305.9,81.6,305,84.5z"/>
 <path d="M919.2,57.6c-3,0.3-5.7,0.5-8.8,0.8c-0.1-2.1-1-4.2,1.5-5.4C913.7,52.2,917.5,54.5,919.2,57.6z"/>
 <path d="M1090.7,473.5c-1.7,3.1-3.4,5.7-6.5,6.5c-2.9,0.7-5.9,0.2-9-2.6c3,0,5.2-0.1,7.3,0c2.6,0.2,4.3-0.9,5-3.3
 	C1088.1,472.3,1089,473,1090.7,473.5z"/>
 <path d="M649,51c3.2-0.7,3.2-0.7,4.2-4.8c1.3,0.6,2.5,1.2,4,2c-1.8,2.3-3.6,4.2-4.2,7c-0.4,2.1-2.6,0.2-4.1,1
 	C649,54.2,649,52.7,649,51z"/>
 <path d="M397.6,138.9c1.1,1.7,2.2,3.4,3.4,5.2c-0.8,2.2-3.1,1.2-4.4,2c-2.9-2-3.4-4.4-2.2-7.7c1.1,0.2,2.2,0.4,3.3,0.6
 	C397.8,139.1,397.6,138.9,397.6,138.9z"/>
 <path d="M264.4,85c2-2.9,4.2-0.9,6.2-0.7c1,3.6,0.6,4.2-4.7,6.8C265.4,89.1,264.9,87.1,264.4,85z"/>
 <path d="M938.9,382.5c-1.2,1.8-2.1,3.6-3.5,4.9c-1.3,1.3-3.4,0.8-4.3-0.7c-0.8-1.5-0.7-2.8,0.8-3.9C934,381.3,936,380.5,938.9,382.5
 	z"/>
 <path d="M278.7,33.1c3.7-0.4,6.7-0.6,10-1c0,1.3,0.2,2.5,0,3.6c-0.5,2.3-2.1,2.9-4,1.6C282.9,36.2,281.3,34.9,278.7,33.1z"/>
 <path d="M574,310.8c-0.4-3.4-0.7-5.8-1.1-8.5c0.7-0.5,1.7-1.1,2.7-1.8c3.1,1.8,1.8,4.8,1.7,7.2C577.3,308.5,575.5,309.4,574,310.8z"
 	/>
 <path d="M332.5,145.4c-1.7,5.3-2.1,5.7-6.7,5.7c-1.4-2.7,0.9-4,2.2-5.6C329.1,144,330.7,143.9,332.5,145.4z"/>
 <path d="M597.2,313.8c-0.3,2.1-0.5,3.9-0.8,6.2c-3.1-1.6-5.9-3-8.8-4.5c0.1-0.3,0.2-0.6,0.2-0.8C591,314.4,594.1,314.1,597.2,313.8z
 	"/>
 <path d="M67.9,172.2c-1.8,3.9-5,4.3-7.6,5.4c-0.3,0.1-1.7-1.1-1.6-1.6c0.1-0.9,0.7-2.1,1.4-2.3C62.4,173,64.8,172.7,67.9,172.2z"/>
 <path d="M987.2,495.9c0.5-4.8,4-6.6,10.9-6c-1.9,0.8-3.8,1.4-5.5,2.3C990.6,493.3,989,494.7,987.2,495.9z"/>
 <path d="M485.7,132.3c-2.1-1.9-3.6-3.3-5-4.6c3-3.3,3-3.3,6.2-1.2C485.8,127.8,485.6,128.4,485.7,132.3z"/>
 <path d="M119.7,221.1c-1-3.9-1.6-7.3-0.6-10.8c3.3,1.2,3.4,1.4,2.6,3.9C121,216.3,120.4,218.4,119.7,221.1z"/>
 <path d="M313.1,55.2c3.8-2,5.9,0.1,8.1,2C318.7,59.3,316.4,58.8,313.1,55.2z"/>
 <path d="M38.4,119.9c-1.1,0.2-2,0.4-2.8,0.6c-1.9-1.3-0.6-5.9-5.1-4.7c0.3-0.6,0.6-1.2,0.9-1.8C35.5,113.7,36.7,116.7,38.4,119.9z"
 	/>
 <path d="M676.5,42.2c1.1-0.2,2.1-0.5,3.5-0.8c-1.3,2.7-1.3,2.7,0,5.4c-1.2,0.4-2.4,0.9-3.5,1.3c-2.1-3.5-2.1-3.8,0.1-6L676.5,42.2z"
 	/>
 <path d="M1006.2,324.2c-0.6-2.1-1.2-3.3-1.1-4.4c0.1-1.7,1.8-0.9,2.8-1.3c0.8-0.3,1.4-1.3,2.2-1.3c0.7-0.1,1.9,0.6,2.1,1.2
 	c0.2,0.6-0.6,1.5-0.9,2.2C1008.2,318.9,1007.8,321.9,1006.2,324.2z"/>
 <path d="M681.8,40.8c-2.9-2.6-2.9-3.5,0.1-7c0.8,1.3,1.6,2.4,2.4,3.7C683.5,38.5,682.8,39.5,681.8,40.8z"/>
 <path d="M684.3,148.1c-0.3,2.5-1.3,3.9-4.1,4.2c-0.2-1.6-0.5-3.2-0.9-5.6C681.6,147.3,683,147.7,684.3,148.1z"/>
 <path d="M645.3,52.6c-0.6-0.1-1.2-0.1-1.7-0.3c-0.4-0.1-0.7-0.4-1.1-0.7c0.1-0.5,0.1-1.1,0.3-1.3c1.6-1.2,2.5-4,5.3-2.7
 	C647.3,49.2,646.4,50.7,645.3,52.6z"/>
 <path d="M675.1,49.5c-1.9,1.7-3.3,2.9-5.5,4.8c-0.4-1.8-1.2-3.1-0.8-3.7c0.7-1,2.1-1.7,3.3-2.3C672.6,48.1,673.5,48.8,675.1,49.5z"
 	/>
 <path d="M344.2,277.1c-1.5-3,1.5-4,2.4-6.1c1.6,1.2-0.9,4.2,2.3,4.5c-1.6,0.5-3.3,0.9-4.9,1.4C344.1,277,344.2,277.1,344.2,277.1z"
 	/>
 <path d="M667.5,47.4c-0.2-3.6-3.2-3.6-5.6-4.8c3.4-1.3,5.4,0.2,7.8,1.7C668.9,45.3,668.2,46.3,667.5,47.4z"/>
 <path d="M1001.7,456.7c0-1.9,0-3.7,0-5.8c1.6,0.6,2.8,1.1,4.4,1.8c-1.2,1.5-2.4,3-3.6,4.4C1002.2,456.9,1001.9,456.8,1001.7,456.7z"
 	/>
 <path d="M980.3,404.8c2.2-2.2,2.2-2.2,7.7,5C985,407.8,982.8,406.4,980.3,404.8z"/>
 <path d="M1134.4,545.3c-3-2.2-5.4-4.3-6.8-7.9C1130.8,539.2,1133.4,542.2,1134.4,545.3z"/>
 <path d="M300.2,179.1c-2.1,1.6-3.4,4.1-6.5,2.6C295.6,178.3,295.6,178.3,300.2,179.1z"/>
 <path d="M1003.9,469.4c5.3-1.8,6.3-1.6,9.1,1.6c-1.8-0.3-3.3-0.6-4.8-0.9C1006.8,469.8,1005.3,469.6,1003.9,469.4z"/>
 <path d="M338.7,255.7c2.2,1.3,4.3,2.6,6.5,3.9c-3.3,0.6-5.7-0.4-7.2-3.1C338.2,256.2,338.4,256,338.7,255.7z"/>
 <path d="M17,189c1.5-2.8,3.5-3.1,5.8-3C22.6,188.1,22.6,188.1,17,189z"/>
 <path d="M969.7,489.7c-2.4,0.4-4.9,0.7-7.3,1.1c-0.6-2.2,0.8-2.7,1.8-2.1c1.6,0.9,1.8-0.7,2.7-0.9c0.9-0.2,2,0.6,3.1,1
 	C969.9,489.1,969.8,489.4,969.7,489.7z"/>
 <path d="M751.9,32.4c0.6,1.4,3.9,1.9,1.6,4c-1.4,1.3-3.2,0.2-4.6-1.1c-0.3-0.3-0.5-0.7-0.7-1.1c1.3-0.6,2.5-1.2,3.8-1.8
 	C752,32.4,751.9,32.4,751.9,32.4z"/>
 <path d="M832.8,72.9c0.8-0.4,1.7-0.8,3-1.4c0.5,1.5,1,2.7,1.5,4.3C834.5,76.3,832.8,76.1,832.8,72.9z"/>
 <path d="M661.8,324.3c-2.5,3.8-2.5,3.8-6.1,1.7C658.1,325.4,660,324.9,661.8,324.3z"/>
 <path d="M299.2,627.5c0-2,0-4,0-6.1c0.5-0.3,0.9-0.6,1.4-1c0.2,0.7,0.6,1.4,0.6,2.1c-0.1,1.7-0.3,3.4-0.5,5.2
 	C300.2,627.6,299.7,627.5,299.2,627.5z"/>
 <path d="M118.6,187.2c0.4-1.7,0.7-3.3,1.1-4.8c0.4,0,0.7-0.1,1.1-0.1c0.5,0.9,1.5,1.8,1.3,2.6C121.9,186.1,121.4,187.8,118.6,187.2z
 	"/>
 <path d="M373.6,268.6c-0.5,1.8-0.8,2.9-1.3,4.4c-1.1-0.7-2.2-1.1-2.7-1.8c-0.3-0.5-0.1-2.1,0.2-2.2
 	C370.8,268.6,372.1,268.7,373.6,268.6z"/>
 <path d="M972.4,489.6c3.2-2.7,5.6-0.9,8.8-0.7C978.2,490.7,975.7,490.2,972.4,489.6z"/>
 <path d="M34.9,145c-1.6,3.7-2.3,3.8-5.3,0.6C31.4,145.4,32.9,145.3,34.9,145z"/>
 <path d="M121.4,196.3c0.1-1.5,0.2-2.6,0.3-3.6c0.8-1,2.4,1.4,2.6-0.9c0.5,0.1,1.2,0.1,1.4,0.4c0.2,0.3,0.3,1.3,0,1.5
 	C124.5,194.5,123.2,195.2,121.4,196.3z"/>
 <path d="M123.7,206.3c-0.7-3-1.8-5.3,0.5-7.8C125.2,201.1,125.4,203.4,123.7,206.3z"/>
 <path d="M992.3,415.7c-1.3-1.9-2.2-3.3-3.8-5.5c1.7,0.3,2.9,0.1,3.4,0.6C993.2,412,993.4,413.6,992.3,415.7z"/>
 <path d="M596,327c-0.5-0.7-1.2-1.3-1.3-2c-0.1-0.3,0.9-0.7,1.4-1.1c0.5,0.3,1.5,0.6,1.5,0.9c0,0.7-0.5,1.4-0.8,2.1
 	C596.5,327,596.3,327,596,327z"/>
 <path d="M575,299.2c-0.5-1.1-1.2-2.2-1.3-3.4c-0.1-0.6,0.9-1.2,1.4-1.9c0.5,0.5,1.5,1.1,1.5,1.6c0,1.2-0.5,2.4-0.8,3.6
 	C575.5,299.2,575.3,299.2,575,299.2z"/>
 <path d="M250.7,53.8c-1.7,1.3-2.5,4.2-5.9,3.3C246.2,54.6,248.5,54.3,250.7,53.8z"/>
 <path d="M982.5,421.3c0.9-1.8,1.6-3.1,2.8-5.4c0,2.8,0,4.7,0,6.9C984.2,422.2,983.5,421.8,982.5,421.3z"/>
 <path d="M732.6,109.7c-1.1,1.6-2.2,2.7-3.6,1.1c-0.4-0.5-0.4-2.2,0-2.5C731.1,106.6,731.4,108.9,732.6,109.7z"/>
 <path d="M278.8,390.6c-2.5,1.4-4.4,1.8-6-1.2C275,389.1,277,388.3,278.8,390.6z"/>
 <path d="M126.3,184.4c-1,1.9-1.9,3.8-2.9,5.7c-0.3-0.1-0.6-0.2-0.9-0.3c0.5-2.1,1.1-4.2,1.6-6.5c0.9,0.5,1.6,0.9,2.2,1.2
 	C126.4,184.5,126.3,184.4,126.3,184.4z"/>
 <path d="M594.5,81.8c-0.6-1-1.1-1.9-2-3.4c1.5-0.3,2.6-0.6,3.8-0.8c0.2,0.3,0.4,0.5,0.6,0.8c-0.8,1.2-1.7,2.3-2.6,3.5
 	C594.4,81.8,594.5,81.8,594.5,81.8z"/>
 <path d="M977.1,412.1c-1-2.2-1.6-3.6-2.4-5.3C978.4,408,978.4,408,977.1,412.1z"/>
 <path d="M970.3,492.9c2.3-1,4.4-1,5.8,2.8C973.6,494.5,971.9,493.7,970.3,492.9z"/>
 <path d="M583.5,232.3c-0.3,1.8-0.5,2.9-0.8,4.9c-1.4-1-2.2-1.7-3.6-2.7C580.9,233.6,581.9,233.1,583.5,232.3z"/>
 <path d="M985.1,414.6c-1.5,1.3-2.4,2.1-4,3.5c0-2,0-3.2,0-4.7C982.3,413.8,983.2,414.1,985.1,414.6z"/>
 <path d="M307,182.9c-0.8,1.2-1.6,2.5-2.4,3.9c-1.6-1.3-1-2.4-0.4-3.3c0.4-0.6,1.4-0.9,2.1-1.4C306.5,182.3,306.8,182.6,307,182.9z"
 	/>
 <path d="M168.5,100.7c0,0,0.1-0.1,0.1-0.1c-0.7,0.1-1.4,0.1-2.2,0.2c0.2-0.6,0.2-1.6,0.6-1.8c1.1-0.6,2.3-0.9,4-0.6
 	C170.3,99.1,169.4,99.9,168.5,100.7z"/>
 <path d="M358,663.7c1,0.4,1.8,0.7,3.1,1.1c-1.6,1.1-2.9,1.9-4.9,3.3C357,666.1,357.5,664.9,358,663.7z"/>
 <path d="M925,467.7l0.1,0.2c-0.7-1-1.4-2.1-2.3-3.3c3.3-1,2.2,2.7,3.8,3.6C926.1,467.9,925.5,467.8,925,467.7z"/>
 <path d="M120.2,188.9c1.6,2,0.5,3.4-0.9,4.8C119.6,192.1,119.9,190.5,120.2,188.9z"/>
 <path d="M290.4,52.3c0.6-1.7,1.1-3.4,1.7-5.1c0.3,0.1,0.7,0.2,1,0.3c-0.4,1.7-0.7,3.5-1.1,5.2C291.5,52.5,291,52.4,290.4,52.3z"/>
 <path d="M1099,477.6c1.5,1.2,2.6,2.2,3.9,3.3C1099.9,482,1099.9,482,1099,477.6z"/>
 <path d="M317.3,680.8c-2.5,0.3-3.8-0.6-5.2-2.8C314.5,678.1,316,678.7,317.3,680.8z"/>
 <path d="M316.9,389.6c-1.7,2.3-3.4,1.6-5.6,1.2C312.9,388.3,314.7,389.4,316.9,389.6z"/>
 <path d="M6.7,194.4c1-1.3,1.8-2.3,2.6-3.4C10.4,193.3,10.4,193.3,6.7,194.4z"/>
 <path d="M629.1,326c2-2.4,3.4-1.5,5.7,0C632.5,326,631.1,326,629.1,326z"/>
 <path d="M372.5,53.9c-1-0.8-1.8-1.4-2.8-2.2C372.9,51,372.9,51,372.5,53.9z"/>
 <path d="M1056.8,158.9c-1.4-1.4-1.1-2.6,0.2-3.5c0.3-0.2,1.3,0.2,1.4,0.5C1059.2,157.6,1057.8,158.1,1056.8,158.9z"/>
 <path d="M999.7,471.2c-1.3-0.1-2.6-0.3-3.9-0.4c1.4-1.8,2.6-2.1,3.9-0.9C999.7,470.3,999.7,470.8,999.7,471.2z"/>
 <path d="M906.6,54c-0.5-1-1-2-1.8-3.5C907.5,51.6,907.5,51.6,906.6,54z"/>
 <path d="M303.3,50.8c-1.5-1.1-2.3-1.7-3.1-2.2c0.3-0.4,0.6-1.1,1-1.2C302.7,47.1,303.2,48.1,303.3,50.8z"/>
 <path d="M273.2,36.4c0.7,1.1,0.9,2.1-0.4,2.8c-0.2,0.1-1-0.2-1-0.5C271.3,37.6,271.4,36.5,273.2,36.4z"/>
 <path d="M290.9,86c-1.2,1.1-2.4,2.5-4,0.3C288.5,86.2,289.7,86.1,290.9,86z"/>
 <path d="M498.6,106.2c0.8,1.6,1.2,2.5,1.6,3.5C497.4,110,497.4,110,498.6,106.2z"/>
 <path d="M286.1,62.3c1.7,0.1,2.8,0.2,4.2,0.3C288.6,64.8,288.6,64.8,286.1,62.3z"/>
 <path d="M279.1,72.1c0.7-1,1.2-1.7,1.9-2.6C281.5,71.8,281.5,71.8,279.1,72.1z"/>
 <path d="M329.3,685.3c0.4,0.4,0.9,0.8,1.8,1.6c-1.6,0.2-2.8,0.3-4.3,0.5c0.5-1.9,1.2-2.6,2.6-2C329.4,685.4,329.3,685.3,329.3,685.3
 	z"/>
 <path d="M755.5,109.6c-3-0.1-3.3-1-2.2-3.2C754.1,107.5,754.6,108.2,755.5,109.6z"/>
 <path d="M769.9,654.3c0.9,0.3,1.9,0.6,3.4,1c-1.9,1.4-2.8,0.9-3.7,0.1C769.7,655,769.8,654.7,769.9,654.3z"/>
 <path d="M753.3,113.1c-0.2,0.2-0.3,0.4-0.5,0.6c-0.5,0.2-1.1,0.4-2.4,0.9c0.7-1.2,1.1-1.9,1.5-2.7
 	C752.3,112.4,752.8,112.7,753.3,113.1z"/>
 <path d="M323.7,30.2c-0.6-1-1.1-1.7-1.7-2.8c1-0.3,1.8-0.6,3.4-1.1C324.6,28.1,324.2,29,323.7,30.2z"/>
 <path d="M676.6,42.1c-0.7-0.5-1.3-1.1-2.3-1.9c1-0.4,1.9-1.1,2.3-0.9c1.7,0.8,0,1.9-0.1,2.9C676.5,42.2,676.6,42.1,676.6,42.1z"/>
 <path d="M324.8,63.5c0.2-1.8,0.3-2.7,0.4-3.8C327.3,61.3,327.3,61.3,324.8,63.5z"/>
 <path d="M356.2,665.1c-0.7,0.5-1.4,0.9-2.1,1.4c-0.2-0.4-0.5-0.9-0.7-1.3c0.8-0.3,1.6-0.6,2.4-0.9
 	C355.9,664.5,356.1,664.8,356.2,665.1z"/>
 <path d="M601.1,226.1c0.3-0.9,0.5-1.8,0.8-2.7c0.3,0.1,0.7,0.1,1,0.2c-0.1,0.9-0.3,1.9-0.4,2.8C602.1,226.3,601.6,226.2,601.1,226.1
 	z"/>
 <path d="M1062.2,174.9c0.8,0.8,1.6,1.7,2.9,3.2c-3.1-0.5-3.1-0.5-2.8-3.3C1062.3,174.8,1062.2,174.9,1062.2,174.9z"/>
 <path d="M67.2,170c0.7-0.3,1.4-0.6,2.1-1c0.1,0.4,0.4,1,0.4,1c-0.7,0.3-1.4,0.6-2.1,0.9C67.4,170.6,67.3,170.3,67.2,170z"/>
 <path d="M50.1,128.4c0,0,0.1,0,0.1,0c-0.7-0.5-1.4-0.9-2.3-1.5c0.7-0.6,1.2-1.2,2.6-2.5C50.3,126.4,50.2,127.4,50.1,128.4z"/>
 <path d="M1014.1,499.3c-1.2,2.5-2.2,2.2-3.6,0.9C1011.6,499.9,1012.5,499.7,1014.1,499.3z"/>
 <path d="M283.6,236.9c1.4-1.8,2.4-1.5,3.9,0.6C285.8,237.2,284.8,237,283.6,236.9z"/>
 <path d="M165.6,99.1c0.1,1,0.1,1.7,0.2,2.7C163.8,100.7,163.8,100.7,165.6,99.1z"/>
 <path d="M288.8,57.9c0.4,0.9,0.8,1.9,1.1,2.8c-0.6,0.2-0.9,0.4-1.1,0.4C286.1,60.5,288.1,59.2,288.8,57.9z"/>
 <path d="M883.7,44.3c-0.6-0.9-1.1-1.8-1.9-3c0.7,0.1,1.3,0,1.4,0.2c0.4,0.8,0.8,1.7,1.1,2.5C884.1,44.1,883.9,44.2,883.7,44.3z"/>
 <path d="M664.9,39.7c0.3-0.8,0.5-1.6,0.9-2.3c0-0.1,0.5,0.1,0.8,0.1c-0.2,0.8-0.3,1.6-0.5,2.5C665.8,39.8,665.3,39.7,664.9,39.7z"/>
 <path d="M435.2,28.7c-0.2,0.8-0.4,1.6-0.6,2.5c-0.2,0-0.4-0.1-0.7-0.1c0.1-0.8,0.2-1.7,0.2-2.5C434.5,28.6,434.9,28.6,435.2,28.7z"
 	/>
 <path d="M612.5,219.2c0.8-0.3,1.7-0.6,3-1C614.9,220.2,614.2,220.8,612.5,219.2z"/>
 <path d="M1057.6,219.9c-0.4,1.1-0.9,2.1-1.3,3.2c-0.3-0.1-0.7-0.3-1-0.4c0.5-1,1.1-2,1.6-3C1057.2,219.7,1057.4,219.8,1057.6,219.9z
 	"/>
 <path d="M1017.4,605c1.5-0.9,2.4-2,3.9,0C1019.9,605,1018.9,605,1017.4,605z"/>
 <path d="M270.4,367.3c0,0-0.7,0.7-0.7,1c0,0.3,1.3,2,1.6,1.6c0.3-0.3-0.3-3.9-0.3-3.9s-1,0.3-1,0
 	C270.1,365.7,270.4,367.3,270.4,367.3z"/>
 <path d="M334.8,411.4c-0.3,0.3-0.5,0.5-0.7,0.7c-0.2-0.3-0.5-0.5-0.6-0.8c0-0.2,0.3-0.4,0.4-0.6
 	C334.2,410.9,334.5,411.2,334.8,411.4z"/>
 <path d="M327.8,401.4c-0.3,0.3-0.5,0.5-0.7,0.7c-0.2-0.3-0.5-0.5-0.6-0.8c0-0.2,0.3-0.4,0.4-0.6
 	C327.2,400.9,327.5,401.2,327.8,401.4z"/>
 <path d="M324.8,391.4c-0.3,0.3-0.5,0.5-0.7,0.7c-0.2-0.3-0.5-0.5-0.6-0.8c0-0.2,0.3-0.4,0.4-0.6
 	C324.2,390.9,324.5,391.2,324.8,391.4z"/>
 <path d="M329.8,407.9c-0.3,0.4-0.4,0.6-0.5,0.8c-0.2-0.3-0.4-0.5-0.5-0.9c0-0.2,0.2-0.5,0.3-0.7
 	C329.3,407.3,329.5,407.6,329.8,407.9z"/>
 <path d="M332.4,418.9c-0.5,0.5-0.8,0.7-1,1c-0.3-0.4-0.7-0.7-0.9-1.1c-0.1-0.2,0.4-0.6,0.6-0.9C331.5,418.1,331.9,418.4,332.4,418.9
 	z"/>
 <path d="M577.5,237.2c-0.6-0.4-1.2-0.8-1.9-1.3c0.2-0.3,0.4-0.7,0.7-1c0.6,0.4,1.2,0.8,1.9,1.3C578,236.6,577.7,236.9,577.5,237.2z"
 	/>
 <path d="M313.4,178.7c-0.5-0.7-1.1-1.4-1.6-2c0.2-0.2,0.4-0.4,0.5-0.6c0.7,0.5,1.4,1.1,2,1.6C314,178,313.7,178.4,313.4,178.7z"/>
 <path d="M322.8,138.4c0.7-0.3,1.5-0.7,2.2-1c0.1,0.2,0.2,0.4,0.3,0.6c-0.7,0.3-1.4,0.7-2.2,1C323,138.8,322.9,138.6,322.8,138.4z"/>
 <path d="M336,148.9c-0.8-0.3-1.5-0.6-2.3-0.8c0.1-0.3,0.2-0.6,0.3-0.9c0.8,0.2,1.6,0.5,2.4,0.7C336.3,148.2,336.1,148.6,336,148.9z"
 	/>
 <path d="M931.8,467.1c0.3,0.6,0.6,1,0.6,1.4c0,0.2-0.8,0.6-0.9,0.5c-0.4-0.3-0.6-0.7-0.8-1.2C930.7,467.7,931.3,467.4,931.8,467.1z"
 	/>
 <path d="M1116.5,491.9c0.8,0.4,1.5,0.8,2.3,1.2c-0.1,0.2-0.2,0.4-0.3,0.6c-0.8-0.3-1.7-0.6-2.5-0.8
 	C1116.2,492.5,1116.3,492.2,1116.5,491.9z"/>
 <path d="M297.6,219c-0.7,0.6-1.3,1.2-2,1.8c-0.2-0.2-0.4-0.4-0.5-0.6c0.7-0.6,1.4-1.2,2-1.8C297.3,218.6,297.4,218.8,297.6,219z"/>
 <path d="M954.1,487.2c1.1,0.1,2.2,0.2,3.5,0.3c-1.5,1.5-1.5,1.5-3.3-0.5C954.2,487.1,954.1,487.2,954.1,487.2z"/>
 <path d="M340.6,275c-1.8-0.9-2.8-1.4-3.9-1.9C338.3,272.5,339.6,272.4,340.6,275z"/>
 <path d="M0.3,195.8c0.9-0.7,1.8-1.3,2.6-2c0.2,0.2,0.3,0.4,0.5,0.6c-0.8,0.7-1.7,1.4-2.5,2.1C0.7,196.3,0.5,196.1,0.3,195.8z"/>
 <path class="st4" d="M883.8,237c0.4-1.2,0.7-2.2,1-3.3"/>
 <path class="st4" d="M894.2,228.3"/>
 <path class="st4" d="M893.2,211.1c0.3,0,0.6-0.1,1-0.1c0.4,1,0.9,2,1.2,3"/>
 <path class="st4" d="M740.9,282.1"/>
 <path class="st4" d="M790.4,272.2c0.4-2.1,2.4-3.2,4.9-3.2"/>
 <path class="st4" d="M820.3,257.2c2.2,1.4,4.3,2.8,6.3,4.2"/>
 <path class="st4" d="M991.1,264.7c-0.5-0.1-0.6-0.1-0.7-0.1"/>
 <path class="st4" d="M933.1,64.1c-0.6,1-1.2,2-2,3.3c-0.9-2.8-0.9-2.8,2.1-3.1C933.3,64.3,933.1,64.1,933.1,64.1z"/>
 <path class="st4" d="M940.4,345.7c-1.1-0.4-2-0.8-3.7-1.4"/>
 <path class="st4" d="M951.4,342.6"/>
 <path class="st4" d="M678.1,222.4c-1.1,0-2.2,0-3.4,0c0-0.1,0-0.2,0-0.3c1.1,0,2.2,0,3.4,0C678.1,222.3,678.1,222.4,678.1,222.4z"/>
 <path class="st4" d="M793.5,227"/>
 <path class="st4" d="M791.6,228.2"/>
 <path class="st4" d="M259.2,249.7c-0.2,1.2-0.4,2.5-0.6,4.1"/>
 <path class="st4" d="M209.8,203.4c1.5-0.8,2.5-1.3,3.9-2"/>
 <path class="st4" d="M224.7,209C224.8,209,224.7,208.9,224.7,209c-1.2,0.5-2.4,1.1-3.6,1.7"/>
 <path class="st4" d="M214.5,139.5"/>
 <path class="st4" d="M226.4,242.1c0,0,0.1,0.1,0.1,0.1c-0.4-1.2-0.8-2.3-1.4-4"/>
 <path class="st4" d="M313.5,673c1.1,0,1.9,0,2.7,0C314.8,674.1,314.8,674.1,313.5,673z"/>
 <path class="st4" d="M398.9,158.5c0.5-1.2,0.8-2,1.1-2.9c0,0-0.1-0.1-0.1-0.1"/>
 <path class="st4" d="M352.7,53.2c-1.8-1.8-3.1-3-4.3-4.2l-0.1,0.1"/>
 <path class="st4" d="M334.9,171c0.8-1.4,1.5-2.6,2.3-3.9"/>
 <g>
 	<polygon class="st5" points="152.7,239.2 152.7,244.4 160.3,244.4 160.3,239.3 156.3,236 	"/>
 	<polygon class="st6" points="160.3,239.3 156.8,236 156.3,235.6 155.9,236 152.7,239.2 151.9,240 152.3,240 152.7,239.6 156.3,236
 		160.3,239.6 160.7,240 161.1,240 	"/>
 	<rect x="155.5" y="240.4" class="st7" width="2" height="4"/>
 	<ellipse class="st8" cx="156.8" cy="242.7" rx="0.1" ry="0.1"/>
 	<rect x="153.1" y="240.8" class="st9" width="2" height="2"/>
 	<rect x="157.9" y="240.8" class="st9" width="2" height="2"/>
 </g>
 <g>
 	<polygon class="st1" points="532.9,245.1 534.8,245.1 534.8,240.6 	"/>
 	<polygon class="st10" points="534.8,240.6 534.8,245.1 536.7,245.1 	"/>
 	<rect x="530" y="246.4" class="st11" width="2.9" height="6.8"/>
 	<rect x="536.7" y="246.4" class="st11" width="2.9" height="6.8"/>
 	<rect x="532.9" y="245.1" class="st12" width="3.8" height="6.8"/>
 	<polygon class="st13" points="537.1,250.5 537.1,251.9 535.6,251.9 535.6,250.5 534,250.5 534,251.9 532.5,251.9 532.5,250.5
 		531,250.5 531,256.8 538.6,256.8 538.6,250.5 	"/>
 	<path class="st14" d="M533.4,256.8v-2.7c0,0,0.2-0.9,1.4-1.2c0,0,1,0.1,1.4,1.1v2.8H533.4z"/>
 	<path class="st6" d="M534.8,256.8v-3.5c0,0-0.8,0.1-1,0.7v2.8H534.8z"/>
 	<path class="st15" d="M534.8,256.8v-3.5c0,0,0.8,0.1,1,0.7v2.8H534.8z"/>
 	<ellipse class="st8" cx="534.5" cy="255.4" rx="0.2" ry="0.1"/>
 	<ellipse class="st8" cx="535.1" cy="255.4" rx="0.2" ry="0.1"/>
 	<polygon class="st12" points="529.9,248.4 529.4,248.4 528.8,248.4 528.3,248.4 528.3,256.8 531,256.8 531,248.4 530.4,248.4 	"/>
 	<rect x="529.4" y="247.6" class="st12" width="0.5" height="0.8"/>
 	<rect x="528.3" y="247.6" class="st12" width="0.5" height="0.8"/>
 	<rect x="530.4" y="247.6" class="st12" width="0.5" height="0.8"/>
 	<rect x="528.1" y="249.2" class="st13" width="3.1" height="0.7"/>
 	<g>
 		<polygon class="st12" points="540.2,248.4 539.7,248.4 539.2,248.4 538.6,248.4 538.6,256.8 541.3,256.8 541.3,248.4 540.7,248.4
 					"/>
 		<rect x="539.7" y="247.6" class="st12" width="0.5" height="0.8"/>
 		<rect x="538.6" y="247.6" class="st12" width="0.5" height="0.8"/>
 		<rect x="540.7" y="247.6" class="st12" width="0.5" height="0.8"/>
 		<rect x="538.4" y="249.2" class="st13" width="3.1" height="0.7"/>
 	</g>
 	<g>
 		<polygon class="st1" points="536.7,246.4 538.2,246.4 538.2,243.6 		"/>
 		<polygon class="st10" points="538.2,243.6 538.2,246.4 539.6,246.4 		"/>
 	</g>
 	<g>
 		<polygon class="st1" points="530,246.4 531.4,246.4 531.4,243.6 		"/>
 		<polygon class="st10" points="531.4,243.6 531.4,246.4 532.9,246.4 		"/>
 	</g>
 </g>
 <g>
 	<g>
 		<path class="st16" d="M595.4,317.8v8.5c0,0.3,0.2,0.5,0.5,0.5v-9.5C595.7,317.3,595.4,317.5,595.4,317.8z"/>
 		<path class="st17" d="M595.9,317.3v9.5c0.3,0,0.5-0.2,0.5-0.5v-8.5C596.4,317.5,596.2,317.3,595.9,317.3z"/>
 	</g>
 	<g>
 		<path class="st18" d="M592.4,314.8c0,1.9,1.6,3.5,3.5,3.5v-7C594,311.3,592.4,312.8,592.4,314.8z"/>
 	</g>
 	<g>
 		<path class="st19" d="M595.9,311.3v7c1.9,0,3.5-1.6,3.5-3.5C599.4,312.8,597.9,311.3,595.9,311.3z"/>
 	</g>
 </g>
 <g>
 	<g>
 		<path class="st16" d="M555.4,251.8v8.5c0,0.3,0.2,0.5,0.5,0.5v-9.5C555.7,251.3,555.4,251.5,555.4,251.8z"/>
 		<path class="st17" d="M555.9,251.3v9.5c0.3,0,0.5-0.2,0.5-0.5v-8.5C556.4,251.5,556.2,251.3,555.9,251.3z"/>
 	</g>
 	<g>
 		<path class="st18" d="M552.4,248.8c0,1.9,1.6,3.5,3.5,3.5v-7C554,245.3,552.4,246.8,552.4,248.8z"/>
 	</g>
 	<g>
 		<path class="st19" d="M555.9,245.3v7c1.9,0,3.5-1.6,3.5-3.5C559.4,246.8,557.9,245.3,555.9,245.3z"/>
 	</g>
 </g>
 <g>
 	<g>
 		<path class="st16" d="M559.4,244.8v8.5c0,0.3,0.2,0.5,0.5,0.5v-9.5C559.7,244.3,559.4,244.5,559.4,244.8z"/>
 		<path class="st17" d="M559.9,244.3v9.5c0.3,0,0.5-0.2,0.5-0.5v-8.5C560.4,244.5,560.2,244.3,559.9,244.3z"/>
 	</g>
 	<g>
 		<path class="st18" d="M556.4,241.8c0,1.9,1.6,3.5,3.5,3.5v-7C558,238.3,556.4,239.8,556.4,241.8z"/>
 	</g>
 	<g>
 		<path class="st19" d="M559.9,238.3v7c1.9,0,3.5-1.6,3.5-3.5C563.4,239.8,561.9,238.3,559.9,238.3z"/>
 	</g>
 </g>
 <g>
 	<g>
 		<path class="st16" d="M578.4,255.8v8.5c0,0.3,0.2,0.5,0.5,0.5v-9.5C578.7,255.3,578.4,255.5,578.4,255.8z"/>
 		<path class="st17" d="M578.9,255.3v9.5c0.3,0,0.5-0.2,0.5-0.5v-8.5C579.4,255.5,579.2,255.3,578.9,255.3z"/>
 	</g>
 	<g>
 		<path class="st18" d="M575.4,252.8c0,1.9,1.6,3.5,3.5,3.5v-7C577,249.3,575.4,250.8,575.4,252.8z"/>
 	</g>
 	<g>
 		<path class="st19" d="M578.9,249.3v7c1.9,0,3.5-1.6,3.5-3.5C582.4,250.8,580.9,249.3,578.9,249.3z"/>
 	</g>
 </g>
 <g>
 	<g>
 		<path class="st16" d="M595.4,262.8v8.5c0,0.3,0.2,0.5,0.5,0.5v-9.5C595.7,262.3,595.4,262.5,595.4,262.8z"/>
 		<path class="st17" d="M595.9,262.3v9.5c0.3,0,0.5-0.2,0.5-0.5v-8.5C596.4,262.5,596.2,262.3,595.9,262.3z"/>
 	</g>
 	<g>
 		<path class="st18" d="M592.4,259.8c0,1.9,1.6,3.5,3.5,3.5v-7C594,256.3,592.4,257.8,592.4,259.8z"/>
 	</g>
 	<g>
 		<path class="st19" d="M595.9,256.3v7c1.9,0,3.5-1.6,3.5-3.5C599.4,257.8,597.9,256.3,595.9,256.3z"/>
 	</g>
 </g>
 <g>
 	<g>
 		<path class="st16" d="M609.4,273.8v8.5c0,0.3,0.2,0.5,0.5,0.5v-9.5C609.7,273.3,609.4,273.5,609.4,273.8z"/>
 		<path class="st17" d="M609.9,273.3v9.5c0.3,0,0.5-0.2,0.5-0.5v-8.5C610.4,273.5,610.2,273.3,609.9,273.3z"/>
 	</g>
 	<g>
 		<path class="st18" d="M606.4,270.8c0,1.9,1.6,3.5,3.5,3.5v-7C608,267.3,606.4,268.8,606.4,270.8z"/>
 	</g>
 	<g>
 		<path class="st19" d="M609.9,267.3v7c1.9,0,3.5-1.6,3.5-3.5C613.4,268.8,611.9,267.3,609.9,267.3z"/>
 	</g>
 </g>
 <g>
 	<g>
 		<path class="st16" d="M530.4,295.8v8.5c0,0.3,0.2,0.5,0.5,0.5v-9.5C530.7,295.3,530.4,295.5,530.4,295.8z"/>
 		<path class="st17" d="M530.9,295.3v9.5c0.3,0,0.5-0.2,0.5-0.5v-8.5C531.4,295.5,531.2,295.3,530.9,295.3z"/>
 	</g>
 	<g>
 		<path class="st18" d="M527.4,292.8c0,1.9,1.6,3.5,3.5,3.5v-7C529,289.3,527.4,290.8,527.4,292.8z"/>
 	</g>
 	<g>
 		<path class="st19" d="M530.9,289.3v7c1.9,0,3.5-1.6,3.5-3.5C534.4,290.8,532.9,289.3,530.9,289.3z"/>
 	</g>
 </g>
 <g>
 	<g>
 		<path class="st16" d="M551.8,260v8.5c0,0.3,0.2,0.5,0.5,0.5v-9.5C552,259.5,551.8,259.7,551.8,260z"/>
 		<path class="st17" d="M552.3,259.5v9.5c0.3,0,0.5-0.2,0.5-0.5V260C552.8,259.7,552.5,259.5,552.3,259.5z"/>
 	</g>
 	<g>
 		<path class="st18" d="M548.8,257c0,1.9,1.6,3.5,3.5,3.5v-7C550.3,253.5,548.8,255.1,548.8,257z"/>
 	</g>
 	<g>
 		<path class="st19" d="M552.3,253.5v7c1.9,0,3.5-1.6,3.5-3.5C555.8,255.1,554.2,253.5,552.3,253.5z"/>
 	</g>
 </g>
 <g>
 	<g>
 		<path class="st16" d="M590.4,289.8v8.5c0,0.3,0.2,0.5,0.5,0.5v-9.5C590.7,289.3,590.4,289.5,590.4,289.8z"/>
 		<path class="st17" d="M590.9,289.3v9.5c0.3,0,0.5-0.2,0.5-0.5v-8.5C591.4,289.5,591.2,289.3,590.9,289.3z"/>
 	</g>
 	<g>
 		<path class="st18" d="M587.4,286.8c0,1.9,1.6,3.5,3.5,3.5v-7C589,283.3,587.4,284.8,587.4,286.8z"/>
 	</g>
 	<g>
 		<path class="st19" d="M590.9,283.3v7c1.9,0,3.5-1.6,3.5-3.5C594.4,284.8,592.9,283.3,590.9,283.3z"/>
 	</g>
 </g>
 <g>
 	<g>
 		<path class="st16" d="M955.4,478.8v8.5c0,0.3,0.2,0.5,0.5,0.5v-9.5C955.7,478.3,955.4,478.5,955.4,478.8z"/>
 		<path class="st17" d="M955.9,478.3v9.5c0.3,0,0.5-0.2,0.5-0.5v-8.5C956.4,478.5,956.2,478.3,955.9,478.3z"/>
 	</g>
 	<g>
 		<path class="st18" d="M952.4,475.8c0,1.9,1.6,3.5,3.5,3.5v-7C954,472.3,952.4,473.8,952.4,475.8z"/>
 	</g>
 	<g>
 		<path class="st19" d="M955.9,472.3v7c1.9,0,3.5-1.6,3.5-3.5C959.4,473.8,957.9,472.3,955.9,472.3z"/>
 	</g>
 </g>
 <g>
 	<g>
 		<path class="st16" d="M29.4,372.8v8.5c0,0.3,0.2,0.5,0.5,0.5v-9.5C29.7,372.3,29.4,372.5,29.4,372.8z"/>
 		<path class="st17" d="M29.9,372.3v9.5c0.3,0,0.5-0.2,0.5-0.5v-8.5C30.4,372.5,30.2,372.3,29.9,372.3z"/>
 	</g>
 	<g>
 		<path class="st18" d="M26.4,369.8c0,1.9,1.6,3.5,3.5,3.5v-7C28,366.3,26.4,367.8,26.4,369.8z"/>
 	</g>
 	<g>
 		<path class="st19" d="M29.9,366.3v7c1.9,0,3.5-1.6,3.5-3.5C33.4,367.8,31.9,366.3,29.9,366.3z"/>
 	</g>
 </g>
 <g>
 	<g>
 		<path class="st16" d="M270.4,358.8v8.5c0,0.3,0.2,0.5,0.5,0.5v-9.5C270.7,358.3,270.4,358.5,270.4,358.8z"/>
 		<path class="st17" d="M270.9,358.3v9.5c0.3,0,0.5-0.2,0.5-0.5v-8.5C271.4,358.5,271.2,358.3,270.9,358.3z"/>
 	</g>
 	<g>
 		<path class="st18" d="M267.4,355.8c0,1.9,1.6,3.5,3.5,3.5v-7C269,352.3,267.4,353.8,267.4,355.8z"/>
 	</g>
 	<g>
 		<path class="st19" d="M270.9,352.3v7c1.9,0,3.5-1.6,3.5-3.5C274.4,353.8,272.9,352.3,270.9,352.3z"/>
 	</g>
 </g>
 <g>
 	<g>
 		<path class="st16" d="M323.4,382.8v8.5c0,0.3,0.2,0.5,0.5,0.5v-9.5C323.7,382.3,323.4,382.5,323.4,382.8z"/>
 		<path class="st17" d="M323.9,382.3v9.5c0.3,0,0.5-0.2,0.5-0.5v-8.5C324.4,382.5,324.2,382.3,323.9,382.3z"/>
 	</g>
 	<g>
 		<path class="st18" d="M320.4,379.8c0,1.9,1.6,3.5,3.5,3.5v-7C322,376.3,320.4,377.8,320.4,379.8z"/>
 	</g>
 	<g>
 		<path class="st19" d="M323.9,376.3v7c1.9,0,3.5-1.6,3.5-3.5C327.4,377.8,325.9,376.3,323.9,376.3z"/>
 	</g>
 </g>
 <g>
 	<g>
 		<path class="st16" d="M333.4,401.8v8.5c0,0.3,0.2,0.5,0.5,0.5v-9.5C333.7,401.3,333.4,401.5,333.4,401.8z"/>
 		<path class="st17" d="M333.9,401.3v9.5c0.3,0,0.5-0.2,0.5-0.5v-8.5C334.4,401.5,334.2,401.3,333.9,401.3z"/>
 	</g>
 	<g>
 		<path class="st18" d="M330.4,398.8c0,1.9,1.6,3.5,3.5,3.5v-7C332,395.3,330.4,396.8,330.4,398.8z"/>
 	</g>
 	<g>
 		<path class="st19" d="M333.9,395.3v7c1.9,0,3.5-1.6,3.5-3.5C337.4,396.8,335.9,395.3,333.9,395.3z"/>
 	</g>
 </g>
 <g>
 	<g>
 		<path class="st16" d="M330.4,409.8v8.5c0,0.3,0.2,0.5,0.5,0.5v-9.5C330.7,409.3,330.4,409.5,330.4,409.8z"/>
 		<path class="st17" d="M330.9,409.3v9.5c0.3,0,0.5-0.2,0.5-0.5v-8.5C331.4,409.5,331.2,409.3,330.9,409.3z"/>
 	</g>
 	<g>
 		<path class="st18" d="M327.4,406.8c0,1.9,1.6,3.5,3.5,3.5v-7C329,403.3,327.4,404.8,327.4,406.8z"/>
 	</g>
 	<g>
 		<path class="st19" d="M330.9,403.3v7c1.9,0,3.5-1.6,3.5-3.5C334.4,404.8,332.9,403.3,330.9,403.3z"/>
 	</g>
 </g>
 <g>
 	<g>
 		<path class="st16" d="M313.4,380.8v8.5c0,0.3,0.2,0.5,0.5,0.5v-9.5C313.7,380.3,313.4,380.5,313.4,380.8z"/>
 		<path class="st17" d="M313.9,380.3v9.5c0.3,0,0.5-0.2,0.5-0.5v-8.5C314.4,380.5,314.2,380.3,313.9,380.3z"/>
 	</g>
 	<g>
 		<path class="st18" d="M310.4,377.8c0,1.9,1.6,3.5,3.5,3.5v-7C312,374.3,310.4,375.8,310.4,377.8z"/>
 	</g>
 	<g>
 		<path class="st19" d="M313.9,374.3v7c1.9,0,3.5-1.6,3.5-3.5C317.4,375.8,315.9,374.3,313.9,374.3z"/>
 	</g>
 </g>
 <g>
 	<g>
 		<path class="st16" d="M275.4,381.8v8.5c0,0.3,0.2,0.5,0.5,0.5v-9.5C275.7,381.3,275.4,381.5,275.4,381.8z"/>
 		<path class="st17" d="M275.9,381.3v9.5c0.3,0,0.5-0.2,0.5-0.5v-8.5C276.4,381.5,276.2,381.3,275.9,381.3z"/>
 	</g>
 	<g>
 		<path class="st18" d="M272.4,378.8c0,1.9,1.6,3.5,3.5,3.5v-7C274,375.3,272.4,376.8,272.4,378.8z"/>
 	</g>
 	<g>
 		<path class="st19" d="M275.9,375.3v7c1.9,0,3.5-1.6,3.5-3.5C279.4,376.8,277.9,375.3,275.9,375.3z"/>
 	</g>
 </g>
 <g>
 	<g>
 		<path class="st16" d="M241.4,369.8v8.5c0,0.3,0.2,0.5,0.5,0.5v-9.5C241.7,369.3,241.4,369.5,241.4,369.8z"/>
 		<path class="st17" d="M241.9,369.3v9.5c0.3,0,0.5-0.2,0.5-0.5v-8.5C242.4,369.5,242.2,369.3,241.9,369.3z"/>
 	</g>
 	<g>
 		<path class="st18" d="M238.4,366.8c0,1.9,1.6,3.5,3.5,3.5v-7C240,363.3,238.4,364.8,238.4,366.8z"/>
 	</g>
 	<g>
 		<path class="st19" d="M241.9,363.3v7c1.9,0,3.5-1.6,3.5-3.5C245.4,364.8,243.9,363.3,241.9,363.3z"/>
 	</g>
 </g>
 <g>
 	<g>
 		<path class="st16" d="M941.4,284.8v8.5c0,0.3,0.2,0.5,0.5,0.5v-9.5C941.7,284.3,941.4,284.5,941.4,284.8z"/>
 		<path class="st17" d="M941.9,284.3v9.5c0.3,0,0.5-0.2,0.5-0.5v-8.5C942.4,284.5,942.2,284.3,941.9,284.3z"/>
 	</g>
 	<g>
 		<path class="st18" d="M938.4,281.8c0,1.9,1.6,3.5,3.5,3.5v-7C940,278.3,938.4,279.8,938.4,281.8z"/>
 	</g>
 	<g>
 		<path class="st19" d="M941.9,278.3v7c1.9,0,3.5-1.6,3.5-3.5C945.4,279.8,943.9,278.3,941.9,278.3z"/>
 	</g>
 </g>
 <g>
 	<g>
 		<path class="st16" d="M1027.4,297.8v8.5c0,0.3,0.2,0.5,0.5,0.5v-9.5C1027.7,297.3,1027.4,297.5,1027.4,297.8z"/>
 		<path class="st17" d="M1027.9,297.3v9.5c0.3,0,0.5-0.2,0.5-0.5v-8.5C1028.4,297.5,1028.2,297.3,1027.9,297.3z"/>
 	</g>
 	<g>
 		<path class="st18" d="M1024.4,294.8c0,1.9,1.6,3.5,3.5,3.5v-7C1026,291.3,1024.4,292.8,1024.4,294.8z"/>
 	</g>
 	<g>
 		<path class="st19" d="M1027.9,291.3v7c1.9,0,3.5-1.6,3.5-3.5C1031.4,292.8,1029.9,291.3,1027.9,291.3z"/>
 	</g>
 </g>
 <g>
 	<g>
 		<rect x="984.5" y="297.3" class="st20" width="4" height="1.6"/>
 		<polygon class="st21" points="985.1,297.9 983.5,296.4 989.5,296.4 987.9,297.9 		"/>
 	</g>
 	<g>
 		<rect x="983.1" y="300.3" class="st20" width="6.7" height="2.6"/>
 		<polygon class="st21" points="984.2,301.4 981.6,298.8 991.4,298.8 988.8,301.4 		"/>
 	</g>
 	<g>
 		<rect x="980.9" y="305.4" class="st20" width="11.2" height="4.3"/>
 		<polygon class="st21" points="982.6,307.1 978.3,302.8 994.7,302.8 990.4,307.1 		"/>
 	</g>
 </g>
 <g>
 	<g>
 		<path class="st16" d="M326.4,392.8v8.5c0,0.3,0.2,0.5,0.5,0.5v-9.5C326.7,392.3,326.4,392.5,326.4,392.8z"/>
 		<path class="st17" d="M326.9,392.3v9.5c0.3,0,0.5-0.2,0.5-0.5v-8.5C327.4,392.5,327.2,392.3,326.9,392.3z"/>
 	</g>
 	<g>
 		<path class="st18" d="M323.4,389.8c0,1.9,1.6,3.5,3.5,3.5v-7C325,386.3,323.4,387.8,323.4,389.8z"/>
 	</g>
 	<g>
 		<path class="st19" d="M326.9,386.3v7c1.9,0,3.5-1.6,3.5-3.5C330.4,387.8,328.9,386.3,326.9,386.3z"/>
 	</g>
 </g>
 <path d="M25.5,377.4c0,0-0.6,0.4-0.2,0.6s0.9,0.2,0.9-0.2S25.5,377.4,25.5,377.4z"/>
 <path d="M27.4,378.2c0,0-1.1,0.7-0.4,1.1c0.7,0.4,1.4,0.4,1.4-0.4S27.4,378.2,27.4,378.2z"/>
 <path d="M29.3,379.7c0,0-1.8,1.2-0.6,1.8c1.2,0.6,2.4,0.6,2.4-0.6C31.1,379.7,29.3,379.7,29.3,379.7z"/>
 <path d="M31,382c0,0-3,2-1,3s4,1,4-1S31,382,31,382z"/>


 <g class='plane1'>
  <g class='planeFade'>
 	 <g class='planeSpin'>
  <g>
 	 <g id="XMLID_1_">
 		 <polygon class="st0" points="45.2,63.5 62,71.5 62,73.1 43.5,73 			"/>
 		 <polygon class="st1" points="45.2,63.5 62,71.5 62,73.1 43.5,73 			"/>
 	 </g>
 	 <path class="st2" d="M42,0.3c0,0,7.2,0.8,8.8,6.4c1.6,5.6-2.4,65.6-8.8,68V0.3z"/>
 	 <path class="st1" d="M60.4,25.9L60.4,25.9c-1.3,0-2.4-1.1-2.4-2.4v-3.2c0-1.3,1.1-2.4,2.4-2.4h0c1.3,0,2.4,1.1,2.4,2.4v3.2
 		 C62.8,24.8,61.7,25.9,60.4,25.9z"/>
 	 <path class="st1" d="M66.8,29.9L66.8,29.9c-1.3,0-2.4-1.1-2.4-2.4v-3.2c0-1.3,1.1-2.4,2.4-2.4h0c1.3,0,2.4,1.1,2.4,2.4v3.2
 		 C69.2,28.8,68.1,29.9,66.8,29.9z"/>
 	 <path class="st1" d="M73.2,33.1L73.2,33.1c-1.3,0-2.4-1.1-2.4-2.4v-3.2c0-1.3,1.1-2.4,2.4-2.4h0c1.3,0,2.4,1.1,2.4,2.4v3.2
 		 C75.6,32,74.5,33.1,73.2,33.1z"/>
 	 <polygon class="st2" points="50,17.1 84.4,35.5 84.4,41.1 59.9,35.5 49.8,35.9 		"/>
  </g>
  <g>
 	 <g id="XMLID_2_">
 		 <polygon class="st0" points="38.8,63.5 22,71.5 22,73.1 40.5,73 			"/>
 		 <polygon class="st1" points="38.8,63.5 22,71.5 22,73.1 40.5,73 			"/>
 	 </g>
 	 <path class="st2" d="M42,0.3c0,0-7.2,0.8-8.8,6.4c-1.6,5.6,2.4,65.6,8.8,68V0.3z"/>
 	 <path class="st1" d="M23.6,25.9L23.6,25.9c1.3,0,2.4-1.1,2.4-2.4v-3.2c0-1.3-1.1-2.4-2.4-2.4h0c-1.3,0-2.4,1.1-2.4,2.4v3.2
 		 C21.2,24.8,22.3,25.9,23.6,25.9z"/>
 	 <path class="st1" d="M17.2,29.9L17.2,29.9c1.3,0,2.4-1.1,2.4-2.4v-3.2c0-1.3-1.1-2.4-2.4-2.4h0c-1.3,0-2.4,1.1-2.4,2.4v3.2
 		 C14.8,28.8,15.9,29.9,17.2,29.9z"/>
 	 <path class="st1" d="M10.8,33.1L10.8,33.1c1.3,0,2.4-1.1,2.4-2.4v-3.2c0-1.3-1.1-2.4-2.4-2.4h0c-1.3,0-2.4,1.1-2.4,2.4v3.2
 		 C8.4,32,9.5,33.1,10.8,33.1z"/>
 	 <polygon class="st2" points="34,17.1 -0.4,35.5 -0.4,41.1 24.1,35.5 34.2,35.9 		"/>
  </g>
  <path class="st3" d="M37.6,7.1c0,0,4-3.2,8.8,0L48,4.7c0,0-6.4-3.2-12,0L37.6,7.1z"/>
 </g>
 </g>
 </g>
</svg>
