<?xml version="1.0" encoding="utf-8"?>
<!-- Generator: Adobe Illustrator 21.0.2, SVG Export Plug-In . SVG Version: 6.00 Build 0)  -->
<svg version="1.1" id="Layer_1" xmlns="http://www.w3.org/2000/svg" xmlns:xlink="http://www.w3.org/1999/xlink" x="0px" y="0px"
	 viewBox="0 0 677 768" style="enable-background:new 0 0 677 768;" xml:space="preserve">
<style type="text/css">
	.st0{fill:#1500E9;}
	.st1{fill:#D5E539;}
	.st2{fill:#9DFF15;}
</style>
<g>
	<g>
		<path d="M3,500.6c30.5-0.8,61-1.6,91.5-2.5c4.4-0.1,8.8-0.2,13.1-0.4c-1-0.7-1.9-1.5-2.9-2.2c1.3,5.1,2.6,10.2,3.8,15.3
			c0.7,2.8,1.4,5.6,2.1,8.3c0.2,0.9,0.5,1.8,0.7,2.8c0.2,1-0.1-1,0,0c0.7,11.3,0,22.8,0,34.1c0,19.9-0.3,39.8-0.7,59.8
			c-0.1,6.4-0.2,12.9-0.3,19.3c0,1.3,0.1,2.7-0.1,3.9c0.4-2.5-0.4-0.3-1.3,0.8c-0.9,1.2-1.8,2.5-2.8,3.7c0.9-0.5,1.7-1,2.6-1.5
			c-28.9,0-57.5,0.6-86.3,1.7c-6.5,0.2-13,0.5-19.5,0.7c1,1,2,2,3,3c0-43.8,0-87.6,0-131.4c0-6.2,0-12.4,0-18.6c0-3.9-6-3.9-6,0
			c0,43.8,0,87.6,0,131.4c0,6.2,0,12.4,0,18.6c0,1.6,1.4,3.1,3,3c19.3-0.7,38.6-1.4,57.9-2.2c5.5-0.2,10.9-0.2,16.3-0.2
			c10.2,0,20.9,1,31,0c3.2-0.3,6.3-4.5,7.5-7.4c0.9-1.9,0.5-4.4,0.6-6.4c0.2-11.4,0.4-22.9,0.6-34.3c0.3-16,0.4-31.9,0.4-47.9
			c0-10,1-20.6,0-30.6c-0.4-4.4-2.2-9-3.2-13.3c-1.2-4.8-2.4-9.6-3.6-14.4c-0.3-1.2-1.6-2.2-2.9-2.2c-30.5,0.8-61,1.6-91.5,2.5
			c-4.4,0.1-8.8,0.2-13.1,0.4C-0.9,494.7-0.9,500.7,3,500.6z"/>
	</g>
</g>
<g>
	<polygon class="st0" points="134.8,434 144.4,537.2 144.4,621.2 130,700.4 102.4,700.4 108.4,620 109.6,537.2 102.4,438.8 	"/>
	<g>
		<path d="M131.8,434c1.6,17.5,3.3,35.1,4.9,52.6c1.6,16.8,3.9,33.8,4.7,50.6c0.9,19.1,0,38.5,0,57.6c0,8.5-0.1,17,0,25.5
			c0,1.1,0,0.6,0.1,0.2c-0.1,0.8-0.3,1.6-0.4,2.4c-0.7,4-1.4,7.9-2.2,11.9c-3.9,21.6-7.8,43.2-11.8,64.7c1-0.7,1.9-1.5,2.9-2.2
			c-9.2,0-18.4,0-27.6,0c1,1,2,2,3,3c2.4-31.5,5.7-63.1,6.2-94.7c0.3-21.7,0.6-43.5,0.9-65.2c0.2-13.3-1.7-26.9-2.6-40.1
			c-1.5-20.5-3-41-4.5-61.5c-0.7,1-1.5,1.9-2.2,2.9c10.8-1.6,21.6-3.2,32.4-4.8c3.8-0.6,2.2-6.3-1.6-5.8
			c-10.8,1.6-21.6,3.2-32.4,4.8c-1.2,0.2-2.3,1.7-2.2,2.9c1.3,17.4,2.5,34.8,3.8,52.2c1.1,15.5,3.1,31.2,3.4,46.8
			c0.4,20.1-0.6,40.4-0.9,60.5c-0.2,12.7-0.6,25-1.5,37.6c-1.6,21.5-3.2,43-4.8,64.5c-0.1,1.6,1.5,3,3,3c9.2,0,18.4,0,27.6,0
			c1.2,0,2.7-0.9,2.9-2.2c3.5-19.1,6.9-38.1,10.4-57.2c1.3-7.3,3.1-14.6,4-21.9c0.7-5.7,0.1-11.8,0.1-17.6c0-21.8,0-43.6,0-65.4
			c0-14.2-2.5-28.6-3.8-42.7c-1.9-20.8-3.9-41.6-5.8-62.4C137.4,430.2,131.4,430.1,131.8,434z"/>
	</g>
</g>
<g>
	<polygon class="st1" points="163.6,700.4 179.2,641.6 178.4,521.9 172.4,447.5 156.4,434 134.8,434 144.4,527 144.4,621.2 
		130,700.4 	"/>
	<g>
		<path d="M166.5,701.2c2.5-9.5,5-19,7.5-28.5c2.6-9.9,6.3-20.1,8-30.2c0.9-5.4,0.1-11.4,0-16.8c-0.1-13-0.2-26-0.3-39.1
			c-0.1-21.4,0.4-43-0.4-64.4c-0.8-20.8-3.3-41.7-5-62.4c-0.3-3.9-0.2-8.2-1-12.1c-0.9-4.3-7.2-7.7-10.4-10.4
			c-2.1-1.7-4.1-3.9-6.3-5.3c-1.9-1.2-3.3-1-5.5-1c-6.1,0-12.3,0-18.4,0c-1.5,0-3.2,1.4-3,3c1.9,18.3,3.8,36.6,5.7,54.9
			c1.4,13.8,3.9,27.8,3.9,41.7c0,22.2,0,44.4,0,66.5c0,7.8-0.1,15.5,0,23.3c0,0.9,0,1,0.1,0.2c-0.1,0.8-0.3,1.6-0.4,2.4
			c-0.7,3.8-1.4,7.7-2.1,11.5c-3.9,21.7-7.9,43.4-11.8,65.1c-0.3,1.9,0.8,3.8,2.9,3.8c11.2,0,22.4,0,33.6,0c3.9,0,3.9-6,0-6
			c-11.2,0-22.4,0-33.6,0c1,1.3,1.9,2.5,2.9,3.8c3.5-19.1,6.9-38.1,10.4-57.2c1.3-7.3,3.1-14.6,4-21.9c0.6-5.2,0.1-10.7,0.1-16
			c0-23.4,0-46.8,0-70.2c0-12.6-1.7-25-3-37.5c-2.2-21.5-4.4-42.9-6.6-64.4c-1,1-2,2-3,3c5.3,0,10.7,0,16,0c1.2,0,2.5,0.1,3.7,0
			c0.5,0,3.3-0.5,0.8-0.4c-1.4,0-0.8-0.4,0.4,0.8c1.1,1.1,2.4,2,3.6,3c2.4,2,4.8,4.1,7.2,6.1c0.9,0.7,1.8,1.9,2.8,2.4
			c2.2,1.2-1.3-0.1,0-1.2c-0.7,0.6,0.6,7.7,0.7,8.6c1.8,21.8,4.3,43.7,5.3,65.6c0.8,18.6,0.3,37.3,0.4,55.9
			c0.1,21.1,1.1,42.3,0.4,63.3c0,1.3,0.3-1-0.1,0.4c-0.5,1.8-1,3.6-1.4,5.5c-1.8,6.8-3.6,13.6-5.4,20.4c-2.9,10.8-5.7,21.5-8.6,32.3
			C159.7,703.4,165.5,705,166.5,701.2z"/>
	</g>
</g>
<g>
	<g>
		<path d="M206.3,497.2c3.5,20.2,6.9,40.5,10.5,60.6c0.1,0.6,0.3,2.6,0.2,1.1c0.1,1.3,0,2.5,0,3.8c0,5.8,0,11.5,0,17.3
			c0,6.7,0,13.4,0,20.1c0,2.2,0,4.4,0,6.6c0,0.7-0.1,3.3,0.1,1.7c-1.2,10.8-4,21.6-6,32.2c1-0.7,1.9-1.5,2.9-2.2
			c-11.6,0-23.2,0-34.8,0c1,1,2,2,3,3c0-21,0-42,0-62.9c0-18-1.2-36.1-1.8-54c-0.3-9.4-0.7-18.8-1-28.2c-1,1-2,2-3,3
			c11,0,21.9,0,32.9,0c3.9,0,3.9-6,0-6c-11,0-21.9,0-32.9,0c-1.6,0-3.1,1.4-3,3c1.4,38.1,2.9,76,2.9,114.1c0,10.4,0,20.7,0,31.1
			c0,1.6,1.4,3,3,3c11.6,0,23.2,0,34.8,0c1.2,0,2.7-0.9,2.9-2.2c1.9-10.4,3.9-20.7,5.8-31.1c1.4-8.1,0.3-17.1,0.3-25.3
			c0-9.2,0.9-19-0.1-28.1c-1.1-9.9-3.4-19.8-5.1-29.6c-1.9-10.9-3.8-21.8-5.7-32.7C211.4,491.8,205.7,493.4,206.3,497.2z"/>
	</g>
</g>
<g>
	<polygon class="st0" points="209.2,496.4 242.8,458 287.2,477.2 342.4,477.2 395.2,471.2 409.6,458 442,495.2 444.4,538.4 
		445.6,587.6 445.6,618.8 434.8,641.6 389.2,684.8 344.8,700.4 294.4,700.4 240.4,674 214,641.6 220,601.4 220,558.8 	"/>
	<g>
		<path d="M211.3,498.5c11.2-12.8,22.4-25.6,33.6-38.4c-1.2,0.2-2.4,0.3-3.6,0.5c12.1,5.2,24.2,10.4,36.2,15.7
			c3.2,1.4,6.7,3.6,10.2,3.9c5.3,0.6,11,0,16.4,0c12.7,0,25.6,0.7,38.3,0c13.1-0.7,26.2-3,39.2-4.5c3.4-0.4,6.9-0.8,10.3-1.2
			c1.9-0.2,3.7-0.2,5.3-1.2c5.2-3.4,9.8-9,14.4-13.2c-1.4,0-2.8,0-4.2,0c4.7,5.4,9.5,10.9,14.2,16.3c3.5,4,7,8,10.4,12
			c2.2,2.6,4.4,5.7,6.9,7.9c2,1.8-1.3-0.2-0.1-1.1c-0.2,0.2,0.2,2.9,0.2,3.2c0.3,4.6,0.5,9.2,0.8,13.8c0.5,8.5,1.1,17.1,1.4,25.6
			c0.7,15.6,0.8,31.2,1.2,46.7c0.1,6,0.1,12,0.1,18c0,4.7,0,9.3,0,14c0,1.8-0.6,2.5,0.4,0.7c-0.7,1.2-1.2,2.5-1.8,3.8
			c-2.3,4.8-4.5,9.5-6.8,14.3c-0.7,1.4-1.2,2.9-2,4.2c-0.3,0.6,0.7-0.6-0.4,0.5c-5.5,5.4-11.2,10.6-16.7,15.9
			c-7.5,7.1-15,14.2-22.5,21.3c-1.5,1.5-4.4,3.3-5.4,5.1c-0.4,0.7,1.7-0.3,0.5-0.3c-1,0-2.4,0.9-3.4,1.2
			c-9.6,3.4-19.1,6.7-28.7,10.1c-3.5,1.2-7,2.3-10.4,3.7c-0.5,0.2-2.3,0.6-0.7,0.4c-0.8,0.1-1.7,0-2.6,0c-9.5,0-19,0-28.5,0
			c-4.6,0-9.2,0-13.8,0c-1.3,0-2.7-0.1-4.1,0c-1.8,0.2-1-0.3,0,0.3c-5.6-3.7-12.5-6.1-18.5-9.1c-9.2-4.5-18.5-9-27.7-13.5
			c-2.4-1.2-4.9-2.1-7.2-3.5c-1.1-0.6,0.6,0.7-0.2-0.1c-0.9-1-1.7-2.1-2.6-3.2c-6.3-7.8-12.7-15.5-19-23.3c-1.5-1.8-3-3.7-4.5-5.5
			c0.3,1,0.5,1.9,0.8,2.9c1.6-10.7,3.2-21.4,4.8-32.2c1.2-7.9,1.3-15.2,1.3-23.3c0-9.5,1-19.7-0.1-29.2c-1.2-9.9-3.4-19.7-5.1-29.5
			c-1.9-10.9-3.8-21.8-5.7-32.7c-0.7-3.8-6.4-2.2-5.8,1.6c1.7,9.9,3.4,19.8,5.1,29.7c1.9,10.7,4.3,21.5,5.6,32.4
			c0.1,0.9-0.1-0.8-0.1-0.4c0,0.6,0,1.1,0,1.7c-0.1,2.7,0,5.4,0,8c0,7,0,14.1,0,21.1c0,2.8,0,5.5,0,8.3c0,0.7,0,4.3,0.1,2.7
			c-0.4,4.7-1.4,9.5-2.1,14.1c-1,6.9-2,13.7-3.1,20.6c-0.5,3.2-1.6,6.1,0.4,8.9c7.2,9.7,15.4,18.9,23,28.3c1.6,2,2.7,3.6,5,4.8
			c4.3,2.2,8.7,4.3,13.1,6.4c12,5.9,24,11.7,36,17.6c2,1,3.6,1.9,5.8,2.1c5.1,0.4,10.4,0,15.5,0c7.2,0,14.4,0,21.6,0
			c4,0,8.3,0.5,12.2,0c3.2-0.4,6.5-2.1,9.5-3.1c6.5-2.3,13.1-4.6,19.6-6.9c5.1-1.8,10.3-3.3,15.3-5.4c2.2-0.9,3.5-2.3,5.3-4
			c9.5-9,19-18,28.5-27c5.5-5.2,12.7-10.1,16-17.1c2.8-6,5.7-12,8.5-18c1.5-3.2,1.1-6.2,1.1-9.7c0-9.5,0.1-19-0.1-28.6
			c-0.5-21.1-0.9-42.2-2.1-63.3c-0.4-6.9-0.8-13.7-1.1-20.6c-0.2-2.9,0-5.1-1.8-7.4c-7.7-9.9-16.6-19-24.8-28.5
			c-2.3-2.6-4.6-5.3-6.9-7.9c-1.1-1.3-3.1-1-4.2,0c-1.9,1.8-3.8,3.5-5.8,5.3c-2.5,2.3-6,4.6-7.9,7.3c-1.2,1.6,0.8-0.4,1.2-0.2
			c-0.3-0.2-1.5,0.2-1.8,0.2c-2.7,0.3-5.4,0.6-8.1,0.9c-13.9,1.6-27.8,3.6-41.8,4.7c-10.7,0.8-21.7,0.1-32.4,0.1
			c-6.8,0-13.7,0-20.5,0c-0.7,0-1.7-0.2-2.4,0c-1.2,0.3-0.1,0,0.7,0.4c-1.6-0.7-3.2-1.4-4.8-2.1c-13.2-5.7-26.4-11.4-39.5-17.1
			c-1.2-0.5-2.7-0.6-3.6,0.5c-11.2,12.8-22.4,25.6-33.6,38.4C204.5,497.2,208.8,501.4,211.3,498.5z"/>
	</g>
</g>
<g>
	<g>
		<path d="M572.8,493.4c29.5,0,59.1,0,88.6,0c4.2,0,8.4,0,12.6,0c-1-1-2-2-3-3c0,42.1,0,84.1,0,126.2c0,5.9,0,11.9,0,17.8
			c1-1,2-2,3-3c-29.5,0-59.1,0-88.6,0c-4.2,0-8.4,0-12.6,0c1,1,2,2,3,3c0-37,0-74,0-111c0-11,0-22,0-33c0-3.9-6-3.9-6,0
			c0,36.2,0,72.3,0,108.5c0,11.8,0,23.7,0,35.5c0,1.6,1.4,3,3,3c29.5,0,59.1,0,88.6,0c4.2,0,8.4,0,12.6,0c1.6,0,3-1.4,3-3
			c0-42.1,0-84.1,0-126.2c0-5.9,0-11.9,0-17.8c0-1.6-1.4-3-3-3c-29.5,0-59.1,0-88.6,0c-4.2,0-8.4,0-12.6,0
			C568.9,487.4,568.9,493.4,572.8,493.4z"/>
	</g>
</g>
<g>
	<g>
		<path d="M434.8,644.6c19.2,0,38.4,0,57.6,0c1.3,0,2.6-0.9,2.9-2.2c1.5-6.8,3-13.7,4.6-20.5c1-4.6,2.6-9.3,2.7-14
			c0.4-16.1,0-32.3,0-48.5c0-3.5,0.3-7.2-0.3-10.6c-1.2-6.8-3-13.6-4.5-20.4c-1.9-8.8-3.9-17.5-5.8-26.3c-0.4-2-0.6-4.4-1.4-6.3
			c-1-2.3-3.3-2.7-5.5-3.6c-3.8-1.4-8.1-3.9-12.1-4.6c-2.4-0.4-5.4,0.6-7.7,1c-8.1,1.3-16.1,2.6-24.2,4c-1.2,0.2-2.3,1.7-2.2,2.9
			c1.2,21.2,2.4,42.3,3.6,63.5c1.1,18.9,0.2,38,0.2,56.8c0,0.7-0.2,1.6,0,2.3c0.2,1-0.7,1.4,0.4-0.7c-1,2-1.9,4.1-2.9,6.1
			c-2.6,5.5-5.2,11.1-7.9,16.6c-1.6,3.5,3.5,6.5,5.2,3c2.2-4.7,4.4-9.4,6.7-14.1c1.5-3.2,4.1-7,4.5-10.6c0.5-4,0-8.3,0-12.2
			c0-7,0-14,0-21c0-19-0.8-37.7-1.9-56.7c-0.6-11-1.2-22-1.9-33c-0.7,1-1.5,1.9-2.2,2.9c8.6-1.4,17.2-2.8,25.7-4.2
			c1.4-0.2,2.9-0.3,4.2-0.7c0.6-0.2-1.4-0.5-0.8,0.1c0.4,0.5,1.9,0.7,2.5,1c4.2,1.6,8.4,3.2,12.5,4.8c-0.7-0.7-1.4-1.4-2.1-2.1
			c2.1,9.5,4.2,19,6.3,28.5c1.4,6.2,2.8,12.5,4.2,18.7c0.4,1.8,0.8,3.6,1.2,5.4c0.1,0.4,0.2,0.8,0.3,1.2c0.1,0.6-0.1-1.2-0.1-0.2
			c0.5,10.5,0,21.1,0,31.5c0,6.2,0,12.4,0,18.6c0,2,0,4,0,6c0,0.5-0.1,3.2,0.1,1.6c-1.5,10.8-4.8,21.6-7.2,32.3
			c1-0.7,1.9-1.5,2.9-2.2c-19.2,0-38.4,0-57.6,0C430.9,638.6,430.9,644.6,434.8,644.6z"/>
	</g>
</g>
<g>
	<path class="st0" d="M522.4,428l20.4,68.4v78c2.4,1.5-6,84.9-7.2,88.8c-1.6,5.3-11.8,37.7-13.2,37.2h31.2l13.2-31.2l7.2-34.8V569
		v-78.6L554.8,428H522.4z"/>
	<g>
		<path d="M519.5,428.8c5.5,18.4,11,36.7,16.4,55.1c1.1,3.8,2.2,7.5,3.4,11.3c0.2,0.6,0.4,1.3,0.6,1.9c-0.2-1.3-0.1-0.1-0.1,0.6
			c-0.4,9.1,0,18.2,0,27.3c0,12,0,23.9,0,35.9c0,3.8,0,7.6,0,11.4c0,0.6-0.1,1.4,0,2c0.1,0.7,0.5,1.3,0.6,1.9
			c0.1,0.3-0.3-0.8-0.3-0.6c-0.3,0.8,0.1,2.6,0.1,3.4c0,2-0.1,4-0.2,6c-0.3,5.5-0.7,10.9-1.1,16.4c-1,12.8-2.2,25.5-3.5,38.3
			c-0.8,7.8-0.9,16.3-3.1,23.9c-1.9,6.4-4,12.7-6.2,19.1c-1.2,3.5-2.3,6.9-3.6,10.4c-0.4,1.2-0.9,2.4-1.4,3.5
			c-0.1,0.3-0.4,0.7-0.5,1c-0.2,1.6-2.4,0.1,1.7-0.2c-3.8,0.3-3.9,6,0,6c10.4,0,20.8,0,31.2,0c1,0,2.2-0.5,2.6-1.5
			c4-9.5,8-18.9,12-28.3c3.3-7.8,4.2-16.6,5.9-24.8c1.4-6.6,2.9-12.8,2.9-19.5c0-12,0-23.9,0-35.9c0-15.7,0-31.4,0-47.1
			c0-13.1,0-26.1,0-39.2c0-5.7,0.9-12.3-0.3-17.9c-2.3-11-6.7-21.9-10-32.6c-3-9.8-6-19.5-9-29.3c-0.4-1.3-1.5-2.2-2.9-2.2
			c-10.8,0-21.6,0-32.4,0c-3.9,0-3.9,6,0,6c10.8,0,21.6,0,32.4,0c-1-0.7-1.9-1.5-2.9-2.2c5.9,19.3,11.9,38.6,17.8,58
			c0.4,1.2,0.7,2.4,1.1,3.5c0.5,1.7,0.1-0.4,0.2,0.5c0.2,2.9,0,5.8,0,8.7c0,12.4,0,24.8,0,37.2c0,15.3,0,30.6,0,45.9
			c0,12.8,0,25.5,0,38.3c0,4-0.1,8,0,12c0,0.6-0.1,2.4,0.1,0.9c-0.2,1.5-0.6,3.1-1,4.6c-1.4,6.7-2.8,13.4-4.2,20.2
			c-0.6,2.8-1.3,5.5-1.7,8.3c-0.1,0.5-0.2,1-0.3,1.5c0.2-0.7,0.2-0.6-0.1,0.3c-3.8,10.3-8.6,20.3-12.8,30.4c0.9-0.5,1.7-1,2.6-1.5
			c-10.4,0-20.8,0-31.2,0c0,2,0,4,0,6c3.7-0.3,4.9-5.9,6-8.8c2.4-6.4,4.5-13,6.6-19.5c2.4-7.3,4.1-13.8,4.9-21.4
			c2.8-23.7,5.4-47.8,6.2-71.7c0.1-2.7,0.3-5.5-0.3-8.2c0-0.1-0.6-1.6-0.9-1.6c0.3,0.7,0.5,1.4,0.8,2.1c0,0,0-0.1,0-0.1
			c0,0,0-0.3,0-0.3c0.4-0.6,0-2.7,0-3.3c0-10.9,0-21.8,0-32.8c0-11.6,0-23.2,0-34.9c0-4.7-0.3-8-1.6-12.5
			c-6.3-21.1-12.6-42.2-18.9-63.3C524.2,423.5,518.4,425.1,519.5,428.8z"/>
	</g>
</g>
<g>
	<polygon class="st1" points="492.3,428 511.5,496.4 516.3,602 499.5,670.4 492.3,700.4 522.3,700.4 533.7,668.4 541.6,605.9 
		542.7,496.4 522.3,428 	"/>
	<g>
		<path d="M489.4,428.8c5.5,19.6,11,39.3,16.5,58.9c0.8,3,1.8,6,2.5,9c0.3,1.1-0.1-1.1,0,0.1c0.1,0.8,0.1,1.7,0.1,2.6
			c0.4,9.3,0.8,18.7,1.3,28c1.1,23.2,2.1,46.4,3.2,69.6c0.1,1.2,0.1,2.4,0.2,3.6c0,0.3,0,2,0.1,1.1c0.1-0.9-0.3,1-0.4,1.3
			c-0.5,1.8-0.9,3.5-1.3,5.3c-2.9,11.8-5.8,23.6-8.7,35.4c-4.6,18.7-9.1,37.4-13.6,56c-0.5,1.9,0.9,3.8,2.9,3.8c10,0,20,0,30,0
			c1.4,0,2.4-0.9,2.9-2.2c3.4-9.6,6.8-19.2,10.3-28.8c2.1-6,2.3-12.5,3.1-18.8c1.6-12.7,3.2-25.4,4.8-38.1c0.6-4.4,1.2-8.6,1.2-13
			c0.2-22.7,0.5-45.3,0.7-68c0.1-10.5,0.2-21,0.3-31.6c0-4.2,0-7.2-1.2-11.2c-6.4-21.5-12.8-43-19.3-64.6c-0.4-1.3-1.6-2.2-2.9-2.2
			c-10,0-20,0-30,0c-3.9,0-3.9,6,0,6c10,0,20,0,30,0c-1-0.7-1.9-1.5-2.9-2.2c5.8,19.5,11.6,38.9,17.4,58.4c0.9,3.1,2,6.2,2.8,9.4
			c0.3,1.3,0-0.7,0.1,0.1c0,0.7,0,1.5,0,2.3c-0.1,8.9-0.2,17.8-0.3,26.7c-0.2,24-0.5,47.9-0.7,71.9c-0.2,15.3-2.9,30.4-4.8,45.5
			c-0.8,6.3-1.6,12.6-2.4,18.8c-0.2,1.8-0.4,3.7-0.7,5.5c-0.3,1.9,0.3-0.6-0.3,1c-3.9,10.3-7.4,20.8-11.1,31.2
			c1-0.7,1.9-1.5,2.9-2.2c-10,0-20,0-30,0c1,1.3,1.9,2.5,2.9,3.8c3.8-15.8,7.6-31.6,11.5-47.4c3.1-12.7,6.2-25.3,9.3-38
			c1.2-4.8,3.3-10.1,3.2-15.1c-0.3-21.4-2-42.9-2.9-64.3c-0.5-10.9-1-21.8-1.5-32.7c-0.2-4.1-0.3-7.6-1.4-11.5
			c-6.1-21.7-12.2-43.3-18.2-65C494.2,423.5,488.4,425.1,489.4,428.8z"/>
	</g>
</g>
<g>
	<g>
		<path d="M469.7,642.4c6.6,19.6,13.2,39.2,19.8,58.8c0.9,2.7,5,3,5.8,0c4.7-18.2,9.3-36.3,14-54.5c2.9-11.4,5.9-22.9,8.8-34.3
			c1-3.8,2.6-7.8,2.5-11.7c-0.5-21.4-2.4-42.9-3.7-64.3c-0.6-10.9-1.2-21.8-1.9-32.7c-0.2-4-0.4-7.6-1.5-11.5
			c-6.1-21.6-12.1-43.2-18.2-64.8c-0.7-2.6-4.1-2.8-5.5-0.7c-7.5,11-15,22-22.5,32.9c-0.9,1.2-2.2,2.6-2.8,4
			c-0.8,1.9,0.1,4.1,0.5,6.1c0.9,4.1,1.7,8.1,2.6,12.2c0.6,2.8,0.8,6.3,1.9,8.9c1,2.6,3.9,3.1,6.4,4.1c3.5,1.4,6.9,2.8,10.4,4.3
			c-0.7-0.7-1.4-1.4-2.1-2.1c2.1,9.3,4.3,18.6,6.4,28c1.5,6.3,2.9,12.7,4.4,19c0.4,1.8,0.8,3.5,1.2,5.3c0.2,0.9,0.4,2.3,0.3,1.1
			c0.6,10.1,0,20.5,0,30.7c0,6.5,0,13.1,0,19.6c0,1.9,0,3.9,0,5.8c0,0.5-0.1,3.5,0.1,1.7c-1.4,10.8-4.8,21.7-7.2,32.4
			c1-0.7,1.9-1.5,2.9-2.2c-6.6,0-13.2,0-19.8,0c-3.9,0-3.9,6,0,6c6.6,0,13.2,0,19.8,0c1.3,0,2.6-0.9,2.9-2.2
			c2.4-10.7,5.8-21.6,7.2-32.4c0.5-3.4,0.1-7.1,0.1-10.5c0-7.7,0-15.4,0-23.1c0-7,0-13.9,0-20.9c0-2.3,0.1-4.6-0.4-6.9
			c-2.6-13-6-26-8.9-38.9c-1-4.3-1.3-9.9-3.2-14c-1.2-2.6-5.2-3.4-7.6-4.4c-3-1.2-6.1-2.5-9.1-3.7c0.7,0.7,1.4,1.4,2.1,2.1
			c-1.4-6.5-2.8-13-4.2-19.5c-0.3-1.3-0.4-2.8-0.9-4.1c-1.1-3.1,0.9,0.6-0.6,0.6c0.6,0,2.7-4,3.1-4.5c7.4-10.8,14.7-21.6,22.1-32.4
			c-1.8-0.2-3.7-0.5-5.5-0.7c5.5,19.6,11,39.2,16.5,58.8c0.8,3,1.8,6,2.5,9c0.3,1.1-0.1-1.1,0,0.1c0.1,0.8,0.1,1.7,0.1,2.6
			c0.5,9.3,1.1,18.7,1.6,28c1.3,23.2,2.6,46.4,4,69.6c0.1,1.2,0.1,2.4,0.2,3.6c0,0.3,0.1,2,0.1,1c0.1-0.9-0.2,0.5-0.3,0.8
			c-0.4,1.3-0.7,2.6-1,3.8c-2.5,10-5.1,19.9-7.6,29.9c-5.4,21.2-10.8,42.3-16.3,63.5c1.9,0,3.9,0,5.8,0
			c-6.6-19.6-13.2-39.2-19.8-58.8C474.3,637.2,468.5,638.7,469.7,642.4z"/>
	</g>
</g>
<g>
	<polygon class="st1" points="242.8,457.7 242.8,427.7 326.8,433.7 390.4,428.9 410.8,427.7 410.8,457.7 395.2,470.9 350,476 
		287.2,475.7 	"/>
	<g>
		<path d="M245.8,457.7c0-10,0-20,0-30c-1,1-2,2-3,3c24.5,1.8,49,3.5,73.6,5.3c21.1,1.5,42.3-1.7,63.4-3.2c10.4-0.8,20.7-1.4,31.1-2
			c-1-1-2-2-3-3c0,7.4,0,14.8,0,22.2c0,1.8,0,3.7,0,5.5c0,0.4-0.2,1.2,0,1.6c0.7,1.6,0.5-1.8,0.8-1.4c0-0.1-7.9,6.7-8.5,7.2
			c-1.6,1.3-3.2,2.7-4.7,4c-0.5,0.4-1.2,0.8-1.6,1.3c-1.4,1.7,0.2-1.8,1.3-0.3c-0.3-0.4-5.9,0.7-6.4,0.7c-9.1,1-18.2,2.1-27.4,3.1
			c-11.2,1.3-22,1.2-33.4,1.2c-9.5-0.1-18.9-0.1-28.4-0.2c-3.2,0-6.4,0-9.6-0.1c-0.7,0-1.5,0.1-2.3,0c-1.2-0.1,0.9,0.3-0.1-0.1
			c-14.9-5-29.4-11.9-44-17.8c-3.6-1.5-5.1,4.4-1.6,5.8c14,5.7,28,11.4,42.1,17.1c3.5,1.4,6.9,1.1,10.6,1.1c9.3,0,18.6,0.1,27.9,0.1
			c11.9,0.1,23.7,0.6,35.5-0.8c9.6-1.1,19.2-2.2,28.8-3.3c2.6-0.3,5.3-0.4,8-0.9c2.4-0.4,3.9-2,5.7-3.6c3.8-3.2,7.7-6.3,11.3-9.6
			c2.2-2,2-3.7,2-6.5c0-8.8,0-17.7,0-26.5c0-1.6-1.4-3.1-3-3c-23.7,1.4-47.3,3.2-70.9,5c-6.8,0.5-13,1-19.8,0.5
			c-14.2-1-28.5-2-42.7-3.1c-11.5-0.8-23.1-1.6-34.6-2.5c-1.6-0.1-3,1.5-3,3c0,10,0,20,0,30C239.8,461.5,245.8,461.5,245.8,457.7z"
			/>
	</g>
</g>
<g>
	<polygon class="st0" points="188.8,258.2 244,277.4 318.4,287 414.4,275 463.6,264.2 463.6,288.2 442,305 407.2,313.4 315.9,319.2 
		263.2,315.8 239.2,313.4 194.8,295.4 188.8,288.2 	"/>
	<g>
		<path d="M188,261.1c8.6,3,17.1,6,25.7,8.9c9.6,3.3,19.2,7.5,29,10.1c6.1,1.6,12.9,1.8,19.2,2.6c12.9,1.7,25.8,3.3,38.7,5
			c5.9,0.8,12.3,2.4,18.2,2.3c7.6-0.2,15.5-1.9,23-2.9c23.1-2.9,46.2-5.8,69.4-8.7c17.9-2.2,35.6-7.4,53.2-11.3
			c-1.3-1-2.5-1.9-3.8-2.9c0,6.2,0,12.4,0,18.6c0,1.3-0.2,2.8,0,4.1c0.4,2.5,0-0.7,0.7-0.7c-1.2-0.1-5.1,4-6.1,4.7
			c-5,3.9-10,8-15.2,11.8c0.6-0.5,1.7-0.5,0.3-0.5c-1,0-2.2,0.5-3.2,0.8c-3.5,0.8-7,1.7-10.4,2.5c-6.5,1.6-13,3.1-19.4,4.7
			c-1.6,0.4,0.8,0-1,0.2c-1.6,0.1-3.1,0.2-4.7,0.3c-14,0.9-28,1.8-41.9,2.7c-13.3,0.8-26.6,1.7-39.9,2.5c-7.9,0.5-15.9-0.5-23.8-1
			c-11.1-0.7-22.2-1.2-33.3-2.2c-6.7-0.6-13.4-1.3-20.2-2c-0.9-0.1-2-0.1-2.9-0.3c-0.5-0.1,1,0.3-0.1-0.2c-2-0.8-4-1.6-6-2.4
			c-12.3-5-24.7-10.9-37.3-15.1c-1.1-0.4,0.7,1.2,0.4,0c-0.5-1.4-2.5-3-3.4-4.1c-0.5-0.5-0.9-1.4-1.5-1.8c-1.8-1.4,0.9,1.2,0.3,1.3
			c0.1,0,0-2.1,0-2.2c0-7.4,0-14.7,0-22.1c0-1.9,0-3.8,0-5.7c0-3.9-6-3.9-6,0c0,6.2,0,12.3,0,18.5c0,4.9-1.3,11,1.9,14.9
			c1.9,2.3,3.7,5.3,6.3,6.7c1.1,0.6,2.4,1,3.6,1.4c7,2.8,14,5.7,21,8.5c6.2,2.5,12.3,5.3,18.5,7.5c4.1,1.5,8.9,1.3,13.2,1.8
			c10.5,1.1,21,1.8,31.5,2.5c11.4,0.7,23,2.3,34.4,2.2c10.9-0.1,21.8-1.4,32.7-2.1c15.7-1,31.3-2,47-3c3.7-0.2,7.5-0.3,11.1-0.7
			c4.1-0.5,8.3-1.9,12.3-2.8c7.2-1.7,14.5-3.4,21.7-5.2c4.1-1,7.2-4.4,10.5-7c3.1-2.4,6.2-4.8,9.3-7.2c1.5-1.1,3.8-2.4,4.9-3.8
			c1.4-1.7,0.9-4.5,0.9-6.6c0-4.1,0-8.2,0-12.3c0-2.4,0-4.8,0-7.1c0-2-1.9-3.3-3.8-2.9c-9.2,2-18.3,4-27.5,6
			c-5.8,1.3-11.5,2.5-17.3,3.8c-1.3,0.3-2.7,0.6-4,0.9c-1,0.2,1.2-0.2-0.2,0.1c-21,3.1-42.3,5.3-63.4,7.9c-9.7,1.2-19.3,2.4-29,3.6
			c-4.3,0.5-8.3-0.3-12.7-0.9c-12.4-1.6-24.9-3.2-37.3-4.8c-8.9-1.1-18.1-1.7-26.9-3.5c-0.9-0.2,0.9,0.3-0.7-0.3
			c-1.7-0.7-3.5-1.2-5.3-1.8c-6.3-2.2-12.6-4.4-19-6.6c-10-3.5-20-6.9-29.9-10.4C185.9,254,184.4,259.8,188,261.1z"/>
	</g>
</g>
<g>
	<polygon class="st0" points="411.4,207.2 463,227.6 457,245.6 406.6,258.8 314.2,258.8 238.6,250.4 188.2,232.4 215.8,207.2 
		238.6,207.2 261.4,225.2 322.6,242 395.8,232.4 	"/>
	<g>
		<path d="M410.6,210.1c17.2,6.8,34.4,13.6,51.6,20.4c-0.7-1.2-1.4-2.5-2.1-3.7c-2,6-4,12-6,18c0.7-0.7,1.4-1.4,2.1-2.1
			c-8.7,2.3-17.4,4.6-26.2,6.9c-5.7,1.5-11.5,3-17.2,4.5c-1.7,0.5-3.5,0.9-5.2,1.4c-0.7,0.2-2.7,0.5-1.1,0.4c-6.9,0.5-14,0-20.9,0
			c-12.8,0-25.6,0-38.4,0c-13.8,0-27.7,0.6-41.4-0.9c-21.8-2.4-43.5-4.9-65.3-7.3c-0.6-0.1-2.6-0.6-1.1-0.1
			c-1.1-0.3-2.3-0.8-3.4-1.2c-5.7-2-11.4-4.1-17.1-6.1c-9.9-3.6-19.9-7.1-29.8-10.7c0.4,1.7,0.9,3.3,1.3,5
			c6.9-6.3,13.8-12.6,20.8-19c1.7-1.5,3.3-3,5-4.6c0.4-0.4,1-0.7,1.2-1.1c1.1-1.7-0.3,1.6-1.3,0.3c0.4,0.5,4.4,0,5.1,0
			c3.1,0,6.3,0,9.4,0c2.1,0,4.7,0.4,6.8,0c0,0,0.7,0.1,0.8,0c0.1,0,0.2,0,0.3,0c0.9,0,0.3-0.3-1.9-0.9c0,0,1.1,0.8,1.1,0.9
			c3.8,3.6,8.4,6.7,12.6,9.9c3,2.3,5.9,5.2,9.1,7.2c2,1.2,4.4,1.6,6.7,2.2c10.9,3,21.9,6,32.8,9c5.2,1.4,10.3,2.8,15.5,4.3
			c2.4,0.7,5,1.7,7.4,2c1.7,0.2,3.3-0.2,5-0.4c4.5-0.6,9-1.2,13.5-1.8c12.2-1.6,24.4-3.2,36.5-4.8c5-0.6,9.9-1.3,14.9-1.9
			c2.4-0.3,5.1-0.2,6.8-2.1c3.2-3.6,5.5-8.8,8-12.9c2.5-4.1,5-8.1,7.5-12.2c2-3.3-3.2-6.3-5.2-3c-5.2,8.4-10.4,16.8-15.6,25.2
			c0.9-0.5,1.7-1,2.6-1.5c-16.3,2.1-32.5,4.3-48.8,6.4c-7.6,1-15.4,1.6-22.9,3c-0.5,0.1-1,0.2-1.5,0.2c1.4,0,0.1,0-0.6-0.3
			c-3.1-1-6.2-1.7-9.3-2.6c-10.1-2.8-20.2-5.5-30.3-8.3c-6.5-1.8-13.4-4.7-20.1-5.5c0.9,0.1,1.5,1.1,0-0.2c-1.6-1.4-3.3-2.6-5-3.9
			c-4.2-3.3-8.3-6.6-12.5-9.9c-2-1.6-4-3.8-6.5-4.2c-4-0.6-8.6,0-12.6,0c-3.5,0-9-1.1-12.1,0.9c-2.5,1.6-4.7,4.3-6.8,6.2
			c-6.9,6.3-13.8,12.6-20.8,19c-1.8,1.6-0.7,4.3,1.3,5c9.5,3.4,19,6.8,28.5,10.2c7.5,2.7,15.5,6.8,23.3,8c22.4,3.5,45.2,5,67.8,7.5
			c16.5,1.8,33.4,0.8,50,0.8c13.1,0,26.2,0,39.3,0c5.3,0,10,0.2,15.1-1.1c13.6-3.6,27.2-7.1,40.8-10.7c3.5-0.9,6.7-0.9,8.1-4.5
			c2.2-5.5,3.8-11.4,5.7-17.1c0.6-1.7-0.7-3.1-2.1-3.7c-17.2-6.8-34.4-13.6-51.6-20.4C408.6,202.9,407,208.7,410.6,210.1z"/>
	</g>
</g>
<g>
	<polygon class="st1" points="462,264.9 415.6,275.6 314.2,287.6 239,276.2 187.6,258.8 187.6,232.4 238,250.4 322.6,258.8 
		406,258.8 456.4,245.6 461.2,230 	"/>
	<g>
		<path d="M461.2,262c-9.3,2.1-18.7,4.3-28,6.4c-5.3,1.2-10.6,2.4-16,3.7c-0.5,0.1-3.5,0.8-1.7,0.5c-0.5,0.1-1,0.1-1.5,0.2
			c-21.8,2.5-43.5,5.1-65.3,7.7c-10.1,1.2-20.1,2.4-30.2,3.6c-1.1,0.1-2.2,0.2-3.2,0.4c-0.4,0.1-2.2,0.2-0.5,0.2
			c-2.4,0-5-0.8-7.4-1.1c-22-3.3-44-6.4-65.9-10c-7.6-1.2-15.1-4.8-22.3-7.2c-10.3-3.5-20.5-7-30.8-10.4c0.7,1,1.5,1.9,2.2,2.9
			c0-8.8,0-17.6,0-26.4c-1.3,1-2.5,1.9-3.8,2.9c9.5,3.4,19,6.8,28.5,10.2c7.4,2.6,15.4,6.8,23.1,8c8.8,1.4,18,1.8,26.9,2.7
			c13.7,1.4,27.4,2.7,41.1,4.1c5.7,0.6,11.4,1.4,17.1,1.6c9.7,0.3,19.5,0,29.2,0c13.4,0,26.7,0,40.1,0c5.4,0,11.2,0.7,16.4-0.7
			c13.4-3.5,26.8-7,40.1-10.5c3.1-0.8,8.5-1.1,10.2-4.2c2.4-4.6,3.3-10.6,4.8-15.6c-2-0.3-3.9-0.5-5.9-0.8
			c0.3,11.6,0.5,23.3,0.8,34.9c0.1,3.9,6.1,3.9,6,0c-0.3-11.6-0.5-23.3-0.8-34.9c-0.1-3.4-4.9-4.1-5.9-0.8
			c-1.6,5.2-3.2,10.4-4.8,15.6c0.7-0.7,1.4-1.4,2.1-2.1c-8.7,2.3-17.4,4.6-26.2,6.9c-5.7,1.5-11.5,3-17.2,4.5
			c-1.7,0.5-3.5,0.9-5.2,1.4c-0.7,0.2-2.7,0.5-1.2,0.4c-7.3,0.6-15,0-22.4,0c-12.8,0-25.6,0-38.4,0c-7.4,0-14.9,0.3-22.4,0
			c-5.8-0.3-11.5-1.1-17.3-1.7c-22-2.2-43.9-4.5-65.9-6.5c-0.7-0.1-2.4-0.5-0.9-0.1c-1.1-0.3-2.3-0.8-3.4-1.2
			c-5.7-2-11.4-4.1-17.1-6.1c-9.9-3.6-19.9-7.1-29.8-10.7c-1.9-0.7-3.8,1.1-3.8,2.9c0,8.8,0,17.6,0,26.4c0,1.4,0.9,2.5,2.2,2.9
			c8.9,3,17.7,6,26.6,9c8.1,2.8,16.4,6.4,24.8,8.4c7.7,1.9,15.9,2.4,23.7,3.6c12.7,1.9,25.4,3.8,38.1,5.8c4.9,0.7,10.3,2.3,15.4,2
			c8.3-0.5,16.7-2,24.9-2.9c23.6-2.8,47.2-5.6,70.7-8.4c17.5-2.1,34.8-7.4,51.9-11.3C466.6,266.9,465,261.2,461.2,262z"/>
	</g>
</g>
<g>
	<g>
		<path d="M241.5,208c1.6-9.6,3.2-19.2,4.8-28.8c-0.7,0.7-1.4,1.4-2.1,2.1c6.5-2.2,13.1-4.5,19.6-6.7c7.3-2.5,14.7-5.7,22.2-7.6
			c-0.1,0-1,0.1,0.2,0c1.2,0,2.3,0,3.5,0c4,0,8,0,12,0c10.2,0,20.4,0,30.6,0c3.1,0,6.2,0.1,9.4,0c0.2,0,1.9,0,1-0.1
			c-0.9-0.1,1.1,0.2,1.4,0.3c8.3,1.8,16.7,3.4,25.1,5.1c7.9,1.6,16.4,4.4,24.5,5c3.2,0.2-1.1-0.3-0.3-1c-0.1,0.1,3.1,4.4,3.3,4.7
			c1.3,1.9,2.6,3.8,3.9,5.6c0.3,0.5,0.8,1,1.1,1.5c-0.5-0.9-0.1-0.2,0.1,0.4c1.9,4.8,3.4,9.7,5.1,14.5c0.1,0.4,1.2,4.6,1.7,4.8
			c-2.7-0.6,1.5-2.8,0-1.6c-0.4,0.3-0.8,1.3-1.1,1.8c-4.7,7.6-9.4,15.2-14.1,22.8c0.9-0.5,1.7-1,2.6-1.5c-23.3,3.1-46.7,6.1-70,9.2
			c-1,0.1-2.1,0.4-3.1,0.4c1.6,0-1.2-0.4-1.9-0.6c-5.6-1.5-11.2-3.1-16.7-4.6c-13.1-3.6-26.1-7.2-39.2-10.8
			c-0.6-0.2-1.5-0.6-2.1-0.6c-1.3,0,1.3,1.1,0.5,0.4c-2-1.9-4.4-3.5-6.5-5.2c-5.3-4.2-10.6-8.4-15.9-12.6c-3-2.4-7.3,1.9-4.2,4.2
			c5.7,4.5,11.3,8.9,17,13.4c3.5,2.7,6,5,10.2,6.2c16.1,4.4,32.1,8.8,48.2,13.2c3.4,0.9,7.4,2.7,11,2.8c5,0.1,10.4-1.4,15.3-2
			c17.3-2.3,34.6-4.5,51.9-6.8c3.8-0.5,7-0.2,9.2-3.7c4.4-7,8.7-14.1,13.1-21.1c1.1-1.8,2.2-3.1,1.8-5.3c-0.6-3.4-2.5-7.1-3.6-10.3
			c-1.1-3.2-2-6.6-3.4-9.7c-1.3-2.9-3.6-5.4-5.4-8c-1.4-2-2.9-5.2-5.2-6.2c-1.7-0.7-4.1-0.8-5.9-1.2c-8.6-1.8-17.2-3.5-25.7-5.3
			c-6.8-1.4-13.5-3.1-20.4-4.2c-3.7-0.6-7.7-0.3-11.4-0.3c-9.2,0-18.4,0-27.7,0c-6.4,0-13-0.5-19.3,0c-4.4,0.4-8.8,2.6-12.9,4
			c-8.5,2.9-17,5.8-25.5,8.7c-1.7,0.6-3.4,1.2-5.1,1.7c-0.9,0.3-1.9,1-2.1,2.1c-1.6,9.6-3.2,19.2-4.8,28.8
			C235.1,210.2,240.9,211.8,241.5,208z"/>
	</g>
</g>
<g>
	<g>
		<path d="M241.9,181c4.8,3.1,9.6,6.1,14.5,9.2c4,2.6,8.8,6.9,13.5,8c3.5,0.8,7.5,0.8,11,1.2c7.6,0.8,15.3,1.7,22.9,2.5
			c7.5,0.8,15,1.6,22.4,2.4c3.1,0.3,6.5,1.1,9.6,1c3.5,0,7.1-0.8,10.5-1.2c7.5-0.9,14.9-1.8,22.4-2.7c12.6-1.5,25.3-3,37.9-4.5
			c2.2-0.3,3.8-2.4,2.6-4.5c-3.2-5.7-6.4-11.4-9.6-17.1c-2.2-3.8-4.5-3.8-8.7-4.6c-14.8-3-29.6-6.1-44.5-9.1
			c-9.7-2-20.4-0.7-30.3-0.7c-7.9,0-15.8,0-23.7,0c-3,0-6.1-0.4-9,0.5c-13.8,4.1-27.3,9.4-40.9,14c-3.6,1.2-2.1,7,1.6,5.8
			c12.2-4.2,24.4-8.4,36.6-12.6c1.7-0.6,3.5-1.4,5.3-1.8c-0.1,0-1.1,0.1-0.1,0.1c0.8-0.1,1.6,0,2.4,0c6.6,0,13.3,0,19.9,0
			c8.1,0,16.3,0,24.4,0c2.7,0,5.3,0,8,0c0.7,0,1.3,0,2,0c0.9,0-1-0.2-0.2,0c13.4,1.9,26.8,5.5,40.1,8.2c3.2,0.7,6.5,1.3,9.7,2
			c0.4,0.1,1.9,0.6,2.3,0.5c1.1-0.5-1.9-0.7-1.4-1.3c0,0,0.5,0.8,0.5,0.9c1.2,3.5,4,7.1,5.8,10.4c1.5,2.6,3,5.3,4.5,7.9
			c0.9-1.5,1.7-3,2.6-4.5c-10.6,1.3-21.3,2.5-31.9,3.8c-12.5,1.5-25.2,3.7-37.7,4.5c-8.2,0.5-17.2-1.6-25.3-2.5
			c-13.3-1.5-26.6-3.3-40-4.4c-0.6,0-1.1-0.1-1.7-0.2c0.9,0.1,1.7,0.9,0.5-0.1c-2.4-2.2-5.9-3.7-8.6-5.5
			c-5.6-3.6-11.3-7.2-16.9-10.8C241.6,173.7,238.6,178.9,241.9,181z"/>
	</g>
</g>
<g>
	<g>
		<path d="M245.8,427.4c0.3-33.1,0.7-66.1,1-99.2c0.1-4.8,0.1-9.6,0.2-14.3c-1,1-2,2-3,3c23.2,1.8,46.4,3.6,69.6,5.3
			c5.9,0.5,11.9-0.4,17.8-0.8c15-1,29.9-2,44.9-3c10.3-0.7,20.6-1.4,31-2c-1-1-2-2-3-3c1.1,33.3,2.1,66.5,3.2,99.8
			c0.1,4.7,0.3,9.5,0.4,14.2c1-1,2-2,3-3c-24.5,1.8-49,3.5-73.6,5.3c-19.9,1.4-40-1.4-59.9-2.8c-11.5-0.8-23.1-1.6-34.6-2.5
			c-3.9-0.3-3.8,5.7,0,6c24.5,1.8,49,3.5,73.6,5.3c19.9,1.4,40-1.4,59.9-2.8c11.5-0.8,23.1-1.6,34.6-2.5c1.6-0.1,3.1-1.3,3-3
			c-1.1-33.3-2.1-66.5-3.2-99.8c-0.1-4.7-0.3-9.5-0.4-14.2c0-1.5-1.3-3.1-3-3c-23.9,1.6-47.9,3.2-71.8,4.7
			c-6.7,0.4-13.5,1.4-20.2,1.2c-11.9-0.4-23.8-1.8-35.6-2.7c-11.8-0.9-23.7-1.8-35.5-2.7c-1.6-0.1-3,1.5-3,3
			c-0.3,33.1-0.7,66.1-1,99.2c-0.1,4.8-0.1,9.6-0.2,14.3C239.8,431.3,245.8,431.3,245.8,427.4z"/>
	</g>
</g>
<g>
	<g>
		<path d="M408.6,362c5.5,0.2,11.1,0.4,16.6,0.6c-1-0.7-1.9-1.5-2.9-2.2c1.4,4.3,2.7,8.7,4.3,12.9c0.2,0.5,0.6,2.1,0.4,0.7
			c0.1,0.6,0,1.3,0,1.9c0,2.8,0,5.6,0,8.4c0,2,0.2,4.2,0,6.2c0,0.2,0.2-0.9-0.1,0.3c-0.2,0.9-0.5,1.8-0.8,2.8
			c-1.3,4.4-2.5,8.8-3.8,13.2c1-0.7,1.9-1.5,2.9-2.2c-5,0-10,0-15,0c1,1,2,2,3,3c-0.5-16.2-1-32.4-1.5-48.6c-0.1-3.9-6.1-3.9-6,0
			c0.5,16.2,1,32.4,1.5,48.6c0.1,1.6,1.3,3,3,3c5,0,10,0,15,0c1.3,0,2.5-0.9,2.9-2.2c1.3-4.5,2.6-9.1,3.9-13.6c1-3.6,1-6.7,1-10.5
			c0-3.8,0.5-8.1-0.3-11.8c-1.1-4.6-3.1-9.2-4.6-13.7c-0.4-1.3-1.5-2.2-2.9-2.2c-5.5-0.2-11.1-0.4-16.6-0.6
			C404.8,355.9,404.8,361.9,408.6,362z"/>
	</g>
</g>
<g>
	<g>
		<path d="M422.1,360.4c2.4-7.6,4.8-15.2,7.2-22.8c-1.8,0.2-3.7,0.5-5.5,0.7c2.8,5.6,5.5,11.1,8.3,16.7c-0.9-1.7-0.3-1.1-0.3,0.7
			c0,1.8,0,3.7,0,5.5c0,4.3,0,8.7,0,13c0,5.4,0,10.8,0,16.3c0,3.2,0.2,6.5,0,9.7c0-0.8,0-0.1-0.2,0.9c-0.4,1.6-0.7,3.3-1,4.9
			c-0.9,4.7-1.9,9.4-2.8,14.1c-0.2,1.2-0.4,2.4-0.7,3.5c0.5-1.7,0.4-0.8-0.7,0.2c-0.7,0.7-1.4,1.4-2.1,2.1c1.4,0,2.8,0,4.2,0
			c-1.2-1.4-2.4-2.8-3.6-4.2c-0.8-1-1.7-2.1-2.6-3c-2-2,0.7,0.2-0.1,0.7c0.9-0.5,0.1-10.3,0.1-11.8c-1,1-2,2-3,3c2.4,0,4.7,0,7.1,0
			c1.3,0,2.6-0.9,2.9-2.2c1.8-8.3,3.7-16,3.7-24.6c0-3.8,0.5-7.9-0.4-11.6c-1.2-4.6-3-9-4.5-13.5c-0.4-1.3-1.5-2.2-2.9-2.2
			c-2,0-4,0-6,0c-3.9,0-3.9,6,0,6c2,0,4,0,6,0c-1-0.7-1.9-1.5-2.9-2.2c1.4,4.2,2.7,8.5,4.2,12.7c0.1,0.2,0.7,2.1,0.5,1.3
			c-0.1-0.7,0,0.9,0,1.2c-0.1,2.7,0,5.5,0,8.2c0,2.2,0.1,4.3,0,6.5c0,0.9,0.2-1,0,0.3c-0.1,0.9-0.4,1.9-0.6,2.8
			c-1,4.5-1.9,8.9-2.9,13.4c1-0.7,1.9-1.5,2.9-2.2c-2.4,0-4.7,0-7.1,0c-1.6,0-3,1.4-3,3c0,3.8-1,8.7-0.1,12.4
			c0.9,3.6,5.6,7.3,8,10.1c1.1,1.2,3.2,1.1,4.2,0c1.9-1.9,3.8-3.3,4.6-5.9c1.1-3.7,1.5-7.7,2.3-11.5c1.2-5.9,2.4-11.3,2.4-17.2
			c0-6.3,0-12.6,0-18.9c0-7.4,1-15.4,0-22.7c-0.4-2.8-2.3-5.5-3.5-8c-1.8-3.5-3.5-7-5.3-10.6c-1.2-2.4-4.8-1.6-5.5,0.7
			c-2.4,7.6-4.8,15.2-7.2,22.8C415.1,362.5,420.9,364.1,422.1,360.4z"/>
	</g>
</g>
<g>
	<g>
		<path d="M435.5,337.6c1.4,6.1,2.8,12.3,4.3,18.4c0.8,3.5,1.6,7,2.4,10.5c0.2,0.7,0.4,1.4,0.5,2.1c-0.2-1.5-0.1,0.6-0.1,1.2
			c-0.1,7.6-0.2,15.3,0,22.9c0,0.5,0,2.4,0.1,0.9c-0.1,1-0.3,2.1-0.5,3.1c-0.6,4-1.2,8.1-1.8,12.1c-1,6.7-2.5,11.9-4.9,18.2
			c1-0.7,1.9-1.5,2.9-2.2c-4,0-8,0-12,0c0.7,1.7,1.4,3.4,2.1,5.1c1.9-1.9,3.8-3.3,4.6-5.9c1.1-3.7,1.5-7.7,2.3-11.5
			c1-5,2.4-10,2.4-15.1c0-8.2,0-16.4,0-24.6c0-6.2,1-13.2,0-19.4c-0.4-2.7-2.3-5.4-3.5-7.9c-1.8-3.5-3.5-7-5.3-10.6
			c-0.9,1.5-1.7,3-2.6,4.5c4,0,8,0,12,0c3.9,0,3.9-6,0-6c-4,0-8,0-12,0c-2.4,0-3.6,2.5-2.6,4.5c2.8,5.5,5.3,11.3,8.3,16.7
			c-0.9-1.5-0.2-1.6-0.3-0.3c-0.1,1.1,0,2.2,0,3.3c0,3.7,0,7.5,0,11.2c0,8.4,0,16.7,0,25.1c0,2,0.1,4,0,5.9c0.1-1.2,0,0-0.2,0.8
			c-0.4,1.6-0.7,3.3-1,4.9c-0.9,4.7-1.9,9.4-2.8,14.1c-0.2,1.2-0.4,2.4-0.7,3.5c0.5-1.7,0.4-0.8-0.7,0.2c-0.7,0.7-1.4,1.4-2.1,2.1
			c-1.8,1.8-0.5,5.1,2.1,5.1c4,0,8,0,12,0c1.4,0,2.4-0.9,2.9-2.2c4.1-11,6.5-22.8,7.3-34.6c0.8-12,0.6-24-2.1-35.7
			c-1.7-7.5-3.5-15-5.2-22.5C440.4,332.2,434.6,333.8,435.5,337.6z"/>
	</g>
</g>
<g>
	<g>
		<path d="M458.8,375.8c14.4,0,28.8,0,43.2,0c-1-1-2-2-3-3c0,4.8,0,9.6,0,14.4c1-1,2-2,3-3c-14.4,0-28.8,0-43.2,0c1,1,2,2,3,3
			c0-4.8,0-9.6,0-14.4c0-3.9-6-3.9-6,0c0,4.8,0,9.6,0,14.4c0,1.6,1.4,3,3,3c14.4,0,28.8,0,43.2,0c1.6,0,3-1.4,3-3
			c0-4.8,0-9.6,0-14.4c0-1.6-1.4-3-3-3c-14.4,0-28.8,0-43.2,0C454.9,369.8,454.9,375.8,458.8,375.8z"/>
	</g>
</g>
<g>
	<polygon class="st0" points="438.4,336.8 451.6,336.8 458.8,359.6 458.8,369.2 458.8,394.4 458.8,411.2 452.8,428 438.4,428 
		442,416 445.6,394.4 445.6,368 	"/>
	<g>
		<path d="M438.4,339.8c4.4,0,8.8,0,13.2,0c-1-0.7-1.9-1.5-2.9-2.2c2.1,6.5,4.1,13.1,6.2,19.6c1.1,3.4,0.9,2.3,0.9,5.8
			c0,2.4,0,4.8,0,7.2c0,13.1-0.3,26.3,0,39.4c0,0.5,0.1,1.1,0,1.6c0.1-0.9,0-0.5-0.2,0.1c-0.6,1.8-1.3,3.5-1.9,5.3
			c-1.3,3.6-2.5,7.1-3.8,10.7c1-0.7,1.9-1.5,2.9-2.2c-4.8,0-9.6,0-14.4,0c1,1.3,1.9,2.5,2.9,3.8c6.8-22.7,10.5-47.3,5.1-70.7
			c-1.7-7.4-3.4-14.7-5.1-22.1c-0.9-3.8-6.7-2.2-5.8,1.6c1.4,6,2.8,12,4.1,18c0.8,3.6,1.6,7.1,2.5,10.7c0.2,0.8,0.4,1.6,0.5,2.3
			c-0.2-1.1,0,0.2-0.1,1c-0.2,7.5,0,15.1,0,22.7c0,0.3,0,2.5,0,1.7c0-0.5-0.3,1.9-0.4,2.4c-0.7,4.1-1.4,8.2-2,12.3
			c-1.1,6.4-2.8,12.3-4.7,18.5c-0.6,1.9,1,3.8,2.9,3.8c4.8,0,9.6,0,14.4,0c1.4,0,2.4-0.9,2.9-2.2c2-5.6,5.3-11.7,6.1-17.6
			c0.7-5.5,0-11.5,0-17c0-7.4,0-14.7,0-22.1c0-4.6,0.7-9.6-0.4-14.1c-1.8-7.4-4.7-14.7-7-22c-0.4-1.3-1.5-2.2-2.9-2.2
			c-4.4,0-8.8,0-13.2,0C434.5,333.8,434.5,339.8,438.4,339.8z"/>
	</g>
</g>
<g>
	<rect x="502" y="344" class="st1" width="15.6" height="43.2"/>
	<g>
		<path d="M502,347c5.2,0,10.4,0,15.6,0c-1-1-2-2-3-3c0,14.4,0,28.8,0,43.2c1-1,2-2,3-3c-5.2,0-10.4,0-15.6,0c1,1,2,2,3,3
			c0-14.4,0-28.8,0-43.2c0-3.9-6-3.9-6,0c0,14.4,0,28.8,0,43.2c0,1.6,1.4,3,3,3c5.2,0,10.4,0,15.6,0c1.6,0,3-1.4,3-3
			c0-14.4,0-28.8,0-43.2c0-1.6-1.4-3-3-3c-5.2,0-10.4,0-15.6,0C498.1,341,498.1,347,502,347z"/>
	</g>
</g>
<g>
	<polygon class="st2" points="483.4,345.2 538.6,345.2 524.2,255.2 491.8,255.2 	"/>
	<g>
		<path d="M483.4,348.2c18.4,0,36.8,0,55.2,0c2.1,0,3.2-1.9,2.9-3.8c-4.2-26.2-8.4-52.4-12.6-78.6c-0.6-3.8-1.2-7.6-1.8-11.4
			c-0.2-1.3-1.7-2.2-2.9-2.2c-10.8,0-21.6,0-32.4,0c-1.7,0-2.8,1.4-3,3c-2.5,26.3-4.9,52.5-7.4,78.8c-0.3,3.7-0.7,7.5-1,11.2
			c-0.4,3.8,5.6,3.8,6,0c2.5-26.3,4.9-52.5,7.4-78.8c0.3-3.7,0.7-7.5,1-11.2c-1,1-2,2-3,3c10.8,0,21.6,0,32.4,0
			c-1-0.7-1.9-1.5-2.9-2.2c4.2,26.2,8.4,52.4,12.6,78.6c0.6,3.8,1.2,7.6,1.8,11.4c1-1.3,1.9-2.5,2.9-3.8c-18.4,0-36.8,0-55.2,0
			C479.5,342.2,479.5,348.2,483.4,348.2z"/>
	</g>
</g>
<g>
	<line class="st1" x1="379.6" y1="171.4" x2="396.4" y2="174.8"/>
	<g>
		<path d="M378.8,174.3c5.6,1.1,11.2,2.3,16.8,3.4c3.8,0.8,5.4-5,1.6-5.8c-5.6-1.1-11.2-2.3-16.8-3.4
			C376.6,167.7,375,173.5,378.8,174.3L378.8,174.3z"/>
	</g>
</g>
<g>
	<polygon class="st1" points="300.5,174.5 310.5,174.5 310.5,156.5 352.5,156.5 352.5,174.5 359.5,180.5 349.5,187.5 327.5,192.5 
		300.5,187.5 	"/>
	<g>
		<path d="M300.5,177.5c3.3,0,6.7,0,10,0c1.6,0,3-1.4,3-3c0-6,0-12,0-18c-1,1-2,2-3,3c14,0,28,0,42,0c-1-1-2-2-3-3
			c0,5.5-0.1,10.9,0,16.4c0.1,4.7,4.5,6.9,7.9,9.7c0.2-1.6,0.4-3.1,0.6-4.7c-2.3,1.6-4.6,3.2-6.9,4.8c-0.9,0.6-1.9,1.5-2.9,2
			c0.7-0.4,0,0-0.8,0.1c-6.4,1.3-12.9,2.6-19.2,4.4c-1.6,0.4-1.7,0,0,0.3c-0.6-0.1-1.3-0.2-2-0.4c-3-0.6-6.1-1.1-9.1-1.7
			c-5.3-1-10.6-2-15.9-2.9c0.7,1,1.5,1.9,2.2,2.9c0-4.3,0-8.7,0-13c0-3.9-6-3.9-6,0c0,4.3,0,8.7,0,13c0,1.2,0.9,2.7,2.2,2.9
			c5.6,1,11.2,2.1,16.8,3.1c4.1,0.8,8.8,2.5,13,1.6c6.5-1.3,13-2.7,19.4-4.4c4.4-1.2,8.3-5,12-7.6c1.5-1,2.2-3.4,0.6-4.7
			c-1.8-1.6-3.6-3.4-5.6-4.8c-2.7-1.9,0.2,0.3-0.5,0.7c0.1-0.1,0-2.6,0-2.7c0-5,0-10,0-15c0-1.6-1.4-3-3-3c-14,0-28,0-42,0
			c-1.6,0-3,1.4-3,3c0,6,0,12,0,18c1-1,2-2,3-3c-3.3,0-6.7,0-10,0C296.6,171.5,296.6,177.5,300.5,177.5z"/>
	</g>
</g>
<g>
	<g>
		<path d="M158.7,124.4c21.5,7.3,42.9,16.1,65.1,21c13.6,3,27.2,6.7,40.8,9c13.2,2.3,26.9,3,40.2,4.5c11.6,1.3,23.3,0.6,34.9,0.6
			c10.4,0,20.5-0.6,31-1.4c26.8-2,53.4-4.5,80.1-7.2c10.9-1.1,21.3-5.9,31.6-9.3c6-2,12.6-3.5,18.4-6.1c1.7-0.8,2.4-1.8,3.3-3.3
			c2.2-3.5,4.4-7,6.7-10.6c1.4-2.2,2.8-4.4,4.2-6.6c0.6-0.9,0.5-2.1,0-3c-3.8-6.3-7.4-12.7-11.3-18.9c-2.7-4.3-10.7-5.4-15.2-7
			c-12.6-4.5-25.1-8.5-37.9-12.3c-11.1-3.3-21.6-7-33-8c-17.4-1.6-34.8-3.2-52.2-4.7c-10.3-0.9-20.7-0.5-31-0.5
			c-13,0-26.3-0.7-39.3,0c-13.9,0.8-27.8,2.8-41.7,4.2c-15.4,1.5-30.8,3-46.2,4.6c-3.7,0.4-6.8,2-10.2,3.5
			c-8.3,3.4-16.5,6.9-24.8,10.3c-1.6,0.7-3.6,1.2-4.9,2.3c-2.8,2.3-5,5.9-7.3,8.7c-1.6,1.9-4.2,4-4.5,6.6c-0.4,3.6,0.4,7.7,0.5,11.2
			c0.2,3.2,0.3,6.3,0.5,9.5c0.2,3.8,6.2,3.9,6,0c-0.1-3-0.3-6-0.4-9c-0.1-2.2-0.2-4.4-0.3-6.7c-0.1-1.1,0.3-3.8-0.2-4.8
			c-0.6-1-0.5,1.3-0.7,1.4c0.3-0.1,0.7-0.9,0.9-1c1.6-1.6,3-3.5,4.4-5.2c1.3-1.6,2.7-3.2,4-4.7c0.3-0.4,1-1,1.2-1.4
			c0.3-0.9-1.1,0.5-0.8,0.3c6.3-3.1,13.1-5.5,19.6-8.2c3.9-1.6,7.8-3.2,11.7-4.9c1.1-0.5,2.3-0.9,3.4-1.4c0.8-0.4,1.1-0.5,0.4-0.3
			c4-0.9,8.4-0.8,12.5-1.2c8.5-0.8,17-1.7,25.5-2.5c16.1-1.6,32.2-3.2,48.3-4.8c9.8-1,19.8-0.4,29.7-0.4c12.7,0,25.6-0.6,38.3,0
			c14.9,0.8,29.9,2.7,44.8,4.1c6.5,0.6,13,1.3,19.5,1.8c2.2,0.2-0.2-0.3,1.8,0.4c3,1.1,6.2,1.8,9.3,2.7c12.4,3.7,25.1,6.9,37.3,11.2
			c8.1,2.9,16.1,5.7,24.2,8.6c0.5,0.2,2.2,1.1,2.7,1c-0.8,0.3-2-2.4-0.6,0.3c1.9,3.8,4.4,7.3,6.6,11c1.5,2.5,3,5,4.5,7.5
			c0-1,0-2,0-3c-3.6,5.6-7.1,11.3-10.7,16.9c-0.7,1.1-2.1,2.3-0.4,1.4c2.1-1.2,0-0.3-0.5-0.2c-2.8,0.7-5.6,1.9-8.3,2.8
			c-8,2.7-16.1,5.4-24.1,8c-3,1-5.9,2-8.9,3c-0.7,0.2-1.4,0.5-2,0.7c-0.8,0.3,1.2-0.1,0,0.1c-14.2,2.4-28.9,3-43.2,4.4
			c-10.1,1-20.2,1.6-30.2,2.4c-23.6,1.7-47.5,3.5-71.2,2.1c-13.9-0.8-27.8-3.1-41.7-4.6c-0.8-0.1-1.6-0.2-2.5-0.3
			c-1.4-0.2,0.5,0.1-0.2,0c-2-0.4-4-0.9-5.9-1.3c-8-1.8-16.1-3.5-24.1-5.3c-9.4-2.1-18.5-3.9-27.6-7c-14.9-5-29.8-10.1-44.6-15.1
			c-1.2-0.4-2.3-0.8-3.5-1.2C156.6,117.4,155.1,123.2,158.7,124.4z"/>
	</g>
</g>
<g>
	<path class="st0" d="M384.5,120.5c0,0,53-8,52-6s36-8,36-8l19-10l-8-9l17,6l12,20l-12,19l-45,15l-81,8h-80l-48-7l-65-19l-23-8v-21
		l11-13l15-7v17l21,8.7l8,3.3l46,9h46h45L384.5,120.5z"/>
	<g>
		<path d="M385.3,123.4c16.1-2.4,32.6-5.5,48.9-6.2c0.2,0,1.3,0.1,1.4,0c-0.3,0.3-1.6-3.5-2-3.4c-1.6,0.3,1.7,3.6,2.4,3.8
			c2.9,0.8,7.1-0.8,9.9-1.4c8.8-1.9,18-3.9,26.6-6.7c7.1-2.3,13.9-7,20.5-10.5c1.8-0.9,1.8-3.3,0.6-4.7c-2.7-3-5.3-6-8-9
			c-1,1.7-1.9,3.3-2.9,5c3.4,1.2,6.9,2.4,10.3,3.6c1.7,0.6,3.5,1.4,5.3,1.9c2.8,0.7-0.3-1.6,0.1-0.1c0.9,3.5,4.5,7.5,6.3,10.6
			c1.7,2.9,3.5,5.8,5.2,8.7c0-1,0-2,0-3c-3.6,5.6-7.1,11.3-10.7,16.9c-0.2,0.4-0.8,1-1,1.5c-0.5,2-0.8-3.6,1.4-0.8
			c-0.1-0.1-1.5,0.5-1.5,0.5c-2.7,0.6-5.5,1.8-8.1,2.7c-8,2.7-16.1,5.4-24.1,8c-3,1-6.1,2-9.1,3c-0.6,0.2-1.3,0.5-1.9,0.6
			c-0.6,0.2,1.2-0.2,0.2,0c-12.5,2.2-25.5,2.5-38.1,3.8c-13.7,1.4-27.5,3-41.2,4.1c-8.8,0.7-17.8,0.1-26.6,0.1
			c-16.2,0-32.3,0-48.5,0c-1.8,0-3.7,0-5.5,0c-0.7,0-0.8,0,0.1,0.1c-0.5,0-1.1-0.2-1.6-0.2c-7-1-13.9-2-20.9-3.1
			c-10-1.5-20.3-2.2-30-5c-25.6-7.5-51.3-14.5-76.5-23.2c-2.3-0.8-4.6-1.6-7-2.4c0.7,1,1.5,1.9,2.2,2.9c0-4.8,0-9.6,0-14.4
			c0-0.6,0.5-6.1,0-6.4c0.5,0.3-1.9,2.5-0.2,1.1c1-0.8,1.8-2.1,2.6-3.1c2-2.3,4-4.7,5.9-7c0.5-0.6,1-1.4,1.6-1.9
			c-0.6,0.5,0,0.1,0.8-0.3c4.6-2,9.1-4.3,13.7-6.4c-1.5-0.9-3-1.7-4.5-2.6c0,5.7,0,11.3,0,17c0,1.5,1,2.4,2.2,2.9
			c6.6,2.7,13.2,5.5,19.8,8.2c4.3,1.8,8.4,3.6,12.9,4.5c8.6,1.7,17.3,3.4,25.9,5.1c5.6,1.1,11.4,2.8,17.1,3.3c6.2,0.5,12.7,0,19,0
			c8.4,0,16.8,0,25.3,0c13.5,0,26.9,0,40.4,0c13.4,0,26.9,1.2,40.3,2c3.9,0.2,3.8-5.8,0-6c-11.9-0.7-23.8-1.9-35.7-2
			c-14.4-0.1-28.9,0-43.3,0c-14.5,0-29.1,0-43.6,0c-0.8,0-1.5,0-2.3,0c0.9,0,0.4,0.1-0.4-0.1c-3-0.6-6-1.2-9-1.8
			c-9.1-1.8-18.3-3.6-27.4-5.4c-13.1-2.6-25.1-8.5-37.5-13.7c0.7,1,1.5,1.9,2.2,2.9c0-5.7,0-11.3,0-17c0-2.4-2.5-3.5-4.5-2.6
			c-4.7,2.2-10,4-14.4,6.7c-3.8,2.3-6.6,7.1-9.4,10.5c-1.1,1.3-3,2.9-3.5,4.6c-0.5,1.6-0.1,4-0.1,5.7c0,5.4,0,10.8,0,16.1
			c0,1.4,0.9,2.5,2.2,2.9c25,8.7,50.2,16,75.6,23.4c9.1,2.7,17.4,4.3,26.8,5.7c11.6,1.7,23.7,4.6,35.4,5c14,0.5,28,0,42,0
			c12.3,0,24.7,0.6,37,0c10.9-0.5,21.8-2.2,32.7-3.2c15.1-1.5,30.3-3,45.4-4.5c10.2-1,20.3-5.9,29.9-9.1c6-2,12.4-3.6,18.3-6.1
			c1.8-0.7,2.5-1.8,3.5-3.4c2.1-3.4,4.3-6.8,6.4-10.2c1.5-2.3,3-4.7,4.4-7c0.6-0.9,0.5-2.1,0-3c-1.8-3-3.7-6.1-5.5-9.1
			c-2.1-3.4-3.9-7.6-6.4-10.7c-1.8-2.2-5.2-2.7-7.7-3.6c-3.7-1.3-7.5-2.6-11.2-3.9c-3-1.1-4.8,2.9-2.9,5c2.7,3,5.3,6,8,9
			c0.2-1.6,0.4-3.1,0.6-4.7c-3.3,1.7-6.6,3.5-9.9,5.2c-2.1,1.1-4.2,2.2-6.3,3.3c-0.7,0.3-3.5,1.7-2.2,1.2
			c-7.9,2.8-16.5,4.4-24.7,6.3c-2.1,0.5-4.2,1-6.3,1.4c-0.7,0.1-1.7,0.1-2.4,0.4c-0.1,0.1-0.4,0-0.5,0.1c-0.2,0-0.3,0-0.5,0
			c-1.5,0-0.8,1.2,2.2,3.5c1.4-3.1-2.7-4.1-4.8-4.1c-8.8-0.1-17.8,1.8-26.5,2.9c-8.2,1.1-16.3,2.3-24.4,3.5
			C379.9,118.2,381.5,124,385.3,123.4z"/>
	</g>
</g>
<g>
	<polygon class="st1" points="348.5,96.5 314.5,96.5 286.5,88.5 300.5,80.5 348.5,80.5 372.5,88.5 	"/>
	<g>
		<path d="M348.5,93.5c-11.1,0-22.3,0.6-33.4,0c-1.3-0.1,0.7,0.2-0.2,0c-0.8-0.2-1.6-0.5-2.4-0.7c-3.1-0.9-6.2-1.8-9.4-2.7
			c-5.3-1.5-10.6-3-15.9-4.5c0.2,1.8,0.5,3.7,0.7,5.5c2.5-1.4,4.9-2.8,7.4-4.2c1.5-0.9,3-1.7,4.5-2.6c0.5-0.3,1.3-0.5,1.6-0.9
			c0.6-0.7-0.8,0.2-1,0.2c5.3,0.4,10.7,0,16,0c8,0,16,0,24,0c2.4,0,4.7-0.1,7.1,0c1,0,0.5,0,0.2,0c1,0.2,1.9,0.6,2.9,1
			c7,2.3,14,4.7,20.9,7c0-1.9,0-3.9,0-5.8c-8,2.7-16,5.3-24,8c-3.6,1.2-2.1,7,1.6,5.8c8-2.7,16-5.3,24-8c2.8-0.9,2.8-4.8,0-5.8
			c-9.9-3.3-19.7-8.1-30.2-8.1c-8,0-16,0-24.1,0c-5.9,0-12.3-0.7-18.2,0c-2.3,0.3-4.3,1.8-6.4,3c-3.2,1.8-6.3,3.6-9.5,5.4
			c-2.3,1.3-1.7,4.8,0.7,5.5c5.3,1.5,10.6,3,15.9,4.5c4.3,1.2,8.8,3.1,13.2,3.6c11,1.1,22.6,0,33.7,0
			C352.4,99.5,352.4,93.5,348.5,93.5z"/>
	</g>
</g>
<g>
	<g>
		<path d="M213.5,112.5c32-2,63.9-3.9,95.9-5.9c6-0.4,12.1,0.5,18.1,0.9c-1-1.3-1.9-2.5-2.9-3.8c-1.5,4.7-3,9.3-4.5,14
			c1-0.7,1.9-1.5,2.9-2.2c-16,0-31.9,0-47.9,0c-3.8,0-7.6,0-11.4,0c-1,0-2,0-3.1,0c-0.6,0-1.8-0.1-0.4,0.1
			c-7.3-0.8-14.7-2.9-21.9-4.3c-8-1.6-16-3.1-24-4.7c-3.8-0.7-5.4,5-1.6,5.8c15,2.9,30.1,6.4,45.2,8.8c4.2,0.7,8.7,0.3,13,0.3
			c10.3,0,20.7,0,31,0c7,0,14,0,21,0c1.4,0,2.5-0.9,2.9-2.2c1.5-4.7,3-9.3,4.5-14c0.6-2-1-3.7-2.9-3.8c-5.6-0.4-11.4-1.1-17-0.9
			c-6.2,0.2-12.4,0.8-18.6,1.1c-20.8,1.3-41.6,2.5-62.3,3.8c-5.4,0.3-10.7,0.7-16.1,1C209.7,106.7,209.6,112.7,213.5,112.5z"/>
	</g>
</g>
<g>
	<g>
		<path d="M357.4,101.4c-3,2.3-6,4.7-9,7c-1.6,1.2-0.9,3.8,0.6,4.7c3.6,2.1,7.1,4.1,10.7,6.2c2.5,1.5,4.6,3,7.5,3.2
			c8.2,0.4,16.5,0,24.7,0c3.2,0,3.8-3.9,1.5-5.6c-4.5-3.4-9.2-8-14.3-10.3c-5.9-2.6-12.6-4-18.8-5.9c-3.7-1.2-5.3,4.6-1.6,5.8
			c6.1,1.9,12.6,3.3,18.5,5.8c0.4,0.2,0.8,0.4-0.1-0.1c0.4,0.2,0.8,0.5,1.1,0.8c1.4,1.1,2.9,2.1,4.3,3.2c2.6,1.9,5.2,3.9,7.9,5.8
			c0.5-1.9,1-3.7,1.5-5.6c-7.9,0-16-0.3-23.9,0c-0.5,0-1.1-0.1-1.6,0c-0.7,0.1,1.6,0.9,0.8,0.2c-1.3-1.1-3.3-1.9-4.8-2.8
			c-3.4-2-6.9-3.9-10.3-5.9c0.2,1.6,0.4,3.1,0.6,4.7c3-2.3,6-4.7,9-7C364.7,103.3,360.4,99,357.4,101.4z"/>
	</g>
</g>
<g>
	<polygon class="st1" points="378.5,96.5 419.5,96.5 481.5,102.5 455.5,111.5 418.5,109.5 372.5,104.5 	"/>
	<g>
		<path d="M378.5,99.5c13.6,0,27.4-0.6,41,0c14.4,0.7,28.8,2.8,43.1,4.2c6.3,0.6,12.6,1.2,18.9,1.8c-0.3-2-0.5-3.9-0.8-5.9
			c-7.5,2.6-15.1,5.2-22.6,7.8c-1.1,0.4-2.2,0.9-3.3,1.1c1.5-0.3-0.7-0.1-1.4-0.2c-4.2-0.2-8.3-0.5-12.5-0.7
			c-14.6-0.8-28.9-1.9-43.5-3.5c-8.3-0.9-16.6-1.8-25-2.7c0.9,1.5,1.7,3,2.6,4.5c2-2.7,4-5.3,6-8c2.3-3.1-2.9-6.1-5.2-3
			c-2,2.7-4,5.3-6,8c-1.5,2,0.6,4.3,2.6,4.5c15.2,1.6,30.4,3.6,45.6,5c6.6,0.6,13.3,0.7,19.9,1.1c4.6,0.2,9.2,0.5,13.8,0.7
			c2,0.1,3.6,0.3,5.5-0.3c8.4-2.4,16.7-5.8,25-8.6c3.3-1.1,2.6-5.6-0.8-5.9c-26.3-2.5-52.6-6-79-6c-8,0-16,0-24,0
			C374.6,93.5,374.6,99.5,378.5,99.5z"/>
	</g>
</g>
<g>
	<g>
		<path d="M285.5,88.5c0,5.3,0,10.5,0,15.8c0,1.6,1.4,3.1,3,3c13.2-0.4,25.9-0.6,39,0.2c-1-1.3-1.9-2.5-2.9-3.8
			c-1.7,4.7-3.3,9.3-5,14c-0.7,1.9,1.1,3.8,2.9,3.8c14.7,0.3,29.3,0.7,44,1c3,0.1,4.1-4.1,1.5-5.6c-5.3-3-10.7-6-16-9
			c0.2,1.6,0.4,3.1,0.6,4.7c2.6-2,5.5-3.8,7.9-6.1c2.2-2.2-1,0.9-0.9,0l1.3,0.1c1.8,0.5,4.2,0.3,6.1,0.5c3.1,0.2,5.9,1.2,8.2-1.2
			c2.2-2.3,4-5.3,5.9-7.9c0.6-0.8,0.6-2.3,0-3c-2-2.7-4-5.3-6-8c-0.8-1-2.1-1.9-3.4-1.4c-5.7,2.1-11.4,4.1-17.1,6.2
			c-1.2,0.5-2.5,0.9-3.8,1.4c-1.1,0.5-1,0.4-0.6,0.3c-2.1,0.3-4.4,0-6.6,0c-7.9,0-15.7,0-23.6,0c-1.8,0-3.8,0.2-5.6,0
			c1.5,0.2-0.2-0.2-0.7-0.4c-1.4-0.5-2.9-0.9-4.3-1.3c-6.7-2.1-13.5-4.1-20.2-6.2c-3.7-1.1-5.3,4.7-1.6,5.8c6,1.9,12.1,3.7,18.1,5.6
			c4.2,1.3,7.6,2.5,11.9,2.5c7.7,0,15.3,0,23,0c4.1,0,8.6,0.6,12.5-0.8c6.7-2.4,13.4-4.9,20.1-7.3c-1.1-0.5-2.3-0.9-3.4-1.4
			c2,2.7,4,5.3,6,8c0-1,0-2,0-3c-2,2.7-4,5.3-6,8c0.9-0.5,1.7-1,2.6-1.5c-4-0.3-9.5-1.8-13.4-0.9c-3.7,0.9-7.7,5.5-10.7,7.8
			c-1.5,1.2-0.9,3.9,0.6,4.7c5.3,3,10.7,6,16,9c0.5-1.9,1-3.7,1.5-5.6c-14.7-0.3-29.3-0.7-44-1c1,1.3,1.9,2.5,2.9,3.8
			c1.7-4.7,3.3-9.3,5-14c0.7-2-1.1-3.7-2.9-3.8c-13.1-0.8-25.8-0.7-39-0.2c1,1,2,2,3,3c0-5.3,0-10.5,0-15.8
			C291.5,84.6,285.5,84.6,285.5,88.5z"/>
	</g>
</g>
<g>
	<polygon class="st0" points="354.5,82.5 411.5,71.5 425.5,69.5 482.5,86.5 466.5,88.5 405.5,83.5 372.5,88.5 	"/>
	<g>
		<path d="M355.3,85.4c18.3-3.5,36.6-7.1,55-10.6c2.4-0.5,4.8-0.8,7.2-1.1c2.5-0.4,5.2-0.6,7.7-1.1c2.1-0.4-1.4-0.8,0.8,0.2
			c3.4,1.5,7.6,2.3,11.2,3.3c5.7,1.7,11.4,3.4,17.1,5.1c9.2,2.7,18.4,5.5,27.6,8.2c0.3-2,0.5-3.9,0.8-5.9c-6.5,0.8-13,2.2-19.6,1.7
			c-11-0.9-21.9-1.8-32.9-2.7c-8-0.7-16.5-2.2-24.5-2c-8.8,0.3-17.9,2.7-26.6,4c-2.1,0.3-4.4,0.4-6.4,1c-1.6,0.5,0.1-0.1,0.5,0.1
			c-0.7-0.4-1.6-0.5-2.4-0.8c-5.1-1.7-10.2-3.4-15.4-5.1c-3.7-1.2-5.2,4.6-1.6,5.8c4.5,1.5,9,3,13.5,4.5c3.1,1,5.1,1.7,8.3,1.2
			c9.9-1.5,19.9-3.5,29.9-4.5c1.9-0.2-0.7-0.1,0.7,0c1.3,0.1,2.7,0.2,4,0.3c5.1,0.4,10.1,0.8,15.2,1.2c11.5,0.9,23,1.9,34.5,2.8
			c7.8,0.6,14.9-0.5,22.7-1.4c3.2-0.4,4.3-4.9,0.8-5.9c-18.2-5.4-36.4-10.9-54.7-16.3c-5.7-1.7-12.5,0.4-18.3,1.4
			c-9.3,1.6-18.5,3.6-27.7,5.3c-9.7,1.9-19.3,3.7-29,5.6C349.9,80.3,351.5,86.1,355.3,85.4z"/>
	</g>
</g>
<g>
	<polygon class="st1" points="288.5,88.5 221.5,96.5 184.5,96.5 184.5,80.5 248.5,79.5 300.5,71.5 327.5,80 300.5,80.5 	"/>
	<g>
		<path d="M288.5,85.5c-14.6,1.7-29.1,3.5-43.7,5.2c-11.8,1.4-23.1,2.8-35,2.8c-8.4,0-16.9,0-25.3,0c1,1,2,2,3,3c0-5.3,0-10.7,0-16
			c-1,1-2,2-3,3c20.5-0.3,41-0.6,61.5-1c6.7-0.1,13.5-1.7,20.1-2.7c6.9-1.1,13.8-2.1,20.7-3.2c4.4-0.7,9.4-0.8,13.7-2.1
			c1.4-0.4,0.5,0.7-0.7-0.1c0.5,0.3,1.3,0.4,1.9,0.6c3,1.2,6.2,2,9.2,2.9c5.3,1.7,10.6,3.3,15.8,5c0.3-2,0.5-3.9,0.8-5.9
			c-8,0.1-16,0.3-24,0.4c-6.5,0.1-11.3,5-16.5,8.5c-3.2,2.1-0.2,7.3,3,5.2c3.3-2.2,6.5-4.4,9.8-6.5c0.6-0.4,1.5-0.8,1.9-1.3
			c0.6-0.7-1.8,0.2-1,0.2c1.3,0,2.6,0,3.8-0.1c7.7-0.1,15.3-0.3,23-0.4c3.4-0.1,4-4.9,0.8-5.9c-4.7-1.5-9.3-2.9-14-4.4
			c-4.1-1.3-8.7-3.5-13-4.1c-3-0.4-6.6,0.8-9.5,1.2c-6.5,1-13,2-19.5,3c-6.1,0.9-12.2,1.9-18.3,2.8c-1.8,0.3-3.6,0.6-5.3,0.8
			c-1.7,0.2,0.8,0-0.8,0c-10.4,0.1-20.9,0.3-31.3,0.5c-10.7,0.2-21.3,0.3-32,0.5c-1.6,0-3,1.4-3,3c0,5.3,0,10.7,0,16
			c0,1.6,1.4,3,3,3c12.4,0,25.2,0.9,37.6-0.1c16.1-1.2,32.2-3.8,48.2-5.8c6.1-0.7,12.2-1.5,18.3-2.2C292.3,91,292.3,85,288.5,85.5z"
			/>
	</g>
</g>
<g>
	<polygon class="st0" points="309.9,74.4 322,63.5 341,63.5 350.5,63.5 343.5,74.5 335.5,80.5 323.1,78.6 	"/>
	<g>
		<path d="M312,76.6c3.1-2.8,6.1-5.5,9.2-8.3c0.7-0.6,1.5-1.2,2.1-1.9c1.5-1.8-0.9,0.7-1.1,0.1c0.1,0.3,4.7,0,5.1,0
			c7.8,0,15.5,0,23.3,0c-0.9-1.5-1.7-3-2.6-4.5c-2.3,3.6-4.7,7.1-6.8,10.7c0.1-0.2,1.4-1-0.2,0.1c-1.1,0.8-2.2,1.6-3.3,2.5
			c-0.5,0.4-3,1.8-3.2,2.4c-0.3,1.2,1.8-0.8,1.8,0c0-0.1-0.9-0.1-1-0.2c-3.8-1.1-8-0.9-11.8-1.9c-4.3-1.1-8.5-2.7-12.7-4
			c-3.7-1.2-5.3,4.6-1.6,5.8c8.2,2.6,16.9,5.9,25.6,6.1c2.5,0.1,3.9-1.5,5.9-3c1.7-1.3,3.8-2.5,5.2-4.1c2.9-3.2,4.9-7.7,7.2-11.3
			c1.2-1.9-0.4-4.5-2.6-4.5c-8.3,0-16.6,0-25,0c-3.5,0-5,0.3-7.7,2.7c-3.4,3-6.7,6.1-10.1,9.1C304.9,74.9,309.1,79.1,312,76.6z"/>
	</g>
</g>
</svg>
