<?xml version="1.0" encoding="utf-8"?>
<!-- Generator: Adobe Illustrator 21.0.2, SVG Export Plug-In . SVG Version: 6.00 Build 0)  -->
<svg version="1.1" id="Layer_1" xmlns="http://www.w3.org/2000/svg" xmlns:xlink="http://www.w3.org/1999/xlink" x="0px" y="0px"
	 viewBox="0 0 677 768" style="enable-background:new 0 0 677 768;" xml:space="preserve">
<style type="text/css">
	.st0{fill:#1500E9;}
	.st1{fill:#D5E539;}
	.st2{fill:#9DFF15;}
</style>
<g>
	<g>
		<path d="M63.6,458.6c21.6,0.7,43.1,1.5,64.7,2.2c-1-0.7-1.9-1.5-2.9-2.2c4.4,13.1,8.7,26.1,13.1,39.2c1.8,5.5,4,11,5.5,16.6
			c0.3,1.1,0-0.8,0-0.1c0.1,0.6,0,1.2,0,1.8c0,2.8,0,5.6,0,8.4c0,16.5,0,32.9,0,49.4c0,1.8,0.1,3.6,0,5.4c-0.1,0.9,0.2-1.1,0-0.2
			c-0.1,0.6-0.3,1.2-0.5,1.8c-1.9,6.5-3.7,13-5.6,19.4c-4.2,14.7-8.4,29.3-12.6,44c1-0.7,1.9-1.5,2.9-2.2c-19.6,0-39.1,0-58.7,0
			c1,1,2,2,3,3c-0.7-21.3-1.3-42.5-2-63.8c-1.1-34.1-2.2-68.2-3.2-102.3c-0.2-7.8-0.5-15.6-0.7-23.3c-0.1-3.9-6.1-3.9-6,0
			c0.7,21.3,1.3,42.5,2,63.8c1.1,34.1,2.2,68.2,3.2,102.3c0.2,7.8,0.5,15.6,0.7,23.3c0.1,1.6,1.3,3,3,3c19.6,0,39.1,0,58.7,0
			c1.3,0,2.5-0.9,2.9-2.2c3.6-12.7,7.2-25.3,10.9-38c2.2-7.6,4.3-15.2,6.5-22.8c0.8-2.6,1.5-4.9,1.5-7.6c0-15.9,0-31.9,0-47.8
			c0-5.1,0.6-10.5,0-15.5c-0.4-3.8-2.4-7.8-3.6-11.4c-5.1-15.2-10.2-30.5-15.2-45.7c-0.4-1.3-1.5-2.2-2.9-2.2
			c-21.6-0.7-43.1-1.5-64.7-2.2C59.8,452.4,59.8,458.4,63.6,458.6z"/>
	</g>
</g>
<g>
	<g>
		<path d="M107.3,458.6c8.2-25.9,16.4-51.8,24.6-77.8c1.2-3.7,2.3-7.4,3.5-11.1c-1.8,0.2-3.7,0.5-5.5,0.7
			c5.4,10.8,10.8,21.5,16.2,32.3c3.7,7.4,7.4,14.9,11.1,22.3c1.8,3.6,3.3,7.5,5.4,10.9c-1-1.7-0.4-1.3-0.4,0.8c0,2.1,0,4.3,0,6.4
			c0,7.3,0,14.7,0,22c0,16.6,0,33.3,0,49.9c0,22,0,43.9,0,65.9c0,11.9,0.5,23.9,0,35.8c0-0.7,0.1-0.3-0.2,0.9
			c-0.4,1.8-0.7,3.7-1.1,5.5c-1.3,6.7-2.7,13.3-4,20c-3.3,16.6-6.6,33.2-10,49.8c-1,5-2.4,10.1-3,15.2c-0.1,0.4-0.3,0.9-0.3,1.4
			c0,1,1.4-1.1,0.3-0.6c-2.7,1.4-5.5,5.5-7.7,7.7c-2,2-4,4-6,6c1.4,0,2.8,0,4.2,0c-8.5-9.9-16.9-19.7-25.4-29.6
			c-0.6-0.8-1.3-1.8-2-2.4c-1.9-1.6,1.2,0.9,0.2,1.3c0.3-0.1,0-5,0-5.3c0.1-7.8,0.1-15.6,0.2-23.4c0.1-6,0.1-12,0.2-18c-1,1-2,2-3,3
			c9.2,0,18.4,0,27.6,0c1.3,0,2.6-0.9,2.9-2.2c2.8-13,5.6-26,8.4-39.1c1.6-7.4,3.2-14.7,4.7-22.1c0.6-2.6,1.1-5,1.1-7.7
			c0-15.9,0-31.9,0-47.8c0-4.9,0.6-10.2,0-15.1c-0.5-3.9-2.5-8-3.7-11.7c-5-15.1-10.1-30.2-15.1-45.4c-0.4-1.3-1.5-2.2-2.9-2.2
			c-7.8,0-15.6,0-23.4,0c-3.9,0-3.9,6,0,6c7.8,0,15.6,0,23.4,0c-1-0.7-1.9-1.5-2.9-2.2c4.3,12.9,8.6,25.8,12.9,38.7
			c1.9,5.6,4,11.2,5.6,16.9c0.3,1,0.1-0.2,0.1-0.2c0.1,0.6,0,1.2,0,1.7c0,2.6,0,5.2,0,7.8c0,16.5,0,33,0,49.5c0,1.9,0.1,3.9,0,5.8
			c0,0.9,0.1-0.3,0.1-0.2c-0.1,0.6-0.2,1.1-0.4,1.7c-1.4,6.3-2.7,12.7-4.1,19c-3.2,14.9-6.4,29.8-9.6,44.7c1-0.7,1.9-1.5,2.9-2.2
			c-9.2,0-18.4,0-27.6,0c-1.6,0-3,1.4-3,3c-0.1,13.3-0.2,26.7-0.4,40c0,3.7-0.8,7,1.7,9.9c4.7,5.5,9.4,11,14.1,16.5
			c4.4,5.1,8.7,10.2,13.1,15.2c1.1,1.2,3.2,1.1,4.2,0c4.5-4.5,9.8-8.8,13.8-13.8c1.7-2.2,1.8-5.3,2.3-8c3.1-15.4,6.2-30.8,9.2-46.2
			c2.6-13.1,5.4-26.3,7.9-39.4c1.5-7.7,0.4-16.2,0.4-23.9c0-24,0-48,0-72c0-29,0.3-58,0-87c0-2.5-0.7-4.1-1.9-6.3
			c-2.9-5.9-5.9-11.7-8.8-17.6c-7-14.1-14.1-28.2-21.1-42.3c-0.5-0.9-0.9-1.8-1.4-2.7c-1.2-2.4-4.8-1.6-5.5,0.7
			c-8.2,25.9-16.4,51.8-24.6,77.8c-1.2,3.7-2.3,7.4-3.5,11.1C100.3,460.7,106.1,462.3,107.3,458.6z"/>
	</g>
</g>
<g>
	<g>
		<path d="M176.4,369.7c5.6,24.1,11.1,48.3,16.7,72.4c3.2,13.8,6.4,27.6,9.6,41.5c0.6,2.5,1.4,5.1,1.8,7.7c-0.2-1.6-0.1,0.3-0.1,0.9
			c0,1.8,0,3.7,0,5.6c0,29.7,0,59.4,0,89.1c0,1.7-0.1,3.4,0,5.2c0,0.9,0,2,0.1,0.9c-0.3,3.5-1.1,7.1-1.6,10.6
			c-2.4,15.9-4.8,31.9-7.2,47.8c-1.7,11.4-2.6,23.3-5.2,34.6c-0.8,3.6-2.6,7.2-3.9,10.6c-2.9,7.6-5.7,15.2-8.6,22.8
			c-0.6,1.5-1.1,3-1.7,4.5c1-0.7,1.9-1.5,2.9-2.2c-15.6,0-31.2,0-46.8,0c0.7,1.7,1.4,3.4,2.1,5.1c4.5-4.5,9.8-8.8,13.8-13.8
			c1.7-2.2,1.8-5.3,2.3-8c3.1-15.4,6.2-30.8,9.2-46.2c2.6-13.1,5.4-26.3,7.9-39.4c0.9-4.7,0.4-9.7,0.4-14.4c0-31.5,0-63.1,0-94.6
			c0-16.3,0-32.5,0-48.8c0-8.6,0.5-17.5,0-26.1c-0.1-2.1-0.9-3.5-1.9-5.4c-3-6-6-12-9-18c-7-14-14-27.9-20.9-41.9
			c-0.5-0.9-0.9-1.8-1.4-2.7c-0.9,1.5-1.7,3-2.6,4.5c15.6,0,31.2,0,46.8,0c3.9,0,3.9-6,0-6c-15.6,0-31.2,0-46.8,0
			c-2.4,0-3.6,2.5-2.6,4.5c5.3,10.6,10.6,21.2,15.9,31.9c3.7,7.5,7.5,14.9,11.2,22.4c1.8,3.7,3.4,7.8,5.6,11.2
			c-0.9-1.3-0.2-1.9-0.4-0.3c-0.1,1.2,0,2.4,0,3.6c0,4.5,0,8.9,0,13.4c0,14.7,0,29.4,0,44.1c0,33.1,0,66.1,0,99.2c0,7,0.3,14,0,21
			c0.1-1.3,0-0.1-0.2,0.7c-0.4,1.8-0.7,3.7-1.1,5.5c-1.3,6.7-2.7,13.3-4,20c-3.3,16.7-6.7,33.5-10,50.2c-1,4.9-2.3,9.8-3,14.8
			c-0.1,0.4-0.3,0.9-0.3,1.4c0,1,1.4-1.1,0.3-0.6c-2.7,1.4-5.5,5.5-7.7,7.7c-2,2-4,4-6,6c-1.8,1.8-0.5,5.1,2.1,5.1
			c15.6,0,31.2,0,46.8,0c1.4,0,2.4-0.9,2.9-2.2c4.5-12,9.6-24,13.6-36.2c2.6-7.9,2.8-17,4.1-25.2c2.5-16.6,5-33.3,7.5-49.9
			c1.1-7.2,2.9-14.6,3.1-21.9c0.7-28.7,0-57.4,0-86.1c0-6,0.8-12.5-0.6-18.4c-2.6-11.4-5.3-22.8-7.9-34.2
			c-6.4-27.9-12.3-55.9-19.3-83.6c-0.1-0.6-0.3-1.2-0.4-1.8C181.3,364.3,175.5,365.9,176.4,369.7z"/>
	</g>
</g>
<g>
	<g>
		<path d="M258.8,512.3c49.1,0,98.2,0,147.4,0c7,0,14.1,0,21.1,0c-1-1-2-2-3-3c0,18.7,0,37.4,0,56.2c1-1,2-2,3-3
			c-49.1,0-98.2,0-147.4,0c-7,0-14.1,0-21.1,0c1,1,2,2,3,3c0-18.7,0-37.4,0-56.2c0-3.9-6-3.9-6,0c0,18.7,0,37.4,0,56.2
			c0,1.6,1.4,3,3,3c49.1,0,98.2,0,147.4,0c7,0,14.1,0,21.1,0c1.6,0,3-1.4,3-3c0-18.7,0-37.4,0-56.2c0-1.6-1.4-3-3-3
			c-49.1,0-98.2,0-147.4,0c-7,0-14.1,0-21.1,0C255,506.3,255,512.3,258.8,512.3z"/>
	</g>
</g>
<g>
	<polygon class="st0" points="179.3,368.9 230.8,368.9 258.8,457.8 258.8,495.2 258.8,593.5 258.8,659 235.4,724.6 179.3,724.6 
		193.3,677.8 207.4,593.5 207.4,490.6 	"/>
	<g>
		<path d="M179.3,371.9c17.2,0,34.3,0,51.5,0c-1-0.7-1.9-1.5-2.9-2.2c8,25.5,16.1,51,24.1,76.4c1.3,4,2.7,7.9,3.8,11.9
			c0.2,0.7,0.2,0.5,0.1-0.2c0.1,0.6,0,1.3,0,2c0,3.2,0,6.3,0,9.5c0,9.9,0,19.8,0,29.7c0,29.2,0,58.4,0,87.6c0,22.6,0,45.2,0,67.9
			c0,1.4,0.2,3,0,4.5c0.2-1.5-0.4,0.8-0.7,1.5c-2.1,5.9-4.2,11.9-6.3,17.8c-5.1,14.2-10.1,28.4-15.2,42.6c-0.4,1-0.7,2-1.1,3
			c1-0.7,1.9-1.5,2.9-2.2c-18.7,0-37.4,0-56.2,0c1,1.3,1.9,2.5,2.9,3.8c3.8-12.7,7.6-25.3,11.4-38c2.3-7.6,3.6-14.7,4.9-22.5
			c2.7-16.4,5.5-32.7,8.2-49.1c1.3-7.6,3.5-15.7,3.7-23.4c0.8-28.7,0-57.5,0-86.2c0-6,0.8-12.5-0.6-18.4
			c-2.6-11.4-5.3-22.8-7.9-34.2c-6.4-27.9-12.3-55.9-19.3-83.6c-0.1-0.6-0.3-1.2-0.4-1.8c-0.9-3.8-6.7-2.2-5.8,1.6
			c5.6,24.1,11.1,48.3,16.7,72.4c3.2,13.8,6.4,27.6,9.6,41.5c0.6,2.6,1.4,5.2,1.8,7.8c-0.2-1.7-0.1,0.4-0.1,1c0,1.9,0,3.8,0,5.7
			c0,29.7,0,59.4,0,89.1c0,1.7-0.1,3.4,0,5.2c0.1,1.3,0,1.1,0.1,0.7c-0.4,3.9-1.3,7.8-1.9,11.7c-2.7,16.1-5.4,32.2-8,48.3
			c-1.4,8.4-2.1,17.2-4.4,25.4c-3.9,13.9-8.3,27.8-12.5,41.6c-0.4,1.3-0.8,2.6-1.1,3.8c-0.6,1.9,1,3.8,2.9,3.8c18.7,0,37.4,0,56.2,0
			c1.4,0,2.4-0.9,2.9-2.2c4.1-11.4,8.1-22.8,12.2-34.2c2.7-7.4,5.3-14.9,8-22.3c1.1-3.1,2.9-6.6,3.3-9.9c0.5-4.2,0-8.9,0-13.1
			c0-8.5,0-17,0-25.5c0-9.4,0-18.7,0-28.1c0-28.7,0-57.5,0-86.2c0-8.2,0-16.4,0-24.6c0-9.6,1.4-19.7-1.5-28.9
			c-8.6-27.4-17.3-54.8-25.9-82.1c-0.2-0.8-0.5-1.5-0.7-2.3c-0.4-1.3-1.5-2.2-2.9-2.2c-17.2,0-34.3,0-51.5,0
			C175.4,365.9,175.4,371.9,179.3,371.9z"/>
	</g>
</g>
<g>
	<rect x="427.3" y="397" class="st1" width="60.8" height="168.5"/>
	<g>
		<path d="M427.3,400c20.3,0,40.6,0,60.8,0c-1-1-2-2-3-3c0,49.1,0,98.2,0,147.4c0,7,0,14.1,0,21.1c1-1,2-2,3-3
			c-20.3,0-40.6,0-60.8,0c1,1,2,2,3,3c0-49.1,0-98.2,0-147.4c0-7,0-14.1,0-21.1c0-3.9-6-3.9-6,0c0,49.1,0,98.2,0,147.4
			c0,7,0,14.1,0,21.1c0,1.6,1.4,3,3,3c20.3,0,40.6,0,60.8,0c1.6,0,3-1.4,3-3c0-49.1,0-98.2,0-147.4c0-7,0-14.1,0-21.1
			c0-1.6-1.4-3-3-3c-20.3,0-40.6,0-60.8,0C423.5,394,423.5,400,427.3,400z"/>
	</g>
</g>
<g>
	<polygon class="st2" points="354.8,401.6 570.1,401.6 513.9,50.6 387.5,50.6 	"/>
	<g>
		<path d="M354.8,404.6c24.2,0,48.5,0,72.7,0c38.6,0,77.3,0,115.9,0c8.9,0,17.8,0,26.6,0c2.1,0,3.2-1.9,2.9-3.8
			c-1.9-11.6-3.7-23.2-5.6-34.8c-4.5-28-9-56-13.4-84c-5.4-33.7-10.8-67.5-16.2-101.2c-4.7-29.3-9.4-58.6-14.1-87.9
			c-1.5-9.6-3.1-19.2-4.6-28.8c-0.7-4.4-0.9-9.4-2.2-13.7c-0.1-0.2-0.1-0.4-0.1-0.6c-0.2-1.3-1.7-2.2-2.9-2.2
			c-36.9,0-73.7,0-110.6,0c-5.3,0-10.5,0-15.8,0c-1.7,0-2.8,1.4-3,3c-1.1,11.6-2.2,23.2-3.2,34.7c-2.6,28-5.2,56-7.8,84
			c-3.1,33.7-6.3,67.4-9.4,101.2c-2.7,29.3-5.5,58.6-8.2,87.9c-0.9,9.6-1.8,19.2-2.7,28.8c-0.4,4.5-1.4,9.3-1.3,13.8
			c0,0.2,0,0.4-0.1,0.6c-0.4,3.8,5.6,3.8,6,0c1.1-11.6,2.2-23.2,3.2-34.7c2.6-28,5.2-56,7.8-84c3.1-33.7,6.3-67.4,9.4-101.2
			c2.7-29.3,5.5-58.6,8.2-87.9c0.9-9.6,1.8-19.2,2.7-28.8c0.3-3,0.6-6,0.8-9.1c0.1-1.4,0.7-3.3,0.4-4.7c0-0.2,0-0.4,0.1-0.6
			c-1,1-2,2-3,3c36.9,0,73.7,0,110.6,0c5.3,0,10.5,0,15.8,0c-1-0.7-1.9-1.5-2.9-2.2c1.9,11.6,3.7,23.2,5.6,34.8c4.5,28,9,56,13.4,84
			c5.4,33.7,10.8,67.5,16.2,101.2c4.7,29.3,9.4,58.6,14.1,87.9c1.5,9.6,3.1,19.2,4.6,28.8c0.7,4.1,0.5,9.9,2.2,13.7
			c0.1,0.2,0.1,0.4,0.1,0.6c1-1.3,1.9-2.5,2.9-3.8c-24.2,0-48.5,0-72.7,0c-38.6,0-77.3,0-115.9,0c-8.9,0-17.8,0-26.6,0
			C350.9,398.6,350.9,404.6,354.8,404.6z"/>
	</g>
</g>
</svg>
