<?xml version="1.0" encoding="utf-8"?>
<!-- Generator: Adobe Illustrator 21.0.2, SVG Export Plug-In . SVG Version: 6.00 Build 0)  -->
<svg version="1.1" id="Layer_1" xmlns="http://www.w3.org/2000/svg" xmlns:xlink="http://www.w3.org/1999/xlink" x="0px" y="0px"
	 viewBox="0 0 623 768" style="enable-background:new 0 0 623 768;" xml:space="preserve">
<style type="text/css">
	.st0{fill:#90A4AE;}
	.st1{fill:#607D8B;}
	.st2{fill:#FAFAFA;}
	.st3{fill:#EEEEEE;}
	.st4{fill:#120B0A;}
	.st5{fill:#2B1B18;}
	.st6{fill:#5D4037;}
	.st7{fill:#795548;}
	.st8{fill:none;}
	.st9{fill:#BDBDBD;}
	.st10{fill:#E0E0E0;}
	.st11{fill:#43A047;}
	.st12{fill:#311B92;}
	.st13{fill:#BBDEFB;}
	.st14{fill:#7B1FA2;}
	.st15{fill:#FFFFFF;}
	.st16{font-family:'Dosis';}
	.st17{font-size:106px;}
</style>
<g>
	<g>
		<path class="st0" d="M551.8,452.5c10.5,0,17.5-10.7,13.4-20.3l-63.3-147.6l-58.6-136.7c-2.5-5.8-7.9-8.8-13.3-8.8v313.4
			L551.8,452.5z"/>
		<path class="st1" d="M308.2,452.6l121.8-0.1h0V139.1c-5.5,0-11,2.9-13.5,8.8l-12.7,29.8L358,284.6l-63.2,147.7
			C290.7,441.9,297.8,452.6,308.2,452.6z"/>
		<polygon class="st2" points="440,138 431,134 430,134.3 430,198.9 434,206 440,182 445,197 446,184 459,204 463,192 		"/>
		<polygon class="st3" points="421,137 404.2,176.2 410,206 420,181 430,198.9 430,134.3 		"/>
	</g>
	<g>
		<path class="st4" d="M156.2,586.2c-8.1,0-13.1,8.8-9.1,15.8l43.1,74.4l43.1,74.5c1.9,3.4,5.3,5.1,8.7,5.2V586.1L156.2,586.2z"/>
		<path class="st5" d="M328.5,586.1l-86.1,0l-0.4,0V756c3.7,0.1,7.4-1.6,9.5-5.2l43-74.5l43-74.5
			C341.6,594.8,336.5,586.1,328.5,586.1z"/>
	</g>
	<g>
		<path class="st6" d="M59.2,461.1c-10.5,0-17.5,7.8-13.4,14.9l63.3,108.3l58.6,100.2c2.5,4.3,7.9,6.4,13.3,6.5V461.1L59.2,461.1z"
			/>
		<path class="st7" d="M302.8,461.1l-121.8,0h0V691c5.5,0,11-2.1,13.5-6.5L253,584.3L316.2,476C320.3,468.9,313.3,461.1,302.8,461.1
			z"/>
	</g>
	<g>
		<path class="st4" d="M310.2,548.2c-8.1,0-13.1,8.8-9.1,15.8l43.1,74.4l43.1,74.5c1.9,3.4,5.3,5.1,8.7,5.2V548.1L310.2,548.2z"/>
		<path class="st5" d="M482.5,548.1l-86.1,0l-0.4,0V718c3.7,0.1,7.4-1.6,9.5-5.2l43-74.5l43-74.5
			C495.6,556.8,490.5,548.1,482.5,548.1z"/>
	</g>
	<g>
		<path class="st6" d="M318.2,465.1c-10.5,0-17.5,7.8-13.4,14.9l63.3,108.3l58.6,100.2c2.5,4.3,7.9,6.4,13.3,6.5V465.1L318.2,465.1z
			"/>
		<path class="st7" d="M561.8,465.1l-121.8,0h0V695c5.5,0,11-2.1,13.5-6.5L512,588.3L575.2,480C579.3,472.9,572.3,465.1,561.8,465.1
			z"/>
	</g>
	<g>
		<path class="st6" d="M189.2,447.2c-10.5,0-17.5,10.7-13.4,20.3l63.3,147.6l58.6,136.7c2.5,5.8,7.9,8.8,13.3,8.8V447.1L189.2,447.2
			z"/>
		<path class="st7" d="M432.8,447.1L311,447.1h0v313.4c5.5,0,11-2.9,13.5-8.8L383,615l63.2-147.7
			C450.3,457.7,443.3,447.1,432.8,447.1z"/>
	</g>
	<path class="st8" d="M396,548v170V548z"/>
	<g>
		<g>
			<path class="st9" d="M142.6,450.1c-3,0-4.8,4.1-3.4,7.4l15.9,35l15.9,35c0.7,1.6,1.9,2.4,3.2,2.5v-79.9L142.6,450.1z"/>
		</g>
		<path class="st10" d="M206.1,450.1l-31.8,0l-0.1,0V530c1.4,0.1,2.7-0.7,3.5-2.5l15.9-35l15.9-35
			C211,454.2,209.1,450.1,206.1,450.1z"/>
	</g>
	<g>
		<g>
			<path class="st9" d="M377.6,450.1c-3,0-4.8,4.1-3.4,7.4l15.9,35l15.9,35c0.7,1.6,1.9,2.4,3.2,2.5v-79.9L377.6,450.1z"/>
		</g>
		<path class="st10" d="M441.1,450.1l-31.8,0l-0.1,0V530c1.4,0.1,2.7-0.7,3.5-2.5l15.9-35l15.9-35
			C446,454.2,444.1,450.1,441.1,450.1z"/>
	</g>
	<g>
		<g>
			<path class="st9" d="M251.6,462c-3,0-4.8,2.2-3.4,4l15.9,18.8l15.9,18.8c0.7,0.8,1.9,1.3,3.2,1.3v-43L251.6,462z"/>
		</g>
		<path class="st10" d="M315.1,462l-31.8,0l-0.1,0v43c1.4,0,2.7-0.4,3.5-1.3l15.9-18.8l15.9-18.8C320,464.2,318.1,462,315.1,462z"/>
	</g>
	<g>
		<g>
			<path class="st9" d="M420.6,459.1c-2.2,0-3.6,4.7-2.5,8.5l11.9,40.3l11.9,40.3c0.5,1.8,1.5,2.7,2.4,2.8v-91.9L420.6,459.1z"/>
		</g>
		<path class="st10" d="M468.1,459.1l-23.7,0l-0.1,0V551c1,0.1,2-0.9,2.6-2.8l11.9-40.3l11.9-40.3
			C471.7,463.8,470.3,459.1,468.1,459.1z"/>
	</g>
	<g>
		<path class="st0" d="M320.5,452.2c10.5-0.1,17.5-8,13.3-15l-64-107.9l-59.2-99.9c-2.5-4.3-7.9-6.4-13.3-6.4l1.4,229.9L320.5,452.2
			z"/>
		<path class="st1" d="M76.9,453.7l121.8-0.8h0l-1.4-229.9c-5.5,0-11,2.2-13.5,6.6L126,330.2L63.4,438.9
			C59.4,446,66.5,453.8,76.9,453.7z"/>
		<polygon class="st3" points="193.2,222.2 188.5,224.2 184.7,227.1 167,258.9 179.1,288 192,261.5 195,276.8 198,264 198,222 		"/>
		<polygon class="st2" points="211,227.9 205.2,223.6 198.8,222 198,222 198,264.1 200,255.5 211,278 223.8,251 		"/>
	</g>
	<path d="M566,450H58c-3.9,0-7-3.1-7-7l0,0c0-3.9,3.1-7,7-7h508c3.9,0,7,3.1,7,7l0,0C573,446.9,569.9,450,566,450z"/>
	<g>
		<path class="st11" d="M576,473H47c-8.3,0-15-6.7-15-15l0,0c0-8.3,6.7-15,15-15h529c8.3,0,15,6.7,15,15l0,0
			C591,466.3,584.3,473,576,473z"/>
	</g>
	<g>
		<g>
			<polygon class="st2" points="367.7,409 338.5,382.2 200.9,382.2 197.1,399.3 196.1,411.3 367.6,412.1 			"/>
			<g>
				<path class="st2" d="M368,408.7c-9.3-8.5-18.4-17.3-27.9-25.6c-1.6-1.4-1.8-1.3-3.9-1.3c-4.2,0-8.5,0-12.7,0
					c-31.7,0-63.3,0-95,0c-9.2,0-18.4,0-27.6,0c-0.2,0-0.4,0.2-0.5,0.4c-2.2,9.9-4,19.1-4.9,29.2c0,0.3,0.2,0.5,0.5,0.5
					c19.3,0.1,38.5,0.2,57.8,0.3c30.8,0.1,61.5,0.3,92.3,0.4c7.1,0,14.3,0.1,21.4,0.1c0.3,0,0.5-0.2,0.5-0.5c0-1,0.1-2.1,0.1-3.1
					c0-0.6-1-0.6-1,0c0,0.7-0.4,3.1,0.3,2.6c-0.1,0.1-0.5,0-0.7,0c-1,0.3-2.4,0-3.4,0c-4.6,0-9.3,0-13.9-0.1
					c-15.5-0.1-30.9-0.1-46.4-0.2c-32.1-0.2-64.3-0.3-96.4-0.5c-3.2,0-6.5,0.1-9.7,0c-1.4-0.1-0.5,0.6-0.3-0.6
					c0.5-3.5,0.4-7.2,0.9-10.7c0.4-2.9,1.3-5.8,1.9-8.6c0.4-1.9,0.8-3.8,1.3-5.7c0.2-0.8,1-3,0.2-2.5c1.4-0.9,6,0,7.6,0
					c32.2,0,64.4,0,96.5,0c7,0,14,0,21,0c3.7,0,7.8-0.4,11.5,0c1.4,0.2,0.4-0.2,1.1,0.3c2.1,1.3,4,3.7,5.8,5.3
					c6.3,5.8,12.5,11.5,18.8,17.3c1.3,1.2,2.7,2.5,4,3.7C367.8,409.8,368.5,409.1,368,408.7z"/>
			</g>
		</g>
		<g>
			<path class="st12" d="M195.7,411.3l-0.2,2l4.4,15.2l26.8,0.6l6.8-1.8l0.5,0c0.5-5.2,6.2-9.3,13-9.3c7.2,0,13.1,4.5,13.1,10.1
				c0,0.3,0,0.6-0.1,0.9l1.7,0.1l73.6-0.2l2.2-2.4c1.2-4.6,6.5-8.1,12.8-8.1c6.4,0,11.7,3.5,12.9,8.2l0.2,0l1.7-7l2.1-0.5l0.2-7.1
				L195.7,411.3z"/>
			<g>
				<path class="st12" d="M195.2,411.3c-0.5,5.6,2.7,12,4.3,17.3c0.1,0.2,0.3,0.4,0.5,0.4c6.5,0.1,13,0.3,19.5,0.4
					c2.3,0.1,4.9,0.4,7.2,0.2c2.4-0.3,4.9-1.9,7.4-1.8c0.2,0,0.4-0.2,0.5-0.4c2.2-12.4,25.9-11.7,25.1,1.5c0,0.3,0.2,0.5,0.5,0.5
					c11.3,0.7,22.8,0.1,34.1,0c8.4,0,16.8,0,25.2-0.1c4.7,0,10.7,1,15.3,0c1.5-0.3,2.4-1.1,3.4-2.6c2.6-3.9,4.5-6.6,9.5-7.6
					c6-1.2,13.3,1.4,15.3,7.6c0.1,0.2,0.3,0.4,0.5,0.4c0.1,0,0.2,0,0.2,0c0.2,0,0.4-0.1,0.5-0.4c0.4-1.6,0.8-3.3,1.2-4.9
					c0.5-2,0.3-1.8,2.3-2.2c0.2,0,0.4-0.3,0.4-0.5c0.1-2.4,0.1-4.7,0.2-7.1c0-0.3-0.2-0.5-0.5-0.5c-19.3-0.1-38.6-0.2-57.9-0.3
					c-30.8-0.1-61.7-0.3-92.5-0.4c-7.2,0-14.3-0.1-21.5-0.1c-0.6,0-0.6,1,0,1c20.9,0.1,41.8,0.2,62.7,0.3c31.5,0.2,63,0.3,94.4,0.5
					c4.2,0,8.4,0,12.6,0.1c0.4,0,1.7-0.2,2.1,0c-0.9-0.6-0.5,2.5-0.6,3.5c-0.1,2.7,0.5,2.5-1.9,3c-0.2,0-0.3,0.2-0.3,0.3
					c-0.4,1.5-0.7,3-1.1,4.4c0,0.2-0.5,2.4-0.6,2.4c1.1-0.1-0.6-2.6-0.6-2.7c-2.3-4-7.7-5.7-12-5.7c-4.5,0-9.3,1.8-12,5.6
					c-1.3,1.9-1.8,4.3-3.9,4.9c-1.7,0.4-4.1,0-5.8,0c-3.3,0-6.6,0-9.9,0c-8.6,0-17.2,0-25.8,0.1c-7.7,0-15.5,0-23.2,0
					c-2.2,0-4.4,0-6.6,0c-0.4,0-1,0.1-1.4,0c-1.8-0.4-0.9,0.1-1.4-1.7c-2.5-9.2-14.4-12-22.1-7c-1.6,1.1-3.2,2.5-4,4.3
					c-0.6,1.3-0.5,2-1.4,2.7c-1.6,1.2-5.3,1.6-7.4,1.7c-8,0.4-16.1-1.1-24.1-0.5c-0.2,0-1.1,0.1-1.4,0c-0.1-0.1,0.6,0.5,0.1-0.3
					c-0.9-1.5-1.1-3.9-1.6-5.5c-1-3.5-2.7-7.2-2.4-10.9C196.2,410.7,195.2,410.7,195.2,411.3z"/>
			</g>
		</g>
		<g>
			<polygon class="st3" points="338.6,382.7 200.7,382.7 206.4,360.9 254,360.8 260.6,357.6 336.5,357.9 343.3,371.9 			"/>
			<g>
				<path class="st3" d="M338.6,382.2c-44.7,0-89.3,0-134,0c-1.1,0-2.2,0.1-3.2,0c-1.2-0.1-0.4,0.9-0.1-0.2c2.1-6,3.3-12.4,4.9-18.5
					c0.1-0.5,0.2-1.9,0.6-2.3c-0.1,0.1-0.7,0.5,0.2,0.2c1.7-0.5,4.3,0,6.1,0c7,0,14,0,21-0.1c6.1,0,12.2,0.2,18.2-0.1
					c3.2-0.1,5.6-2.6,8.3-3.2c3-0.6,6.8,0,9.9,0c6.7,0,13.3,0.1,20,0.1c14.4,0.1,28.8,0.1,43.1,0.2c0.6,0,3,0.3,2.3-0.2
					c0.7,0.5,1.4,2.8,1.7,3.6c0.9,1.8,1.8,3.7,2.7,5.5c1.4,2.8,2.7,3.9,1.6,6c-1.4,3-2.7,6.1-4,9.1c-0.3,0.6,0.6,1.1,0.9,0.5
					c1.1-2.5,2.2-5.1,3.3-7.6c0.5-1.1,1.5-2.5,1.4-3.8c-0.1-2-2.5-5.2-3.4-6.9c-1.1-2.3-2.3-4.7-3.4-7c-0.1-0.2-0.3-0.2-0.4-0.2
					c-19-0.1-38.1-0.2-57.1-0.2c-4.7,0-9.3,0-14-0.1c-1.6,0-3.5-0.3-5.1,0c-3.2,0.8-5.1,3.1-8.3,3.1c-4.7,0-9.3,0-14,0
					c-10.5,0-21.1,0.1-31.6,0.1c-0.2,0-0.4,0.2-0.5,0.4c-1.9,7.3-3.9,14.5-5.8,21.8c-0.1,0.3,0.2,0.6,0.5,0.6c40.2,0,80.4,0,120.5,0
					c5.8,0,11.6,0,17.4,0C339.3,383.2,339.3,382.2,338.6,382.2z"/>
			</g>
		</g>
		<path class="st13" d="M328,361.7h-38.1c-1.2,0-2.1,1-2.1,2.1s0.9,2.1,2.1,2.1H328c1.2,0,2.1-1,2.1-2.1S329.2,361.7,328,361.7z"/>
		<g>
			<polygon class="st14" points="339.3,373.4 265.8,373.4 258,377.2 205.8,376.5 206.6,373.6 256.5,373.6 263.9,369.9 340.6,370.1
							"/>
		</g>
		<circle class="st15" cx="348" cy="431.4" r="6.5"/>
		<path class="st13" d="M266.7,396.1h-21c-1.7,0-3.1-1.4-3.1-3.1v-4.2c0-1.7,1.4-3.1,3.1-3.1h21c1.7,0,3.1,1.4,3.1,3.1v4.2
			C269.7,394.7,268.3,396.1,266.7,396.1z"/>
		<path class="st13" d="M288.4,400.6h-7.1c-2.6,0-4.7-2.1-4.7-4.7v-6.5c0-2.6,2.1-4.7,4.7-4.7h7.1c2.6,0,4.7,2.1,4.7,4.7v6.5
			C293.1,398.5,291,400.6,288.4,400.6z"/>
		<path class="st13" d="M308.8,400.9h-7.1c-2.6,0-4.7-2.1-4.7-4.7v-6.5c0-2.6,2.1-4.7,4.7-4.7h7.1c2.6,0,4.7,2.1,4.7,4.7v6.5
			C313.5,398.8,311.4,400.9,308.8,400.9z"/>
		<g>
			<polygon class="st13" points="321,385.8 337.2,386.3 348.7,399.5 322.6,399.3 			"/>
			<g>
				<path class="st13" d="M321,386.4c2.9,0.1,5.8,0.2,8.6,0.2c1.8,0,3.5,0.1,5.3,0.1c0.7,0,2.4,0.2,2.1,0c2.2,1.2,4.3,5,5.9,6.9
					c1.8,2.1,3.6,4.2,5.4,6.2c0.1-0.3,0.3-0.7,0.4-1c-7.3,0-14.6-0.1-21.9-0.1c-1.1,0-2.6,0.3-3.6,0c-1-0.3,0.5,1,0.1,0.3
					c-0.3-0.6-0.2-1.7-0.3-2.3c-0.4-3.6-0.9-7.2-1.3-10.9c-0.1-0.8-1.3-0.8-1.2,0c0.6,4.5,1.1,9,1.7,13.5c0,0.3,0.2,0.6,0.6,0.6
					c8.7,0.1,17.3,0.1,26,0.2c0.5,0,0.8-0.6,0.4-1c-2-2.3-4-4.7-6-7c-1.4-1.7-3.5-5.3-5.4-6.3c-1.8-0.9-5.1-0.3-7-0.3
					c-3.2-0.1-6.4-0.2-9.6-0.3C320.2,385.2,320.2,386.4,321,386.4z"/>
			</g>
		</g>
		<polygon class="st15" points="199.1,428.3 197.3,422.8 194.4,424.5 196.4,428.2 		"/>
		<g>
			<polygon class="st9" points="367.1,419.2 364.5,419.7 362.8,426.9 365,428.2 368.6,423.2 			"/>
			<g>
				<path class="st9" d="M366.9,418.6c-0.9,0.2-1.7,0.4-2.6,0.5c-0.2,0-0.4,0.2-0.4,0.4c-0.6,2.4-1.1,4.8-1.7,7.2
					c-0.1,0.3,0,0.5,0.3,0.7c0.7,0.4,1.5,0.8,2.2,1.2c0.3,0.2,0.6,0.1,0.8-0.2c0.5-0.7,1-1.5,1.6-2.2c0.6-0.8,1.6-1.7,1.9-2.7
					c0.2-0.6-0.1-1.2-0.3-1.8c-0.3-0.9-0.7-1.9-1-2.8c-0.3-0.7-1.4-0.4-1.2,0.3c0.3,0.8,0.6,1.7,0.9,2.5c0.2,0.4,0.3,0.9,0.5,1.4
					c0,0.1,0.3-0.3-0.1,0c-0.8,0.6-1.4,2-2,2.7c-0.5,0.6-0.9,1.3-1.4,1.9c0.3-0.1,0.5-0.1,0.8-0.2c-0.7-0.4-1.5-0.8-2.2-1.2
					c0.1,0.2,0.2,0.5,0.3,0.7c0.4-1.8,0.8-3.6,1.3-5.4c0.1-0.4,0.3-0.9,0.3-1.3c0-0.7,0.2-0.2-0.3-0.1c0.9-0.1,1.7-0.3,2.6-0.5
					C368,419.6,367.7,418.5,366.9,418.6z"/>
			</g>
		</g>
		<g>
			<circle class="st15" cx="247.2" cy="432.1" r="6.5"/>
			<ellipse cx="246.9" cy="430.4" rx="10.5" ry="10.3"/>
			<ellipse class="st9" cx="246.7" cy="430.3" rx="7.1" ry="7"/>
			<ellipse class="st3" cx="246.6" cy="430.1" rx="2.6" ry="2.6"/>
		</g>
		<g>
			<circle class="st15" cx="351.1" cy="432.9" r="6.5"/>
			<ellipse cx="350.8" cy="431.1" rx="10.5" ry="10.3"/>
			<ellipse class="st9" cx="350.6" cy="431.1" rx="7.1" ry="7"/>
			<ellipse class="st3" cx="350.5" cy="430.9" rx="2.6" ry="2.6"/>
		</g>
		<g>
			<polygon class="st14" points="266.8,412 354.7,411.8 351.7,405.3 263,405.3 257.3,411.2 202,410.4 204.6,415.8 262.4,416 			"/>
		</g>
	</g>
</g>
<text transform="matrix(1 0 0 1 14 175)" class="st16 st17">Personal</text>
</svg>
