<?xml version="1.0" encoding="utf-8"?>
<!-- Generator: Adobe Illustrator 21.0.2, SVG Export Plug-In . SVG Version: 6.00 Build 0)  -->
<svg version="1.1" id="Layer_1" xmlns="http://www.w3.org/2000/svg" xmlns:xlink="http://www.w3.org/1999/xlink" x="0px" y="0px"
	 viewBox="0 0 240 300" style="enable-background:new 0 0 240 300;" xml:space="preserve">
<style type="text/css">
	.st0{fill:#C91B1B;}
	.st1{fill:#1C86C6;}
</style>
<g>
	<g>
		<path d="M145.8,234.8c1.8-12.7,3.7-25.3,5.5-38c0.2-1.4-2-2-2.2-0.6c-1.8,12.3-3.7,24.7-5.5,37c0.7,0.1,1.5,0.2,2.2,0.3
			c-0.9-7.1-1.5-14.4-2.7-21.5c-0.2-0.9-0.1-2.2-0.2-1.7c0.4-1.4,1.8-2.8,2.5-4c1.9-3.1,3.9-6.2,5.8-9.2c0.8-1.2-1.1-2.3-1.9-1.1
			c-3,4.6-6.1,9.2-9.1,13.7c0.7,0.2,1.4,0.4,2.1,0.6c-1.1-8.3-1.9-16.7-3.2-24.9c-0.1-0.5-0.2-1-0.2-1.5c0-0.6-0.2,0.7,0-0.2
			c0.5-1.8,1.7-3.7,2.5-5.4c1.7-3.7,3.5-7.4,5.2-11.1c0.6-1.3-1.3-2.4-1.9-1.1c-2.9,5.7-5.8,11.4-8.7,17c0.7,0.1,1.4,0.2,2.1,0.3
			c-1.3-8.5-2.6-17-3.8-25.4c-0.1-0.6-0.4-3.3-0.5-2.7c-0.2,0.9,0.6-0.8,0.7-1c0.6-0.8,1-1.8,1.5-2.6c2.2-3.8,4.4-7.7,6.7-11.5
			c0.7-1.3-1.2-2.4-1.9-1.1c-3,5.2-6.1,10.3-9.1,15.5c0.7,0.2,1.4,0.4,2.1,0.6c-0.7-5.3-1.4-10.6-2.1-15.9
			c-0.7-5.6-0.6-12.4-2.4-17.8c-1.2-3.6-7.1-4.7-10.2-6c-5.6-2.4-11.2-4.8-16.8-7.2c-1.3-0.6-2.5,1.4-1.1,1.9
			c3.7,1.7,7.5,3.3,11.2,5c0.6,0.3,1.3,0.7,2,0.9c0.2,0.1,0-1.6-0.3-0.6c-0.4,1.4-0.5,3.1-0.7,4.6c-1.4,8.3-2.7,16.6-4.1,24.9
			c0.7-0.1,1.4-0.2,2.1-0.3c-2.9-4.8-5.8-9.7-8.6-14.5c-0.7-1.2-2.7-0.1-1.9,1.1c2.1,3.6,4.2,7.2,6.4,10.9c0.5,0.9,1,1.8,1.6,2.7
			c0.4,0.6,0.6,1.3,0.4,0.1c0.1,1.1-0.4,2.6-0.5,3.7c-1.2,8.6-2.5,17.2-3.7,25.8c0.7-0.1,1.4-0.2,2.1-0.3c-2.6-5.5-5.2-11-7.7-16.5
			c-0.3-0.7-1.3-0.7-1.8-0.2c0,0,0,0,0,0c-0.4,0.4-0.4,0.9-0.2,1.4c1.6,3.6,3.3,7.2,4.9,10.8c0.8,1.7,1.8,3.5,2.4,5.2
			c0.3,1,0-1.1,0-0.1c0,0.6-0.2,1.3-0.3,1.9c-1.2,8.4-2.3,16.8-3.5,25.2c0.7-0.1,1.4-0.2,2.1-0.3c-2.6-5.8-5.1-11.7-7.7-17.5
			c-0.6-1.3-2.5-0.2-1.9,1.1c1.8,4.2,3.6,8.5,5.4,12.7c0.4,1,0.9,2.1,1.3,3.1c0.1,0.3,0.8,2.1,0.6,1.2c-0.1-0.6-0.4,2.4-0.5,3.1
			c-1.3,9.3-2.7,18.6-4,28c-0.1,0.7,0.3,1.4,1.1,1.4c6,0,12.1,0,18.1,0c4.7,0,9.4,0,14.1,0c1.6,0,3.2,0.2,4.7,0c0.4,0,1-0.1,1.3,0
			c0.6,0.1-1.1-0.6-0.4-0.1c2,1.5,3.7,4,5.4,5.8c3.2,3.4,6.4,6.8,9.6,10.2c4.6,4.9,9.2,9.8,13.8,14.8c1,1.1,2.6-0.5,1.6-1.6
			c-9.6-10.3-19.2-20.7-28.8-31c-0.3,0.6-0.5,1.3-0.8,1.9c2.9,0.3,5.8,0.7,8.8,1c1.4,0.2,1.4-2.1,0-2.3c-2.9-0.3-5.8-0.7-8.8-1
			c-1-0.1-1.4,1.3-0.8,1.9c9.6,10.3,19.2,20.7,28.8,31c0.5-0.5,1.1-1.1,1.6-1.6c-4.8-5.2-9.7-10.3-14.5-15.5
			c-3.1-3.4-6.3-6.7-9.4-10.1c-1.4-1.5-3.2-4.4-5-5.4c-1.7-0.9-4.4-0.4-6.3-0.4c-4.7,0-9.4,0-14,0c-6.3,0-12.7,0-19,0
			c0.4,0.5,0.7,0.9,1.1,1.4c1.4-9.7,2.8-19.4,4.2-29.2c0.4-2.9-0.1-4-1.3-6.8c-2-4.6-4-9.2-5.9-13.9c-0.6,0.4-1.3,0.8-1.9,1.1
			c2.6,5.8,5.1,11.7,7.7,17.5c0.4,0.8,1.9,0.7,2.1-0.3c1.2-8.7,2.9-17.4,3.6-26.2c0.2-2.6-0.8-4.2-1.9-6.6c-1.2-2.5-2.3-5.1-3.5-7.6
			c-0.4-1-0.8-2.1-1.4-3c-1-1.6,0.3-1.2-0.8,0c-0.6-0.1-1.2-0.2-1.8-0.2c2.6,5.5,5.2,11,7.7,16.5c0.4,0.8,1.9,0.7,2.1-0.3
			c1.3-9,2.6-18,3.9-27c0.4-2.8,0.2-3.4-1.3-5.9c-2.3-4-4.7-7.9-7-11.9c-0.6,0.4-1.3,0.8-1.9,1.1c2.9,4.8,5.8,9.7,8.6,14.5
			c0.5,0.8,1.9,0.7,2.1-0.3c1.6-10,3.3-20,4.9-30c0.1-0.5,0-1.1-0.5-1.3c-4.5-2-9-4-13.5-6c-0.4,0.6-0.8,1.3-1.1,1.9
			c5.2,2.2,10.3,4.4,15.5,6.7c2.8,1.2,5.7,2.3,8.4,3.6c1.6,0.8,1.7,0.4,2.1,1.6c0.7,2.1,0.6,4.8,0.9,6.9c0.5,3.7,1,7.5,1.5,11.2
			c0.7,5,1.3,10,2,15c0.1,1,1.5,1.6,2.1,0.6c3-5.2,6.1-10.3,9.1-15.5c-0.6-0.4-1.3-0.8-1.9-1.1c-2.3,4-4.6,7.9-6.9,11.9
			c-1.5,2.6-2.4,3.6-1.9,6.5c1.3,8.9,2.7,17.7,4,26.6c0.1,1,1.6,1.1,2.1,0.3c2.9-5.7,5.8-11.4,8.7-17c-0.6-0.4-1.3-0.8-1.9-1.1
			c-1.8,3.8-3.6,7.7-5.4,11.5c-1.1,2.4-2.6,4.5-2.6,7.1c0.1,8.4,2.2,17.2,3.3,25.6c0.1,1.1,1.4,1.6,2.1,0.6c3-4.6,6.1-9.2,9.1-13.7
			c-0.6-0.4-1.3-0.8-1.9-1.1c-2.1,3.3-4.2,6.7-6.3,10c-1.3,2-2.2,3-2.2,5.3c0.1,7.3,1.9,15,2.8,22.3c0.1,1.1,2,1.7,2.2,0.3
			c1.8-12.3,3.7-24.7,5.5-37c-0.7-0.2-1.4-0.4-2.2-0.6c-1.8,12.7-3.7,25.3-5.5,38C143.5,235.6,145.6,236.2,145.8,234.8z"/>
	</g>
</g>
<g>
	<g>
		<path d="M142.8,138.4c-4.6-6.2-9.3-12.3-13.9-18.5c-0.9-1.1-2.8,0-1.9,1.1c2.6,3.5,5.2,6.9,7.7,10.4c1.8,2.5,5.2,6.1,6,8.5
			c1.4,4.4,1.5,9.7,2.2,14.3c0.6,4,1.2,8.1,1.8,12.1c0.6-0.4,1.3-0.7,1.9-1.1c-4.4-3.9-8.8-7.7-13.2-11.6c-1.1-1-2.7,0.6-1.6,1.6
			c2.2,1.9,4.4,3.9,6.5,5.8c1.5,1.3,2.9,2.6,4.4,3.9c0.5,0.4,2.3,2.4,1.9,1.5c0.9,1.9,0.7,5,1,7c0.6,4.3,1.2,8.5,1.9,12.8
			c1.7,11.8,3.4,22.9,5.2,35.4c0.3,2,0.1,5.6,1.1,7.3c1.3,2.2,5.4,4.1,7.5,5.6c0.5,0.4,1.2,0,1.5-0.4c1.4-1.8,3.4-3.7,3.9-5.9
			c0.7-2.8,0-6.8,0-9.7c0-4.4,0-8.7,0-13.1c0-1.3,0.1-2.7,0-4c-0.1-1.4-0.9,0.4-0.1,0.1c12-5.5,24-10.9,36-16.3
			c1.3-0.6,0.2-2.5-1.1-1.9c-12.2,5.5-24.3,10.9-36.5,16.4c0.6,0.3,1.1,0.6,1.7,1c0-2.6,0-5.2,0-7.9c0-3-0.2-4.4,0.7-6.4
			c1.5-3.2,1-3,3.9-4.6c2.6-1.4,5.2-2.7,7.8-4.1c0.3-0.2,0.6-0.6,0.6-1c0-3,0-6.1,0-9.1c0-3.1-0.3-3.6,0.7-5.5
			c3.1-5.5,5.9-11.2,8.9-16.8c-0.6-0.4-1.3-0.8-1.9-1.1c-2.9,6.1-5.8,12.3-8.8,18.4c0.7,0.2,1.4,0.4,2.1,0.6c0-2.8,0-5.5,0-8.3
			c0-3,0.8-7.1,0-10c-0.9-3.5-4.6-6.5-7.8-7.9c-7-3-14.1-6.1-21.1-9.1c-1.9-0.8-4.3-2.4-6.4-2.8c-1.8-0.3-3.8,0.7-5.5,1.3
			c-0.6,0.2-0.9,0.8-0.8,1.4c0.6,3.9,1.1,7.7,1.7,11.6c0.2,1.4,2.4,0.8,2.2-0.6c-0.6-3.9-1.1-7.7-1.7-11.6c-0.3,0.5-0.5,0.9-0.8,1.4
			c1.2-0.4,2.5-1,3.8-1.3c1-0.2-0.8-0.4,0.7,0c2.3,0.7,4.6,2,6.9,3c6.5,2.8,12.9,5.6,19.4,8.4c1.4,0.6,2.6,1.1,3.5,1.9
			c1.2,1.1,2.2,2.5,3.2,3.8c1.1,1.5,0.5-0.4,0.5,1.2c0.2,5.8,0,11.7,0,17.6c0,1.1,1.6,1.6,2.1,0.6c2.9-6.1,5.8-12.3,8.8-18.4
			c0.6-1.3-1.3-2.4-1.9-1.1c-3,5.7-6.4,11.4-9.1,17.3c-2.1,4.6,0.4,10.1-0.8,14.9c-0.2,0.8,1-1,0.2-0.4c-0.6,0.4-1.4,0.7-2,1
			c-1.8,0.9-3.6,1.9-5.4,2.8c-2.7,1.4-3.1,1.8-4.4,4.6c-2.3,5.1-1.4,10.7-1.4,16.2c0,0.9,0.9,1.3,1.7,1
			c12.2-5.5,24.3-10.9,36.5-16.4c-0.4-0.6-0.8-1.3-1.1-1.9c-12.2,5.5-24.3,11-36.5,16.5c-0.4,0.2-0.6,0.6-0.6,1c0,6.1,0,12.2,0,18.3
			c0,2.7,0.6,6.1,0,8.8c-0.2,1-2.3,3.4-3.6,5.2c0.5-0.1,1-0.3,1.5-0.4c-1.2-0.8-2.3-1.7-3.5-2.5c-0.7-0.5-1.5-1.1-2.3-1.6
			c-0.9-0.5-1.1-1.2-0.8-0.3c-0.8-1.9-0.7-5.1-1-7.1c-1.1-7.7-2-15.5-3.3-23.2c-0.5-3.4-1.2-7.4-1.8-11.7c-0.6-4.3-1.2-8.5-1.9-12.8
			c-0.3-2.1-0.2-5.4-1.1-7.4c-0.9-2-3.8-3.7-5.4-5.1c-2.7-2.4-5.3-4.7-8-7.1c-0.5,0.5-1.1,1.1-1.6,1.6c4.4,3.9,8.8,7.7,13.2,11.6
			c0.9,0.8,2,0,1.9-1.1c-0.6-4-1.2-8.1-1.8-12.1c-0.7-4.6-0.7-10.2-2.2-14.6c-1-2.8-3.8-5.5-5.6-7.9c-2.8-3.7-5.5-7.5-8.3-11.2
			c-0.6,0.4-1.3,0.8-1.9,1.1c4.6,6.2,9.3,12.3,13.9,18.5C141.7,140.7,143.7,139.6,142.8,138.4z"/>
	</g>
</g>
<g>
	<g>
		<path d="M58.3,98.8c8.5-3.4,17-6.8,25.5-10.3c-0.5-0.4-0.9-0.7-1.4-1.1c0,5.6,0,11.2,0,16.8c0,1.5,2.2,1.4,2.3,0
			c0.2-5.6,0.3-11.2,0.5-16.8c0-0.7-0.7-1.4-1.4-1.1c-8.7,3.4-17.3,6.9-26,10.3C56.4,97.2,57,99.4,58.3,98.8
			c8.7-3.4,17.3-6.9,26-10.3c-0.5-0.4-0.9-0.7-1.4-1.1c-0.2,5.6-0.3,11.2-0.5,16.8c0.8,0,1.5,0,2.3,0c0-5.6,0-11.2,0-16.8
			c0-0.7-0.7-1.4-1.4-1.1c-8.5,3.4-17,6.8-25.5,10.3C56.4,97.2,57,99.4,58.3,98.8z"/>
	</g>
</g>
<g>
	<g>
		<path d="M145.9,126.3c1.2-9.3,2.4-18.5,3.6-27.8c0.1-1-1.3-1.4-1.9-0.8c-0.8,0.8-0.7,2.3-0.8,3.3c-0.4,3.2-0.8,6.3-1.2,9.5
			c-0.6,5.3-1.3,10.5-1.9,15.8C143.4,127.7,145.7,127.7,145.9,126.3c0.6-4.6,1.1-9.2,1.7-13.8c0.4-3,0.7-6.1,1.1-9.1
			c0.1-1,0.5-2.3,0.4-3.4c-0.1-0.9,0.6-1.3,0-0.7c-0.6-0.3-1.3-0.5-1.9-0.8c-1.2,9.3-2.4,18.5-3.6,27.8
			C143.4,127.7,145.7,127.7,145.9,126.3z"/>
	</g>
</g>
<g>
	<g>
		<path d="M104.3,49.3c-12.7-5.5-25.3-11-38-16.5c-0.9-0.4-1.8,0.3-1.7,1.3c2,12.5,4,25,6,37.5c0.1,0.7,1.1,1,1.7,0.7
			c10.7-7,21.3-14,32-21c1.2-0.8,0.1-2.7-1.1-1.9c-10.7,7-21.3,14-32,21c0.6,0.2,1.1,0.4,1.7,0.7c-2-12.5-4-25-6-37.5
			c-0.6,0.4-1.1,0.8-1.7,1.3c12.7,5.5,25.3,11,38,16.5C104.5,51.8,105.6,49.9,104.3,49.3z"/>
	</g>
</g>
<g>
	<g>
		<path d="M100.4,80.3c0,9.5,0,19,0,28.5c0,1,1.2,1.4,1.9,0.8c7.5-6.7,15.1-13.4,22.6-20.1c0.7-0.6,0.2-1.6-0.5-1.9
			c-7.5-2.8-15.1-5.6-22.6-8.4c-1.4-0.5-1.9,1.7-0.6,2.2c7.5,2.8,15.1,5.6,22.6,8.4c-0.2-0.6-0.3-1.3-0.5-1.9
			c-7.5,6.7-15.1,13.4-22.6,20.1c0.6,0.3,1.3,0.5,1.9,0.8c0-9.5,0-19,0-28.5C102.6,78.8,100.4,78.8,100.4,80.3z"/>
	</g>
</g>
<g>
	<polygon class="st0" points="124.3,88.8 101.8,108.8 127.3,119.8 	"/>
	<g>
		<path d="M123.5,88c-7.5,6.7-15,13.3-22.5,20c-0.5,0.4-0.4,1.5,0.2,1.8c8.5,3.7,17,7.3,25.5,11c0.7,0.3,1.8,0,1.7-1
			c-1-10.3-2-20.7-3-31c-0.1-1.4-2.4-1.4-2.3,0c1,10.3,2,20.7,3,31c0.6-0.3,1.1-0.6,1.7-1c-8.5-3.7-17-7.3-25.5-11
			c0.1,0.6,0.2,1.2,0.2,1.8c7.5-6.7,15-13.3,22.5-20C126.1,88.6,124.5,87,123.5,88z"/>
	</g>
</g>
<g>
	<g>
		<path d="M148.1,97.2c-7.8-3.2-15.7-6.3-23.5-9.5c-0.6-0.3-1.5,0.4-1.4,1.1c1,10.3,2,20.7,3,31c0.1,0.9,1.2,1.6,1.9,0.8
			c6.8-7.2,13.7-14.3,20.5-21.5c1-1-0.6-2.6-1.6-1.6c-6.8,7.2-13.7,14.3-20.5,21.5c0.6,0.3,1.3,0.5,1.9,0.8c-1-10.3-2-20.7-3-31
			c-0.5,0.4-0.9,0.7-1.4,1.1c7.8,3.2,15.7,6.3,23.5,9.5C148.8,99.9,149.4,97.7,148.1,97.2z"/>
	</g>
</g>
<g>
	<g>
		<path d="M148.6,97.4c0,0-0.1,0-0.1-0.1c-0.8-0.3-1.3,0.4-1.4,1.1c0,0.1,0,0.2,0,0.2c-0.1,1,1.3,1.4,1.9,0.8
			c0.1-0.1,0.1-0.1,0.2-0.2c1-1-0.6-2.6-1.6-1.6c-0.1,0.1-0.1,0.1-0.2,0.2c0.6,0.3,1.3,0.5,1.9,0.8c0-0.1,0-0.2,0-0.2
			c-0.5,0.4-0.9,0.7-1.4,1.1c0,0,0.1,0,0.1,0.1c0.6,0.2,1.2-0.2,1.4-0.8C149.6,98.1,149.2,97.6,148.6,97.4z"/>
	</g>
</g>
<g>
	<g>
		<path d="M127,120.8c5.8,2.2,11.7,4.3,17.5,6.5c0.8,0.3,1.3-0.4,1.4-1.1c1.1-9.2,2.3-18.4,3.4-27.6c0.1-1-1.3-1.4-1.9-0.8
			c-7,7-13.9,14.1-20.9,21.1c-1,1,0.6,2.6,1.6,1.6c7-7,13.9-14.1,20.9-21.1c-0.6-0.3-1.3-0.5-1.9-0.8c-1.1,9.2-2.3,18.4-3.4,27.6
			c0.5-0.4,0.9-0.7,1.4-1.1c-5.8-2.2-11.7-4.3-17.5-6.5C126.2,118.2,125.6,120.3,127,120.8z"/>
	</g>
</g>
<g>
	<g>
		<path d="M147.7,97.3c-0.2,0.1-0.3,0.2-0.5,0.3c-0.8,0.5-0.7,1.8,0.3,2.1c0.1,0,0.3,0.1,0.4,0.1c0.6,0.1,1.2-0.2,1.4-0.8
			c0-0.1,0.1-0.2,0.1-0.4c0.1-0.6-0.2-1.2-0.8-1.4c-0.6-0.2-1.3,0.2-1.4,0.8c0,0.1-0.1,0.2-0.1,0.4c0.5-0.3,0.9-0.5,1.4-0.8
			c-0.1,0-0.3-0.1-0.4-0.1c0.1,0.7,0.2,1.4,0.3,2.1c0.2-0.1,0.3-0.2,0.5-0.3C150.1,98.5,148.9,96.6,147.7,97.3z"/>
	</g>
</g>
<g>
	<polygon class="st0" points="65.8,34 59.8,37 44.3,71.5 71.8,71.5 	"/>
	<g>
		<path d="M65.2,33c-2.3,1.1-5.2,2-6.7,4c-2.1,3.1-3.3,7.4-4.9,10.8c-3.5,7.7-6.9,15.4-10.4,23c-0.3,0.8,0,1.7,1,1.7
			c9.2,0,18.3,0,27.5,0c0.8,0,1.2-0.7,1.1-1.4c-2-12.5-4-25-6-37.5c-0.2-1.4-2.4-0.8-2.2,0.6c2,12.5,4,25,6,37.5
			c0.4-0.5,0.7-0.9,1.1-1.4c-9.2,0-18.3,0-27.5,0c0.3,0.6,0.6,1.1,1,1.7c3.3-7.2,6.5-14.5,9.8-21.7c1.7-3.8,3.4-7.6,5.1-11.3
			c0.5-1.1,0.6-1.2,0.8-1.3c1.5-1.2,3.8-1.9,5.5-2.7C67.6,34.3,66.5,32.4,65.2,33z"/>
	</g>
</g>
<g>
	<polygon class="st1" points="101.8,80.3 108.3,56.8 103.8,50.3 71.8,71.3 	"/>
	<g>
		<path d="M102.8,80.5c1.7-6.2,3.4-12.3,5.1-18.5c0.4-1.5,1.7-4,1.4-5.6c-0.4-2.2-3.3-4.9-4.6-6.8c-0.3-0.5-1-0.8-1.5-0.4
			c-10.7,7-21.3,14-32,21c-0.8,0.5-0.7,1.8,0.3,2.1c10,3,20,6,30,9c1.4,0.4,2-1.8,0.6-2.2c-10-3-20-6-30-9c0.1,0.7,0.2,1.4,0.3,2.1
			c10.7-7,21.3-14,32-21c-0.5-0.1-1-0.3-1.5-0.4c0.8,1.1,1.5,2.2,2.3,3.3c0.4,0.6,2.2,4,2.1,2.4c0.1,1.9-1.3,4.8-1.8,6.6
			c-1.6,5.6-3.1,11.2-4.7,16.8C100.3,81.3,102.4,81.9,102.8,80.5z"/>
	</g>
</g>
<g>
	<g>
		<path d="M43.3,72.1c4.5,8.8,9,17.7,13.5,26.5c0.4,0.7,1.6,0.7,1.9,0c4.7-8.8,9.3-17.7,14-26.5c0.4-0.7-0.1-1.7-1-1.7
			c-9.2,0-18.3,0-27.5,0c-1.4,0-1.5,2.3,0,2.3c9.2,0,18.3,0,27.5,0c-0.3-0.6-0.6-1.1-1-1.7c-4.7,8.8-9.3,17.7-14,26.5
			c0.6,0,1.3,0,1.9,0c-4.5-8.8-9-17.7-13.5-26.5C44.6,69.6,42.6,70.8,43.3,72.1z"/>
	</g>
</g>
<g>
	<polygon class="st1" points="39.8,114.8 57.8,97.8 44.3,71.3 	"/>
	<g>
		<path d="M40.5,115.5c6-5.7,12-11.3,18-17c0.4-0.4,0.4-0.9,0.2-1.4c-4.5-8.8-9-17.7-13.5-26.5c-0.6-1.1-2-0.4-2.1,0.6
			c-1.5,14.5-3,29-4.5,43.5c-0.1,1.4,2.1,1.4,2.3,0c1.5-14.5,3-29,4.5-43.5c-0.7,0.2-1.4,0.4-2.1,0.6c2,3.8,3.9,7.7,5.9,11.5
			c1.4,2.8,2.9,5.7,4.3,8.5c0.8,1.6,1.7,4.7,3,5.9c0.9,0.9-0.2-0.3,0.3-0.6c-0.5,0.4-1,0.9-1.5,1.4c-2,1.9-4,3.8-6,5.6
			c-3.5,3.3-6.9,6.6-10.4,9.8C37.9,115,39.5,116.5,40.5,115.5z"/>
	</g>
</g>
<g>
	<g>
		<path d="M44,125.3c3.3,1.2,6.7,2.3,10,3.5c0.8,0.3,1.3-0.4,1.4-1.1c1.2-10,2.3-20,3.5-30c0.1-1-1.3-1.4-1.9-0.8
			c-6,5.7-12,11.3-18,17c-0.4,0.4-0.4,0.9-0.2,1.4c1.5,3.2,3,6.3,4.5,9.5c0.6,1.3,2.6,0.2,1.9-1.1c-1.1-2.3-2.2-6.9-4.1-8.6
			c-1.1-1,0.4-0.5-0.4,0.4c0.2-0.2,0.5-0.5,0.7-0.7c1.1-0.6,2.2-2.1,3.1-2.9c4.7-4.4,9.4-8.8,14-13.3c-0.6-0.3-1.3-0.5-1.9-0.8
			c-1.2,10-2.3,20-3.5,30c0.5-0.4,0.9-0.7,1.4-1.1c-3.3-1.2-6.7-2.3-10-3.5C43.2,122.7,42.6,124.9,44,125.3z"/>
	</g>
</g>
<g>
	<polygon class="st1" points="65.8,127.5 76.7,112.5 57.8,97.5 54.3,127.5 	"/>
	<g>
		<path d="M66.7,128.1c3.6-5,7.3-10,10.9-15c0.3-0.4,0.2-1.1-0.2-1.4c-6.3-5-12.6-10-18.9-15c-0.8-0.6-1.8-0.2-1.9,0.8
			c-1.2,10-2.3,20-3.5,30c-0.1,0.6,0.6,1.1,1.1,1.1c3.8,0,7.7,0,11.5,0c1.4,0,1.5-2.3,0-2.3c-3.8,0-7.7,0-11.5,0
			c0.4,0.4,0.8,0.8,1.1,1.1c1.2-10,2.3-20,3.5-30c-0.6,0.3-1.3,0.5-1.9,0.8c2.5,2,5,4,7.6,6c2,1.6,4,3.2,6,4.8
			c1.2,1,2.9,2.9,4.4,3.5c0.3,0.1,0.7,0.5,0.9,0.7c-1.8-1.6,0.8-1.3-0.7-0.5c-1.4,0.7-2.8,3.8-3.7,5.1c-2.2,3-4.4,6.1-6.6,9.1
			C63.9,128.1,65.9,129.2,66.7,128.1z"/>
	</g>
</g>
<g>
	<polygon class="st0" points="83.5,87.3 101.5,80.3 71.5,71.3 57.5,97.8 83.5,87.4 	"/>
	<g>
		<path d="M83.8,88.3c6-2.3,12-4.7,18-7c1-0.4,1.1-1.8,0-2.2c-10-3-20-6-30-9c-0.5-0.1-1,0.1-1.3,0.5c-4.7,8.8-9.3,17.7-14,26.5
			c-0.4,0.8,0.3,2,1.3,1.7c8.7-3.4,17.3-6.9,26-10.3c0.5-0.2,0.8-0.6,0.8-1.1c0-0.1,0-0.1,0-0.2c0-1.4-2.3-1.5-2.3,0
			c0-1.5,1.4-0.7-0.2-0.5c-1,0.1-2.1,0.8-3.1,1.2c-3,1.2-6,2.4-8.9,3.6c-4.3,1.7-8.7,3.4-13,5.2c0.4,0.6,0.8,1.1,1.3,1.7
			c2.4-4.6,4.8-9.1,7.2-13.7c1.6-2.9,3.1-5.9,4.7-8.8c0.5-0.9,1.5-2.1,1.6-3.1c0.3-1.6,1.1,0.2-0.7-0.4c9.9,3.1,19.9,6,29.9,9
			c0-0.7,0-1.4,0-2.2c-6,2.3-12,4.7-18,7C81.9,86.7,82.4,88.9,83.8,88.3z"/>
	</g>
</g>
<g>
	<g>
		<path d="M56.7,98.5c6.3,5,12.7,10,19,15c0.4,0.3,1.2,0.5,1.6,0c2.3-2.8,6.7-6.3,7.3-9.9c0.8-5.1-0.1-11-0.2-16.1
			c0-0.7-0.7-1.4-1.4-1.1c-8.6,3.4-17.2,6.8-25.8,10.3c-1.3,0.5-0.7,2.7,0.6,2.2C66.4,95.4,75,92,83.6,88.6
			c-0.5-0.4-0.9-0.7-1.4-1.1c0.1,5-0.3,10.2,0.2,15.1c0.1,0.7-0.3,2.1,0.3,0.9c-0.4,0.8-1.4,1.7-1.9,2.3c-1.7,2-3.3,4-5,6.1
			c0.5,0,1.1,0,1.6,0c-6.3-5-12.7-10-19-15C57.2,96.1,55.6,97.6,56.7,98.5z"/>
	</g>
</g>
<g>
	<g>
		<path d="M82.4,87.7c0,5.6,0,11.2,0,16.8c0,0.6,0.5,1.1,1.1,1.1c6.3,0,11.8,2.5,17.7,4.5c0.7,0.2,1.4-0.4,1.4-1.1
			c0-9.5,0-19,0-28.5c0-0.7-0.7-1.4-1.4-1.1c-6,2.4-12,4.8-18,7.2c-1.3,0.5-0.7,2.7,0.6,2.2c6-2.4,12-4.8,18-7.2
			c-0.5-0.4-0.9-0.7-1.4-1.1c0,9.5,0,19,0,28.5c0.5-0.4,0.9-0.7,1.4-1.1c-6.2-2.1-11.8-4.5-18.3-4.5c0.4,0.4,0.8,0.8,1.1,1.1
			c0-5.6,0-11.2,0-16.8C84.6,86.2,82.4,86.2,82.4,87.7z"/>
	</g>
</g>
<g>
	<g>
		<path d="M83.8,88.5c6-2.4,12-4.8,18-7.2c1.3-0.5,0.8-2.7-0.6-2.2c-6,2.3-12,4.7-18,7c-0.5,0.2-0.8,0.6-0.8,1.1c0,0.1,0,0.1,0,0.2
			c0,1.4,2.3,1.5,2.3,0c0-0.1,0-0.1,0-0.2c-0.3,0.4-0.6,0.7-0.8,1.1c6-2.3,12-4.7,18-7c-0.2-0.7-0.4-1.4-0.6-2.2
			c-6,2.4-12,4.8-18,7.2C81.9,86.9,82.5,89,83.8,88.5z"/>
	</g>
</g>
<g>
	<g>
		<path d="M168.5,105.6c-6.6-2.7-13.3-5.5-19.9-8.2c-0.8-0.3-1.3,0.5-1.4,1.1c-1.2,9.3-2.4,18.5-3.6,27.8c-0.1,1.1,1.3,1.3,1.9,0.8
			c7.8-6.5,15.6-13.1,23.5-19.6c1.1-0.9-0.5-2.5-1.6-1.6c-7.8,6.5-15.6,13.1-23.5,19.6c0.6,0.3,1.3,0.5,1.9,0.8
			c1.2-9.3,2.4-18.5,3.6-27.8c-0.5,0.4-0.9,0.7-1.4,1.1c6.6,2.7,13.3,5.5,19.9,8.2C169.2,108.3,169.8,106.1,168.5,105.6z"/>
	</g>
</g>
<g>
	<g>
		<path d="M167.5,106c-7.8,6.5-15.7,13-23.5,19.5c-0.5,0.4-0.4,1.5,0.2,1.8c10,4.3,20,8.7,30,13c0.9,0.4,1.9-0.2,1.7-1.3
			c-2.2-10.8-4.3-21.7-6.5-32.5c-0.3-1.4-2.5-0.8-2.2,0.6c2.2,10.8,4.3,21.7,6.5,32.5c0.6-0.4,1.1-0.8,1.7-1.3c-10-4.3-20-8.7-30-13
			c0.1,0.6,0.2,1.2,0.2,1.8c7.8-6.5,15.7-13,23.5-19.5C170.2,106.6,168.6,105,167.5,106z"/>
	</g>
</g>
<g>
	<polygon class="st0" points="197.8,119.8 168.3,106.8 174.8,139.3 	"/>
	<g>
		<path d="M198.3,118.8c-9.8-4.3-19.7-8.7-29.5-13c-0.9-0.4-1.9,0.3-1.7,1.3c2.2,10.8,4.3,21.7,6.5,32.5c0.2,0.9,1.3,1,1.9,0.5
			c7.7-6.5,15.3-13,23-19.5c1.1-0.9-0.5-2.5-1.6-1.6c-7.7,6.5-15.3,13-23,19.5c0.6,0.2,1.3,0.3,1.9,0.5c-2.2-10.8-4.3-21.7-6.5-32.5
			c-0.6,0.4-1.1,0.8-1.7,1.3c9.8,4.3,19.7,8.7,29.5,13C198.5,121.3,199.6,119.4,198.3,118.8z"/>
	</g>
</g>
<g>
	<g>
		<path d="M196.2,139.7c0,0-0.1,0-0.1,0.1c-1.1,0.5-0.5,2,0.6,2.1c0.4,0,0.7,0,1.1,0.1c0.5,0,0.9-0.4,1.1-0.8
			c0.6-1.9,1.3-3.7,1.9-5.6c0.7-2,2.3-4.9,2.5-7.1c0.1-3-3-6.6-4.5-9.2c-0.4-0.7-1.2-0.7-1.8-0.2c-7.7,6.5-15.3,13-23,19.5
			c-0.8,0.7-0.1,1.9,0.8,1.9c7.3,0.5,14.7,0.9,22,1.4c1.4,0.1,1.4-2.2,0-2.3c-7.3-0.5-14.7-0.9-22-1.4c0.3,0.6,0.5,1.3,0.8,1.9
			c7.7-6.5,15.3-13,23-19.5c-0.6-0.1-1.2-0.2-1.8-0.2c1,1.8,2,3.5,3,5.3c0.4,0.7,1.4,1.8,1.5,2.6c-0.2-1.3-0.3,0.2-0.6,0.8
			c-1.1,2.3-1.7,4.9-2.5,7.2c-0.3,1-0.8,2-1,3c-0.5,1.9,0.1,0.4-0.5,0.3c0.2,0.7,0.4,1.4,0.6,2.1c0,0,0.1,0,0.1-0.1
			C198.6,141,197.5,139,196.2,139.7z"/>
	</g>
</g>
<g>
	<g>
		<path d="M177.4,144.8c0,6.1-0.1,12.3-0.1,18.4c0,1.1,1.6,1.6,2.1,0.6c2.6-4.9,5.1-9.8,7.7-14.7c0.5-0.9,0.9-2.1,1.5-3
			c0.8-1.1-0.4,0,0.9-0.8c2.3-1.5,5-2.5,7.5-3.6c1.1-0.5,0.5-2-0.6-2.1c-7.3-0.5-14.6-1-21.9-1.4c-0.8-0.1-1.5,1-1,1.7
			c1.3,1.8,2.7,3.7,4,5.5c0.8,1.2,2.8,0,1.9-1.1c-1.3-1.8-2.7-3.7-4-5.5c-0.3,0.6-0.6,1.1-1,1.7c7.3,0.5,14.6,1,21.9,1.4
			c-0.2-0.7-0.4-1.4-0.6-2.1c-2.5,1.2-5.5,2.2-7.7,3.8c-1.3,0.9-1.7,1.9-2.5,3.4c-2.7,5.2-5.4,10.4-8.2,15.7
			c0.7,0.2,1.4,0.4,2.1,0.6c0-6.1,0.1-12.3,0.1-18.4C179.6,143.3,177.4,143.3,177.4,144.8z"/>
	</g>
</g>
<g>
	<g>
		<path d="M174.8,140.4c4.1,0.3,8.2,0.5,12.2,0.8c2.5,0.2,4.9,0.3,7.4,0.5c0.9,0.1,2,0.4,2.9-0.1c1.1-0.5,0.5-2-0.6-2.1
			c-7.3-0.5-14.7-0.9-22-1.4C173.3,138,173.3,140.3,174.8,140.4c7.3,0.5,14.7,0.9,22,1.4c-0.2-0.7-0.4-1.4-0.6-2.1
			c0.7-0.3-0.1,0-0.6-0.2c-0.7-0.2-1.7-0.1-2.4-0.2c-2.5-0.2-5-0.3-7.5-0.5c-3.6-0.2-7.3-0.5-10.9-0.7
			C173.3,138,173.3,140.3,174.8,140.4z"/>
	</g>
</g>
<g>
	<polygon class="st0" points="188.5,176.8 188.5,144.8 179,163.3 	"/>
	<g>
		<path d="M189.6,176.8c0-10.7,0-21.3,0-32c0-1.1-1.6-1.6-2.1-0.6c-3.2,6.2-6.3,12.3-9.5,18.5c-0.2,0.3-0.2,0.8,0,1.1
			c3.2,4.5,6.3,9,9.5,13.5c0.8,1.2,2.8,0.1,1.9-1.1c-1.9-2.7-3.7-5.3-5.6-8c-1-1.4-2-3.5-3.2-4.6c-1.1-1-0.9,0.3-0.2-0.6
			c3.7-5.3,6.1-12,9.1-17.7c-0.7-0.2-1.4-0.4-2.1-0.6c0,10.7,0,21.3,0,32C187.4,178.2,189.6,178.2,189.6,176.8z"/>
	</g>
</g>
<g>
	<g>
		<path d="M178.2,177.8c7.8,2.5,15.7,5,23.5,7.5c1.2,0.4,2-1.5,0.9-2.1c-2.3-1.3-4.7-2.5-7-3.8c-1.6-0.9-3.2-1.7-4.8-2.6
			c-0.4-0.2-2.6-1.5-1.8-0.8c-2-1.8-3.4-4.9-5-7.1c-1.5-2.1-3-4.3-4.5-6.4c-0.6-0.9-2.1-0.6-2.1,0.6c0,4.5,0,9,0,13.5
			c0,1.4,2.3,1.5,2.3,0c0-4.5,0-9,0-13.5c-0.7,0.2-1.4,0.4-2.1,0.6c1.7,2.4,3.3,4.7,5,7.1c1.4,2,2.8,4.8,4.6,6.5
			c1.7,1.6,4.5,2.5,6.5,3.6c2.6,1.4,5.2,2.8,7.8,4.2c0.3-0.7,0.6-1.4,0.9-2.1c-7.8-2.5-15.7-5-23.5-7.5
			C177.4,175.2,176.8,177.4,178.2,177.8z"/>
	</g>
</g>
<g>
	<g>
		<path d="M167,181.7c-1.1,2.5-2.5,4.7-2.7,7.4c-0.2,3.8,0,7.7,0,11.5c0,0.9,0.9,1.3,1.7,1c12.2-5.5,24.3-10.9,36.5-16.4
			c0.9-0.4,0.6-1.8-0.3-2.1c-6.8-2.2-13.7-4.4-20.5-6.5c-2-0.7-2.8-1.1-4.7-0.4c-3.3,1.2-6.6,3.5-9.7,5.1c-1.3,0.7-0.1,2.6,1.1,1.9
			c3-1.6,6.4-2.9,9.2-4.8c0.3-0.2,0.9-0.6,1.2-0.6c-1,0.2-0.7,0.1,0,0.3c1.2,0.3,2.5,0.8,3.7,1.2c6.4,2,12.7,4.1,19.1,6.1
			c-0.1-0.7-0.2-1.4-0.3-2.1c-12.2,5.5-24.3,10.9-36.5,16.4c0.6,0.3,1.1,0.6,1.7,1c0-3.5,0-7,0-10.5c0-2.8,0.9-4.1,2.3-7.3
			C169.6,181.5,167.6,180.4,167,181.7z"/>
	</g>
</g>
<g>
	<g>
		<path d="M203.6,217.2c0-11,0-22,0-32.9c0-0.9-0.9-1.3-1.7-1c-12.2,5.5-24.3,11-36.5,16.5c-0.7,0.3-0.7,1.6,0,1.9
			c12.2,5.5,24.3,11,36.5,16.4c1.3,0.6,2.5-1.3,1.1-1.9c-12.2-5.5-24.3-11-36.5-16.4c0,0.6,0,1.3,0,1.9c12.2-5.5,24.3-11,36.5-16.5
			c-0.6-0.3-1.1-0.6-1.7-1c0,11,0,22,0,32.9C201.4,218.6,203.6,218.6,203.6,217.2z"/>
	</g>
</g>
<g>
	<polygon class="st1" points="202,217.3 165.5,200.8 165.5,228.3 	"/>
	<g>
		<path d="M202.6,216.3c-12.2-5.5-24.3-11-36.5-16.5c-0.8-0.3-1.7,0.1-1.7,1c0,9.2,0,18.3,0,27.5c0,0.7,0.7,1.3,1.4,1.1
			c12.2-3.7,24.3-7.3,36.5-11c1.4-0.4,0.8-2.6-0.6-2.2c-12.2,3.7-24.3,7.3-36.5,11c0.5,0.4,0.9,0.7,1.4,1.1c0-9.2,0-18.3,0-27.5
			c-0.6,0.3-1.1,0.6-1.7,1c12.2,5.5,24.3,11,36.5,16.5C202.7,218.8,203.9,216.9,202.6,216.3z"/>
	</g>
</g>
<g>
	<g>
		<path d="M162,234.6c15,0,30,0,45,0c1,0,1.4-1.2,0.8-1.9c-1-1.2-2-2.4-3.1-3.5c-0.3-0.3-1.1-1-1.2-1.4c0.5,1.2,0.2-0.1,0.2-0.5
			c-0.1-3.3,0-6.5,0-9.8c0-0.7-0.7-1.3-1.4-1.1c-7.9,2.4-15.9,4.8-23.8,7.2c-3.8,1.1-7.9,2-11.6,3.5c-2.6,1.1-3.8,3.4-5.6,5.6
			c-0.9,1.1,0.7,2.7,1.6,1.6c2-2.5,2.7-4.5,5.2-5.2c4.1-1.2,8.2-2.5,12.4-3.7c7.5-2.3,15-4.5,22.5-6.8c-0.5-0.4-0.9-0.7-1.4-1.1
			c0,3.3-0.8,7.5,0,10.7c0.6,2.3,3.2,4.3,4.8,6.1c0.3-0.6,0.5-1.3,0.8-1.9c-15,0-30,0-45,0C160.6,232.4,160.5,234.6,162,234.6z"/>
	</g>
</g>
<g>
	<g>
		<path d="M129.2,120.9C129.2,120.9,129.2,120.9,129.2,120.9c-0.7,0.2-1.4,0.4-2.1,0.6c4.6,6.1,9.2,12.2,13.8,18.3
			c0.8,1,2.2,0.4,2.1-0.9c-0.6-3.8-1.1-7.7-1.7-11.5c-0.3,0.5-0.5,0.9-0.8,1.4c1.5-0.5,3-1,4.5-1.5c1.1-0.4,1-1.8,0-2.2
			c-5.8-2.2-11.7-4.3-17.5-6.5c-0.9-0.3-1.9,0.9-1.3,1.7c0.3,0.4,0.6,0.8,0.9,1.2c0.9,1.1,2.8,0,1.9-1.1c-0.3-0.4-0.6-0.8-0.9-1.2
			c-0.4,0.6-0.8,1.1-1.3,1.7c5.8,2.2,11.7,4.3,17.5,6.5c0-0.7,0-1.4,0-2.2c-1.5,0.5-3,1-4.5,1.5c-0.6,0.2-0.9,0.8-0.8,1.4
			c0.6,3.8,1.1,7.7,1.7,11.5c0.7-0.3,1.4-0.6,2.1-0.9c-4.6-6.1-9.3-12.2-13.8-18.3c-0.6-0.8-2.1-0.6-2.1,0.6c0,0,0,0,0,0
			C127,122.4,129.2,122.4,129.2,120.9z"/>
	</g>
</g>
<g>
	<g>
		<path d="M100.7,109c1.2,3.7,2,5.5,1.5,9.1c-0.5,4-1,8.1-1.6,12.1c-0.1,1,1.3,1.5,1.9,0.8c4.5-5.2,9-10.3,13.5-15.5
			c0.4-0.5,0.5-1.5-0.2-1.8c-4.5-2-9-4-13.5-6c-1.3-0.6-2.5,1.4-1.1,1.9c4.5,2,9,4,13.5,6c-0.1-0.6-0.2-1.2-0.2-1.8
			c-4.5,5.2-9,10.3-13.5,15.5c0.6,0.3,1.3,0.5,1.9,0.8c0.5-4.3,1.1-8.5,1.6-12.8c0.4-3.4-0.6-5.7-1.7-9
			C102.4,107.1,100.2,107.7,100.7,109z"/>
	</g>
</g>
<g>
	<polygon class="st0" points="115.3,114.8 101.8,130.3 110.4,144.8 	"/>
	<g>
		<path d="M114.5,114c-4.5,5.2-9,10.3-13.5,15.5c-0.3,0.4-0.4,0.9-0.2,1.4c2.9,4.8,5.8,9.7,8.6,14.5c0.5,0.8,1.9,0.7,2.1-0.3
			c1.6-10,3.3-20,4.9-30c0.2-1.4-1.9-2-2.2-0.6c-1.6,10-3.3,20-4.9,30c0.7-0.1,1.4-0.2,2.1-0.3c-1.6-2.7-3.2-5.4-4.8-8.1
			c-0.9-1.6-1.8-3.6-3-5c-0.3-0.4-0.5-0.8-0.7-1.2c0.1,0.2-0.8,1.6,0.1,0.8c4.8-4.5,8.8-10.1,13.1-15.1
			C117,114.5,115.4,112.9,114.5,114z"/>
	</g>
</g>
<g>
	<g>
		<path d="M111.2,144.2c-2.8-4.8-5.7-9.7-8.5-14.5c-0.6-1.1-2-0.5-2.1,0.6c-1.2,9.2-2.4,18.5-3.6,27.7c-0.1,1,1.3,1.5,1.9,0.8
			c2.8-3.1,8.3-9.1,12.1-13.2c1-1.1-0.6-2.7-1.6-1.6c-3.8,4.2-9.1,9.9-12.1,13.2c0.6,0.3,1.3,0.5,1.9,0.8c1.2-9.2,2.4-18.5,3.6-27.7
			c-0.7,0.2-1.4,0.4-2.1,0.6c2.8,4.8,5.7,9.7,8.5,14.5C110,146.6,112,145.4,111.2,144.2z"/>
	</g>
</g>
<g>
	<g>
		<path d="M99.1,158.6C99.1,158.6,99.1,158.6,99.1,158.6c0.4-0.4,0.4-0.9,0.2-1.4c0,0,0,0,0,0c-0.3-0.5-1-0.7-1.5-0.4
			c-0.6,0.3-0.7,1-0.4,1.5c0,0,0,0,0,0.1c0.3,0.6,1.1,0.7,1.5,0.4c0.6-0.3,0.7-1,0.4-1.5c0,0,0,0,0-0.1c-0.6,0.4-1.3,0.8-1.9,1.1
			c0,0,0,0,0,0c0.1-0.5,0.1-0.9,0.2-1.4c0,0,0,0,0,0C96.5,158.1,98.1,159.7,99.1,158.6z"/>
	</g>
</g>
<g>
	<g>
		<path d="M107.1,174.5c1.4-9.8,2.8-19.7,4.3-29.5c0.1-1-1-2-1.9-1.1c-4,4.3-8,8.7-12,13c-0.4,0.4-0.4,0.9-0.2,1.4
			c2.6,5.5,5.2,11,7.7,16.5c0.6,1.3,2.6,0.2,1.9-1.1c-2.5-5.4-5.8-10.8-7.7-16.4c0.4,1.3-0.6,1.5,0.2,0.9c0.5-0.4,0.9-1,1.3-1.5
			c1.3-1.4,2.6-2.8,3.9-4.3c2.1-2.3,4.2-4.6,6.3-6.9c-0.6-0.4-1.3-0.7-1.9-1.1c-1.4,9.8-2.8,19.7-4.3,29.5
			C104.7,175.4,106.9,176,107.1,174.5z"/>
	</g>
</g>
<g>
	<polygon class="st1" points="98.3,157.8 98.2,157.8 94.4,184.1 105.8,174.3 	"/>
	<g>
		<path d="M97.5,157c-0.7,0.7-0.6,2.3-0.7,3.3c-0.4,3-0.9,6-1.3,8.9c-0.7,4.9-1.4,9.7-2.1,14.6c-0.2,1.1,1,1.9,1.9,1.1
			c3.8-3.3,7.6-6.6,11.4-9.9c0.4-0.4,0.4-0.9,0.2-1.4c-2.5-5.5-5-11-7.5-16.4c-0.6-1.3-2.5-0.2-1.9,1.1c1,2.3,2.1,4.6,3.1,6.9
			c1.2,2.5,2.2,6.9,4.1,9c0.7,0.8-1,0.4,0.4-0.8c-0.2,0.2-0.6,0.6-0.8,0.7c-1.3,0.6-2.6,2.2-3.7,3.2c-2.3,2-4.5,3.9-6.8,5.9
			c0.6,0.4,1.3,0.7,1.9,1.1c0.6-4.4,1.3-8.8,1.9-13.1c0.4-2.9,0.8-5.8,1.3-8.7c0.2-1,0.3-2.1,0.5-3.1c0.1-0.6,0.5-1.5-0.1-0.9
			C100,157.5,98.5,155.9,97.5,157z"/>
	</g>
</g>
<g>
	<g>
		<path d="M97.2,157.5C97.2,157.5,97.2,157.5,97.2,157.5c-0.1,0.6,0,1.1,0.5,1.4c0.4,0.2,1,0.2,1.4-0.2c0,0,0,0,0,0
			c0.4-0.4,0.4-0.9,0.2-1.4c0,0,0,0,0-0.1c-0.3-0.6-1.1-0.7-1.5-0.4c-0.6,0.3-0.7,1-0.4,1.5c0,0,0,0,0,0.1c0.1-0.5,0.1-0.9,0.2-1.4
			c0,0,0,0,0,0c0.6,0.4,1.3,0.7,1.9,1.1c0,0,0-0.1,0-0.1c0.1-0.6-0.1-1.2-0.8-1.4C98,156.5,97.3,156.8,97.2,157.5z"/>
	</g>
</g>
<g>
	<g>
		<path d="M105,173.5c-3.8,3.3-7.6,6.7-11.4,10c0.6,0.4,1.3,0.7,1.9,1.1c0,0,0-0.1,0-0.1c0.2-1.1-1-1.9-1.9-1.1c0,0-0.1,0.1-0.1,0.1
			c-0.4,0.4-0.4,0.9-0.2,1.4c2.6,5.8,5.1,11.7,7.7,17.5c0.4,0.8,1.9,0.7,2.1-0.3c1.3-9.2,2.6-18.3,3.8-27.5c0.2-1.4-2-2-2.2-0.6
			c-1.3,9.2-2.6,18.3-3.8,27.5c0.7-0.1,1.4-0.2,2.1-0.3c-1.3-2.9-2.6-5.8-3.8-8.7c-0.9-1.9-1.7-3.9-2.6-5.8c-0.3-0.6-0.5-1.5-0.9-2
			c-1-1.2,0.7-0.6-0.4,0.3c-0.6-0.4-1.3-0.7-1.9-1.1c0,0,0,0.1,0,0.1c-0.2,1.1,1,1.9,1.9,1.1c3.8-3.3,7.6-6.7,11.4-10
			C107.6,174.1,106,172.5,105,173.5z"/>
	</g>
</g>
<g>
	<g>
		<path d="M105,173.5c-2.1,1.8-4.1,3.6-6.2,5.4c-1.3,1.1-2.6,2.2-3.9,3.4c-0.5,0.4-1.5,1-1.6,1.7c-0.2,1.1,1,1.9,1.9,1.1
			c3.8-3.3,7.6-6.7,11.4-10C107.6,174.1,106,172.5,105,173.5c-3.8,3.3-7.6,6.7-11.4,10c0.6,0.4,1.3,0.7,1.9,1.1
			c-0.1,0.5-0.3,0.3,0.3-0.1c0.4-0.3,0.8-0.7,1.2-1.1c1.3-1.1,2.6-2.3,3.9-3.4c1.9-1.6,3.8-3.3,5.7-4.9
			C107.6,174.1,106,172.5,105,173.5z"/>
	</g>
</g>
<g>
	<g>
		<path d="M93.2,184c-1.4,9.9-2.8,19.8-4.2,29.7c-0.1,1,1,2,1.9,1.1c3.9-4.1,7.8-8.1,11.7-12.2c0.4-0.4,0.4-0.9,0.2-1.4
			c-2.5-5.8-5-11.7-7.5-17.5c-0.6-1.3-2.5-0.2-1.9,1.1c2.4,5.5,5.9,11.4,7.4,17.3c0.1,0.6,0.5-1.4,0.1-0.9c-0.3,0.4-0.8,0.9-1.2,1.2
			c-1.4,1.2-2.6,2.7-3.8,4c-2.2,2.3-4.3,4.5-6.5,6.8c0.6,0.4,1.3,0.7,1.9,1.1c1.4-9.9,2.8-19.8,4.2-29.7
			C95.5,183.1,93.4,182.5,93.2,184z"/>
	</g>
</g>
<g>
	<g>
		<path d="M101,201c-3.9,4.3-7.8,8.5-11.8,12.8c0.6,0.4,1.3,0.7,1.9,1.1c0-0.2,0.1-0.4,0.1-0.6c0.1-1-1-2-1.9-1.1
			c-0.1,0.1-0.2,0.2-0.3,0.3c-0.3,0.3-0.4,0.7-0.3,1.1c2.5,6.3,5,12.7,7.5,19c0.4,0.9,2,1.2,2.2,0c1.5-10.5,3-21,4.5-31.5
			c0.2-1.4-2-2-2.2-0.6c-1.5,10.5-3,21-4.5,31.5c0.7,0,1.4,0,2.2,0c-1.3-3.3-2.6-6.6-3.9-10c-0.9-2.2-1.7-4.4-2.6-6.6
			c-0.2-0.6-0.4-1.4-0.8-2c-0.5-0.8-0.4,0.5-0.2,0.2c-0.6-0.4-1.3-0.7-1.9-1.1c0,0.2-0.1,0.4-0.1,0.6c-0.1,1,1,2,1.9,1.1
			c3.9-4.3,7.8-8.5,11.8-12.8C103.5,201.5,101.9,199.9,101,201z"/>
	</g>
</g>
<g>
	<g>
		<path d="M101,201c-2.2,2.3-4.4,4.5-6.5,6.8c-1.3,1.4-2.6,2.7-3.9,4.1c-0.7,0.8-1.4,1.3-1.6,2.4c-0.1,1,1,2,1.9,1.1
			c3.9-4.3,7.8-8.5,11.8-12.8C103.5,201.5,101.9,199.9,101,201c-3.9,4.3-7.8,8.5-11.8,12.8c0.6,0.4,1.3,0.7,1.9,1.1
			c0.1-0.6-0.4,0.2,0.2-0.5c0.4-0.5,0.9-0.9,1.3-1.4c1.3-1.4,2.6-2.8,4-4.1c2-2.1,4-4.2,6-6.3C103.5,201.5,102,199.9,101,201z"/>
	</g>
</g>
<g>
	<polygon class="st0" points="89.8,214.5 87.8,230 83.8,233.5 97.3,233.5 	"/>
	<g>
		<path d="M88.6,214.5c-0.5,3.8-1,7.6-1.5,11.4c-0.1,0.9-0.3,1.9-0.4,2.8c0,0.4-0.4,1.5,0,0.9c0.4-0.7-1.5,1.1-1.8,1.3
			c-0.7,0.6-1.3,1.2-2,1.8c-0.8,0.7-0.1,1.9,0.8,1.9c4.5,0,9,0,13.5,0c0.7,0,1.4-0.7,1.1-1.4c-2.5-6.3-5-12.7-7.5-19
			c-0.5-1.3-2.7-0.8-2.2,0.6c2.5,6.3,5,12.7,7.5,19c0.4-0.5,0.7-0.9,1.1-1.4c-4.5,0-9,0-13.5,0c0.3,0.6,0.5,1.3,0.8,1.9
			c1.2-1,3.2-2.2,4-3.5c0.6-1,0.6-2.5,0.7-3.7c0.5-4.2,1.1-8.4,1.6-12.6C91.1,213.1,88.8,213.1,88.6,214.5z"/>
	</g>
</g>
<g>
	<g>
		<path d="M127,120.9c1.5,11.3,3,22.5,4.5,33.8c0.1,1,1.5,1.6,2.1,0.6c3-5.2,6.1-10.3,9.1-15.5c0.2-0.3,0.2-0.8,0-1.1
			c-4.5-6.1-9-12.3-13.6-18.3c-0.9-1.1-2.8,0-1.9,1.1c1.8,2.4,3.6,4.8,5.4,7.2c2.2,3,4.6,7.8,7.5,10.1c0.2,0.2,0.6,0.7,0.7,1
			c-0.6-1.5,0.4-1-0.5-0.2c-1.2,1-2,3.4-2.8,4.7c-1.9,3.3-3.9,6.6-5.8,9.9c0.7,0.2,1.4,0.4,2.1,0.6c-1.5-11.3-3-22.5-4.5-33.8
			C129.1,119.5,126.8,119.5,127,120.9z"/>
	</g>
</g>
<g>
	<g>
		<path d="M127,120.9c0,0.2,0.1,0.4,0.2,0.6c0.4,0.5,1,0.7,1.5,0.4c0.5-0.3,0.8-1,0.4-1.5c0,0,0,0,0,0c-0.4-0.5-1-0.7-1.5-0.4
			c-0.5,0.3-0.8,1-0.4,1.5c0,0,0,0,0,0c0.6-0.4,1.3-0.8,1.9-1.1c0,0,0,0,0,0c0.1,0.2,0.1,0.4,0.2,0.6c0,0,0,0,0,0
			C129.2,119.5,127,119.5,127,120.9z"/>
	</g>
</g>
<g>
	<polygon class="st0" points="141.8,139.3 132.8,154.8 145.8,166.2 	"/>
	<g>
		<path d="M140.8,138.7c-3,5.2-6,10.3-9,15.5c-0.2,0.4-0.2,1,0.2,1.4c4.4,3.8,8.7,7.7,13.1,11.5c0.9,0.8,2,0,1.9-1.1
			c-1.4-9-2.7-18-4.1-27c-0.2-1.4-2.4-0.8-2.2,0.6c1.4,9,2.7,18,4.1,27c0.6-0.4,1.3-0.7,1.9-1.1c-2.1-1.8-4.1-3.6-6.2-5.4
			c-1.6-1.4-3.1-2.8-4.7-4.1c-0.5-0.4-2.3-2.6-2-1.2c0.3,1.2,1.1-1.2,1.5-1.9c1-1.7,2-3.4,3-5.2c1.5-2.6,3-5.2,4.5-7.8
			C143.4,138.6,141.5,137.4,140.8,138.7z"/>
	</g>
</g>
<g>
	<polygon class="st1" points="137,183.3 145.8,166.3 132.8,154.8 	"/>
	<g>
		<path d="M138,183.8c2.9-5.7,5.8-11.4,8.7-17c0.2-0.4,0.2-1-0.2-1.4c-4.3-3.8-8.7-7.7-13-11.5c-0.9-0.8-2,0-1.9,1.1
			c1.4,9.5,2.9,19,4.3,28.5c0.2,1.4,2.4,0.8,2.2-0.6c-1.4-9.5-2.9-19-4.3-28.5c-0.6,0.4-1.3,0.7-1.9,1.1c2.3,2,4.6,4,6.9,6.1
			c1.5,1.3,3,2.7,4.5,4c0.4,0.3,0.8,0.8,1.2,1.1c1,0.6,0-0.2,0.2-0.8c-2.1,5.8-5.8,11.4-8.6,16.9C135.4,184,137.4,185.1,138,183.8z"
			/>
	</g>
</g>
<g>
	<g>
		<path d="M144.8,165.7c-2.7,5.7-5.3,11.3-8,17c-0.2,0.5-0.2,1,0.2,1.4c4.1,4.3,8.2,8.6,12.3,12.8c0.9,0.9,2-0.1,1.9-1.1
			c-1.4-9.9-2.9-19.9-4.3-29.8c-0.2-1.4-2.4-0.8-2.2,0.6c1.4,9.9,2.9,19.9,4.3,29.8c0.6-0.4,1.3-0.7,1.9-1.1
			c-2.2-2.3-4.3-4.5-6.5-6.8c-1.4-1.5-2.8-3-4.3-4.4c-0.4-0.4-0.7-0.9-1.1-1.2c-0.9-0.7,0,0.2-0.2,0.8c1.8-5.8,5.4-11.4,7.9-16.9
			C147.3,165.5,145.4,164.4,144.8,165.7z"/>
	</g>
</g>
<g>
	<polygon class="st0" points="150.1,196.3 137.8,183.3 141.2,210 150.3,196.3 150.1,196.1 	"/>
	<g>
		<path d="M150.9,195.5c-4.1-4.3-8.2-8.7-12.4-13c-0.6-0.6-2-0.2-1.9,0.8c1.1,8.9,2.3,17.8,3.4,26.7c0.1,1.1,1.4,1.6,2.1,0.6
			c3-4.6,6.1-9.2,9.1-13.7c0.3-0.4,0.2-1-0.2-1.4c-0.1-0.1-0.1-0.1-0.2-0.2c-0.9-0.9-2,0.1-1.9,1.1c0,0.1,0,0.1,0,0.2
			c0.2,1.4,2.4,0.8,2.2-0.6c0-0.1,0-0.1,0-0.2c-0.6,0.4-1.3,0.7-1.9,1.1c-1-1,0.4-1.4-0.4-0.6c-0.4,0.4-0.7,1-1,1.4
			c-1.1,1.6-2.2,3.2-3.2,4.9c-1.5,2.3-3,4.6-4.5,6.9c0.7,0.2,1.4,0.4,2.1,0.6c-1.1-8.9-2.3-17.8-3.4-26.7c-0.6,0.3-1.3,0.5-1.9,0.8
			c4.1,4.3,8.2,8.7,12.4,13C150.3,198.1,151.9,196.5,150.9,195.5z"/>
	</g>
</g>
<g>
	<g>
		<path d="M145.8,233.5c1.8-12.3,3.7-24.7,5.5-37c0.2-1.2-1.3-2-2.1-0.9c-2.1,3.3-4.2,6.7-6.3,10c-1.3,2-2.2,3-2.2,5.3
			c0.1,7.3,1.9,15,2.8,22.3c0.2,1.4,2.4,1.4,2.3,0c-0.9-7.1-1.5-14.4-2.7-21.5c-0.2-0.9-0.1-2.2-0.2-1.7c0.4-1.4,1.8-2.8,2.5-4
			c1.9-3.1,3.9-6.2,5.8-9.2c-0.7-0.3-1.4-0.6-2.1-0.9c-1.8,12.3-3.7,24.7-5.5,37C143.5,234.4,145.6,235,145.8,233.5z"/>
	</g>
</g>
<g>
	<polygon class="st1" points="150.3,196.3 144.8,234.3 161.8,233.3 154.8,228.3 	"/>
	<g>
		<path d="M149.2,196c-1.8,12.7-3.7,25.3-5.5,38c-0.1,0.7,0.3,1.5,1.1,1.4c5.7-0.3,11.3-0.7,17-1c1.2-0.1,1.5-1.4,0.6-2.1
			c-1.6-1.1-3.1-2.2-4.7-3.4c-0.6-0.4-1.8-1-2.2-1.6c0.5,0.7,0.5,0.7,0.4,0.2c-1.1-2.9-1-6.8-1.4-9.9c-1-7.3-2-14.5-3.1-21.8
			c-0.2-1.4-2.4-0.8-2.2,0.6c1.1,7.9,2.2,15.7,3.3,23.6c0.3,2.3,0.1,6.3,1.2,8.4c1.2,2.4,5.4,4.2,7.5,5.7c0.2-0.7,0.4-1.4,0.6-2.1
			c-5.7,0.3-11.3,0.7-17,1c0.4,0.5,0.7,0.9,1.1,1.4c1.8-12.7,3.7-25.3,5.5-38C151.5,195.1,149.4,194.5,149.2,196z"/>
	</g>
</g>
<g>
	<g>
		<path d="M25.4,238.5c0,5.9,0,11.7,0,17.6c0,1.4-0.3,3.2,0.2,4.6c0.5,1.4,2.3,4.4,3.8,5c1.1,0.5,3.3,0,4.4,0c3.6,0,7.1,0,10.7,0
			c5.3,0,10.7,0,16,0c1,0,1.5-1.2,0.8-1.9c-9.8-10.3-19.7-20.7-29.5-31c-0.4-0.4-1.2-0.4-1.6,0c-1.5,1.7-3,3.3-4.5,5
			c-1,1.1,0.6,2.7,1.6,1.6c1.5-1.7,3-3.3,4.5-5c-0.5,0-1.1,0-1.6,0c9.8,10.3,19.7,20.7,29.5,31c0.3-0.6,0.5-1.3,0.8-1.9
			c-4.7,0-9.3,0-14,0c-5.2,0-11.3,0.9-16.5,0c-0.1,0-0.3,0-0.5,0c1.5,0.5,0.5,0.3,0.2-0.6c-0.5-1.1-1.7-2-2.1-3.2
			c0.3,0.8,0.1-0.8,0.1-1.2c0-1.3,0-2.6,0-4c0-5.3,0-10.6,0-15.9C27.6,237.1,25.4,237,25.4,238.5z"/>
	</g>
</g>
<g>
	<g>
		<path d="M212.7,233.7c-9.3,10-18.7,20-28,30c-0.7,0.7-0.2,1.9,0.8,1.9c5.7,0,11.4,0,17.1,0c2.4,0,5.6,0.6,8,0
			c1.9-0.5,3-2.1,4.4-3.6c3.2-3.2,1.6-9.5,1.6-13.8c0-2.9,0.4-6.2,0-9.1c-0.3-1.9-1.3-3.5-2.2-5.3c-0.6-1.3-2.6-0.2-1.9,1.1
			c1.1,2.2,1.7,3,1.8,4.8c0.2,2.8,0,5.7,0,8.4c0,3.1,0,6.2,0,9.2c0,0.7,0.2,1.7,0,2.3c0.4-1.2-1.4,1-1.9,1.6
			c-0.5,0.5-2.8,2.3-1.5,1.9c-0.5,0.1-1.3,0-1.8,0c-2.8-0.1-5.6,0-8.4,0c-5.1,0-10.1,0-15.2,0c0.3,0.6,0.5,1.3,0.8,1.9
			c9.3-10,18.7-20,28-30C215.3,234.2,213.7,232.6,212.7,233.7z"/>
	</g>
</g>
<g>
	<polygon class="st1" points="60.5,233.5 31,233.5 60.5,264.2 	"/>
	<g>
		<path d="M60.5,232.4c-9.8,0-19.7,0-29.5,0c-1,0-1.5,1.2-0.8,1.9c9.8,10.2,19.7,20.5,29.5,30.7c0.7,0.7,1.9,0.2,1.9-0.8
			c0-10.2,0-20.5,0-30.7c0-1.4-2.3-1.5-2.3,0c0,10.2,0,20.5,0,30.7c0.6-0.3,1.3-0.5,1.9-0.8c-9.8-10.2-19.7-20.5-29.5-30.7
			c-0.3,0.6-0.5,1.3-0.8,1.9c9.8,0,19.7,0,29.5,0C61.9,234.6,62,232.4,60.5,232.4z"/>
	</g>
</g>
<g>
	<g>
		<path d="M30.2,234c9.8,10.3,19.7,20.7,29.5,31c0.7,0.7,1.9,0.2,1.9-0.8c0-1.6-2.5-3.3-3.5-4.3c-3.4-3.5-6.8-7.1-10.2-10.6
			c-5.4-5.6-10.8-11.2-16.1-16.8C30.8,231.4,29.2,233,30.2,234c4.9,5.1,9.8,10.2,14.8,15.4c3.4,3.5,6.8,7,10.1,10.6
			c1.1,1.2,2.2,2.4,3.3,3.5c0.8,0.8,0.9,1.6,0.9,0.8c0.6-0.3,1.3-0.5,1.9-0.8c-9.8-10.3-19.7-20.7-29.5-31
			C30.8,231.4,29.2,233,30.2,234z"/>
	</g>
</g>
<g>
	<polygon class="st0" points="213.5,234.3 185.5,233.3 185.5,264.2 	"/>
	<g>
		<path d="M213.5,233.1c-9.3-0.3-18.7-0.7-28-1c-0.6,0-1.1,0.5-1.1,1.1c0,10.3,0,20.7,0,31c0,0.9,1.2,1.5,1.9,0.8
			c9.3-10,18.7-20,28-30c1-1.1-0.6-2.7-1.6-1.6c-9.3,10-18.7,20-28,30c0.6,0.3,1.3,0.5,1.9,0.8c0-10.3,0-20.7,0-31
			c-0.4,0.4-0.8,0.8-1.1,1.1c9.3,0.3,18.7,0.7,28,1C214.9,235.4,214.9,233.2,213.5,233.1z"/>
	</g>
</g>
<g>
	<polygon class="st1" points="185.5,264.2 185.5,264.3 213.5,234.3 	"/>
	<g>
		<path d="M184.4,264.2C184.4,264.2,184.4,264.2,184.4,264.2c0,1,1.2,1.5,1.9,0.8c9.3-10,18.7-20,28-30c1-1.1-0.6-2.7-1.6-1.6
			c-9.3,10-18.7,20-28,30c-1,1.1,0.6,2.7,1.6,1.6c9.3-10,18.7-20,28-30c-0.5-0.5-1.1-1.1-1.6-1.6c-9.3,10-18.7,20-28,30
			c0.6,0.3,1.3,0.5,1.9,0.8c0,0,0,0,0,0C186.6,262.8,184.4,262.8,184.4,264.2z"/>
	</g>
</g>
<g>
	<g>
		<path d="M59.7,265c1.7,1.8,8,0.6,10.2,0.6c4.7,0,9.4,0,14.1,0c0.8,0,1.5-1,1-1.7c-7.8-10.3-15.7-20.7-23.5-31
			c-0.6-0.8-2.1-0.6-2.1,0.6c0,10.2,0,20.5,0,30.7c0,1.4,2.3,1.5,2.3,0c0-10.2,0-20.5,0-30.7c-0.7,0.2-1.4,0.4-2.1,0.6
			c7.8,10.3,15.7,20.7,23.5,31c0.3-0.6,0.6-1.1,1-1.7c-4,0-8.1,0-12.1,0c-2.6,0-5.1,0-7.7,0c-0.9,0-1.8,0.1-2.6,0
			c-1.2-0.1-0.2,0.1-0.3,0.1C60.3,262.4,58.7,264,59.7,265z"/>
	</g>
</g>
<g>
	<g>
		<path d="M60.5,265.6c0.1,0,0.2,0,0.3,0c1,0,1.5-1.2,0.8-1.9c-0.1-0.1-0.2-0.2-0.3-0.3c-0.7-0.7-1.9-0.2-1.9,0.8c0,0.1,0,0.2,0,0.3
			c0,1.4,2.3,1.5,2.3,0c0-0.1,0-0.2,0-0.3c-0.6,0.3-1.3,0.5-1.9,0.8c0.1,0.1,0.2,0.2,0.3,0.3c0.3-0.6,0.5-1.3,0.8-1.9
			c-0.1,0-0.2,0-0.3,0C59.1,263.4,59,265.6,60.5,265.6z"/>
	</g>
</g>
<g>
	<g>
		<path d="M184.5,232.9c-7,10.3-14,20.7-21,31c-0.5,0.7,0.2,1.7,1,1.7c5.2,0,10.5,0,15.7,0c2.6,0,5.8,1.1,6.4-1.8
			c1.1-5,0-11.3,0-16.3c0-4.7,0-9.3,0-14c0-1.4-2.3-1.5-2.3,0c0,9.5,0,19.1,0,28.6c0,0.4-0.2,1.6,0,1.9c0.5,0.7,0.9-0.5,0.7-0.6
			c-1.2-0.7-4.9,0-6.3,0c-4.8,0-9.6,0-14.4,0c0.3,0.6,0.6,1.1,1,1.7c7-10.3,14-20.7,21-31C187.3,232.9,185.3,231.7,184.5,232.9z"/>
	</g>
</g>
<g>
	<g>
		<path d="M186.9,233.3C186.9,233.3,186.9,233.3,186.9,233.3c0-0.5-0.3-1-0.8-1.1c-0.5-0.1-1,0.1-1.3,0.5c0,0,0,0,0,0
			c-0.4,0.5,0,1.5,0.7,1.7c0,0,0,0,0,0c0.6,0.1,1.2-0.2,1.4-0.8c0.1-0.5-0.2-1.3-0.8-1.4c0,0,0,0,0,0c0.2,0.6,0.4,1.1,0.7,1.7
			c0,0,0,0,0,0c-0.7-0.2-1.4-0.4-2.1-0.6c0,0,0,0,0,0C184.6,234.7,186.9,234.7,186.9,233.3z"/>
	</g>
</g>
<g>
	<g>
		<path d="M185.5,265.6C185.5,265.6,185.5,265.6,185.5,265.6c0.6,0,1.1-0.5,1.1-1.1c0,0,0,0,0,0c0-0.9-1.2-1.5-1.9-0.8c0,0,0,0,0,0
			c-1,1.1,0.6,2.7,1.6,1.6c0,0,0,0,0,0c-0.6-0.3-1.3-0.5-1.9-0.8c0,0,0,0,0,0c0.4-0.4,0.8-0.8,1.1-1.1c0,0,0,0,0,0
			C184,263.4,184,265.6,185.5,265.6z"/>
	</g>
</g>
<g>
	<g>
		<path d="M184.4,233.3c0,10.4,0,20.8,0,31.2c0,0.6,0.5,1.1,1.1,1.1c0.3,0,0.7,0,1,0c0.6,0,1.1-0.5,1.1-1.1c0-10.4,0-20.8,0-31.2
			c0-0.6-0.5-1.1-1.1-1.1c-0.3,0-0.7,0-1,0c-1.4,0-1.5,2.3,0,2.3c0.3,0,0.7,0,1,0c-0.4-0.4-0.8-0.8-1.1-1.1c0,10.4,0,20.8,0,31.2
			c0.4-0.4,0.8-0.8,1.1-1.1c-0.3,0-0.7,0-1,0c0.4,0.4,0.8,0.8,1.1,1.1c0-10.4,0-20.8,0-31.2C186.6,231.8,184.4,231.8,184.4,233.3z"
			/>
	</g>
</g>
<g>
	<g>
		<path d="M184.4,264.2C184.4,264.2,184.4,264.2,184.4,264.2c0,1.5,2.3,1.5,2.3,0c0,0,0,0,0,0C186.6,262.8,184.4,262.8,184.4,264.2
			C184.4,264.2,184.4,264.2,184.4,264.2c0,1.5,2.3,1.5,2.3,0c0,0,0,0,0,0C186.6,262.8,184.4,262.8,184.4,264.2z"/>
	</g>
</g>
<g>
	<polygon class="st0" points="60,233.3 83.5,264.3 83.5,234.3 	"/>
	<g>
		<path d="M59,233.8c7.8,10.3,15.7,20.7,23.5,31c0.6,0.8,2.1,0.6,2.1-0.6c0-10,0-20,0-30c0-0.6-0.5-1.1-1.1-1.1
			c-7.8-0.3-15.7-0.7-23.5-1c-1.4-0.1-1.4,2.2,0,2.3c7.8,0.3,15.7,0.7,23.5,1c-0.4-0.4-0.8-0.8-1.1-1.1c0,10,0,20,0,30
			c0.7-0.2,1.4-0.4,2.1-0.6c-7.8-10.3-15.7-20.7-23.5-31C60.1,231.5,58.2,232.7,59,233.8z"/>
	</g>
</g>
<g>
	<g>
		<path d="M185.5,232.4c-8,0-16,0-24,0c-0.6,0-1.2,0.5-1.1,1.1c1,10.3,2,20.7,3,31c0.1,1.1,1.4,1.5,2.1,0.6
			c3.8-5.6,7.5-11.1,11.3-16.7c2.4-3.6,4.8-7.2,7.3-10.7c0.7-1,2.6-2.8,2.6-4.1c0-1.4-2.3-1.5-2.3,0c0-1-0.3,0.2-0.7,0.7
			c-0.8,1.1-1.5,2.3-2.3,3.4c-2.4,3.6-4.9,7.2-7.3,10.8c-3.5,5.2-7,10.3-10.5,15.5c0.7,0.2,1.4,0.4,2.1,0.6c-1-10.3-2-20.7-3-31
			c-0.4,0.4-0.8,0.8-1.1,1.1c8,0,16,0,24,0C186.9,234.6,187,232.4,185.5,232.4z"/>
	</g>
</g>
<g>
	<g>
		<path d="M186.7,234.1C186.7,234.1,186.7,234.1,186.7,234.1c0.5-0.7-0.2-1.7-1-1.7c0,0,0,0,0,0c-1.5,0-1.4,2.2,0,2.3c0,0,0,0,0,0
			c1.4,0,1.4-2.2,0-2.3c0,0,0,0,0,0c0,0.8,0,1.5,0,2.3c0,0,0,0,0,0c-0.3-0.6-0.6-1.1-1-1.7c0,0,0,0,0,0c-0.4,0.5-0.1,1.3,0.4,1.5
			C185.8,234.8,186.4,234.6,186.7,234.1z"/>
	</g>
</g>
<g>
	<g>
		<path d="M184.4,233.3C184.4,233.3,184.4,233.3,184.4,233.3c0,1.2,1.5,1.5,2.1,0.6c0,0,0,0,0,0c0.5-0.7-0.2-1.7-1-1.7c0,0,0,0,0,0
			c-1.4,0-1.4,2.2,0,2.3c0,0,0,0,0,0c-0.3-0.6-0.6-1.1-1-1.7c0,0,0,0,0,0c0.7,0.2,1.4,0.4,2.1,0.6c0,0,0,0,0,0
			C186.6,231.8,184.4,231.8,184.4,233.3z"/>
	</g>
</g>
<g>
	<g>
		<path d="M82.4,233.5c0,10.3,0,20.7,0,31c0,0.9,1.3,1.6,1.9,0.8c8.2-10.3,16.3-20.7,24.5-31c0.6-0.7,0.3-1.9-0.8-1.9
			c-8.2,0-16.3,0-24.5,0c-1.4,0-1.5,2.3,0,2.3c8.2,0,16.3,0,24.5,0c-0.3-0.6-0.5-1.3-0.8-1.9c-8.2,10.3-16.3,20.7-24.5,31
			c0.6,0.3,1.3,0.5,1.9,0.8c0-10.3,0-20.7,0-31C84.6,232.1,82.4,232,82.4,233.5z"/>
	</g>
</g>
<g>
	<g>
		<path d="M144.8,233.1c-2.9-0.3-5.8-0.7-8.8-1c-1-0.1-1.4,1.3-0.8,1.9c9.6,10.3,19.2,20.7,28.8,31c0.6,0.7,2,0.2,1.9-0.8
			c-1-10.3-2-20.7-3-31c-0.1-0.6-0.5-1.2-1.1-1.1C156.1,232.5,150.4,232.8,144.8,233.1c-1.4,0.1-1.4,2.3,0,2.3
			c5.7-0.3,11.3-0.7,17-1c-0.4-0.4-0.8-0.8-1.1-1.1c1,10.3,2,20.7,3,31c0.6-0.3,1.3-0.5,1.9-0.8c-9.6-10.3-19.2-20.7-28.8-31
			c-0.3,0.6-0.5,1.3-0.8,1.9c2.9,0.3,5.8,0.7,8.8,1C146.2,235.5,146.2,233.3,144.8,233.1z"/>
	</g>
</g>
<g>
	<polygon class="st1" points="113.1,264.5 108.3,233.5 83.8,264.5 	"/>
	<g>
		<path d="M114.2,264.2c-1.6-10.3-3.2-20.7-4.8-31c-0.1-0.8-1.4-1.1-1.9-0.5c-8.2,10.3-16.3,20.7-24.5,31c-0.6,0.7-0.3,1.9,0.8,1.9
			c9.8,0,19.5,0,29.3,0c1.4,0,1.5-2.3,0-2.3c-9.8,0-19.5,0-29.3,0c0.3,0.6,0.5,1.3,0.8,1.9c8.2-10.3,16.3-20.7,24.5-31
			c-0.6-0.2-1.3-0.3-1.9-0.5c1.6,10.3,3.2,20.7,4.8,31C112.2,266.2,114.4,265.6,114.2,264.2z"/>
	</g>
</g>
<g>
	<g>
		<path d="M132.8,265.6c10.7,0,21.3,0,32,0c1,0,1.5-1.2,0.8-1.9c-9.7-10.3-19.3-20.7-29-31c-0.7-0.8-1.8-0.1-1.9,0.8
			c-1,10.3-2,20.7-3,31c-0.1,1.4,2.1,1.4,2.3,0c1-10.3,2-20.7,3-31c-0.6,0.3-1.3,0.5-1.9,0.8c9.7,10.3,19.3,20.7,29,31
			c0.3-0.6,0.5-1.3,0.8-1.9c-10.7,0-21.3,0-32,0C131.3,263.4,131.3,265.6,132.8,265.6z"/>
	</g>
</g>
<g>
	<g>
		<path d="M113.3,265.6c6.5,0,13,0,19.5,0c1.1,0,1.4-1.2,0.8-1.9c-8.2-10.3-16.3-20.7-24.5-31c-0.8-1-2,0.1-1.9,1.1
			c1.7,10.3,3.3,20.7,5,31c0.2,1.4,2.4,0.8,2.2-0.6c-1.7-10.3-3.3-20.7-5-31c-0.6,0.4-1.3,0.7-1.9,1.1c8.2,10.3,16.3,20.7,24.5,31
			c0.3-0.6,0.5-1.3,0.8-1.9c-6.5,0-13,0-19.5,0C111.8,263.4,111.8,265.6,113.3,265.6z"/>
	</g>
</g>
<g>
	<polygon class="st0" points="108.3,233.5 132.8,264.5 135.8,233.5 	"/>
	<g>
		<path d="M107.5,234.3c8.2,10.3,16.3,20.7,24.5,31c0.7,0.9,1.8,0.1,1.9-0.8c1-10.3,2-20.7,3-31c0.1-0.6-0.6-1.1-1.1-1.1
			c-9.2,0-18.3,0-27.5,0c-1.4,0-1.5,2.3,0,2.3c9.2,0,18.3,0,27.5,0c-0.4-0.4-0.8-0.8-1.1-1.1c-1,10.3-2,20.7-3,31
			c0.6-0.3,1.3-0.5,1.9-0.8c-8.2-10.3-16.3-20.7-24.5-31C108.1,231.6,106.6,233.2,107.5,234.3z"/>
	</g>
</g>
</svg>
