<?xml version="1.0" encoding="utf-8"?>
<!-- Generator: Adobe Illustrator 21.0.2, SVG Export Plug-In . SVG Version: 6.00 Build 0)  -->
<svg version="1.1" id="Layer_1" xmlns="http://www.w3.org/2000/svg" xmlns:xlink="http://www.w3.org/1999/xlink" x="0px" y="0px"
	 viewBox="0 0 623 768" style="enable-background:new 0 0 623 768;" xml:space="preserve">
<style type="text/css">
	.st0{fill:#CCCCCC;}
	.st1{fill:#424242;}
	.st2{fill:#616161;}
	.st3{fill:#212121;}
	.st4{fill:#1A237E;}
	.st5{fill:#283593;}
	.st6{fill:#263238;}
	.st7{fill:#37474F;}
	.st8{fill:#1A1A1A;}
	.st9{fill:#004D40;}
	.st10{fill:#00695C;}
	.st11{fill:#120B0A;}
	.st12{fill:#2B1B18;}
	.st13{fill:#5D4037;}
	.st14{fill:#795548;}
	.st15{fill:none;}
	.st16{fill:#BDBDBD;}
	.st17{fill:#E0E0E0;}
	.st18{fill:#0F0F0F;}
	.st19{font-family:'Dosis';}
	.st20{font-size:106px;}
	.st21{fill:#023898;}
	.st22{fill:#BBDEFB;}
	.st23{fill:#B71C1C;}
	.st24{fill:#848786;}
	.st25{fill:#343535;}
	.st26{fill:#ED0F8E;}
	.st27{fill:#282828;}
</style>
<g>
	<rect x="478.7" y="336.9" class="st0" width="1.3" height="10.3"/>
	<path class="st1" d="M515.7,266l-52.2,1.9L462.3,453l53.5,0c14.5,0,26.3-6,26.3-13.4l0-160.2C542,272,530.2,266,515.7,266z"/>
	<path class="st2" d="M406.3,266c-14.5,0-26.3,6-26.3,13.4l0,160.2c0,7.4,11.8,13.4,26.3,13.4l56,0l1.3-185.1L406.3,266z"/>
	<g>
		<path class="st3" d="M453.5,287h-60c-2.5,0-4.5-2-4.5-4.5v-0.7c0-2.5,2-4.5,4.5-4.5h60c2.5,0,4.5,2,4.5,4.5v0.7
			C458,285,456,287,453.5,287z"/>
		<path class="st3" d="M453.5,307h-60c-2.5,0-4.5-2-4.5-4.5v-0.7c0-2.5,2-4.5,4.5-4.5h60c2.5,0,4.5,2,4.5,4.5v0.7
			C458,305,456,307,453.5,307z"/>
		<path class="st3" d="M533.5,287h-60c-2.5,0-4.5-2-4.5-4.5v-0.7c0-2.5,2-4.5,4.5-4.5h60c2.5,0,4.5,2,4.5,4.5v0.7
			C538,285,536,287,533.5,287z"/>
		<path class="st3" d="M533.5,307h-60c-2.5,0-4.5-2-4.5-4.5v-0.7c0-2.5,2-4.5,4.5-4.5h60c2.5,0,4.5,2,4.5,4.5v0.7
			C538,305,536,307,533.5,307z"/>
	</g>
	<g>
		<path class="st3" d="M453.5,330h-60c-2.5,0-4.5-2-4.5-4.5v-0.7c0-2.5,2-4.5,4.5-4.5h60c2.5,0,4.5,2,4.5,4.5v0.7
			C458,328,456,330,453.5,330z"/>
		<path class="st3" d="M453.5,350h-60c-2.5,0-4.5-2-4.5-4.5v-0.7c0-2.5,2-4.5,4.5-4.5h60c2.5,0,4.5,2,4.5,4.5v0.7
			C458,348,456,350,453.5,350z"/>
		<path class="st3" d="M533.5,330h-60c-2.5,0-4.5-2-4.5-4.5v-0.7c0-2.5,2-4.5,4.5-4.5h60c2.5,0,4.5,2,4.5,4.5v0.7
			C538,328,536,330,533.5,330z"/>
		<path class="st3" d="M533.5,350h-60c-2.5,0-4.5-2-4.5-4.5v-0.7c0-2.5,2-4.5,4.5-4.5h60c2.5,0,4.5,2,4.5,4.5v0.7
			C538,348,536,350,533.5,350z"/>
	</g>
	<g>
		<path class="st3" d="M453.5,372h-60c-2.5,0-4.5-2-4.5-4.5v-0.7c0-2.5,2-4.5,4.5-4.5h60c2.5,0,4.5,2,4.5,4.5v0.7
			C458,370,456,372,453.5,372z"/>
		<path class="st3" d="M453.5,392h-60c-2.5,0-4.5-2-4.5-4.5v-0.7c0-2.5,2-4.5,4.5-4.5h60c2.5,0,4.5,2,4.5,4.5v0.7
			C458,390,456,392,453.5,392z"/>
		<path class="st3" d="M533.5,372h-60c-2.5,0-4.5-2-4.5-4.5v-0.7c0-2.5,2-4.5,4.5-4.5h60c2.5,0,4.5,2,4.5,4.5v0.7
			C538,370,536,372,533.5,372z"/>
		<path class="st3" d="M533.5,392h-60c-2.5,0-4.5-2-4.5-4.5v-0.7c0-2.5,2-4.5,4.5-4.5h60c2.5,0,4.5,2,4.5,4.5v0.7
			C538,390,536,392,533.5,392z"/>
	</g>
</g>
<circle cx="424" cy="431" r="11"/>
<rect x="334" y="264" class="st0" width="1" height="16"/>
<path class="st4" d="M363.3,154l-41.3,3l-1,287l42.2,0c11.5,0,20.8-9.3,20.8-20.7l0-248.5C384,163.3,374.7,154,363.3,154z"/>
<path class="st5" d="M276.8,154c-11.5,0-20.8,9.3-20.8,20.7l0,248.5c0,11.5,9.3,20.8,20.7,20.8l44.3,0l1-287L276.8,154z"/>
<g>
	<path class="st3" d="M273,220L273,220c-3.9,0-7-3.1-7-7l0,0c0-3.9,3.1-7,7-7l0,0c3.9,0,7,3.1,7,7l0,0C280,216.9,276.9,220,273,220z
		"/>
	<path class="st3" d="M306,220L306,220c-3.9,0-7-3.1-7-7l0,0c0-3.9,3.1-7,7-7l0,0c3.9,0,7,3.1,7,7l0,0C313,216.9,309.9,220,306,220z
		"/>
	<path class="st3" d="M338,220L338,220c-3.9,0-7-3.1-7-7l0,0c0-3.9,3.1-7,7-7l0,0c3.9,0,7,3.1,7,7l0,0C345,216.9,341.9,220,338,220z
		"/>
	<path class="st3" d="M371,220L371,220c-3.9,0-7-3.1-7-7l0,0c0-3.9,3.1-7,7-7l0,0c3.9,0,7,3.1,7,7l0,0C378,216.9,374.9,220,371,220z
		"/>
	<g>
		<path class="st3" d="M274,257L274,257c-3.9,0-7-3.1-7-7l0,0c0-3.9,3.1-7,7-7l0,0c3.9,0,7,3.1,7,7l0,0C281,253.9,277.9,257,274,257
			z"/>
		<path class="st3" d="M307,257L307,257c-3.9,0-7-3.1-7-7l0,0c0-3.9,3.1-7,7-7l0,0c3.9,0,7,3.1,7,7l0,0C314,253.9,310.9,257,307,257
			z"/>
		<path class="st3" d="M339,257L339,257c-3.9,0-7-3.1-7-7l0,0c0-3.9,3.1-7,7-7l0,0c3.9,0,7,3.1,7,7l0,0C346,253.9,342.9,257,339,257
			z"/>
		<path class="st3" d="M372,257L372,257c-3.9,0-7-3.1-7-7l0,0c0-3.9,3.1-7,7-7l0,0c3.9,0,7,3.1,7,7l0,0C379,253.9,375.9,257,372,257
			z"/>
	</g>
</g>
<path class="st3" d="M275,294L275,294c-3.9,0-7-3.1-7-7l0,0c0-3.9,3.1-7,7-7l0,0c3.9,0,7,3.1,7,7l0,0C282,290.9,278.9,294,275,294z"
	/>
<path class="st3" d="M308,294L308,294c-3.9,0-7-3.1-7-7l0,0c0-3.9,3.1-7,7-7l0,0c3.9,0,7,3.1,7,7l0,0C315,290.9,311.9,294,308,294z"
	/>
<path class="st3" d="M339,294L339,294c-3.9,0-7-3.1-7-7l0,0c0-3.9,3.1-7,7-7l0,0c3.9,0,7,3.1,7,7l0,0C346,290.9,342.9,294,339,294z"
	/>
<path class="st3" d="M372,294L372,294c-3.9,0-7-3.1-7-7l0,0c0-3.9,3.1-7,7-7l0,0c3.9,0,7,3.1,7,7l0,0C379,290.9,375.9,294,372,294z"
	/>
<g>
	<path class="st3" d="M274,332L274,332c-3.9,0-7-3.1-7-7l0,0c0-3.9,3.1-7,7-7l0,0c3.9,0,7,3.1,7,7l0,0C281,328.9,277.9,332,274,332z
		"/>
	<path class="st3" d="M307,332L307,332c-3.9,0-7-3.1-7-7l0,0c0-3.9,3.1-7,7-7l0,0c3.9,0,7,3.1,7,7l0,0C314,328.9,310.9,332,307,332z
		"/>
	<path class="st3" d="M339,332L339,332c-3.9,0-7-3.1-7-7l0,0c0-3.9,3.1-7,7-7l0,0c3.9,0,7,3.1,7,7l0,0C346,328.9,342.9,332,339,332z
		"/>
	<path class="st3" d="M372,332L372,332c-3.9,0-7-3.1-7-7l0,0c0-3.9,3.1-7,7-7l0,0c3.9,0,7,3.1,7,7l0,0C379,328.9,375.9,332,372,332z
		"/>
	<g>
		<path class="st3" d="M275,369L275,369c-3.9,0-7-3.1-7-7l0,0c0-3.9,3.1-7,7-7l0,0c3.9,0,7,3.1,7,7l0,0C282,365.9,278.9,369,275,369
			z"/>
		<path class="st3" d="M308,369L308,369c-3.9,0-7-3.1-7-7l0,0c0-3.9,3.1-7,7-7l0,0c3.9,0,7,3.1,7,7l0,0C315,365.9,311.9,369,308,369
			z"/>
		<path class="st3" d="M340,369L340,369c-3.9,0-7-3.1-7-7l0,0c0-3.9,3.1-7,7-7l0,0c3.9,0,7,3.1,7,7l0,0C347,365.9,343.9,369,340,369
			z"/>
		<path class="st3" d="M373,369L373,369c-3.9,0-7-3.1-7-7l0,0c0-3.9,3.1-7,7-7l0,0c3.9,0,7,3.1,7,7l0,0C380,365.9,376.9,369,373,369
			z"/>
	</g>
</g>
<rect x="156" y="271" class="st0" width="1" height="16"/>
<path class="st6" d="M185.3,161l-41.3,3l-1,287l42.2,0c11.5,0,20.8-9.3,20.8-20.7l0-248.5C206,170.3,196.7,161,185.3,161z"/>
<path class="st7" d="M98.8,161c-11.5,0-20.8,9.3-20.8,20.7l0,248.5c0,11.5,9.3,20.8,20.7,20.8l44.3,0l1-287L98.8,161z"/>
<path class="st3" d="M130,190H95c-3.9,0-7-3.1-7-7l0,0c0-3.9,3.1-7,7-7h35c3.9,0,7,3.1,7,7l0,0C137,186.9,133.9,190,130,190z"/>
<path class="st3" d="M130,207H95c-3.9,0-7-3.1-7-7l0,0c0-3.9,3.1-7,7-7h35c3.9,0,7,3.1,7,7l0,0C137,203.9,133.9,207,130,207z"/>
<path class="st3" d="M130,225H95c-3.9,0-7-3.1-7-7l0,0c0-3.9,3.1-7,7-7h35c3.9,0,7,3.1,7,7l0,0C137,221.9,133.9,225,130,225z"/>
<path class="st3" d="M130,242H95c-3.9,0-7-3.1-7-7l0,0c0-3.9,3.1-7,7-7h35c3.9,0,7,3.1,7,7l0,0C137,238.9,133.9,242,130,242z"/>
<path class="st3" d="M130,260H95c-3.9,0-7-3.1-7-7l0,0c0-3.9,3.1-7,7-7h35c3.9,0,7,3.1,7,7l0,0C137,256.9,133.9,260,130,260z"/>
<path class="st3" d="M130,277H95c-3.9,0-7-3.1-7-7l0,0c0-3.9,3.1-7,7-7h35c3.9,0,7,3.1,7,7l0,0C137,273.9,133.9,277,130,277z"/>
<path class="st3" d="M130,295H95c-3.9,0-7-3.1-7-7l0,0c0-3.9,3.1-7,7-7h35c3.9,0,7,3.1,7,7l0,0C137,291.9,133.9,295,130,295z"/>
<path class="st3" d="M130,312H95c-3.9,0-7-3.1-7-7l0,0c0-3.9,3.1-7,7-7h35c3.9,0,7,3.1,7,7l0,0C137,308.9,133.9,312,130,312z"/>
<path class="st3" d="M130,330H95c-3.9,0-7-3.1-7-7l0,0c0-3.9,3.1-7,7-7h35c3.9,0,7,3.1,7,7l0,0C137,326.9,133.9,330,130,330z"/>
<path class="st3" d="M130,347H95c-3.9,0-7-3.1-7-7l0,0c0-3.9,3.1-7,7-7h35c3.9,0,7,3.1,7,7l0,0C137,343.9,133.9,347,130,347z"/>
<path class="st3" d="M130,365H95c-3.9,0-7-3.1-7-7l0,0c0-3.9,3.1-7,7-7h35c3.9,0,7,3.1,7,7l0,0C137,361.9,133.9,365,130,365z"/>
<path class="st3" d="M130,382H95c-3.9,0-7-3.1-7-7l0,0c0-3.9,3.1-7,7-7h35c3.9,0,7,3.1,7,7l0,0C137,378.9,133.9,382,130,382z"/>
<path class="st8" d="M192,190h-35c-3.9,0-7-3.1-7-7l0,0c0-3.9,3.1-7,7-7h35c3.9,0,7,3.1,7,7l0,0C199,186.9,195.9,190,192,190z"/>
<path class="st8" d="M192,207h-35c-3.9,0-7-3.1-7-7l0,0c0-3.9,3.1-7,7-7h35c3.9,0,7,3.1,7,7l0,0C199,203.9,195.9,207,192,207z"/>
<path class="st8" d="M192,225h-35c-3.9,0-7-3.1-7-7l0,0c0-3.9,3.1-7,7-7h35c3.9,0,7,3.1,7,7l0,0C199,221.9,195.9,225,192,225z"/>
<path class="st8" d="M192,242h-35c-3.9,0-7-3.1-7-7l0,0c0-3.9,3.1-7,7-7h35c3.9,0,7,3.1,7,7l0,0C199,238.9,195.9,242,192,242z"/>
<path class="st8" d="M192,260h-35c-3.9,0-7-3.1-7-7l0,0c0-3.9,3.1-7,7-7h35c3.9,0,7,3.1,7,7l0,0C199,256.9,195.9,260,192,260z"/>
<path class="st8" d="M192,277h-35c-3.9,0-7-3.1-7-7l0,0c0-3.9,3.1-7,7-7h35c3.9,0,7,3.1,7,7l0,0C199,273.9,195.9,277,192,277z"/>
<path class="st8" d="M192,295h-35c-3.9,0-7-3.1-7-7l0,0c0-3.9,3.1-7,7-7h35c3.9,0,7,3.1,7,7l0,0C199,291.9,195.9,295,192,295z"/>
<path class="st8" d="M192,312h-35c-3.9,0-7-3.1-7-7l0,0c0-3.9,3.1-7,7-7h35c3.9,0,7,3.1,7,7l0,0C199,308.9,195.9,312,192,312z"/>
<path class="st8" d="M192,330h-35c-3.9,0-7-3.1-7-7l0,0c0-3.9,3.1-7,7-7h35c3.9,0,7,3.1,7,7l0,0C199,326.9,195.9,330,192,330z"/>
<path class="st8" d="M192,347h-35c-3.9,0-7-3.1-7-7l0,0c0-3.9,3.1-7,7-7h35c3.9,0,7,3.1,7,7l0,0C199,343.9,195.9,347,192,347z"/>
<path class="st8" d="M192,365h-35c-3.9,0-7-3.1-7-7l0,0c0-3.9,3.1-7,7-7h35c3.9,0,7,3.1,7,7l0,0C199,361.9,195.9,365,192,365z"/>
<path class="st8" d="M192,382h-35c-3.9,0-7-3.1-7-7l0,0c0-3.9,3.1-7,7-7h35c3.9,0,7,3.1,7,7l0,0C199,378.9,195.9,382,192,382z"/>
<rect x="249.8" y="362" class="st0" width="0.8" height="7.6"/>
<path class="st9" d="M273.3,310l-33.2,1.4L239.3,447l34,0c9.2,0,16.7-4.4,16.7-9.8l0-117.4C290,314.4,282.5,310,273.3,310z"/>
<path class="st10" d="M203.7,310c-9.2,0-16.7,4.4-16.7,9.8l0,117.4c0,5.4,7.5,9.8,16.7,9.8l35.6,0l0.8-135.6L203.7,310z"/>
<path class="st3" d="M204.7,438h-6.3c-1.8,0-3.3-1.5-3.3-3.3V320.4c0-1.8,1.5-3.3,3.3-3.3h6.3c1.8,0,3.3,1.5,3.3,3.3v114.3
	C208,436.5,206.5,438,204.7,438z"/>
<path class="st3" d="M230.7,438h-6.3c-1.8,0-3.3-1.5-3.3-3.3V320.4c0-1.8,1.5-3.3,3.3-3.3h6.3c1.8,0,3.3,1.5,3.3,3.3v114.3
	C234,436.5,232.5,438,230.7,438z"/>
<path class="st3" d="M255.7,439h-6.3c-1.8,0-3.3-1.5-3.3-3.3V321.4c0-1.8,1.5-3.3,3.3-3.3h6.3c1.8,0,3.3,1.5,3.3,3.3v114.3
	C259,437.5,257.5,439,255.7,439z"/>
<path class="st3" d="M281.7,439h-6.3c-1.8,0-3.3-1.5-3.3-3.3V321.4c0-1.8,1.5-3.3,3.3-3.3h6.3c1.8,0,3.3,1.5,3.3,3.3v114.3
	C285,437.5,283.5,439,281.7,439z"/>
<g>
	<path class="st11" d="M156.2,586.2c-8.1,0-13.1,8.8-9.1,15.8l43.1,74.4l43.1,74.5c1.9,3.4,5.3,5.1,8.7,5.2V586.1L156.2,586.2z"/>
	<path class="st12" d="M328.5,586.1l-86.1,0l-0.4,0V756c3.7,0.1,7.4-1.6,9.5-5.2l43-74.5l43-74.5
		C341.6,594.8,336.5,586.1,328.5,586.1z"/>
</g>
<g>
	<path class="st13" d="M59.2,461.2c-10.5,0-17.5,9.9-13.4,18.7l63.3,136l58.6,125.9c2.5,5.4,7.9,8.1,13.3,8.1V461.1L59.2,461.2z"/>
	<path class="st14" d="M302.8,461.1l-121.8,0h0V750c5.5,0,11-2.7,13.5-8.1l58.5-126l63.2-136.1C320.3,470.9,313.3,461.1,302.8,461.1
		z"/>
</g>
<g>
	<path class="st11" d="M292.2,564.2c-8.1,0-13.1,9.9-9.1,17.8l43.1,84l43.1,84.1c1.9,3.8,5.3,5.7,8.7,5.9V564.1L292.2,564.2z"/>
	<path class="st12" d="M464.5,564.1l-86.1,0l-0.4,0V756c3.7,0.2,7.4-1.8,9.5-5.9l43-84.1l43-84.1C477.6,574,472.5,564.1,464.5,564.1
		z"/>
</g>
<g>
	<path class="st13" d="M318.2,465.1c-10.5,0-17.5,7.8-13.4,14.9l63.3,108.3l58.6,100.2c2.5,4.3,7.9,6.4,13.3,6.5V465.1L318.2,465.1z
		"/>
	<path class="st14" d="M561.8,465.1l-121.8,0h0V695c5.5,0,11-2.1,13.5-6.5L512,588.3L575.2,480C579.3,472.9,572.3,465.1,561.8,465.1
		z"/>
</g>
<g>
	<path class="st13" d="M189.2,447.2c-10.5,0-17.5,8.7-13.4,16.5l63.3,120l58.6,111.1c2.5,4.7,7.9,7.1,13.3,7.2V447.1L189.2,447.2z"
		/>
	<path class="st14" d="M432.8,447.1l-121.8,0h0V702c5.5,0,11-2.4,13.5-7.2L383,583.7l63.2-120.1
		C450.3,455.8,443.3,447.1,432.8,447.1z"/>
</g>
<path class="st15" d="M396,548v170V548z"/>
<g>
	<g>
		<path class="st16" d="M142.6,450.1c-3,0-4.8,4.1-3.4,7.4l15.9,35l15.9,35c0.7,1.6,1.9,2.4,3.2,2.5v-79.9L142.6,450.1z"/>
	</g>
	<path class="st17" d="M206.1,450.1l-31.8,0l-0.1,0V530c1.4,0.1,2.7-0.7,3.5-2.5l15.9-35l15.9-35C211,454.2,209.1,450.1,206.1,450.1
		z"/>
</g>
<g>
	<g>
		<path class="st16" d="M377.6,450.1c-3,0-4.8,4.1-3.4,7.4l15.9,35l15.9,35c0.7,1.6,1.9,2.4,3.2,2.5v-79.9L377.6,450.1z"/>
	</g>
	<path class="st17" d="M441.1,450.1l-31.8,0l-0.1,0V530c1.4,0.1,2.7-0.7,3.5-2.5l15.9-35l15.9-35C446,454.2,444.1,450.1,441.1,450.1
		z"/>
</g>
<g>
	<g>
		<path class="st16" d="M293.6,462c-3,0-4.8,3.5-3.4,6.3l15.9,29.8l15.9,29.8c0.7,1.3,1.9,2,3.2,2.1v-68L293.6,462z"/>
	</g>
	<path class="st17" d="M357.1,462l-31.8,0l-0.1,0v68c1.4,0.1,2.7-0.6,3.5-2.1l15.9-29.8l15.9-29.8C362,465.5,360.1,462,357.1,462z"
		/>
</g>
<g>
	<g>
		<path class="st16" d="M420.6,459.1c-2.2,0-3.6,4.7-2.5,8.5l11.9,40.3l11.9,40.3c0.5,1.8,1.5,2.7,2.4,2.8v-91.9L420.6,459.1z"/>
	</g>
	<path class="st17" d="M468.1,459.1l-23.7,0l-0.1,0V551c1,0.1,2-0.9,2.6-2.8l11.9-40.3l11.9-40.3
		C471.7,463.8,470.3,459.1,468.1,459.1z"/>
</g>
<path d="M566,450H58c-3.9,0-7-3.1-7-7l0,0c0-3.9,3.1-7,7-7h508c3.9,0,7,3.1,7,7l0,0C573,446.9,569.9,450,566,450z"/>
<g>
	<path class="st18" d="M576,473H47c-8.3,0-15-6.7-15-15l0,0c0-8.3,6.7-15,15-15h529c8.3,0,15,6.7,15,15l0,0
		C591,466.3,584.3,473,576,473z"/>
</g>
<text transform="matrix(1 0 0 1 51 105)" class="st19 st20">Professional</text>
<g>
	<polygon class="st16" points="545,432 551,432 551,435 543,435 	"/>
	<g>
		<path class="st16" d="M545,432.1c1.8,0,3.7,0,5.5,0c0.1,0,0.3,0,0.4,0c0.2,0.1-0.2-0.3-0.1,0c0.2,0.3,0,1.1,0,1.5
			c0,0.3,0.2,1.1,0,1.3c0.2-0.3-0.1-0.1-0.4-0.1c-2.1-0.2-4.4,0-6.6,0c-0.2,0-0.6,0.1-0.9,0c-0.1-0.1,0.1,0.3,0.1,0.2
			c0.1-0.1,0.2-0.3,0.3-0.5c0.6-0.7,1.1-1.7,1.7-2.5c0.1-0.2-0.2-0.3-0.3-0.2c-0.7,1-1.3,2-2,3c-0.1,0.1,0,0.2,0.1,0.2
			c2.7,0,5.3,0,8,0c0.1,0,0.2-0.1,0.2-0.1c0-1,0-2,0-3c0-0.1-0.1-0.1-0.2-0.1c-2,0-4,0-6,0C544.8,431.9,544.8,432.1,545,432.1z"/>
	</g>
</g>
<g>
	<path class="st21" d="M547,414l-8-2l-1-1l2-3l7-1l-15-11l3-4h-13l-21-2h-20l-16,3l-27,14h-27l-1,4l-15,7l-2,4l-2,3v11l1,1h9l9-1
		l3.2,0.1c-0.8-1.7-1.2-3.7-1.1-5.8c0.3-6.2,5.5-11.2,11.7-11.3c6.8-0.2,12.3,5.3,12.3,12c0,2.1-0.5,4.1-1.5,5.8l5.5,0.2h70l3.5-0.2
		c-1-1.8-1.5-3.8-1.5-6c0.1-6.3,5.3-11.6,11.6-11.8c6.8-0.2,12.4,5.2,12.4,12c0,1.6-0.3,3.1-0.9,4.5l7.9-0.5l7-3l1-11L547,414z"/>
	<g>
		<path class="st21" d="M547.2,413.4c-1.4-0.4-8.3-1.4-8.5-2.3c-0.4-1.5,2-2.4,2.8-2.7c1.7-0.6,4-0.6,5.7-0.8
			c0.6-0.1,0.5-0.8,0.1-1.1c-3.4-2.5-6.8-5-10.3-7.5c-1-0.7-4-2.2-4.5-3.3c0.2,0.6,0.1,0.1,0.9-0.6c0.8-0.7,1.4-1.9,2.1-2.7
			c0.3-0.4-0.1-0.9-0.5-0.9c-8.6,0-16.9-0.4-25.5-1.2c-8.9-0.8-17.6-0.8-26.5-0.8c-3.3,0-6.5,0.8-9.8,1.4c-3.2,0.6-6.6,0.8-9.5,2.1
			c-4.6,2-9,4.7-13.5,7c-3.9,2-8.1,5.1-12.3,6.4c-2.5,0.8-8.6,0.1-12,0.1c-5,0-10,0-15,0c-0.3,0-0.5,0.2-0.6,0.4
			c-1,3.9-0.7,3.6-4.3,5.3c-3.4,1.6-7.2,2.9-10.3,4.8c-1.8,1.2-2.1,2.7-3.2,4.7c-1.6,2.6-2.1,3-2.1,6c0,2.1-0.9,6.7,0.1,8.6
			c1,1.9,3.3,1.3,5.1,1.3c5.9,0,11.7-1.1,17.6-0.9c0.4,0,0.7-0.4,0.6-0.8c-3-7.4,1.5-16.1,10-16.3c9-0.3,14,9.2,10.3,16.9
			c-0.2,0.4,0,0.9,0.5,0.9c13,0.4,26,0.2,39,0.2c13.3,0,26.7,0.6,40-0.2c0.5,0,0.7-0.5,0.5-0.9c-3.6-7.6,1.3-17,10.2-16.9
			c8.3,0.2,12.8,8.3,10.3,15.7c-0.1,0.4,0.2,0.8,0.6,0.8c2.6-0.2,5.5,0.1,8-0.5c2.4-0.6,4.9-2.1,7.1-3.1c0.2-0.1,0.3-0.3,0.3-0.5
			c0.3-3.3,1.6-7.7,1-10.9c-0.4-2.5-2.8-5.2-4.1-7.4c-0.4-0.7-1.4-0.1-1,0.6c1.2,2.1,3.5,5,3.9,7.1c0.3,1.5-0.3,3.6-0.5,5.1
			c-0.1,1.3,0.2,4.1-0.5,5.2c0.1-0.2-0.2-0.2-0.8,0.2c-0.8,0.5-1.9,0.8-2.8,1.2c-1.3,0.5-2.4,1.1-3.7,1.3c-1.5,0.3-4.2,0.7-5.7,0.3
			c-1.6-0.3-0.5,0.3,0-1.3c0.4-1.2,0.3-2.7,0.2-3.9c-1.1-9.7-12.9-14.5-20.4-8.3c-3.3,2.7-5.1,7-4.6,11.3c0.1,1.1,0.7,2.1,0.8,3.1
			c0.2,1.8,1.5-0.2,0.3,0.5c-0.3,0.2-0.9,0-1.3,0.1c-0.6,0.1-1.1,0.1-1.7,0.1c-14,0.4-28.1,0-42.1,0c-7.5,0-14.9,0-22.4,0
			c-1.7,0-3.3,0-5,0c-0.6,0-1.1,0-1.7,0c-0.9,0-2.2,0.2-3-0.1c-1.2-0.4-0.2,0,0.4-1.3c4.1-9.1-6.3-18.4-15-16.1
			c-4.3,1.1-7.9,4.6-9.1,8.8c-0.6,2.1-0.6,4.5,0,6.6c0.5,1.7,1.5,1-0.7,1.2c-0.5,0-1,0-1.4,0c-3,0.1-6,0.8-9,1c-1.9,0.1-8,0.9-9-0.5
			c-0.9-1.2-0.4-8.3,0-10c0.3-1.5,2.6-6.3,3.8-7.4c1.9-1.9,6.2-3,8.7-4.1c1.7-0.8,5.2-1.6,6.4-3.2c0.7-0.9,0.2-3,1-3.9
			c-0.6,0.6,0.9,0.2,1.9,0.2c3.9,0,7.7,0,11.6,0c4.5,0,10.4,1.1,14.6-0.7c7.1-3.2,13.9-7.2,20.8-10.8c10.9-5.7,23.3-5.5,35.4-5.5
			c11.9,0,23.6,2,35.5,2c0.7,0,1.9,0.2,2.6,0c1.5-0.4,0,0.1,0.4-0.7c-0.7,1.4-1.9,2.6-2.9,3.8c-0.2,0.3,0,0.6,0.2,0.8
			c5,3.7,10,7.3,15,11c0-0.4,0.1-0.7,0.1-1.1c-1.9,0.3-5.2,0-6.8,1c-1.1,0.7-1.8,2.2-2.5,3.3c-0.1,0.2-0.1,0.5,0.1,0.7
			c2.3,2.3,6.2,2.4,9.3,3.2C547.6,414.8,547.9,413.6,547.2,413.4z"/>
	</g>
</g>
<g>
	<polygon points="393,422 402,419.7 407,415.1 403,414 395,417.4 	"/>
	<g>
		<path d="M393.1,422.4c2.8-0.7,6.2-1,8.8-2.2c2-0.9,3.7-3.2,5.4-4.7c0.3-0.2,0.1-0.7-0.2-0.8c-1.2-0.4-3-1.2-4.2-1.1
			c-1.3,0.1-3.2,1.4-4.4,1.9c-1.1,0.5-3.1,0.9-3.9,1.8c-1,1-1.4,3.3-2,4.6c-0.2,0.5,0.5,1,0.8,0.5c0.6-1.3,1-3.2,1.9-4.3
			c0.4-0.5,2.5-1.2,3.5-1.6c1.2-0.5,3.1-1.8,4.5-1.9c-0.5,0,1.2,0.5,1.4,0.5c0.7,0.2,1.5,0.4,2.2,0.6c-0.1-0.3-0.1-0.5-0.2-0.8
			c-1.6,1.4-3.8,4-5.3,4.6c-2.7,1-5.7,1.5-8.5,2.2C392.3,421.7,392.6,422.6,393.1,422.4z"/>
	</g>
</g>
<g>
	<polygon class="st22" points="510.9,394.1 517.2,404 521.7,404 523.5,403.1 526.2,398.6 	"/>
	<g>
		<path class="st22" d="M510.5,394.3c1.3,2,2.5,4,3.8,6c0.7,1.1,1.7,3.6,2.9,4.2c1.4,0.6,4.5,0.2,5.8-0.6c1.7-1.1,2.5-3.3,3.5-5
			c0.2-0.3,0-0.6-0.3-0.7c-5.1-1.5-10.2-3-15.3-4.5c-0.6-0.2-0.8,0.7-0.2,0.9c3.3,1,6.6,1.9,9.9,2.9c1.5,0.5,3.3,1.2,4.8,1.4
			c0.9,0.1,0.3-0.4,0-0.1c-0.7,0.7-1.2,2-1.7,2.8c-0.9,1.4-1.7,1.8-3.3,1.9c-0.9,0.1-2.2,0.2-3,0c-0.7-0.2,0.3,0.3,0,0.1
			c-0.1-0.1-0.3-0.5-0.4-0.6c-2-3-3.9-6.1-5.8-9.1C510.9,393.4,510.1,393.8,510.5,394.3z"/>
	</g>
</g>
<g>
	<polygon points="523,392 529.6,397 532.8,395.7 536,391.4 525.3,391 	"/>
	<g>
		<path d="M522.8,392.4c1.4,1,2.7,2.1,4.1,3.1c0.9,0.7,1.9,1.9,3,1.9c0.9,0,2.7-0.9,3.5-1.5c1.2-1.1,2.1-2.9,3.1-4.2
			c0.2-0.3-0.1-0.7-0.4-0.7c-2.6-0.1-5.2-0.2-7.8-0.3c-2.3-0.1-3.2,0-5.4,0.9c-0.5,0.2-0.1,1,0.5,0.8c2.2-0.9,3.1-0.9,5.6-0.8
			c2.4,0.1,4.8,0.2,7.1,0.3c-0.1-0.2-0.3-0.5-0.4-0.7c-0.9,1.2-1.7,2.5-2.7,3.6c-0.6,0.8-0.1,0.4-0.8,0.7c-0.6,0.3-1.9,1-2.5,1
			c0.2,0-0.2-0.2-0.7-0.6c-0.7-0.6-1.5-1.1-2.2-1.7c-1.2-0.9-2.3-1.8-3.5-2.7C522.8,391.2,522.3,392,522.8,392.4z"/>
	</g>
</g>
<g>
	<polygon class="st23" points="549,411.6 548,407 540.2,408.1 538,411.6 547.9,415 	"/>
	<g>
		<path class="st23" d="M549.4,411.5c-0.3-1.5-0.7-3-1-4.6c-0.1-0.3-0.3-0.3-0.6-0.3c-2.4,0.3-4.7,0.6-7.1,1
			c-1.7,0.3-2.3,2.4-3.2,3.7c-0.2,0.3,0,0.6,0.3,0.7c3.3,1.1,6.6,2.3,9.9,3.4c0.2,0.1,0.5-0.1,0.6-0.3c0.4-1.1,0.7-2.3,1.1-3.4
			c0.2-0.6-0.7-0.8-0.9-0.2c-0.4,1.1-0.7,2.3-1.1,3.4c0.2-0.1,0.4-0.2,0.6-0.3c-3.3-1.1-6.6-2.3-9.9-3.4c0.1,0.2,0.2,0.4,0.3,0.7
			c0.6-0.9,1.2-1.8,1.8-2.7c0.3-0.5,0.5-0.6,0.3-0.5c0.3-0.1,0.9-0.1,1.2-0.2c2.2-0.3,4.3-0.6,6.5-1c-0.2-0.1-0.4-0.2-0.6-0.3
			c0.3,1.5,0.7,3,1,4.6C548.7,412.3,549.6,412,549.4,411.5z"/>
	</g>
</g>
<g>
	<polygon class="st22" points="509.8,401 507.1,394.3 488.2,393.3 487.4,405 509.8,405 	"/>
	<g>
		<path class="st22" d="M510.2,400.9c-0.9-2.3-1.8-4.5-2.7-6.8c-0.1-0.2-0.2-0.3-0.4-0.3c-6.3-0.3-12.6-0.6-18.9-1
			c-0.3,0-0.4,0.2-0.5,0.4c-0.3,3.9-0.5,7.8-0.8,11.7c0,0.2,0.2,0.5,0.5,0.5c7.5,0,14.9,0,22.4,0c0.2,0,0.5-0.2,0.5-0.5
			c0-1.3,0-2.7,0-4c0-0.6-0.9-0.6-0.9,0c0,0.7-0.2,4.1,0.4,3.5c-0.3,0.3-1.9,0-2.2,0c-3.6,0-7.1,0-10.7,0c-2.8,0-5.9,0.4-8.7,0
			c-1-0.1-0.2,0.7-0.2-0.3c-0.1-1.7,0.2-3.5,0.3-5.1c0.1-1.6,0.2-3.3,0.3-4.9c0.1-1.3-0.7-0.4,0.4-0.5c3.1-0.2,6.4,0.3,9.5,0.5
			c2.2,0.1,6.4-0.5,8.4,0.4c-0.3-0.2,0.6,1.8,1,2.7c0.5,1.3,1,2.5,1.5,3.8C509.5,401.7,510.4,401.4,510.2,400.9z"/>
	</g>
</g>
<g>
	<polygon class="st22" points="479.8,393.3 470.2,395.2 459.7,401 459.7,405 481,405 483.3,393.3 	"/>
	<g>
		<path class="st22" d="M479.7,392.9c-3.2,0.6-6.8,0.9-9.8,2c-3.6,1.4-7,3.8-10.4,5.7c-0.1,0.1-0.2,0.2-0.2,0.4c0,1.3,0,2.7,0,4
			c0,0.2,0.2,0.5,0.4,0.5c7.1,0,14.2,0,21.3,0c0.2,0,0.4-0.1,0.4-0.3c0.8-3.9,1.5-7.8,2.3-11.7c0.1-0.3-0.1-0.6-0.4-0.6
			c-1.2,0-2.3,0-3.5,0c-0.6,0-0.6,0.9,0,0.9c0.7,0,3.6,0.4,3-0.5c0.3,0.5-0.6,2.9-0.7,3.5c-0.3,1.8-0.7,3.6-1,5.3
			c-0.1,0.5-0.9,3-0.2,2.4c-1.1,0.8-5.6,0-6.9,0c-3.6,0-7.1,0-10.7,0c-0.7,0-2.6,0.4-3.2,0c-0.5-0.3-0.1,0.1,0,0.2
			c-0.2-0.3,0-1.9,0-2.2c0.2-1.7-0.4-0.8,1-1.9c1.3-1,3-1.7,4.5-2.4c2-1.1,3.8-2.3,5.9-2.8c2.7-0.7,5.6-1.1,8.4-1.7
			C480.5,393.6,480.3,392.8,479.7,392.9z"/>
	</g>
</g>
<circle cx="424" cy="431" r="10"/>
<circle class="st24" cx="424" cy="431" r="8.5"/>
<polygon class="st25" points="424.7,431.4 424,431 422.7,430.3 425.3,426.8 427.8,423.2 426.3,427.3 "/>
<circle class="st26" cx="424" cy="431" r="0.3"/>
<polygon class="st25" points="424.9,431.1 424,431.1 422.6,431.2 423,426.8 423.4,422.5 424.1,426.8 "/>
<polygon class="st25" points="424.8,431 424.1,431.4 422.9,432.2 421,428.1 419.1,423.9 422,427.5 "/>
<polygon class="st25" points="424.8,430.2 424.5,431 423.8,432.2 420.3,429.7 416.9,427.3 420.9,428.7 "/>
<polygon class="st25" points="424.2,429.6 424.2,430.4 424.3,431.9 419.9,431.5 415.6,431.1 419.9,430.3 "/>
<polygon class="st25" points="423,429.6 423.5,430.3 424.2,431.5 420.3,433.4 416.3,435.2 419.7,432.4 "/>
<polygon class="st25" points="422.3,429.6 423,430 424.3,430.7 421.8,434.2 419.2,437.8 420.8,433.7 "/>
<polygon class="st25" points="422.2,430.9 423,430.9 424.4,430.8 424,435.2 423.6,439.5 422.9,435.2 "/>
<polygon class="st25" points="423.2,432 423.9,431.6 425.1,430.8 426.9,434.8 428.7,438.8 426,435.4 "/>
<polygon class="st25" points="423.2,431.8 423.6,431.1 424.2,429.8 427.8,432.3 431.4,434.8 427.3,433.3 "/>
<polygon class="st25" points="423.5,431.9 423.4,431.1 423.4,429.7 427.7,430.1 432.1,430.5 427.8,431.2 "/>
<polygon class="st25" points="424.6,431.9 424.2,431.2 423.4,430 427.4,428.1 431.3,426.3 428,429.1 "/>
<circle class="st27" cx="424" cy="431" r="2"/>
<circle cx="524" cy="431" r="11"/>
<circle class="st24" cx="524" cy="431" r="8.5"/>
<polygon class="st25" points="524.7,431.4 524,431 522.7,430.3 525.3,426.8 527.8,423.2 526.3,427.3 "/>
<circle class="st26" cx="524" cy="431" r="0.3"/>
<polygon class="st25" points="524.9,431.1 524,431.1 522.6,431.2 523,426.8 523.4,422.5 524.1,426.8 "/>
<polygon class="st25" points="524.8,431 524.1,431.4 522.9,432.2 521,428.1 519.1,423.9 522,427.5 "/>
<polygon class="st25" points="524.8,430.2 524.5,431 523.8,432.2 520.3,429.7 516.9,427.3 520.9,428.7 "/>
<polygon class="st25" points="524.2,429.6 524.2,430.4 524.3,431.9 519.9,431.5 515.6,431.1 519.9,430.3 "/>
<polygon class="st25" points="523,429.6 523.5,430.3 524.2,431.5 520.3,433.4 516.3,435.2 519.7,432.4 "/>
<polygon class="st25" points="522.3,429.6 523,430 524.3,430.7 521.8,434.2 519.2,437.8 520.8,433.7 "/>
<polygon class="st25" points="522.2,430.9 523,430.9 524.4,430.8 524,435.2 523.6,439.5 522.9,435.2 "/>
<polygon class="st25" points="523.2,432 523.9,431.6 525.1,430.8 526.9,434.8 528.7,438.8 526,435.4 "/>
<polygon class="st25" points="523.2,431.8 523.6,431.1 524.2,429.8 527.8,432.3 531.4,434.8 527.3,433.3 "/>
<polygon class="st25" points="523.5,431.9 523.4,431.1 523.4,429.7 527.7,430.1 532.1,430.5 527.8,431.2 "/>
<polygon class="st25" points="524.6,431.9 524.2,431.2 523.4,430 527.4,428.1 531.3,426.3 528,429.1 "/>
<circle class="st27" cx="524" cy="431" r="2"/>
<g>
	<polygon points="457,402 451,405 457,405 	"/>
	<g>
		<path d="M456.8,401.6c-2,1-4,2-6,3c-0.4,0.2-0.2,0.8,0.2,0.8c2,0,4,0,6,0c0.2,0,0.5-0.2,0.5-0.5c0-1,0-2,0-3c0-0.6-0.9-0.6-0.9,0
			c0,1,0,2,0,3c0.2-0.1,0.3-0.3,0.5-0.5c-2,0-4,0-6,0c0.1,0.3,0.2,0.6,0.2,0.8c2-1,4-2,6-3C457.7,402.1,457.3,401.4,456.8,401.6z"/>
	</g>
</g>
<g>
	<g>
		<path class="st16" d="M174.6,473.1c-3,0-4.8,5.7-3.4,10.2l15.9,48.1l15.9,48.2c0.7,2.2,1.9,3.3,3.2,3.4V473.1L174.6,473.1z"/>
	</g>
	<path class="st17" d="M238.1,473.1l-31.8,0l-0.1,0V583c1.4,0.1,2.7-1,3.5-3.4l15.9-48.2l15.9-48.2
		C243,478.7,241.1,473.1,238.1,473.1z"/>
</g>
</svg>
