<?xml version="1.0" encoding="utf-8"?>
<!-- Generator: Adobe Illustrator 21.0.2, SVG Export Plug-In . SVG Version: 6.00 Build 0)  -->
<svg version="1.1" id="Layer_1" xmlns="http://www.w3.org/2000/svg" xmlns:xlink="http://www.w3.org/1999/xlink" x="0px" y="0px"
	 viewBox="0 0 477 532" style="enable-background:new 0 0 477 532;" xml:space="preserve">
<style type="text/css">
	.st0{fill:#C91B1B;}
	.st1{fill:#1C86C6;}
</style>
<g>
	<g>
		<path d="M286.9,429.9c3.7-25.3,7.3-50.7,11-76c0.3-1.9-2.6-2.7-2.9-0.8c-3.7,24.7-7.3,49.3-11,74c1,0.1,2,0.3,2.9,0.4
			c-1.8-14.4-3.7-28.8-5.5-43.2c-0.1-1-0.4-2.1-0.4-3.1c0-1.4-0.4,0.5-0.1-0.2c1.2-2.8,3.6-5.7,5.2-8.2c3.9-6.2,7.7-12.3,11.6-18.5
			c1-1.6-1.5-3.1-2.6-1.5c-6.1,9.2-12.1,18.3-18.2,27.5c0.9,0.3,1.9,0.5,2.8,0.8c-1.7-13-3.3-26.1-5-39.1c-0.6-4.5-2-9.7-1.8-14.3
			c-0.1,1.2,0,0.3,0.4-0.5c0.6-1.2,1.1-2.4,1.7-3.6c1.6-3.5,3.3-6.9,4.9-10.4c2.9-6.3,5.9-12.5,8.8-18.8c0.8-1.7-1.7-3.2-2.6-1.5
			c-5.8,11.4-11.6,22.7-17.4,34.1c0.9,0.1,1.8,0.2,2.7,0.4c-2-13-3.9-26.1-5.9-39.1c-0.9-5.8-1.6-11.6-2.6-17.4
			c-0.2-1.2-0.2,0.7-0.1,0.4c0.4-0.8,0.9-1.6,1.4-2.3c1.8-3.2,3.7-6.4,5.5-9.5c3.7-6.3,7.3-12.6,11-18.9c1-1.7-1.6-3.2-2.6-1.5
			c-6.1,10.3-12.1,20.6-18.2,31c0.9,0.3,1.9,0.5,2.8,0.8c-2.5-18.8-5-37.7-7.6-56.5c-0.6-4.4,0-11.9-4.2-14.8
			c-2.4-1.7-5.8-2.5-8.5-3.7c-5.3-2.3-10.6-4.6-15.9-6.9c-8.8-3.8-17.6-7.6-26.4-11.4c-1.7-0.8-3.3,1.8-1.5,2.6c9,4,18,8,27,12
			c-0.2-0.6-0.5-1.1-0.7-1.7c-3.3,20-6.5,40-9.8,60c0.9-0.1,1.8-0.2,2.7-0.4c-5.8-9.7-11.5-19.3-17.3-29c-1-1.7-3.6-0.2-2.6,1.5
			c3.2,5.4,6.3,10.8,9.5,16.2c1.9,3.3,3.9,6.6,5.8,9.9c0.5,0.8,0.9,1.7,1.5,2.5c0.6,0.9,0.1-1.4,0-0.3c-1.7,14.2-4.1,28.3-6.1,42.4
			c-0.8,5.4-1.6,10.8-2.3,16.2c0.9-0.1,1.8-0.2,2.7-0.4c-5.2-11-10.3-21.9-15.5-32.9c-0.4-0.9-1.7-1-2.4-0.3c0,0,0,0,0,0
			c-0.5,0.5-0.5,1.2-0.2,1.8c2.4,5.3,4.8,10.7,7.3,16c2.5,5.5,5.7,11.1,7.7,16.9c-0.3-1,0-1.4-0.2-0.3c-0.2,0.9-0.3,1.8-0.4,2.7
			c-0.4,3.1-0.9,6.3-1.3,9.4c-1.2,8.5-2.4,17-3.6,25.5c-0.8,5.5-1.5,11-2.3,16.5c0.9-0.1,1.8-0.2,2.7-0.4
			c-5.1-11.7-10.2-23.3-15.3-35c-0.8-1.8-3.3-0.2-2.6,1.5c2.6,6.1,5.3,12.3,7.9,18.4c1.7,4,3.5,8.1,5.2,12.1
			c0.5,1.1,0.8,2.4,1.5,3.4c0.6,1,0.2,1.4,0.3,0c-0.2,5.5-1.6,11.2-2.4,16.6c-1.3,9.4-2.7,18.7-4,28.1c-0.9,6-1.7,12.1-2.6,18.1
			c-0.1,0.9,0.4,1.9,1.4,1.9c22.7,0,45.5,0,68.2,0c2.2,0,4.4,0,6.6,0c0.6,0,1.2,0,1.8,0c1.1,0-1.1-0.8-0.5-0.3
			c2.3,2.1,4.3,4.6,6.5,6.9c9.9,10.6,19.8,21.2,29.7,31.8c7.2,7.7,14.4,15.4,21.6,23.1c1.3,1.4,3.4-0.7,2.1-2.1
			c-19.2-20.7-38.3-41.3-57.5-62c-0.4,0.9-0.7,1.7-1.1,2.6c5.8,0.7,11.7,1.3,17.5,2c1.9,0.2,1.9-2.8,0-3c-5.8-0.7-11.7-1.3-17.5-2
			c-1.4-0.2-1.9,1.7-1.1,2.6c19.2,20.7,38.3,41.3,57.5,62c0.7-0.7,1.4-1.4,2.1-2.1c-16.5-17.6-33-35.2-49.4-52.9
			c-2.6-2.8-5.1-6.2-8.1-8.6c-1.7-1.4-3.5-1-5.7-1c-14,0-28,0-42.1,0c-10.3,0-20.5,0-30.8,0c0.5,0.6,1,1.3,1.4,1.9
			c2.1-14.7,4.2-29.3,6.3-44c0.9-6,2.7-12.6,2.7-18.7c-0.1-4.4-3.6-9.6-5.3-13.6c-3.3-7.6-6.5-15.2-9.8-22.9c-0.9,0.5-1.7,1-2.6,1.5
			c5.1,11.7,10.2,23.3,15.3,35c0.5,1.1,2.6,0.9,2.7-0.4c1.9-13.4,3.7-26.9,5.6-40.3c0.6-4.6,2.3-10,2-14.7c-0.3-4.5-4.2-10-6-14.1
			c-3-6.7-6.1-13.3-9.1-20c-0.1,0.6-0.2,1.2-0.2,1.8c0,0,0,0,0,0c-0.8-0.1-1.6-0.2-2.4-0.3c5.2,11,10.3,21.9,15.5,32.9
			c0.5,1.1,2.6,0.9,2.7-0.4c1.9-13.4,3.9-26.7,5.8-40.1c0.9-5.9,2.4-12.1,2.6-18.1c0.2-3.8-3.5-7.8-5.4-11
			c-3.9-6.6-7.8-13.3-11.7-19.9c-0.9,0.5-1.7,1-2.6,1.5c5.8,9.7,11.5,19.3,17.3,29c0.6,1,2.5,1,2.7-0.4c3.3-20,6.5-40,9.8-60
			c0.1-0.6-0.1-1.4-0.7-1.7c-9-4-18-8-27-12c-0.5,0.9-1,1.7-1.5,2.6c16.3,7,32.7,14.1,49,21.1c0.6,0.3,1.4,0.5,2,0.9
			c-0.2-0.1,1,1.2,1.1,1.7c0.8,2.6,0.8,5.9,1.2,8.6c1.5,11.3,3,22.5,4.5,33.8c1.1,8.2,2.2,16.4,3.3,24.6c0.2,1.4,2,2.2,2.8,0.8
			c6.1-10.3,12.1-20.6,18.2-31c-0.9-0.5-1.7-1-2.6-1.5c-3.2,5.5-6.3,10.9-9.5,16.4c-2.1,3.6-4.2,7.2-6.2,10.7
			c-0.8,1.4-2.2,3.1-2.5,4.7c-0.2,1.1,0.4,2.7,0.6,3.8c0.5,3.2,1,6.4,1.5,9.6c1.3,8.8,2.7,17.7,4,26.5c0.9,5.8,1.8,11.7,2.6,17.5
			c0.2,1.3,2.2,1.4,2.7,0.4c5.8-11.4,11.6-22.7,17.4-34.1c-0.9-0.5-1.7-1-2.6-1.5c-2.5,5.4-5.1,10.7-7.6,16.1
			c-1.8,3.8-3.6,7.6-5.3,11.4c-0.9,2-2.4,4.2-3,6.3c-0.9,3.4,0.6,8,1,11.4c1.1,8.5,2.2,17,3.3,25.5c0.7,5.8,1.5,11.7,2.2,17.5
			c0.2,1.4,1.9,2.1,2.8,0.8c6.1-9.2,12.1-18.3,18.2-27.5c-0.9-0.5-1.7-1-2.6-1.5c-4,6.4-8.1,12.8-12.1,19.2c-1.4,2.3-4,5-4.8,7.6
			c-0.4,1.3-0.1,2.5,0.1,3.8c1.9,14.7,3.7,29.4,5.6,44c0.2,1.5,2.7,2.2,2.9,0.4c3.7-24.7,7.3-49.3,11-74c-1-0.3-1.9-0.5-2.9-0.8
			c-3.7,25.3-7.3,50.7-11,76C283.8,431,286.7,431.8,286.9,429.9z"/>
	</g>
</g>
<g>
	<g>
		<path d="M281.2,238.7c-9.2-12.2-18.4-24.5-27.7-36.7c-1.1-1.5-3.7,0-2.6,1.5c8.5,11.5,17,22.9,25.5,34.4c0.9,1.2,1.5,2,1.6,2.5
			c0.7,2.2,0.7,4.8,1.1,7.1c1.4,9,2.7,18.1,4.1,27.1c1,6.4,1.9,12.8,2.9,19.2c0.8-0.5,1.7-1,2.5-1.5c-8.7-7.7-17.4-15.3-26.1-23
			c-1.4-1.3-3.6,0.8-2.1,2.1c4.3,3.8,8.7,7.7,13,11.5c3,2.7,6,5.4,9.1,8c0.9,0.8,1.7,1.6,2.7,2.4c0.6,0.5,1.3,1.7,0.9,0.5
			c1.5,3.7,1.3,9.1,1.9,13c1.2,8.3,2.4,16.7,3.6,25c0.9,6.5,1.9,12.9,2.8,19.4c0.5,3.1,0.6,2.4,1.1,5.7c2.1,15.1,4.3,30.3,6.4,45.4
			c0.5,3.6,1,7.2,1.5,10.8c0.2,1.3,0.1,3.4,0.7,4.6c1,1.9,4,3.3,5.7,4.5c3,2.1,6,4.3,9,6.4c0.5,0.3,1.4,0.2,1.8-0.2
			c1.5-1.9,3.1-3.8,4.6-5.7c1.1-1.4,3.2-3.2,3.8-4.9c0.9-2.5,0.1-6.6,0.1-9.2c0-13.2,0-26.4,0-39.6c0-1.7,0.4-3.9,0-5.5
			c-0.4-1.8-0.4,0-0.4,0c0.7,0.1,2.5-1.1,3.1-1.4c1.9-0.9,3.9-1.7,5.8-2.6c12.2-5.5,24.4-11,36.6-16.6c9-4.1,18.1-8.2,27.1-12.2
			c1.8-0.8,0.2-3.4-1.5-2.6c-24.3,10.9-48.7,21.8-73,32.8c0.8,0.4,1.5,0.9,2.3,1.3c0-5.4,0-10.9,0-16.3c0-2.8-0.1-5.7,0-8.5
			c0.1-1.4-0.1-0.2-0.1-0.5c0.4-1.3,1.2-2.6,1.8-3.9c0.7-1.5,1.4-3,2.1-4.6c0.2-0.5,1.5-2.6,0.5-1.7c1.5-1.4,4.4-2.3,6.2-3.2
			c4.9-2.6,9.8-5.2,14.8-7.7c0.5-0.2,0.7-0.8,0.7-1.3c0-6.3,0-12.5,0-18.8c0-2.6-0.4-5.5,0-8c0,0.1-0.3,0.9,0.1-0.1
			c0.4-0.9,0.9-1.7,1.3-2.6c5.8-11.2,11.6-22.5,17.3-33.7c0.9-1.7-1.7-3.2-2.6-1.5c-6.4,12.3-12.8,24.5-19.2,36.8
			c0.9,0.3,1.9,0.5,2.8,0.8c0-9.5,0.1-19.1,0.1-28.6c0-2.6,0.8-6.4-0.2-8.9c-0.5-1.5-2.2-3.1-3.1-4.3c-1.5-2-2.8-4.6-4.6-6.4
			c-1.3-1.3-3-1.8-4.7-2.5c-4.4-1.9-8.8-3.8-13.2-5.7c-10.9-4.7-21.7-9.4-32.6-14.1c-3.1-1.3-6.6-3.6-10-4.3
			c-3.2-0.7-7.3,1.7-10.4,2.7c-0.8,0.3-1.2,1-1,1.8c1.1,7.7,2.3,15.3,3.4,23c0.3,1.9,3.2,1.1,2.9-0.8c-1.1-7.7-2.3-15.3-3.4-23
			c-0.3,0.6-0.7,1.2-1,1.8c1.9-0.6,3.9-1.3,5.8-1.9c1-0.3,1.9-0.7,2.9-1c0.7-0.2-1.6-0.4-0.5-0.1c2.7,0.7,5.3,2.3,7.8,3.4
			c10.3,4.4,20.5,8.9,30.8,13.3c4.7,2,9.4,4.1,14.1,6.1c2.2,0.9,4.8,1.7,6.8,2.9c0.5,0.3-0.7-0.7-0.2-0.2c0.7,0.7,1.3,1.8,1.9,2.6
			c1.6,2.2,3.1,4.5,4.8,6.6c0.3,0.4,1.3,2.3,0.9,0.9c0.1,0.2,0,0.5,0,0.8c0.1,1.7,0,3.6,0,5.3c0,10.2-0.1,20.4-0.1,30.6
			c0,1.4,2.1,2.1,2.8,0.8c6.4-12.3,12.8-24.5,19.2-36.8c-0.9-0.5-1.7-1-2.6-1.5c-4.4,8.6-8.8,17.2-13.3,25.8
			c-1.8,3.5-4.4,7.1-5.6,10.9c-0.8,2.6-0.4,5.7-0.4,8.4c0,5.9,0,11.7,0,17.6c0,0.6-0.1,1.3,0,1.9c-0.1-0.8,1.4-0.9,0.2-0.8
			c-1.9,0.1-4.9,2.5-6.5,3.4c-4.2,2.2-9.9,4.1-13.6,7.1c-2.6,2.1-4,7.4-5.3,10.4c-1.5,3.5-0.8,7.7-0.8,11.5c0,5.4,0,10.9,0,16.3
			c0,1.2,1.3,1.7,2.3,1.3c24.3-10.9,48.7-21.8,73-32.8c-0.5-0.9-1-1.7-1.5-2.6c-24.3,11-48.7,22-73,33c-0.5,0.2-0.7,0.8-0.7,1.3
			c0,12.3,0,24.5,0,36.8c0,5.5-0.9,11.7,0,17.1c0.1,0.3-0.2,1.7,0.2,0.6c0.4-1.1-0.3,0.2-0.6,0.5c-0.5,0.5-1,1.2-1.4,1.8
			c-1.9,2.4-3.8,4.8-5.7,7.2c0.6-0.1,1.2-0.2,1.8-0.2c-2.3-1.7-4.7-3.3-7-5c-1.6-1.1-3.2-2.3-4.8-3.4c-0.6-0.4-1.1-0.8-1.7-1.2
			c-0.9-0.7,0.1,0.1,0.2,0.5c-1.1-4.1-1.2-8.7-1.8-12.9c-2.2-15.4-4.3-30.8-6.5-46.2c-0.2-1.6-0.3-3.2-0.7-4.7
			c-0.4-1.6-0.2,0.1-0.5-1.5c-1.1-5.7-1.7-11.6-2.5-17.3c-1.2-8.4-2.5-16.9-3.7-25.3c-0.7-4.8-0.5-11.1-2.3-15.6
			c-0.4-1.2-1.1-1.6-2-2.5c-2.9-2.6-5.9-5.2-8.8-7.8c-5.2-4.6-10.4-9.2-15.6-13.8c-0.7,0.7-1.4,1.4-2.1,2.1
			c8.7,7.7,17.4,15.3,26.1,23c1.2,1,2.7,0,2.5-1.5c-2.2-14.5-4.4-29.1-6.6-43.6c-0.5-3.6-0.4-8.3-2.3-11.5
			c-3.8-6.4-9.2-12.4-13.6-18.4c-4.3-5.8-8.7-11.7-13-17.5c-0.9,0.5-1.7,1-2.6,1.5c9.2,12.2,18.4,24.5,27.7,36.7
			C279.8,241.8,282.4,240.3,281.2,238.7z"/>
	</g>
</g>
<g>
	<g>
		<path d="M111.9,157.9c17.2-6.8,34.4-13.7,51.6-20.5c-0.6-0.5-1.3-1-1.9-1.4c0.1,11.2,0.3,22.4,0.4,33.5c0,1.9,3,1.9,3,0
			c0-11.2,0-22.5,0-33.7c0-0.9-1-1.8-1.9-1.4c-17.3,6.9-34.7,13.8-52,20.7C109.3,155.8,110.1,158.7,111.9,157.9
			c17.3-6.9,34.7-13.8,52-20.7c-0.6-0.5-1.3-1-1.9-1.4c0,11.2,0,22.5,0,33.7c1,0,2,0,3,0c-0.1-11.2-0.3-22.4-0.4-33.5
			c0-0.9-1-1.8-1.9-1.4c-17.2,6.8-34.4,13.7-51.6,20.5C109.3,155.8,110.1,158.7,111.9,157.9z"/>
	</g>
</g>
<g>
	<g>
		<path d="M287,213.5c2.4-18.5,4.8-37,7.1-55.6c0.2-1.3-1.7-1.9-2.6-1.1c-1.5,1.6-1.3,5.3-1.5,7.3c-0.8,6.4-1.6,12.8-2.4,19.3
			c-1.2,10-2.5,20-3.7,30.1C283.8,215.4,286.8,215.4,287,213.5c1.2-9.4,2.3-18.7,3.5-28.1c0.8-6.3,1.5-12.6,2.3-18.8
			c0.2-2,0.5-4.1,0.7-6.1c0.1-0.5,0.3-1.1,0.2-1.6c-0.1-1.1-0.1,0.2,0,0.1c-0.9-0.4-1.7-0.7-2.6-1.1c-2.4,18.5-4.8,37-7.1,55.6
			C283.8,215.4,286.8,215.4,287,213.5z"/>
	</g>
</g>
<g>
	<g>
		<path d="M204.3,60.2c-25.3-11-50.7-22-76-33c-1.3-0.5-2.4,0.3-2.2,1.7c4,25,8,50,12,75c0.2,0.9,1.5,1.4,2.2,0.9
			c21.3-14,42.7-28,64-42c1.6-1.1,0.1-3.7-1.5-2.6c-21.3,14-42.7,28-64,42c0.7,0.3,1.5,0.6,2.2,0.9c-4-25-8-50-12-75
			c-0.7,0.6-1.5,1.1-2.2,1.7c25.3,11,50.7,22,76,33C204.5,63.6,206,61,204.3,60.2z"/>
	</g>
</g>
<g>
	<g>
		<path d="M198,121.5c0,19,0,38,0,57c0,1.4,1.6,1.9,2.6,1.1c15.1-13.4,30.2-26.9,45.3-40.3c0.9-0.8,0.3-2.1-0.7-2.5
			c-15.1-5.6-30.2-11.1-45.3-16.7c-1.8-0.7-2.6,2.2-0.8,2.9c15.1,5.6,30.2,11.1,45.3,16.7c-0.2-0.8-0.4-1.7-0.7-2.5
			c-15.1,13.4-30.2,26.9-45.3,40.3c0.9,0.4,1.7,0.7,2.6,1.1c0-19,0-38,0-57C201,119.6,198,119.6,198,121.5z"/>
	</g>
</g>
<g>
	<polygon class="st0" points="244.5,138.5 199.5,178.5 250.5,200.5 	"/>
	<g>
		<path d="M243.4,137.4c-15,13.3-30,26.7-45,40c-0.7,0.6-0.6,2,0.3,2.4c17,7.3,34,14.7,51,22c0.9,0.4,2.4,0,2.3-1.3
			c-2-20.7-4-41.3-6-62c-0.2-1.9-3.2-1.9-3,0c2,20.7,4,41.3,6,62c0.8-0.4,1.5-0.9,2.3-1.3c-17-7.3-34-14.7-51-22
			c0.1,0.8,0.2,1.6,0.3,2.4c15-13.3,30-26.7,45-40C247,138.3,244.9,136.2,243.4,137.4z"/>
	</g>
</g>
<g>
	<g>
		<path d="M291.9,156.1c-15.7-6.3-31.4-12.7-47-19c-0.9-0.3-2,0.5-1.9,1.4c2,20.7,4,41.3,6,62c0.1,1.2,1.6,2.1,2.6,1.1
			c13.7-14.3,27.4-28.7,41-43c1.3-1.4-0.8-3.5-2.1-2.1c-13.7,14.3-27.4,28.7-41,43c0.9,0.4,1.7,0.7,2.6,1.1c-2-20.7-4-41.3-6-62
			c-0.6,0.5-1.3,1-1.9,1.4c15.7,6.3,31.4,12.7,47,19C292.9,159.7,293.7,156.8,291.9,156.1z"/>
	</g>
</g>
<g>
	<g>
		<path d="M293,156.5c-0.1,0-0.2-0.1-0.3-0.1c-0.4-0.2-1,0-1.3,0.3c-0.4,0.3-0.5,0.7-0.6,1.2c0,0.2,0,0.3-0.1,0.5
			c-0.1,0.6,0.4,1.2,0.9,1.4c0.6,0.2,1.2,0.1,1.6-0.3c0.1-0.1,0.2-0.2,0.4-0.4c0.6-0.6,0.6-1.5,0-2.1c-0.6-0.6-1.5-0.6-2.1,0
			c-0.1,0.1-0.2,0.2-0.4,0.4c0.9,0.4,1.7,0.7,2.6,1.1c0-0.2,0-0.3,0.1-0.5c-0.6,0.5-1.3,1-1.9,1.4c0.1,0,0.2,0.1,0.3,0.1
			c0.7,0.3,1.7-0.3,1.8-1C294.3,157.5,293.8,156.8,293,156.5z"/>
	</g>
</g>
<g>
	<g>
		<path d="M250.1,201.9c11.7,4.3,23.3,8.7,35,13c1,0.4,1.8-0.6,1.9-1.4c2.3-18.4,4.5-36.8,6.8-55.2c0.2-1.3-1.7-1.9-2.6-1.1
			c-13.9,14.1-27.9,28.1-41.8,42.2c-1.4,1.4,0.8,3.5,2.1,2.1c13.9-14.1,27.9-28.1,41.8-42.2c-0.9-0.4-1.7-0.7-2.6-1.1
			c-2.3,18.4-4.5,36.8-6.8,55.2c0.6-0.5,1.3-1,1.9-1.4c-11.7-4.3-23.3-8.7-35-13C249.1,198.4,248.3,201.3,250.1,201.9z"/>
	</g>
</g>
<g>
	<g>
		<path d="M291.7,156.2c-0.3,0.2-0.6,0.4-1,0.5c-1.1,0.6-0.9,2.5,0.4,2.7c0.3,0.1,0.5,0.1,0.8,0.2c0.8,0.2,1.7-0.2,1.8-1
			c0.1-0.2,0.1-0.5,0.2-0.7c0.2-0.8-0.2-1.7-1-1.8c-0.8-0.2-1.7,0.2-1.8,1c-0.1,0.2-0.1,0.5-0.2,0.7c0.6-0.3,1.2-0.7,1.8-1
			c-0.3-0.1-0.5-0.1-0.8-0.2c0.1,0.9,0.2,1.8,0.4,2.7c0.3-0.2,0.6-0.4,1-0.5c0.7-0.4,0.9-1.4,0.5-2.1
			C293.4,156.1,292.4,155.8,291.7,156.2z"/>
	</g>
</g>
<g>
	<polygon class="st0" points="127.5,28.5 115.5,34.5 84.5,103.5 139.5,103.5 	"/>
	<g>
		<path d="M126.7,27.2c-2.8,1.4-5.7,2.8-8.5,4.2c-1.4,0.7-3.1,1.2-4.1,2.5c-2.5,3.1-3.8,8.4-5.4,12C102,60.8,95.4,75.7,88.7,90.6
			c-1.8,4.1-3.6,8.1-5.5,12.2c-0.5,1,0.1,2.3,1.3,2.3c18.3,0,36.7,0,55,0c1.1,0,1.6-1,1.4-1.9c-4-25-8-50-12-75
			c-0.3-1.9-3.2-1.1-2.9,0.8c4,25,8,50,12,75c0.5-0.6,1-1.3,1.4-1.9c-18.3,0-36.7,0-55,0c0.4,0.8,0.9,1.5,1.3,2.3
			c4.5-10,9-20,13.5-30c5.6-12.5,12.2-24.9,16.9-37.7c0.1-0.4,0.3-0.9,0.6-1.3c-0.7,0.9,1.1-0.4,1.9-0.8c3.2-1.6,6.4-3.2,9.6-4.8
			C130,28.9,128.5,26.3,126.7,27.2z"/>
	</g>
</g>
<g>
	<polygon class="st1" points="199.5,121.5 212.5,74.5 203.5,61.5 139.5,103.5 	"/>
	<g>
		<path d="M200.9,121.9c3.3-11.9,6.6-23.9,9.9-35.8c0.8-2.8,1.5-5.6,2.3-8.4c0.3-1,1-2.4,0.8-3.4c-0.3-2.1-3-4.6-4.1-6.2
			c-1.7-2.4-3.4-4.9-5.1-7.3c-0.4-0.6-1.3-1-2.1-0.5c-21.3,14-42.7,28-64,42c-1.1,0.7-0.9,2.4,0.4,2.7c20,6,40,12,60,18
			c1.9,0.6,2.6-2.3,0.8-2.9c-20-6-40-12-60-18c0.1,0.9,0.2,1.8,0.4,2.7c21.3-14,42.7-28,64-42c-0.7-0.2-1.4-0.4-2.1-0.5
			c1.5,2.2,3,4.3,4.5,6.5c1,1.5,2.1,3,3.1,4.5c0.8,1.1,1.2,2.7,1.2,0.9c-0.1,4.1-2.5,9-3.6,12.9c-3.1,11.4-6.3,22.7-9.4,34.1
			C197.5,123,200.4,123.8,200.9,121.9z"/>
	</g>
</g>
<g>
	<g>
		<path d="M83.2,104.3c9,17.7,18,35.3,27,53c0.5,1,2.1,1,2.6,0c9.3-17.7,18.7-35.3,28-53c0.5-1-0.1-2.3-1.3-2.3c-18.3,0-36.7,0-55,0
			c-1.9,0-1.9,3,0,3c18.3,0,36.7,0,55,0c-0.4-0.8-0.9-1.5-1.3-2.3c-9.3,17.7-18.7,35.3-28,53c0.9,0,1.7,0,2.6,0
			c-9-17.7-18-35.3-27-53C84.9,101,82.3,102.5,83.2,104.3z"/>
	</g>
</g>
<g>
	<polygon class="st1" points="75.5,190.5 111.5,156.5 84.5,103.5 	"/>
	<g>
		<path d="M76.6,191.6c12-11.3,24-22.7,36-34c0.5-0.5,0.5-1.2,0.2-1.8c-9-17.7-18-35.3-27-53c-0.7-1.5-2.7-0.6-2.8,0.8
			c-2.6,25.3-5.2,50.6-7.9,75.9c-0.4,3.7-0.8,7.4-1.1,11.1c-0.2,1.9,2.8,1.9,3,0c2.6-25.3,5.2-50.6,7.9-75.9
			c0.4-3.7,0.8-7.4,1.1-11.1c-0.9,0.3-1.9,0.5-2.8,0.8c9,17.7,18,35.3,27,53c0.1-0.6,0.2-1.2,0.2-1.8c-12,11.3-24,22.7-36,34
			C73,190.8,75.2,192.9,76.6,191.6z"/>
	</g>
</g>
<g>
	<g>
		<path d="M84.1,210.9c6.7,2.3,13.3,4.7,20,7c1,0.4,1.8-0.6,1.9-1.4c2.3-20,4.7-40,7-60c0.2-1.4-1.7-1.9-2.6-1.1
			c-12,11.3-24,22.7-36,34c-0.5,0.5-0.5,1.2-0.2,1.8c3,6.3,6,12.7,9,19c0.8,1.7,3.4,0.2,2.6-1.5c-3-6.3-6-12.7-9-19
			c-0.1,0.6-0.2,1.2-0.2,1.8c12-11.3,24-22.7,36-34c-0.9-0.4-1.7-0.7-2.6-1.1c-2.3,20-4.7,40-7,60c0.6-0.5,1.3-1,1.9-1.4
			c-6.7-2.3-13.3-4.7-20-7C83.1,207.4,82.3,210.3,84.1,210.9z"/>
	</g>
</g>
<g>
	<polygon class="st1" points="127.5,216.5 149.3,186.5 111.5,156.5 104.5,216.5 	"/>
	<g>
		<path d="M128.8,217.3c7.3-10,14.6-20,21.8-30c0.4-0.5,0.2-1.4-0.2-1.8c-12.6-10-25.2-20-37.8-30c-1.1-0.8-2.4-0.3-2.6,1.1
			c-2.3,20-4.7,40-7,60c-0.1,0.8,0.8,1.5,1.5,1.5c7.7,0,15.3,0,23,0c1.9,0,1.9-3,0-3c-7.7,0-15.3,0-23,0c0.5,0.5,1,1,1.5,1.5
			c2.3-20,4.7-40,7-60c-0.9,0.4-1.7,0.7-2.6,1.1c12.6,10,25.2,20,37.8,30c-0.1-0.6-0.2-1.2-0.2-1.8c-7.3,10-14.6,20-21.8,30
			C125.1,217.3,127.7,218.8,128.8,217.3z"/>
	</g>
</g>
<g>
	<polygon class="st0" points="163.5,135.5 199.5,121.5 139.5,103.5 111.5,156.5 163.5,135.8 	"/>
	<g>
		<path d="M163.9,136.9c12-4.7,24-9.3,36-14c1.3-0.5,1.5-2.4,0-2.9c-20-6-40-12-60-18c-0.6-0.2-1.4,0.1-1.7,0.7
			c-9.3,17.7-18.7,35.3-28,53c-0.5,1,0.4,2.7,1.7,2.2c17.3-6.9,34.7-13.8,52-20.7c0.6-0.2,1.1-0.7,1.1-1.4c0-0.1,0-0.2,0-0.3
			c0-1.9-3-1.9-3,0c0,0.1,0,0.2,0,0.3c0.4-0.5,0.7-1,1.1-1.4c-17.3,6.9-34.7,13.8-52,20.7c0.6,0.7,1.1,1.5,1.7,2.2
			c9.3-17.7,18.7-35.3,28-53c-0.6,0.2-1.1,0.5-1.7,0.7c20,6,40,12,60,18c0-1,0-1.9,0-2.9c-12,4.7-24,9.3-36,14
			C161.3,134.7,162.1,137.6,163.9,136.9z"/>
	</g>
</g>
<g>
	<g>
		<path d="M110.4,157.6c12.7,10,25.3,20,38,30c0.6,0.5,1.6,0.7,2.1,0c3.3-4,6.7-8.1,10-12.1c2.1-2.6,4.4-4.3,4.4-7.6
			c0-10.6-0.2-21.2-0.4-31.8c0-0.9-1-1.8-1.9-1.4c-17.2,6.8-34.4,13.7-51.6,20.5c-1.8,0.7-1,3.6,0.8,2.9
			c17.2-6.8,34.4-13.7,51.6-20.5c-0.6-0.5-1.3-1-1.9-1.4c0.1,10.3,0.2,20.5,0.4,30.8c0,0.7,0,1.5,0,2.2c0.1,1.2,0.4-0.4,0.3-0.3
			c-1.1,1.8-2.8,3.4-4.1,5c-3.2,3.9-6.5,7.9-9.7,11.8c0.7,0,1.4,0,2.1,0c-12.7-10-25.3-20-38-30
			C111.1,154.3,108.9,156.4,110.4,157.6z"/>
	</g>
</g>
<g>
	<g>
		<path d="M162,135.8c0,11.2,0,22.5,0,33.7c0,0.8,0.7,1.5,1.5,1.5c2.5,0,7-0.3,8.6,0c2.5,0.4,5.1,1.7,7.5,2.5
			c6.5,2.2,13,4.3,19.4,6.5c0.9,0.3,1.9-0.5,1.9-1.4c0-19,0-38,0-57c0-0.9-1-1.8-1.9-1.4c-12,4.8-24,9.5-36,14.3
			c-1.8,0.7-1,3.6,0.8,2.9c12-4.8,24-9.5,36-14.3c-0.6-0.5-1.3-1-1.9-1.4c0,19,0,38,0,57c0.6-0.5,1.3-1,1.9-1.4
			c-6.8-2.3-13.5-4.5-20.3-6.8c-2.2-0.7-4.5-1.8-6.7-2.2c-3-0.5-6.4-0.1-9.4-0.1c0.5,0.5,1,1,1.5,1.5c0-11.2,0-22.5,0-33.7
			C165,133.9,162,133.9,162,135.8z"/>
	</g>
</g>
<g>
	<g>
		<path d="M163.9,137.3c12-4.8,24-9.5,36-14.3c1.8-0.7,1-3.6-0.8-2.9c-12,4.7-24,9.3-36,14c-0.6,0.2-1.1,0.7-1.1,1.4
			c0,0.1,0,0.2,0,0.3c0,1.9,3,1.9,3,0c0-0.1,0-0.2,0-0.3c-0.4,0.5-0.7,1-1.1,1.4c12-4.7,24-9.3,36-14c-0.3-1-0.5-1.9-0.8-2.9
			c-12,4.8-24,9.5-36,14.3C161.3,135.1,162.1,138,163.9,137.3z"/>
	</g>
</g>
<g>
	<g>
		<path d="M332.8,172.9c-13.3-5.5-26.5-10.9-39.8-16.4c-1-0.4-1.8,0.6-1.9,1.4c-2.4,18.5-4.8,37-7.1,55.6c-0.2,1.4,1.7,1.8,2.6,1.1
			c15.6-13.1,31.3-26.1,46.9-39.2c1.5-1.2-0.6-3.4-2.1-2.1c-15.6,13.1-31.3,26.1-46.9,39.2c0.9,0.4,1.7,0.7,2.6,1.1
			c2.4-18.5,4.8-37,7.1-55.6c-0.6,0.5-1.3,1-1.9,1.4c13.3,5.5,26.5,10.9,39.8,16.4C333.8,176.5,334.6,173.6,332.8,172.9z"/>
	</g>
</g>
<g>
	<g>
		<path d="M331.4,173.4c-15.7,13-31.3,26-47,39c-0.7,0.6-0.5,2,0.3,2.4c20,8.7,40,17.3,60,26c1.2,0.5,2.5-0.3,2.2-1.7
			c-4.3-21.7-8.7-43.3-13-65c-0.4-1.9-3.3-1.1-2.9,0.8c4.3,21.7,8.7,43.3,13,65c0.7-0.6,1.5-1.1,2.2-1.7c-20-8.7-40-17.3-60-26
			c0.1,0.8,0.2,1.6,0.3,2.4c15.7-13,31.3-26,47-39C335,174.3,332.9,172.2,331.4,173.4z"/>
	</g>
</g>
<g>
	<polygon class="st0" points="391.5,200.5 332.5,174.5 345.5,239.5 	"/>
	<g>
		<path d="M392.3,199.2c-19.7-8.7-39.3-17.3-59-26c-1.2-0.5-2.5,0.3-2.2,1.7c4.3,21.7,8.7,43.3,13,65c0.2,1.2,1.7,1.3,2.5,0.7
			c15.3-13,30.7-26,46-39c1.5-1.3-0.7-3.4-2.1-2.1c-15.3,13-30.7,26-46,39c0.8,0.2,1.7,0.4,2.5,0.7c-4.3-21.7-8.7-43.3-13-65
			c-0.7,0.6-1.5,1.1-2.2,1.7c19.7,8.7,39.3,17.3,59,26C392.5,202.6,394,200,392.3,199.2z"/>
	</g>
</g>
<g>
	<g>
		<path d="M388.7,241c-0.1,0-0.1,0.1-0.2,0.1c-1.4,0.7-0.6,2.7,0.8,2.8c0.7,0,1.5,0.1,2.2,0.1c0.7,0,1.2-0.5,1.4-1.1
			c2.8-8.2,6.3-16.4,8.6-24.8c0.7-2.7-0.8-4.2-2.1-6.7c-2.2-3.9-4.4-7.8-6.6-11.7c-0.5-0.9-1.6-0.9-2.4-0.3c-15.3,13-30.7,26-46,39
			c-1.1,0.9-0.1,2.5,1.1,2.6c14.7,0.9,29.3,1.8,44,2.8c1.9,0.1,1.9-2.9,0-3c-14.7-0.9-29.3-1.8-44-2.8c0.4,0.9,0.7,1.7,1.1,2.6
			c15.3-13,30.7-26,46-39c-0.8-0.1-1.6-0.2-2.4-0.3c2,3.5,3.9,7,5.9,10.5c1,1.7,2,3.4,2.9,5.1c0.4,0.9,0.2-1.3-0.1-0.4
			c-0.2,0.6-0.4,1.2-0.6,1.8c-2.7,7.9-5.5,15.9-8.2,23.8c0.5-0.4,1-0.7,1.4-1.1c-0.7,0-1.5-0.1-2.2-0.1c0.3,0.9,0.5,1.9,0.8,2.8
			c0.1,0,0.1-0.1,0.2-0.1C392,242.7,390.4,240.1,388.7,241z"/>
	</g>
</g>
<g>
	<g>
		<path d="M352,250.5c-0.1,12.3-0.1,24.5-0.2,36.8c0,1.4,2.1,2.1,2.8,0.8c5.1-9.8,10.2-19.6,15.4-29.5c1-2,2.3-4,3.1-6
			c0.7-1.7-0.1-0.7,1.5-1.4c5.2-2.1,10.3-5,15.3-7.5c1.4-0.7,0.6-2.7-0.8-2.8c-14.6-1-29.2-1.9-43.8-2.9c-1.1-0.1-2,1.4-1.3,2.3
			c2.7,3.7,5.3,7.3,8,11c1.1,1.5,3.7,0.1,2.6-1.5c-2.7-3.7-5.3-7.3-8-11c-0.4,0.8-0.9,1.5-1.3,2.3c14.6,1,29.2,1.9,43.8,2.9
			c-0.3-0.9-0.5-1.9-0.8-2.8c-5.1,2.5-10.4,4.7-15.3,7.5c-2.9,1.6-3.7,4.6-5.2,7.5c-5.3,10.2-10.6,20.3-15.9,30.5
			c0.9,0.3,1.9,0.5,2.8,0.8c0.1-12.3,0.1-24.5,0.2-36.8C355,248.6,352,248.6,352,250.5z"/>
	</g>
</g>
<g>
	<g>
		<path d="M345.5,241c7.8,0.5,15.6,1,23.4,1.5c5,0.3,10,0.7,15,1c1.8,0.1,4.6,0.9,6.4,0c1.4-0.7,0.6-2.7-0.8-2.8
			c-14.7-0.9-29.3-1.8-44-2.8C343.6,237.9,343.6,240.9,345.5,241c14.7,0.9,29.3,1.8,44,2.8c-0.3-0.9-0.5-1.9-0.8-2.8
			c0.9-0.4-0.5-0.2-1.2-0.2c-1.7-0.1-3.4-0.2-5.1-0.3c-5-0.3-10-0.7-15-1c-7.3-0.5-14.6-1-21.9-1.4
			C343.6,237.9,343.6,240.9,345.5,241z"/>
	</g>
</g>
<g>
	<polygon class="st0" points="372.5,314.5 372.5,250.5 353.5,287.5 	"/>
	<g>
		<path d="M374,314.5c0-21.3,0-42.7,0-64c0-1.4-2.1-2.1-2.8-0.8c-6.3,12.3-12.7,24.7-19,37c-0.2,0.5-0.3,1.1,0,1.5
			c6.3,9,12.7,18,19,27c1.1,1.6,3.7,0.1,2.6-1.5c-3.7-5.3-7.5-10.6-11.2-15.9c-2.2-3.1-4.3-6.2-6.5-9.2c-0.4-0.6-0.8-1.3-1.3-1.8
			c1.1,1.1-0.7,1.9,0.6,0.2c1.8-2.3,2.9-5.7,4.3-8.3c2.1-4,4.1-8,6.2-12c2.6-5.1,5.3-10.3,7.9-15.4c-0.9-0.3-1.9-0.5-2.8-0.8
			c0,21.3,0,42.7,0,64C371,316.4,374,316.4,374,314.5z"/>
	</g>
</g>
<g>
	<g>
		<path d="M353.1,315.9c15.7,5,31.3,10,47,15c1.6,0.5,2.7-1.9,1.2-2.7c-4.7-2.5-9.3-5-14-7.5c-3.2-1.7-6.4-3.4-9.6-5.2
			c-1-0.6-2.1-1.2-3.2-1.7c-0.5-0.2-1.7-1.1-0.7-0.2c-3.8-3.7-6.7-9.5-9.7-13.8c-3.1-4.4-6.1-8.7-9.2-13.1c-0.8-1.2-2.8-0.8-2.8,0.8
			c0,9,0,18,0,27c0,1.9,3,1.9,3,0c0-9,0-18,0-27c-0.9,0.3-1.9,0.5-2.8,0.8c3.2,4.5,6.3,9,9.5,13.5c3,4.3,5.8,9.9,9.5,13.5
			c3.4,3.3,9.5,5.3,13.7,7.6c5,2.7,9.9,5.3,14.9,8c0.4-0.9,0.8-1.8,1.2-2.7c-15.7-5-31.3-10-47-15
			C352.1,312.5,351.3,315.4,353.1,315.9z"/>
	</g>
</g>
<g>
	<g>
		<path d="M331.2,324.7c-2.3,5.1-5.2,9.6-5.2,15.2c0,7.4,0,14.8,0,22.3c0,1.2,1.3,1.7,2.3,1.3c24.3-10.9,48.7-21.8,73-32.8
			c1.3-0.6,0.8-2.4-0.4-2.7c-13.4-4.3-26.8-8.5-40.2-12.8c-3.9-1.3-6.3-2.9-10.1-0.9c-6.3,3.3-12.6,6.6-18.9,9.9
			c-1.7,0.9-0.2,3.5,1.5,2.6c6.1-3.2,12.2-6.4,18.3-9.6c0.8-0.4,1.7-1,2.5-1.3c-1.5,0.5-1-0.2-0.2,0.4c2,1.2,5.2,1.6,7.4,2.4
			c12.9,4.1,25.8,8.2,38.8,12.4c-0.1-0.9-0.2-1.8-0.4-2.7c-24.3,10.9-48.7,21.8-73,32.8c0.8,0.4,1.5,0.9,2.3,1.3c0-7,0-14.1,0-21.1
			c0-1.3-0.1-2.7,0-4c0-0.4,0.1-1.1-0.2,0.1c0.1-0.5,0.4-1,0.7-1.5c1.6-3.1,2.9-6.3,4.3-9.4C334.6,324.5,332,323,331.2,324.7z"/>
	</g>
</g>
<g>
	<g>
		<path d="M402,395.4c0-22,0-43.9,0-65.9c0-1.2-1.3-1.7-2.3-1.3c-24.3,11-48.7,22-73,33c-1,0.4-1,2.1,0,2.6
			c24.3,11,48.7,21.9,73,32.9c1.7,0.8,3.3-1.8,1.5-2.6c-24.3-11-48.7-21.9-73-32.9c0,0.9,0,1.7,0,2.6c24.3-11,48.7-22,73-33
			c-0.8-0.4-1.5-0.9-2.3-1.3c0,22,0,43.9,0,65.9C399,397.3,402,397.3,402,395.4z"/>
	</g>
</g>
<g>
	<polygon class="st1" points="400.5,395.5 327.5,362.5 327.5,417.5 	"/>
	<g>
		<path d="M401.3,394.2c-24.3-11-48.7-22-73-33c-1-0.5-2.3,0.1-2.3,1.3c0,18.3,0,36.7,0,55c0,1,1,1.7,1.9,1.4
			c24.3-7.3,48.7-14.7,73-22c1.8-0.6,1.1-3.5-0.8-2.9c-24.3,7.3-48.7,14.7-73,22c0.6,0.5,1.3,1,1.9,1.4c0-18.3,0-36.7,0-55
			c-0.8,0.4-1.5,0.9-2.3,1.3c24.3,11,48.7,22,73,33C401.5,397.6,403,395,401.3,394.2z"/>
	</g>
</g>
<g>
	<g>
		<path d="M319.5,429c23.5,0,47,0,70.5,0c6.5,0,13,0,19.5,0c1.4,0,1.9-1.6,1.1-2.6c-2-2.3-4.1-4.5-6.1-6.8c-0.9-0.9-2.3-2-2.9-3.2
			c0.9,1.7,0.4-0.2,0.4-1.2c0-6.6,0-13.2,0-19.8c0-1-1-1.7-1.9-1.4c-10.9,3.3-21.8,6.6-32.7,9.9c-13,3.9-26.4,7.1-39.2,11.8
			c-4.2,1.5-7,7.3-9.8,10.7c-1.2,1.5,0.9,3.6,2.1,2.1c1.9-2.4,3.8-4.8,5.7-7.2c0.4-0.5,2.2-2.8,1.9-2.6c-0.6,0.4,0.2,0,0.5-0.1
			c4.4-1.8,9.3-2.8,13.8-4.2c15.5-4.7,31-9.3,46.5-14c4-1.2,8-2.4,11.9-3.6c-0.6-0.5-1.3-1-1.9-1.4c0,6.9-0.5,14,0,20.9
			c0.2,2.2,1,2.8,2.5,4.5c2.3,2.6,4.6,5.1,6.9,7.7c0.4-0.9,0.7-1.7,1.1-2.6c-24,0-48,0-71.9,0c-6,0-12,0-18.1,0
			C317.6,426,317.6,429,319.5,429z"/>
	</g>
</g>
<g>
	<g>
		<path d="M253.7,202.8C253.7,202.8,253.7,202.8,253.7,202.8c-0.9,0.3-1.9,0.5-2.8,0.8c9.1,12.3,18.4,24.5,27.7,36.7
			c1,1.4,3,0.6,2.7-1.2c-1.1-7.7-2.3-15.3-3.4-23c-0.3,0.6-0.7,1.2-1,1.8c3-1,6-2,9-3c1.5-0.5,1.4-2.4,0-2.9
			c-11.7-4.3-23.3-8.7-35-13c-1.2-0.4-2.5,1.2-1.7,2.2c0.6,0.8,1.2,1.5,1.7,2.3c1.1,1.5,3.8,0,2.6-1.5c-0.6-0.8-1.2-1.5-1.7-2.3
			c-0.6,0.7-1.1,1.5-1.7,2.2c11.7,4.3,23.3,8.7,35,13c0-1,0-1.9,0-2.9c-3,1-6,2-9,3c-0.8,0.3-1.2,1-1,1.8c1.1,7.7,2.3,15.3,3.4,23
			c0.9-0.4,1.8-0.8,2.7-1.2c-9.2-12.2-18.5-24.4-27.7-36.7c-0.8-1.1-2.8-0.9-2.8,0.8c0,0,0,0,0,0
			C250.7,204.7,253.7,204.7,253.7,202.8z"/>
	</g>
</g>
<g>
	<g>
		<path d="M198.1,178.9c1.2,3.7,3,7.4,3.7,11.2c0.3,1.5-0.4,5.1-0.7,7.4c-1,8-2.1,16-3.1,24c-0.2,1.3,1.8,2,2.6,1.1
			c9-10.3,18-20.7,27-31c0.6-0.7,0.6-1.9-0.3-2.4c-9-4-18-8-27-12c-1.7-0.8-3.3,1.8-1.5,2.6c9,4,18,8,27,12
			c-0.1-0.8-0.2-1.6-0.3-2.4c-9,10.3-18,20.7-27,31c0.9,0.4,1.7,0.7,2.6,1.1c1.1-8.3,2.1-16.5,3.2-24.8c0.3-2.2,1-4.8,0.6-7
			c-0.6-3.9-2.6-7.9-3.9-11.6C200.3,176.3,197.4,177.1,198.1,178.9z"/>
	</g>
</g>
<g>
	<polygon class="st0" points="226.5,190.5 199.5,221.5 216.8,250.5 	"/>
	<g>
		<path d="M225.4,189.4c-9,10.3-18,20.7-27,31c-0.4,0.5-0.6,1.2-0.2,1.8c5.8,9.7,11.5,19.3,17.3,29c0.6,1,2.5,1,2.7-0.4
			c3.3-20,6.5-40,9.8-60c0.3-1.9-2.6-2.7-2.9-0.8c-3.3,20-6.5,40-9.8,60c0.9-0.1,1.8-0.2,2.7-0.4c-5.8-9.7-11.5-19.3-17.3-29
			c-0.1,0.6-0.2,1.2-0.2,1.8c9-10.3,18-20.7,27-31C228.8,190.1,226.7,188,225.4,189.4z"/>
	</g>
</g>
<g>
	<g>
		<path d="M217.8,249.7c-5.7-9.7-11.3-19.3-17-29c-0.8-1.4-2.6-0.6-2.8,0.8c-2.4,18.5-4.9,37-7.3,55.5c-0.2,1.3,1.7,2,2.6,1.1
			c1-1,0.2-0.3,0.6-0.8c0.7-0.8,1.5-1.7,2.3-2.5c2.7-2.9,5.4-5.8,8.1-8.8c4.4-4.8,8.9-9.6,13.3-14.4c1.3-1.4-0.8-3.5-2.1-2.1
			c-4.4,4.8-8.9,9.6-13.3,14.4c-2.7,2.9-5.4,5.8-8.1,8.8c-0.7,0.7-1.7,1.5-2.2,2.4c-0.3,0.5-1,1.2-0.7,0.9c0.9,0.4,1.7,0.7,2.6,1.1
			c2.4-18.5,4.9-37,7.3-55.5c-0.9,0.3-1.9,0.5-2.8,0.8c5.7,9.7,11.3,19.3,17,29C216.2,252.9,218.8,251.4,217.8,249.7z"/>
	</g>
</g>
<g>
	<g>
		<path d="M193.6,277.7C193.6,277.7,193.6,277.7,193.6,277.7c0.5-0.5,0.5-1.2,0.2-1.8c0,0,0-0.1,0-0.1c-0.3-0.7-1.4-0.9-2.1-0.5
			c-0.8,0.4-0.9,1.3-0.5,2.1c0,0,0,0.1,0,0.1c0.3,0.7,1.4,0.9,2.1,0.5c0.8-0.4,0.9-1.3,0.5-2.1c0,0,0-0.1,0-0.1
			c-0.9,0.5-1.7,1-2.6,1.5c0,0,0,0.1,0,0.1c0.1-0.6,0.2-1.2,0.2-1.8c0,0,0,0,0,0c-0.6,0.6-0.6,1.5,0,2.1
			C192,278.2,193,278.3,193.6,277.7z"/>
	</g>
</g>
<g>
	<g>
		<path d="M209.4,309.9c2.8-19.7,5.7-39.3,8.5-59c0.2-1.3-1.4-2.7-2.5-1.5c-8,8.7-16,17.4-24,26.1c-0.5,0.5-0.5,1.2-0.2,1.8
			c5.2,11,10.3,21.9,15.5,32.9c0.8,1.7,3.4,0.2,2.6-1.5c-5.2-11-10.3-21.9-15.5-32.9c-0.1,0.6-0.2,1.2-0.2,1.8
			c8-8.7,16-17.4,24-26.1c-0.8-0.5-1.7-1-2.5-1.5c-2.8,19.7-5.7,39.3-8.5,59C206.3,311,209.2,311.8,209.4,309.9z"/>
	</g>
</g>
<g>
	<polygon class="st1" points="192.5,276.6 192.5,276.7 184.8,329.3 207.5,309.5 	"/>
	<g>
		<path d="M191.5,275.5c-1.4,1.5-1.2,5.6-1.5,7.5c-0.9,6-1.8,12-2.6,18c-1.4,9.3-2.7,18.5-4.1,27.8c-0.2,1.5,1.3,2.5,2.5,1.5
			c7.6-6.6,15.1-13.2,22.7-19.8c0.5-0.5,0.5-1.2,0.2-1.8c-5-11-10-21.9-15-32.9c-0.8-1.8-3.4-0.2-2.6,1.5c5,11,10,21.9,15,32.9
			c0.1-0.6,0.2-1.2,0.2-1.8c-7.6,6.6-15.1,13.2-22.7,19.8c0.8,0.5,1.7,1,2.5,1.5c1.3-8.8,2.6-17.5,3.8-26.3
			c0.9-5.9,1.7-11.8,2.6-17.7c0.3-2,0.6-4.1,0.9-6.1c0.1-0.9,0.9-2.8,0-1.9C194.9,276.2,192.8,274.1,191.5,275.5z"/>
	</g>
</g>
<g>
	<g>
		<path d="M191.1,276.1c0,0.1,0,0.1,0,0.2c-0.1,0.7,0.1,1.3,0.7,1.7c0.6,0.3,1.4,0.3,1.8-0.2c0,0,0-0.1,0.1-0.1
			c0.5-0.5,0.5-1.2,0.2-1.8c0,0,0-0.1,0-0.1c-0.3-0.7-1.4-0.9-2.1-0.5c-0.8,0.4-0.9,1.3-0.5,2.1c0,0,0,0.1,0,0.1
			c0.1-0.6,0.2-1.2,0.2-1.8c0,0,0,0.1-0.1,0.1c0.8,0.5,1.7,1,2.5,1.5c0-0.1,0-0.1,0-0.2c0.1-0.8-0.2-1.7-1-1.8
			C192.2,274.9,191.2,275.3,191.1,276.1z"/>
	</g>
</g>
<g>
	<g>
		<path d="M206.4,308.4c-7.6,6.7-15.2,13.3-22.8,20c0.8,0.5,1.7,1,2.5,1.5c0-0.1,0-0.2,0-0.2c0.2-1.5-1.3-2.5-2.5-1.5
			c-0.1,0.1-0.2,0.2-0.3,0.2c-0.5,0.5-0.5,1.2-0.2,1.8c5.1,11.7,10.2,23.3,15.3,35c0.5,1.1,2.6,0.9,2.7-0.4
			c2.6-18.3,5.1-36.7,7.7-55c0.3-1.9-2.6-2.7-2.9-0.8c-2.6,18.3-5.1,36.7-7.7,55c0.9-0.1,1.8-0.2,2.7-0.4
			c-5.1-11.7-10.2-23.3-15.3-35c-0.1,0.6-0.2,1.2-0.2,1.8c0.1-0.1,0.2-0.2,0.3-0.2c-0.8-0.5-1.7-1-2.5-1.5c0,0.1,0,0.2,0,0.2
			c-0.2,1.5,1.3,2.5,2.5,1.5c7.6-6.7,15.2-13.3,22.8-20C210,309.3,207.9,307.2,206.4,308.4z"/>
	</g>
</g>
<g>
	<g>
		<path d="M206.4,308.4c-4.1,3.6-8.3,7.2-12.4,10.8c-2.6,2.2-5.2,4.5-7.7,6.7c-0.9,0.8-2.8,1.9-3,3.2c-0.2,1.5,1.3,2.5,2.5,1.5
			c7.6-6.7,15.2-13.3,22.8-20C210,309.3,207.9,307.2,206.4,308.4c-7.6,6.7-15.2,13.3-22.8,20c0.8,0.5,1.7,1,2.5,1.5
			c-0.1,0.6-0.1,0.1,0.7-0.5c0.9-0.7,1.7-1.4,2.5-2.2c2.6-2.3,5.2-4.5,7.8-6.8c3.8-3.3,7.6-6.6,11.4-9.9
			C210,309.3,207.9,307.2,206.4,308.4z"/>
	</g>
</g>
<g>
	<g>
		<path d="M183.1,329.1c-2.8,19.8-5.6,39.5-8.3,59.3c-0.2,1.4,1.4,2.7,2.5,1.5c7.8-8.1,15.6-16.2,23.3-24.3c0.5-0.5,0.5-1.2,0.2-1.8
			c-5-11.7-10-23.3-15-35c-0.8-1.8-3.3-0.2-2.6,1.5c5,11.7,10,23.3,15,35c0.1-0.6,0.2-1.2,0.2-1.8c-7.8,8.1-15.6,16.2-23.3,24.3
			c0.8,0.5,1.7,1,2.5,1.5c2.8-19.8,5.6-39.5,8.3-59.3C186.2,328,183.3,327.2,183.1,329.1z"/>
	</g>
</g>
<g>
	<g>
		<path d="M198.4,363.4c-7.8,8.5-15.7,17-23.5,25.5c0.8,0.5,1.7,1,2.5,1.5c0.1-0.4,0.1-0.8,0.2-1.2c0.2-1.4-1.4-2.7-2.5-1.5
			c-0.2,0.2-0.4,0.5-0.7,0.7c-0.3,0.4-0.6,1-0.4,1.5c5,12.7,10,25.3,15,38c0.5,1.2,2.7,1.6,2.9,0c3-21,6-42,9-63
			c0.3-1.9-2.6-2.7-2.9-0.8c-3,21-6,42-9,63c1,0,1.9,0,2.9,0c-2.6-6.5-5.1-13-7.7-19.5c-1.7-4.3-3.4-8.6-5.1-12.9
			c-0.5-1.4-0.9-3-1.7-4.3c-0.2-0.3-0.2-0.8-0.4-1.1c-0.4-0.6-0.7,1.4,0.2,0.5c-0.8-0.5-1.7-1-2.5-1.5c-0.1,0.4-0.1,0.8-0.2,1.2
			c-0.2,1.3,1.4,2.7,2.5,1.5c7.8-8.5,15.7-17,23.5-25.5C201.9,364.1,199.8,362,198.4,363.4z"/>
	</g>
</g>
<g>
	<g>
		<path d="M198.4,363.4c-4.3,4.5-8.7,9.1-13,13.6c-2.7,2.8-5.3,5.5-8,8.3c-1.4,1.4-2.6,2.3-2.9,4.3c-0.2,1.3,1.4,2.7,2.5,1.5
			c7.8-8.5,15.7-17,23.5-25.5C201.9,364.1,199.8,362,198.4,363.4c-7.8,8.5-15.7,17-23.5,25.5c0.8,0.5,1.7,1,2.5,1.5
			c0.2-1.2,1.7-2.6,3-3.9c2.7-2.8,5.4-5.6,8.1-8.4c4-4.2,8-8.3,12-12.5C201.9,364.2,199.8,362,198.4,363.4z"/>
	</g>
</g>
<g>
	<polygon class="st0" points="175.5,389.5 171.5,420.5 163.5,427.5 190.5,427.5 	"/>
	<g>
		<path d="M174,389.5c-1,7.6-1.9,15.1-2.9,22.7c-0.3,2.4-0.1,6-1.1,8.3c0.9-2-2.8,1.8-3.6,2.5c-1.3,1.2-2.7,2.3-4,3.5
			c-1,0.9-0.2,2.6,1.1,2.6c9,0,18,0,27,0c0.9,0,1.8-1,1.4-1.9c-5-12.7-10-25.3-15-38c-0.7-1.8-3.6-1-2.9,0.8c5,12.7,10,25.3,15,38
			c0.5-0.6,1-1.3,1.4-1.9c-9,0-18,0-27,0c0.4,0.9,0.7,1.7,1.1,2.6c2.4-2.1,6.5-4.5,8.1-7.2c1.1-1.9,0.9-5.4,1.2-7.5
			c1-8.1,2.1-16.3,3.1-24.4C177.2,387.6,174.2,387.6,174,389.5z"/>
	</g>
</g>
<g>
	<g>
		<path d="M250.7,202.8c3,22.5,6,45.1,9,67.6c0.2,1.4,2,2.2,2.8,0.8c6.1-10.3,12.1-20.6,18.2-31c0.2-0.4,0.3-1.1,0-1.5
			c-9.1-12.2-18-24.6-27.3-36.7c-1.2-1.5-3.8,0-2.6,1.5c3.7,4.9,7.3,9.9,11,14.8c4.9,6.6,9.4,14.4,15.1,20.4c0.4,0.5,0.7,1,1.1,1.5
			c-1.8-2,0.7-1.7-0.3-1c-0.3,0.2-0.6,1-0.8,1.4c-2,3.4-4,6.8-6,10.2c-3.7,6.3-7.4,12.6-11.1,18.9c0.9,0.3,1.9,0.5,2.8,0.8
			c-3-22.5-6-45.1-9-67.6C253.5,200.9,250.5,200.9,250.7,202.8z"/>
	</g>
</g>
<g>
	<g>
		<path d="M250.7,202.8c0,0.2,0.1,0.6,0.2,0.8c0.5,0.6,1.3,1,2.1,0.5c0.6-0.4,1-1.4,0.5-2.1c0,0,0,0,0,0c-0.5-0.6-1.3-1-2.1-0.5
			c-0.6,0.4-1,1.4-0.5,2.1c0,0,0,0,0,0c0.9-0.5,1.7-1,2.6-1.5c0,0,0,0,0,0c0.1,0.3,0.1,0.5,0.2,0.8c0,0,0,0,0,0
			c0-0.8-0.7-1.5-1.5-1.5C251.4,201.4,250.7,202,250.7,202.8z"/>
	</g>
</g>
<g>
	<polygon class="st0" points="279.5,239.5 261.5,270.5 287.6,293.5 	"/>
	<g>
		<path d="M278.2,238.7c-6,10.3-12,20.7-18,31c-0.3,0.5-0.3,1.4,0.2,1.8c8.7,7.7,17.4,15.3,26.1,23c1.2,1,2.7,0,2.5-1.5
			c-2.7-18-5.4-36-8.1-54c-0.3-1.9-3.2-1.1-2.9,0.8c2.7,18,5.4,36,8.1,54c0.8-0.5,1.7-1,2.5-1.5c-8.7-7.7-17.4-15.3-26.1-23
			c0.1,0.6,0.2,1.2,0.2,1.8c6-10.3,12-20.7,18-31C281.8,238.6,279.2,237.1,278.2,238.7z"/>
	</g>
</g>
<g>
	<polygon class="st1" points="270.1,327.6 287.5,293.5 261.5,270.5 	"/>
	<g>
		<path d="M271.4,328.3c5.8-11.4,11.6-22.7,17.4-34.1c0.3-0.6,0.3-1.4-0.2-1.8c-8.7-7.7-17.3-15.3-26-23c-1.2-1.1-2.7,0-2.5,1.5
			c2.9,19,5.7,38,8.6,57.1c0.3,1.9,3.2,1.1,2.9-0.8c-2.9-19-5.7-38-8.6-57.1c-0.8,0.5-1.7,1-2.5,1.5c8.7,7.7,17.3,15.3,26,23
			c-0.1-0.6-0.2-1.2-0.2-1.8c-5.8,11.4-11.6,22.7-17.4,34.1C267.9,328.5,270.5,330,271.4,328.3z"/>
	</g>
</g>
<g>
	<g>
		<path d="M286.2,292.7c-5.3,11.3-10.7,22.7-16,34c-0.3,0.6-0.3,1.3,0.2,1.8c8.2,8.6,16.5,17.1,24.7,25.7c1.1,1.2,2.7-0.1,2.5-1.5
			c-2.9-19.9-5.8-39.8-8.7-59.7c-0.3-1.9-3.2-1.1-2.9,0.8c2.9,19.9,5.8,39.8,8.7,59.7c0.8-0.5,1.7-1,2.5-1.5
			c-8.2-8.6-16.5-17.1-24.7-25.7c0.1,0.6,0.2,1.2,0.2,1.8c5.3-11.3,10.7-22.7,16-34C289.6,292.5,287,291,286.2,292.7z"/>
	</g>
</g>
<g>
	<polygon class="st0" points="296.2,353.5 271.5,327.5 278.3,381 296.5,353.5 296.2,353.2 	"/>
	<g>
		<path d="M297.3,352.5c-8.2-8.7-16.5-17.4-24.7-26c-0.8-0.9-2.7-0.3-2.6,1.1c2.3,17.8,4.5,35.6,6.8,53.5c0.2,1.4,1.9,2.1,2.8,0.8
			c6.1-9.2,12.1-18.3,18.2-27.5c0.4-0.6,0.2-1.4-0.2-1.8c-0.1-0.1-0.2-0.2-0.3-0.3c-1.1-1.2-2.7,0.1-2.5,1.5c0,0.1,0,0.3,0.1,0.4
			c0.3,1.9,3.2,1.1,2.9-0.8c0-0.1,0-0.3-0.1-0.4c-0.8,0.5-1.7,1-2.5,1.5c0.1,0.1,0.2,0.2,0.3,0.3c-0.1-0.6-0.2-1.2-0.2-1.8
			c-6.1,9.2-12.1,18.3-18.2,27.5c0.9,0.3,1.9,0.5,2.8,0.8c-2.3-17.8-4.5-35.6-6.8-53.5c-0.9,0.4-1.7,0.7-2.6,1.1
			c8.2,8.7,16.5,17.4,24.7,26C296.5,356,298.6,353.9,297.3,352.5z"/>
	</g>
</g>
<g>
	<g>
		<path d="M286.9,427.9c3.7-24.7,7.3-49.3,11-74c0.2-1.6-1.8-2.7-2.7-1.2c-4,6.4-8.1,12.8-12.1,19.2c-1.4,2.3-4,5-4.8,7.6
			c-0.4,1.3-0.1,2.5,0.1,3.8c1.9,14.7,3.7,29.4,5.6,44c0.2,1.9,3.2,1.9,3,0c-1.8-14.4-3.7-28.8-5.5-43.2c-0.1-1-0.4-2.1-0.4-3.1
			c0-1.4-0.4,0.5-0.1-0.2c1.2-2.8,3.6-5.7,5.2-8.2c3.9-6.2,7.7-12.3,11.6-18.5c-0.9-0.4-1.8-0.8-2.7-1.2c-3.7,24.7-7.3,49.3-11,74
			C283.8,429,286.7,429.8,286.9,427.9z"/>
	</g>
</g>
<g>
	<polygon class="st1" points="296.5,353.5 285.5,429.5 319.5,427.5 305.5,417.5 	"/>
	<g>
		<path d="M295.1,353.1c-3.7,25.3-7.3,50.7-11,76c-0.1,0.9,0.4,2,1.4,1.9c11.3-0.7,22.7-1.3,34-2c1.5-0.1,2-1.9,0.8-2.8
			c-3.1-2.2-6.3-4.5-9.4-6.7c-1.4-1-2.8-1.9-4.1-2.9c-0.9-0.7,0.2,1.3,0.1-0.2c-0.7-6.4-1.8-12.8-2.7-19.2
			c-2.1-14.7-4.1-29.4-6.2-44.1c-0.3-1.9-3.2-1.1-2.9,0.8c2.2,15.3,4.3,30.6,6.5,45.9c0.6,4.1,1.2,8.2,1.7,12.3
			c0.2,1.6,0.1,4.1,0.8,5.6c0.9,1.9,3.7,3.2,5.3,4.4c3.1,2.2,6.3,4.5,9.4,6.7c0.3-0.9,0.5-1.9,0.8-2.8c-11.3,0.7-22.7,1.3-34,2
			c0.5,0.6,1,1.3,1.4,1.9c3.7-25.3,7.3-50.7,11-76C298.2,352,295.3,351.2,295.1,353.1z"/>
	</g>
</g>
<g>
	<g>
		<path d="M47,437.5c0,8.2,0,16.3,0,24.5c0,4.9,0,9.8,0,14.7c0,2.2-0.2,3.7,0.9,5.6c1.4,2.4,3.9,7.8,6.6,8.7c1.6,0.6,4.4,0,6.1,0
			c10.5,0,20.9,0,31.4,0c8.2,0,16.4,0,24.5,0c1.3,0,1.9-1.6,1.1-2.6c-17.2-18.1-34.4-36.2-51.6-54.3c-2.5-2.6-4.9-5.2-7.4-7.7
			c-0.5-0.6-1.6-0.6-2.1,0c-3,3.3-6,6.7-9,10c-1.3,1.4,0.8,3.6,2.1,2.1c3-3.3,6-6.7,9-10c-0.7,0-1.4,0-2.1,0
			c17.2,18.1,34.4,36.2,51.6,54.3c2.5,2.6,4.9,5.2,7.4,7.7c0.4-0.9,0.7-1.7,1.1-2.6c-16.9,0-33.7,0-50.6,0c-3.2,0-6.6-0.3-9.8,0
			c-0.7,0.1-2.2-0.4-1,0.3c1.3,0.7-0.1-0.6-0.4-1.2c-0.7-1.1-1.5-2.2-2.2-3.3c-0.6-0.9-1.2-2-1.9-2.8c-0.3-0.4-1-1.8-0.6-0.5
			c-0.2-0.8,0-1.9,0-2.7c0-4.5,0-8.9,0-13.4c0-9,0-17.9,0-26.9C50,435.6,47,435.6,47,437.5z"/>
	</g>
</g>
<g>
	<g>
		<path d="M422.4,428.4c-18.7,20-37.3,40-56,60c-0.9,0.9-0.3,2.6,1.1,2.6c7.7,0,15.3,0,23,0c5.7,0,11.4,0,17,0c3.3,0,7.1,0.6,10.3,0
			c2.6-0.5,4.3-3.1,6.2-4.9c1.9-1.9,4.5-3.5,4.9-6.2c0.6-3.5,0-7.7,0-11.3c0-5.8,0-11.6,0-17.4c0-4.2,0.6-8.9,0-13.1
			c-0.4-3.3-2.7-6.4-4.2-9.4c-0.9-1.7-3.5-0.2-2.6,1.5c0.8,1.6,1.6,3.2,2.4,4.9c0.4,0.9,1,1.8,1.4,2.7c0.3,1-0.1-0.9,0,0.2
			c0.4,3.3,0,6.8,0,10.1c0,9.8,0,19.6,0,29.4c0,0.9,0.1,1.9,0,2.8c-0.1,0.3,0.9-1.3,0-0.5c-0.7,0.7-1.4,1.4-2.1,2.1
			c-1.7,1.7-3.7,3.4-5.3,5.3c-0.3,0.3-1.7,1.4-0.6,0.9c0.8-0.4,0.3-0.2-0.1-0.2c-8.5-0.2-16.9,0-25.4,0c-8.3,0-16.7,0-25,0
			c0.4,0.9,0.7,1.7,1.1,2.6c18.7-20,37.3-40,56-60C425.9,429.2,423.8,427,422.4,428.4z"/>
	</g>
</g>
<g>
	<polygon class="st1" points="116.5,427.5 57.5,427.5 116.5,489 	"/>
	<g>
		<path d="M116.5,426c-19.7,0-39.3,0-59,0c-1.3,0-2,1.6-1.1,2.6c19.7,20.5,39.3,41,59,61.5c0.9,0.9,2.6,0.2,2.6-1.1
			c0-20.5,0-41,0-61.5c0-1.9-3-1.9-3,0c0,20.5,0,41,0,61.5c0.9-0.4,1.7-0.7,2.6-1.1c-19.7-20.5-39.3-41-59-61.5
			c-0.4,0.9-0.7,1.7-1.1,2.6c19.7,0,39.3,0,59,0C118.4,429,118.4,426,116.5,426z"/>
	</g>
</g>
<g>
	<g>
		<path d="M56.4,428.6c17.2,18.1,34.4,36.2,51.6,54.3c2.5,2.6,4.9,5.2,7.4,7.7c0.9,1,2.6,0.2,2.6-1.1c0-2.3-3.3-4.5-4.7-6
			c-4.6-4.8-9.2-9.6-13.8-14.4c-11-11.5-22-22.9-33-34.4c-2.7-2.8-5.3-5.5-8-8.3C57.2,425,55.1,427.2,56.4,428.6
			c17.3,18.1,34.7,36.1,52,54.2c1.7,1.8,3.4,3.6,5.2,5.4c0.4,0.4,0.9,1.1,1.4,1.4c0.9,0.6,0,0,0-0.1c0.9-0.4,1.7-0.7,2.6-1.1
			c-17.2-18.1-34.4-36.2-51.6-54.3c-2.5-2.6-4.9-5.2-7.4-7.7C57.2,425,55.1,427.2,56.4,428.6z"/>
	</g>
</g>
<g>
	<polygon class="st0" points="423.5,429.5 367.5,427.5 367.5,489.5 	"/>
	<g>
		<path d="M423.5,428c-18.7-0.7-37.3-1.3-56-2c-0.8,0-1.5,0.7-1.5,1.5c0,20.7,0,41.3,0,62c0,1.3,1.7,2,2.6,1.1
			c18.7-20,37.3-40,56-60c1.3-1.4-0.8-3.5-2.1-2.1c-18.7,20-37.3,40-56,60c0.9,0.4,1.7,0.7,2.6,1.1c0-20.7,0-41.3,0-62
			c-0.5,0.5-1,1-1.5,1.5c18.7,0.7,37.3,1.3,56,2C425.4,431.1,425.4,428.1,423.5,428z"/>
	</g>
</g>
<g>
	<polygon class="st1" points="367.5,489.5 367.5,489.5 423.5,429.5 	"/>
	<g>
		<path d="M366,489.5C366,489.5,366,489.5,366,489.5c0,1.3,1.7,2,2.6,1.1c18.7-20,37.3-40,56-60c1.3-1.4-0.8-3.5-2.1-2.1
			c-18.7,20-37.3,40-56,60c-1.3,1.4,0.8,3.5,2.1,2.1c18.7-20,37.3-40,56-60c-0.7-0.7-1.4-1.4-2.1-2.1c-18.7,20-37.3,40-56,60
			c0.9,0.4,1.7,0.7,2.6,1.1c0,0,0,0,0,0C369,487.6,366,487.6,366,489.5z"/>
	</g>
</g>
<g>
	<g>
		<path d="M115.4,490c1.5,1.6,4.1,1,6.1,1c5.4,0,10.8,0,16.2,0c8.6,0,17.2,0,25.7,0c1,0,2-1.3,1.3-2.3c-15.7-20.7-31.3-41.3-47-62
			c-0.8-1.1-2.8-0.9-2.8,0.8c0,20.5,0,41,0,61.5c0,1.9,3,1.9,3,0c0-20.5,0-41,0-61.5c-0.9,0.3-1.9,0.5-2.8,0.8
			c15.7,20.7,31.3,41.3,47,62c0.4-0.8,0.9-1.5,1.3-2.3c-7.9,0-15.8,0-23.7,0c-5.3,0-10.6,0-15.9,0c-1.7,0-3.3,0-5,0
			c-0.5,0-1,0.1-1.5,0c-1.1-0.2,0.8,0.6,0.1-0.1C116.2,486.5,114.1,488.6,115.4,490z"/>
	</g>
</g>
<g>
	<g>
		<path d="M116.5,491c0.2,0,0.3,0,0.5,0c1.3,0,2-1.6,1.1-2.6c-0.2-0.2-0.3-0.3-0.5-0.5c-0.9-0.9-2.6-0.2-2.6,1.1c0,0.2,0,0.3,0,0.5
			C115,490.3,115.7,491,116.5,491c0.8,0,1.5-0.7,1.5-1.5c0-0.2,0-0.3,0-0.5c-0.9,0.4-1.7,0.7-2.6,1.1c0.2,0.2,0.3,0.3,0.5,0.5
			c0.4-0.9,0.7-1.7,1.1-2.6c-0.2,0-0.3,0-0.5,0c-0.8,0-1.5,0.7-1.5,1.5C115,490.3,115.7,491,116.5,491z"/>
	</g>
</g>
<g>
	<g>
		<path d="M366.2,426.8c-14,20.7-28,41.3-42,62c-0.7,1,0.2,2.3,1.3,2.3c7.2,0,14.3,0,21.5,0c4.8,0,9.7,0,14.5,0c1.6,0,4.7,0.6,6.2,0
			c2.9-1.2,1.3-10.1,1.3-12.5c0-10.1,0-20.2,0-30.3c0-6.9,0-13.8,0-20.7c0-1.9-3-1.9-3,0c0,14.8,0,29.7,0,44.5c0,3.9,0,7.8,0,11.7
			c0,0.5-0.4,5.4,0,5.6c0.1,0,1.4-1.2,1.4-1.3c0-0.1-0.9,0-0.9,0c-1.1-0.3-2.8,0-3.9,0c-4.5,0-9,0-13.5,0c-7.8,0-15.7,0-23.5,0
			c0.4,0.8,0.9,1.5,1.3,2.3c14-20.7,28-41.3,42-62C369.9,426.7,367.3,425.2,366.2,426.8z"/>
	</g>
</g>
<g>
	<g>
		<path d="M369,427.5C369,427.5,369,427.5,369,427.5c0-0.6-0.5-1.3-1.1-1.4c-0.7-0.2-1.3,0.1-1.7,0.7c0,0,0,0,0,0
			c-0.5,0.7,0,2.1,0.9,2.2c0,0,0,0,0,0c0.8,0.1,1.7-0.2,1.8-1c0.2-0.7-0.2-1.7-1-1.8c0,0,0,0,0,0c0.3,0.7,0.6,1.5,0.9,2.2
			c0,0,0,0,0,0c-0.9-0.3-1.9-0.5-2.8-0.8c0,0,0,0,0,0c0,0.8,0.7,1.5,1.5,1.5C368.3,429,369,428.3,369,427.5z"/>
	</g>
</g>
<g>
	<g>
		<path d="M367.5,491C367.5,491,367.5,491,367.5,491c0.8,0,1.5-0.7,1.5-1.5c0,0,0,0,0,0c0-1.3-1.7-2-2.6-1.1c0,0,0,0,0,0
			c-0.6,0.6-0.6,1.5,0,2.1c0.6,0.6,1.6,0.6,2.1,0c0,0,0,0,0,0c-0.9-0.4-1.7-0.7-2.6-1.1c0,0,0,0,0,0c0.5-0.5,1-1,1.5-1.5
			c0,0,0,0,0,0c-0.8,0-1.5,0.7-1.5,1.5C366,490.3,366.6,491,367.5,491z"/>
	</g>
</g>
<g>
	<g>
		<path d="M366,427.5c0,20.7,0,41.3,0,62c0,1.9,3,1.9,3,0c0-20.7,0-41.3,0-62c0-0.6-0.5-1.3-1.1-1.4c0,0,0,0,0,0
			c-0.7-0.1-1.3,0.1-1.7,0.7c0,0,0,0,0,0c-1.1,1.6,1.5,3.1,2.6,1.5c0,0,0,0,0,0c-0.6,0.2-1.1,0.5-1.7,0.7c0,0,0,0,0,0
			C366.7,428.5,366.4,428,366,427.5c0,20.6,0,41.3,0,62c1,0,2,0,3,0c0-20.7,0-41.3,0-62C369,425.6,366,425.6,366,427.5z"/>
	</g>
</g>
<g>
	<g>
		<path d="M366,489.5C366,489.5,366,489.5,366,489.5c0,0.8,0.7,1.6,1.5,1.5c0.8,0,1.5-0.7,1.5-1.5c0,0,0,0,0,0
			c0-0.8-0.7-1.5-1.5-1.5C366.7,488,366,488.6,366,489.5C366,489.5,366,489.5,366,489.5c0,0.8,0.7,1.6,1.5,1.5
			c0.8,0,1.5-0.7,1.5-1.5c0,0,0,0,0,0c0-0.8-0.7-1.5-1.5-1.5C366.7,488,366,488.6,366,489.5z"/>
	</g>
</g>
<g>
	<polygon class="st0" points="116.5,427.5 163.5,489.5 163.5,429.5 	"/>
	<g>
		<path d="M115.2,428.3c15.7,20.7,31.3,41.3,47,62c0.8,1.1,2.8,0.9,2.8-0.8c0-20,0-40,0-60c0-0.8-0.7-1.5-1.5-1.5
			c-15.7-0.7-31.3-1.3-47-2c-1.9-0.1-1.9,2.9,0,3c15.7,0.7,31.3,1.3,47,2c-0.5-0.5-1-1-1.5-1.5c0,20,0,40,0,60
			c0.9-0.3,1.9-0.5,2.8-0.8c-15.7-20.7-31.3-41.3-47-62C116.6,425.2,114,426.7,115.2,428.3z"/>
	</g>
</g>
<g>
	<g>
		<path d="M367.5,426c-16,0-32,0-48,0c-0.8,0-1.6,0.7-1.5,1.5c2,20.7,4,41.3,6,62c0.1,1.5,1.9,2,2.8,0.8
			c7.3-10.7,14.6-21.5,21.8-32.2c4.8-7.1,9.7-14.3,14.5-21.4c1.4-2,5.9-6.5,5.9-9.1c0-1.9-3-1.9-3,0c0-0.9,0.2-0.8-0.3-0.1
			c-0.4,0.6-0.9,1.3-1.3,1.9c-1.6,2.3-3.1,4.6-4.7,6.9c-4.8,7.2-9.7,14.3-14.5,21.5c-7,10.3-14,20.7-21,31c0.9,0.3,1.9,0.5,2.8,0.8
			c-2-20.7-4-41.3-6-62c-0.5,0.5-1,1-1.5,1.5c16,0,32,0,48,0C369.4,429,369.4,426,367.5,426z"/>
	</g>
</g>
<g>
	<g>
		<path d="M368.8,428.3C368.8,428.3,368.8,428.3,368.8,428.3c0.7-0.9-0.3-2.3-1.3-2.3c0,0,0,0,0,0c-0.8,0-1.5,0.7-1.5,1.5
			c0,0.8,0.7,1.5,1.5,1.5c0,0,0,0,0,0c0.8,0,1.5-0.7,1.5-1.5c0-0.8-0.7-1.5-1.5-1.5c0,0,0,0,0,0c0,1,0,2,0,3c0,0,0,0,0,0
			c-0.4-0.8-0.9-1.5-1.3-2.3c0,0,0,0,0,0c-0.5,0.6-0.1,1.7,0.5,2.1C367.5,429.2,368.3,428.9,368.8,428.3z"/>
	</g>
</g>
<g>
	<g>
		<path d="M366,427.5C366,427.5,366,427.5,366,427.5c0,0.7,0.5,1.3,1.1,1.5c0.7,0.2,1.3-0.1,1.7-0.7c0,0,0,0,0,0
			c0.7-1-0.2-2.2-1.3-2.3c0,0,0,0,0,0C366.7,426,365.9,426.7,366,427.5c0,0.8,0.7,1.5,1.5,1.5c0,0,0,0,0,0c-0.4-0.8-0.9-1.5-1.3-2.3
			c0,0,0,0,0,0c0.9,0.3,1.9,0.5,2.8,0.8c0,0,0,0,0,0c0-0.8-0.7-1.5-1.5-1.5C366.7,426,366,426.7,366,427.5z"/>
	</g>
</g>
<g>
	<g>
		<path d="M162,427.5c0,20.7,0,41.3,0,62c0,1.2,1.7,2.1,2.6,1.1c16.3-20.7,32.7-41.3,49-62c0.8-1,0.3-2.6-1.1-2.6
			c-16.3,0-32.7,0-49,0c-1.9,0-1.9,3,0,3c16.3,0,32.7,0,49,0c-0.4-0.9-0.7-1.7-1.1-2.6c-16.3,20.7-32.7,41.3-49,62
			c0.9,0.4,1.7,0.7,2.6,1.1c0-20.7,0-41.3,0-62C165,425.6,162,425.6,162,427.5z"/>
	</g>
</g>
<g>
	<g>
		<path d="M285.5,428c-5.8-0.7-11.7-1.3-17.5-2c-1.4-0.2-1.9,1.7-1.1,2.6c19.2,20.7,38.3,41.3,57.5,62c0.8,0.9,2.7,0.2,2.6-1.1
			c-2-20.7-4-41.3-6-62c-0.1-0.8-0.6-1.6-1.5-1.5C308.2,426.7,296.8,427.3,285.5,428c-1.9,0.1-1.9,3.1,0,3c11.3-0.7,22.7-1.3,34-2
			c-0.5-0.5-1-1-1.5-1.5c2,20.7,4,41.3,6,62c0.9-0.4,1.7-0.7,2.6-1.1c-19.2-20.7-38.3-41.3-57.5-62c-0.4,0.9-0.7,1.7-1.1,2.6
			c5.8,0.7,11.7,1.3,17.5,2C287.4,431.2,287.4,428.2,285.5,428z"/>
	</g>
</g>
<g>
	<polygon class="st1" points="222.1,489.5 212.5,427.5 163.5,489.5 	"/>
	<g>
		<path d="M223.6,489.1c-3.2-20.7-6.4-41.3-9.6-62c-0.2-1.1-1.8-1.5-2.5-0.7c-16.3,20.7-32.7,41.3-49,62c-0.8,1-0.3,2.6,1.1,2.6
			c19.5,0,39.1,0,58.6,0c1.9,0,1.9-3,0-3c-19.5,0-39.1,0-58.6,0c0.4,0.9,0.7,1.7,1.1,2.6c16.3-20.7,32.7-41.3,49-62
			c-0.8-0.2-1.7-0.4-2.5-0.7c3.2,20.7,6.4,41.3,9.6,62C221,491.8,223.9,491,223.6,489.1z"/>
	</g>
</g>
<g>
	<g>
		<path d="M261.5,491c21.3,0,42.7,0,64,0c1.3,0,1.9-1.6,1.1-2.6c-19.3-20.7-38.7-41.3-58-62c-1-1-2.4-0.1-2.6,1.1
			c-2,20.7-4,41.3-6,62c-0.2,1.9,2.8,1.9,3,0c2-20.7,4-41.3,6-62c-0.9,0.4-1.7,0.7-2.6,1.1c19.3,20.7,38.7,41.3,58,62
			c0.4-0.9,0.7-1.7,1.1-2.6c-21.3,0-42.7,0-64,0C259.6,488,259.6,491,261.5,491z"/>
	</g>
</g>
<g>
	<g>
		<path d="M222.5,491c13,0,26,0,39,0c1.4,0,1.8-1.6,1.1-2.6c-16.3-20.7-32.7-41.3-49-62c-1-1.3-2.7,0.2-2.5,1.5
			c3.3,20.7,6.7,41.3,10,62c0.3,1.9,3.2,1.1,2.9-0.8c-3.3-20.7-6.7-41.3-10-62c-0.8,0.5-1.7,1-2.5,1.5c16.3,20.7,32.7,41.3,49,62
			c0.4-0.9,0.7-1.7,1.1-2.6c-13,0-26,0-39,0C220.6,488,220.6,491,222.5,491z"/>
	</g>
</g>
<g>
	<polygon class="st0" points="212.5,427.5 261.5,489.5 267.5,427.5 	"/>
	<g>
		<path d="M211.4,428.6c16.3,20.7,32.7,41.3,49,62c0.9,1.1,2.5,0.1,2.6-1.1c2-20.7,4-41.3,6-62c0.1-0.8-0.8-1.5-1.5-1.5
			c-18.3,0-36.7,0-55,0c-1.9,0-1.9,3,0,3c18.3,0,36.7,0,55,0c-0.5-0.5-1-1-1.5-1.5c-2,20.7-4,41.3-6,62c0.9-0.4,1.7-0.7,2.6-1.1
			c-16.3-20.7-32.7-41.3-49-62C212.4,424.9,210.3,427.1,211.4,428.6z"/>
	</g>
</g>
</svg>
