<?xml version="1.0" encoding="utf-8"?>
<!-- Generator: Adobe Illustrator 21.0.2, SVG Export Plug-In . SVG Version: 6.00 Build 0)  -->
<svg version="1.1" id="Layer_1" xmlns="http://www.w3.org/2000/svg" xmlns:xlink="http://www.w3.org/1999/xlink" x="0px" y="0px"
	 viewBox="0 0 1029 768" style="enable-background:new 0 0 1029 768;" xml:space="preserve">
<style type="text/css">
	.st0{fill:#9575CD;}
	.st1{fill:#651FFF;}
	.st2{fill:#E91E63;}
	.st3{fill:#536DFE;}
	.st4{fill:#F48FB1;}
	.st5{opacity:0.2;fill:#D500F9;}
	.st6{opacity:0.2;fill:#FFFF00;}
	.st7{fill:#E65100;}
	.st8{fill:#FF9800;}
	.st9{fill:url(#SVGID_1_);}
	.st10{opacity:0.71;fill:url(#SVGID_2_);}
	.st11{fill:url(#SVGID_3_);}
	.st12{fill:url(#SVGID_4_);}
	.st13{fill:url(#SVGID_5_);}
	.st14{fill:url(#SVGID_6_);}
	.st15{fill:url(#SVGID_7_);}
	.st16{opacity:0.71;fill:url(#SVGID_8_);}
	.st17{fill:url(#SVGID_9_);}
	.st18{fill:url(#SVGID_10_);}
	.st19{fill:url(#SVGID_11_);}
	.st20{fill:url(#SVGID_12_);}
	.st21{fill:url(#SVGID_13_);}
	.st22{fill:url(#SVGID_14_);}
	.st23{fill:url(#SVGID_15_);}
	.st24{fill:url(#SVGID_16_);}
	.st25{fill:url(#SVGID_17_);}
	.st26{fill:url(#SVGID_18_);}
	.st27{fill:url(#SVGID_19_);}
	.st28{fill:url(#SVGID_20_);}
	.st29{fill:url(#SVGID_21_);}
	.st30{fill:url(#SVGID_22_);}
	.st31{fill:url(#SVGID_23_);}
	.st32{fill:url(#SVGID_24_);}
	.st33{fill:url(#SVGID_25_);}
	.st34{fill:url(#SVGID_26_);}
	.st35{fill:url(#SVGID_27_);}
	.st36{fill:url(#SVGID_28_);}
	.st37{fill:url(#SVGID_29_);}
	.st38{fill:url(#SVGID_30_);}
	.st39{fill:url(#SVGID_31_);}
	.st40{fill:url(#SVGID_32_);}
	.st41{fill:url(#SVGID_33_);}
	.st42{fill:url(#SVGID_34_);}
	.st43{fill:url(#SVGID_35_);}
	.st44{fill:url(#SVGID_36_);}
	.st45{opacity:0.71;fill:url(#SVGID_37_);}
	.st46{fill:url(#SVGID_38_);}
	.st47{fill:url(#SVGID_39_);}
	.st48{fill:url(#SVGID_40_);}
	.st49{fill:url(#SVGID_41_);}
	.st50{opacity:0.71;fill:url(#SVGID_42_);}
	.st51{fill:url(#SVGID_43_);}
	.st52{fill:url(#SVGID_44_);}
</style>
<path class="st0" d="M652.8,574.3c-4.6-7.6-14.4-10-22-5.5l0,0c-7.2,4.3-9.7,13.3-6.1,20.7c18.3,28.5,44.4,49.1,73.8,60.8
	L652.8,574.3z"/>
<path class="st0" d="M742,660.7l-50-83.1l-27.8-46.3c-4.6-7.6-14.4-10-22-5.5v0c-7.6,4.6-10,14.4-5.5,22l16,26.6l45.7,76
	C712.4,655.9,727.1,659.4,742,660.7z"/>
<path class="st0" d="M778.7,659.7l-59.2-98.6c-4.6-7.6-14.4-10-22-5.5h0c-7.6,4.6-10,14.4-5.5,22l50,83.1
	C754.2,661.8,766.5,661.5,778.7,659.7z"/>
<path class="st0" d="M912,508.6l-39.7-66.1c-4.6-7.6-14.4-10-22-5.5l0,0c-7.6,4.6-10,14.4-5.5,22l58.6,97.5
	C908.7,541.1,911.6,525,912,508.6z"/>
<path class="st0" d="M861.7,394c-7.6,4.6-10,14.4-5.5,22l16,26.6l39.7,66.1c0.6-28.5-6.5-57.4-22.3-83.6
	c-7.3-12.1-15.9-22.8-25.6-32.2C863.3,393.1,862.5,393.5,861.7,394L861.7,394z"/>
<path class="st1" d="M861.7,394L861.7,394c0.8-0.5,1.6-0.8,2.4-1.1c-11.3-10.9-24.1-19.8-37.8-26.7l29.9,49.8
	C851.7,408.3,854.2,398.5,861.7,394z"/>
<path class="st2" d="M692.1,577.6c-0.7-1.2-1.2-2.4-1.6-3.7c-0.9-0.9-1.8-2-2.5-3.2L692.1,577.6z"/>
<path class="st1" d="M642.3,525.8L642.3,525.8c7.6-4.6,17.4-2.1,22,5.5l-52-86.6c-5.8,13.8-9.6,28.4-11.3,43.3l35.9,59.7
	C632.3,540.2,634.7,530.4,642.3,525.8z"/>
<path class="st2" d="M719.5,561.1l-4.1-6.9c0.7,1.2,1.2,2.4,1.6,3.7C717.9,558.9,718.8,559.9,719.5,561.1z"/>
<path class="st1" d="M630.8,568.9L630.8,568.9c-7.2,4.3-9.7,13.3-6.1,20.7c-0.8-1.3-1.6-2.6-2.4-3.9l4.6,7.7c4.6,7.6,14.4,10,22,5.5
	l0,0c7.6-4.6,10-14.4,5.5-22l-1.5-2.6C648.2,566.8,638.4,564.3,630.8,568.9z"/>
<path class="st1" d="M624.7,589.6c-3.6-7.4-1-16.4,6.1-20.7l0,0c7.6-4.6,17.4-2.1,22,5.5l-16-26.6L601,488.1
	c-3.7,32.8,3,67.1,21.3,97.6C623.1,587,623.9,588.3,624.7,589.6z"/>
<path class="st1" d="M697.5,555.6L697.5,555.6c-6.4,3.8-9.1,11.4-7.1,18.3c5.1,5,13.1,6.2,19.4,2.3h0c6.4-3.8,9.1-11.4,7.1-18.3
	C711.9,552.9,703.9,551.8,697.5,555.6z"/>
<path class="st1" d="M687.9,570.7c0.7,1.2,1.6,2.2,2.5,3.2c-2-6.8,0.7-14.4,7.1-18.3h0c6.4-3.8,14.4-2.7,19.4,2.3
	c-0.4-1.3-0.9-2.5-1.6-3.7l-35.5-59.1l-49.5-82.3c-7.3,10-13.4,20.7-18.1,32l52,86.6L687.9,570.7z"/>
<path class="st1" d="M850.3,437L850.3,437c-7.6,4.6-10,14.4-5.5,22l17.5,29.1c4.6,7.6,14.4,10,22,5.5l0,0c7.6-4.6,10-14.4,5.5-22
	l-17.5-29.1C867.7,434.9,857.8,432.5,850.3,437z"/>
<path class="st1" d="M844.8,459c-4.6-7.6-2.1-17.4,5.5-22l0,0c7.6-4.6,17.4-2.1,22,5.5l-16-26.6l-29.9-49.8
	c-14.6-7.3-30.2-12.4-46.3-14.9l42.6,70.9L844.8,459z"/>
<path class="st2" d="M747.8,359.7l106.6,177.4c4.6,7.6,2.1,17.4-5.5,22l0,0c-7.6,4.6-17.4,2.1-22-5.5L720.4,376.2
	c-4.6-7.6-2.1-17.4,5.5-22l0,0C733.5,349.7,743.3,352.2,747.8,359.7z"/>
<path class="st1" d="M751.4,387.7c-2.1,1.2-4.4,1.5-6.6,1c-1.3-0.3-2.5-1-3.6-1.9c2,4,0.6,9-3.4,11.3c-3.7,2.2-8.4,1.4-11.1-1.8
	c1,3.7-0.5,7.7-4,9.7c-3.5,2.1-8,1.4-10.7-1.4c1.2,3.8-0.3,8-3.8,10.1c-3.5,2.1-8,1.4-10.7-1.4c1.2,3.8-0.3,8-3.8,10.1
	c-3.4,2-7.6,1.5-10.4-1.1c1.5,3.9,0.1,8.4-3.6,10.7c-3.5,2.1-8,1.5-10.7-1.4c1.2,3.8-0.3,8-3.8,10.1c-4.1,2.5-9.5,1.1-12-3
	l-18.8-31.2c-1.3,1.7-2.6,3.3-3.9,5l49.5,82.3c-4.6-7.6-2.1-17.4,5.5-22l0,0c7.6-4.6,17.4-2.1,22,5.5L731,518
	c-4.6-7.6-2.1-17.4,5.5-22l0,0c7.6-4.6,17.4-2.1,22,5.5l28.3,47.1c-4.6-7.6-2.1-17.4,5.5-22l0,0c7.6-4.6,17.4-2.1,22,5.5l-19.1-31.7
	c-4.6-7.6-2.1-17.4,5.5-22l0,0c7.6-4.6,17.4-2.1,22,5.5l-27.3-45.4c-4.6-7.6-2.1-17.4,5.5-22l0,0c7.6-4.6,17.4-2.1,22,5.5L780,351.2
	c-13.5-2.1-27.2-2.5-41-1l15.3,25.5C756.9,379.9,755.6,385.3,751.4,387.7z"/>
<path class="st3" d="M620.6,352c-2.8-2.3-6.8-2.8-10.1-0.8c-4.1,2.5-5.5,7.9-3,12l26.7,44.5c3.7-4.6,7.7-9,11.9-13.2L620.6,352z"/>
<path class="st3" d="M620.7,352.1c0.4,0.5,0.8,1,1.3,1.4C621.6,353,621.2,352.5,620.7,352.1z"/>
<path class="st1" d="M665,442c3.5-2.1,5-6.4,3.8-10.1c-0.5-0.5-0.9-1-1.3-1.6l-21.5-35.7c-4.2,4.2-8.2,8.6-11.9,13.2L653,439
	C655.5,443.1,660.9,444.5,665,442z"/>
<path class="st3" d="M620.2,351.4l0.4,0.7c0,0,0.1,0.1,0.1,0.1C620.5,351.9,620.4,351.6,620.2,351.4z"/>
<path class="st3" d="M646.5,394.2c4-3.9,8.2-7.6,12.6-11.1l-22.8-38c0.7,3.5-0.8,7.3-4,9.3c-3.3,2-7.4,1.5-10.2-0.9
	c0.2,0.2,0.4,0.5,0.5,0.8L646.5,394.2z"/>
<path class="st1" d="M659.1,383.1c-4.4,3.5-8.6,7.2-12.6,11.1L668,430c0.4,0.6,0.6,1.2,0.8,1.9c2.8,2.8,7.2,3.5,10.7,1.4
	c3.7-2.2,5.2-6.8,3.6-10.7c-0.6-0.6-1.1-1.2-1.6-1.9L659.1,383.1z"/>
<path class="st3" d="M646.5,394.2l-24-39.9c-0.2-0.3-0.3-0.5-0.5-0.8c-0.5-0.4-0.9-0.9-1.3-1.4c0,0-0.1-0.1-0.1-0.1l25.5,42.5
	C646.3,394.4,646.4,394.3,646.5,394.2z"/>
<path class="st1" d="M646.5,394.2c-0.1,0.1-0.2,0.2-0.4,0.4l21.5,35.7c0.4,0.6,0.8,1.1,1.3,1.6c-0.2-0.6-0.5-1.3-0.8-1.9
	L646.5,394.2z"/>
<path class="st3" d="M659.5,382.8c4.3-3.4,8.8-6.6,13.5-9.5l-59.7-99.4c0.5,0.9,1.2,1.6,1.9,2.2l-19.6-32.6c-2.5-4.1-7.9-5.5-12-3
	c-4.1,2.5-5.5,7.9-3,12l55.6,92.6c-0.2-0.9-0.5-1.8-1.1-2.7L659.5,382.8z"/>
<path class="st1" d="M673,373.2c-4.7,3-9.2,6.1-13.5,9.5l23.1,38.5c0.3,0.4,0.5,0.9,0.6,1.3c2.8,2.6,7,3.1,10.4,1.1
	c3.5-2.1,5-6.4,3.8-10.1c-0.5-0.5-0.9-1-1.3-1.6L673,373.2z"/>
<path class="st3" d="M659.5,382.8l-24.3-40.4c0.5,0.9,0.9,1.8,1.1,2.7l22.8,38C659.2,383,659.3,382.9,659.5,382.8z"/>
<path class="st1" d="M659.5,382.8c-0.1,0.1-0.3,0.2-0.4,0.3l22.6,37.6c0.4,0.7,1,1.4,1.6,1.9c-0.2-0.4-0.4-0.9-0.6-1.3L659.5,382.8z
	"/>
<path class="st3" d="M609.8,235l19.6,32.6c-0.2-0.9-0.5-1.8-1.1-2.7l60,99.9c5.1-2.4,10.2-4.6,15.4-6.4l-13.8-23
	c0.5,0.9,1.2,1.6,1.9,2.2l-67-111.6c-2.5-4.1-7.9-5.5-12-3C608.6,225.5,607.3,230.8,609.8,235z"/>
<path class="st1" d="M712.1,404.7c2.8,2.8,7.2,3.5,10.7,1.4c3.4-2,4.9-6,4-9.7c-0.3-0.4-0.6-0.8-0.9-1.2l-22.2-36.9
	c-5.2,1.9-10.3,4-15.4,6.4l22.9,38.1C711.6,403.5,711.8,404.1,712.1,404.7z"/>
<path class="st3" d="M675.6,371.6c4-2.4,8.1-4.6,12.2-6.6l-58.5-97.4c0.7,3.5-0.8,7.3-4,9.3c-3.3,2-7.3,1.5-10.1-0.8l58.2,96.9
	C674.2,372.5,674.9,372.1,675.6,371.6z"/>
<path class="st1" d="M687.9,365c-4.1,2-8.2,4.2-12.2,6.6c-0.7,0.4-1.5,0.9-2.2,1.4l23.2,38.6c0.4,0.6,0.6,1.2,0.8,1.9
	c2.8,2.8,7.2,3.5,10.7,1.4c3.5-2.1,5-6.4,3.8-10.1c-0.5-0.5-0.9-1-1.3-1.6L687.9,365z"/>
<path class="st3" d="M673,373.2c0.1-0.1,0.3-0.2,0.4-0.3l-58.2-96.9c-0.7-0.6-1.4-1.3-1.9-2.2L673,373.2z"/>
<path class="st1" d="M673.4,373c-0.1,0.1-0.3,0.2-0.4,0.3l23.2,38.6c0.4,0.6,0.8,1.1,1.3,1.6c-0.2-0.6-0.5-1.3-0.8-1.9L673.4,373z"
	/>
<path class="st3" d="M688.3,364.8l-60-99.9c0.5,0.9,0.9,1.8,1.1,2.7l58.5,97.4C688,364.9,688.2,364.8,688.3,364.8z"/>
<path class="st1" d="M710.8,403.1c0.4,0.6,0.8,1.1,1.3,1.6c-0.2-0.6-0.5-1.3-0.8-1.9l-22.9-38.1c-0.1,0.1-0.3,0.1-0.4,0.2
	L710.8,403.1z"/>
<path class="st1" d="M726.8,396.4c2.7,3.2,7.4,4,11.1,1.8c3.9-2.4,5.3-7.3,3.4-11.3c-0.7-0.6-1.3-1.3-1.8-2.1l-18.9-31.4
	c-5.5,1.3-11,2.9-16.4,4.8l21.6,35.9C726.2,394.8,726.5,395.6,726.8,396.4z"/>
<path class="st3" d="M703.7,358.3c0.2-0.1,0.3-0.1,0.5-0.2l-12.4-20.6c-0.7-0.6-1.4-1.3-1.9-2.2L703.7,358.3z"/>
<path class="st1" d="M726.8,396.4c-0.2-0.8-0.5-1.6-1-2.3l-21.6-35.9c-0.2,0.1-0.3,0.1-0.5,0.2l22.2,36.9
	C726.1,395.6,726.4,396,726.8,396.4z"/>
<path class="st2" d="M740.9,386.2c0.1,0.2,0.2,0.4,0.4,0.7c1,0.9,2.3,1.5,3.6,1.9c2.2,0.5,4.5,0.3,6.6-1c4.1-2.5,5.5-7.9,3-12
	l-15.3-25.5c-6,0.7-12,1.7-18,3L740.9,386.2z"/>
<path class="st3" d="M721.1,353.3l-16.2-26.9c0.5,0.9,0.9,1.8,1.1,2.7l14.6,24.3C720.7,353.3,720.9,353.3,721.1,353.3z"/>
<path class="st2" d="M741.2,386.9c-0.1-0.2-0.2-0.5-0.4-0.7l-19.8-32.9c-0.2,0-0.3,0.1-0.5,0.1l18.9,31.4
	C739.9,385.6,740.5,386.3,741.2,386.9z"/>
<path class="st0" d="M795.2,438.6l27.3,45.4l64.1,106.7c7-10.7,12.6-22.2,16.8-34.2L844.8,459l-22.1-36.9c-4.6-7.6-14.4-10-22-5.5
	l0,0C793.1,421.2,790.7,431,795.2,438.6z"/>
<path class="st3" d="M865,588.9c-0.4-0.6-0.8-1.1-1.3-1.6c0.2,0.6,0.5,1.3,0.8,1.9l45.9,76.4c0.7,0.6,1.4,1.3,1.9,2.2L865,588.9z"/>
<path class="st3" d="M849.4,596.6c0.2,0.5,0.4,0.9,0.6,1.3l47.4,78.9c-0.5-0.9-0.9-1.8-1.1-2.7l-45.4-75.5
	C850.5,597.8,850,597.1,849.4,596.6z"/>
<path class="st3" d="M821.4,616.3c-0.4-0.6-0.6-1.2-0.8-1.9c-2.8-2.8-7.2-3.5-10.7-1.4c-3.4,2-4.9,6-4,9.7c0.3,0.4,0.6,0.8,0.9,1.2
	l45.3,75.4c-0.5-0.9-1.2-1.6-1.9-2.2l34.2,56.9c2.5,4.1,7.9,5.5,12,3c4.1-2.5,5.5-7.9,3-12l-23.9-39.8c0.2,0.9,0.5,1.8,1.1,2.7
	L821.4,616.3z"/>
<path class="st3" d="M862.6,618.8l34.8,57.9c-0.5-0.9-0.9-1.8-1.1-2.7l-33.4-55.6C862.8,618.6,862.7,618.7,862.6,618.8z"/>
<path class="st3" d="M849.9,629.8c-0.1,0.1-0.3,0.2-0.4,0.3l40.1,66.7c0.7,0.6,1.4,1.3,1.9,2.2L849.9,629.8z"/>
<path class="st3" d="M875.2,605.9c-0.1,0.1-0.2,0.3-0.3,0.4l35.6,59.2c0.7,0.6,1.4,1.3,1.9,2.2L875.2,605.9z"/>
<path class="st4" d="M849.4,596.6c0.2,0.5,0.4,0.9,0.6,1.3l12.6,20.9c0.1-0.1,0.2-0.2,0.4-0.4l-12-20
	C850.5,597.8,850,597.1,849.4,596.6z"/>
<path class="st0" d="M835.1,605.6c-1.2-3.8,0.3-8,3.8-10.1c3.4-2,7.6-1.5,10.4,1.1c-0.8-2-0.8-4.1-0.1-6l-35.1-58.4l-5.3-8.9
	c-5-8.3-15.2-11.4-22.8-6.9h0c-7.6,4.6-9.7,15-4.6,23.3l40.3,67c0.7-1,1.6-1.9,2.7-2.6C827.9,602.1,832.3,602.8,835.1,605.6z"/>
<path class="st4" d="M835.1,605.6c0.2,0.6,0.5,1.3,0.8,1.9l13.6,22.6c0.1-0.1,0.3-0.2,0.4-0.3l-13.6-22.6
	C836,606.6,835.6,606.1,835.1,605.6z"/>
<path class="st0" d="M795.1,500.5l13.7,22.8l5.3,8.9l35.1,58.4c0.6-1.9,1.9-3.6,3.8-4.7c3.5-2.1,8-1.4,10.7,1.4
	c-1.2-3.8,0.3-8,3.8-10.1c4.1-2.5,9.5-1.1,12,3l6.7,11.1c0.1-0.2,0.2-0.4,0.4-0.5L822.5,484c-4.6-7.6-14.4-10-22-5.5l0,0
	C793,483.1,790.5,492.9,795.1,500.5z"/>
<path class="st0" d="M874.9,606.3c0.1-0.1,0.2-0.3,0.3-0.4L865,588.9c-0.4-0.6-0.8-1.1-1.3-1.6c0.2,0.6,0.5,1.3,0.8,1.9L874.9,606.3
	z"/>
<path class="st3" d="M912.4,667.7c-0.5-0.9-1.2-1.6-1.9-2.2l53.2,88.6c2.5,4.1,7.9,5.5,12,3c4.1-2.5,5.5-7.9,3-12l-92.5-153.9
	c-3.4,5.1-7,10-11,14.7L912.4,667.7z"/>
<path class="st0" d="M867.6,577.1c-3.5,2.1-5,6.4-3.8,10.1c0.5,0.5,0.9,1,1.3,1.6l10.3,17.1c4-4.7,7.6-9.6,11-14.7l-6.7-11.1
	C877.1,576,871.7,574.6,867.6,577.1z"/>
<path class="st3" d="M865,616.9l-0.2-0.4c-0.6,0.6-1.3,1.3-1.9,1.9l33.4,55.6c-0.7-3.5,0.8-7.3,4-9.3c3.3-2,7.3-1.5,10.1,0.8
	l-35.6-59.2C871.8,610,868.5,613.5,865,616.9z"/>
<path class="st0" d="M848.1,596.3c0.7,0.5,1.4,1.1,1.8,1.9l12.4,20.7c1.1-0.9,2.2-1.8,3.3-2.8l-16.2-26.9
	C848.1,591.6,847.5,594.1,848.1,596.3z"/>
<path class="st0" d="M865,616.9c3.5-3.4,6.8-6.9,9.9-10.6l-10.3-17.2c-0.4-0.6-0.6-1.2-0.8-1.9c-2.8-2.8-7.2-3.5-10.7-1.4
	c-1.9,1.1-3.1,2.8-3.8,4.7l15.6,26L865,616.9z"/>
<path class="st3" d="M862.5,618.7c-4,3.9-8.2,7.6-12.7,11l41.6,69.3c-0.5-0.9-1.2-1.6-1.9-2.2l14.6,24.4c2.5,4.1,7.9,5.5,12,3
	s5.5-7.9,3-12L896.3,674c0.2,0.9,0.5,1.8,1.1,2.7L862.5,618.7z"/>
<path class="st3" d="M839.7,637l-18.1-30.1c-1.5,2.2-1.9,5-1.1,7.6c0.5,0.5,0.9,1,1.3,1.6l53.6,89.3c-0.7-3.5,0.8-7.3,4-9.3
	c3.3-2,7.3-1.5,10.1,0.8l-40.1-66.7C846.4,632.5,843.1,634.8,839.7,637z"/>
<path class="st0" d="M849.5,630.1l-13.6-22.6c-0.4-0.6-0.6-1.2-0.8-1.9c-2.8-2.8-7.2-3.5-10.7-1.4c-1.1,0.7-2,1.6-2.7,2.6l18.1,30.1
	C843.1,634.8,846.4,632.5,849.5,630.1z"/>
<path class="st3" d="M836.4,607.2c-0.4-0.6-0.8-1.1-1.3-1.6c0.2,0.6,0.5,1.3,0.8,1.9l53.6,89.3c0.7,0.6,1.4,1.3,1.9,2.2L836.4,607.2
	z"/>
<path class="st3" d="M820.5,614.4c0.2,0.6,0.5,1.3,0.8,1.9l55.1,91.7c-0.5-0.9-0.9-1.8-1.1-2.7L821.8,616
	C821.4,615.4,821,614.9,820.5,614.4z"/>
<path class="st3" d="M806.7,623.9c-0.3-0.4-0.6-0.8-0.9-1.2c0.2,0.8,0.5,1.6,1,2.3l43.3,72.1c0.7,0.6,1.4,1.3,1.9,2.2L806.7,623.9z"
	/>
<path class="st3" d="M804.2,653.7l32.8,54.6c-0.5-0.9-0.9-1.8-1.1-2.7l-31.3-52.1C804.5,653.6,804.4,653.7,804.2,653.7z"/>
<path class="st0" d="M804.2,653.7c0.2-0.1,0.3-0.1,0.5-0.2l-11.5-19.2c-0.5-0.8-1.1-1.5-1.8-2.1c0.1,0.2,0.2,0.5,0.4,0.7
	L804.2,653.7z"/>
<path class="st0" d="M679.8,495.1l39.7,66l59.2,98.6c2.8-0.4,5.6-0.9,8.3-1.5l-8.9-14.9c-2.5-4.1-1.1-9.5,3-12
	c3.3-2,7.4-1.5,10.2,0.9c-1.7-3.5-0.9-7.8,2-10.3L731,518l-23.7-39.4c-4.6-7.6-14.4-10-22-5.5l0,0
	C677.7,477.7,675.3,487.5,679.8,495.1z"/>
<path class="st0" d="M749.2,548.4l44.2,73.5c0.4-0.4,0.9-0.7,1.3-1c3.7-2.2,8.4-1.4,11.1,1.8c0.2,0.8,0.5,1.6,1,2.3l13.6,22.7
	c5.4-2.6,10.7-5.5,15.9-8.6c1.1-0.7,2.3-1.4,3.4-2.1l-41.1-68.5l-22-36.6c-3.5-5.9-12.5-7-20.1-2.4h0
	C748.9,534.1,745.7,542.5,749.2,548.4z"/>
<path class="st3" d="M811,651.3c-2.1,0.8-4.2,1.5-6.4,2.2l31.3,52.1c-0.7-3.5,0.8-7.3,4-9.3c3.3-2,7.3-1.5,10.1,0.8l-29.7-49.5
	c-3,1.5-6,2.8-9.1,4.1L811,651.3z"/>
<path class="st0" d="M805.8,622.7c-2.7-3.2-7.4-4-11.1-1.8c-0.5,0.3-0.9,0.6-1.3,1l17.7,29.4l0.3,0.5c3-1.3,6.1-2.7,9.1-4.1
	L806.8,625C806.4,624.3,806,623.5,805.8,622.7z"/>
<path class="st0" d="M793.4,621.9c-2.9,2.6-3.7,6.8-2,10.3c0.7,0.6,1.3,1.3,1.8,2.1l11.5,19.2c2.1-0.7,4.2-1.4,6.4-2.2L793.4,621.9z
	"/>
<path class="st3" d="M804.2,653.7c-5.7,1.8-11.4,3.4-17.1,4.5l41.8,69.6c2.5,4.1,7.9,5.5,12,3s5.5-7.9,3-12l-7.9-13.2
	c0.2,0.9,0.5,1.8,1.1,2.7L804.2,653.7z"/>
<path class="st3" d="M802.9,653.3c0,0.2,0.1,0.4,0.2,0.5l33.1,55c-0.4-0.6-0.2-1.6,0.4-2.7l-31.2-52
	C805,653.6,804.1,653.3,802.9,653.3z"/>
<path class="st1" d="M690.4,388.4L797,565.9c4.6,7.6,2.1,17.4-5.5,22l0,0c-7.6,4.6-17.4,2.1-22-5.5L663,404.9
	c-4.6-7.6-2.1-17.4,5.5-22l0,0C676,378.4,685.9,380.8,690.4,388.4z"/>
<path class="st1" d="M743.2,352l106.6,177.4c4.6,7.6,2.1,17.4-5.5,22h0c-7.6,4.6-17.4,2.1-22-5.5L715.8,368.5
	c-4.6-7.6-2.1-17.4,5.5-22l0,0C728.8,342,738.7,344.5,743.2,352z"/>
<path class="st0" d="M848.9,595.9c-2.9-2.6-7.4-3.1-11-0.9c-3.8,2.3-5.4,6.7-4.2,10.6c0.5,0.5,0.9,1,1.3,1.6l13.9,23.2
	c4.8-3.6,9.3-7.5,13.6-11.6l-12.9-21.5C849.3,596.8,849.1,596.3,848.9,595.9z"/>
<path class="st3" d="M721.3,353.2c6-1.5,12-2.5,18-3.3l-21.4-34.5c-1.3-2-3.3-3.4-5.4-3.9c-2.2-0.5-4.6-0.2-6.6,1.1
	c-4.1,2.5-5.4,7.9-2.8,12l2.8,4.6c-0.2-0.9-0.6-1.8-1.1-2.7L721.3,353.2z"/>
<path class="st3" d="M722.4,352.3L707.8,328c0.6,3.6-1.3,7.6-4.9,9.8c-3.7,2.2-8.1,2-11-0.3l12.4,20.6
	C710.2,355.9,716.3,353.9,722.4,352.3z"/>
<path class="st0" d="M791.4,632.2c-0.1-0.2-0.3-0.5-0.4-0.7c-2.9-2.4-7.2-2.9-10.7-0.8c-4.4,2.6-5.9,8.2-3.3,12.5l9.2,15.3
	c6.1-1.3,12.1-2.9,18.1-4.9L791.4,632.2z"/>
<g>
	<circle class="st5" cx="218" cy="199" r="177"/>
	<path class="st4" d="M212,75c8.8,0,16-7.2,16-16v0c0-8.4-6.4-15.2-14.6-15.9c-33.8,1-65,12.7-90.1,31.9H212z"/>
	<path class="st4" d="M92,107h97h54c8.8,0,16-7.2,16-16v0c0-8.8-7.2-16-16-16h-31h-88.7C111.4,84.1,100.9,94.9,92,107z"/>
	<path class="st4" d="M74,139h115c8.8,0,16-7.2,16-16v0c0-8.8-7.2-16-16-16H92C84.8,116.9,78.7,127.6,74,139z"/>
	<path class="st4" d="M64.5,171H220h46c8.8,0,16-7.2,16-16v0c0-8.8-7.2-16-16-16h-77H74C69.7,149.2,66.5,159.9,64.5,171z"/>
	<path class="st4" d="M62,199c0,1.3,0,2.7,0,4h79.9h42.7c6.9,0,12.4-7.2,12.4-16v0c0-8.8-5.6-16-12.4-16H63.9
		C62.7,180.1,62,189.4,62,199z"/>
	<path class="st4" d="M66.6,235h108.8c9.7,0,17.6-7.2,17.6-16v0c0-8.8-7.9-16-17.6-16H62.1C62.4,214,63.9,224.7,66.6,235z"/>
	<path class="st4" d="M77.6,267H202c8.8,0,16-7.2,16-16v0c0-8.8-7.2-16-16-16h-37H66.2C68.8,246.2,72.7,256.9,77.6,267z"/>
	<path class="st4" d="M98.3,299H212h43c8.8,0,16-7.2,16-16v0c0-8.8-7.2-16-16-16h-53H77.6C83.2,278.5,90.1,289.3,98.3,299z"/>
	<path class="st4" d="M134.8,331H212c8.8,0,16-7.2,16-16v0c0-8.8-7.2-16-16-16H98.3C108.7,311.5,121,322.3,134.8,331z"/>
	<path class="st4" d="M259,347c0-8.8-7.2-16-16-16h-31h-77.2c24.1,15.2,52.6,24,83.2,24c14.1,0,27.8-1.9,40.8-5.4
		C258.9,348.8,259,347.9,259,347L259,347z"/>
	<path class="st2" d="M259,347L259,347c0,0.9-0.1,1.8-0.2,2.6c15.2-4.1,29.4-10.4,42.4-18.6H243C251.8,331,259,338.2,259,347z"/>
	<path class="st2" d="M189,107c1.4,0,2.7,0.2,4,0.5c1.3-0.3,2.6-0.5,4-0.5H189z"/>
	<path class="st2" d="M259,91L259,91c0,8.8-7.2,16-16,16h101c-8.9-12.1-19.4-22.9-31.3-32H243C251.8,75,259,82.2,259,91z"/>
	<path class="st2" d="M189,139h8c-1.4,0-2.7-0.2-4-0.5C191.7,138.8,190.4,139,189,139z"/>
	<path class="st2" d="M282,155L282,155c0,8.8-7.2,16-16,16h-46c8.8,0,16,7.2,16,16v0c0,8.8-7.2,16-16,16h-55c8.8,0,16,7.2,16,16v0
		c0,8.8-7.2,16-16,16h37c8.8,0,16,7.2,16,16v0c0,8.8-7.2,16-16,16h53c8.8,0,16,7.2,16,16v0c0,8.8-7.2,16-16,16h82.7
		c22.6-27.1,36.3-61.9,36.3-100c0-21.3-4.3-41.5-12-60h-96C274.8,139,282,146.2,282,155z"/>
	<path class="st2" d="M228,59L228,59c0-8.4-6.4-15.2-14.6-15.9c1.5,0,3-0.1,4.6-0.1h-9c-8.8,0-16,7.2-16,16v0c0,8.8,7.2,16,16,16h3
		C220.8,75,228,67.8,228,59z"/>
	<path class="st2" d="M213.4,43.1c8.2,0.7,14.6,7.6,14.6,15.9v0c0,8.8-7.2,16-16,16h31h69.7c-26.3-20.1-59.1-32-94.7-32
		C216.5,43,214.9,43,213.4,43.1z"/>
	<path class="st2" d="M205,123L205,123c0-7.5-5.1-13.7-12-15.5c-6.9,1.8-12,8-12,15.5v0c0,7.5,5.1,13.7,12,15.5
		C199.9,136.7,205,130.5,205,123z"/>
	<path class="st2" d="M197,107c-1.4,0-2.7,0.2-4,0.5c6.9,1.8,12,8,12,15.5v0c0,7.5-5.1,13.7-12,15.5c1.3,0.3,2.6,0.5,4,0.5h69h96
		c-4.8-11.4-10.8-22.1-18.1-32H243H197z"/>
	<path class="st2" d="M228,315L228,315c0-8.8-7.2-16-16-16h-34c-8.8,0-16,7.2-16,16v0c0,8.8,7.2,16,16,16h34
		C220.8,331,228,323.8,228,315z"/>
	<path class="st2" d="M212,299c8.8,0,16,7.2,16,16v0c0,8.8-7.2,16-16,16h31h58.1c13.8-8.7,26.1-19.5,36.6-32H255H212z"/>
	<path class="st2" d="M352,203H145c-8.8,0-16-7.2-16-16v0c0-8.8,7.2-16,16-16h207c8.8,0,16,7.2,16,16v0C368,195.8,360.8,203,352,203
		z"/>
	<path class="st2" d="M347,267H140c-8.8,0-16-7.2-16-16v0c0-8.8,7.2-16,16-16h207c8.8,0,16,7.2,16,16v0C363,259.8,355.8,267,347,267
		z"/>
</g>
<g>
	<circle class="st6" cx="310" cy="553" r="35.4"/>
	<path class="st7" d="M308.8,528.2c1.8,0,3.2-1.4,3.2-3.2l0,0c0-1.7-1.3-3-2.9-3.2c-6.8,0.2-13,2.5-18,6.4H308.8z"/>
	<path class="st7" d="M284.8,534.6h19.4H315c1.8,0,3.2-1.4,3.2-3.2v0c0-1.8-1.4-3.2-3.2-3.2h-6.2h-17.7
		C288.7,530,286.6,532.2,284.8,534.6z"/>
	<path class="st7" d="M281.2,541h23c1.8,0,3.2-1.4,3.2-3.2l0,0c0-1.8-1.4-3.2-3.2-3.2h-19.4C283.4,536.6,282.1,538.7,281.2,541z"/>
	<path class="st7" d="M279.3,547.4h31.1h9.2c1.8,0,3.2-1.4,3.2-3.2l0,0c0-1.8-1.4-3.2-3.2-3.2h-15.4h-23
		C280.3,543,279.7,545.2,279.3,547.4z"/>
	<path class="st7" d="M278.8,553c0,0.3,0,0.5,0,0.8h16h8.5c1.4,0,2.5-1.4,2.5-3.2l0,0c0-1.8-1.1-3.2-2.5-3.2h-24.1
		C278.9,549.2,278.8,551.1,278.8,553z"/>
	<path class="st7" d="M279.7,560.2h21.8c1.9,0,3.5-1.4,3.5-3.2l0,0c0-1.8-1.6-3.2-3.5-3.2h-22.7C278.9,556,279.2,558.1,279.7,560.2z
		"/>
	<path class="st7" d="M281.9,566.6h24.9c1.8,0,3.2-1.4,3.2-3.2v0c0-1.8-1.4-3.2-3.2-3.2h-7.4h-19.8
		C280.2,562.4,280.9,564.6,281.9,566.6z"/>
	<path class="st7" d="M286.1,573h22.7h8.6c1.8,0,3.2-1.4,3.2-3.2l0,0c0-1.8-1.4-3.2-3.2-3.2h-10.6h-24.9
		C283,568.9,284.4,571.1,286.1,573z"/>
	<path class="st7" d="M293.4,579.4h15.4c1.8,0,3.2-1.4,3.2-3.2l0,0c0-1.8-1.4-3.2-3.2-3.2h-22.7
		C288.1,575.5,290.6,577.7,293.4,579.4z"/>
	<path class="st7" d="M318.2,582.6c0-1.8-1.4-3.2-3.2-3.2h-6.2h-15.4c4.8,3,10.5,4.8,16.6,4.8c2.8,0,5.6-0.4,8.2-1.1
		C318.2,583,318.2,582.8,318.2,582.6L318.2,582.6z"/>
	<path class="st8" d="M318.2,582.6L318.2,582.6c0,0.2,0,0.4,0,0.5c3-0.8,5.9-2.1,8.5-3.7H315C316.8,579.4,318.2,580.8,318.2,582.6z"
		/>
	<path class="st2" d="M304.2,534.6c0.3,0,0.5,0,0.8,0.1c0.3-0.1,0.5-0.1,0.8-0.1H304.2z"/>
	<path class="st8" d="M318.2,531.4L318.2,531.4c0,1.8-1.4,3.2-3.2,3.2h20.2c-1.8-2.4-3.9-4.6-6.3-6.4H315
		C316.8,528.2,318.2,529.6,318.2,531.4z"/>
	<path class="st2" d="M304.2,541h1.6c-0.3,0-0.5,0-0.8-0.1C304.7,541,304.5,541,304.2,541z"/>
	<path class="st8" d="M322.8,544.2L322.8,544.2c0,1.8-1.4,3.2-3.2,3.2h-9.2c1.8,0,3.2,1.4,3.2,3.2l0,0c0,1.8-1.4,3.2-3.2,3.2h-11
		c1.8,0,3.2,1.4,3.2,3.2l0,0c0,1.8-1.4,3.2-3.2,3.2h7.4c1.8,0,3.2,1.4,3.2,3.2v0c0,1.8-1.4,3.2-3.2,3.2h10.6c1.8,0,3.2,1.4,3.2,3.2
		l0,0c0,1.8-1.4,3.2-3.2,3.2h16.5c4.5-5.4,7.3-12.4,7.3-20c0-4.3-0.9-8.3-2.4-12h-19.2C321.4,541,322.8,542.4,322.8,544.2z"/>
	<path class="st8" d="M312,525L312,525c0-1.7-1.3-3-2.9-3.2c0.3,0,0.6,0,0.9,0h-1.8c-1.8,0-3.2,1.4-3.2,3.2l0,0
		c0,1.8,1.4,3.2,3.2,3.2h0.6C310.6,528.2,312,526.8,312,525z"/>
	<path class="st8" d="M309.1,521.8c1.6,0.1,2.9,1.5,2.9,3.2l0,0c0,1.8-1.4,3.2-3.2,3.2h6.2h13.9c-5.3-4-11.8-6.4-18.9-6.4
		C309.7,521.8,309.4,521.8,309.1,521.8z"/>
	<path class="st8" d="M307.4,537.8L307.4,537.8c0-1.5-1-2.7-2.4-3.1c-1.4,0.4-2.4,1.6-2.4,3.1l0,0c0,1.5,1,2.7,2.4,3.1
		C306.4,540.5,307.4,539.3,307.4,537.8z"/>
	<path class="st8" d="M305.8,534.6c-0.3,0-0.5,0-0.8,0.1c1.4,0.4,2.4,1.6,2.4,3.1l0,0c0,1.5-1,2.7-2.4,3.1c0.3,0.1,0.5,0.1,0.8,0.1
		h13.8h19.2c-1-2.3-2.2-4.4-3.6-6.4H315H305.8z"/>
	<path class="st8" d="M312,576.2L312,576.2c0-1.8-1.4-3.2-3.2-3.2H302c-1.8,0-3.2,1.4-3.2,3.2l0,0c0,1.8,1.4,3.2,3.2,3.2h6.8
		C310.6,579.4,312,578,312,576.2z"/>
	<path class="st8" d="M308.8,573c1.8,0,3.2,1.4,3.2,3.2l0,0c0,1.8-1.4,3.2-3.2,3.2h6.2h11.6c2.8-1.7,5.2-3.9,7.3-6.4h-16.5H308.8z"
		/>
	<path class="st8" d="M336.8,553.8h-41.4c-1.8,0-3.2-1.4-3.2-3.2l0,0c0-1.8,1.4-3.2,3.2-3.2h41.4c1.8,0,3.2,1.4,3.2,3.2l0,0
		C340,552.4,338.6,553.8,336.8,553.8z"/>
	<path class="st8" d="M335.8,566.6h-41.4c-1.8,0-3.2-1.4-3.2-3.2l0,0c0-1.8,1.4-3.2,3.2-3.2h41.4c1.8,0,3.2,1.4,3.2,3.2l0,0
		C339,565.2,337.6,566.6,335.8,566.6z"/>
</g>
<radialGradient id="SVGID_1_" cx="583.0721" cy="401.498" r="11.7655" gradientTransform="matrix(4.489659e-11 -1 1 4.489659e-11 61.2891 874.285)" gradientUnits="userSpaceOnUse">
	<stop  offset="0.1405" style="stop-color:#FFFFFF"/>
	<stop  offset="0.22" style="stop-color:#F7F7F8"/>
	<stop  offset="0.3452" style="stop-color:#E0E0E4"/>
	<stop  offset="0.5005" style="stop-color:#BBBBC3"/>
	<stop  offset="0.6798" style="stop-color:#888896"/>
	<stop  offset="0.8769" style="stop-color:#47475D"/>
	<stop  offset="0.9892" style="stop-color:#1F1F39"/>
</radialGradient>
<polygon class="st9" points="468.3,279.5 467.9,287.8 474.6,292.8 466.6,295.1 463.9,302.9 459.3,296 451,295.9 456.1,289.3 
	453.7,281.4 461.5,284.3 "/>
<g>
	
		<radialGradient id="SVGID_2_" cx="154.8789" cy="503.976" r="36.7848" gradientTransform="matrix(0.5 0.866 -0.866 0.5 689.0223 -349.1002)" gradientUnits="userSpaceOnUse">
		<stop  offset="0" style="stop-color:#FFFFFF"/>
		<stop  offset="0" style="stop-color:#FEFEFE"/>
		<stop  offset="0.101" style="stop-color:#FCFCFC"/>
		<stop  offset="0.1351" style="stop-color:#F6F6F7"/>
		<stop  offset="1" style="stop-color:#EEEEEE"/>
	</radialGradient>
	<polygon class="st10" points="284.2,61.7 285.7,64.3 374.8,10.6 	"/>
	<g>
		
			<radialGradient id="SVGID_3_" cx="-83.1792" cy="690.5778" r="11.7655" gradientTransform="matrix(0.4695 0.8829 -0.8829 0.4695 933.4382 -189.0243)" gradientUnits="userSpaceOnUse">
			<stop  offset="0.1405" style="stop-color:#FFFFFF"/>
			<stop  offset="0.22" style="stop-color:#F7F7F8"/>
			<stop  offset="0.3452" style="stop-color:#E0E0E4"/>
			<stop  offset="0.5005" style="stop-color:#BBBBC3"/>
			<stop  offset="0.6798" style="stop-color:#888896"/>
			<stop  offset="0.8769" style="stop-color:#47475D"/>
			<stop  offset="0.9892" style="stop-color:#1F1F39"/>
		</radialGradient>
		<polygon class="st11" points="285.3,74.7 281.7,67.2 273.5,65.9 279.5,60.1 278.2,51.9 285.5,55.9 292.9,52.1 291.4,60.3 
			297.3,66.1 289,67.2 		"/>
		
			<radialGradient id="SVGID_4_" cx="937.2216" cy="814.4345" r="12.8722" gradientTransform="matrix(-0.9903 0.1392 -0.1392 -0.9903 1327.5066 738.2303)" gradientUnits="userSpaceOnUse">
			<stop  offset="0" style="stop-color:#FFFFFF"/>
			<stop  offset="0.2838" style="stop-color:#F6F6F7"/>
			<stop  offset="0.6348" style="stop-color:#868694"/>
			<stop  offset="0.8849" style="stop-color:#3C3C52"/>
			<stop  offset="1" style="stop-color:#1F1F39"/>
		</radialGradient>
		<polygon class="st12" points="272.5,58 282.9,59.1 286,49.1 287.8,59 298.6,59.2 289.4,64.3 292.9,74.3 284.6,66.9 276.8,73.5 
			280.6,64.1 		"/>
	</g>
</g>
<radialGradient id="SVGID_5_" cx="437.7041" cy="287.2342" r="12.8722" gradientTransform="matrix(0.9397 0.342 -0.342 0.9397 148.667 -129.436)" gradientUnits="userSpaceOnUse">
	<stop  offset="0" style="stop-color:#FFFFFF"/>
	<stop  offset="0.2838" style="stop-color:#F6F6F7"/>
	<stop  offset="0.6348" style="stop-color:#868694"/>
	<stop  offset="0.8849" style="stop-color:#3C3C52"/>
	<stop  offset="1" style="stop-color:#1F1F39"/>
</radialGradient>
<polygon class="st13" points="471.7,300.2 463.1,294.3 455.7,301.7 458.7,292.1 449.3,286.9 459.8,286.7 461.4,276.3 465.2,286.7 
	475.2,284.5 467.4,291 "/>
<g>
	<g>
		
			<radialGradient id="SVGID_6_" cx="774.0951" cy="417.3314" r="11.7655" gradientTransform="matrix(0.866 -0.5 0.5 0.866 -156.8253 166.4259)" gradientUnits="userSpaceOnUse">
			<stop  offset="0.1405" style="stop-color:#FFFFFF"/>
			<stop  offset="0.22" style="stop-color:#F7F7F8"/>
			<stop  offset="0.3452" style="stop-color:#E0E0E4"/>
			<stop  offset="0.5005" style="stop-color:#BBBBC3"/>
			<stop  offset="0.6798" style="stop-color:#888896"/>
			<stop  offset="0.8769" style="stop-color:#47475D"/>
			<stop  offset="0.9892" style="stop-color:#1F1F39"/>
		</radialGradient>
		<polygon class="st14" points="735.1,139.7 727.8,143.6 726.8,151.8 720.8,146 712.6,147.6 716.3,140.2 712.3,132.9 720.5,134.1 
			726.2,128 727.6,136.2 		"/>
		
			<radialGradient id="SVGID_7_" cx="387.2489" cy="102.3159" r="12.8722" gradientTransform="matrix(0.1736 0.9848 -0.9848 0.1736 756.1116 -259.7631)" gradientUnits="userSpaceOnUse">
			<stop  offset="0" style="stop-color:#FFFFFF"/>
			<stop  offset="0.2838" style="stop-color:#F6F6F7"/>
			<stop  offset="0.6348" style="stop-color:#868694"/>
			<stop  offset="0.8849" style="stop-color:#3C3C52"/>
			<stop  offset="1" style="stop-color:#1F1F39"/>
		</radialGradient>
		<polygon class="st15" points="718.9,153 719.7,142.6 709.6,139.9 719.4,137.7 719.2,127 724.7,135.9 734.4,132.1 727.4,140.7 
			734.3,148.2 724.7,144.7 		"/>
	</g>
	
		<radialGradient id="SVGID_8_" cx="478.3334" cy="271.443" r="36.7848" gradientTransform="matrix(0.5 0.866 -2.3233 1.3413 1241.4775 -711.655)" gradientUnits="userSpaceOnUse">
		<stop  offset="0" style="stop-color:#FFFFFF"/>
		<stop  offset="0" style="stop-color:#FEFEFE"/>
		<stop  offset="0.101" style="stop-color:#FCFCFC"/>
		<stop  offset="0.1351" style="stop-color:#F6F6F7"/>
		<stop  offset="1" style="stop-color:#EEEEEE"/>
	</radialGradient>
	<polygon class="st16" points="728.4,135.1 729.9,137.7 970.6,-3.5 	"/>
</g>
<radialGradient id="SVGID_9_" cx="697.8755" cy="255.2324" r="5.8827" gradientTransform="matrix(4.489659e-11 -1 1 4.489659e-11 61.2891 874.285)" gradientUnits="userSpaceOnUse">
	<stop  offset="0.1405" style="stop-color:#FFFFFF"/>
	<stop  offset="0.22" style="stop-color:#F7F7F8"/>
	<stop  offset="0.3452" style="stop-color:#E0E0E4"/>
	<stop  offset="0.5005" style="stop-color:#BBBBC3"/>
	<stop  offset="0.6798" style="stop-color:#888896"/>
	<stop  offset="0.8769" style="stop-color:#47475D"/>
	<stop  offset="0.9892" style="stop-color:#1F1F39"/>
</radialGradient>
<polygon class="st17" points="319.3,170.6 319.1,174.7 322.4,177.2 318.4,178.3 317.1,182.3 314.8,178.8 310.6,178.7 313.2,175.5 
	312,171.5 315.9,172.9 "/>
<radialGradient id="SVGID_10_" cx="261.6656" cy="229.6856" r="6.4361" gradientTransform="matrix(0.9397 0.342 -0.342 0.9397 148.667 -129.436)" gradientUnits="userSpaceOnUse">
	<stop  offset="0" style="stop-color:#FFFFFF"/>
	<stop  offset="0.2838" style="stop-color:#F6F6F7"/>
	<stop  offset="0.6348" style="stop-color:#868694"/>
	<stop  offset="0.8849" style="stop-color:#3C3C52"/>
	<stop  offset="1" style="stop-color:#1F1F39"/>
</radialGradient>
<polygon class="st18" points="321,180.9 316.7,178 313,181.7 314.5,176.9 309.8,174.3 315,174.1 315.8,168.9 317.8,174.1 322.7,173 
	318.8,176.3 "/>
<radialGradient id="SVGID_11_" cx="359.6786" cy="300.2324" r="5.8827" gradientTransform="matrix(4.489659e-11 -1 1 4.489659e-11 61.2891 874.285)" gradientUnits="userSpaceOnUse">
	<stop  offset="0.1405" style="stop-color:#FFFFFF"/>
	<stop  offset="0.22" style="stop-color:#F7F7F8"/>
	<stop  offset="0.3452" style="stop-color:#E0E0E4"/>
	<stop  offset="0.5005" style="stop-color:#BBBBC3"/>
	<stop  offset="0.6798" style="stop-color:#888896"/>
	<stop  offset="0.8769" style="stop-color:#47475D"/>
	<stop  offset="0.9892" style="stop-color:#1F1F39"/>
</radialGradient>
<polygon class="st19" points="364.3,508.8 364.1,512.9 367.4,515.4 363.4,516.5 362.1,520.5 359.8,517 355.6,516.9 358.2,513.7 
	357,509.7 360.9,511.1 "/>
<radialGradient id="SVGID_12_" cx="419.6219" cy="532.0959" r="6.4361" gradientTransform="matrix(0.9397 0.342 -0.342 0.9397 148.667 -129.436)" gradientUnits="userSpaceOnUse">
	<stop  offset="0" style="stop-color:#FFFFFF"/>
	<stop  offset="0.2838" style="stop-color:#F6F6F7"/>
	<stop  offset="0.6348" style="stop-color:#868694"/>
	<stop  offset="0.8849" style="stop-color:#3C3C52"/>
	<stop  offset="1" style="stop-color:#1F1F39"/>
</radialGradient>
<polygon class="st20" points="366,519.1 361.7,516.2 358,519.9 359.5,515.1 354.8,512.5 360,512.3 360.8,507.1 362.8,512.3 
	367.7,511.2 363.8,514.5 "/>
<radialGradient id="SVGID_13_" cx="786.6786" cy="836.2324" r="5.8827" gradientTransform="matrix(4.489659e-11 -1 1 4.489659e-11 61.2891 874.285)" gradientUnits="userSpaceOnUse">
	<stop  offset="0.1405" style="stop-color:#FFFFFF"/>
	<stop  offset="0.22" style="stop-color:#F7F7F8"/>
	<stop  offset="0.3452" style="stop-color:#E0E0E4"/>
	<stop  offset="0.5005" style="stop-color:#BBBBC3"/>
	<stop  offset="0.6798" style="stop-color:#888896"/>
	<stop  offset="0.8769" style="stop-color:#47475D"/>
	<stop  offset="0.9892" style="stop-color:#1F1F39"/>
</radialGradient>
<polygon class="st21" points="900.3,81.8 900.1,85.9 903.4,88.4 899.4,89.5 898.1,93.5 895.8,90 891.6,89.9 894.2,86.7 893,82.7 
	896.9,84.1 "/>
<radialGradient id="SVGID_14_" cx="777.2546" cy="-52.4756" r="6.4361" gradientTransform="matrix(0.9397 0.342 -0.342 0.9397 148.667 -129.436)" gradientUnits="userSpaceOnUse">
	<stop  offset="0" style="stop-color:#FFFFFF"/>
	<stop  offset="0.2838" style="stop-color:#F6F6F7"/>
	<stop  offset="0.6348" style="stop-color:#868694"/>
	<stop  offset="0.8849" style="stop-color:#3C3C52"/>
	<stop  offset="1" style="stop-color:#1F1F39"/>
</radialGradient>
<polygon class="st22" points="902,92.1 897.7,89.2 894,92.9 895.5,88.1 890.8,85.5 896,85.3 896.8,80.1 898.8,85.3 903.7,84.2 
	899.8,87.5 "/>
<radialGradient id="SVGID_15_" cx="216.6786" cy="339.2324" r="5.8827" gradientTransform="matrix(4.489659e-11 -1 1 4.489659e-11 61.2891 874.285)" gradientUnits="userSpaceOnUse">
	<stop  offset="0.1405" style="stop-color:#FFFFFF"/>
	<stop  offset="0.22" style="stop-color:#F7F7F8"/>
	<stop  offset="0.3452" style="stop-color:#E0E0E4"/>
	<stop  offset="0.5005" style="stop-color:#BBBBC3"/>
	<stop  offset="0.6798" style="stop-color:#888896"/>
	<stop  offset="0.8769" style="stop-color:#47475D"/>
	<stop  offset="0.9892" style="stop-color:#1F1F39"/>
</radialGradient>
<polygon class="st23" points="403.3,651.8 403.1,655.9 406.4,658.4 402.4,659.5 401.1,663.5 398.8,660 394.6,659.9 397.2,656.7 
	396,652.7 399.9,654.1 "/>
<radialGradient id="SVGID_16_" cx="505.1788" cy="653.1332" r="6.4361" gradientTransform="matrix(0.9397 0.342 -0.342 0.9397 148.667 -129.436)" gradientUnits="userSpaceOnUse">
	<stop  offset="0" style="stop-color:#FFFFFF"/>
	<stop  offset="0.2838" style="stop-color:#F6F6F7"/>
	<stop  offset="0.6348" style="stop-color:#868694"/>
	<stop  offset="0.8849" style="stop-color:#3C3C52"/>
	<stop  offset="1" style="stop-color:#1F1F39"/>
</radialGradient>
<polygon class="st24" points="405,662.1 400.7,659.2 397,662.9 398.5,658.1 393.8,655.5 399,655.3 399.8,650.1 401.8,655.3 
	406.7,654.2 402.8,657.5 "/>
<radialGradient id="SVGID_17_" cx="468.6786" cy="268.2324" r="5.8827" gradientTransform="matrix(4.489659e-11 -1 1 4.489659e-11 61.2891 874.285)" gradientUnits="userSpaceOnUse">
	<stop  offset="0.1405" style="stop-color:#FFFFFF"/>
	<stop  offset="0.22" style="stop-color:#F7F7F8"/>
	<stop  offset="0.3452" style="stop-color:#E0E0E4"/>
	<stop  offset="0.5005" style="stop-color:#BBBBC3"/>
	<stop  offset="0.6798" style="stop-color:#888896"/>
	<stop  offset="0.8769" style="stop-color:#47475D"/>
	<stop  offset="0.9892" style="stop-color:#1F1F39"/>
</radialGradient>
<polygon class="st25" points="332.3,399.8 332.1,403.9 335.4,406.4 331.4,407.5 330.1,411.5 327.8,408 323.6,407.9 326.2,404.7 
	325,400.7 328.9,402.1 "/>
<radialGradient id="SVGID_18_" cx="352.2716" cy="440.614" r="6.4361" gradientTransform="matrix(0.9397 0.342 -0.342 0.9397 148.667 -129.436)" gradientUnits="userSpaceOnUse">
	<stop  offset="0" style="stop-color:#FFFFFF"/>
	<stop  offset="0.2838" style="stop-color:#F6F6F7"/>
	<stop  offset="0.6348" style="stop-color:#868694"/>
	<stop  offset="0.8849" style="stop-color:#3C3C52"/>
	<stop  offset="1" style="stop-color:#1F1F39"/>
</radialGradient>
<polygon class="st26" points="334,410.1 329.7,407.2 326,410.9 327.5,406.1 322.8,403.5 328,403.3 328.8,398.1 330.8,403.3 
	335.7,402.2 331.8,405.5 "/>
<radialGradient id="SVGID_19_" cx="841.6786" cy="661.2324" r="5.8827" gradientTransform="matrix(4.489659e-11 -1 1 4.489659e-11 61.2891 874.285)" gradientUnits="userSpaceOnUse">
	<stop  offset="0.1405" style="stop-color:#FFFFFF"/>
	<stop  offset="0.22" style="stop-color:#F7F7F8"/>
	<stop  offset="0.3452" style="stop-color:#E0E0E4"/>
	<stop  offset="0.5005" style="stop-color:#BBBBC3"/>
	<stop  offset="0.6798" style="stop-color:#888896"/>
	<stop  offset="0.8769" style="stop-color:#47475D"/>
	<stop  offset="0.9892" style="stop-color:#1F1F39"/>
</radialGradient>
<polygon class="st27" points="725.3,26.8 725.1,30.9 728.4,33.4 724.4,34.5 723.1,38.5 720.8,35 716.6,34.9 719.2,31.7 718,27.7 
	721.9,29.1 "/>
<radialGradient id="SVGID_20_" cx="593.9973" cy="-44.3052" r="6.4361" gradientTransform="matrix(0.9397 0.342 -0.342 0.9397 148.667 -129.436)" gradientUnits="userSpaceOnUse">
	<stop  offset="0" style="stop-color:#FFFFFF"/>
	<stop  offset="0.2838" style="stop-color:#F6F6F7"/>
	<stop  offset="0.6348" style="stop-color:#868694"/>
	<stop  offset="0.8849" style="stop-color:#3C3C52"/>
	<stop  offset="1" style="stop-color:#1F1F39"/>
</radialGradient>
<polygon class="st28" points="727,37.1 722.7,34.2 719,37.9 720.5,33.1 715.8,30.5 721,30.3 721.8,25.1 723.8,30.3 728.7,29.2 
	724.8,32.5 "/>
<radialGradient id="SVGID_21_" cx="138.6786" cy="776.2324" r="5.8827" gradientTransform="matrix(4.489659e-11 -1 1 4.489659e-11 61.2891 874.285)" gradientUnits="userSpaceOnUse">
	<stop  offset="0.1405" style="stop-color:#FFFFFF"/>
	<stop  offset="0.22" style="stop-color:#F7F7F8"/>
	<stop  offset="0.3452" style="stop-color:#E0E0E4"/>
	<stop  offset="0.5005" style="stop-color:#BBBBC3"/>
	<stop  offset="0.6798" style="stop-color:#888896"/>
	<stop  offset="0.8769" style="stop-color:#47475D"/>
	<stop  offset="0.9892" style="stop-color:#1F1F39"/>
</radialGradient>
<polygon class="st29" points="840.3,729.8 840.1,733.9 843.4,736.4 839.4,737.5 838.1,741.5 835.8,738 831.6,737.9 834.2,734.7 
	833,730.7 836.9,732.1 "/>
<radialGradient id="SVGID_22_" cx="942.5021" cy="576.9664" r="6.4361" gradientTransform="matrix(0.9397 0.342 -0.342 0.9397 148.667 -129.436)" gradientUnits="userSpaceOnUse">
	<stop  offset="0" style="stop-color:#FFFFFF"/>
	<stop  offset="0.2838" style="stop-color:#F6F6F7"/>
	<stop  offset="0.6348" style="stop-color:#868694"/>
	<stop  offset="0.8849" style="stop-color:#3C3C52"/>
	<stop  offset="1" style="stop-color:#1F1F39"/>
</radialGradient>
<polygon class="st30" points="842,740.1 837.7,737.2 834,740.9 835.5,736.1 830.8,733.5 836,733.3 836.8,728.1 838.8,733.3 
	843.7,732.2 839.8,735.5 "/>
<radialGradient id="SVGID_23_" cx="663.6786" cy="776.2324" r="5.8827" gradientTransform="matrix(4.489659e-11 -1 1 4.489659e-11 61.2891 874.285)" gradientUnits="userSpaceOnUse">
	<stop  offset="0.1405" style="stop-color:#FFFFFF"/>
	<stop  offset="0.22" style="stop-color:#F7F7F8"/>
	<stop  offset="0.3452" style="stop-color:#E0E0E4"/>
	<stop  offset="0.5005" style="stop-color:#BBBBC3"/>
	<stop  offset="0.6798" style="stop-color:#888896"/>
	<stop  offset="0.8769" style="stop-color:#47475D"/>
	<stop  offset="0.9892" style="stop-color:#1F1F39"/>
</radialGradient>
<polygon class="st31" points="840.3,204.8 840.1,208.9 843.4,211.4 839.4,212.5 838.1,216.5 835.8,213 831.6,212.9 834.2,209.7 
	833,205.7 836.9,207.1 "/>
<radialGradient id="SVGID_24_" cx="762.9415" cy="83.6278" r="6.4361" gradientTransform="matrix(0.9397 0.342 -0.342 0.9397 148.667 -129.436)" gradientUnits="userSpaceOnUse">
	<stop  offset="0" style="stop-color:#FFFFFF"/>
	<stop  offset="0.2838" style="stop-color:#F6F6F7"/>
	<stop  offset="0.6348" style="stop-color:#868694"/>
	<stop  offset="0.8849" style="stop-color:#3C3C52"/>
	<stop  offset="1" style="stop-color:#1F1F39"/>
</radialGradient>
<polygon class="st32" points="842,215.1 837.7,212.2 834,215.9 835.5,211.1 830.8,208.5 836,208.3 836.8,203.1 838.8,208.3 
	843.7,207.2 839.8,210.5 "/>
<radialGradient id="SVGID_25_" cx="404.0803" cy="129.0996" r="2.9414" gradientTransform="matrix(4.489659e-11 -1 1 4.489659e-11 61.2891 874.285)" gradientUnits="userSpaceOnUse">
	<stop  offset="0.1405" style="stop-color:#FFFFFF"/>
	<stop  offset="0.22" style="stop-color:#F7F7F8"/>
	<stop  offset="0.3452" style="stop-color:#E0E0E4"/>
	<stop  offset="0.5005" style="stop-color:#BBBBC3"/>
	<stop  offset="0.6798" style="stop-color:#888896"/>
	<stop  offset="0.8769" style="stop-color:#47475D"/>
	<stop  offset="0.9892" style="stop-color:#1F1F39"/>
</radialGradient>
<polygon class="st33" points="191.8,467.3 191.7,469.4 193.3,470.6 191.3,471.2 190.7,473.1 189.5,471.4 187.4,471.4 188.7,469.7 
	188.1,467.8 190.1,468.5 "/>
<radialGradient id="SVGID_26_" cx="243.9591" cy="549.0556" r="3.218" gradientTransform="matrix(0.9397 0.342 -0.342 0.9397 148.667 -129.436)" gradientUnits="userSpaceOnUse">
	<stop  offset="0" style="stop-color:#FFFFFF"/>
	<stop  offset="0.2838" style="stop-color:#F6F6F7"/>
	<stop  offset="0.6348" style="stop-color:#868694"/>
	<stop  offset="0.8849" style="stop-color:#3C3C52"/>
	<stop  offset="1" style="stop-color:#1F1F39"/>
</radialGradient>
<polygon class="st34" points="192.6,472.5 190.5,471 188.6,472.8 189.4,470.4 187,469.1 189.6,469.1 190,466.5 191,469.1 
	193.5,468.5 191.6,470.2 "/>
<radialGradient id="SVGID_27_" cx="847.0721" cy="375.498" r="11.7655" gradientTransform="matrix(4.489659e-11 -1 1 4.489659e-11 61.2891 874.285)" gradientUnits="userSpaceOnUse">
	<stop  offset="0.1405" style="stop-color:#FFFFFF"/>
	<stop  offset="0.22" style="stop-color:#F7F7F8"/>
	<stop  offset="0.3452" style="stop-color:#E0E0E4"/>
	<stop  offset="0.5005" style="stop-color:#BBBBC3"/>
	<stop  offset="0.6798" style="stop-color:#888896"/>
	<stop  offset="0.8769" style="stop-color:#47475D"/>
	<stop  offset="0.9892" style="stop-color:#1F1F39"/>
</radialGradient>
<polygon class="st35" points="442.3,15.5 441.9,23.8 448.6,28.8 440.6,31.1 437.9,38.9 433.3,32 425,31.9 430.1,25.3 427.7,17.4 
	435.5,20.3 "/>
<radialGradient id="SVGID_28_" cx="322.9788" cy="48.0479" r="12.8722" gradientTransform="matrix(0.9397 0.342 -0.342 0.9397 148.667 -129.436)" gradientUnits="userSpaceOnUse">
	<stop  offset="0" style="stop-color:#FFFFFF"/>
	<stop  offset="0.2838" style="stop-color:#F6F6F7"/>
	<stop  offset="0.6348" style="stop-color:#868694"/>
	<stop  offset="0.8849" style="stop-color:#3C3C52"/>
	<stop  offset="1" style="stop-color:#1F1F39"/>
</radialGradient>
<polygon class="st36" points="445.7,36.2 437.1,30.3 429.7,37.7 432.7,28.1 423.3,22.9 433.8,22.7 435.4,12.3 439.2,22.7 
	449.2,20.5 441.4,27 "/>
<radialGradient id="SVGID_29_" cx="677.5541" cy="587.3386" r="8.2358" gradientTransform="matrix(4.489659e-11 -1 1 4.489659e-11 61.2891 874.285)" gradientUnits="userSpaceOnUse">
	<stop  offset="0.1405" style="stop-color:#FFFFFF"/>
	<stop  offset="0.22" style="stop-color:#F7F7F8"/>
	<stop  offset="0.3452" style="stop-color:#E0E0E4"/>
	<stop  offset="0.5005" style="stop-color:#BBBBC3"/>
	<stop  offset="0.6798" style="stop-color:#888896"/>
	<stop  offset="0.8769" style="stop-color:#47475D"/>
	<stop  offset="0.9892" style="stop-color:#1F1F39"/>
</radialGradient>
<polygon class="st37" points="652.5,188.5 652.2,194.4 656.9,197.8 651.3,199.4 649.4,204.9 646.2,200.1 640.4,200 644,195.4 
	642.3,189.9 647.7,191.9 "/>
<radialGradient id="SVGID_30_" cx="580.4252" cy="135.0722" r="9.0105" gradientTransform="matrix(0.9397 0.342 -0.342 0.9397 148.667 -129.436)" gradientUnits="userSpaceOnUse">
	<stop  offset="0" style="stop-color:#FFFFFF"/>
	<stop  offset="0.2838" style="stop-color:#F6F6F7"/>
	<stop  offset="0.6348" style="stop-color:#868694"/>
	<stop  offset="0.8849" style="stop-color:#3C3C52"/>
	<stop  offset="1" style="stop-color:#1F1F39"/>
</radialGradient>
<polygon class="st38" points="654.9,203 648.8,198.9 643.6,204.1 645.8,197.4 639.2,193.7 646.5,193.5 647.6,186.3 650.4,193.5 
	657.3,192 651.9,196.6 "/>
<g>
	
		<radialGradient id="SVGID_31_" cx="289.8916" cy="559.2271" r="5.7651" gradientTransform="matrix(4.489659e-11 -1 1 4.489659e-11 61.2891 874.285)" gradientUnits="userSpaceOnUse">
		<stop  offset="0.1405" style="stop-color:#FFFFFF"/>
		<stop  offset="0.22" style="stop-color:#F7F7F8"/>
		<stop  offset="0.3452" style="stop-color:#E0E0E4"/>
		<stop  offset="0.5005" style="stop-color:#BBBBC3"/>
		<stop  offset="0.6798" style="stop-color:#888896"/>
		<stop  offset="0.8769" style="stop-color:#47475D"/>
		<stop  offset="0.9892" style="stop-color:#1F1F39"/>
	</radialGradient>
	<polygon class="st39" points="623.2,578.7 623,582.7 626.3,585.2 622.4,586.3 621.1,590.1 618.8,586.7 614.7,586.7 617.3,583.5 
		616.1,579.6 619.9,581 	"/>
	
		<radialGradient id="SVGID_32_" cx="686.8793" cy="509.0989" r="6.3074" gradientTransform="matrix(0.9397 0.342 -0.342 0.9397 148.667 -129.436)" gradientUnits="userSpaceOnUse">
		<stop  offset="0" style="stop-color:#FFFFFF"/>
		<stop  offset="0.2838" style="stop-color:#F6F6F7"/>
		<stop  offset="0.6348" style="stop-color:#868694"/>
		<stop  offset="0.8849" style="stop-color:#3C3C52"/>
		<stop  offset="1" style="stop-color:#1F1F39"/>
	</radialGradient>
	<polygon class="st40" points="624.9,588.8 620.7,585.9 617,589.5 618.5,584.8 613.9,582.3 619,582.2 619.8,577.1 621.7,582.2 
		626.6,581.1 622.8,584.3 	"/>
</g>
<radialGradient id="SVGID_33_" cx="214.6247" cy="72.3153" r="7.7193" gradientTransform="matrix(4.489659e-11 -1 1 4.489659e-11 61.2891 874.285)" gradientUnits="userSpaceOnUse">
	<stop  offset="0.1405" style="stop-color:#FFFFFF"/>
	<stop  offset="0.22" style="stop-color:#F7F7F8"/>
	<stop  offset="0.3452" style="stop-color:#E0E0E4"/>
	<stop  offset="0.5005" style="stop-color:#BBBBC3"/>
	<stop  offset="0.6798" style="stop-color:#888896"/>
	<stop  offset="0.8769" style="stop-color:#47475D"/>
	<stop  offset="0.9892" style="stop-color:#1F1F39"/>
</radialGradient>
<polygon class="st41" points="137.2,652 137,657.4 141.4,660.7 136.1,662.2 134.3,667.3 131.3,662.8 125.9,662.7 129.2,658.4 
	127.6,653.2 132.7,655.1 "/>
<radialGradient id="SVGID_34_" cx="254.8517" cy="746.2588" r="8.4454" gradientTransform="matrix(0.9397 0.342 -0.342 0.9397 148.667 -129.436)" gradientUnits="userSpaceOnUse">
	<stop  offset="0" style="stop-color:#FFFFFF"/>
	<stop  offset="0.2838" style="stop-color:#F6F6F7"/>
	<stop  offset="0.6348" style="stop-color:#868694"/>
	<stop  offset="0.8849" style="stop-color:#3C3C52"/>
	<stop  offset="1" style="stop-color:#1F1F39"/>
</radialGradient>
<polygon class="st42" points="139.5,665.6 133.8,661.7 128.9,666.6 130.9,660.3 124.7,656.9 131.6,656.7 132.7,649.9 135.2,656.7 
	141.8,655.3 136.7,659.5 "/>
<g>
	<g>
		
			<radialGradient id="SVGID_35_" cx="271.7586" cy="777.4037" r="11.7655" gradientTransform="matrix(0.866 -0.5 0.5 0.866 -156.8253 166.4259)" gradientUnits="userSpaceOnUse">
			<stop  offset="0.1405" style="stop-color:#FFFFFF"/>
			<stop  offset="0.22" style="stop-color:#F7F7F8"/>
			<stop  offset="0.3452" style="stop-color:#E0E0E4"/>
			<stop  offset="0.5005" style="stop-color:#BBBBC3"/>
			<stop  offset="0.6798" style="stop-color:#888896"/>
			<stop  offset="0.8769" style="stop-color:#47475D"/>
			<stop  offset="0.9892" style="stop-color:#1F1F39"/>
		</radialGradient>
		<polygon class="st43" points="480.1,702.7 472.8,706.6 471.8,714.8 465.8,709 457.6,710.6 461.3,703.2 457.3,695.9 465.5,697.1 
			471.2,691 472.6,699.2 		"/>
		
			<radialGradient id="SVGID_36_" cx="897.4154" cy="451.2058" r="12.8722" gradientTransform="matrix(0.1736 0.9848 -0.9848 0.1736 756.1116 -259.7631)" gradientUnits="userSpaceOnUse">
			<stop  offset="0" style="stop-color:#FFFFFF"/>
			<stop  offset="0.2838" style="stop-color:#F6F6F7"/>
			<stop  offset="0.6348" style="stop-color:#868694"/>
			<stop  offset="0.8849" style="stop-color:#3C3C52"/>
			<stop  offset="1" style="stop-color:#1F1F39"/>
		</radialGradient>
		<polygon class="st44" points="463.9,716 464.7,705.6 454.6,702.9 464.4,700.7 464.2,690 469.7,698.9 479.4,695.1 472.4,703.7 
			479.3,711.2 469.7,707.7 		"/>
	</g>
	
		<radialGradient id="SVGID_37_" cx="838.4057" cy="458.6939" r="36.7848" gradientTransform="matrix(0.5 0.866 -2.3233 1.3413 1241.4775 -711.655)" gradientUnits="userSpaceOnUse">
		<stop  offset="0" style="stop-color:#FFFFFF"/>
		<stop  offset="0" style="stop-color:#FEFEFE"/>
		<stop  offset="0.101" style="stop-color:#FCFCFC"/>
		<stop  offset="0.1351" style="stop-color:#F6F6F7"/>
		<stop  offset="1" style="stop-color:#EEEEEE"/>
	</radialGradient>
	<polygon class="st45" points="473.4,698.1 474.9,700.7 715.6,559.5 	"/>
</g>
<radialGradient id="SVGID_38_" cx="386.6786" cy="553.2324" r="5.8827" gradientTransform="matrix(4.489659e-11 -1 1 4.489659e-11 61.2891 874.285)" gradientUnits="userSpaceOnUse">
	<stop  offset="0.1405" style="stop-color:#FFFFFF"/>
	<stop  offset="0.22" style="stop-color:#F7F7F8"/>
	<stop  offset="0.3452" style="stop-color:#E0E0E4"/>
	<stop  offset="0.5005" style="stop-color:#BBBBC3"/>
	<stop  offset="0.6798" style="stop-color:#888896"/>
	<stop  offset="0.8769" style="stop-color:#47475D"/>
	<stop  offset="0.9892" style="stop-color:#1F1F39"/>
</radialGradient>
<polygon class="st46" points="617.3,481.8 617.1,485.9 620.4,488.4 616.4,489.5 615.1,493.5 612.8,490 608.6,489.9 611.2,486.7 
	610,482.7 613.9,484.1 "/>
<radialGradient id="SVGID_39_" cx="648.1296" cy="420.1931" r="6.4361" gradientTransform="matrix(0.9397 0.342 -0.342 0.9397 148.667 -129.436)" gradientUnits="userSpaceOnUse">
	<stop  offset="0" style="stop-color:#FFFFFF"/>
	<stop  offset="0.2838" style="stop-color:#F6F6F7"/>
	<stop  offset="0.6348" style="stop-color:#868694"/>
	<stop  offset="0.8849" style="stop-color:#3C3C52"/>
	<stop  offset="1" style="stop-color:#1F1F39"/>
</radialGradient>
<polygon class="st47" points="619,492.1 614.7,489.2 611,492.9 612.5,488.1 607.8,485.5 613,485.3 613.8,480.1 615.8,485.3 
	620.7,484.2 616.8,487.5 "/>
<g>
	<g>
		
			<radialGradient id="SVGID_40_" cx="320.5199" cy="508.7832" r="5.8827" gradientTransform="matrix(0.866 -0.5 0.5 0.866 -156.8253 166.4259)" gradientUnits="userSpaceOnUse">
			<stop  offset="0.1405" style="stop-color:#FFFFFF"/>
			<stop  offset="0.22" style="stop-color:#F7F7F8"/>
			<stop  offset="0.3452" style="stop-color:#E0E0E4"/>
			<stop  offset="0.5005" style="stop-color:#BBBBC3"/>
			<stop  offset="0.6798" style="stop-color:#888896"/>
			<stop  offset="0.8769" style="stop-color:#47475D"/>
			<stop  offset="0.9892" style="stop-color:#1F1F39"/>
		</radialGradient>
		<polygon class="st48" points="381.6,446.2 377.9,448.2 377.4,452.3 374.4,449.4 370.4,450.2 372.2,446.5 370.2,442.8 374.3,443.4 
			377.1,440.4 377.8,444.5 		"/>
		
			<radialGradient id="SVGID_41_" cx="628.9887" cy="497.5644" r="6.4361" gradientTransform="matrix(0.1736 0.9848 -0.9848 0.1736 756.1116 -259.7631)" gradientUnits="userSpaceOnUse">
			<stop  offset="0" style="stop-color:#FFFFFF"/>
			<stop  offset="0.2838" style="stop-color:#F6F6F7"/>
			<stop  offset="0.6348" style="stop-color:#868694"/>
			<stop  offset="0.8849" style="stop-color:#3C3C52"/>
			<stop  offset="1" style="stop-color:#1F1F39"/>
		</radialGradient>
		<polygon class="st49" points="373.5,452.9 373.9,447.7 368.8,446.3 373.7,445.2 373.6,439.9 376.4,444.3 381.3,442.4 377.7,446.7 
			381.2,450.5 376.4,448.8 		"/>
	</g>
	
		<radialGradient id="SVGID_42_" cx="569.9288" cy="468.0484" r="18.3924" gradientTransform="matrix(0.5 0.866 -2.3233 1.3413 1241.4775 -711.655)" gradientUnits="userSpaceOnUse">
		<stop  offset="0" style="stop-color:#FFFFFF"/>
		<stop  offset="0" style="stop-color:#FEFEFE"/>
		<stop  offset="0.101" style="stop-color:#FCFCFC"/>
		<stop  offset="0.1351" style="stop-color:#F6F6F7"/>
		<stop  offset="1" style="stop-color:#EEEEEE"/>
	</radialGradient>
	<polygon class="st50" points="378.3,444 379,445.3 499.3,374.6 	"/>
</g>
<radialGradient id="SVGID_43_" cx="338.6786" cy="154.2324" r="5.8827" gradientTransform="matrix(4.489659e-11 -1 1 4.489659e-11 61.2891 874.285)" gradientUnits="userSpaceOnUse">
	<stop  offset="0.1405" style="stop-color:#FFFFFF"/>
	<stop  offset="0.22" style="stop-color:#F7F7F8"/>
	<stop  offset="0.3452" style="stop-color:#E0E0E4"/>
	<stop  offset="0.5005" style="stop-color:#BBBBC3"/>
	<stop  offset="0.6798" style="stop-color:#888896"/>
	<stop  offset="0.8769" style="stop-color:#47475D"/>
	<stop  offset="0.9892" style="stop-color:#1F1F39"/>
</radialGradient>
<polygon class="st51" points="218.3,529.8 218.1,533.9 221.4,536.4 217.4,537.5 216.1,541.5 213.8,538 209.6,537.9 212.2,534.7 
	211,530.7 214.9,532.1 "/>
<radialGradient id="SVGID_44_" cx="289.6093" cy="601.7644" r="6.4361" gradientTransform="matrix(0.9397 0.342 -0.342 0.9397 148.667 -129.436)" gradientUnits="userSpaceOnUse">
	<stop  offset="0" style="stop-color:#FFFFFF"/>
	<stop  offset="0.2838" style="stop-color:#F6F6F7"/>
	<stop  offset="0.6348" style="stop-color:#868694"/>
	<stop  offset="0.8849" style="stop-color:#3C3C52"/>
	<stop  offset="1" style="stop-color:#1F1F39"/>
</radialGradient>
<polygon class="st52" points="220,540.1 215.7,537.2 212,540.9 213.5,536.1 208.8,533.5 214,533.3 214.8,528.1 216.8,533.3 
	221.7,532.2 217.8,535.5 "/>
</svg>
