<?xml version="1.0" encoding="utf-8"?>
<!-- Generator: Adobe Illustrator 21.0.2, SVG Export Plug-In . SVG Version: 6.00 Build 0)  -->
<svg version="1.1" id="Layer_1" xmlns="http://www.w3.org/2000/svg" xmlns:xlink="http://www.w3.org/1999/xlink" x="0px" y="0px"
	 viewBox="0 0 677 768" style="enable-background:new 0 0 677 768;" xml:space="preserve">
<style type="text/css">
	.st0{fill:#1500E9;}
	.st1{fill:#D5E539;}
	.st2{fill:#9DFF15;}
</style>
<g>
	<g>
		<path d="M0,495.5c42.6-0.7,85.3-1.4,127.9-2.1c6.1-0.1,12.1-0.2,18.2-0.3c-1-0.7-1.9-1.5-2.9-2.2c1.9,4.5,3.8,9,5.6,13.4
			c1,2.3,1.9,4.6,2.9,6.8c0.3,0.6,0.6,1.3,0.8,1.9c0,0.1-0.1-1.1,0,0.1c0.9,11,0,22.4,0,33.4c0,18.3-0.7,36.6-1.3,54.9
			c0,0.5-0.3,9-0.3,9c0.3-0.7,0.5-1.3,0.8-2c-0.3,0.2-0.6,0.5-0.8,0.7c-0.4,0.1-1.1,0.9-1.4,1.1c-0.6,0.5-3.1,1.9-3.4,2.7
			c-0.3,0.7,1.7-0.3,1.3-0.5c-0.3-0.2-1.2,0-1.5,0c-10.9-0.6-22.1,0-33,0c-15,0-30,0.2-45.1,0.5c-22.6,0.5-45.2,1-67.8,1.5
			c1,1,2,2,3,3c0-36.5,0-72.9,0-109.4c0-5.2,0-10.4,0-15.6c0-3.9-6-3.9-6,0c0,36.5,0,72.9,0,109.4c0,5.2,0,10.4,0,15.6
			c0,1.6,1.4,3,3,3c35.7-0.8,71.5-2,107.2-2c12.1,0,24.3,0,36.4,0c3,0,4.9,0.3,7.3-1.7c3.2-2.6,5.9-4,6.1-8.2
			c0.8-18.1,1.5-36.3,1.5-54.4c0-13.2,0-26.4,0-39.6c0-3.5-1.4-6.1-2.8-9.3c-2.2-5.3-4.5-10.7-6.7-16c-0.5-1.2-1.5-2.2-2.9-2.2
			c-42.6,0.7-85.3,1.4-127.9,2.1c-6.1,0.1-12.1,0.2-18.2,0.3C-3.9,489.6-3.9,495.6,0,495.5z"/>
	</g>
</g>
<g>
	<polygon class="st0" points="176.5,437.5 184.5,523.5 184.5,593.5 172.5,659.5 149.5,659.5 154.5,592.5 155.5,523.5 149.5,441.5 	
		"/>
	<g>
		<path d="M173.5,437.5c1.3,14.5,2.7,29,4,43.5c1.3,14.1,3.3,28.4,4,42.5c0.7,16,0,32.2,0,48.2c0,7,0.1,14.1,0,21.1
			c0,1,0.1,0.3,0.1,0c-0.1,0.7-0.3,1.4-0.4,2.1c-0.6,3.3-1.2,6.6-1.8,9.8c-3.3,18-6.5,36-9.8,54c1-0.7,1.9-1.5,2.9-2.2
			c-7.7,0-15.3,0-23,0c1,1,2,2,3,3c2-26.3,4.8-52.6,5.2-78.9c0.3-18.1,0.5-36.2,0.8-54.3c0.2-11.1-1.4-22.4-2.2-33.4
			c-1.3-17.1-2.5-34.2-3.8-51.3c-0.7,1-1.5,1.9-2.2,2.9c9-1.3,18-2.7,27-4c3.8-0.6,2.2-6.3-1.6-5.8c-9,1.3-18,2.7-27,4
			c-1.2,0.2-2.3,1.7-2.2,2.9c1,14.3,2.1,28.7,3.1,43c1,13.1,2.6,26.3,2.8,39.4c0.4,16.6-0.5,33.4-0.7,50c-0.2,10.6-0.4,21-1.2,31.6
			c-1.3,18-2.7,36-4,54c-0.1,1.6,1.5,3,3,3c7.7,0,15.3,0,23,0c1.2,0,2.7-0.9,2.9-2.2c2.9-15.9,5.8-31.8,8.7-47.7
			c1.1-6,2.6-12.1,3.3-18.2c0.6-4.7,0.1-9.6,0.1-14.3c0-18.2,0.1-36.5,0-54.7c-0.1-11.9-2.1-24.1-3.2-35.9
			c-1.6-17.3-3.2-34.6-4.8-51.9C179.1,433.7,173.1,433.7,173.5,437.5z"/>
	</g>
</g>
<g>
	<polygon class="st1" points="200.5,659.5 213.5,610.5 212.8,510.8 207.8,448.8 194.5,437.5 176.5,437.5 184.5,515 184.5,593.5 
		172.5,659.5 	"/>
	<g>
		<path d="M203.4,660.3c2.1-7.9,4.2-15.7,6.2-23.6c2.2-8.3,5.4-16.9,6.7-25.4c0.7-4.5,0.1-9.4,0-13.9c-0.1-10.9-0.2-21.9-0.2-32.8
			c-0.1-17.8,0.4-35.8-0.4-53.7c-0.7-17.4-2.8-34.8-4.2-52.1c-0.3-3.2-0.1-6.7-0.8-9.9c-0.8-3.8-5.8-6.5-8.6-8.9
			c-3.3-2.8-5.5-5.6-9.9-5.6c-5.2,0-10.5,0-15.7,0c-1.5,0-3.2,1.4-3,3c1.6,15.2,3.1,30.4,4.7,45.7c1.2,11.5,3.3,23.3,3.3,34.9
			c0,18.5,0,36.9,0,55.4c0,6.5,0,13,0,19.5c0,1,0.1,0.1,0.1-0.1c-0.1,0.7-0.3,1.4-0.4,2.1c-0.6,3.3-1.2,6.6-1.8,9.8
			c-3.3,18-6.5,36-9.8,54c-0.3,1.9,0.8,3.8,2.9,3.8c9.3,0,18.7,0,28,0c3.9,0,3.9-6,0-6c-9.3,0-18.7,0-28,0c1,1.3,1.9,2.5,2.9,3.8
			c2.9-15.9,5.8-31.8,8.7-47.7c1.1-6,2.6-12.1,3.3-18.2c0.5-4.3,0.1-8.8,0.1-13.1c0-19.5,0-39,0-58.4c0-10.6-1.4-21-2.4-31.5
			c-1.9-17.9-3.7-35.9-5.6-53.8c-1,1-2,2-3,3c4.4,0,8.9,0,13.3,0c1,0,2.7,0.3,3.6,0c0.1,0,0.7,0.1,0.8,0c0,0,0.1,0,0.1,0
			c0.8,0,0.2-0.3-1.9-0.8c-0.1,0.1,4.2,3.6,4.4,3.7c2,1.7,4,3.4,6,5.1c0.6,0.5,1.5,1.6,2.2,1.9c1.7,0.7-0.8-0.9-0.2-1.5
			c-0.7,0.8,0.5,6.7,0.6,7.8c1.5,18,3.6,36.1,4.4,54.1c0.7,15.6,0.2,31.3,0.3,46.9c0.1,17.4,1.1,35,0.4,52.4c0,1.2,0.3-1.2-0.1,0.4
			c-0.4,1.5-0.8,3-1.2,4.4c-1.5,5.7-3,11.3-4.5,17c-2.4,9-4.8,17.9-7.1,26.9C196.6,662.5,202.4,664.1,203.4,660.3z"/>
	</g>
</g>
<g>
	<g>
		<path d="M235.6,490.3c2.9,16.8,5.7,33.6,8.7,50.4c0.1,0.4,0.3,2.6,0.2,0.9c0,0.9,0,1.9,0,2.8c0,4.9,0,9.8,0,14.7
			c0,5.7,0,11.3,0,17c0,1.8,0,3.6,0,5.4c0,0.5-0.1,3.1,0.1,1.4c-0.9,9-3.3,18-5,26.9c1-0.7,1.9-1.5,2.9-2.2c-9.7,0-19.3,0-29,0
			c1,1,2,2,3,3c0-32.5-0.3-64.9-1.5-97.4c-0.3-7.9-0.6-15.8-0.9-23.6c-1,1-2,2-3,3c9.1,0,18.3,0,27.4,0c3.9,0,3.9-6,0-6
			c-9.1,0-18.3,0-27.4,0c-1.6,0-3.1,1.4-3,3c1.2,31.7,2.4,63.3,2.4,95c0,8.7,0,17.3,0,26c0,1.6,1.4,3,3,3c9.7,0,19.3,0,29,0
			c1.2,0,2.7-0.9,2.9-2.2c1.6-8.6,3.3-17.1,4.8-25.7c1.2-7,0.3-14.5,0.3-21.6c0-7.7,0.8-15.8-0.1-23.5c-1-8.3-2.9-16.6-4.3-24.9
			c-1.6-9-3.1-18-4.7-27C240.7,484.9,235,486.5,235.6,490.3z"/>
	</g>
</g>
<g>
	<polygon class="st0" points="238.5,489.5 266.5,457.5 303.5,473.5 349.5,473.5 393.5,468.5 405.5,457.5 432.5,488.5 434.5,524.5 
		435.5,565.5 435.5,591.5 426.5,610.5 388.5,646.5 351.5,659.5 309.5,659.5 264.5,637.5 242.5,610.5 247.5,577 247.5,541.5 	"/>
	<g>
		<path d="M240.6,491.6c9.3-10.7,18.7-21.3,28-32c-1.2,0.2-2.4,0.3-3.6,0.5c10.1,4.4,20.2,8.7,30.3,13.1c2.7,1.2,5.7,3,8.6,3.3
			c4.6,0.5,9.6,0,14.2,0c10.4,0,21,0.6,31.4,0c10.9-0.6,22-2.5,32.9-3.7c3.9-0.4,9.9,0,13.2-2.1c4.4-2.8,8.2-7.5,12-11
			c-1.4,0-2.8,0-4.2,0c3.8,4.4,7.7,8.8,11.5,13.3c2.9,3.4,5.9,6.8,8.8,10.1c1.9,2.2,3.7,4.9,5.9,6.8c1.9,1.6-1-0.8-0.2-1.2
			c-0.1,0,0.1,2.4,0.1,2.5c0.2,3.7,0.4,7.4,0.6,11c0.4,7.3,0.9,14.6,1.2,21.8c0.6,12.9,0.6,25.8,1,38.7c0.1,4.6,0.1,9.2,0.1,13.9
			c0,4.2,0,8.3,0,12.5c0,0.4-0.1,3.6,0.2,1.8c0.3-1.7-0.8,1.3-1,1.9c-1.8,3.9-3.6,7.7-5.5,11.6c-0.7,1.4-1.2,2.8-2,4.2
			c-0.7,1.2,0.5-0.4-0.2,0.4c-4,4.7-9.2,8.7-13.6,12.9c-6.2,5.9-12.5,11.8-18.7,17.7c-1.5,1.4-3.8,2.9-4.9,4.7
			c-0.7,1,1.3-0.4,0.7-0.3c-0.9,0.2-1.9,0.7-2.8,1c-7.9,2.8-15.7,5.5-23.6,8.3c-3,1.1-6.1,1.9-9,3.2c-0.5,0.2-2,0.5-0.5,0.3
			c-0.7,0.1-1.4,0-2.1,0c-8,0-15.9,0-23.9,0c-3.9,0-7.8,0-11.7,0c-1.1,0-2.2-0.1-3.2,0c-1.6,0.2-0.7-0.2,0.4,0.4
			c-4.9-2.9-10.3-5-15.4-7.5c-7.7-3.8-15.4-7.5-23.1-11.3c-2-1-4.2-1.8-6-2.9c-0.9-0.5,0.8,0.8-0.1-0.1c-0.8-0.8-1.4-1.7-2.1-2.6
			c-5.3-6.4-10.5-12.9-15.8-19.3c-1.3-1.6-2.5-3.1-3.8-4.7c0.3,1,0.5,1.9,0.8,2.9c1.3-9,2.7-17.9,4-26.9c1-6.6,1.1-12.7,1.1-19.3
			c0-8,0.8-16.5-0.1-24.5c-1-8.3-2.9-16.6-4.3-24.9c-1.6-9-3.1-18-4.7-27c-0.7-3.8-6.4-2.2-5.8,1.6c3,17.1,6.9,34.4,8.9,51.6
			c0.1,1-0.1-0.7,0-0.3c0,0.4,0,0.9,0,1.3c-0.1,2,0,4.1,0,6.1c0,6,0,11.9,0,17.9c0,2.4,0,4.8,0,7.2c0,0.5,0,3.9,0.1,2.2
			c-0.3,3.8-1.1,7.6-1.7,11.4c-0.9,5.8-1.7,11.6-2.6,17.4c-0.4,2.8-1.3,5.4,0.3,7.9c5.3,8.2,12.7,15.6,18.9,23.2
			c1.4,1.7,2.4,3.3,4.3,4.4c3.3,2,7.1,3.5,10.6,5.2c10,4.9,20.1,9.8,30.1,14.7c1.8,0.9,3.5,1.9,5.5,2.1c4,0.4,8.2,0,12.2,0
			c6.1,0,12.3,0,18.4,0c3.5,0,7.3,0.4,10.8,0c2.6-0.3,5.2-1.6,7.6-2.5c5.6-2,11.3-4,16.9-5.9c6-2.1,12.4-3.3,17.1-7.7
			c8-7.6,16-15.2,24-22.8c4.7-4.5,10.6-8.6,13.5-14.6c2.3-4.9,4.7-9.8,7-14.8c1.3-2.8,1-5.5,1-8.6c0-7.8,0.1-15.7-0.1-23.5
			c-0.4-17.7-0.8-35.4-1.8-53.1c-0.3-5.6-0.6-11.1-0.9-16.7c-0.1-2.5,0-4.4-1.6-6.4c-6.3-8.2-13.7-15.7-20.4-23.5
			c-2-2.3-4-4.6-6.1-6.9c-1.1-1.3-3.1-1-4.2,0c-1.6,1.5-3.3,3-4.9,4.5c-1.6,1.5-5.8,4-6.6,6c-0.6,1.4,1.3-0.5,1.4-0.4
			c-0.1-0.1-1.3,0.2-1.5,0.2c-2.3,0.2-4.6,0.5-6.9,0.8c-11.5,1.3-23.1,3.1-34.7,3.9c-9,0.6-18.2,0.1-27.2,0.1c-5.6,0-11.3,0-16.9,0
			c-1.4,0-3.7-0.6-1.2,0.4c-1.3-0.5-2.6-1.1-4-1.7c-11-4.8-22-9.5-33-14.3c-1.2-0.5-2.7-0.6-3.6,0.5c-9.3,10.7-18.7,21.3-28,32
			C233.8,490.3,238.1,494.5,240.6,491.6z"/>
	</g>
</g>
<g>
	<g>
		<path d="M542.5,487.5c39.3,0,78.7,0,118,0c5.7,0,11.3,0,17,0c-1-1-2-2-3-3c0,35,0,69.9,0,104.9c0,5,0,10.1,0,15.1c1-1,2-2,3-3
			c-39.3,0-78.7,0-118,0c-5.7,0-11.3,0-17,0c1,1,2,2,3,3c0-30.8,0-61.7,0-92.5c0-9.2,0-18.3,0-27.5c0-3.9-6-3.9-6,0
			c0,30,0,60.1,0,90.1c0,10,0,19.9,0,29.9c0,1.6,1.4,3,3,3c39.3,0,78.7,0,118,0c5.7,0,11.3,0,17,0c1.6,0,3-1.4,3-3
			c0-35,0-69.9,0-104.9c0-5,0-10.1,0-15.1c0-1.6-1.4-3-3-3c-39.3,0-78.7,0-118,0c-5.7,0-11.3,0-17,0
			C538.6,481.5,538.6,487.5,542.5,487.5z"/>
	</g>
</g>
<g>
	<g>
		<path d="M426.5,613.5c16,0,32,0,48,0c1.3,0,2.6-0.9,2.9-2.2c1.3-5.8,2.6-11.5,3.8-17.3c0.9-3.8,2.1-7.8,2.3-11.7
			c0.4-13.5,0-27,0-40.5c0-9.3-2.2-17.6-4.3-26.7c-1.6-7-3.1-14-4.7-21c-0.4-1.6-0.5-3.6-1.1-5.1c-0.9-2.2-2.6-2.5-4.7-3.3
			c-3.2-1.2-6.9-3.4-10.3-3.9c-2.1-0.3-4.5,0.4-6.6,0.8c-6.8,1.1-13.6,2.2-20.3,3.3c-1.2,0.2-2.3,1.7-2.2,2.9c1,17.6,2,35.3,3,52.9
			c0.9,15.7,0.2,31.6,0.2,47.3c0,1.6-0.6,3.3,0.4,1.1c-0.8,1.7-1.6,3.4-2.4,5.1c-2.2,4.6-4.4,9.2-6.5,13.8c-1.6,3.5,3.5,6.5,5.2,3
			c1.8-3.9,3.7-7.8,5.5-11.7c1.3-2.8,3.5-5.9,3.9-9.1c0.4-3.2,0-6.8,0-10.1c0-5.9,0-11.7,0-17.6c0-15.7-0.7-31.2-1.6-47
			c-0.5-9.3-1.1-18.6-1.6-27.9c-0.7,1-1.5,1.9-2.2,2.9c7.2-1.2,14.3-2.3,21.5-3.5c1.2-0.2,2.4-0.5,3.6-0.6c0.4,0-1.7-0.4-1.1,0.1
			c0.5,0.4,1.6,0.6,2.2,0.9c3.5,1.3,6.9,2.6,10.4,4c-0.7-0.7-1.4-1.4-2.1-2.1c1.7,7.8,3.5,15.6,5.2,23.5c1.2,5.2,2.3,10.4,3.5,15.6
			c0.3,1.5,0.6,3,1,4.5c0.3,1.2,0.3,1.5,0.2,0.9c0.5,8.5,0,17.2,0,25.8c0,5.4,0,10.7,0,16.1c0,1.6,0,3.3,0,4.9
			c0,0.6-0.1,2.9,0.1,1.3c-1.2,9-4,18-6,26.9c1-0.7,1.9-1.5,2.9-2.2c-16,0-32,0-48,0C422.6,607.5,422.6,613.5,426.5,613.5z"/>
	</g>
</g>
<g>
	<path class="st0" d="M499.5,432.5l17,57v65c2,1.2-5,70.8-6,74c-1.4,4.4-9.9,31.4-11,31h26l11-26l6-29V550v-65.5l-16-52H499.5z"/>
	<g>
		<path d="M496.6,433.3c4.6,15.3,9.1,30.6,13.7,45.9c0.9,3.2,1.8,6.4,2.8,9.5c0.2,0.5,0.4,1,0.5,1.5c-0.3-1.5-0.1,0-0.1,0.5
			c-0.3,7.4,0,15,0,22.4c0,10.1,0,20.3,0,30.4c0,3.1-0.1,6.1,0,9.2c0,0.5-0.1,1.1,0,1.7c0.1,0.5,0.3,1.1,0.4,1.6
			c0.3,1.5-0.1-0.6-0.1-0.4c-0.4,17.9-2.1,35.7-3.9,53.5c-0.7,6.6-0.8,13.8-2.7,20.2c-1.6,5.3-3.3,10.6-5.1,15.8
			c-0.9,2.8-1.9,5.6-2.9,8.3c-0.3,0.9-0.9,1.9-1.1,2.9c-0.5,2-1.7,0.7,0.7,0.4c-3.4,0.5-2.5,5.9,0.8,5.9c8.7,0,17.3,0,26,0
			c1,0,2.2-0.5,2.6-1.5c3.3-7.9,6.7-15.8,10-23.6c2.7-6.3,3.4-13.3,4.8-20c1.2-5.8,2.6-11.2,2.6-17.1c0-10,0-20,0-29.9
			c0-13,0-26.1,0-39.1c0-11.1,0-22.1,0-33.2c0-4.7,0.7-10.1-0.2-14.7c-1.9-9.3-5.7-18.5-8.5-27.5c-2.5-8-4.9-16.1-7.4-24.1
			c-0.4-1.3-1.5-2.2-2.9-2.2c-9,0-18,0-27,0c-3.9,0-3.9,6,0,6c9,0,18,0,27,0c-1-0.7-1.9-1.5-2.9-2.2c4.9,16,9.8,32,14.8,48
			c0.3,1.1,0.7,2.2,1,3.2c0.4,1.4,0.1-0.2,0.1,0.3c0.2,2.4,0,4.9,0,7.3c0,10.2,0,20.4,0,30.6c0,12.9,0,25.7,0,38.6
			c0,10.5,0,21,0,31.5c0,3.5-0.2,7,0,10.4c0,0.9-0.1,1.6,0.1,0.7c-0.2,1.3-0.5,2.6-0.8,3.8c-1.2,5.7-2.4,11.4-3.5,17
			c-0.4,2.2-1,4.4-1.4,6.5c-0.1,0.5-0.2,0.9-0.3,1.4c0.2-0.9,0.2-0.5,0,0.1c-3.2,8.5-7.1,16.8-10.7,25.2c0.9-0.5,1.7-1,2.6-1.5
			c-8.7,0-17.3,0-26,0c0.3,2,0.5,3.9,0.8,5.9c2.8-0.4,4-5.8,4.7-7.8c2-5.4,3.8-10.9,5.6-16.4c1.9-5.9,3.2-11,3.9-17.1
			c2.3-19.9,4.6-40,5.2-60c0.1-2.4,0.2-4.8-0.2-7.1c0-0.1-0.6-1.6-0.9-1.5c10.3-4,0.3,2.2,0.8,2c0,0,0-0.2,0-0.2
			c0.3-0.4,0-2.3,0-2.8c0-9,0-17.9,0-26.9c0-9.7,0-19.5,0-29.2c0-4-0.2-6.8-1.3-10.5c-5.3-17.7-10.5-35.4-15.8-53
			C501.3,428,495.5,429.6,496.6,433.3z"/>
	</g>
</g>
<g>
	<polygon class="st1" points="474.5,432.5 490.5,489.5 494.5,577.5 480.5,634.5 474.5,659.5 499.5,659.5 509,632.8 515.6,580.8 
		516.5,489.5 499.5,432.5 	"/>
	<g>
		<path d="M471.6,433.3c4.6,16.3,9.2,32.7,13.7,49c0.7,2.6,1.6,5.1,2.2,7.7c0.2,0.9-0.1-1.1,0-0.1c0.1,0.8,0.1,1.6,0.1,2.4
			c0.4,7.8,0.7,15.6,1.1,23.4c0.9,19.3,1.8,38.6,2.6,57.9c0,0.9,0,1.9,0.1,2.8c0,0.2,0,1.7,0.1,0.8c0.1-0.9-0.3,0.9-0.3,1.2
			c-0.4,1.4-0.7,2.7-1,4.1c-2.4,9.8-4.8,19.6-7.2,29.4c-3.8,15.6-7.6,31.2-11.4,46.8c-0.5,1.9,0.9,3.8,2.9,3.8c8.3,0,16.7,0,25,0
			c1.4,0,2.4-0.9,2.9-2.2c2.8-8,5.7-16,8.5-24c1.7-4.9,1.9-10.3,2.6-15.4c1.3-10.6,2.7-21.2,4-31.8c0.5-3.7,1-7.3,1.1-11
			c0.2-18.9,0.4-37.8,0.6-56.8c0.1-8.9,0.2-17.7,0.3-26.6c0-3.5,0-6-1-9.3c-5.3-17.9-10.7-35.9-16-53.8c-0.4-1.3-1.6-2.2-2.9-2.2
			c-8.3,0-16.7,0-25,0c-3.9,0-3.9,6,0,6c8.3,0,16.7,0,25,0c-1-0.7-1.9-1.5-2.9-2.2c4.8,16.1,9.6,32.3,14.4,48.4
			c0.8,2.7,1.7,5.3,2.4,8c0.3,1.2,0-0.7,0-0.1c0,0.6,0,1.3,0,1.9c-0.1,7.4-0.2,14.8-0.2,22.3c-0.2,20-0.4,40-0.6,60
			c-0.1,12.8-2.4,25.5-4,38.3c-0.7,5.2-1.3,10.5-2,15.7c-0.2,1.3-0.3,2.7-0.5,4.1c-0.3,1.6,0.3-0.7-0.3,0.9
			c-3.3,8.5-6.1,17.3-9.2,25.9c1-0.7,1.9-1.5,2.9-2.2c-8.3,0-16.7,0-25,0c1,1.3,1.9,2.5,2.9,3.8c3.2-13.4,6.4-26.7,9.7-40.1
			c2.5-10.3,5.1-20.6,7.6-31c1-4.1,2.7-8.5,2.8-12.8c0.1-17.7-1.6-35.6-2.4-53.3c-0.4-9.1-0.8-18.2-1.2-27.2
			c-0.2-3.4-0.2-6.5-1.1-9.8c-5.1-18.1-10.2-36.3-15.3-54.4C476.4,428,470.6,429.6,471.6,433.3z"/>
	</g>
</g>
<g>
	<g>
		<path d="M455.1,611.3c5.5,16.3,11,32.7,16.5,49c0.9,2.7,5,3,5.8,0c3.9-15.3,7.8-30.6,11.7-45.8c2.4-9.5,4.9-19,7.3-28.5
			c0.8-3.1,2-6.4,2-9.6c-0.2-17.8-2-35.8-3-53.7c-0.5-9.1-1-18.2-1.6-27.3c-0.2-3.3-0.3-6.3-1.2-9.5c-5.1-18-10.1-36-15.2-54
			c-0.7-2.6-4.1-2.8-5.5-0.7c-3.7,5.4-7.4,10.8-11.1,16.2c-2.5,3.6-5,7.3-7.5,10.9c-1,1.5-2.7,3.2-2.9,5.2c-0.2,2.5,1.1,5.6,1.7,8
			c0.9,4.2,1.6,8.4,2.7,12.5c1.3,5.1,10.1,6.6,14.5,8.4c-0.7-0.7-1.4-1.4-2.1-2.1c1.8,7.8,3.6,15.6,5.4,23.5
			c1.2,5.2,2.4,10.4,3.6,15.6c0.3,1.5,0.7,3,1,4.5c0.3,1.2,0.3,1.5,0.2,0.9c0.5,8.5,0,17.2,0,25.8c0,5.4,0,10.7,0,16.1
			c0,1.6,0,3.3,0,4.9c0,0.6-0.1,2.9,0.1,1.3c-1.2,9-4,18-6,26.9c1-0.7,1.9-1.5,2.9-2.2c-5.5,0-11,0-16.5,0c-3.9,0-3.9,6,0,6
			c5.5,0,11,0,16.5,0c1.3,0,2.6-0.9,2.9-2.2c2-8.9,4.7-17.9,6-27c1.3-9.1,0.1-19.1,0.1-28.3c0-7.5,1.1-15.9-0.3-23.3
			c-2.1-11-5-21.8-7.5-32.7c-0.8-3.5-1.1-8.1-2.6-11.4c-1.1-2.3-4.2-2.9-6.4-3.9c-2.6-1.1-5.3-2.2-7.9-3.2c0.7,0.7,1.4,1.4,2.1,2.1
			c-1.1-5.2-2.2-10.4-3.3-15.6c-0.3-1.3-0.4-2.6-0.8-3.9c-1-3.2,0.7,1-0.6,0.7c0.3,0.1,2.3-3.3,2.5-3.6c6.2-9.1,12.4-18.1,18.6-27.2
			c-1.8-0.2-3.7-0.5-5.5-0.7c4.6,16.3,9.1,32.5,13.7,48.8c0.7,2.5,1.5,5.1,2.2,7.7c0.2,0.9-0.1-1.1,0-0.1c0.1,0.7,0.1,1.5,0.1,2.2
			c0.4,7.7,0.9,15.4,1.3,23.1c1.1,19.3,2.2,38.6,3.3,57.9c0.1,1.4,0.3,2.9,0.2,4.4c0.1-1.5,0-0.4-0.1,0.2c-0.3,1-0.5,2.1-0.8,3.1
			c-2.1,8.3-4.3,16.7-6.4,25c-4.5,17.6-9,35.3-13.6,52.9c1.9,0,3.9,0,5.8,0c-5.5-16.3-11-32.7-16.5-49
			C459.7,606.1,453.9,607.6,455.1,611.3z"/>
	</g>
</g>
<g>
	<polygon class="st1" points="266.5,457.5 266.5,432.5 336.5,437.5 389.5,433.5 406.5,432.5 406.5,457.5 393.5,468.5 355.9,472.8 
		303.5,472.5 	"/>
	<g>
		<path d="M269.5,457.5c0-8.3,0-16.7,0-25c-1,1-2,2-3,3c20.5,1.5,41,2.9,61.5,4.4c17.4,1.2,35-1.4,52.4-2.7c8.7-0.7,17.4-1.2,26-1.7
			c-1-1-2-2-3-3c0,6.1,0,12.1,0,18.2c0,1.5,0,3,0,4.5c0,0.6-0.1,3.6,0.4,1.2c0.4-1.8-0.5-0.2-1.6,0.7c-1.5,1.3-3,2.5-4.5,3.8
			c-1.4,1.2-2.8,2.4-4.2,3.5c-0.9,0.7-3.4,2.1-1.2,1.5c2.3-0.6,0.2-0.3-0.3-0.3c-1.2,0-2.4,0.3-3.6,0.4c-7.6,0.9-15.3,1.7-22.9,2.6
			c-9.5,1.1-18.5,1.1-28.1,1c-7.9,0-15.8-0.1-23.7-0.1c-2.7,0-5.3,0-8,0c-0.6,0-1.3,0.1-1.9,0c-1-0.1,1,0.3,0,0
			c-12.4-4.2-24.5-9.9-36.6-14.9c-3.6-1.5-5.1,4.4-1.6,5.8c11.7,4.8,23.4,9.8,35.2,14.3c2.9,1.1,5.7,0.9,8.8,0.9
			c7.8,0,15.6,0.1,23.4,0.1c10.1,0.1,20,0.4,29.9-0.7c8-0.9,16-1.8,24-2.7c2.1-0.2,4.3-0.3,6.3-0.7c2.2-0.5,3.5-1.9,5.2-3.4
			c3.1-2.6,6.8-5.1,9.6-8.1c1.6-1.7,1.4-3.4,1.4-5.7c0-7.3,0-14.5,0-21.8c0-1.6-1.4-3.1-3-3c-19.8,1.2-39.6,2.7-59.4,4.2
			c-17.2,1.3-34.3-0.9-51.5-2.1c-9.7-0.7-19.4-1.4-29.1-2.1c-1.6-0.1-3,1.5-3,3c0,8.3,0,16.7,0,25
			C263.5,461.4,269.5,461.4,269.5,457.5z"/>
	</g>
</g>
<g>
	<polygon class="st0" points="221.5,291.5 267.5,307.5 329.5,315.5 409.5,305.5 450.5,296.5 450.5,316.5 432.5,330.5 403.5,337.5 
		327.4,342.3 283.5,339.5 263.5,337.5 226.5,322.5 221.5,316.5 	"/>
	<g>
		<path d="M220.7,294.4c7,2.5,14.1,4.9,21.1,7.4c8,2.8,16.1,6.2,24.3,8.4c4.9,1.3,10.4,1.5,15.5,2.1c10.7,1.4,21.4,2.8,32.2,4.1
			c5.2,0.7,10.8,2,16,2c6.1,0,12.5-1.6,18.5-2.3c19.4-2.4,38.9-4.9,58.3-7.3c15-1.9,30-6.2,44.8-9.5c-1.3-1-2.5-1.9-3.8-2.9
			c0,5.2,0,10.5,0,15.7c0,0.9-0.3,2.5,0,3.3c0.7,2.3-1.2-1.6,0.7-1c-0.7-0.2-4.8,3.8-5.4,4.2c-4.1,3.2-8,6.7-12.4,9.6
			c2.4-1.6-0.8-0.2-2.1,0.1c-2.9,0.7-5.8,1.4-8.8,2.1c-5.4,1.3-10.8,2.7-16.3,3.9c-1.3,0.3,0.9,0-0.7,0.1c-1.4,0.1-2.8,0.2-4.2,0.3
			c-11.5,0.7-23,1.5-34.5,2.2c-11.2,0.7-22.3,1.4-33.5,2.1c-6.5,0.4-13.1-0.4-19.6-0.9c-9.3-0.6-18.6-1-27.9-1.8
			c-5.6-0.5-11.3-1.1-16.9-1.7c-0.8-0.1-1.6-0.1-2.4-0.2c-0.6-0.1,1.2,0.3,0.1-0.1c-1.7-0.6-3.3-1.3-5-2c-6.8-2.7-13.5-5.5-20.3-8.2
			c-2.7-1.1-5.3-2.2-8-3.2c-0.8-0.3-1.7-0.8-2.5-1c-1.6-0.5,0.5,0.7,0.2,0c-0.5-1.2-2.4-3.1-3.3-4c0,0-0.7-1-0.9-1.1
			c-1-0.4-0.1,2,0.5,1.2c0.8-1,0-6,0-7.2c0-5.8,0-11.5,0-17.3c0-3.9-6-3.9-6,0c0,5.1,0,10.3,0,15.4c0,4.3-1,9.1,1.7,12.6
			c2.6,3.4,4.5,5.4,8.3,6.9c5.9,2.4,11.7,4.8,17.6,7.1c5.1,2.1,10.2,4.4,15.4,6.3c3.3,1.2,7.1,1.1,10.6,1.5c9,0.9,18,1.6,27,2.1
			c9.5,0.6,19.1,1.9,28.6,1.8c9.1-0.1,18.4-1.2,27.5-1.7c19.6-1.2,39.8-0.9,58.9-5.5c6.1-1.5,13-2.3,18.9-4.6
			c4.3-1.6,8.3-6,11.8-8.8c3.5-2.7,8.6-4.9,8.7-9.7c0.1-6.2,0-12.3,0-18.5c0-2-1.9-3.3-3.8-2.9c-7.6,1.7-15.3,3.4-22.9,5
			c-4.8,1.1-9.6,2.1-14.5,3.2c-1.1,0.2-2.2,0.5-3.2,0.7c-0.9,0.2,1.2-0.2-0.2,0.1c-17.6,2.6-35.3,4.4-53,6.6c-8.1,1-16.1,2-24.2,3
			c-3.6,0.5-7.2-0.4-10.8-0.8c-10.4-1.3-20.8-2.7-31.2-4c-7.2-0.9-14.8-1.3-21.9-2.8c-0.3-0.1,0.9,0.3-0.5-0.3c-1.5-0.6-3-1-4.5-1.6
			c-5.2-1.8-10.4-3.6-15.6-5.4c-8.3-2.9-16.6-5.8-24.9-8.6C218.6,287.3,217.1,293.1,220.7,294.4z"/>
	</g>
</g>
<g>
	<polygon class="st0" points="407.5,248.5 450.5,265.5 445.5,280.5 403.5,291.5 326.5,291.5 263.5,284.5 221.5,269.5 244.5,248.5 
		263.5,248.5 282.5,263.5 333.5,277.5 394.5,269.5 	"/>
	<g>
		<path d="M406.7,251.4c14.3,5.7,28.7,11.3,43,17c-0.7-1.2-1.4-2.5-2.1-3.7c-1.7,5-3.3,10-5,15c0.7-0.7,1.4-1.4,2.1-2.1
			c-7.2,1.9-14.3,3.7-21.5,5.6c-4.8,1.2-9.5,2.5-14.3,3.7c-1.6,0.4-3.1,0.8-4.7,1.2c-0.5,0.2-2.4,0.4-0.8,0.3
			c-5.6,0.5-11.5,0-17.2,0c-10.7,0-21.4,0-32.1,0c-11.6,0-23.2,0.5-34.7-0.8c-18.1-2-36.1-4.1-54.2-6c-0.5-0.1-2.6-0.6-1-0.1
			c-0.9-0.3-1.8-0.7-2.7-1c-4.7-1.7-9.3-3.3-14-5c-8.4-3-16.8-6-25.2-9c0.4,1.7,0.9,3.3,1.3,5c5.8-5.3,11.6-10.6,17.5-15.9
			c1.4-1.3,2.9-2.4,4.2-3.8c2.4-2.6,0,0.5-0.5-0.4c0.5,0.9,11.4,0,12.6,0c1.3,0,4.4,0.6,5.6,0c1.1-0.6-1.3-0.3-1.4-0.8
			c0,0.2,1,0.8,1.2,0.9c3.5,3.2,7.5,5.9,11.2,8.8c2.3,1.8,4.8,4.4,7.4,5.7c1.6,0.8,3.6,1.1,5.4,1.5c9.2,2.5,18.4,5,27.6,7.6
			c5.9,1.6,12.3,4.3,18.4,5.1c5,0.6,11.2-1.3,16.2-1.9c10.1-1.3,20.2-2.6,30.2-4c4.1-0.5,8.2-1.1,12.4-1.6c2.2-0.3,4.2-0.2,5.7-2
			c2.7-3.1,4.5-7.3,6.7-10.8c2.1-3.4,4.2-6.7,6.2-10.1c2-3.3-3.2-6.3-5.2-3c-4.3,7-8.7,14-13,21c0.9-0.5,1.7-1,2.6-1.5
			c-13.4,1.8-26.8,3.5-40.2,5.3c-6.4,0.8-13.2,1.1-19.5,2.6c-0.4,0.1-0.8,0.2-1.2,0.2c1.3,0,0.3,0-0.4-0.2c-2.5-0.7-5.1-1.4-7.6-2.1
			c-14-3.8-28-8.5-42.2-11.6c0.9,0.2,1.5,1.1,0-0.2c-1.4-1.2-2.8-2.2-4.2-3.4c-3.4-2.7-6.8-5.4-10.2-8.1c-1.7-1.3-3.4-3.2-5.6-3.6
			c-3.1-0.5-6.8,0-9.9,0c-3,0-7.7-1-10.5,0.4c-2.3,1.1-4.3,3.9-6.1,5.5c-5.8,5.3-11.6,10.6-17.5,15.9c-1.8,1.6-0.7,4.3,1.3,5
			c8.1,2.9,16.2,5.8,24.3,8.7c6.1,2.2,12.6,5.5,19,6.5c18.8,3,38.1,4.2,57,6.3c13.7,1.5,27.8,0.6,41.5,0.6c10.8,0,21.6,0,32.5,0
			c4.5,0,8.4,0.1,12.7-1c11.4-3,22.7-5.9,34.1-8.9c3-0.8,5.6-0.8,6.9-3.9c1.9-4.6,3.2-9.6,4.8-14.4c0.6-1.7-0.7-3.1-2.1-3.7
			c-14.3-5.7-28.7-11.3-43-17C404.7,244.2,403.1,250,406.7,251.4z"/>
	</g>
</g>
<g>
	<polygon class="st1" points="450.2,296.6 411.5,305.5 327,315.5 264.3,306 221.5,291.5 221.5,269.5 263.5,284.5 334,291.5 
		403.5,291.5 445.5,280.5 449.5,267.5 	"/>
	<g>
		<path d="M449.4,293.7c-7.7,1.8-15.5,3.6-23.2,5.3c-4.5,1-8.9,2.1-13.4,3.1c-0.3,0.1-2.6,0.6-1.7,0.4c0.9-0.2-0.7,0.1-0.9,0.1
			c-18,2.1-36.1,4.3-54.1,6.4c-8.5,1-17,2-25.5,3c-0.7,0.1-4.7,0.5-2.9,0.5c-2.1,0-4.3-0.6-6.3-1c-18.2-2.8-36.6-5.2-54.7-8.3
			c-6.2-1.1-12.3-3.9-18.3-5.9c-8.7-2.9-17.4-5.9-26.1-8.8c0.7,1,1.5,1.9,2.2,2.9c0-7.3,0-14.7,0-22c-1.3,1-2.5,1.9-3.8,2.9
			c7.9,2.8,15.9,5.7,23.8,8.5c6.2,2.2,12.9,5.6,19.4,6.6c18.6,2.9,37.8,3.8,56.5,5.6c13.1,1.3,25.8,1.3,38.9,1.3
			c11.1,0,22.3,0,33.4,0c4.5,0,9.2,0.5,13.6-0.7c11.2-2.9,22.4-5.9,33.7-8.8c2.8-0.7,6.8-0.9,8.3-3.7c2-3.8,2.7-8.9,4-13
			c-2-0.3-3.9-0.5-5.9-0.8c0.2,9.7,0.5,19.4,0.7,29.1c0.1,3.9,6.1,3.9,6,0c-0.2-9.7-0.5-19.4-0.7-29.1c-0.1-3.4-4.9-4.1-5.9-0.8
			c-1.3,4.3-2.7,8.7-4,13c0.7-0.7,1.4-1.4,2.1-2.1c-7.2,1.9-14.3,3.7-21.5,5.6c-4.8,1.2-9.5,2.5-14.3,3.7c-1.6,0.4-3.1,0.8-4.7,1.2
			c-0.5,0.2-2.4,0.4-0.8,0.3c-6,0.5-12.3,0-18.4,0c-10.7,0-21.4,0-32.1,0c-11.3,0-22-0.3-33.2-1.4c-18.2-1.8-36.4-3.7-54.6-5.4
			c-0.5,0-2.4-0.5-0.8-0.1c-0.9-0.3-1.8-0.7-2.7-1c-4.7-1.7-9.3-3.3-14-5c-8.4-3-16.8-6-25.2-9c-1.9-0.7-3.8,1.1-3.8,2.9
			c0,7.3,0,14.7,0,22c0,1.4,0.9,2.5,2.2,2.9c7.4,2.5,14.9,5,22.3,7.6c6.7,2.3,13.6,5.2,20.5,6.9c6.4,1.6,13.3,2,19.8,3
			c10.5,1.6,21,3.2,31.5,4.8c4.2,0.6,8.8,1.9,13,1.7c6.8-0.3,13.6-1.6,20.4-2.4c19.7-2.3,39.4-4.7,59.1-7
			c14.7-1.7,29.2-6.2,43.6-9.5C454.7,298.6,453.2,292.8,449.4,293.7z"/>
	</g>
</g>
<g>
	<g>
		<path d="M266.4,249.3c1.3-8,2.7-16,4-24c-0.7,0.7-1.4,1.4-2.1,2.1c5.5-1.9,11-3.8,16.6-5.7c6-2.1,12.1-4.8,18.3-6.3
			c-0.4,0.1-0.9,0.1,0.1,0.1c1,0,2,0,3,0c3.5,0,6.9,0,10.4,0c8.4,0,16.7,0,25.1,0c2.6,0,5.1,0,7.7,0c0.7,0,1.3,0,0.2-0.1
			c0.6,0.1,1.2,0.2,1.8,0.4c7.2,1.5,14.4,2.9,21.6,4.4c4.1,0.8,8.1,1.7,12.2,2.5c2.2,0.5,5.3,1.7,7.6,1.5c1.8-0.1-0.8-0.3-0.8-0.9
			c0,1,2.5,3.5,3,4.3c1,1.4,1.9,2.9,3,4.3c1.2,1.6,0.2-0.1,0.8,1.4c1.6,4,2.9,8.2,4.3,12.3c0.1,0.3,1.1,3.7,1.3,3.7
			c-0.8,0,1.4-2.7,0-1.7c-0.4,0.3-0.7,1.2-1,1.6c-3.9,6.3-7.8,12.6-11.7,18.9c0.9-0.5,1.7-1,2.6-1.5c-19.4,2.5-38.8,5.1-58.2,7.6
			c-0.9,0.1-1.8,0.3-2.7,0.4c1.4,0-0.5-0.2-1.3-0.4c-4.7-1.3-9.4-2.6-14.1-3.9c-10.9-3-21.8-6-32.7-9c-0.5-0.1-1.3-0.5-1.8-0.5
			c-1.1,0,1.4,1.1,0.7,0.5c-1.8-1.6-3.9-3.1-5.8-4.6c-4.3-3.4-8.6-6.8-12.9-10.2c-3-2.4-7.3,1.9-4.2,4.2c4.8,3.8,9.5,7.5,14.3,11.3
			c2.9,2.3,5.1,4.2,8.7,5.2c13.5,3.7,26.9,7.4,40.4,11.1c2.9,0.8,6.1,2.2,9.1,2.3c4.5,0,9.3-1.2,13.8-1.8
			c14.2-1.9,28.4-3.7,42.7-5.6c3.4-0.4,5.7-0.4,7.7-3.4c3.8-5.8,7.3-11.8,11-17.7c2.7-4.3,0.1-8.1-1.5-12.7c-2-5.7-3.7-9.7-7.1-14.6
			c-1.4-1.9-2.8-5-5-6c-1.2-0.5-2.9-0.6-4.2-0.9c-6.9-1.4-13.8-2.8-20.7-4.2c-9.3-1.9-17.9-4-27.4-4c-8.4,0-16.9,0-25.3,0
			c-5.1,0-11-0.9-16,0.1c-5.9,1.1-11.9,4.1-17.5,6c-5.8,2-11.7,4-17.5,6c-0.9,0.3-1.9,1-2.1,2.1c-1.3,8-2.7,16-4,24
			C260,251.5,265.8,253.1,266.4,249.3z"/>
	</g>
</g>
<g>
	<g>
		<path d="M266,227.1c3.9,2.5,7.9,5,11.8,7.5c3.5,2.2,7.6,6,11.7,6.9c9,2,18.9,2.1,28,3.1c8.8,1,18.2,3,27,2.9
			c9.1-0.1,18.5-2.2,27.5-3.3c10.5-1.2,21-2.5,31.5-3.7c2.2-0.3,3.8-2.4,2.6-4.5c-2.7-4.9-5.4-9.8-8.2-14.7c-1.8-3.1-4.1-3-7.4-3.7
			c-12.3-2.5-24.6-5-36.8-7.5c-8.1-1.7-16.9-0.6-25.1-0.6c-6.6,0-13.3,0-19.9,0c-2.7,0-5.4-0.3-8,0.5c-11.4,3.3-22.6,7.8-33.9,11.6
			c-3.6,1.2-2.1,7,1.6,5.8c10.1-3.5,20.1-6.9,30.2-10.4c1.5-0.5,3.1-1.2,4.7-1.6c-1.5,0.3,1.1,0.1,1.9,0.1c5.5,0,11,0,16.5,0
			c6.9,0,13.8,0,20.7,0c2.1,0,4.1,0,6.2,0c1,0,2.6,0.1,1.5-0.1c11,1.4,22,4.5,32.9,6.7c2.8,0.6,5.5,1.1,8.3,1.7
			c0.4,0.1,1.7,0.6,2.1,0.4c1-0.4-1.1-2-1.1-0.8c0.1,2.3,3.8,6.8,4.9,8.8c1.3,2.2,2.5,4.5,3.8,6.7c0.9-1.5,1.7-3,2.6-4.5
			c-8.7,1-17.4,2.1-26.1,3.1c-10.6,1.3-21.3,3.2-31.9,3.8c-6.9,0.4-14.3-1.3-21.1-2.1c-11.1-1.2-22.3-3-33.4-3.6
			c-2.7-0.2,0.7,1.1-0.9-0.3c-1.9-1.7-4.6-3-6.8-4.3c-4.8-3-9.5-6-14.3-9.1C265.7,219.8,262.7,225,266,227.1z"/>
	</g>
</g>
<g>
	<g>
		<path d="M269.5,432.5c0.3-27.6,0.6-55.1,0.9-82.7c0-4,0.1-7.9,0.1-11.9c-1,1-2,2-3,3c19.3,1.5,38.5,3,57.8,4.4
			c4.9,0.4,9.8-0.3,14.7-0.6c12.6-0.8,25.2-1.7,37.8-2.5c8.6-0.6,17.2-1.1,25.8-1.7c-1-1-2-2-3-3c0.9,27.7,1.8,55.5,2.6,83.2
			c0.1,3.9,0.2,7.9,0.4,11.8c1-1,2-2,3-3c-20.5,1.5-41,2.9-61.5,4.4c-16.4,1.2-33-1.1-49.4-2.3c-9.7-0.7-19.4-1.4-29.1-2.1
			c-3.9-0.3-3.8,5.7,0,6c20.5,1.5,41,2.9,61.5,4.4c16.4,1.2,33-1.1,49.4-2.3c9.7-0.7,19.4-1.4,29.1-2.1c1.6-0.1,3.1-1.3,3-3
			c-0.9-27.7-1.8-55.5-2.6-83.2c-0.1-3.9-0.2-7.9-0.4-11.8c0-1.5-1.3-3.1-3-3c-19.9,1.3-39.7,2.6-59.6,3.9c-5.6,0.4-11.4,1.2-17.1,1
			c-9.9-0.3-20-1.5-29.9-2.3c-9.8-0.8-19.7-1.5-29.5-2.3c-1.6-0.1-3,1.5-3,3c-0.3,27.6-0.6,55.1-0.9,82.7c0,4-0.1,7.9-0.1,11.9
			C263.5,436.4,269.5,436.4,269.5,432.5z"/>
	</g>
</g>
<g>
	<g>
		<path d="M404.7,378c4.6,0.2,9.2,0.3,13.8,0.5c-1-0.7-1.9-1.5-2.9-2.2c1.2,3.5,2.3,7.1,3.5,10.6c0.6,1.8,0.4,0.2,0.4,2.6
			c0,2.2,0,4.3,0,6.5c0,1.7,0.2,3.5,0,5.2c-0.1,0.8,0.2-1.1-0.1,0.3c-0.2,0.9-0.5,1.8-0.8,2.6c-1,3.5-2,7.1-3,10.6
			c1-0.7,1.9-1.5,2.9-2.2c-4.2,0-8.4,0-12.5,0c1,1,2,2,3,3c-0.4-13.5-0.9-27-1.3-40.5c-0.1-3.9-6.1-3.9-6,0
			c0.4,13.5,0.9,27,1.3,40.5c0.1,1.6,1.3,3,3,3c4.2,0,8.4,0,12.5,0c1.3,0,2.5-0.9,2.9-2.2c2-6.9,4.1-13.1,4.1-20.3
			c0-3.3,0.5-6.9-0.4-10.1c-1-3.8-2.5-7.5-3.7-11.2c-0.4-1.3-1.5-2.2-2.9-2.2c-4.6-0.2-9.2-0.3-13.8-0.5
			C400.8,371.9,400.8,377.9,404.7,378z"/>
	</g>
</g>
<g>
	<g>
		<path d="M416.4,376.3c2-6.3,4-12.7,6-19c-1.8,0.2-3.7,0.5-5.5,0.7c1.6,3.2,3.2,6.4,4.8,9.6c0.7,1.4,1.3,2.8,2.1,4.2
			c0.4,0.7,0-2.1-0.3-0.7c-0.1,0.7,0,1.5,0,2.2c0,6.4,0,12.9,0,19.3c0,4.5,0,8.9,0,13.4c0,1.2,0.1,2.3,0,3.5
			c0.1-1.7-0.3,1.5-0.4,1.9c-0.9,4.4-1.8,8.9-2.7,13.3c-0.3,1.3-0.5,2.6-0.8,3.8c0.2-0.9,1-1.1-0.5,0.1c-0.7,0.5-1.2,1.2-1.8,1.8
			c1.4,0,2.8,0,4.2,0c-1-1.2-2-2.3-3-3.5c-0.7-0.8-1.4-2-2.3-2.7c-1.8-1.3,1.1,0.3,0.2,1c0.9-0.7,0.1-8.4,0.1-9.7c-1,1-2,2-3,3
			c2,0,3.9,0,5.9,0c1.3,0,2.6-0.9,2.9-2.2c1.5-6.9,3.1-13.3,3.1-20.3c0-3.3,0.5-6.9-0.4-10.1c-1-3.8-2.5-7.5-3.7-11.2
			c-0.4-1.3-1.5-2.2-2.9-2.2c-1.7,0-3.3,0-5,0c-3.9,0-3.9,6,0,6c1.7,0,3.3,0,5,0c-1-0.7-1.9-1.5-2.9-2.2c1.2,3.5,2.3,7.1,3.5,10.6
			c0.6,1.8,0.4,0.2,0.4,2.6c0,2.2,0,4.3,0,6.5c0,1.7,0.1,3.4,0,5.2c0,0.8,0.2-1.1,0,0.3c-0.1,0.9-0.4,1.8-0.6,2.6
			c-0.8,3.5-1.5,7.1-2.3,10.6c1-0.7,1.9-1.5,2.9-2.2c-2,0-3.9,0-5.9,0c-1.6,0-3,1.4-3,3c0,3.2-0.8,7.3,0,10.4
			c0.8,3.2,4.7,6.3,6.8,8.7c1.1,1.2,3.2,1.1,4.2,0c2.4-2.4,3.6-3.7,4.3-6.9c0.9-4.7,1.9-9.4,2.8-14.1c1.3-6.7,0.8-13.5,0.8-20.3
			c0-6.9,0-13.8,0-20.7c0-6.1-4.7-12.3-7.4-17.6c-1.2-2.4-4.8-1.6-5.5,0.7c-2,6.3-4,12.7-6,19C409.4,378.4,415.2,380,416.4,376.3z"
			/>
	</g>
</g>
<g>
	<g>
		<path d="M426.6,357.3c1.6,6.9,3.2,13.7,4.8,20.6c0.3,1.4,0.7,2.9,1,4.3c0.4,1.9,0.1-0.5,0.1,1.2c0.1,3.9,0,7.7,0,11.6
			c0,3.1,0.1,6.3,0,9.4c0.1-1.6-0.3,1.7-0.3,2.2c-0.3,2.2-0.7,4.4-1,6.6c-1,6.8-2.2,12.1-4.6,18.5c1-0.7,1.9-1.5,2.9-2.2
			c-3.3,0-6.7,0-10,0c0.7,1.7,1.4,3.4,2.1,5.1c2.4-2.4,3.6-3.7,4.3-6.9c0.9-4.7,1.9-9.4,2.8-14.1c1.1-5.4,0.8-10.8,0.8-16.3
			c0-8.5,0.6-17.2,0-25.6c-0.4-5.7-4.9-11.6-7.4-16.6c-0.9,1.5-1.7,3-2.6,4.5c3.3,0,6.7,0,10,0c3.9,0,3.9-6,0-6c-3.3,0-6.7,0-10,0
			c-2.4,0-3.6,2.5-2.6,4.5c1.6,3.2,3.2,6.4,4.8,9.6c0.7,1.4,1.3,2.8,2.1,4.2c-0.6-1-0.1-1.6-0.3,0.3c-0.6,8,0,16.3,0,24.3
			c0,3.7-0.1,7.5,0,11.2c0,0.6,0,1.3,0,1.9c0.1-1.7-0.3,1.4-0.4,1.8c-0.9,4.4-1.8,8.9-2.7,13.3c-0.3,1.3-0.5,2.6-0.8,3.8
			c0.2-0.9,1-1.1-0.5,0.1c-0.7,0.5-1.2,1.2-1.8,1.8c-1.8,1.8-0.5,5.1,2.1,5.1c3.3,0,6.7,0,10,0c1.4,0,2.4-0.9,2.9-2.2
			c4.6-12.3,6.1-25.2,6.1-38.3c0-6.2,0.2-11.9-1.2-17.9c-1.6-7.1-3.3-14.3-4.9-21.4C431.5,351.9,425.7,353.5,426.6,357.3z"/>
	</g>
</g>
<g>
	<g>
		<path d="M446.5,390c12,0,24,0,36,0c-1-1-2-2-3-3c0,4,0,8,0,12c1-1,2-2,3-3c-12,0-24,0-36,0c1,1,2,2,3,3c0-4,0-8,0-12
			c0-3.9-6-3.9-6,0c0,4,0,8,0,12c0,1.6,1.4,3,3,3c12,0,24,0,36,0c1.6,0,3-1.4,3-3c0-4,0-8,0-12c0-1.6-1.4-3-3-3c-12,0-24,0-36,0
			C442.6,384,442.6,390,446.5,390z"/>
	</g>
</g>
<g>
	<polygon class="st0" points="429.5,356.5 440.5,356.5 446.5,375.5 446.5,383.5 446.5,404.5 446.5,418.5 441.5,432.5 429.5,432.5 
		432.5,422.5 435.5,404.5 435.5,382.5 	"/>
	<g>
		<path d="M429.5,359.5c3.7,0,7.3,0,11,0c-1-0.7-1.9-1.5-2.9-2.2c2,6.2,4.7,12.6,6,18.9c-0.3-1.5-0.1,1.1-0.1,1.3c0,1,0,1.9,0,2.9
			c0,1.2,0,2.4,0,3.5c0,3.7,0,7.3,0,11c0,6.6,0,13.3,0,19.9c0,0.7-0.2,4.3,0.1,2.9c-0.3,1.3-0.9,2.6-1.4,3.8
			c-1.2,3.4-2.4,6.7-3.6,10.1c1-0.7,1.9-1.5,2.9-2.2c-4,0-8,0-12,0c1,1.3,1.9,2.5,2.9,3.8c3.8-12.6,6.1-25.1,6.1-38.3
			c0-6.2,0.2-11.9-1.2-17.9c-1.6-7.1-3.3-14.3-4.9-21.4c-0.9-3.8-6.7-2.2-5.8,1.6c1.6,6.9,3.2,13.7,4.8,20.6c0.3,1.4,0.7,2.9,1,4.3
			c0.4,1.9,0.1-0.5,0.1,1.2c0.1,3.9,0,7.7,0,11.6c0,3.1,0.2,6.3,0,9.4c0.1-1.6-0.3,1.9-0.4,2.5c-0.4,2.3-0.8,4.5-1.1,6.8
			c-1,6.3-2.5,11.9-4.3,18c-0.6,1.9,1,3.8,2.9,3.8c4,0,8,0,12,0c1.4,0,2.4-0.9,2.9-2.2c2-5.7,5.1-11.5,5.1-17.6c0-6.9,0-13.8,0-20.7
			c0-6.3,1-14-0.1-20.3c-1.2-6.4-4-12.8-6-19c-0.4-1.3-1.5-2.2-2.9-2.2c-3.7,0-7.3,0-11,0C425.6,353.5,425.6,359.5,429.5,359.5z"/>
	</g>
</g>
<g>
	<rect x="482.5" y="363.5" class="st1" width="13" height="35.5"/>
	<g>
		<path d="M482.5,366.5c4.3,0,8.7,0,13,0c-1-1-2-2-3-3c0,11.8,0,23.7,0,35.5c1-1,2-2,3-3c-4.3,0-8.7,0-13,0c1,1,2,2,3,3
			c0-11.8,0-23.7,0-35.5c0-3.9-6-3.9-6,0c0,11.8,0,23.7,0,35.5c0,1.6,1.4,3,3,3c4.3,0,8.7,0,13,0c1.6,0,3-1.4,3-3
			c0-11.8,0-23.7,0-35.5c0-1.6-1.4-3-3-3c-4.3,0-8.7,0-13,0C478.6,360.5,478.6,366.5,482.5,366.5z"/>
	</g>
</g>
<g>
	<polygon class="st2" points="467.5,363.5 513.5,363.5 501.5,288.5 474.5,288.5 	"/>
	<g>
		<path d="M467.5,366.5c15.3,0,30.7,0,46,0c2.1,0,3.2-1.9,2.9-3.8c-4-25-8-50-12-75c-0.2-1.3-1.7-2.2-2.9-2.2c-9,0-18,0-27,0
			c-1.7,0-2.8,1.4-3,3c-2.3,25-4.7,50-7,75c-0.4,3.8,5.6,3.8,6,0c2.3-25,4.7-50,7-75c-1,1-2,2-3,3c9,0,18,0,27,0
			c-1-0.7-1.9-1.5-2.9-2.2c4,25,8,50,12,75c1-1.3,1.9-2.5,2.9-3.8c-15.3,0-30.7,0-46,0C463.6,360.5,463.6,366.5,467.5,366.5z"/>
	</g>
</g>
<g>
	<polygon class="st1" points="283.7,219 283.5,191.5 296.5,191.5 296.5,214.5 	"/>
	<g>
		<path d="M286.7,219c-0.1-9.2-0.1-18.3-0.2-27.5c-1,1-2,2-3,3c4.3,0,8.7,0,13,0c-1-1-2-2-3-3c0,7.7,0,15.3,0,23
			c0.7-1,1.5-1.9,2.2-2.9c-4.3,1.5-8.6,3-12.8,4.5c-3.6,1.3-2.1,7.1,1.6,5.8c4.3-1.5,8.6-3,12.8-4.5c1.3-0.4,2.2-1.5,2.2-2.9
			c0-7.7,0-15.3,0-23c0-1.6-1.4-3-3-3c-4.3,0-8.7,0-13,0c-1.6,0-3,1.4-3,3c0.1,9.2,0.1,18.3,0.2,27.5
			C280.7,222.8,286.7,222.8,286.7,219z"/>
	</g>
</g>
<g>
	<g>
		<path d="M305.5,191.5c0,7,0,14,0,21c0,1.6,1.4,3,3,3c11.1,0,22.2,0,33.3,0c2.4,0,4.7,0.1,7.1,0c0.5,0,1,0,1.5,0
			c-1.1-0.1-0.1,0,0.6,0.2c5.3,1.2,10.7,2.2,16,3.3c1.9,0.4,3.8-0.8,3.8-2.9c-0.1-8.2-0.2-16.4-0.3-24.5c0-1.6-1.4-3-3-3
			c-19.7,0-39.3,0-59,0c-3.9,0-3.9,6,0,6c19.7,0,39.3,0,59,0c-1-1-2-2-3-3c0.1,8.2,0.2,16.4,0.3,24.5c1.3-1,2.5-1.9,3.8-2.9
			c-8.9-1.8-17-3.6-26-3.6c-11.4,0-22.7,0-34.1,0c1,1,2,2,3,3c0-7,0-14,0-21C311.5,187.6,305.5,187.6,305.5,191.5z"/>
	</g>
</g>
<g>
	<polygon class="st1" points="392.5,191.5 380.5,191.5 380.5,218.6 394.5,221.5 	"/>
	<g>
		<path d="M392.5,188.5c-4,0-8,0-12,0c-1.6,0-3,1.4-3,3c0,9,0,18.1,0,27.1c0,1.2,0.9,2.6,2.2,2.9c4.7,1,9.3,1.9,14,2.9
			c1.8,0.4,3.9-0.8,3.8-2.9c-0.7-10-1.3-20-2-30c-0.3-3.8-6.3-3.9-6,0c0.7,10,1.3,20,2,30c1.3-1,2.5-1.9,3.8-2.9
			c-4.7-1-9.3-1.9-14-2.9c0.7,1,1.5,1.9,2.2,2.9c0-9,0-18.1,0-27.1c-1,1-2,2-3,3c4,0,8,0,12,0C396.4,194.5,396.4,188.5,392.5,188.5z
			"/>
	</g>
</g>
<g>
	<polygon class="st0" points="274.5,147.5 256.5,159.5 289.5,174.5 398.5,174.5 419.5,166.5 403.5,152.5 361.5,147.5 367.5,153.5 
		357.5,160.5 335.5,165.5 308.5,160.5 308.5,147.5 312.5,147.5 	"/>
	<g>
		<path d="M273,144.9c-6,4-12,8-18,12c-1.7,1.1-2.2,4.2,0,5.2c10.7,4.9,21.3,10.3,32.2,14.7c2.1,0.8,3.7,0.8,5.9,0.8
			c5,0,9.9,0,14.9,0c28.5,0,57,0,85.5,0c9.5,0,17.9-4.8,26.7-8.1c1.9-0.7,3.2-3.4,1.3-5c-4.7-4.1-9.4-8.2-14-12.3
			c-3.1-2.7-5.6-2.8-9.6-3.2c-12.2-1.4-24.3-2.9-36.5-4.3c-2.7-0.3-3.8,3.4-2.1,5.1c2,2,4,4,6,6c0.2-1.6,0.4-3.1,0.6-4.7
			c-2.3,1.6-4.6,3.2-6.9,4.8c-0.9,0.6-1.9,1.5-2.9,2c0.7-0.4,0,0-0.8,0.1c-6.4,1.3-12.9,2.6-19.2,4.4c-1.6,0.4-1.7,0,0,0.3
			c-0.6-0.1-1.3-0.2-2-0.4c-3-0.6-6.1-1.1-9.1-1.7c-5.3-1-10.6-2-15.9-2.9c0.7,1,1.5,1.9,2.2,2.9c0-4.3,0-8.7,0-13c-1,1-2,2-3,3
			c1.3,0,2.7,0,4,0c3.9,0,3.9-6,0-6c-12.7,0-25.3,0-38,0c-3.9,0-3.9,6,0,6c12.7,0,25.3,0,38,0c3.9,0,3.9-6,0-6c-1.3,0-2.7,0-4,0
			c-1.6,0-3,1.4-3,3c0,4.3,0,8.7,0,13c0,1.2,0.9,2.7,2.2,2.9c5.6,1,11.2,2.1,16.8,3.1c4.1,0.8,8.8,2.5,13,1.6
			c6.5-1.3,13-2.7,19.4-4.4c4.4-1.2,8.3-5,12-7.6c1.6-1.1,2.1-3.3,0.6-4.7c-2-2-4-4-6-6c-0.7,1.7-1.4,3.4-2.1,5.1
			c11.7,1.4,23.4,2.8,35.1,4.2c1.9,0.2,4.3,0.9,6.2,0.7c1.7-0.1-1.2-0.3-1.2-0.6c0.1,0.5,1.9,1.7,2.3,2c4.5,3.9,9,7.9,13.5,11.8
			c0.4-1.7,0.9-3.3,1.3-5c-5.8,2.2-11.6,4.4-17.4,6.6c-1,0.4-2.1,0.9-3.2,1.2c-1.1,0.3,0.8,0,0.1,0.1c-0.9,0.1-1.8,0-2.7,0
			c-11.6,0-23.3,0-34.9,0c-15.7,0-31.3,0-47,0c-5.6,0-11.2,0-16.9,0c-2.3,0-5.1-0.4-7.3,0c1.5-0.3,1.8,0.6,0-0.3
			c-1-0.5-2.1-1-3.2-1.5c-3.8-1.7-7.6-3.5-11.4-5.2c-5.6-2.6-11.3-5.1-16.9-7.7c0,1.7,0,3.5,0,5.2c6-4,12-8,18-12
			C279.2,148,276.2,142.8,273,144.9z"/>
	</g>
</g>
<g>
	<g>
		<path d="M255.7,184.4c5.4,2,10.8,4,16.2,6c4.4,1.6,8.9,4.1,13.6,4.1c9.3,0,18.6,0,27.9,0c24.4,0,48.8,0,73.1,0
			c5.5,0,11.4,0.6,16.8,0c5.6-0.6,11.5-3.4,16.9-5.1c1.3-0.4,2.2-1.5,2.2-2.9c0-6.7,0-13.3,0-20c0-1.8-1.9-3.6-3.8-2.9
			c-5.8,2.2-11.6,4.4-17.4,6.6c-1,0.4-2.1,0.9-3.2,1.2c-1.1,0.3,0.6,0,0.2,0.1c-0.9,0.1-1.9,0-2.8,0c-11.6,0-23.3,0-34.9,0
			c-15.4,0-30.8,0-46.1,0c-5.9,0-11.8,0-17.7,0c-2.3,0-5-0.4-7.3,0c1.3-0.2,1.9,0.7,0.3-0.1c-1.2-0.6-2.5-1-3.7-1.6
			c-3.6-1.5-7.2-3-10.8-4.6c-5.8-2.5-11.6-4.9-17.4-7.4c-2-0.9-4.5,0.1-4.5,2.6c0,7,0,14,0,21c0,3.9,6,3.9,6,0c0-7,0-14,0-21
			c-1.5,0.9-3,1.7-4.5,2.6c10.8,4.6,21.5,9.7,32.5,13.8c2.1,0.8,3.9,0.6,6.1,0.6c5.1,0,10.2,0,15.3,0c28.3,0,56.5,0,84.8,0
			c9.5,0,17.9-4.8,26.7-8.1c-1.3-1-2.5-1.9-3.8-2.9c0,6.7,0,13.3,0,20c0.7-1,1.5-1.9,2.2-2.9c-5.2,1.6-10.6,4-15.9,5
			c1.5-0.3-1.9-0.1-2.4-0.1c-1.6,0-3.1,0-4.7,0c-1.8,0-3.6,0-5.4,0c-9.4,0-18.7,0-28.1,0c-23.4,0-46.8,0-70.2,0c-2.1,0-4.3,0-6.4,0
			c-0.5,0-1.1,0.1-1.7,0c-0.9-0.1,1.1,0.2,0.1,0c-2.6-0.7-5.2-1.9-7.8-2.9c-6.3-2.3-12.6-4.7-18.9-7
			C253.7,177.3,252.1,183.1,255.7,184.4z"/>
	</g>
</g>
<g>
	<polygon class="st1" points="308.5,147.5 318.5,147.5 318.5,129.5 360.5,129.5 360.5,147.5 367.5,153.5 357.5,160.5 335.5,165.5 
		308.5,160.5 	"/>
	<g>
		<path d="M308.5,150.5c3.3,0,6.7,0,10,0c1.6,0,3-1.4,3-3c0-6,0-12,0-18c-1,1-2,2-3,3c14,0,28,0,42,0c-1-1-2-2-3-3
			c0,5.5-0.1,10.9,0,16.4c0.1,4.7,4.5,6.9,7.9,9.7c0.2-1.6,0.4-3.1,0.6-4.7c-2.3,1.6-4.6,3.2-6.9,4.8c-0.9,0.6-1.9,1.5-2.9,2
			c0.7-0.4,0,0-0.8,0.1c-6.4,1.3-12.9,2.6-19.2,4.4c-1.6,0.4-1.7,0,0,0.3c-0.6-0.1-1.3-0.2-2-0.4c-3-0.6-6.1-1.1-9.1-1.7
			c-5.3-1-10.6-2-15.9-2.9c0.7,1,1.5,1.9,2.2,2.9c0-4.3,0-8.7,0-13c0-3.9-6-3.9-6,0c0,4.3,0,8.7,0,13c0,1.2,0.9,2.7,2.2,2.9
			c5.6,1,11.2,2.1,16.8,3.1c4.1,0.8,8.8,2.5,13,1.6c6.5-1.3,13-2.7,19.4-4.4c4.4-1.2,8.3-5,12-7.6c1.5-1,2.2-3.4,0.6-4.7
			c-1.8-1.6-3.6-3.4-5.6-4.8c-2.7-1.9,0.2,0.3-0.5,0.7c0.1-0.1,0-2.6,0-2.7c0-5,0-10,0-15c0-1.6-1.4-3-3-3c-14,0-28,0-42,0
			c-1.6,0-3,1.4-3,3c0,6,0,12,0,18c1-1,2-2,3-3c-3.3,0-6.7,0-10,0C304.6,144.5,304.6,150.5,308.5,150.5z"/>
	</g>
</g>
<g>
	<g>
		<path d="M166.7,97.4c21.5,7.3,42.9,16.1,65.1,21c13.6,3,27.2,6.7,40.8,9c13.2,2.3,26.9,3,40.2,4.5c11.6,1.3,23.3,0.6,34.9,0.6
			c10.4,0,20.5-0.6,31-1.4c26.8-2,53.4-4.5,80.1-7.2c10.9-1.1,21.3-5.9,31.6-9.3c6-2,12.6-3.5,18.4-6.1c1.7-0.8,2.4-1.8,3.3-3.3
			c2.2-3.5,4.4-7,6.7-10.6c1.4-2.2,2.8-4.4,4.2-6.6c0.6-0.9,0.5-2.1,0-3c-3.8-6.3-7.4-12.7-11.3-18.9c-2.7-4.3-10.7-5.4-15.2-7
			c-12.6-4.5-25.1-8.5-37.9-12.3c-11.1-3.3-21.6-7-33-8c-17.4-1.6-34.8-3.2-52.2-4.7c-10.3-0.9-20.7-0.5-31-0.5
			c-13,0-26.3-0.7-39.3,0c-13.9,0.8-27.8,2.8-41.7,4.2c-15.4,1.5-30.8,3-46.2,4.6c-3.7,0.4-6.8,2-10.2,3.5
			c-8.3,3.4-16.5,6.9-24.8,10.3c-1.6,0.7-3.6,1.2-4.9,2.3c-2.8,2.3-5,5.9-7.3,8.7c-1.6,1.9-4.2,4-4.5,6.6c-0.4,3.6,0.4,7.7,0.5,11.2
			c0.2,3.2,0.3,6.3,0.5,9.5c0.2,3.8,6.2,3.9,6,0c-0.1-3-0.3-6-0.4-9c-0.1-2.2-0.2-4.4-0.3-6.7c-0.1-1.1,0.3-3.8-0.2-4.8
			c-0.6-1-0.5,1.3-0.7,1.4c0.3-0.1,0.7-0.9,0.9-1c1.6-1.6,3-3.5,4.4-5.2c1.3-1.6,2.7-3.2,4-4.7c0.3-0.4,1-1,1.2-1.4
			c0.3-0.9-1.1,0.5-0.8,0.3c6.3-3.1,13.1-5.5,19.6-8.2c3.9-1.6,7.8-3.2,11.7-4.9c1.1-0.5,2.3-0.9,3.4-1.4c0.8-0.4,1.1-0.5,0.4-0.3
			c4-0.9,8.4-0.8,12.5-1.2c8.5-0.8,17-1.7,25.5-2.5c16.1-1.6,32.2-3.2,48.3-4.8c9.8-1,19.8-0.4,29.7-0.4c12.7,0,25.6-0.6,38.3,0
			c14.9,0.8,29.9,2.7,44.8,4.1c6.5,0.6,13,1.3,19.5,1.8c2.2,0.2-0.2-0.3,1.8,0.4c3,1.1,6.2,1.8,9.3,2.7c12.4,3.7,25.1,6.9,37.3,11.2
			c8.1,2.9,16.1,5.7,24.2,8.6c0.5,0.2,2.2,1.1,2.7,1c-0.8,0.3-2-2.4-0.6,0.3c1.9,3.8,4.4,7.3,6.6,11c1.5,2.5,3,5,4.5,7.5
			c0-1,0-2,0-3c-3.6,5.6-7.1,11.3-10.7,16.9c-0.7,1.1-2.1,2.3-0.4,1.4c2.1-1.2,0-0.3-0.5-0.2c-2.8,0.7-5.6,1.9-8.3,2.8
			c-8,2.7-16.1,5.4-24.1,8c-3,1-5.9,2-8.9,3c-0.7,0.2-1.4,0.5-2,0.7c-0.8,0.3,1.2-0.1,0,0.1c-14.2,2.4-28.9,3-43.2,4.4
			c-10.1,1-20.2,1.6-30.2,2.4c-23.6,1.7-47.5,3.5-71.2,2.1c-13.9-0.8-27.8-3.1-41.7-4.6c-0.8-0.1-1.6-0.2-2.5-0.3
			c-1.4-0.2,0.5,0.1-0.2,0c-2-0.4-4-0.9-5.9-1.3c-8-1.8-16.1-3.5-24.1-5.3c-9.4-2.1-18.5-3.9-27.6-7c-14.9-5-29.8-10.1-44.6-15.1
			c-1.2-0.4-2.3-0.8-3.5-1.2C164.6,90.4,163.1,96.2,166.7,97.4z"/>
	</g>
</g>
<g>
	<path class="st0" d="M392.5,93.5c0,0,53-8,52-6s36-8,36-8l19-10l-8-9l17,6l12,20l-12,19l-45,15l-81,8h-80l-48-7l-65-19l-23-8v-21
		l11-13l15-7v17l21,8.7l8,3.3l46,9h46h45L392.5,93.5z"/>
	<g>
		<path d="M393.3,96.4c16.1-2.4,32.6-5.5,48.9-6.2c0.2,0,1.3,0.1,1.4,0c-0.3,0.3-1.6-3.5-2-3.4c-1.6,0.3,1.7,3.6,2.4,3.8
			c2.9,0.8,7.1-0.8,9.9-1.4c8.8-1.9,18-3.9,26.6-6.7c7.1-2.3,13.9-7,20.5-10.5c1.8-0.9,1.8-3.3,0.6-4.7c-2.7-3-5.3-6-8-9
			c-1,1.7-1.9,3.3-2.9,5c3.4,1.2,6.9,2.4,10.3,3.6c1.7,0.6,3.5,1.4,5.3,1.9c2.8,0.7-0.3-1.6,0.1-0.1c0.9,3.5,4.5,7.5,6.3,10.6
			c1.7,2.9,3.5,5.8,5.2,8.7c0-1,0-2,0-3c-3.6,5.6-7.1,11.3-10.7,16.9c-0.2,0.4-0.8,1-1,1.5c-0.5,2-0.8-3.6,1.4-0.8
			c-0.1-0.1-1.5,0.5-1.5,0.5c-2.7,0.6-5.5,1.8-8.1,2.7c-8,2.7-16.1,5.4-24.1,8c-3,1-6.1,2-9.1,3c-0.6,0.2-1.3,0.5-1.9,0.6
			c-0.6,0.2,1.2-0.2,0.2,0c-12.5,2.2-25.5,2.5-38.1,3.8c-13.7,1.4-27.5,3-41.2,4.1c-8.8,0.7-17.8,0.1-26.6,0.1
			c-16.2,0-32.3,0-48.5,0c-1.8,0-3.7,0-5.5,0c-0.7,0-0.8,0,0.1,0.1c-0.5,0-1.1-0.2-1.6-0.2c-7-1-13.9-2-20.9-3.1
			c-10-1.5-20.3-2.2-30-5c-25.6-7.5-51.3-14.5-76.5-23.2c-2.3-0.8-4.6-1.6-7-2.4c0.7,1,1.5,1.9,2.2,2.9c0-4.8,0-9.6,0-14.4
			c0-0.6,0.5-6.1,0-6.4c0.5,0.3-1.9,2.5-0.2,1.1c1-0.8,1.8-2.1,2.6-3.1c2-2.3,4-4.7,5.9-7c0.5-0.6,1-1.4,1.6-1.9
			c-0.6,0.5,0,0.1,0.8-0.3c4.6-2,9.1-4.3,13.7-6.4c-1.5-0.9-3-1.7-4.5-2.6c0,5.7,0,11.3,0,17c0,1.5,1,2.4,2.2,2.9
			c6.6,2.7,13.2,5.5,19.8,8.2c4.3,1.8,8.4,3.6,12.9,4.5c8.6,1.7,17.3,3.4,25.9,5.1c5.6,1.1,11.4,2.8,17.1,3.3c6.2,0.5,12.7,0,19,0
			c8.4,0,16.8,0,25.3,0c13.5,0,26.9,0,40.4,0c13.4,0,26.9,1.2,40.3,2c3.9,0.2,3.8-5.8,0-6c-11.9-0.7-23.8-1.9-35.7-2
			c-14.4-0.1-28.9,0-43.3,0c-14.5,0-29.1,0-43.6,0c-0.8,0-1.5,0-2.3,0c0.9,0,0.4,0.1-0.4-0.1c-3-0.6-6-1.2-9-1.8
			c-9.1-1.8-18.3-3.6-27.4-5.4c-13.1-2.6-25.1-8.5-37.5-13.7c0.7,1,1.5,1.9,2.2,2.9c0-5.7,0-11.3,0-17c0-2.4-2.5-3.5-4.5-2.6
			c-4.7,2.2-10,4-14.4,6.7c-3.8,2.3-6.6,7.1-9.4,10.5c-1.1,1.3-3,2.9-3.5,4.6c-0.5,1.6-0.1,4-0.1,5.7c0,5.4,0,10.8,0,16.1
			c0,1.4,0.9,2.5,2.2,2.9c25,8.7,50.2,16,75.6,23.4c9.1,2.7,17.4,4.3,26.8,5.7c11.6,1.7,23.7,4.6,35.4,5c14,0.5,28,0,42,0
			c12.3,0,24.7,0.6,37,0c10.9-0.5,21.8-2.2,32.7-3.2c15.1-1.5,30.3-3,45.4-4.5c10.2-1,20.3-5.9,29.9-9.1c6-2,12.4-3.6,18.3-6.1
			c1.8-0.7,2.5-1.8,3.5-3.4c2.1-3.4,4.3-6.8,6.4-10.2c1.5-2.3,3-4.7,4.4-7c0.6-0.9,0.5-2.1,0-3c-1.8-3-3.7-6.1-5.5-9.1
			c-2.1-3.4-3.9-7.6-6.4-10.7c-1.8-2.2-5.2-2.7-7.7-3.6c-3.7-1.3-7.5-2.6-11.2-3.9c-3-1.1-4.8,2.9-2.9,5c2.7,3,5.3,6,8,9
			c0.2-1.6,0.4-3.1,0.6-4.7c-3.3,1.7-6.6,3.5-9.9,5.2c-2.1,1.1-4.2,2.2-6.3,3.3c-0.7,0.3-3.5,1.7-2.2,1.2
			c-7.9,2.8-16.5,4.4-24.7,6.3c-2.1,0.5-4.2,1-6.3,1.4c-0.7,0.1-1.7,0.1-2.4,0.4c-0.1,0.1-0.4,0-0.5,0.1c-0.2,0-0.3,0-0.5,0
			c-1.5,0-0.8,1.2,2.2,3.5c1.4-3.1-2.7-4.1-4.8-4.1c-8.8-0.1-17.8,1.8-26.5,2.9c-8.2,1.1-16.3,2.3-24.4,3.5
			C387.9,91.2,389.5,97,393.3,96.4z"/>
	</g>
</g>
<g>
	<polygon class="st1" points="356.5,69.5 322.5,69.5 294.5,61.5 308.5,53.5 356.5,53.5 380.5,61.5 	"/>
	<g>
		<path d="M356.5,66.5c-11.1,0-22.3,0.6-33.4,0c-1.3-0.1,0.7,0.2-0.2,0c-0.8-0.2-1.6-0.5-2.4-0.7c-3.1-0.9-6.2-1.8-9.4-2.7
			c-5.3-1.5-10.6-3-15.9-4.5c0.2,1.8,0.5,3.7,0.7,5.5c2.5-1.4,4.9-2.8,7.4-4.2c1.5-0.9,3-1.7,4.5-2.6c0.5-0.3,1.3-0.5,1.6-0.9
			c0.6-0.7-0.8,0.2-1,0.2c5.3,0.4,10.7,0,16,0c8,0,16,0,24,0c2.4,0,4.7-0.1,7.1,0c1,0,0.5,0,0.2,0c1,0.2,1.9,0.6,2.9,1
			c7,2.3,14,4.7,20.9,7c0-1.9,0-3.9,0-5.8c-8,2.7-16,5.3-24,8c-3.6,1.2-2.1,7,1.6,5.8c8-2.7,16-5.3,24-8c2.8-0.9,2.8-4.8,0-5.8
			c-9.9-3.3-19.7-8.1-30.2-8.1c-8,0-16,0-24.1,0c-5.9,0-12.3-0.7-18.2,0c-2.3,0.3-4.3,1.8-6.4,3c-3.2,1.8-6.3,3.6-9.5,5.4
			c-2.3,1.3-1.7,4.8,0.7,5.5c5.3,1.5,10.6,3,15.9,4.5c4.3,1.2,8.8,3.1,13.2,3.6c11,1.1,22.6,0,33.7,0
			C360.4,72.5,360.4,66.5,356.5,66.5z"/>
	</g>
</g>
<g>
	<g>
		<path d="M221.5,85.5c32-2,63.9-3.9,95.9-5.9c6-0.4,12.1,0.5,18.1,0.9c-1-1.3-1.9-2.5-2.9-3.8c-1.5,4.7-3,9.3-4.5,14
			c1-0.7,1.9-1.5,2.9-2.2c-16,0-31.9,0-47.9,0c-3.8,0-7.6,0-11.4,0c-1,0-2,0-3.1,0c-0.6,0-1.8-0.1-0.4,0.1
			c-7.3-0.8-14.7-2.9-21.9-4.3c-8-1.6-16-3.1-24-4.7c-3.8-0.7-5.4,5-1.6,5.8c15,2.9,30.1,6.4,45.2,8.8c4.2,0.7,8.7,0.3,13,0.3
			c10.3,0,20.7,0,31,0c7,0,14,0,21,0c1.4,0,2.5-0.9,2.9-2.2c1.5-4.7,3-9.3,4.5-14c0.6-2-1-3.7-2.9-3.8c-5.6-0.4-11.4-1.1-17-0.9
			c-6.2,0.2-12.4,0.8-18.6,1.1c-20.8,1.3-41.6,2.5-62.3,3.8c-5.4,0.3-10.7,0.7-16.1,1C217.7,79.7,217.6,85.7,221.5,85.5z"/>
	</g>
</g>
<g>
	<g>
		<path d="M365.4,74.4c-3,2.3-6,4.7-9,7c-1.6,1.2-0.9,3.8,0.6,4.7c3.6,2.1,7.1,4.1,10.7,6.2c2.5,1.5,4.6,3,7.5,3.2
			c8.2,0.4,16.5,0,24.7,0c3.2,0,3.8-3.9,1.5-5.6c-4.5-3.4-9.2-8-14.3-10.3c-5.9-2.6-12.6-4-18.8-5.9c-3.7-1.2-5.3,4.6-1.6,5.8
			c6.1,1.9,12.6,3.3,18.5,5.8c0.4,0.2,0.8,0.4-0.1-0.1c0.4,0.2,0.8,0.5,1.1,0.8c1.4,1.1,2.9,2.1,4.3,3.2c2.6,1.9,5.2,3.9,7.9,5.8
			c0.5-1.9,1-3.7,1.5-5.6c-7.9,0-16-0.3-23.9,0c-0.5,0-1.1-0.1-1.6,0c-0.7,0.1,1.6,0.9,0.8,0.2c-1.3-1.1-3.3-1.9-4.8-2.8
			c-3.4-2-6.9-3.9-10.3-5.9c0.2,1.6,0.4,3.1,0.6,4.7c3-2.3,6-4.7,9-7C372.7,76.3,368.4,72,365.4,74.4z"/>
	</g>
</g>
<g>
	<polygon class="st1" points="386.5,69.5 427.5,69.5 489.5,75.5 463.5,84.5 426.5,82.5 380.5,77.5 	"/>
	<g>
		<path d="M386.5,72.5c13.6,0,27.4-0.6,41,0c14.4,0.7,28.8,2.8,43.1,4.2c6.3,0.6,12.6,1.2,18.9,1.8c-0.3-2-0.5-3.9-0.8-5.9
			c-7.5,2.6-15.1,5.2-22.6,7.8c-1.1,0.4-2.2,0.9-3.3,1.1c1.5-0.3-0.7-0.1-1.4-0.2c-4.2-0.2-8.3-0.5-12.5-0.7
			c-14.6-0.8-28.9-1.9-43.5-3.5c-8.3-0.9-16.6-1.8-25-2.7c0.9,1.5,1.7,3,2.6,4.5c2-2.7,4-5.3,6-8c2.3-3.1-2.9-6.1-5.2-3
			c-2,2.7-4,5.3-6,8c-1.5,2,0.6,4.3,2.6,4.5c15.2,1.6,30.4,3.6,45.6,5c6.6,0.6,13.3,0.7,19.9,1.1c4.6,0.2,9.2,0.5,13.8,0.7
			c2,0.1,3.6,0.3,5.5-0.3c8.4-2.4,16.7-5.8,25-8.6c3.3-1.1,2.6-5.6-0.8-5.9c-26.3-2.5-52.6-6-79-6c-8,0-16,0-24,0
			C382.6,66.5,382.6,72.5,386.5,72.5z"/>
	</g>
</g>
<g>
	<g>
		<path d="M293.5,61.5c0,5.3,0,10.5,0,15.8c0,1.6,1.4,3.1,3,3c13.2-0.4,25.9-0.6,39,0.2c-1-1.3-1.9-2.5-2.9-3.8
			c-1.7,4.7-3.3,9.3-5,14c-0.7,1.9,1.1,3.8,2.9,3.8c14.7,0.3,29.3,0.7,44,1c3,0.1,4.1-4.1,1.5-5.6c-5.3-3-10.7-6-16-9
			c0.2,1.6,0.4,3.1,0.6,4.7c2.6-2,5.5-3.8,7.9-6.1c2.2-2.2-1,0.9-0.9,0c0,0,1.3,0.1,1.3,0.1c1.8,0.5,4.2,0.3,6.1,0.5
			c3.1,0.2,5.9,1.2,8.2-1.2c2.2-2.3,4-5.3,5.9-7.9c0.6-0.8,0.6-2.3,0-3c-2-2.7-4-5.3-6-8c-0.8-1-2.1-1.9-3.4-1.4
			c-5.7,2.1-11.4,4.1-17.1,6.2c-1.2,0.5-2.5,0.9-3.8,1.4c-1.1,0.5-1,0.4-0.6,0.3c-2.1,0.3-4.4,0-6.6,0c-7.9,0-15.7,0-23.6,0
			c-1.8,0-3.8,0.2-5.6,0c1.5,0.2-0.2-0.2-0.7-0.4c-1.4-0.5-2.9-0.9-4.3-1.3c-6.7-2.1-13.5-4.1-20.2-6.2c-3.7-1.1-5.3,4.7-1.6,5.8
			c6,1.9,12.1,3.7,18.1,5.6c4.2,1.3,7.6,2.5,11.9,2.5c7.7,0,15.3,0,23,0c4.1,0,8.6,0.6,12.5-0.8c6.7-2.4,13.4-4.9,20.1-7.3
			c-1.1-0.5-2.3-0.9-3.4-1.4c2,2.7,4,5.3,6,8c0-1,0-2,0-3c-2,2.7-4,5.3-6,8c0.9-0.5,1.7-1,2.6-1.5c-4-0.3-9.5-1.8-13.4-0.9
			c-3.7,0.9-7.7,5.5-10.7,7.8c-1.5,1.2-0.9,3.9,0.6,4.7c5.3,3,10.7,6,16,9c0.5-1.9,1-3.7,1.5-5.6c-14.7-0.3-29.3-0.7-44-1
			c1,1.3,1.9,2.5,2.9,3.8c1.7-4.7,3.3-9.3,5-14c0.7-2-1.1-3.7-2.9-3.8c-13.1-0.8-25.8-0.7-39-0.2c1,1,2,2,3,3c0-5.3,0-10.5,0-15.8
			C299.5,57.6,293.5,57.6,293.5,61.5z"/>
	</g>
</g>
<g>
	<polygon class="st0" points="362.5,55.5 419.5,44.5 433.5,42.5 490.5,59.5 474.5,61.5 413.5,56.5 380.5,61.5 	"/>
	<g>
		<path d="M363.3,58.4c18.3-3.5,36.6-7.1,55-10.6c2.4-0.5,4.8-0.8,7.2-1.1c2.5-0.4,5.2-0.6,7.7-1.1c2.1-0.4-1.4-0.8,0.8,0.2
			c3.4,1.5,7.6,2.3,11.2,3.3c5.7,1.7,11.4,3.4,17.1,5.1c9.2,2.7,18.4,5.5,27.6,8.2c0.3-2,0.5-3.9,0.8-5.9c-6.5,0.8-13,2.2-19.6,1.7
			c-11-0.9-21.9-1.8-32.9-2.7c-8-0.7-16.5-2.2-24.5-2c-8.8,0.3-17.9,2.7-26.6,4c-2.1,0.3-4.4,0.4-6.4,1c-1.6,0.5,0.1-0.1,0.5,0.1
			c-0.7-0.4-1.6-0.5-2.4-0.8c-5.1-1.7-10.2-3.4-15.4-5.1c-3.7-1.2-5.2,4.6-1.6,5.8c4.5,1.5,9,3,13.5,4.5c3.1,1,5.1,1.7,8.3,1.2
			c9.9-1.5,19.9-3.5,29.9-4.5c1.9-0.2-0.7-0.1,0.7,0c1.3,0.1,2.7,0.2,4,0.3c5.1,0.4,10.1,0.8,15.2,1.2c11.5,0.9,23,1.9,34.5,2.8
			c7.8,0.6,14.9-0.5,22.7-1.4c3.2-0.4,4.3-4.9,0.8-5.9c-18.2-5.4-36.4-10.9-54.7-16.3c-5.7-1.7-12.5,0.4-18.3,1.4
			c-9.3,1.6-18.5,3.6-27.7,5.3c-9.7,1.9-19.3,3.7-29,5.6C357.9,53.3,359.5,59.1,363.3,58.4z"/>
	</g>
</g>
<g>
	<polygon class="st1" points="296.5,61.5 229.5,69.5 192.5,69.5 192.5,53.5 256.5,52.5 308.5,44.5 335.5,53 308.5,53.5 	"/>
	<g>
		<path d="M296.5,58.5c-14.6,1.7-29.1,3.5-43.7,5.2c-11.8,1.4-23.1,2.8-35,2.8c-8.4,0-16.9,0-25.3,0c1,1,2,2,3,3c0-5.3,0-10.7,0-16
			c-1,1-2,2-3,3c20.5-0.3,41-0.6,61.5-1c6.7-0.1,13.5-1.7,20.1-2.7c6.9-1.1,13.8-2.1,20.7-3.2c4.4-0.7,9.4-0.8,13.7-2.1
			c1.4-0.4,0.5,0.7-0.7-0.1c0.5,0.3,1.3,0.4,1.9,0.6c3,1.2,6.2,2,9.2,2.9c5.3,1.7,10.6,3.3,15.8,5c0.3-2,0.5-3.9,0.8-5.9
			c-8,0.1-16,0.3-24,0.4c-6.5,0.1-11.3,5-16.5,8.5c-3.2,2.1-0.2,7.3,3,5.2c3.3-2.2,6.5-4.4,9.8-6.5c0.6-0.4,1.5-0.8,1.9-1.3
			c0.6-0.7-1.8,0.2-1,0.2c1.3,0,2.6,0,3.8-0.1c7.7-0.1,15.3-0.3,23-0.4c3.4-0.1,4-4.9,0.8-5.9c-4.7-1.5-9.3-2.9-14-4.4
			c-4.1-1.3-8.7-3.5-13-4.1c-3-0.4-6.6,0.8-9.5,1.2c-6.5,1-13,2-19.5,3c-6.1,0.9-12.2,1.9-18.3,2.8c-1.8,0.3-3.6,0.6-5.3,0.8
			c-1.7,0.2,0.8,0-0.8,0c-10.4,0.1-20.9,0.3-31.3,0.5c-10.7,0.2-21.3,0.3-32,0.5c-1.6,0-3,1.4-3,3c0,5.3,0,10.7,0,16
			c0,1.6,1.4,3,3,3c12.4,0,25.2,0.9,37.6-0.1c16.1-1.2,32.2-3.8,48.2-5.8c6.1-0.7,12.2-1.5,18.3-2.2C300.3,64,300.3,58,296.5,58.5z"
			/>
	</g>
</g>
<g>
	<polygon class="st0" points="317.9,47.4 330,36.5 349,36.5 358.5,36.5 351.5,47.5 343.5,53.5 331.1,51.6 	"/>
	<g>
		<path d="M320,49.6c3.1-2.8,6.1-5.5,9.2-8.3c0.7-0.6,1.5-1.2,2.1-1.9c1.5-1.8-0.9,0.7-1.1,0.1c0.1,0.3,4.7,0,5.1,0
			c7.8,0,15.5,0,23.3,0c-0.9-1.5-1.7-3-2.6-4.5c-2.3,3.6-4.7,7.1-6.8,10.7c0.1-0.2,1.4-1-0.2,0.1c-1.1,0.8-2.2,1.6-3.3,2.5
			c-0.5,0.4-3,1.8-3.2,2.4c-0.3,1.2,1.8-0.8,1.8,0c0-0.1-0.9-0.1-1-0.2c-3.8-1.1-8-0.9-11.8-1.9c-4.3-1.1-8.5-2.7-12.7-4
			c-3.7-1.2-5.3,4.6-1.6,5.8c8.2,2.6,16.9,5.9,25.6,6.1c2.5,0.1,3.9-1.5,5.9-3c1.7-1.3,3.8-2.5,5.2-4.1c2.9-3.2,4.9-7.7,7.2-11.3
			c1.2-1.9-0.4-4.5-2.6-4.5c-8.3,0-16.6,0-25,0c-3.5,0-5,0.3-7.7,2.7c-3.4,3-6.7,6.1-10.1,9.1C312.9,47.9,317.1,52.1,320,49.6z"/>
	</g>
</g>
</svg>
