<?xml version="1.0" encoding="utf-8"?>
<!-- Generator: Adobe Illustrator 21.0.2, SVG Export Plug-In . SVG Version: 6.00 Build 0)  -->
<svg version="1.1" id="Layer_1" xmlns="http://www.w3.org/2000/svg" xmlns:xlink="http://www.w3.org/1999/xlink" x="0px" y="0px"
	 viewBox="0 0 30 66" style="enable-background:new 0 0 30 66;" xml:space="preserve">
<style type="text/css">
	.st0{fill:#414040;}
	.st1{fill:#2E2D2D;}
	.st2{fill:#7FFF57;}
</style>
<g>
	<path class="st0" d="M1.9,5.3v56.4c0,0-1.1,1.8,12.7,0.9l0.5-58.5C15.1,4.1,3.1,4.1,1.9,5.3z"/>
	<path class="st1" d="M15.1,4.1l-1.2,58.8c0,0,13.4,0.1,13.3-0.5c-0.1-0.7-0.1-57.1-0.1-57.1S16.3,1.7,15.1,4.1z"/>
	<path d="M2.1,5.7c0,0,8.3-2.9,25.2,0c0,0-0.4-2.7-2.7-3.2H4.5c0,0-2.4,0.3-2.7,3.2H2.1z"/>
	<path d="M1.8,61.9c0,0,12.1,1.5,25.4,0c0,0-0.2,2.1-2.6,2.8H5C5,64.7,1.9,64.5,1.8,61.9z"/>
	<path class="st2" d="M8.7,22.1l4-1.2l2.6,1.2c0,0,5.3,2.6,0,25.1c0,0,3.4-21.5-2.6-23.9C12.7,23.3,11.5,22.1,8.7,22.1z"/>
	<path class="st2" d="M8.7,22.1l5.2-2.4l1.4,2.4c0,0,5.3,2.6,0,25.1c0,0,3.4-21.5-2.6-23.9C12.7,23.3,11.5,22.1,8.7,22.1z"/>
	<path class="st2" d="M4.5,21.5l3.4-1l2.2,1c0,0,4.5,2.2,0,21.4c0,0,2.9-18.3-2.2-20.3C8,22.5,6.9,21.5,4.5,21.5z"/>
	<path class="st2" d="M14.1,21.5l3.4-1l2.2,1c0,0,4.5,2.2,0,21.4c0,0,2.9-18.3-2.2-20.3C17.6,22.5,16.5,21.5,14.1,21.5z"/>
</g>
</svg>
