<?xml version="1.0" encoding="utf-8"?>
<!-- Generator: Adobe Illustrator 21.0.2, SVG Export Plug-In . SVG Version: 6.00 Build 0)  -->
<svg version="1.1" id="Layer_1" xmlns="http://www.w3.org/2000/svg" xmlns:xlink="http://www.w3.org/1999/xlink" x="0px" y="0px"
	 viewBox="0 0 21 55" style="enable-background:new 0 0 21 55;" xml:space="preserve">
<style type="text/css">
	.st0{fill:#0C2043;}
	.st1{fill:#D9D9D9;}
</style>
<g>
	<path d="M0.2,4.3c0,0,6.9-2.4,21,0c0,0-0.3-2.3-2.3-2.6H2.2c0,0-2,0.2-2.3,2.6H0.2z"/>
	<path d="M0,51.2c0,0,10,1.3,21.2,0c0,0-0.2,1.7-2.2,2.3H2.6C2.6,53.5,0,53.4,0,51.2z"/>
	<path class="st0" d="M16.6,3.7L10.7,28H0L-0.1,4.3C-0.1,4.3,8.1,2.1,16.6,3.7z"/>
	<path class="st1" d="M16.4,3.7L10.5,28h10.7l0.1-23.7C21.3,4.3,16.4,3.4,16.4,3.7z"/>
	<path class="st0" d="M10.4,28L4.3,51.6c0,0,8.2,1,16.9-0.2V28H10.4z"/>
	<path class="st1" d="M-0.1,28v23.1c0,0,0.9,0.3,4.5,0.6l6-23.7H-0.1z"/>
</g>
</svg>
