<?xml version="1.0" encoding="utf-8"?>
<!-- Generator: Adobe Illustrator 21.0.2, SVG Export Plug-In . SVG Version: 6.00 Build 0)  -->
<svg version="1.1" id="Layer_1" xmlns="http://www.w3.org/2000/svg" xmlns:xlink="http://www.w3.org/1999/xlink" x="0px" y="0px"
	 viewBox="0 0 30 66" style="enable-background:new 0 0 30 66;" xml:space="preserve">
<style type="text/css">
	.st0{fill:#414040;}
	.st1{fill:#2E2D2D;}
	.st2{fill:#FEF300;stroke:#FFFFFF;stroke-miterlimit:10;}
</style>
<g>
	<path class="st0" d="M1.9,5.3v56.4c0,0-1.1,1.8,12.7,0.9l0.5-58.5C15.1,4.1,3.1,4.1,1.9,5.3z"/>
	<path class="st1" d="M15.1,4.1l-1.2,58.8c0,0,13.4,0.1,13.3-0.5c-0.1-0.7-0.1-57.1-0.1-57.1S16.3,1.7,15.1,4.1z"/>
	<path d="M2.1,5.7c0,0,8.3-2.9,25.2,0c0,0-0.4-2.7-2.7-3.2H4.5c0,0-2.4,0.3-2.7,3.2H2.1z"/>
	<path d="M1.8,61.9c0,0,12.1,1.5,25.4,0c0,0-0.2,2.1-2.6,2.8H5C5,64.7,1.9,64.5,1.8,61.9z"/>
	<polygon class="st2" points="3.1,17.3 4.3,29.3 1.9,30.5 1.9,36.5 4.3,37.7 6.7,55.7 12.7,37.7 22.3,43.7 14.5,30.6 19.9,17.3 
		10.3,24.5 	"/>
</g>
</svg>
