<?xml version="1.0" encoding="utf-8"?>
<!-- Generator: Adobe Illustrator 21.0.2, SVG Export Plug-In . SVG Version: 6.00 Build 0)  -->
<svg version="1.1" id="Layer_1" xmlns="http://www.w3.org/2000/svg" xmlns:xlink="http://www.w3.org/1999/xlink" x="0px" y="0px"
	 viewBox="0 0 34 34" style="enable-background:new 0 0 34 34;" xml:space="preserve">
<style type="text/css">
	.st0{fill:#002D4B;}
	.st1{fill:#00FDFD;}
</style>
<g>
	<g>
		<path class="st0" d="M29.1,0.8c2.3,0,4.2,1.9,4.2,4.2v24.1c0,2.3-1.9,4.2-4.2,4.2H4.9c-2.3,0-4.2-1.9-4.2-4.2V4.9
			c0-2.3,1.9-4.2,4.2-4.2H29.1 M29.1-0.3H4.9c-2.9,0-5.2,2.3-5.2,5.2v24.1c0,2.9,2.3,5.2,5.2,5.2h24.1c2.9,0,5.2-2.3,5.2-5.2V4.9
			C34.3,2.1,31.9-0.3,29.1-0.3L29.1-0.3z"/>
	</g>
	<g>
		<path class="st0" d="M19.1,27h-4.3C10.5,27,7,23.5,7,19.1v-4.3C7,10.5,10.5,7,14.9,7h4.3c4.3,0,7.9,3.5,7.9,7.9v4.3
			C27,23.5,23.5,27,19.1,27z"/>
	</g>
	<polygon class="st1" points="21.3,23 16.8,20.7 12.4,23.1 13.2,18 9.6,14.5 14.6,13.8 16.8,9.2 19,13.7 24,14.5 20.4,18 	"/>
</g>
</svg>
